<?xml version="1.0" encoding="utf-8"?>
<!-- Generator: Adobe Illustrator 26.0.2, SVG Export Plug-In . SVG Version: 6.00 Build 0)  -->
<svg version="1.1" id="Calque_1" xmlns="http://www.w3.org/2000/svg" xmlns:xlink="http://www.w3.org/1999/xlink" x="0px" y="0px"
	 viewBox="0 0 500 500" style="enable-background:new 0 0 500 500;" xml:space="preserve">
<style type="text/css">
	.st0{fill:#FFFFFF;}
	.st1{fill:#FEFEFE;}
	.st2{fill:#FDFDFD;}
	.st3{fill:#FCFCFD;}
	.st4{fill:#FBFBFC;}
	.st5{fill:#FAFAFB;}
	.st6{fill:#F9F9FA;}
	.st7{fill:#F8F8F9;}
	.st8{fill:#F7F7F9;}
	.st9{fill:#F6F6F8;}
	.st10{fill:#F5F5F7;}
	.st11{fill:#F4F4F6;}
	.st12{fill:#F3F3F5;}
	.st13{fill:#F2F2F5;}
	.st14{fill:#F1F1F4;}
	.st15{fill:#F0F0F3;}
	.st16{fill:#EFEFF2;}
	.st17{fill:#EEEEF1;}
	.st18{fill:#EDEDF1;}
	.st19{fill:#ECECF0;}
	.st20{fill:#EBEBEF;}
	.st21{fill:#EAEAEE;}
	.st22{fill:#E9E9ED;}
	.st23{fill:#E8E8ED;}
	.st24{fill:#E7E7EC;}
	.st25{fill:#E6E6EB;}
	.st26{fill:#E5E5EA;}
	.st27{fill:#E4E4E9;}
	.st28{fill:#E3E3E9;}
	.st29{fill:#E2E2E8;}
	.st30{fill:#E1E1E7;}
	.st31{fill:#E0E0E6;}
	.st32{fill:#DFDFE5;}
	.st33{fill:#DEDEE5;}
	.st34{fill:#DDDDE4;}
	.st35{fill:#DCDCE3;}
	.st36{fill:#DBDBE2;}
	.st37{fill:#DADAE1;}
	.st38{fill:#006699;}
	.st39{fill:url(#SVGID_00000170974428910974901490000015531444444821828769_);}
	.st40{fill:url(#SVGID_00000115494873188544820390000015905858657213008260_);}
	.st41{fill:url(#SVGID_00000080191239498237972710000018057397303505961865_);}
	.st42{fill:#010000;}
	.st43{fill:url(#SVGID_00000156586059199778245170000011679938880684156801_);}
	.st44{fill:url(#SVGID_00000168796820977531122620000015824067495724331444_);}
	.st45{fill:url(#SVGID_00000134965142120536684040000004653225639749673868_);}
</style>
<g>
	<g>
		<g>
			<path class="st38" d="M304.33,175.42c-12.68-4.87-25.8-7.44-38.74-8.2c-0.69-0.04-1.35-0.08-1.99-0.12
				c0.08,1.5,0.12,2.94,0.15,4.28c0,0.01,0,0.02-0.01,0.03c-0.06,2.64-0.21,6.54-0.5,12.17c-0.01,0.18-0.02,0.37-0.02,0.56
				c1.71,0.11,4.09,0.31,7.35,0.67c8.85,0.97,17.97,3.76,26.53,9c8.56,5.23,10.59,11.23,8.67,17.03c-1.91,5.8-10.27,9.19-10.27,9.19
				c-3.39,7.08-7.36,11.23-13.35,10.92c-3.17-0.17-11.6-3.01-17.36-18.26c-1.36-3.59-2.38-7.1-3.14-10.34
				c-1.63,11.23-4.62,21.94-8.93,32.02c10.67,25.61,26.16,29.94,32.37,29.94c12.75,0,21.68-9.29,29.7-24.77
				c0,0,18.22-8.2,22.96-20.78c4.74-12.56,1.09-25.14-16.58-35.34C315.67,180.26,310.05,177.61,304.33,175.42z"/>
			<path class="st38" d="M250.58,228.73c4.88-12.7,7.46-25.82,8.21-38.77c0.03-0.61,0.07-1.22,0.1-1.81
				c0.08-1.46,0.16-2.82,0.22-4.1c0-0.07,0.01-0.14,0.01-0.21c0.28-5.42,0.43-9.24,0.51-11.88v-0.12c0-0.02,0-0.05,0-0.07
				c-0.01-0.12-0.01-0.25-0.01-0.39v-0.12c-0.03-1.36-0.09-2.82-0.16-4.38c0-0.08-0.01-0.17-0.01-0.26v-0.01
				c-0.06-1.32-0.15-2.68-0.26-4.13c-0.17-2.39-0.41-4.92-0.72-7.58c-0.09-0.75-0.19-1.52-0.28-2.3c-0.23-1.76-0.49-3.58-0.8-5.43
				c-0.06-0.4-0.13-0.79-0.2-1.19c-0.08-0.46-0.16-0.91-0.24-1.36c-0.09-0.46-0.16-0.92-0.26-1.37c-0.28-1.51-0.59-3.04-0.93-4.58
				c-0.16-0.75-0.33-1.5-0.5-2.25c-0.13-0.54-0.26-1.09-0.39-1.64c-0.24-1.02-0.51-2.04-0.78-3.07c-0.11-0.43-0.23-0.86-0.35-1.3
				c-0.42-1.55-0.88-3.11-1.37-4.68c-0.28-0.9-0.57-1.81-0.87-2.72c-0.15-0.46-0.31-0.92-0.46-1.37
				c-10.61-30.67-27.87-35.62-34.52-35.62c-0.44,0-0.88,0.01-1.32,0.03c-0.65,0.03-1.29,0.09-1.92,0.17
				c-0.42,0.05-0.84,0.12-1.25,0.2c-1.86,0.35-3.63,0.92-5.33,1.69c-0.38,0.17-0.75,0.35-1.12,0.54c-1.09,0.57-2.15,1.22-3.19,1.96
				c-0.54,0.38-1.08,0.8-1.61,1.24c-0.51,0.42-1.02,0.86-1.52,1.32c-0.33,0.31-0.66,0.63-0.99,0.95c-2.86,2.86-5.52,6.42-8.05,10.59
				c-0.46,0.76-0.92,1.54-1.37,2.34c-0.68,1.2-1.35,2.44-2.02,3.72c0,0-0.74,0.34-1.97,0.97c-0.27,0.14-0.57,0.3-0.89,0.47
				c-0.35,0.19-0.74,0.4-1.13,0.63c-0.32,0.17-0.66,0.37-1,0.57c-0.39,0.23-0.79,0.47-1.22,0.73c-0.42,0.26-0.85,0.52-1.28,0.81
				c-0.44,0.29-0.89,0.58-1.34,0.89c-0.46,0.31-0.92,0.63-1.38,0.96c-2.09,1.5-4.27,3.27-6.25,5.25c-1.9,1.9-3.62,3.99-4.95,6.27
				c-0.24,0.41-0.47,0.83-0.68,1.26c-0.32,0.64-0.61,1.29-0.86,1.95c-4.74,12.57-1.1,25.14,16.57,35.34
				c1.1,0.64,2.22,1.26,3.33,1.85c0.46,0.25,0.93,0.5,1.39,0.74c1.22,0.63,2.46,1.24,3.69,1.83c0.56,0.27,1.11,0.52,1.67,0.78
				c0.39,0.18,0.78,0.35,1.18,0.53c0.46,0.21,0.93,0.41,1.39,0.6c0.31,0.13,0.61,0.27,0.92,0.39c0.41,0.17,0.82,0.34,1.23,0.5
				c0.67,0.28,1.35,0.54,2.03,0.8c0.01,0.01,0.01,0,0.02,0.01c12.68,4.87,25.79,7.44,38.72,8.19c0.72,0.04,1.41,0.08,2.1,0.12
				c0.17-2.78,0.25-5.57,0.25-8.38c0-2.71-0.08-5.41-0.23-8.09c-0.01-0.2-0.02-0.39-0.03-0.59c-1.69-0.11-3.98-0.31-7.05-0.64
				c-8.85-0.98-17.97-3.77-26.53-9c-8.55-5.23-10.59-11.23-8.67-17.03c1.92-5.79,10.28-9.2,10.28-9.2
				c3.38-7.08,7.35-11.22,13.34-10.91c1.89,0.1,5.65,1.15,9.59,5.2l0.01,0.01c2.67,2.75,5.43,6.88,7.76,13.05
				c1.26,3.33,2.23,6.59,2.97,9.62c0.01,0.05,0.02,0.1,0.03,0.16c2.63,10.77,2.43,18.87,2.43,18.87s-0.01,0.11-0.02,0.22
				c-0.01,0-0.02,0-0.02,0c0.01,0.08,0.01,0.14,0.01,0.22c0.32,5.57,0.31,11.15-0.02,16.72c-0.01,0.19-0.02,0.37-0.03,0.56
				c-0.07,1.18-0.16,2.35-0.27,3.53c-0.08,0.97-0.18,1.94-0.28,2.92c0,0.05-0.01,0.09-0.01,0.14c-0.1,1.23-0.25,2.66-0.43,4.32
				c-0.36,3.2-0.95,6.43-1.8,9.66c-1.51,5.71-3.86,11.4-7.19,16.86c-1.14,1.86-2.3,3.4-3.51,4.67c-4.32,4.59-8.99,5.51-13.52,4.01
				c-5.79-1.92-9.19-10.27-9.19-10.27c-7.08-3.39-11.23-7.36-10.92-13.35c0.17-3.17,3-11.61,18.26-17.36
				c3.63-1.37,7.14-2.39,10.41-3.16c-9.42-1.36-18.51-3.69-27.15-6.96l-1.54-0.59c-0.43-0.16-0.86-0.34-1.29-0.52l-0.2-0.09
				l-1.03-0.42l-0.05-0.02c-0.27-0.1-0.53-0.23-0.79-0.34c-0.01,0.01-0.01,0-0.02,0.01c-25.63,10.67-29.97,26.17-29.97,32.38
				c0.01,2,0.23,3.9,0.68,5.72c0.15,0.6,0.32,1.2,0.52,1.79c0.01,0.02,0.01,0.03,0.02,0.05c0.39,1.15,0.86,2.28,1.43,3.36
				c0.01,0.02,0.02,0.04,0.02,0.06c0.17,0.34,0.36,0.67,0.56,1.01c0.04,0.06,0.08,0.14,0.12,0.2c0.58,0.97,1.23,1.92,1.95,2.85
				c0.08,0.1,0.15,0.2,0.23,0.3c0.21,0.27,0.44,0.54,0.67,0.82c0.1,0.11,0.2,0.23,0.3,0.35c0.51,0.59,1.05,1.17,1.62,1.73
				c1.83,1.83,3.93,3.57,6.3,5.26c0.83,0.59,1.7,1.17,2.61,1.75c0.56,0.36,1.12,0.71,1.7,1.06c1.9,1.15,3.92,2.28,6.06,3.39
				c0,0,0.08,0.19,0.25,0.52l0.01,0.01c0.06,0.13,0.13,0.28,0.22,0.46c0.05,0.09,0.09,0.19,0.14,0.28c0.07,0.13,0.15,0.27,0.21,0.42
				c0.08,0.15,0.16,0.31,0.25,0.48l0.01,0.01c0.19,0.37,0.41,0.78,0.65,1.21c0.16,0.3,0.34,0.6,0.52,0.92c0,0.01,0,0.01,0.01,0.01
				c0.13,0.24,0.28,0.48,0.42,0.74c0.08,0.14,0.16,0.27,0.24,0.4c0.16,0.26,0.32,0.53,0.49,0.8c0.17,0.28,0.35,0.57,0.53,0.85
				c0.18,0.28,0.37,0.57,0.55,0.86c0.2,0.29,0.39,0.59,0.6,0.89c0.31,0.45,0.62,0.9,0.94,1.36c1.81,2.52,3.98,5.14,6.48,7.43
				c0.39,0.36,0.8,0.71,1.2,1.05c0.28,0.23,0.56,0.46,0.85,0.68l0.02,0.02c0.38,0.29,0.77,0.59,1.16,0.86
				c0.63,0.44,1.27,0.85,1.93,1.23c0.38,0.21,0.75,0.42,1.13,0.61c0.64,0.32,1.3,0.61,1.97,0.86c1.19,0.45,2.38,0.82,3.57,1.11
				c0.59,0.15,1.19,0.28,1.79,0.38c0.3,0.06,0.6,0.1,0.9,0.15c0.59,0.08,1.18,0.14,1.76,0.19c0.01-0.01,0.02-0.01,0.02,0.01
				c0.59,0.03,1.17,0.06,1.75,0.06c0.77-0.01,1.54-0.04,2.31-0.12c0.67-0.07,1.34-0.17,2.01-0.3c0.29-0.06,0.59-0.12,0.88-0.19
				c0.27-0.06,0.54-0.13,0.81-0.21c0.51-0.14,1.01-0.3,1.52-0.48c0.67-0.24,1.33-0.5,1.99-0.81c0.71-0.33,1.41-0.7,2.12-1.11
				c4.94-2.9,9.65-7.84,13.94-15.27c3.17-5.49,5.83-11.11,8.02-16.82C250.57,228.71,250.57,228.72,250.58,228.73z"/>
			<path class="st38" d="M315.19,111.2c0,0-8.2-18.22-20.77-22.95c-0.34-0.13-0.69-0.25-1.03-0.37c-0.2-0.06-0.41-0.14-0.6-0.2
				c-1.01-0.32-2.02-0.59-3.02-0.79c-0.18-0.04-0.37-0.08-0.54-0.1c-0.64-0.12-1.29-0.22-1.93-0.28c-0.17-0.02-0.34-0.03-0.51-0.05
				c-0.3-0.03-0.61-0.06-0.93-0.07c-0.4-0.02-0.81-0.03-1.21-0.03c-0.29,0-0.59,0-0.89,0.02c-0.16,0.01-0.31,0.01-0.48,0.02
				c-0.26,0.01-0.5,0.03-0.74,0.06c-0.07,0-0.13,0.01-0.19,0.02c-0.7,0.06-1.4,0.17-2.09,0.31c-0.43,0.09-0.87,0.19-1.3,0.3
				c-0.72,0.18-1.44,0.41-2.16,0.67c-0.28,0.11-0.57,0.22-0.85,0.34c-0.28,0.12-0.57,0.24-0.85,0.38c-0.57,0.26-1.12,0.54-1.69,0.86
				c-0.56,0.31-1.11,0.65-1.67,1.02c-0.56,0.36-1.1,0.75-1.65,1.17c-0.2,0.16-0.42,0.32-0.63,0.5c-0.1,0.08-0.21,0.17-0.32,0.26
				c-3.54,2.94-6.92,7.07-10.08,12.54c-0.36,0.61-0.71,1.23-1.05,1.85c-0.08,0.14-0.16,0.28-0.24,0.42
				c-0.34,0.63-0.67,1.25-0.99,1.87c-0.01,0.01-0.02,0.02-0.02,0.03c-0.35,0.69-0.71,1.38-1.05,2.06c-0.24,0.47-0.47,0.94-0.7,1.43
				c-0.19,0.38-0.38,0.77-0.56,1.16c-0.27,0.57-0.54,1.14-0.79,1.72c-0.1,0.23-0.21,0.46-0.31,0.7c0.01,0.01,0,0.01,0.01,0.02
				c0.7,1.81,1.4,3.69,2.03,5.64c3.06,9.21,5.03,18.18,6.28,26.31c0.08-0.32,0.15-0.64,0.23-0.96c0.12-0.49,0.24-0.97,0.38-1.47
				c0.01-0.07,0.03-0.14,0.06-0.21c0.08-0.28,0.15-0.56,0.23-0.83c0.08-0.28,0.16-0.56,0.24-0.83c0.17-0.56,0.34-1.12,0.53-1.68
				c0.01-0.03,0.02-0.05,0.02-0.08c0.11-0.32,0.21-0.64,0.34-0.96c0.06-0.2,0.14-0.39,0.21-0.59c0.01-0.03,0.01-0.06,0.03-0.08
				c0.15-0.42,0.3-0.83,0.46-1.24c0.16-0.41,0.32-0.83,0.48-1.23c0.17-0.41,0.34-0.82,0.52-1.23c0.18-0.41,0.36-0.82,0.55-1.22
				c0.13-0.28,0.25-0.55,0.38-0.82c0.13-0.27,0.27-0.55,0.41-0.82c0.02-0.06,0.05-0.12,0.09-0.18c0.29-0.59,0.6-1.18,0.92-1.77
				c0.31-0.59,0.64-1.18,0.98-1.76l0.01-0.01c0.23-0.39,0.45-0.78,0.69-1.17c0.34-0.56,0.69-1.1,1.04-1.6
				c0.18-0.27,0.37-0.52,0.56-0.77c0.13-0.18,0.27-0.36,0.41-0.54c0.13-0.17,0.26-0.33,0.39-0.49c0.12-0.14,0.23-0.29,0.35-0.42
				c0.15-0.18,0.3-0.34,0.45-0.51c0.1-0.11,0.21-0.23,0.31-0.34c0.25-0.27,0.51-0.52,0.77-0.76c0.06-0.06,0.13-0.13,0.19-0.18
				c0.12-0.12,0.25-0.24,0.38-0.34c0.01-0.01,0.01-0.01,0.01-0.01c0.3-0.27,0.6-0.52,0.9-0.74c0.05-0.04,0.1-0.08,0.16-0.11
				c0.34-0.25,0.68-0.47,1.01-0.69c0.18-0.11,0.37-0.22,0.55-0.32c0.29-0.16,0.59-0.33,0.89-0.46c0.01-0.01,0.01-0.01,0.02-0.01
				c0.21-0.1,0.42-0.2,0.64-0.27c0.21-0.1,0.44-0.17,0.67-0.25c0.24-0.08,0.48-0.14,0.72-0.2c0.22-0.06,0.44-0.1,0.66-0.14
				c0.13-0.03,0.28-0.06,0.42-0.06c0.35-0.06,0.71-0.09,1.07-0.1c0.1-0.02,0.22-0.02,0.33-0.02c0.17,0,0.35,0,0.52,0.01
				c0.16,0,0.32,0.01,0.48,0.02c0.19,0.01,0.38,0.03,0.56,0.05c0.12,0.01,0.23,0.03,0.34,0.05c0.2,0.02,0.39,0.06,0.59,0.1
				c0.21,0.04,0.42,0.09,0.63,0.14c0.34,0.09,0.68,0.19,1.03,0.3c5.8,1.91,9.2,10.28,9.2,10.28c3.14,1.5,5.69,3.11,7.55,4.96
				c0.29,0.29,0.56,0.59,0.82,0.89c0.13,0.15,0.25,0.31,0.37,0.46c0.13,0.17,0.26,0.34,0.38,0.52c0.09,0.14,0.19,0.28,0.27,0.42
				c0.12,0.19,0.23,0.38,0.33,0.57c0.08,0.13,0.14,0.27,0.21,0.41c0.01,0.02,0.02,0.03,0.02,0.05c0.07,0.15,0.14,0.31,0.2,0.46
				c0.09,0.2,0.16,0.41,0.23,0.61c0.06,0.16,0.11,0.33,0.16,0.49c0.03,0.12,0.06,0.24,0.09,0.36c0.03,0.11,0.05,0.21,0.08,0.33
				c0.03,0.14,0.06,0.28,0.08,0.43c0.03,0.19,0.06,0.38,0.08,0.57c0.05,0.39,0.07,0.79,0.07,1.19c0,0.21-0.01,0.41-0.02,0.62
				c-0.01,0.11-0.02,0.24-0.03,0.37c-0.02,0.13-0.03,0.27-0.05,0.41c-0.01,0.05-0.02,0.1-0.03,0.16c-0.04,0.24-0.1,0.49-0.17,0.77
				c-0.13,0.5-0.3,1.04-0.54,1.63c-0.08,0.2-0.17,0.4-0.26,0.6c-0.09,0.21-0.19,0.41-0.3,0.63c-0.12,0.23-0.24,0.45-0.38,0.68
				c-0.1,0.19-0.21,0.38-0.34,0.57c-0.16,0.27-0.35,0.53-0.53,0.8c-0.13,0.18-0.26,0.37-0.41,0.54c-0.13,0.18-0.27,0.37-0.42,0.54
				c-0.1,0.12-0.2,0.25-0.31,0.37c-0.16,0.2-0.33,0.39-0.51,0.58c-0.21,0.24-0.43,0.47-0.67,0.71c-0.14,0.14-0.27,0.27-0.42,0.41
				c-0.09,0.09-0.19,0.18-0.28,0.27c-0.14,0.13-0.27,0.25-0.42,0.37c-0.2,0.17-0.39,0.35-0.6,0.52c-0.61,0.52-1.29,1.04-2.03,1.55
				c-0.25,0.17-0.5,0.34-0.76,0.52c-0.26,0.17-0.53,0.34-0.8,0.51c-0.27,0.17-0.56,0.34-0.84,0.5c-0.28,0.17-0.58,0.34-0.89,0.5
				c-0.3,0.16-0.61,0.33-0.93,0.5c-0.63,0.33-1.3,0.65-1.99,0.97c-0.35,0.16-0.71,0.31-1.07,0.47c-0.39,0.18-0.8,0.35-1.22,0.51
				c-0.35,0.14-0.7,0.28-1.06,0.41c-0.64,0.24-1.28,0.48-1.91,0.7c-0.54,0.2-1.09,0.38-1.63,0.56c-0.14,0.04-0.3,0.09-0.44,0.14
				c-0.39,0.13-0.79,0.24-1.18,0.37c-0.88,0.27-1.76,0.52-2.62,0.74c-0.42,0.12-0.86,0.23-1.28,0.34c-0.43,0.1-0.85,0.21-1.26,0.31
				c11.22,1.63,21.91,4.61,31.99,8.92c0.37-0.16,0.72-0.31,1.08-0.46c0.63-0.27,1.24-0.55,1.84-0.82c1.31-0.6,2.56-1.21,3.74-1.84
				c0.3-0.15,0.59-0.31,0.89-0.47c0.29-0.16,0.57-0.32,0.85-0.47c0.28-0.16,0.56-0.32,0.84-0.48c0.27-0.16,0.54-0.31,0.81-0.48
				c0.46-0.27,0.9-0.54,1.34-0.82c0.08-0.05,0.16-0.1,0.23-0.15c0.51-0.32,1-0.66,1.48-0.99c0.2-0.13,0.41-0.27,0.6-0.41
				c0.24-0.17,0.48-0.34,0.72-0.52c0.26-0.19,0.51-0.37,0.75-0.56c0.66-0.5,1.3-1,1.91-1.5c0.41-0.34,0.79-0.67,1.18-1
				c0.19-0.17,0.38-0.34,0.56-0.5c0.56-0.5,1.08-1,1.59-1.51c0.32-0.32,0.64-0.66,0.94-0.98c0.23-0.24,0.45-0.49,0.67-0.72
				c0.16-0.18,0.31-0.35,0.46-0.53c0.2-0.22,0.39-0.45,0.58-0.68c0.2-0.24,0.39-0.48,0.58-0.72c0.15-0.2,0.31-0.39,0.45-0.59
				c0.7-0.92,1.31-1.83,1.85-2.72c0.15-0.24,0.3-0.48,0.43-0.72c0.08-0.12,0.14-0.25,0.21-0.38c0.02-0.05,0.05-0.09,0.08-0.13
				c0.16-0.27,0.3-0.54,0.43-0.81c0.87-1.69,1.5-3.3,1.94-4.77c0.06-0.21,0.13-0.42,0.18-0.62c0.09-0.31,0.16-0.61,0.23-0.9
				c0.17-0.72,0.28-1.4,0.37-2.03c0.03-0.24,0.06-0.48,0.08-0.7c0.04-0.52,0.06-0.98,0.06-1.41c0-1.33-0.1-2.62-0.3-3.87
				c-0.05-0.31-0.1-0.63-0.17-0.93c-0.19-0.93-0.42-1.83-0.72-2.71c-0.2-0.59-0.42-1.17-0.66-1.74c-0.08-0.2-0.16-0.38-0.25-0.57
				c-0.35-0.75-0.73-1.5-1.15-2.22c-0.32-0.54-0.67-1.08-1.03-1.62c-0.02-0.03-0.03-0.05-0.05-0.08c-0.16-0.24-0.33-0.48-0.51-0.72
				c-0.17-0.23-0.35-0.48-0.53-0.71c-0.03-0.03-0.06-0.08-0.1-0.12c-0.01-0.01-0.02-0.02-0.03-0.04c-0.24-0.29-0.48-0.59-0.73-0.88
				c-0.02-0.02-0.03-0.03-0.04-0.05c-0.26-0.29-0.51-0.58-0.78-0.87C328.67,119.14,322.65,115.06,315.19,111.2z"/>
		</g>
		<g>
			
				<radialGradient id="SVGID_00000139283898232945457070000010500901271039911593_" cx="310.2276" cy="104.8688" r="175.9758" gradientTransform="matrix(-1 0 0 -0.4539 620.4553 152.4704)" gradientUnits="userSpaceOnUse">
				<stop  offset="0" style="stop-color:#003399"/>
				<stop  offset="1" style="stop-color:#003399;stop-opacity:0"/>
			</radialGradient>
			<path style="fill:url(#SVGID_00000139283898232945457070000010500901271039911593_);" d="M304.33,175.42
				c-12.68-4.87-25.8-7.44-38.74-8.2c-0.69-0.04-1.35-0.08-1.99-0.12c0.08,1.5,0.12,2.94,0.15,4.28c0,0.01,0,0.02-0.01,0.03
				c-0.06,2.64-0.21,6.54-0.5,12.17c-0.01,0.18-0.02,0.37-0.02,0.56c1.71,0.11,4.09,0.31,7.35,0.67c8.85,0.97,17.97,3.76,26.53,9
				c8.56,5.23,10.59,11.23,8.67,17.03c-1.91,5.8-10.27,9.19-10.27,9.19c-3.39,7.08-7.36,11.23-13.35,10.92
				c-3.17-0.17-11.6-3.01-17.36-18.26c-1.36-3.59-2.38-7.1-3.14-10.34c-1.63,11.23-4.62,21.94-8.93,32.02
				c10.67,25.61,26.16,29.94,32.37,29.94c12.75,0,21.68-9.29,29.7-24.77c0,0,18.22-8.2,22.96-20.78
				c4.74-12.56,1.09-25.14-16.58-35.34C315.67,180.26,310.05,177.61,304.33,175.42z"/>
			
				<radialGradient id="SVGID_00000028291650261831487010000011874598006201346468_" cx="310.2276" cy="104.8688" r="175.9758" gradientTransform="matrix(-1 0 0 -0.4462 620.4553 151.6602)" gradientUnits="userSpaceOnUse">
				<stop  offset="0" style="stop-color:#003399"/>
				<stop  offset="1" style="stop-color:#003399;stop-opacity:0"/>
			</radialGradient>
			<path style="fill:url(#SVGID_00000028291650261831487010000011874598006201346468_);" d="M250.58,228.73
				c4.88-12.7,7.46-25.82,8.21-38.77c0.03-0.61,0.07-1.22,0.1-1.81c0.08-1.46,0.16-2.82,0.22-4.1c0-0.07,0.01-0.14,0.01-0.21
				c0.28-5.42,0.43-9.24,0.51-11.88v-0.12c0-0.02,0-0.05,0-0.07c-0.01-0.12-0.01-0.25-0.01-0.39v-0.12
				c-0.03-1.36-0.09-2.82-0.16-4.38c0-0.08-0.01-0.17-0.01-0.26v-0.01c-0.06-1.32-0.15-2.68-0.26-4.13
				c-0.17-2.39-0.41-4.92-0.72-7.58c-0.09-0.75-0.19-1.52-0.28-2.3c-0.23-1.76-0.49-3.58-0.8-5.43c-0.06-0.4-0.13-0.79-0.2-1.19
				c-0.08-0.46-0.16-0.91-0.24-1.36c-0.09-0.46-0.16-0.92-0.26-1.37c-0.28-1.51-0.59-3.04-0.93-4.58c-0.16-0.75-0.33-1.5-0.5-2.25
				c-0.13-0.54-0.26-1.09-0.39-1.64c-0.24-1.02-0.51-2.04-0.78-3.07c-0.11-0.43-0.23-0.86-0.35-1.3c-0.42-1.55-0.88-3.11-1.37-4.68
				c-0.28-0.9-0.57-1.81-0.87-2.72c-0.15-0.46-0.31-0.92-0.46-1.37c-10.61-30.67-27.87-35.62-34.52-35.62
				c-0.44,0-0.88,0.01-1.32,0.03c-0.65,0.03-1.29,0.09-1.92,0.17c-0.42,0.05-0.84,0.12-1.25,0.2c-1.86,0.35-3.63,0.92-5.33,1.69
				c-0.38,0.17-0.75,0.35-1.12,0.54c-1.09,0.57-2.15,1.22-3.19,1.96c-0.54,0.38-1.08,0.8-1.61,1.24c-0.51,0.42-1.02,0.86-1.52,1.32
				c-0.33,0.31-0.66,0.63-0.99,0.95c-2.86,2.86-5.52,6.42-8.05,10.59c-0.46,0.76-0.92,1.54-1.37,2.34c-0.68,1.2-1.35,2.44-2.02,3.72
				c0,0-0.74,0.34-1.97,0.97c-0.27,0.14-0.57,0.3-0.89,0.47c-0.35,0.19-0.74,0.4-1.13,0.63c-0.32,0.17-0.66,0.37-1,0.57
				c-0.39,0.23-0.79,0.47-1.22,0.73c-0.42,0.26-0.85,0.52-1.28,0.81c-0.44,0.29-0.89,0.58-1.34,0.89c-0.46,0.31-0.92,0.63-1.38,0.96
				c-2.09,1.5-4.27,3.27-6.25,5.25c-1.9,1.9-3.62,3.99-4.95,6.27c-0.24,0.41-0.47,0.83-0.68,1.26c-0.32,0.64-0.61,1.29-0.86,1.95
				c-4.74,12.57-1.1,25.14,16.57,35.34c1.1,0.64,2.22,1.26,3.33,1.85c0.46,0.25,0.93,0.5,1.39,0.74c1.22,0.63,2.46,1.24,3.69,1.83
				c0.56,0.27,1.11,0.52,1.67,0.78c0.39,0.18,0.78,0.35,1.18,0.53c0.46,0.21,0.93,0.41,1.39,0.6c0.31,0.13,0.61,0.27,0.92,0.39
				c0.41,0.17,0.82,0.34,1.23,0.5c0.67,0.28,1.35,0.54,2.03,0.8c0.01,0.01,0.01,0,0.02,0.01c12.68,4.87,25.79,7.44,38.72,8.19
				c0.72,0.04,1.41,0.08,2.1,0.12c0.17-2.78,0.25-5.57,0.25-8.38c0-2.71-0.08-5.41-0.23-8.09c-0.01-0.2-0.02-0.39-0.03-0.59
				c-1.69-0.11-3.98-0.31-7.05-0.64c-8.85-0.98-17.97-3.77-26.53-9c-8.55-5.23-10.59-11.23-8.67-17.03
				c1.92-5.79,10.28-9.2,10.28-9.2c3.38-7.08,7.35-11.22,13.34-10.91c1.89,0.1,5.65,1.15,9.59,5.2l0.01,0.01
				c2.67,2.75,5.43,6.88,7.76,13.05c1.26,3.33,2.23,6.59,2.97,9.62c0.01,0.05,0.02,0.1,0.03,0.16c2.63,10.77,2.43,18.87,2.43,18.87
				s-0.01,0.11-0.02,0.22c-0.01,0-0.02,0-0.02,0c0.01,0.08,0.01,0.14,0.01,0.22c0.32,5.57,0.31,11.15-0.02,16.72
				c-0.01,0.19-0.02,0.37-0.03,0.56c-0.07,1.18-0.16,2.35-0.27,3.53c-0.08,0.97-0.18,1.94-0.28,2.92c0,0.05-0.01,0.09-0.01,0.14
				c-0.1,1.23-0.25,2.66-0.43,4.32c-0.36,3.2-0.95,6.43-1.8,9.66c-1.51,5.71-3.86,11.4-7.19,16.86c-1.14,1.86-2.3,3.4-3.51,4.67
				c-4.32,4.59-8.99,5.51-13.52,4.01c-5.79-1.92-9.19-10.27-9.19-10.27c-7.08-3.39-11.23-7.36-10.92-13.35
				c0.17-3.17,3-11.61,18.26-17.36c3.63-1.37,7.14-2.39,10.41-3.16c-9.42-1.36-18.51-3.69-27.15-6.96l-1.54-0.59
				c-0.43-0.16-0.86-0.34-1.29-0.52l-0.2-0.09l-1.03-0.42l-0.05-0.02c-0.27-0.1-0.53-0.23-0.79-0.34c-0.01,0.01-0.01,0-0.02,0.01
				c-25.63,10.67-29.97,26.17-29.97,32.38c0.01,2,0.23,3.9,0.68,5.72c0.15,0.6,0.32,1.2,0.52,1.79c0.01,0.02,0.01,0.03,0.02,0.05
				c0.39,1.15,0.86,2.28,1.43,3.36c0.01,0.02,0.02,0.04,0.02,0.06c0.17,0.34,0.36,0.67,0.56,1.01c0.04,0.06,0.08,0.14,0.12,0.2
				c0.58,0.97,1.23,1.92,1.95,2.85c0.08,0.1,0.15,0.2,0.23,0.3c0.21,0.27,0.44,0.54,0.67,0.82c0.1,0.11,0.2,0.23,0.3,0.35
				c0.51,0.59,1.05,1.17,1.62,1.73c1.83,1.83,3.93,3.57,6.3,5.26c0.83,0.59,1.7,1.17,2.61,1.75c0.56,0.36,1.12,0.71,1.7,1.06
				c1.9,1.15,3.92,2.28,6.06,3.39c0,0,0.08,0.19,0.25,0.52l0.01,0.01c0.06,0.13,0.13,0.28,0.22,0.46c0.05,0.09,0.09,0.19,0.14,0.28
				c0.07,0.13,0.15,0.27,0.21,0.42c0.08,0.15,0.16,0.31,0.25,0.48l0.01,0.01c0.19,0.37,0.41,0.78,0.65,1.21
				c0.16,0.3,0.34,0.6,0.52,0.92c0,0.01,0,0.01,0.01,0.01c0.13,0.24,0.28,0.48,0.42,0.74c0.08,0.14,0.16,0.27,0.24,0.4
				c0.16,0.26,0.32,0.53,0.49,0.8c0.17,0.28,0.35,0.57,0.53,0.85c0.18,0.28,0.37,0.57,0.55,0.86c0.2,0.29,0.39,0.59,0.6,0.89
				c0.31,0.45,0.62,0.9,0.94,1.36c1.81,2.52,3.98,5.14,6.48,7.43c0.39,0.36,0.8,0.71,1.2,1.05c0.28,0.23,0.56,0.46,0.85,0.68
				l0.02,0.02c0.38,0.29,0.77,0.59,1.16,0.86c0.63,0.44,1.27,0.85,1.93,1.23c0.38,0.21,0.75,0.42,1.13,0.61
				c0.64,0.32,1.3,0.61,1.97,0.86c1.19,0.45,2.38,0.82,3.57,1.11c0.59,0.15,1.19,0.28,1.79,0.38c0.3,0.06,0.6,0.1,0.9,0.15
				c0.59,0.08,1.18,0.14,1.76,0.19c0.01-0.01,0.02-0.01,0.02,0.01c0.59,0.03,1.17,0.06,1.75,0.06c0.77-0.01,1.54-0.04,2.31-0.12
				c0.67-0.07,1.34-0.17,2.01-0.3c0.29-0.06,0.59-0.12,0.88-0.19c0.27-0.06,0.54-0.13,0.81-0.21c0.51-0.14,1.01-0.3,1.52-0.48
				c0.67-0.24,1.33-0.5,1.99-0.81c0.71-0.33,1.41-0.7,2.12-1.11c4.94-2.9,9.65-7.84,13.94-15.27c3.17-5.49,5.83-11.11,8.02-16.82
				C250.57,228.71,250.57,228.72,250.58,228.73z"/>
			
				<radialGradient id="SVGID_00000103949897690061014230000008843241189200436395_" cx="310.2276" cy="104.8688" r="175.9758" gradientTransform="matrix(-1 0 0 -0.4501 620.4553 152.0653)" gradientUnits="userSpaceOnUse">
				<stop  offset="0" style="stop-color:#003399"/>
				<stop  offset="1" style="stop-color:#003399;stop-opacity:0"/>
			</radialGradient>
			<path style="fill:url(#SVGID_00000103949897690061014230000008843241189200436395_);" d="M315.19,111.2
				c0,0-8.2-18.22-20.77-22.95c-0.34-0.13-0.69-0.25-1.03-0.37c-0.2-0.06-0.41-0.14-0.6-0.2c-1.01-0.32-2.02-0.59-3.02-0.79
				c-0.18-0.04-0.37-0.08-0.54-0.1c-0.64-0.12-1.29-0.22-1.93-0.28c-0.17-0.02-0.34-0.03-0.51-0.05c-0.3-0.03-0.61-0.06-0.93-0.07
				c-0.4-0.02-0.81-0.03-1.21-0.03c-0.29,0-0.59,0-0.89,0.02c-0.16,0.01-0.31,0.01-0.48,0.02c-0.26,0.01-0.5,0.03-0.74,0.06
				c-0.07,0-0.13,0.01-0.19,0.02c-0.7,0.06-1.4,0.17-2.09,0.31c-0.43,0.09-0.87,0.19-1.3,0.3c-0.72,0.18-1.44,0.41-2.16,0.67
				c-0.28,0.11-0.57,0.22-0.85,0.34c-0.28,0.12-0.57,0.24-0.85,0.38c-0.57,0.26-1.12,0.54-1.69,0.86c-0.56,0.31-1.11,0.65-1.67,1.02
				c-0.56,0.36-1.1,0.75-1.65,1.17c-0.2,0.16-0.42,0.32-0.63,0.5c-0.1,0.08-0.21,0.17-0.32,0.26c-3.54,2.94-6.92,7.07-10.08,12.54
				c-0.36,0.61-0.71,1.23-1.05,1.85c-0.08,0.14-0.16,0.28-0.24,0.42c-0.34,0.63-0.67,1.25-0.99,1.87c-0.01,0.01-0.02,0.02-0.02,0.03
				c-0.35,0.69-0.71,1.38-1.05,2.06c-0.24,0.47-0.47,0.94-0.7,1.43c-0.19,0.38-0.38,0.77-0.56,1.16c-0.27,0.57-0.54,1.14-0.79,1.72
				c-0.1,0.23-0.21,0.46-0.31,0.7c0.01,0.01,0,0.01,0.01,0.02c0.7,1.81,1.4,3.69,2.03,5.64c3.06,9.21,5.03,18.18,6.28,26.31
				c0.08-0.32,0.15-0.64,0.23-0.96c0.12-0.49,0.24-0.97,0.38-1.47c0.01-0.07,0.03-0.14,0.06-0.21c0.08-0.28,0.15-0.56,0.23-0.83
				c0.08-0.28,0.16-0.56,0.24-0.83c0.17-0.56,0.34-1.12,0.53-1.68c0.01-0.03,0.02-0.05,0.02-0.08c0.11-0.32,0.21-0.64,0.34-0.96
				c0.06-0.2,0.14-0.39,0.21-0.59c0.01-0.03,0.01-0.06,0.03-0.08c0.15-0.42,0.3-0.83,0.46-1.24c0.16-0.41,0.32-0.83,0.48-1.23
				c0.17-0.41,0.34-0.82,0.52-1.23c0.18-0.41,0.36-0.82,0.55-1.22c0.13-0.28,0.25-0.55,0.38-0.82c0.13-0.27,0.27-0.55,0.41-0.82
				c0.02-0.06,0.05-0.12,0.09-0.18c0.29-0.59,0.6-1.18,0.92-1.77c0.31-0.59,0.64-1.18,0.98-1.76l0.01-0.01
				c0.23-0.39,0.45-0.78,0.69-1.17c0.34-0.56,0.69-1.1,1.04-1.6c0.18-0.27,0.37-0.52,0.56-0.77c0.13-0.18,0.27-0.36,0.41-0.54
				c0.13-0.17,0.26-0.33,0.39-0.49c0.12-0.14,0.23-0.29,0.35-0.42c0.15-0.18,0.3-0.34,0.45-0.51c0.1-0.11,0.21-0.23,0.31-0.34
				c0.25-0.27,0.51-0.52,0.77-0.76c0.06-0.06,0.13-0.13,0.19-0.18c0.12-0.12,0.25-0.24,0.38-0.34c0.01-0.01,0.01-0.01,0.01-0.01
				c0.3-0.27,0.6-0.52,0.9-0.74c0.05-0.04,0.1-0.08,0.16-0.11c0.34-0.25,0.68-0.47,1.01-0.69c0.18-0.11,0.37-0.22,0.55-0.32
				c0.29-0.16,0.59-0.33,0.89-0.46c0.01-0.01,0.01-0.01,0.02-0.01c0.21-0.1,0.42-0.2,0.64-0.27c0.21-0.1,0.44-0.17,0.67-0.25
				c0.24-0.08,0.48-0.14,0.72-0.2c0.22-0.06,0.44-0.1,0.66-0.14c0.13-0.03,0.28-0.06,0.42-0.06c0.35-0.06,0.71-0.09,1.07-0.1
				c0.1-0.02,0.22-0.02,0.33-0.02c0.17,0,0.35,0,0.52,0.01c0.16,0,0.32,0.01,0.48,0.02c0.19,0.01,0.38,0.03,0.56,0.05
				c0.12,0.01,0.23,0.03,0.34,0.05c0.2,0.02,0.39,0.06,0.59,0.1c0.21,0.04,0.42,0.09,0.63,0.14c0.34,0.09,0.68,0.19,1.03,0.3
				c5.8,1.91,9.2,10.28,9.2,10.28c3.14,1.5,5.69,3.11,7.55,4.96c0.29,0.29,0.56,0.59,0.82,0.89c0.13,0.15,0.25,0.31,0.37,0.46
				c0.13,0.17,0.26,0.34,0.38,0.52c0.09,0.14,0.19,0.28,0.27,0.42c0.12,0.19,0.23,0.38,0.33,0.57c0.08,0.13,0.14,0.27,0.21,0.41
				c0.01,0.02,0.02,0.03,0.02,0.05c0.07,0.15,0.14,0.31,0.2,0.46c0.09,0.2,0.16,0.41,0.23,0.61c0.06,0.16,0.11,0.33,0.16,0.49
				c0.03,0.12,0.06,0.24,0.09,0.36c0.03,0.11,0.05,0.21,0.08,0.33c0.03,0.14,0.06,0.28,0.08,0.43c0.03,0.19,0.06,0.38,0.08,0.57
				c0.05,0.39,0.07,0.79,0.07,1.19c0,0.21-0.01,0.41-0.02,0.62c-0.01,0.11-0.02,0.24-0.03,0.37c-0.02,0.13-0.03,0.27-0.05,0.41
				c-0.01,0.05-0.02,0.1-0.03,0.16c-0.04,0.24-0.1,0.49-0.17,0.77c-0.13,0.5-0.3,1.04-0.54,1.63c-0.08,0.2-0.17,0.4-0.26,0.6
				c-0.09,0.21-0.19,0.41-0.3,0.63c-0.12,0.23-0.24,0.45-0.38,0.68c-0.1,0.19-0.21,0.38-0.34,0.57c-0.16,0.27-0.35,0.53-0.53,0.8
				c-0.13,0.18-0.26,0.37-0.41,0.54c-0.13,0.18-0.27,0.37-0.42,0.54c-0.1,0.12-0.2,0.25-0.31,0.37c-0.16,0.2-0.33,0.39-0.51,0.58
				c-0.21,0.24-0.43,0.47-0.67,0.71c-0.14,0.14-0.27,0.27-0.42,0.41c-0.09,0.09-0.19,0.18-0.28,0.27c-0.14,0.13-0.27,0.25-0.42,0.37
				c-0.2,0.17-0.39,0.35-0.6,0.52c-0.61,0.52-1.29,1.04-2.03,1.55c-0.25,0.17-0.5,0.34-0.76,0.52c-0.26,0.17-0.53,0.34-0.8,0.51
				c-0.27,0.17-0.56,0.34-0.84,0.5c-0.28,0.17-0.58,0.34-0.89,0.5c-0.3,0.16-0.61,0.33-0.93,0.5c-0.63,0.33-1.3,0.65-1.99,0.97
				c-0.35,0.16-0.71,0.31-1.07,0.47c-0.39,0.18-0.8,0.35-1.22,0.51c-0.35,0.14-0.7,0.28-1.06,0.41c-0.64,0.24-1.28,0.48-1.91,0.7
				c-0.54,0.2-1.09,0.38-1.63,0.56c-0.14,0.04-0.3,0.09-0.44,0.14c-0.39,0.13-0.79,0.24-1.18,0.37c-0.88,0.27-1.76,0.52-2.62,0.74
				c-0.42,0.12-0.86,0.23-1.28,0.34c-0.43,0.1-0.85,0.21-1.26,0.31c11.22,1.63,21.91,4.61,31.99,8.92c0.37-0.16,0.72-0.31,1.08-0.46
				c0.63-0.27,1.24-0.55,1.84-0.82c1.31-0.6,2.56-1.21,3.74-1.84c0.3-0.15,0.59-0.31,0.89-0.47c0.29-0.16,0.57-0.32,0.85-0.47
				c0.28-0.16,0.56-0.32,0.84-0.48c0.27-0.16,0.54-0.31,0.81-0.48c0.46-0.27,0.9-0.54,1.34-0.82c0.08-0.05,0.16-0.1,0.23-0.15
				c0.51-0.32,1-0.66,1.48-0.99c0.2-0.13,0.41-0.27,0.6-0.41c0.24-0.17,0.48-0.34,0.72-0.52c0.26-0.19,0.51-0.37,0.75-0.56
				c0.66-0.5,1.3-1,1.91-1.5c0.41-0.34,0.79-0.67,1.18-1c0.19-0.17,0.38-0.34,0.56-0.5c0.56-0.5,1.08-1,1.59-1.51
				c0.32-0.32,0.64-0.66,0.94-0.98c0.23-0.24,0.45-0.49,0.67-0.72c0.16-0.18,0.31-0.35,0.46-0.53c0.2-0.22,0.39-0.45,0.58-0.68
				c0.2-0.24,0.39-0.48,0.58-0.72c0.15-0.2,0.31-0.39,0.45-0.59c0.7-0.92,1.31-1.83,1.85-2.72c0.15-0.24,0.3-0.48,0.43-0.72
				c0.08-0.12,0.14-0.25,0.21-0.38c0.02-0.05,0.05-0.09,0.08-0.13c0.16-0.27,0.3-0.54,0.43-0.81c0.87-1.69,1.5-3.3,1.94-4.77
				c0.06-0.21,0.13-0.42,0.18-0.62c0.09-0.31,0.16-0.61,0.23-0.9c0.17-0.72,0.28-1.4,0.37-2.03c0.03-0.24,0.06-0.48,0.08-0.7
				c0.04-0.52,0.06-0.98,0.06-1.41c0-1.33-0.1-2.62-0.3-3.87c-0.05-0.31-0.1-0.63-0.17-0.93c-0.19-0.93-0.42-1.83-0.72-2.71
				c-0.2-0.59-0.42-1.17-0.66-1.74c-0.08-0.2-0.16-0.38-0.25-0.57c-0.35-0.75-0.73-1.5-1.15-2.22c-0.32-0.54-0.67-1.08-1.03-1.62
				c-0.02-0.03-0.03-0.05-0.05-0.08c-0.16-0.24-0.33-0.48-0.51-0.72c-0.17-0.23-0.35-0.48-0.53-0.71c-0.03-0.03-0.06-0.08-0.1-0.12
				c-0.01-0.01-0.02-0.02-0.03-0.04c-0.24-0.29-0.48-0.59-0.73-0.88c-0.02-0.02-0.03-0.03-0.04-0.05c-0.26-0.29-0.51-0.58-0.78-0.87
				C328.67,119.14,322.65,115.06,315.19,111.2z"/>
		</g>
		<g>
			<g>
				<path class="st42" d="M70.19,321.2c0,1.35-0.42,2.47-1.26,3.37c-0.84,0.9-1.86,1.35-3.04,1.35c-1.63,0-3.09-0.62-4.38-1.86
					c-2.76-2.7-4.61-4.05-5.56-4.05c-3.04,0-5.49,2.04-7.38,6.12c-1.89,4.08-2.82,9.7-2.82,16.85c0,6.59,1.11,12.25,3.33,16.98
					s5.04,7.23,8.47,7.52c1.41,0,3.02-0.6,4.85-1.8s3.69-2.43,5.61-3.68c0.62,0,1.1,0.28,1.43,0.85c0.34,0.57,0.51,1.24,0.51,2.04
					c0,1.53-1.73,3.34-5.18,5.44c-3.46,2.1-6.76,3.14-9.91,3.14c-5.28,0-9.61-2.34-12.98-7.01c-3.77-5.18-5.65-12.38-5.65-21.61
					c0-3.21,0.36-6.56,1.1-10.05c0.73-3.49,1.43-5.54,2.11-6.16c0.84-1.8,3.36-4.61,7.54-8.44c4.19-3.82,6.93-5.96,8.22-6.42
					c0.28-0.28,0.74-0.5,1.39-0.67c0.64-0.17,1.39-0.25,2.23-0.25c0.79,0,1.57,0.08,2.36,0.25c2.36,0.45,4.45,1.43,6.28,2.95
					C69.27,317.57,70.19,319.28,70.19,321.2z"/>
				<path class="st42" d="M107.03,368.66c0,1.18-0.59,2.18-1.78,2.99c-1.19,0.82-2.4,1.22-3.64,1.22c-0.68,0-1.3-0.16-1.86-0.46
					c-0.56-0.31-1.18-0.86-1.86-1.64c-1.18-3.43-3.5-8.43-6.94-15.01c-1.13-2.19-2.76-5.2-4.91-9.02c0-1.97,1.01-3.85,3.04-5.65
					c4.49-3.99,6.74-7.31,6.74-9.95c0-2.7-0.93-5.25-2.78-7.67c-1.85-2.42-4.02-3.63-6.49-3.63c-1.01,0-1.83,0.51-2.44,1.52
					c-0.62,1.01-0.93,2.28-0.93,3.81v44.06c0,1.13-0.44,2.02-1.31,2.67c-0.87,0.65-1.9,0.97-3.08,0.97c-1.13,0-2.11-0.28-2.95-0.85
					c-0.84-0.56-1.26-1.35-1.26-2.37v-44.72c0-3.61,1.42-6.59,4.26-8.96c2.84-2.37,6.03-3.55,9.57-3.55c3.71,0,7.42,1.89,11.13,5.65
					c3.71,3.77,5.56,7.48,5.56,11.13c0,2.64-1.09,5.42-3.26,8.35c-2.17,2.92-4.63,5.14-7.36,6.66v1.94c3.45,4.27,6.25,8.21,8.4,11.8
					C105.64,362.56,107.03,366.13,107.03,368.66z"/>
				<path class="st42" d="M144.71,363.85c0,1.69-1.76,3.58-5.27,5.69s-6.67,3.16-9.48,3.16c-5.79,0-10.37-2.28-13.74-6.83
					c-3.6-4.83-5.39-11.66-5.39-20.48c0-9.61,2.84-17.65,8.51-24.11c4.78-5.45,9.58-8.18,14.42-8.18c2.02,0,4.16,0.74,6.41,2.23
					c2.25,1.49,3.37,3.02,3.37,4.59c-0.17,1.69-0.39,2.95-0.67,3.79c-0.45,1.35-1.1,2.02-1.94,2.02c-1.8,0-3.74-0.93-5.82-2.78
					c-2.08-1.86-3.88-2.78-5.4-2.78c-2.98,0-5.26,1.6-6.83,4.81c-1.29,2.59-1.94,5.65-1.94,9.19c0,1.52,0.14,2.78,0.42,3.79
					c0.28,1.01,0.64,1.52,1.1,1.52h18.46c0.62,0,1.1,0.35,1.43,1.05c0.34,0.7,0.51,1.59,0.51,2.65c0,1.29-0.28,2.4-0.84,3.33
					c-0.56,0.93-1.41,1.39-2.53,1.39h-16.52c-1.35,0-2.02,1.18-2.02,3.54c0,3.26,0.98,6.61,2.95,10.03c2.25,3.93,4.77,5.9,7.59,5.9
					c1.52,0,3.27-0.69,5.27-2.07c1.99-1.38,4.03-2.8,6.11-4.26c0.45,0,0.87,0.29,1.26,0.89
					C144.51,362.55,144.71,363.18,144.71,363.85z"/>
				<path class="st42" d="M190.74,368.32c0.28,1.29-0.08,2.53-1.09,3.71c-1.01,1.18-2.21,1.77-3.61,1.77c-0.95,0-1.81-0.37-2.56-1.1
					c-0.76-0.73-1.33-1.91-1.72-3.55l-11.04-45.86c-0.17-0.5-0.57-0.75-1.2-0.75c-0.8,0-1.32,0.34-1.55,1.01l-9.76,27.99
					c-0.28,0.96-0.42,1.77-0.42,2.44c0,2.36,0.93,4.47,2.78,6.32c1.86,1.86,3.88,2.78,6.07,2.78c1.69,0,3.63-1.12,5.82-3.37
					c0.73-0.73,1.66-1.86,2.78-3.37c0.67,0.11,1.26,0.5,1.77,1.18c0.5,0.67,0.76,1.35,0.76,2.02c0,0.23-0.06,0.56-0.17,1.01
					c-3.09,4.61-5.69,7.85-7.8,9.74c-2.11,1.88-4.2,2.82-6.28,2.82c-3.37,0-6.62-1.42-9.74-4.26c-3.12-2.84-4.68-5.89-4.68-9.15
					c0-0.73,0.14-1.57,0.42-2.53l12.81-37.77c0.62-1.83,1.74-3.3,3.37-4.41c1.63-1.11,3.43-1.66,5.39-1.66
					c1.97,0,3.72,0.65,5.27,1.96c1.55,1.31,2.66,3.32,3.33,6.05L190.74,368.32z"/>
				<path class="st42" d="M223.61,313.78c0.62,0,1.12,0.42,1.52,1.26s0.59,1.8,0.59,2.87c0,1.12-0.21,2.08-0.63,2.87
					c-0.42,0.79-1.11,1.18-2.07,1.18h-7.76c-0.22,0-0.53,0.34-0.93,1.01c-0.17,0.34-0.39,0.79-0.67,1.35v44
					c0,1.41-0.38,2.49-1.14,3.25c-0.76,0.76-1.67,1.14-2.74,1.14s-2.04-0.38-2.91-1.14c-0.87-0.76-1.31-1.78-1.31-3.08v-44.76
					c0-0.39,0-0.67,0-0.84c0-0.34-0.08-0.62-0.25-0.84c-0.28-0.34-0.73-0.5-1.35-0.5h-7.25c-0.73,0-1.29-0.38-1.69-1.14
					c-0.39-0.76-0.59-1.67-0.59-2.74c0-1.12,0.18-2.05,0.55-2.78c0.37-0.73,0.94-1.1,1.73-1.1H223.61z"/>
				<path class="st42" d="M237.19,314.87c0,4.33-0.53,7.45-1.6,9.36c-0.67,1.24-1.52,1.97-2.53,2.19c-0.84,0.17-1.26-0.11-1.26-0.84
					c0-0.5,0.08-1.07,0.25-1.69c0.45-1.63,0.67-2.53,0.67-2.7c0-1.29-0.62-2.28-1.86-2.95c-1.24-0.67-1.85-2.11-1.85-4.3
					c0-1.18,0.45-2.33,1.35-3.46c0.9-1.12,1.91-1.69,3.03-1.69c1.24,0,2.18,0.55,2.82,1.64
					C236.86,311.54,237.19,313.02,237.19,314.87z"/>
				<path class="st42" d="M275.29,363.85c0,1.69-1.76,3.58-5.27,5.69s-6.67,3.16-9.48,3.16c-5.79,0-10.37-2.28-13.74-6.83
					c-3.6-4.83-5.39-11.66-5.39-20.48c0-9.61,2.84-17.65,8.51-24.11c4.78-5.45,9.58-8.18,14.42-8.18c2.02,0,4.16,0.74,6.41,2.23
					c2.25,1.49,3.37,3.02,3.37,4.59c-0.17,1.69-0.39,2.95-0.67,3.79c-0.45,1.35-1.1,2.02-1.94,2.02c-1.8,0-3.74-0.93-5.82-2.78
					c-2.08-1.86-3.88-2.78-5.4-2.78c-2.98,0-5.26,1.6-6.83,4.81c-1.29,2.59-1.94,5.65-1.94,9.19c0,1.52,0.14,2.78,0.42,3.79
					c0.28,1.01,0.64,1.52,1.1,1.52h18.46c0.62,0,1.1,0.35,1.43,1.05c0.34,0.7,0.51,1.59,0.51,2.65c0,1.29-0.28,2.4-0.84,3.33
					c-0.56,0.93-1.41,1.39-2.53,1.39h-16.52c-1.35,0-2.02,1.18-2.02,3.54c0,3.26,0.98,6.61,2.95,10.03c2.25,3.93,4.77,5.9,7.59,5.9
					c1.52,0,3.27-0.69,5.27-2.07c1.99-1.38,4.03-2.8,6.11-4.26c0.45,0,0.87,0.29,1.26,0.89
					C275.09,362.55,275.29,363.18,275.29,363.85z"/>
				<path class="st42" d="M316.34,324.57c0,4.5-0.7,10.37-2.11,17.62c-1.57,8.15-3.57,15.01-5.99,20.57
					c-2.87,6.63-5.87,9.95-9.02,9.95c-4.05,0-7.78-4.52-11.21-13.57c-2.53-6.74-4.72-15.31-6.58-25.71
					c-1.41-7.93-2.11-12.95-2.11-15.09c0-1.29,0.43-2.37,1.31-3.25c0.87-0.87,1.93-1.31,3.16-1.31c2.08,0,3.34,1.29,3.79,3.88
					c0,8.15,1.59,17.76,4.76,28.83c3.17,11.07,5.8,16.61,7.88,16.61c1.35,0,3.22-4.26,5.61-12.77c2.39-8.51,3.58-14.74,3.58-18.67
					c0-2.87-0.82-5.2-2.44-7c-1.63-1.8-3.74-2.7-6.32-2.7c-1.52,0-2.89,0.89-4.13,2.66c-1.24,1.77-2.33,2.65-3.29,2.65
					c-0.56,0-1.01-0.43-1.35-1.31c-0.34-0.87-0.5-1.67-0.5-2.4c-0.11-1.35,1.07-3.54,3.54-6.58c2.81-3.48,5.51-5.23,8.09-5.23
					c3.88,0,7.07,1.14,9.57,3.42C315.09,317.44,316.34,320.58,316.34,324.57z"/>
				<path class="st42" d="M354.28,363.85c0,1.69-1.76,3.58-5.27,5.69c-3.51,2.11-6.67,3.16-9.48,3.16c-5.79,0-10.37-2.28-13.74-6.83
					c-3.6-4.83-5.39-11.66-5.39-20.48c0-9.61,2.84-17.65,8.51-24.11c4.78-5.45,9.58-8.18,14.42-8.18c2.02,0,4.16,0.74,6.41,2.23
					c2.25,1.49,3.37,3.02,3.37,4.59c-0.17,1.69-0.39,2.95-0.67,3.79c-0.45,1.35-1.1,2.02-1.94,2.02c-1.8,0-3.74-0.93-5.82-2.78
					c-2.08-1.86-3.88-2.78-5.4-2.78c-2.98,0-5.26,1.6-6.83,4.81c-1.29,2.59-1.94,5.65-1.94,9.19c0,1.52,0.14,2.78,0.42,3.79
					c0.28,1.01,0.64,1.52,1.1,1.52h18.46c0.62,0,1.1,0.35,1.43,1.05c0.34,0.7,0.51,1.59,0.51,2.65c0,1.29-0.28,2.4-0.84,3.33
					c-0.56,0.93-1.41,1.39-2.53,1.39h-16.52c-1.35,0-2.02,1.18-2.02,3.54c0,3.26,0.98,6.61,2.95,10.03c2.25,3.93,4.77,5.9,7.59,5.9
					c1.52,0,3.27-0.69,5.27-2.07c1.99-1.38,4.03-2.8,6.11-4.26c0.45,0,0.87,0.29,1.26,0.89
					C354.08,362.55,354.28,363.18,354.28,363.85z"/>
				<path class="st42" d="M393.48,368.66c0,1.35-0.41,2.43-1.22,3.24c-0.82,0.81-1.78,1.22-2.91,1.22c-1.07,0-2-0.41-2.78-1.22
					c-0.79-0.81-1.18-2.01-1.18-3.58v-18.21c0-2.92-1.46-6.24-4.38-9.95c-2.3-2.92-5.11-5.76-8.43-8.51
					c-2.92-2.42-4.64-3.6-5.14-3.54c-1.24,0.11-1.86,0.82-1.86,2.11v39.54c0,0.84-0.37,1.52-1.1,2.02c-0.73,0.5-1.57,0.76-2.53,0.76
					c-0.96,0-1.74-0.25-2.36-0.76c-0.62-0.51-0.93-1.27-0.93-2.28v-51.17c0-1.29,0.37-2.44,1.1-3.46c0.73-1.01,1.6-1.52,2.61-1.52
					c2.02,0,4.47,0.96,7.34,2.87c2.53,1.69,5.25,3.96,8.18,6.83c2.14,2.08,4.75,4.83,7.84,8.26l0.84-0.42v-13.32
					c0-1.29,0.55-2.43,1.64-3.41c1.1-0.98,2.2-1.48,3.33-1.48c1.29,0,1.94,0.79,1.94,2.36V368.66z"/>
				<path class="st42" d="M427.12,313.78c0.62,0,1.12,0.42,1.52,1.26s0.59,1.8,0.59,2.87c0,1.12-0.21,2.08-0.63,2.87
					c-0.42,0.79-1.11,1.18-2.07,1.18h-7.76c-0.22,0-0.53,0.34-0.93,1.01c-0.17,0.34-0.39,0.79-0.67,1.35v44
					c0,1.41-0.38,2.49-1.14,3.25c-0.76,0.76-1.67,1.14-2.74,1.14s-2.04-0.38-2.91-1.14c-0.87-0.76-1.31-1.78-1.31-3.08v-44.76
					c0-0.39,0-0.67,0-0.84c0-0.34-0.08-0.62-0.25-0.84c-0.28-0.34-0.73-0.5-1.35-0.5h-7.25c-0.73,0-1.29-0.38-1.69-1.14
					c-0.39-0.76-0.59-1.67-0.59-2.74c0-1.12,0.18-2.05,0.55-2.78c0.37-0.73,0.94-1.1,1.73-1.1H427.12z"/>
				<path class="st42" d="M465.22,357.28c0,4.95-2.64,8.93-7.93,11.97c-4.05,2.31-7.81,3.46-11.3,3.46c-3.43,0-6.6-1.38-9.53-4.13
					c-2.64-2.47-4.07-4.92-4.3-7.33c0-1.12,0.48-2.31,1.43-3.54c0.73-0.9,1.54-1.35,2.44-1.35c1.07,0,3.31,1.63,6.74,4.89
					c3.43,3.26,6.01,4.89,7.76,4.89c1.46,0,2.67-0.45,3.63-1.35c0.95-0.9,1.43-2.39,1.43-4.47c0-3.76-1.66-7.5-4.97-11.21
					c-3.15-3.03-6.27-6.1-9.36-9.19c-3.37-3.65-5.06-7.22-5.06-10.71c0-3.32,2.02-6.69,6.07-10.12c4.05-3.43,7.81-5.14,11.3-5.14
					c2.58,0.45,4.52,0.93,5.82,1.43c3.88,1.63,5.82,4.19,5.82,7.67c0,1.13-0.25,2.05-0.76,2.78c-0.73,1.07-1.94,1.6-3.63,1.6
					c-0.96,0-2.71-1.11-5.27-3.33c-2.56-2.22-4.29-3.33-5.18-3.33c-1.46,0-2.68,0.63-3.67,1.9c-0.98,1.27-1.47,2.8-1.47,4.59
					c0,1.13,0.28,2.33,0.84,3.63c0.22,0,1.86,1.41,4.89,4.22c3.88,3.6,6.97,6.97,9.27,10.12
					C463.56,349.77,465.22,353.79,465.22,357.28z"/>
			</g>
			<g>
				<path class="st38" d="M70.19,321.2c0,1.35-0.42,2.47-1.26,3.37c-0.84,0.9-1.86,1.35-3.04,1.35c-1.63,0-3.09-0.62-4.38-1.86
					c-2.76-2.7-4.61-4.05-5.56-4.05c-3.04,0-5.49,2.04-7.38,6.12c-1.89,4.08-2.82,9.7-2.82,16.85c0,6.59,1.11,12.25,3.33,16.98
					s5.04,7.23,8.47,7.52c1.41,0,3.02-0.6,4.85-1.8s3.69-2.43,5.61-3.68c0.62,0,1.1,0.28,1.43,0.85c0.34,0.57,0.51,1.24,0.51,2.04
					c0,1.53-1.73,3.34-5.18,5.44c-3.46,2.1-6.76,3.14-9.91,3.14c-5.28,0-9.61-2.34-12.98-7.01c-3.77-5.18-5.65-12.38-5.65-21.61
					c0-3.21,0.36-6.56,1.1-10.05c0.73-3.49,1.43-5.54,2.11-6.16c0.84-1.8,3.36-4.61,7.54-8.44c4.19-3.82,6.93-5.96,8.22-6.42
					c0.28-0.28,0.74-0.5,1.39-0.67c0.64-0.17,1.39-0.25,2.23-0.25c0.79,0,1.57,0.08,2.36,0.25c2.36,0.45,4.45,1.43,6.28,2.95
					C69.27,317.57,70.19,319.28,70.19,321.2z"/>
				<path class="st38" d="M107.03,368.66c0,1.18-0.59,2.18-1.78,2.99c-1.19,0.82-2.4,1.22-3.64,1.22c-0.68,0-1.3-0.16-1.86-0.46
					c-0.56-0.31-1.18-0.86-1.86-1.64c-1.18-3.43-3.5-8.43-6.94-15.01c-1.13-2.19-2.76-5.2-4.91-9.02c0-1.97,1.01-3.85,3.04-5.65
					c4.49-3.99,6.74-7.31,6.74-9.95c0-2.7-0.93-5.25-2.78-7.67c-1.85-2.42-4.02-3.63-6.49-3.63c-1.01,0-1.83,0.51-2.44,1.52
					c-0.62,1.01-0.93,2.28-0.93,3.81v44.06c0,1.13-0.44,2.02-1.31,2.67c-0.87,0.65-1.9,0.97-3.08,0.97c-1.13,0-2.11-0.28-2.95-0.85
					c-0.84-0.56-1.26-1.35-1.26-2.37v-44.72c0-3.61,1.42-6.59,4.26-8.96c2.84-2.37,6.03-3.55,9.57-3.55c3.71,0,7.42,1.89,11.13,5.65
					c3.71,3.77,5.56,7.48,5.56,11.13c0,2.64-1.09,5.42-3.26,8.35c-2.17,2.92-4.63,5.14-7.36,6.66v1.94c3.45,4.27,6.25,8.21,8.4,11.8
					C105.64,362.56,107.03,366.13,107.03,368.66z"/>
				<path class="st38" d="M144.71,363.85c0,1.69-1.76,3.58-5.27,5.69s-6.67,3.16-9.48,3.16c-5.79,0-10.37-2.28-13.74-6.83
					c-3.6-4.83-5.39-11.66-5.39-20.48c0-9.61,2.84-17.65,8.51-24.11c4.78-5.45,9.58-8.18,14.42-8.18c2.02,0,4.16,0.74,6.41,2.23
					c2.25,1.49,3.37,3.02,3.37,4.59c-0.17,1.69-0.39,2.95-0.67,3.79c-0.45,1.35-1.1,2.02-1.94,2.02c-1.8,0-3.74-0.93-5.82-2.78
					c-2.08-1.86-3.88-2.78-5.4-2.78c-2.98,0-5.26,1.6-6.83,4.81c-1.29,2.59-1.94,5.65-1.94,9.19c0,1.52,0.14,2.78,0.42,3.79
					c0.28,1.01,0.64,1.52,1.1,1.52h18.46c0.62,0,1.1,0.35,1.43,1.05c0.34,0.7,0.51,1.59,0.51,2.65c0,1.29-0.28,2.4-0.84,3.33
					c-0.56,0.93-1.41,1.39-2.53,1.39h-16.52c-1.35,0-2.02,1.18-2.02,3.54c0,3.26,0.98,6.61,2.95,10.03c2.25,3.93,4.77,5.9,7.59,5.9
					c1.52,0,3.27-0.69,5.27-2.07c1.99-1.38,4.03-2.8,6.11-4.26c0.45,0,0.87,0.29,1.26,0.89
					C144.51,362.55,144.71,363.18,144.71,363.85z"/>
				<path class="st38" d="M190.74,368.32c0.28,1.29-0.08,2.53-1.09,3.71c-1.01,1.18-2.21,1.77-3.61,1.77c-0.95,0-1.81-0.37-2.56-1.1
					c-0.76-0.73-1.33-1.91-1.72-3.55l-11.04-45.86c-0.17-0.5-0.57-0.75-1.2-0.75c-0.8,0-1.32,0.34-1.55,1.01l-9.76,27.99
					c-0.28,0.96-0.42,1.77-0.42,2.44c0,2.36,0.93,4.47,2.78,6.32c1.86,1.86,3.88,2.78,6.07,2.78c1.69,0,3.63-1.12,5.82-3.37
					c0.73-0.73,1.66-1.86,2.78-3.37c0.67,0.11,1.26,0.5,1.77,1.18c0.5,0.67,0.76,1.35,0.76,2.02c0,0.23-0.06,0.56-0.17,1.01
					c-3.09,4.61-5.69,7.85-7.8,9.74c-2.11,1.88-4.2,2.82-6.28,2.82c-3.37,0-6.62-1.42-9.74-4.26c-3.12-2.84-4.68-5.89-4.68-9.15
					c0-0.73,0.14-1.57,0.42-2.53l12.81-37.77c0.62-1.83,1.74-3.3,3.37-4.41c1.63-1.11,3.43-1.66,5.39-1.66
					c1.97,0,3.72,0.65,5.27,1.96c1.55,1.31,2.66,3.32,3.33,6.05L190.74,368.32z"/>
				<path class="st38" d="M223.61,313.78c0.62,0,1.12,0.42,1.52,1.26s0.59,1.8,0.59,2.87c0,1.12-0.21,2.08-0.63,2.87
					c-0.42,0.79-1.11,1.18-2.07,1.18h-7.76c-0.22,0-0.53,0.34-0.93,1.01c-0.17,0.34-0.39,0.79-0.67,1.35v44
					c0,1.41-0.38,2.49-1.14,3.25c-0.76,0.76-1.67,1.14-2.74,1.14s-2.04-0.38-2.91-1.14c-0.87-0.76-1.31-1.78-1.31-3.08v-44.76
					c0-0.39,0-0.67,0-0.84c0-0.34-0.08-0.62-0.25-0.84c-0.28-0.34-0.73-0.5-1.35-0.5h-7.25c-0.73,0-1.29-0.38-1.69-1.14
					c-0.39-0.76-0.59-1.67-0.59-2.74c0-1.12,0.18-2.05,0.55-2.78c0.37-0.73,0.94-1.1,1.73-1.1H223.61z"/>
				<path class="st38" d="M237.19,314.87c0,4.33-0.53,7.45-1.6,9.36c-0.67,1.24-1.52,1.97-2.53,2.19c-0.84,0.17-1.26-0.11-1.26-0.84
					c0-0.5,0.08-1.07,0.25-1.69c0.45-1.63,0.67-2.53,0.67-2.7c0-1.29-0.62-2.28-1.86-2.95c-1.24-0.67-1.85-2.11-1.85-4.3
					c0-1.18,0.45-2.33,1.35-3.46c0.9-1.12,1.91-1.69,3.03-1.69c1.24,0,2.18,0.55,2.82,1.64
					C236.86,311.54,237.19,313.02,237.19,314.87z"/>
				<path class="st38" d="M275.29,363.85c0,1.69-1.76,3.58-5.27,5.69s-6.67,3.16-9.48,3.16c-5.79,0-10.37-2.28-13.74-6.83
					c-3.6-4.83-5.39-11.66-5.39-20.48c0-9.61,2.84-17.65,8.51-24.11c4.78-5.45,9.58-8.18,14.42-8.18c2.02,0,4.16,0.74,6.41,2.23
					c2.25,1.49,3.37,3.02,3.37,4.59c-0.17,1.69-0.39,2.95-0.67,3.79c-0.45,1.35-1.1,2.02-1.94,2.02c-1.8,0-3.74-0.93-5.82-2.78
					c-2.08-1.86-3.88-2.78-5.4-2.78c-2.98,0-5.26,1.6-6.83,4.81c-1.29,2.59-1.94,5.65-1.94,9.19c0,1.52,0.14,2.78,0.42,3.79
					c0.28,1.01,0.64,1.52,1.1,1.52h18.46c0.62,0,1.1,0.35,1.43,1.05c0.34,0.7,0.51,1.59,0.51,2.65c0,1.29-0.28,2.4-0.84,3.33
					c-0.56,0.93-1.41,1.39-2.53,1.39h-16.52c-1.35,0-2.02,1.18-2.02,3.54c0,3.26,0.98,6.61,2.95,10.03c2.25,3.93,4.77,5.9,7.59,5.9
					c1.52,0,3.27-0.69,5.27-2.07c1.99-1.38,4.03-2.8,6.11-4.26c0.45,0,0.87,0.29,1.26,0.89
					C275.09,362.55,275.29,363.18,275.29,363.85z"/>
				<path class="st38" d="M316.34,324.57c0,4.5-0.7,10.37-2.11,17.62c-1.57,8.15-3.57,15.01-5.99,20.57
					c-2.87,6.63-5.87,9.95-9.02,9.95c-4.05,0-7.78-4.52-11.21-13.57c-2.53-6.74-4.72-15.31-6.58-25.71
					c-1.41-7.93-2.11-12.95-2.11-15.09c0-1.29,0.43-2.37,1.31-3.25c0.87-0.87,1.93-1.31,3.16-1.31c2.08,0,3.34,1.29,3.79,3.88
					c0,8.15,1.59,17.76,4.76,28.83c3.17,11.07,5.8,16.61,7.88,16.61c1.35,0,3.22-4.26,5.61-12.77c2.39-8.51,3.58-14.74,3.58-18.67
					c0-2.87-0.82-5.2-2.44-7c-1.63-1.8-3.74-2.7-6.32-2.7c-1.52,0-2.89,0.89-4.13,2.66c-1.24,1.77-2.33,2.65-3.29,2.65
					c-0.56,0-1.01-0.43-1.35-1.31c-0.34-0.87-0.5-1.67-0.5-2.4c-0.11-1.35,1.07-3.54,3.54-6.58c2.81-3.48,5.51-5.23,8.09-5.23
					c3.88,0,7.07,1.14,9.57,3.42C315.09,317.44,316.34,320.58,316.34,324.57z"/>
				<path class="st38" d="M354.28,363.85c0,1.69-1.76,3.58-5.27,5.69c-3.51,2.11-6.67,3.16-9.48,3.16c-5.79,0-10.37-2.28-13.74-6.83
					c-3.6-4.83-5.39-11.66-5.39-20.48c0-9.61,2.84-17.65,8.51-24.11c4.78-5.45,9.58-8.18,14.42-8.18c2.02,0,4.16,0.74,6.41,2.23
					c2.25,1.49,3.37,3.02,3.37,4.59c-0.17,1.69-0.39,2.95-0.67,3.79c-0.45,1.35-1.1,2.02-1.94,2.02c-1.8,0-3.74-0.93-5.82-2.78
					c-2.08-1.86-3.88-2.78-5.4-2.78c-2.98,0-5.26,1.6-6.83,4.81c-1.29,2.59-1.94,5.65-1.94,9.19c0,1.52,0.14,2.78,0.42,3.79
					c0.28,1.01,0.64,1.52,1.1,1.52h18.46c0.62,0,1.1,0.35,1.43,1.05c0.34,0.7,0.51,1.59,0.51,2.65c0,1.29-0.28,2.4-0.84,3.33
					c-0.56,0.93-1.41,1.39-2.53,1.39h-16.52c-1.35,0-2.02,1.18-2.02,3.54c0,3.26,0.98,6.61,2.95,10.03c2.25,3.93,4.77,5.9,7.59,5.9
					c1.52,0,3.27-0.69,5.27-2.07c1.99-1.38,4.03-2.8,6.11-4.26c0.45,0,0.87,0.29,1.26,0.89
					C354.08,362.55,354.28,363.18,354.28,363.85z"/>
				<path class="st38" d="M393.48,368.66c0,1.35-0.41,2.43-1.22,3.24c-0.82,0.81-1.78,1.22-2.91,1.22c-1.07,0-2-0.41-2.78-1.22
					c-0.79-0.81-1.18-2.01-1.18-3.58v-18.21c0-2.92-1.46-6.24-4.38-9.95c-2.3-2.92-5.11-5.76-8.43-8.51
					c-2.92-2.42-4.64-3.6-5.14-3.54c-1.24,0.11-1.86,0.82-1.86,2.11v39.54c0,0.84-0.37,1.52-1.1,2.02c-0.73,0.5-1.57,0.76-2.53,0.76
					c-0.96,0-1.74-0.25-2.36-0.76c-0.62-0.51-0.93-1.27-0.93-2.28v-51.17c0-1.29,0.37-2.44,1.1-3.46c0.73-1.01,1.6-1.52,2.61-1.52
					c2.02,0,4.47,0.96,7.34,2.87c2.53,1.69,5.25,3.96,8.18,6.83c2.14,2.08,4.75,4.83,7.84,8.26l0.84-0.42v-13.32
					c0-1.29,0.55-2.43,1.64-3.41c1.1-0.98,2.2-1.48,3.33-1.48c1.29,0,1.94,0.79,1.94,2.36V368.66z"/>
				<path class="st38" d="M427.12,313.78c0.62,0,1.12,0.42,1.52,1.26s0.59,1.8,0.59,2.87c0,1.12-0.21,2.08-0.63,2.87
					c-0.42,0.79-1.11,1.18-2.07,1.18h-7.76c-0.22,0-0.53,0.34-0.93,1.01c-0.17,0.34-0.39,0.79-0.67,1.35v44
					c0,1.41-0.38,2.49-1.14,3.25c-0.76,0.76-1.67,1.14-2.74,1.14s-2.04-0.38-2.91-1.14c-0.87-0.76-1.31-1.78-1.31-3.08v-44.76
					c0-0.39,0-0.67,0-0.84c0-0.34-0.08-0.62-0.25-0.84c-0.28-0.34-0.73-0.5-1.35-0.5h-7.25c-0.73,0-1.29-0.38-1.69-1.14
					c-0.39-0.76-0.59-1.67-0.59-2.74c0-1.12,0.18-2.05,0.55-2.78c0.37-0.73,0.94-1.1,1.73-1.1H427.12z"/>
				<path class="st38" d="M465.22,357.28c0,4.95-2.64,8.93-7.93,11.97c-4.05,2.31-7.81,3.46-11.3,3.46c-3.43,0-6.6-1.38-9.53-4.13
					c-2.64-2.47-4.07-4.92-4.3-7.33c0-1.12,0.48-2.31,1.43-3.54c0.73-0.9,1.54-1.35,2.44-1.35c1.07,0,3.31,1.63,6.74,4.89
					c3.43,3.26,6.01,4.89,7.76,4.89c1.46,0,2.67-0.45,3.63-1.35c0.95-0.9,1.43-2.39,1.43-4.47c0-3.76-1.66-7.5-4.97-11.21
					c-3.15-3.03-6.27-6.1-9.36-9.19c-3.37-3.65-5.06-7.22-5.06-10.71c0-3.32,2.02-6.69,6.07-10.12c4.05-3.43,7.81-5.14,11.3-5.14
					c2.58,0.45,4.52,0.93,5.82,1.43c3.88,1.63,5.82,4.19,5.82,7.67c0,1.13-0.25,2.05-0.76,2.78c-0.73,1.07-1.94,1.6-3.63,1.6
					c-0.96,0-2.71-1.11-5.27-3.33c-2.56-2.22-4.29-3.33-5.18-3.33c-1.46,0-2.68,0.63-3.67,1.9c-0.98,1.27-1.47,2.8-1.47,4.59
					c0,1.13,0.28,2.33,0.84,3.63c0.22,0,1.86,1.41,4.89,4.22c3.88,3.6,6.97,6.97,9.27,10.12
					C463.56,349.77,465.22,353.79,465.22,357.28z"/>
			</g>
		</g>
		<g>
			<path class="st38" d="M50.04,412.91c-0.69,0.35-2.38,1.05-4.71,1.05c-4.64,0-7.74-3.38-7.74-8.22c0-5.13,3.49-8.61,8.31-8.61
				c1.98,0,3.6,0.56,4.23,1l-0.57,1.33c-0.79-0.45-2.02-0.94-3.82-0.94c-4.32,0-6.54,3.31-6.54,7.1c0,4.22,2.66,6.97,6.37,6.97
				c1.92,0,3.16-0.55,4.03-0.93L50.04,412.91z"/>
			<path class="st38" d="M67.36,405.4c0,6.02-4.12,8.57-7.71,8.57c-4.17,0-7.38-3.24-7.38-8.3c0-5.51,3.62-8.55,7.62-8.55
				C64.33,397.12,67.36,400.46,67.36,405.4z M53.87,405.6c0,4.03,2.57,7.05,5.88,7.05c3.35,0,5.99-3.05,5.99-7.18
				c0-2.94-1.66-7.02-5.91-7.02C55.74,398.45,53.87,402.13,53.87,405.6z"/>
			<path class="st38" d="M71.45,401.35c0-1.48-0.05-2.59-0.14-3.85h1.49l0.12,2.85h0.07c1.03-1.86,2.58-3.22,5.23-3.22
				c2.24,0,3.94,1.5,4.62,3.52h0.07c0.46-0.96,1.05-1.68,1.64-2.18c1.04-0.86,2.13-1.34,3.85-1.34c1.57,0,5.25,0.89,5.25,6.99v9.49
				h-1.59v-9.34c0-3.62-1.4-5.77-4.2-5.77c-2.01,0-3.6,1.49-4.23,3.2c-0.15,0.46-0.28,1-0.28,1.6v10.32h-1.6v-10.07
				c0-2.9-1.39-5.04-3.99-5.04c-2.16,0-3.87,1.75-4.47,3.63c-0.14,0.45-0.24,1-0.24,1.55v9.93h-1.59V401.35z"/>
			<path class="st38" d="M98.94,401.35c0-1.48-0.05-2.59-0.14-3.85h1.49l0.12,2.85h0.07c1.03-1.86,2.58-3.22,5.23-3.22
				c2.24,0,3.94,1.5,4.62,3.52h0.07c0.46-0.96,1.05-1.68,1.64-2.18c1.04-0.86,2.13-1.34,3.85-1.34c1.57,0,5.25,0.89,5.25,6.99v9.49
				h-1.59v-9.34c0-3.62-1.4-5.77-4.2-5.77c-2.01,0-3.6,1.49-4.23,3.2c-0.15,0.46-0.28,1-0.28,1.6v10.32h-1.6v-10.07
				c0-2.9-1.39-5.04-3.99-5.04c-2.16,0-3.87,1.75-4.47,3.63c-0.14,0.45-0.24,1-0.24,1.55v9.93h-1.59V401.35z"/>
			<path class="st38" d="M138.83,409.67c0,1.44,0.05,2.7,0.13,3.94h-1.49l-0.11-2.86h-0.07c-0.82,1.48-2.64,3.23-5.53,3.23
				c-2.05,0-5.48-1.01-5.48-7.1v-9.38h1.6v9.05c0,3.52,1.08,6.03,4.28,6.03c2.34,0,4.07-1.65,4.75-3.27
				c0.17-0.5,0.32-1.12,0.32-1.78V397.5h1.59V409.67z"/>
			<path class="st38" d="M144.25,401.35c0-1.48-0.05-2.59-0.14-3.85h1.49l0.12,2.91h0.07c0.88-1.81,2.9-3.28,5.55-3.28
				c1.54,0,5.62,0.79,5.62,6.82v9.66h-1.59v-9.52c0-2.94-1.13-5.6-4.46-5.6c-2.27,0-4.2,1.62-4.83,3.71
				c-0.12,0.39-0.22,0.93-0.22,1.44v9.97h-1.59V401.35z"/>
			<path class="st38" d="M164.33,392.89c0,0.75-0.49,1.39-1.34,1.39c-0.73,0-1.24-0.65-1.24-1.39c0-0.74,0.56-1.39,1.3-1.39
				C163.81,391.49,164.33,392.12,164.33,392.89z M162.24,413.61V397.5h1.59v16.11H162.24z"/>
			<path class="st38" d="M180.36,412.91c-0.69,0.35-2.38,1.05-4.71,1.05c-4.64,0-7.74-3.38-7.74-8.22c0-5.13,3.49-8.61,8.31-8.61
				c1.98,0,3.6,0.56,4.23,1l-0.57,1.33c-0.79-0.45-2.02-0.94-3.82-0.94c-4.32,0-6.54,3.31-6.54,7.1c0,4.22,2.66,6.97,6.37,6.97
				c1.92,0,3.16-0.55,4.03-0.93L180.36,412.91z"/>
			<path class="st38" d="M192.84,413.61l-0.23-2.31h-0.08c-0.78,1.24-2.58,2.68-5.13,2.68c-3.24,0-4.74-2.28-4.74-4.43
				c0-3.72,3.27-5.96,9.82-5.89v-0.43c0-1.59-0.31-4.77-4.12-4.75c-1.41,0-2.88,0.38-4.04,1.2l-0.5-1.16c1.47-1,3.26-1.39,4.72-1.39
				c4.65,0,5.54,3.49,5.54,6.37v6.28c0,1.28,0.05,2.59,0.23,3.83H192.84z M192.48,405c-3.51-0.1-8.14,0.43-8.14,4.3
				c0,2.32,1.53,3.36,3.21,3.36c2.68,0,4.21-1.66,4.77-3.23c0.12-0.34,0.17-0.69,0.17-0.97V405z"/>
			<path class="st38" d="M201.2,392.83v4.67h4.59v1.29h-4.59v10.47c0,2.05,0.64,3.33,2.37,3.33c0.83,0,1.42-0.11,1.83-0.25
				l0.19,1.23c-0.52,0.22-1.25,0.39-2.22,0.39c-1.18,0-2.15-0.37-2.78-1.14c-0.73-0.85-0.98-2.2-0.98-3.84v-10.19h-2.72v-1.29h2.72
				v-4.15L201.2,392.83z"/>
			<path class="st38" d="M211.45,392.89c0,0.75-0.49,1.39-1.34,1.39c-0.73,0-1.24-0.65-1.24-1.39c0-0.74,0.56-1.39,1.3-1.39
				C210.93,391.49,211.45,392.12,211.45,392.89z M209.36,413.61V397.5h1.59v16.11H209.36z"/>
			<path class="st38" d="M230.13,405.4c0,6.02-4.12,8.57-7.71,8.57c-4.17,0-7.38-3.24-7.38-8.3c0-5.51,3.62-8.55,7.62-8.55
				C227.11,397.12,230.13,400.46,230.13,405.4z M216.65,405.6c0,4.03,2.57,7.05,5.88,7.05c3.35,0,5.99-3.05,5.99-7.18
				c0-2.94-1.66-7.02-5.91-7.02C218.51,398.45,216.65,402.13,216.65,405.6z"/>
			<path class="st38" d="M234.23,401.35c0-1.48-0.05-2.59-0.14-3.85h1.49l0.12,2.91h0.07c0.88-1.81,2.9-3.28,5.55-3.28
				c1.54,0,5.62,0.79,5.62,6.82v9.66h-1.59v-9.52c0-2.94-1.13-5.6-4.46-5.6c-2.27,0-4.2,1.62-4.83,3.71
				c-0.12,0.39-0.22,0.93-0.22,1.44v9.97h-1.59V401.35z"/>
			<path class="st38" d="M273.63,413.61c-0.75-0.75-1.4-1.47-2.49-2.57c-2.27,2.19-4.48,2.94-6.86,2.94c-3.72,0-6.38-2.79-6.38-6.31
				c0-3.14,1.95-5.21,4.47-6.67l0.01-0.1c-1.28-1.7-1.97-3.35-1.97-4.94c0-2.7,1.84-5.34,5.1-5.34c2.4,0,4.31,1.75,4.31,4.5
				c0,2.43-1.42,4.26-5.27,6.17v0.1c2.31,2.7,4.91,5.65,6.59,7.57c1.12-1.68,1.81-3.93,2.33-7.28H275c-0.6,3.63-1.47,6.37-2.95,8.2
				c1.16,1.19,2.25,2.32,3.6,3.73H273.63z M270.25,410.07c-1.31-1.52-4.25-4.72-7.13-8.1c-1.43,0.85-3.62,2.55-3.62,5.49
				c0,3.02,2.18,5.2,5.13,5.2C266.98,412.67,268.92,411.58,270.25,410.07z M261.93,395.79c0,1.91,0.91,3.31,1.83,4.57
				c2.7-1.43,4.56-2.82,4.56-5.11c0-1.6-0.88-3.36-3.05-3.36C263.08,391.9,261.93,393.73,261.93,395.79z"/>
			<path class="st38" d="M285.96,405.4c0,5.14,2.8,7.18,6.13,7.18c2.35,0,3.57-0.47,4.48-0.91l0.41,1.26
				c-0.62,0.34-2.27,1.03-5.09,1.03c-4.63,0-7.51-3.37-7.51-8.09c0-5.38,3.08-8.74,7.24-8.74c5.28,0,6.28,4.96,6.28,7.28
				c0,0.45,0,0.7-0.05,0.99H285.96z M296.23,404.12c0.04-2.25-0.9-5.67-4.82-5.67c-3.54,0-5.08,3.19-5.37,5.67H296.23z
				 M295.61,390.51l-4.1,4.63h-1.23l2.98-4.63H295.61z"/>
			<path class="st38" d="M301.48,397.5l3.78,10c0.64,1.58,1.14,2.95,1.57,4.31h0.07c0.44-1.34,1.02-2.77,1.64-4.31l3.84-10h1.68
				l-6.55,16.11h-1.41l-6.31-16.11H301.48z"/>
			<path class="st38" d="M317,405.4c0,5.14,2.8,7.18,6.13,7.18c2.35,0,3.57-0.47,4.48-0.91l0.41,1.26
				c-0.62,0.34-2.27,1.03-5.09,1.03c-4.63,0-7.51-3.37-7.51-8.09c0-5.38,3.08-8.74,7.24-8.74c5.28,0,6.28,4.96,6.28,7.28
				c0,0.45,0,0.7-0.05,0.99H317z M327.27,404.12c0.04-2.25-0.9-5.67-4.82-5.67c-3.54,0-5.08,3.19-5.37,5.67H327.27z"/>
			<path class="st38" d="M333.03,401.35c0-1.48-0.05-2.59-0.14-3.85h1.49l0.12,2.91h0.07c0.88-1.81,2.9-3.28,5.55-3.28
				c1.54,0,5.62,0.79,5.62,6.82v9.66h-1.59v-9.52c0-2.94-1.13-5.6-4.46-5.6c-2.27,0-4.2,1.62-4.83,3.71
				c-0.12,0.39-0.22,0.93-0.22,1.44v9.97h-1.59V401.35z"/>
			<path class="st38" d="M351.27,405.4c0,5.14,2.8,7.18,6.13,7.18c2.35,0,3.57-0.47,4.48-0.91l0.41,1.26
				c-0.62,0.34-2.27,1.03-5.09,1.03c-4.63,0-7.51-3.37-7.51-8.09c0-5.38,3.08-8.74,7.24-8.74c5.28,0,6.28,4.96,6.28,7.28
				c0,0.45,0,0.7-0.05,0.99H351.27z M361.54,404.12c0.04-2.25-0.9-5.67-4.82-5.67c-3.54,0-5.08,3.19-5.37,5.67H361.54z"/>
			<path class="st38" d="M367.3,401.35c0-1.48-0.05-2.59-0.14-3.85h1.49l0.12,2.85h0.07c1.03-1.86,2.58-3.22,5.23-3.22
				c2.24,0,3.94,1.5,4.62,3.52h0.07c0.46-0.96,1.05-1.68,1.64-2.18c1.04-0.86,2.13-1.34,3.85-1.34c1.57,0,5.25,0.89,5.25,6.99v9.49
				h-1.59v-9.34c0-3.62-1.4-5.77-4.2-5.77c-2.01,0-3.6,1.49-4.23,3.2c-0.15,0.46-0.28,1-0.28,1.6v10.32h-1.6v-10.07
				c0-2.9-1.39-5.04-3.99-5.04c-2.16,0-3.87,1.75-4.47,3.63c-0.14,0.45-0.24,1-0.24,1.55v9.93h-1.59V401.35z"/>
			<path class="st38" d="M395.03,405.4c0,5.14,2.8,7.18,6.13,7.18c2.35,0,3.57-0.47,4.48-0.91l0.41,1.26
				c-0.62,0.34-2.27,1.03-5.09,1.03c-4.63,0-7.51-3.37-7.51-8.09c0-5.38,3.08-8.74,7.24-8.74c5.28,0,6.28,4.96,6.28,7.28
				c0,0.45,0,0.7-0.05,0.99H395.03z M405.3,404.12c0.04-2.25-0.9-5.67-4.82-5.67c-3.54,0-5.08,3.19-5.37,5.67H405.3z"/>
			<path class="st38" d="M411.07,401.35c0-1.48-0.05-2.59-0.14-3.85h1.49l0.12,2.91h0.07c0.88-1.81,2.9-3.28,5.55-3.28
				c1.54,0,5.62,0.79,5.62,6.82v9.66h-1.59v-9.52c0-2.94-1.13-5.6-4.46-5.6c-2.27,0-4.2,1.62-4.83,3.71
				c-0.12,0.39-0.22,0.93-0.22,1.44v9.97h-1.59V401.35z"/>
			<path class="st38" d="M430.97,392.83v4.67h4.59v1.29h-4.59v10.47c0,2.05,0.64,3.33,2.37,3.33c0.83,0,1.42-0.11,1.83-0.25
				l0.19,1.23c-0.52,0.22-1.25,0.39-2.22,0.39c-1.18,0-2.15-0.37-2.78-1.14c-0.73-0.85-0.98-2.2-0.98-3.84v-10.19h-2.72v-1.29h2.72
				v-4.15L430.97,392.83z"/>
			<path class="st38" d="M441.21,392.89c0,0.75-0.49,1.39-1.34,1.39c-0.73,0-1.24-0.65-1.24-1.39c0-0.74,0.56-1.39,1.3-1.39
				C440.69,391.49,441.21,392.12,441.21,392.89z M439.13,413.61V397.5h1.59v16.11H439.13z"/>
			<path class="st38" d="M446.38,405.4c0,5.14,2.8,7.18,6.13,7.18c2.35,0,3.57-0.47,4.48-0.91l0.41,1.26
				c-0.62,0.34-2.27,1.03-5.09,1.03c-4.63,0-7.51-3.37-7.51-8.09c0-5.38,3.08-8.74,7.24-8.74c5.28,0,6.28,4.96,6.28,7.28
				c0,0.45,0,0.7-0.05,0.99H446.38z M456.65,404.12c0.04-2.25-0.9-5.67-4.82-5.67c-3.54,0-5.08,3.19-5.37,5.67H456.65z"/>
			<path class="st38" d="M462.42,389.77h1.59v23.83h-1.59V389.77z"/>
		</g>
	</g>
</g>
</svg>
