<?xml version="1.0" encoding="utf-8"?>
<!-- Generator: Adobe Illustrator 26.0.2, SVG Export Plug-In . SVG Version: 6.00 Build 0)  -->
<svg version="1.1" id="Calque_1" xmlns="http://www.w3.org/2000/svg" xmlns:xlink="http://www.w3.org/1999/xlink" x="0px" y="0px"
	 viewBox="0 0 185.45 73.13" style="enable-background:new 0 0 185.45 73.13;" xml:space="preserve">
<style type="text/css">
	.st0{fill:#FFFFFF;}
	.st1{opacity:0.35;fill:url(#SVGID_1_);}
	.st2{opacity:0.35;}
	.st3{opacity:0.25;fill:url(#SVGID_00000088813807876740178250000003796278662954940040_);}
	.st4{opacity:0.27;fill:url(#SVGID_00000005241902007972305550000003971385763930384547_);}
	.st5{opacity:0.17;fill:url(#SVGID_00000182529967891154755050000008587027510807633845_);}
	.st6{opacity:0.62;fill:url(#SVGID_00000125569471688061744450000007471338551423203512_);}
	.st7{opacity:0.37;fill:url(#SVGID_00000150824446908808837840000005579999323723355789_);}
	.st8{opacity:0.47;fill:url(#SVGID_00000126316244571308459400000004982108833978271397_);}
	.st9{opacity:0.47;fill:url(#SVGID_00000108307834922936210000000016843909856719276955_);}
	.st10{opacity:0.47;fill:url(#SVGID_00000083051092543724051900000008115059222866482602_);}
	.st11{opacity:0.48;fill:url(#SVGID_00000150815534713143015140000003309507965015262871_);}
	.st12{opacity:0.48;fill:url(#SVGID_00000000939703518716544030000006174665832425475465_);}
	.st13{opacity:0.4;fill:url(#SVGID_00000131325613376983395340000014101792901037744317_);}
	.st14{fill:#3A63A4;}
	.st15{fill:#CCD35F;}
	.st16{fill:#4B4392;}
	.st17{fill:#2CA696;}
	.st18{fill:#D71158;}
	.st19{fill:#F9BB5A;}
	.st20{fill:#EFB349;}
	.st21{fill:#EC6C44;}
	.st22{fill:#25B1A2;}
	.st23{fill:#CB3580;}
	.st24{fill:#F8DC91;}
	.st25{fill:#C2367E;}
	.st26{fill:#289BB9;}
	.st27{fill:#CC1640;}
	.st28{fill:#4069A8;}
	.st29{fill:#EF8054;}
	.st30{fill:#1B9361;}
	.st31{fill:#1E9CC0;}
	.st32{fill:#8E4794;}
	.st33{fill:#F9B958;}
	.st34{fill:#DF0C1A;}
	.st35{fill:#002D74;}
	.st36{fill:#0069A8;}
	.st37{fill:#15A3DD;}
	.st38{fill:#19A3DD;}
	.st39{fill-rule:evenodd;clip-rule:evenodd;fill:#4AA334;}
	.st40{fill-rule:evenodd;clip-rule:evenodd;fill:#FFFFFF;}
	.st41{fill:#263780;}
	.st42{fill:url(#SVGID_00000139974596824189112400000008259468945482700426_);}
	.st43{fill:url(#SVGID_00000086671208016660858690000002842315789631386294_);}
	.st44{fill:url(#SVGID_00000111164478015243297770000001066529892448307388_);}
	.st45{fill:url(#SVGID_00000150085126866179456780000012953476180738844826_);}
	.st46{fill:url(#SVGID_00000028323066509781526750000008939449125185301920_);}
	.st47{fill:url(#SVGID_00000098190155158360126530000014321082656386598570_);}
	.st48{fill:#AFB6BD;}
	.st49{fill:#31295C;}
	.st50{fill:url(#SVGID_00000057120460276107305950000016596522295595460248_);}
	.st51{fill:url(#SVGID_00000160185326853027484100000014096986612139711893_);}
	.st52{fill:url(#SVGID_00000081619396283326312580000017637331115331397042_);}
	.st53{fill:url(#SVGID_00000038399979528288678290000012046846297584110241_);}
	.st54{fill:url(#SVGID_00000133522041347526252210000006543112735359326103_);}
	.st55{fill:url(#SVGID_00000092438105111657636350000000767738865128055469_);}
	.st56{fill:url(#SVGID_00000087398443079029654650000001333707586614567829_);}
	.st57{fill:url(#SVGID_00000138553781937377842290000004386385423736890531_);}
	.st58{fill:url(#SVGID_00000160176419191957901500000005921509935728552322_);}
	.st59{fill:url(#SVGID_00000080913509725921139160000000169374417038795425_);}
	.st60{fill:url(#SVGID_00000170257272810549665520000004326470849607995816_);}
	.st61{fill:url(#SVGID_00000034065739789770051380000016106884819701629107_);}
	.st62{fill:url(#SVGID_00000058557740586355668310000010200951679909338556_);}
	.st63{fill:url(#SVGID_00000043428267008218329350000001339831586888505780_);}
	.st64{fill:#312782;}
	.st65{fill:#6461A8;}
	.st66{fill:#747473;}
	.st67{fill:#CAC9C9;}
	.st68{fill-rule:evenodd;clip-rule:evenodd;fill:#D81A16;stroke:#1D1D1B;stroke-width:0.25;stroke-miterlimit:10;}
	.st69{fill:none;stroke:#1D1D1B;stroke-width:0.25;stroke-miterlimit:10;}
	.st70{fill:#12110C;}
	.st71{fill:#1D1D1B;}
	.st72{fill:#EF8328;}
	.st73{fill:url(#SVGID_00000016057280867424288080000014884634629257844122_);}
	.st74{fill:url(#SVGID_00000022519941298669093010000008232584032112170378_);}
	.st75{fill:url(#SVGID_00000000924655010787700160000003162795473247149470_);}
	.st76{fill:url(#SVGID_00000176001688162268467640000001986115722451720371_);}
	.st77{opacity:0.6;}
	.st78{fill:url(#SVGID_00000082346226575944483260000015736940397702844600_);}
	.st79{fill:url(#SVGID_00000019672144316638029160000007405718731266902436_);}
	.st80{fill:url(#SVGID_00000040575729535461038690000014537077452458715037_);}
	.st81{fill:url(#SVGID_00000132068200457112702070000005851744249530721933_);}
	.st82{fill:url(#SVGID_00000179606411042033108560000009636294583442532273_);}
	.st83{fill:url(#SVGID_00000038371016272289462750000011232299746509596305_);}
	.st84{fill:url(#SVGID_00000060742404766440002410000010216631046738170766_);}
	.st85{fill:url(#SVGID_00000100362674047225166120000015086350958143676033_);}
	.st86{fill:url(#SVGID_00000008150034333864554560000013599684736363013770_);}
	.st87{fill:url(#SVGID_00000062874796210575376040000015587857546088679582_);}
	.st88{fill:url(#SVGID_00000016054916954092716240000016500634104327312575_);}
	.st89{fill:url(#SVGID_00000119803303926409204110000009500928562679103396_);}
	.st90{fill:url(#SVGID_00000059283539084015169660000008682998938637605039_);}
	.st91{fill:#001689;}
	.st92{fill:none;stroke:#001689;stroke-width:0.881;stroke-linecap:round;stroke-linejoin:round;stroke-miterlimit:10;}
	.st93{fill:#0047BA;}
	.st94{fill:#253D90;}
	.st95{fill:#FFDC00;}
	.st96{fill:#0556A3;}
	.st97{fill:#0369B2;}
	.st98{fill:#5DC3F0;}
	.st99{fill:#DF162E;}
	.st100{fill:#39A7DF;}
	.st101{fill:#1B71B6;}
	.st102{fill-rule:evenodd;clip-rule:evenodd;fill:url(#XMLID_00000136393329590522489090000007547053745153784212_);}
	.st103{fill-rule:evenodd;clip-rule:evenodd;fill:url(#XMLID_00000020387800817214139540000009504268608168842140_);}
	.st104{fill:#91BF25;}
	.st105{fill:#FFDA05;}
	.st106{fill:#E00F1A;}
	.st107{fill-rule:evenodd;clip-rule:evenodd;fill:#213A7B;}
	.st108{fill-rule:evenodd;clip-rule:evenodd;}
	.st109{fill-rule:evenodd;clip-rule:evenodd;fill:#E20C30;}
	.st110{fill:#2B7DB9;}
	.st111{fill:#43AC51;}
	.st112{fill-rule:evenodd;clip-rule:evenodd;fill:#034A91;}
	.st113{fill:#005891;}
	.st114{fill:#E3283B;}
	.st115{fill:#004A93;}
	.st116{fill-rule:evenodd;clip-rule:evenodd;fill:#004A93;}
	.st117{fill-rule:evenodd;clip-rule:evenodd;fill:#FFEA20;}
	.st118{fill-rule:evenodd;clip-rule:evenodd;fill:#DF101C;}
	.st119{fill:#2997D4;}
	.st120{fill:#F18A00;}
	.st121{fill:#09111D;}
	.st122{fill:#A72136;}
	.st123{fill:url(#SVGID_00000060731457753071888450000015465340816025843647_);}
	.st124{fill:url(#SVGID_00000126293761592187776520000018108735311256100513_);}
	.st125{fill:url(#SVGID_00000088827415330723006830000009831860164843852479_);}
	.st126{fill:url(#SVGID_00000155114848567691472850000002926395154192237211_);}
	.st127{fill:url(#SVGID_00000106844401348264138380000005745201043980013747_);}
	.st128{fill:url(#SVGID_00000150781819850151414110000010594870667694689180_);}
	.st129{fill:url(#SVGID_00000020382694407762771580000007952462243194157978_);}
	.st130{fill:url(#SVGID_00000160876225787858403670000009203788579084124086_);}
	.st131{fill:#2D2F34;}
	.st132{fill:url(#SVGID_00000020398614659654430230000005447478486609348249_);}
	.st133{fill:url(#SVGID_00000161616576872100342750000017462122680244934807_);}
	.st134{fill:url(#SVGID_00000052827059303554517140000014708580514389483708_);}
	.st135{fill:url(#SVGID_00000064330982072719462400000008069858435478628000_);}
	.st136{fill:#003DA6;}
	.st137{fill-rule:evenodd;clip-rule:evenodd;fill:#0E579F;stroke:#FFFFFF;stroke-width:1.0001;stroke-miterlimit:2.6131;}
	.st138{fill-rule:evenodd;clip-rule:evenodd;fill:#FFFFFF;stroke:#FFFFFF;stroke-width:0.216;stroke-miterlimit:2.6131;}
	.st139{fill:#1766AD;}
	.st140{fill:#7EB828;}
	.st141{fill:#0D9E39;}
	.st142{fill:#7CB62C;}
	.st143{fill-rule:evenodd;clip-rule:evenodd;fill:#00A0DF;}
	
		.st144{clip-path:url(#SVGID_00000153676047043919757300000008503385440198933147_);fill-rule:evenodd;clip-rule:evenodd;fill:#8CCFF1;}
	
		.st145{clip-path:url(#SVGID_00000153676047043919757300000008503385440198933147_);fill-rule:evenodd;clip-rule:evenodd;fill:#C3E4F5;}
	
		.st146{clip-path:url(#SVGID_00000153676047043919757300000008503385440198933147_);fill-rule:evenodd;clip-rule:evenodd;fill:#FFFFFF;}
	.st147{clip-path:url(#SVGID_00000153676047043919757300000008503385440198933147_);}
	.st148{fill:#83CEEA;}
	.st149{fill-rule:evenodd;clip-rule:evenodd;fill:#65B2E8;}
	.st150{fill-rule:evenodd;clip-rule:evenodd;fill:#0C68AE;}
	.st151{fill-rule:evenodd;clip-rule:evenodd;fill:#00205C;}
	.st152{fill:#00A0DF;}
	.st153{fill:#00205C;}
	.st154{clip-path:url(#SVGID_00000030474490588211018650000002856714717026391700_);}
	.st155{fill:#29A43B;}
	.st156{fill:#BFE1F4;}
	.st157{fill:#D2E9F7;}
	.st158{fill:#444592;}
	.st159{fill:#BBA26A;}
	.st160{fill:#ACB217;}
	.st161{fill:url(#SVGID_00000160902498496261571670000014143154308793284268_);}
	.st162{fill-rule:evenodd;clip-rule:evenodd;fill:#211F1F;}
	.st163{fill:url(#SVGID_00000108269711745558607970000001370882675162563761_);}
	.st164{fill:url(#SVGID_00000043425602840940897940000012143683744926490041_);}
	.st165{fill:url(#SVGID_00000182526362985527039800000000149250424194617236_);}
	.st166{fill:url(#SVGID_00000021120785732303525760000007003327852304947077_);}
	.st167{fill:url(#SVGID_00000143593377064725604040000007719179093160762015_);}
	.st168{fill:url(#SVGID_00000079487024757894390320000018019646638587350703_);}
	.st169{fill:url(#SVGID_00000145027243261061979250000013210965046109093049_);}
	.st170{fill:url(#SVGID_00000107564008583006752000000012291140307794847935_);}
	.st171{fill:url(#SVGID_00000064328816457134371490000000919971334079294899_);}
	.st172{fill:url(#SVGID_00000135684749779570873790000015918049575804275881_);}
	.st173{fill:url(#SVGID_00000019663896205164079770000001210745807781522874_);}
	.st174{fill:url(#SVGID_00000007387335628935043110000013598986793163818416_);}
	.st175{fill:url(#SVGID_00000035489919600583784450000003488218826595074228_);}
	.st176{fill:url(#SVGID_00000150081825999507186280000002116354635448034454_);}
	.st177{fill:url(#SVGID_00000096018466210160252370000008865801736669140139_);}
	.st178{fill:url(#SVGID_00000017477548083116455720000012694855391032102806_);}
	.st179{fill:url(#SVGID_00000022535619213024755600000007233159157488540592_);}
	.st180{fill:url(#SVGID_00000053506723552643897630000011590559641919308215_);}
	.st181{fill:url(#SVGID_00000023256446051238257680000006280604613631910284_);}
	.st182{fill:url(#SVGID_00000004541705386420440440000013008416409525363878_);}
	.st183{fill:url(#SVGID_00000181783467088605251640000000661745235609887924_);}
	.st184{fill:url(#SVGID_00000140724792073908387550000006928726572496729775_);}
	.st185{fill:url(#SVGID_00000045611947369026004790000003023870212137937341_);}
	.st186{fill:url(#SVGID_00000151501735946245544420000016118921549158687131_);}
	.st187{fill:url(#SVGID_00000008115061231876804820000000868952926836872869_);}
	.st188{fill:url(#SVGID_00000121975897739800281400000017678398414352500129_);}
	
		.st189{clip-path:url(#SVGID_00000007428600822038563710000015775489873546612883_);fill:url(#SVGID_00000053537783040178541750000001058005041355935643_);}
	.st190{fill:url(#SVGID_00000161624723426176402780000018113121204150442142_);}
	.st191{fill:url(#SVGID_00000127755009252780253260000006963235343889964975_);}
	.st192{fill:url(#SVGID_00000163752419055795676530000016144892921643793793_);}
	.st193{fill:url(#SVGID_00000072967359745276200360000004401047599581784201_);}
	.st194{fill-rule:evenodd;clip-rule:evenodd;fill:url(#SVGID_00000034072892853564767930000011093602622973543099_);}
	.st195{fill:#F6F0F3;}
	.st196{fill:#F8F4F6;}
	.st197{fill:#FFFCFD;}
	.st198{fill:#0F4D80;}
	.st199{fill:#2F93D1;}
	.st200{display:none;}
	.st201{display:inline;fill:#0F4D80;}
	.st202{display:inline;fill:#2F93D1;}
	.st203{display:inline;fill:#FFFFFF;}
	.st204{opacity:0.3;}
	.st205{fill:#65A1D7;}
	.st206{fill:#E63922;}
	.st207{fill:#33712F;}
	.st208{fill:#509BD5;}
	.st209{fill:#2C88C7;}
	.st210{fill:#A9DBF7;}
	.st211{fill:#EEB68A;}
	.st212{fill:#FBD3AD;}
	.st213{fill:#270C12;}
	.st214{fill:#230A10;}
	.st215{fill:#A2403B;}
	.st216{fill:#C1665D;}
	.st217{fill:#DFECF8;}
	.st218{fill:#411017;}
	.st219{fill:#262626;}
	.st220{opacity:0.47;}
	.st221{fill:#FAD8D5;}
	.st222{fill:#FBE1DE;}
	.st223{fill:#EA808C;}
	.st224{fill:#C9E7F7;}
	.st225{fill:#E5F3FD;}
	.st226{fill:#FDEEEE;}
	.st227{fill:#F7C7C9;}
	.st228{fill:#ECF6F7;}
	.st229{fill:#A0D0F1;}
	.st230{fill:#97C7EC;}
	.st231{fill:#9ECFF1;}
	.st232{fill:#E8F4F6;}
	.st233{fill:#BEE3F5;}
	.st234{fill:#D7EDF6;}
	.st235{fill:#ED705B;}
	.st236{fill:#F9C9BA;}
	.st237{fill:#8BC5EC;}
	.st238{fill:#F5AC9B;}
	.st239{fill:#F1907E;}
	.st240{fill:#D6EDF6;}
	.st241{fill:#4B8739;}
	.st242{fill:#F39B8B;}
	.st243{fill:#C5D4E1;}
	.st244{fill:#F29A9C;}
	.st245{fill:#3C3C3B;}
	.st246{fill:#EE808D;}
	.st247{fill:#187FB9;}
	.st248{fill:#2EA8E0;}
	.st249{fill:#80CEF4;}
	.st250{fill:#BDE3F6;}
	.st251{fill:#EA5B2B;}
	.st252{fill:#E73F2F;}
	.st253{opacity:0.26;fill:#D3B0D4;}
	.st254{fill:url(#SVGID_00000007412385439896056900000017359320003192928138_);}
	.st255{fill:#B7553B;}
	.st256{fill:#E63924;}
	.st257{fill:#441943;}
	.st258{fill:#281028;}
	.st259{fill:#8BCAB9;}
	.st260{fill:#D9271B;}
	.st261{fill:#FCE7E5;}
	.st262{fill:#A9D7CF;}
	.st263{fill:url(#SVGID_00000025415043642819171390000011432015300722259864_);}
	.st264{fill:url(#SVGID_00000139998667485154223300000014411781114698039172_);}
	.st265{fill:url(#SVGID_00000093857922327426695410000014533710755128197806_);}
	.st266{opacity:0.26;fill:#A2403B;}
	.st267{fill:#6E4594;}
	.st268{fill:#B65650;}
	.st269{fill:url(#SVGID_00000054228018173593060320000009722554852303821971_);}
	.st270{fill:#454545;}
	.st271{fill:#A7D9F5;}
	.st272{fill:#24212E;}
	.st273{fill:#6D1B0F;}
	.st274{fill:#3E4055;}
	.st275{fill:#3E4052;}
	.st276{fill:#77491E;}
	.st277{fill:#474A5E;}
	.st278{fill:#24222D;}
	.st279{fill:#D6D6D6;}
	.st280{fill:#F8C6BD;}
	.st281{fill:#3F292A;}
	.st282{fill:#E7E8EC;}
	.st283{fill:#F9D3CA;}
	.st284{fill:#E9B9A6;}
	.st285{fill:#0E0C09;}
	.st286{fill:#CCDADA;}
	.st287{fill:#EDBDAA;}
	.st288{fill:#535459;}
	.st289{fill:#929497;}
	.st290{fill:#3164AC;}
	.st291{fill:#D53939;}
	.st292{fill:#313134;}
	.st293{fill:url(#SVGID_00000090286852387928788300000011211260335097227190_);}
	.st294{fill:url(#SVGID_00000090996200264616254940000017110187159956842156_);}
	.st295{fill:url(#SVGID_00000026147184191073233500000011767807887021855405_);}
	.st296{fill:#E6E7E7;}
	.st297{clip-path:url(#SVGID_00000097485205791131051680000002966648406057472168_);}
	.st298{fill:#F7F6F6;}
	.st299{fill:#0E4D80;}
	.st300{opacity:0.31;}
	.st301{opacity:0;}
	.st302{fill:#010100;}
	.st303{opacity:4.653465e-03;}
	.st304{opacity:9.306931e-03;}
	.st305{opacity:0.014;}
	.st306{opacity:0.0186;}
	.st307{opacity:0.0233;}
	.st308{opacity:0.0279;}
	.st309{opacity:0.0326;}
	.st310{opacity:0.0372;}
	.st311{opacity:0.0419;}
	.st312{opacity:0.0465;}
	.st313{opacity:0.0512;}
	.st314{opacity:0.0558;}
	.st315{opacity:0.0605;}
	.st316{opacity:0.0651;}
	.st317{opacity:0.0698;}
	.st318{opacity:0.0745;}
	.st319{opacity:0.0791;}
	.st320{opacity:0.0838;}
	.st321{opacity:0.0884;}
	.st322{opacity:0.0931;}
	.st323{opacity:0.0977;}
	.st324{opacity:0.1024;}
	.st325{opacity:0.107;}
	.st326{opacity:0.1117;}
	.st327{opacity:0.1163;}
	.st328{opacity:0.121;}
	.st329{opacity:0.1256;}
	.st330{opacity:0.1303;}
	.st331{opacity:0.135;}
	.st332{opacity:0.1396;}
	.st333{opacity:0.1443;}
	.st334{opacity:0.1489;}
	.st335{opacity:0.1536;}
	.st336{opacity:0.1582;}
	.st337{opacity:0.1629;}
	.st338{opacity:0.1675;}
	.st339{opacity:0.1722;}
	.st340{opacity:0.1768;}
	.st341{opacity:0.1815;}
	.st342{opacity:0.1861;}
	.st343{opacity:0.1908;}
	.st344{opacity:0.1954;}
	.st345{opacity:0.2001;}
	.st346{opacity:0.2048;}
	.st347{opacity:0.2094;}
	.st348{opacity:0.2141;}
	.st349{opacity:0.2187;}
	.st350{opacity:0.2234;}
	.st351{opacity:0.228;}
	.st352{opacity:0.2327;}
	.st353{opacity:0.2373;}
	.st354{opacity:0.242;}
	.st355{opacity:0.2466;}
	.st356{opacity:0.2513;}
	.st357{opacity:0.2559;}
	.st358{opacity:0.2606;}
	.st359{opacity:0.2652;}
	.st360{opacity:0.2699;}
	.st361{opacity:0.2746;}
	.st362{opacity:0.2792;}
	.st363{opacity:0.2839;}
	.st364{opacity:0.2885;}
	.st365{opacity:0.2932;}
	.st366{opacity:0.2978;}
	.st367{opacity:0.3025;}
	.st368{opacity:0.3071;}
	.st369{opacity:0.3118;}
	.st370{opacity:0.3164;}
	.st371{opacity:0.3211;}
	.st372{opacity:0.3257;}
	.st373{opacity:0.3304;}
	.st374{opacity:0.335;}
	.st375{opacity:0.3397;}
	.st376{opacity:0.3444;}
	.st377{opacity:0.349;}
	.st378{opacity:0.3537;}
	.st379{opacity:0.3583;}
	.st380{opacity:0.363;}
	.st381{opacity:0.3676;}
	.st382{opacity:0.3723;}
	.st383{opacity:0.3769;}
	.st384{opacity:0.3816;}
	.st385{opacity:0.3862;}
	.st386{opacity:0.3909;}
	.st387{opacity:0.3955;}
	.st388{opacity:0.4002;}
	.st389{opacity:0.4049;}
	.st390{opacity:0.4095;}
	.st391{opacity:0.4142;}
	.st392{opacity:0.4188;}
	.st393{opacity:0.4235;}
	.st394{opacity:0.4281;}
	.st395{opacity:0.4328;}
	.st396{opacity:0.4374;}
	.st397{opacity:0.4421;}
	.st398{opacity:0.4467;}
	.st399{opacity:0.4514;}
	.st400{opacity:0.456;}
	.st401{opacity:0.4607;}
	.st402{opacity:0.4653;}
	.st403{fill:url(#SVGID_00000168107196385846074230000001718795743502512299_);}
	.st404{fill:url(#SVGID_00000111188305435997688870000001919034657828617912_);}
	.st405{fill:url(#SVGID_00000054961897761856403300000004670039255552305281_);}
	.st406{fill:#C6A295;}
	.st407{fill:#EFC5B3;}
	.st408{fill:#121214;}
	.st409{fill:#BBBDBE;}
	.st410{fill:#863C13;}
	.st411{fill:#B96117;}
	.st412{fill:#EF8118;}
	.st413{fill:#BA5817;}
	.st414{fill:#6D6F71;}
	.st415{fill:#E21D26;}
	.st416{fill:#2C5E84;}
	.st417{fill:#9C251F;}
	.st418{fill:url(#SVGID_00000143579974751107483220000002172506717255308730_);}
	.st419{fill:#1C374E;}
	.st420{fill:#2B4E68;}
	.st421{opacity:0.3;fill:#121214;}
	.st422{fill:url(#SVGID_00000083069609230002815000000014488476628381373109_);}
	.st423{fill:url(#SVGID_00000128458313497062224340000017992696229547567781_);}
	.st424{fill:url(#SVGID_00000162328646167509436060000000923194083997343374_);}
	.st425{fill:url(#SVGID_00000098219409611136959490000004915153301223955883_);}
	.st426{fill:url(#SVGID_00000164477047410798066780000002135474743968853694_);}
	.st427{fill:url(#SVGID_00000058567739256627368090000003393586993262678916_);}
	.st428{fill:#0C0C0C;}
	.st429{fill:#603914;}
	.st430{fill:#E86821;}
	.st431{fill:#171717;}
	.st432{fill:#663F30;}
	.st433{fill:url(#SVGID_00000101093789061828559360000008991859109199402668_);}
	.st434{fill:url(#SVGID_00000001643282150985516180000004646831286703183259_);}
	.st435{fill:url(#SVGID_00000124847904891712818460000007470694586224839308_);}
	.st436{fill:url(#SVGID_00000013912958289066829670000008430905546684380288_);}
	.st437{fill:url(#SVGID_00000168804071932138745080000004437527491379935920_);}
	.st438{fill:url(#SVGID_00000036248359529487939250000010238529158080471971_);}
	.st439{fill:url(#SVGID_00000052094099117136421160000012849881625578301337_);}
	.st440{fill:url(#SVGID_00000018949223743414979700000008572748232400873900_);}
	.st441{fill:url(#SVGID_00000151526606090357559140000013932308583134167944_);}
	.st442{fill:url(#SVGID_00000068660782207931487420000001964610063502765443_);}
	.st443{fill:url(#SVGID_00000083767912563037913490000015426265923073646779_);}
	.st444{fill:url(#SVGID_00000130621798052630180250000012170878176577167788_);}
	.st445{fill:url(#SVGID_00000034084432268191328360000000669488734235661715_);}
	.st446{fill:url(#SVGID_00000167363244372848276420000010154609866014410405_);}
	.st447{fill:url(#SVGID_00000176747979886413713990000016413355783292510378_);}
	.st448{fill:url(#SVGID_00000141446052008230269310000016573707458887602586_);}
	.st449{fill:url(#SVGID_00000150801453321918081770000005168972496027583897_);}
	.st450{fill:url(#SVGID_00000078021690705462443070000004718219389427544454_);}
	.st451{fill:#B7B7B7;}
	.st452{fill:#112134;}
	.st453{fill:#414042;}
	.st454{fill:#221E20;}
	.st455{fill:#131313;}
	.st456{fill:#202020;}
	.st457{fill:#915E33;}
	.st458{fill:#57391E;}
	.st459{fill:#F39519;}
	.st460{fill:#F4B305;}
	.st461{fill:#C4C3C3;}
	.st462{fill:#A5A4A5;}
	.st463{fill:#888989;}
	.st464{fill:#242424;}
	.st465{fill:#6E4827;}
	.st466{opacity:0.1844;fill:#24222D;}
	.st467{fill:#A0A4BB;}
	.st468{opacity:0.1844;fill:#999AB6;}
	.st469{fill:#D9E3E3;}
	.st470{fill:#FAD5CB;}
	.st471{opacity:0.1844;fill:#24212E;}
	.st472{fill:#844013;}
	.st473{fill:#F8B777;}
	.st474{fill:#3576AB;}
	.st475{fill:#A2A1A1;}
	.st476{fill:#754C29;}
	.st477{fill:#B3DFF1;}
	.st478{fill:#80A5A5;}
	.st479{fill:#EAAE93;}
	.st480{fill:#00657E;}
	.st481{fill:#382E22;}
	.st482{fill:#157288;}
	.st483{fill:#A42916;}
	.st484{fill:#D43216;}
	.st485{fill:#E5A082;}
	.st486{fill:#B23318;}
	.st487{fill:#843E1E;}
	.st488{fill:#EDBEA8;}
	.st489{fill:#E94E49;}
	.st490{fill:#E3E4E3;}
	.st491{fill:#B9B9B9;}
	.st492{fill:#868787;}
	.st493{fill:url(#XMLID_00000149343315493534605800000009297278594772970897_);}
	.st494{fill:#989898;}
	.st495{fill:url(#XMLID_00000124122684095454511270000007403618642287674538_);}
	.st496{fill:#EEECEB;}
	.st497{fill:#D5D5D5;}
	.st498{fill:url(#XMLID_00000094581275984341104110000015755436654239285130_);}
	.st499{fill:url(#XMLID_00000156585076556192837520000006451448225307419551_);}
	.st500{fill:url(#XMLID_00000072281039037354754100000016294731392351081915_);}
	.st501{fill:url(#XMLID_00000172402931410545376200000010629194023861574528_);}
	.st502{fill:url(#XMLID_00000174575199178332352450000017316283990659589556_);}
	.st503{fill:url(#XMLID_00000036234452861397590240000013748789933970458040_);}
	.st504{fill:url(#XMLID_00000019642221583568822670000003734650270426697876_);}
	.st505{fill:url(#XMLID_00000090982911221420954160000009447342888590562953_);}
	.st506{fill:url(#XMLID_00000029011086991560087580000004007331471796236947_);}
	.st507{fill:url(#XMLID_00000171711188659947923240000001660499615999369130_);}
	.st508{fill:url(#XMLID_00000158019375588016345490000002189537238242949016_);}
	.st509{fill:url(#XMLID_00000177467298839763080030000015076180810110461840_);}
	.st510{fill:url(#XMLID_00000029749167163657471170000003132304213326266256_);}
	.st511{fill:url(#XMLID_00000057838680989563967810000008144376367231664267_);}
	.st512{fill:url(#XMLID_00000121238483274443582960000005998523748922180236_);}
	.st513{fill:url(#XMLID_00000098904492980317012640000015930724147145336462_);}
	.st514{fill:url(#XMLID_00000097488314220696808200000000198590892334560147_);}
	.st515{fill:url(#XMLID_00000047034750500338723440000010661851744677195411_);}
	.st516{fill:url(#XMLID_00000085933095883647640770000010098997114215720072_);}
	.st517{fill:url(#XMLID_00000014634093078146074770000006592807108502565044_);}
	.st518{fill:url(#XMLID_00000142888085547907309410000016391428774112350897_);}
	.st519{fill:url(#XMLID_00000087385865272235492610000002710348958191450531_);}
	.st520{fill:url(#XMLID_00000149374128006551272160000009160048402866640007_);}
	.st521{fill:url(#XMLID_00000124866459635200636010000005751230067011401630_);}
	.st522{fill:url(#XMLID_00000150822033285271025760000005685331372860087705_);}
	.st523{fill:url(#XMLID_00000096033932573128353790000014604235309243497657_);}
	.st524{fill:url(#XMLID_00000160167888771893159810000014195446608737257886_);}
	.st525{fill:url(#XMLID_00000052787959935042357150000012738110030570228392_);}
	.st526{fill:url(#XMLID_00000005976489928556882770000008277744815411263408_);}
	.st527{fill:url(#XMLID_00000165194619986725452680000001526575225472416914_);}
	.st528{fill:url(#XMLID_00000031195272588154674940000004481300015134915478_);}
	.st529{fill:url(#XMLID_00000163058958126173390370000000359361062641948607_);}
	.st530{fill:url(#XMLID_00000150795523214867984380000004960547497247012539_);}
	.st531{fill:url(#XMLID_00000052100882535869557690000007342646525122702211_);}
	.st532{fill:url(#XMLID_00000035513424375964968030000005272821564410400182_);}
	.st533{fill:url(#XMLID_00000106868220123031104470000012822084667968692374_);}
	.st534{fill:url(#XMLID_00000098193195686063846330000012927390446743162545_);}
	.st535{fill:url(#XMLID_00000177443625666882359530000005052301705787676592_);}
	.st536{fill:url(#XMLID_00000087406346078108804470000013628194992032191622_);}
	.st537{fill:url(#XMLID_00000091013298518474262390000005323014381226113692_);}
	.st538{fill:url(#XMLID_00000067919876028239574940000017005261179054293682_);}
	.st539{fill:url(#XMLID_00000031915600381257712210000014908972292520913053_);}
	.st540{fill:url(#XMLID_00000129188374284066926790000010577319221978229377_);}
	.st541{fill:url(#XMLID_00000173864510685264297720000016142623793947056791_);}
	.st542{fill:url(#XMLID_00000127741687289400463220000017347744995585386419_);}
	.st543{fill:url(#XMLID_00000132799029113666855140000002347905622162061746_);}
	.st544{fill:url(#XMLID_00000022519294041350942910000004446086523441466811_);}
	.st545{fill:url(#XMLID_00000080166466638394710860000017926636202199375283_);}
	.st546{fill:url(#XMLID_00000083090132332282433870000002475735701974388356_);}
	.st547{fill:url(#XMLID_00000158001556223904596920000008996528832088337322_);}
	.st548{fill:url(#XMLID_00000000944962704458178280000017191714857631406505_);}
	.st549{fill:url(#XMLID_00000160905857574277068200000002097723444061894293_);}
	.st550{fill:url(#XMLID_00000016044304415649997600000014924871764559196574_);}
	.st551{fill:url(#XMLID_00000178175071056426136500000012331131730629201819_);}
	.st552{fill:url(#XMLID_00000054253487185247874690000017416345496599233956_);}
	.st553{fill:url(#XMLID_00000054986920439060093130000000884034200436138391_);}
	.st554{fill:url(#XMLID_00000163770314174454359720000014609641605966783415_);}
	.st555{fill:url(#XMLID_00000146466885248965482010000000580859363827129236_);}
	.st556{fill:url(#XMLID_00000168103951888091565790000018186333807468539041_);}
	.st557{fill:url(#XMLID_00000084490687705506302610000017033959810120401283_);}
	.st558{fill:url(#XMLID_00000078035207803013869730000013431079225828216502_);}
	.st559{fill:url(#XMLID_00000183242853923201644430000014620074732550306726_);}
	.st560{fill:url(#XMLID_00000013902106646957720320000013082399923751288449_);}
	.st561{fill:url(#XMLID_00000145759466989419259220000006851013703927109520_);}
	.st562{fill:url(#XMLID_00000010293917848893966130000005477736382220988048_);}
	.st563{fill:url(#XMLID_00000062174099141353143930000014103649444702820782_);}
	.st564{fill:url(#XMLID_00000076604470409000204550000008852100841360357013_);}
	.st565{fill:url(#XMLID_00000018952439654232939400000008218171344221053351_);}
	.st566{fill:url(#XMLID_00000132807609110052652190000006657957507209140150_);}
	.st567{fill:url(#XMLID_00000147177838898929393580000008686821787539270804_);}
	.st568{fill:url(#XMLID_00000109745215577418694600000002765492842393130630_);}
	.st569{fill:url(#XMLID_00000030467739025411296690000007463038831651719578_);}
	.st570{fill:url(#XMLID_00000083078144043331245970000002339299725509216672_);}
	.st571{fill:url(#XMLID_00000006688849997976598140000002877503058834930344_);}
	.st572{fill:url(#XMLID_00000136369382069418396180000017005764580868842122_);}
	.st573{fill:url(#XMLID_00000081626435220495919900000016639282958569964162_);}
	.st574{fill:url(#XMLID_00000052798475322004342660000001992870413362535298_);}
	.st575{fill:url(#XMLID_00000106865770454112547360000006808713300162803645_);}
	.st576{fill:url(#XMLID_00000084489972050307278820000014100092720050919350_);}
	.st577{fill:url(#XMLID_00000103228993941733480420000016954395384985144207_);}
	.st578{fill:url(#XMLID_00000033346474965558397820000011515642837184926080_);}
	.st579{fill:url(#XMLID_00000043420027616859999860000011817853943797414065_);}
	.st580{fill:url(#XMLID_00000140005212949763233020000003314587402643847327_);}
	.st581{fill:url(#XMLID_00000047742094605128814870000004944465549737269662_);}
	.st582{fill:url(#XMLID_00000106145348936897202580000008014971834814861735_);}
	.st583{fill:url(#XMLID_00000036209560302446039970000010794270525078370949_);}
	.st584{fill:url(#XMLID_00000036252068403887811230000004085962963589924529_);}
	.st585{fill:url(#XMLID_00000052083700701121592940000007642802048014783911_);}
	.st586{fill:url(#XMLID_00000164510909145674549940000017589553696135808933_);}
	.st587{fill:url(#XMLID_00000055684033171138404230000006485185887338742945_);}
	.st588{fill:url(#XMLID_00000008846928238107668870000005958830269622204291_);}
	.st589{fill:url(#XMLID_00000124844272341550475420000011471040486972982972_);}
	.st590{fill:url(#XMLID_00000056425666493253062880000014369860603985197702_);}
	.st591{fill:url(#XMLID_00000116192889210190177000000018238297948844568985_);}
	.st592{fill:url(#XMLID_00000165206396606192996440000004856739223683185306_);}
	.st593{fill:url(#XMLID_00000013185772370804173390000016434534473242118817_);}
	.st594{fill:url(#XMLID_00000116948374963683936920000013701808926629464975_);}
	.st595{fill:url(#XMLID_00000143595581592759202350000016261103708214501769_);}
	.st596{fill:url(#XMLID_00000083767017676439957300000008557601753351985538_);}
	.st597{fill:url(#XMLID_00000018231052161725967460000000359786294666064293_);}
	.st598{fill:#FCFDFF;}
	.st599{fill:#757576;}
	.st600{fill:#D4D3D3;}
	.st601{fill:#E2E4E0;}
	.st602{fill:#B5B4B4;}
	.st603{fill:#908F8A;}
	.st604{fill:#F6F6F5;}
	.st605{fill:#3E4046;}
	.st606{fill:#525557;}
	.st607{fill:#E1E2E2;}
	.st608{fill:#E8E9EA;}
	.st609{fill:#2B2E35;}
	.st610{fill:#64666B;}
	.st611{fill:url(#XMLID_00000042003301544461480910000013700526984250292877_);}
	.st612{fill:#F0F0F0;}
	.st613{fill:#757779;}
	.st614{fill:#191B22;}
	.st615{fill:#14181E;}
	.st616{fill:#11141A;}
	.st617{fill:#DAEBE7;}
	.st618{fill:#7F8082;}
	.st619{fill:#A7B3B4;}
	.st620{fill:#3C575C;}
	.st621{fill:#CED6D6;}
	.st622{fill:#1A3A66;}
	.st623{fill:#2887C4;}
	.st624{fill:#66C3D8;}
	.st625{fill:#07282F;}
	.st626{fill:#8B9B9D;}
	.st627{fill:#72888C;}
	.st628{fill:#7F1710;}
	.st629{fill:#C3253D;}
	.st630{fill:#D9648A;}
	.st631{fill:#A24817;}
	.st632{fill:#DAA802;}
	.st633{fill:#EEB219;}
	.st634{fill:#424242;}
	.st635{fill:#474646;}
	.st636{fill:#AAB545;}
	.st637{fill:#C17D11;}
	.st638{fill:#CACCD2;}
	.st639{fill:#B6BCC6;}
	.st640{fill:#353842;}
	.st641{fill:#585C64;}
	.st642{fill:#454852;}
	.st643{fill:#62656C;}
	.st644{fill:#72757B;}
	.st645{fill:#3A3D42;}
	.st646{fill:#494D53;}
	.st647{fill:#161A24;}
	.st648{fill:#4C4F58;}
	.st649{fill:#666970;}
	.st650{fill:#7F7F83;}
	.st651{fill:#383C40;}
	.st652{fill:#1E222B;}
	.st653{fill:url(#XMLID_00000124880762737783480130000008671727431025520799_);}
	.st654{fill:#3D4049;}
	.st655{fill:url(#XMLID_00000128478034263066084610000010865611297155441578_);}
	.st656{fill:#30333C;}
	.st657{fill:#474D57;}
	.st658{fill:#75787F;}
	.st659{fill:#2F7E9D;}
	.st660{fill:#6DC0B2;}
	.st661{fill:url(#XMLID_00000137820163823493754200000005733570343582142084_);}
	.st662{fill:#F1F8FA;}
	.st663{fill:url(#XMLID_00000150092684933122805600000012877555054424466859_);}
	.st664{fill:url(#XMLID_00000070105816872853865010000002617762971334140601_);}
	.st665{fill:#ECF6F9;}
	.st666{fill:url(#XMLID_00000006677449747412946310000015134033924424338312_);}
	.st667{fill:url(#XMLID_00000133502086833792509110000015074525005773102780_);}
	.st668{fill:#CFE4F1;}
	.st669{fill:#DADADA;}
	.st670{fill:#D32D16;}
	.st671{fill:#176581;}
	.st672{fill:#9ED1F2;}
	.st673{fill:#1B222D;}
	.st674{fill:#EBE9EA;}
	.st675{fill:#C9CED5;}
	.st676{fill:#E1E0E0;}
	.st677{fill:#E7E6E6;}
	.st678{fill:#E8E7E7;}
	.st679{fill:#BFCBDD;}
	.st680{fill:#9D958F;}
	.st681{fill:#FFDC04;}
	.st682{fill:#B21828;}
	.st683{fill:#D8408F;}
	.st684{fill:#574997;}
	.st685{fill:#356AB1;}
	.st686{fill:#45B3E7;}
	.st687{fill:#2D8A36;}
	.st688{fill:#D0CFD0;}
	.st689{fill:#98A88B;}
	.st690{fill:#F8E825;}
	.st691{fill:#CB1333;}
	.st692{fill:url(#XMLID_00000041253129706821611340000003159495001754977952_);}
	.st693{fill:#0B0E18;}
	.st694{fill:#40424A;}
	.st695{fill:url(#XMLID_00000108269375441972173710000006948945584823842457_);}
	.st696{fill:#71757D;}
	.st697{fill:#C2C2C4;}
	.st698{fill:url(#XMLID_00000071526910603402706130000012478546059618375338_);}
	.st699{fill:#9DA094;}
	.st700{fill:#D4D4D4;}
	.st701{fill:url(#XMLID_00000160889472288153068840000001483791509302674309_);}
	.st702{fill:url(#XMLID_00000090287478398022413460000018209186997257839751_);}
	.st703{fill:#E8E8E8;}
	.st704{fill:#15120B;}
	.st705{fill:#4C4842;}
	.st706{fill:#74AEDF;}
	.st707{fill:#413D3F;}
	.st708{fill:#48494A;}
	.st709{fill:#080504;}
	.st710{fill:#4E4D4D;}
	.st711{fill:#A1A0A0;}
	.st712{fill:#FBEEF5;}
	.st713{fill:#BFBEBE;}
	.st714{fill:#015A64;}
	.st715{fill:#B81818;}
	.st716{fill:#8C811D;}
	.st717{fill:#03709B;}
	.st718{fill:#E74B1E;}
	.st719{fill:#F2B000;}
	.st720{fill:#E33335;}
	.st721{fill:#F8F09C;}
	.st722{fill:#FAEF81;}
	.st723{fill:#E7A8CB;}
	.st724{fill:#CD90BE;}
	.st725{fill:#847A73;}
	.st726{fill:#CCCBCB;}
	.st727{fill:#EDECEC;}
	.st728{fill:#9D9D9D;}
	.st729{fill:#EFEFEF;}
	.st730{fill:#4F525A;}
	.st731{fill:#E15C48;}
	.st732{fill:url(#XMLID_00000132780791353478670890000008117139970414093982_);}
	.st733{fill:url(#XMLID_00000059996222745804505940000017688358992873263762_);}
	.st734{fill:url(#XMLID_00000149367145918570234440000010246310922439444362_);}
	.st735{fill:url(#XMLID_00000004532872732858794950000010233459713490787201_);}
	.st736{fill:url(#XMLID_00000072273370193863643400000007729035051682798509_);}
	.st737{fill:#9E9D9D;}
	.st738{fill:#9DCBEF;}
	.st739{fill:#010000;}
	.st740{fill:url(#SVGID_00000133516304082659168510000006696191862102209180_);}
	.st741{fill:url(#SVGID_00000074406163211329719090000000160656975496399005_);}
	.st742{fill:url(#SVGID_00000129192362924419890820000001599943470710036866_);}
	.st743{fill:#D2D2D2;}
	.st744{fill:#232C35;}
	.st745{fill:#E39470;}
	.st746{fill:url(#XMLID_00000101802649630251931630000007994969276449743244_);}
	.st747{fill:#9DA6AC;}
	.st748{fill:#72979F;}
	.st749{fill:#96A1AB;}
	.st750{fill:#5F7887;}
	.st751{fill:#CC1B31;}
	.st752{fill:url(#XMLID_00000160868769420083277320000000205290559165086395_);}
	.st753{fill:url(#XMLID_00000000943289898263609180000018033674223892448169_);}
	.st754{fill:url(#XMLID_00000114049802988110397140000007533486089809392816_);}
	.st755{fill:#C0C4B6;}
	.st756{fill:#CEE8EC;}
	.st757{fill:url(#XMLID_00000168808961913848093170000018129839298412136348_);}
	.st758{fill:url(#XMLID_00000137125345065172633140000002057622048572617653_);}
	.st759{fill:#384C5A;}
	.st760{fill:url(#XMLID_00000092427434630233437210000008867596936905915043_);}
	.st761{fill:#ED9E02;}
	.st762{fill:#FFE253;}
	.st763{fill:#F7C318;}
	.st764{fill:#DDB988;}
	.st765{fill:#D2A37C;}
	.st766{fill:#C98666;}
	.st767{fill:#2C7EAE;}
	.st768{fill:#A61916;}
	.st769{fill:#E6704B;}
	.st770{fill:#DF3118;}
	.st771{fill:#00648A;}
	.st772{fill:#4CB0E4;}
	.st773{fill:#2178BD;}
	.st774{fill:#058A38;}
	.st775{fill:#6EB761;}
	.st776{fill:#4DAD3C;}
	.st777{fill:#283373;}
	.st778{fill:#4A60A8;}
	.st779{fill:#274394;}
	.st780{fill:#49267F;}
	.st781{fill:#7C559E;}
	.st782{fill:#693D8F;}
	.st783{fill:#871D6C;}
	.st784{fill:#C5569A;}
	.st785{fill:#CA1781;}
	.st786{fill:#2D1B1B;}
	.st787{fill:#8A5655;}
	.st788{fill:#734748;}
	.st789{fill:url(#XMLID_00000059308263804163129860000014565550323365758643_);}
	.st790{fill:#A3B5D1;}
	.st791{fill:#04559C;}
</style>
<g>
	<g>
		<path class="st0" d="M178.78,67.48c-57.12,7.53-114.98,7.53-172.1,0C3,66.97,0,63.53,0,59.86C0,44.33,0,28.8,0,13.27
			C0,9.6,3,6.16,6.67,5.65c57.12-7.53,114.98-7.53,172.1,0c3.67,0.51,6.67,3.95,6.67,7.62c0,15.53,0,31.06,0,46.59
			C185.45,63.53,182.45,66.97,178.78,67.48z"/>
	</g>
	<g>
		<path class="st36" d="M139.32,49.27c-0.16-0.39-0.41-0.75-0.75-1.07c-0.53-0.49-1.19-0.86-1.98-1.13
			c-0.78-0.26-1.79-0.39-2.69-0.39c-0.01,0-0.02,0-0.04,0c-0.01,0-0.02,0-0.04,0c-0.9,0-1.9,0.13-2.69,0.39
			c-0.78,0.26-1.44,0.64-1.97,1.13c-0.35,0.32-0.6,0.67-0.75,1.07c-0.12,0.28-0.21,0.62-0.24,1.01v2.85
			c0.03,0.39,0.13,0.73,0.24,1.01c0.16,0.39,0.41,0.75,0.75,1.07c0.53,0.49,1.19,0.86,1.97,1.12c0.78,0.26,1.79,0.39,2.69,0.39h2.34
			V56.7h3.39v-6.43C139.53,49.89,139.43,49.55,139.32,49.27 M135.8,54.31c-1.94,0-1.96,0.01-1.98,0.01c-0.51,0-1.09-0.11-1.42-0.35
			c-0.32-0.23-0.49-0.53-0.49-0.9v-1.77v-0.95c0-0.37,0.16-0.67,0.49-0.9c0.33-0.24,0.91-0.35,1.42-0.35c0.01,0,0.02,0,0.02,0v0
			c0,0,0.01,0,0.01,0c0.01,0,0.02,0,0.02,0v0c0.01,0,0.01,0,0.01,0c0.52,0,1.1,0.11,1.43,0.35c0.32,0.23,0.48,0.53,0.48,0.9V54.31z
			 M108.15,49.27c-0.16-0.39-0.41-0.75-0.76-1.07c-0.53-0.49-1.19-0.86-1.97-1.13c-0.78-0.26-1.79-0.39-2.69-0.39
			c-0.01,0-0.03,0-0.04,0c-0.01,0-0.03,0-0.04,0c-0.9,0-1.9,0.13-2.69,0.39c-0.78,0.26-1.44,0.64-1.97,1.13
			c-0.35,0.32-0.59,0.67-0.75,1.07c-0.12,0.28-0.22,0.62-0.24,1.01v10.93h3.84v-4.49h1.89c0.9,0,1.9-0.13,2.69-0.39
			c0.78-0.26,1.44-0.64,1.97-1.12c0.35-0.32,0.6-0.67,0.76-1.07c0.12-0.28,0.21-0.63,0.24-1.01v-2.85
			C108.37,49.89,108.27,49.55,108.15,49.27 M104.64,51.29L104.64,51.29v1.77c0,0.37-0.16,0.67-0.48,0.9
			c-0.32,0.24-0.91,0.35-1.42,0.35c-0.02,0-0.12,0-1.98-0.01v-3.73v-0.23c0-0.37,0.16-0.67,0.48-0.9c0.33-0.24,0.91-0.35,1.42-0.35
			c0.01,0,0.01,0,0.02,0v0c0.01,0,0.01,0,0.02,0c0.01,0,0.01,0,0.02,0v0c0.01,0,0.01,0,0.02,0c0.51,0,1.09,0.11,1.42,0.35
			c0.32,0.23,0.48,0.53,0.48,0.9V51.29z M123.64,49.27c-0.16-0.39-0.41-0.75-0.75-1.07c-0.53-0.49-1.19-0.86-1.97-1.13
			c-0.78-0.26-1.79-0.39-2.69-0.39c-0.02,0-0.03,0-0.04,0c-0.01,0-0.02,0-0.04,0c-0.62,0-1.29,0.06-1.9,0.19v-4.44h-3.75V56.7h3.75
			v-6.36c0-0.37,0.16-0.67,0.48-0.9c0.33-0.24,0.91-0.35,1.42-0.35c0,0,0.01,0,0.02,0v0c0.01,0,0.01,0,0.02,0c0.01,0,0.01,0,0.02,0
			v0c0.01,0,0.01,0,0.02,0c0.51,0,1.09,0.11,1.42,0.35c0.32,0.23,0.49,0.53,0.49,0.9v6.36h3.75v-6.43
			C123.86,49.89,123.76,49.55,123.64,49.27 M146.77,47.08c-0.78,0.26-1.44,0.64-1.97,1.13c-0.35,0.32-0.6,0.67-0.75,1.07
			c-0.12,0.28-0.19,0.62-0.22,1.01h-0.02l0.01,6.43h3.75v-6.36c0-0.37,0.16-0.67,0.48-0.9c0.33-0.24,0.91-0.35,1.42-0.35
			c0.02,0,0.03,0,0.05,0v-2.41c-0.02,0-0.04,0-0.05,0C148.56,46.68,147.55,46.81,146.77,47.08 M170.47,49.27
			c-0.16-0.39-0.41-0.75-0.76-1.07c-0.53-0.49-1.19-0.86-1.97-1.13c-0.78-0.26-1.79-0.39-2.69-0.39c-0.01,0-0.03,0-0.04,0
			c-0.01,0-0.02,0-0.04,0c-0.9,0-1.9,0.13-2.69,0.39c-0.4,0.14-0.77,0.3-1.1,0.49c-0.34-0.19-0.7-0.36-1.1-0.49
			c-0.78-0.26-1.79-0.39-2.68-0.39c-0.01,0-0.03,0-0.04,0c-0.01,0-0.02,0-0.04,0c-0.9,0-1.9,0.13-2.69,0.39
			c-0.78,0.26-1.44,0.64-1.97,1.13c-0.35,0.32-0.6,0.67-0.76,1.07c-0.12,0.28-0.21,0.62-0.24,1.01v1.84v4.59h3.75v-4.59v-1.77
			c0-0.37,0.16-0.67,0.48-0.9c0.33-0.24,0.91-0.35,1.42-0.35c0.01,0,0.01,0,0.02,0v0c0.01,0,0.01,0,0.02,0c0.01,0,0.01,0,0.02,0v0
			c0.01,0,0.01,0,0.01,0c0.52,0,1.1,0.11,1.43,0.35c0.32,0.23,0.48,0.53,0.48,0.9v6.36h0.03v0h3.75v-6.36c0-0.37,0.17-0.67,0.48-0.9
			c0.32-0.24,0.91-0.35,1.42-0.35c0,0,0.01,0,0.02,0v0c0.01,0,0.01,0,0.02,0c0.01,0,0.01,0,0.02,0v0c0.01,0,0.01,0,0.02,0
			c0.51,0,1.09,0.11,1.42,0.35c0.32,0.23,0.49,0.53,0.49,0.9v6.36h3.75v-6.43C170.69,49.89,170.59,49.55,170.47,49.27 M135.9,26.86
			c-1.95,0-1.96,0-1.98,0c-0.51,0-1.09-0.11-1.42-0.35c-0.32-0.23-0.48-0.53-0.48-0.9v-1.77V22.9c0-0.37,0.16-0.67,0.48-0.9
			c0.33-0.24,0.91-0.35,1.42-0.35c0,0,0.01,0,0.02,0v0c0.01,0,0.01,0,0.02,0c0.01,0,0.01,0,0.01,0l0.01,0c0.01,0,0.01,0,0.01,0
			c0.52,0,1.1,0.11,1.43,0.35c0.32,0.23,0.48,0.53,0.48,0.9V26.86z M76.16,31.46c0.35-0.32,0.59-0.68,0.75-1.07
			c0.12-0.28,0.19-0.62,0.22-1.01h0.02v-7.31H73.4v7.24c0,0.37-0.16,0.67-0.48,0.9c-0.26,0.19-0.69,0.3-1.12,0.34v-0.04
			c-0.02,0-0.03,0-0.05,0c-0.9,0-1.9,0.13-2.69,0.39c-0.78,0.26-1.44,0.64-1.97,1.12c-0.3,0.28-0.52,0.58-0.68,0.91h5.03
			c0,0,0.01,0,0.01,0v0.04c0.02,0,0.03,0,0.05,0c0.9,0,1.9-0.13,2.69-0.39C74.97,32.32,75.62,31.94,76.16,31.46 M81.42,26.68
			c0.16,0.39,0.41,0.75,0.76,1.07c0.53,0.49,1.19,0.86,1.98,1.12c0.69,0.24,1.57,0.36,2.38,0.39v0h0.23c0.02,0,0.04,0,0.07,0
			c0.02,0,0.04,0,0.06,0c12.17,0,31.39,0,31.41,0c0.9,0,1.9-0.13,2.69-0.39c0.78-0.26,1.44-0.64,1.97-1.12
			c0.35-0.32,0.6-0.67,0.76-1.07c0.12-0.28,0.19-0.62,0.22-1.01h0.02v-1.56h0.02v-1.27h-0.02c-0.03-0.39-0.1-0.73-0.22-1.01
			c-0.16-0.39-0.41-0.75-0.76-1.07c-0.53-0.49-1.19-0.86-1.97-1.12c-0.78-0.27-1.79-0.39-2.69-0.39c-0.01,0-0.03,0-0.03,0
			c-0.01,0-0.02,0-0.04,0c-0.9,0-1.9,0.13-2.69,0.39c-0.78,0.26-1.44,0.64-1.97,1.12c-0.35,0.32-0.6,0.67-0.75,1.07
			c-0.12,0.28-0.19,0.63-0.22,1.01h-0.02v0.08h0.02c0.03,0.39,0.1,0.72,0.22,1.01c0.16,0.39,0.41,0.75,0.75,1.07
			c0.53,0.49,1.19,0.86,1.97,1.12c0.78,0.26,1.79,0.39,2.69,0.39c0.02,0,0.03,0,1.47,0c-0.33,0.24-0.91,0.35-1.41,0.35
			c-0.02,0-19.24,0-31.41,0h-0.17c-0.48-0.02-1-0.13-1.3-0.35c-0.32-0.23-0.48-0.53-0.48-0.9v-9.11h-3.75v9.18h0.02
			C81.23,26.05,81.3,26.39,81.42,26.68 M118.24,24.09c-0.51,0-1.09-0.11-1.42-0.35c-0.31-0.22-0.47-0.51-0.48-0.87
			c0.01-0.36,0.17-0.64,0.48-0.87c0.32-0.24,0.91-0.35,1.42-0.35c0.01,0,0.02,0,0.02,0v0c0,0,0.01,0,0.02,0c0.01,0,0.01,0,0.02,0v0
			c0.01,0,0.01,0,0.01,0c0.52,0,1.1,0.11,1.43,0.35c0.32,0.23,0.48,0.53,0.48,0.9v1.16h-0.02v0.03
			C118.28,24.09,118.26,24.09,118.24,24.09 M73.56,56.69h3.73v-10h-3.73V56.69z M92.48,49.27c-0.16-0.39-0.41-0.75-0.75-1.07
			c-0.53-0.49-1.19-0.86-1.97-1.13c-0.78-0.26-1.79-0.39-2.69-0.39c-0.01,0-0.02,0-0.03,0c-0.01,0-0.02,0-0.02,0
			c-0.91,0-1.91,0.13-2.7,0.39c-0.79,0.26-1.44,0.64-1.97,1.13c-0.35,0.32-0.6,0.67-0.75,1.07c-0.11,0.28-0.21,0.62-0.24,1.01v2.85
			c0.03,0.39,0.13,0.73,0.24,1.01c0.16,0.39,0.41,0.75,0.75,1.07c0.53,0.49,1.19,0.86,1.97,1.12c0.78,0.26,1.79,0.39,2.69,0.39h0.03
			h0.03c0.9,0,1.9-0.13,2.69-0.39c0.78-0.26,1.44-0.64,1.97-1.12c0.35-0.32,0.6-0.67,0.76-1.07c0.12-0.28,0.21-0.63,0.24-1.01v-1.45
			v-1.4C92.7,49.89,92.6,49.55,92.48,49.27 M88.97,51.68L88.97,51.68v1.38c0,0.37-0.16,0.67-0.48,0.9
			c-0.33,0.24-0.91,0.35-1.42,0.35c0,0-0.01,0-0.01,0l0,0c-0.01,0-0.01,0-0.02,0c0,0-0.01,0-0.02,0v0l-0.01,0
			c-0.51,0-1.09-0.11-1.42-0.35c-0.32-0.23-0.48-0.53-0.48-0.9v-1.38v-1.33c0-0.37,0.16-0.67,0.48-0.9
			c0.33-0.24,0.91-0.35,1.42-0.35h0.01v0c0.01,0,0.02,0,0.02,0c0.01,0,0.01,0,0.02,0v0h0.01c0.51,0,1.09,0.11,1.42,0.35
			c0.32,0.23,0.48,0.53,0.48,0.9V51.68z M69.08,51.13c-0.16-0.47-0.42-0.89-0.77-1.27c-0.41-0.44-0.89-0.8-1.45-1.08
			c0.21-0.29,0.37-0.59,0.48-0.92c0.12-0.34,0.2-0.74,0.22-1.2v-0.09c-0.03-0.46-0.1-0.87-0.22-1.2c-0.16-0.47-0.42-0.89-0.77-1.27
			c-0.54-0.58-1.22-1.03-2.02-1.34c-0.8-0.32-1.83-0.47-2.75-0.47c-0.01,0-0.02,0-0.04,0c-0.01,0-0.02,0-0.04,0
			c-0.92,0-1.95,0.15-2.75,0.47c-0.8,0.31-1.48,0.76-2.02,1.34c-0.35,0.38-0.61,0.8-0.77,1.27c-0.12,0.34-0.22,0.74-0.25,1.2v10.13
			h3.45v0.01h4.15c0.92,0,1.95-0.15,2.75-0.47c0.8-0.31,1.48-0.76,2.02-1.34c0.35-0.38,0.61-0.8,0.77-1.27
			c0.12-0.34,0.19-0.74,0.22-1.2v-0.09C69.27,51.87,69.2,51.46,69.08,51.13 M64.98,53.41c-0.33,0.28-0.93,0.42-1.45,0.42
			c-0.02,0-0.04,0-3.76-0.01v-7.18c0-0.44,0.17-0.8,0.5-1.07c0.33-0.28,0.93-0.42,1.45-0.42l0.02,0v0l0.02,0c0.01,0,0.01,0,0.02,0v0
			l0.02,0c0.52,0,1.12,0.14,1.46,0.42c0.32,0.27,0.48,0.61,0.49,1.03c-0.01,0.43-0.17,0.77-0.49,1.04
			c-0.29,0.25-0.78,0.38-1.25,0.41h-0.25v0.01c-0.02,0-0.06,0-0.14,0v2.88h0.18c0.08,0,0.17,0,0.25-0.01c1.45,0,1.47,0,1.49,0
			c0.52,0,1.12,0.14,1.45,0.42c0.32,0.27,0.49,0.61,0.49,1.04C65.47,52.8,65.3,53.15,64.98,53.41 M75.43,42.14
			c-1.05,0-1.9,0.85-1.9,1.9c0,1.05,0.85,1.9,1.9,1.9c1.05,0,1.9-0.85,1.9-1.9C77.33,42.99,76.48,42.14,75.43,42.14 M118.28,18.31
			c1.05,0,1.9-0.85,1.9-1.9c0-1.05-0.85-1.9-1.9-1.9c-1.05,0-1.9,0.85-1.9,1.9C116.38,17.46,117.23,18.31,118.28,18.31
			 M162.26,33.23c0.34,0.48,0.91,0.79,1.54,0.79c1.05,0,1.9-0.85,1.9-1.9c0-1.05-0.85-1.9-1.9-1.9c-0.64,0-1.2,0.31-1.54,0.79
			c-0.34-0.48-0.91-0.79-1.55-0.79c-1.05,0-1.9,0.85-1.9,1.9c0,1.05,0.85,1.9,1.9,1.9C161.35,34.02,161.91,33.71,162.26,33.23
			 M170.65,32.12c0-1.05-0.85-1.9-1.9-1.9c-1.05,0-1.9,0.85-1.9,1.9c0,1.05,0.85,1.9,1.9,1.9C169.8,34.02,170.65,33.17,170.65,32.12
			 M134,32.92c0.9,0,1.9-0.14,2.68-0.4c0.79-0.26,1.44-0.64,1.97-1.12c0.35-0.32,0.6-0.67,0.76-1.07c0.11-0.28,0.19-0.62,0.22-1.01
			h0.02v-0.04c16.88,0,17.74,0,17.75,0c0.9,0,1.9-0.13,2.69-0.39c0.38-0.13,0.72-0.28,1.04-0.46c0.37,0.23,0.78,0.42,1.23,0.57
			c0.78,0.26,1.79,0.39,2.69,0.39c0.01,0,0.03,0,0.04,0c0.01,0,0.02,0,0.03,0c0.9,0,1.91-0.13,2.69-0.39
			c0.78-0.26,1.44-0.64,1.97-1.12c0.35-0.32,0.6-0.67,0.76-1.07c0.11-0.28,0.19-0.62,0.22-1.01h0.02v-6.42h-3.75v6.36
			c0,0.37-0.17,0.67-0.49,0.9c-0.32,0.24-0.91,0.35-1.42,0.35l-0.02,0v0c0,0-0.01,0-0.02,0l-0.02,0v0c-0.01,0-0.01,0-0.02,0
			c-0.51,0-1.09-0.11-1.42-0.35c-0.32-0.23-0.48-0.53-0.48-0.9v-1.77h-0.01v-4.59h-0.08v-0.11h-3.76v6.36c0,0.37-0.16,0.67-0.48,0.9
			c-0.33,0.24-0.91,0.35-1.42,0.35c-0.02,0-0.87,0-17.75,0v-4.03h-0.02c-0.03-0.39-0.1-0.73-0.22-1.01
			c-0.16-0.39-0.41-0.75-0.76-1.07c-0.53-0.49-1.19-0.86-1.97-1.12c-0.78-0.27-1.79-0.39-2.69-0.39c0,0-0.02,0-0.04,0
			c-0.01,0-0.02,0-0.04,0c-0.9,0-1.9,0.13-2.69,0.39c-0.78,0.26-1.44,0.64-1.97,1.12c-0.35,0.32-0.6,0.67-0.76,1.07
			c-0.12,0.28-0.19,0.63-0.22,1.01h-0.02v2.85h0.02c0.03,0.39,0.1,0.73,0.22,1.01c0.16,0.39,0.41,0.75,0.76,1.07
			c0.53,0.49,1.19,0.86,1.97,1.12c0.78,0.26,1.79,0.39,2.69,0.39c0.02,0,0.03,0,1.98,0c-0.01,0.36-0.17,0.65-0.48,0.87
			c-0.33,0.24-0.91,0.35-1.42,0.35h-0.12c-0.9,0-1.9,0.14-2.69,0.4c-0.78,0.26-1.44,0.64-1.98,1.12c-0.3,0.28-0.52,0.58-0.68,0.91
			C128.54,32.94,133.98,32.92,134,32.92 M58.73,32.9c0.78-0.26,1.44-0.64,1.97-1.12c0.35-0.32,0.6-0.67,0.76-1.07
			c0.11-0.28,0.19-0.62,0.22-1.01h0.02v-0.43c2,0,2.02,0,2.04,0c0.9,0,1.9-0.13,2.69-0.39c0.78-0.26,1.44-0.64,1.97-1.12
			c0.34-0.32,0.6-0.67,0.76-1.07c0.11-0.28,0.19-0.62,0.22-1.01h0.02v-2.85h-0.02c-0.03-0.39-0.1-0.73-0.22-1.01
			c-0.16-0.39-0.41-0.75-0.76-1.07c-0.53-0.49-1.19-0.86-1.97-1.12c-0.78-0.27-1.79-0.39-2.69-0.39c-0.01,0-0.03,0-0.04,0
			c-0.01,0-0.02,0-0.04,0c-0.9,0-1.9,0.13-2.69,0.39c-0.78,0.26-1.44,0.64-1.97,1.12c-0.35,0.32-0.6,0.67-0.76,1.07
			c-0.11,0.28-0.19,0.63-0.22,1.01H58v0.44h-0.06v7.21l-0.2-0.03c-1.05,0-1.9,1.43-1.9,2.48l0.07,0.06h2.37L58.73,32.9z M61.76,22.9
			c0-0.37,0.16-0.67,0.48-0.9c0.33-0.24,0.91-0.35,1.42-0.35c0.01,0,0.01,0,0.02,0v0c0,0,0.01,0,0.02,0c0.01,0,0.01,0,0.01,0l0.01,0
			c0.01,0,0.01,0,0.02,0c0.51,0,1.09,0.11,1.42,0.35c0.32,0.23,0.48,0.53,0.48,0.9v0.95v1.77c0,0.37-0.16,0.67-0.48,0.9
			c-0.33,0.24-0.91,0.35-1.42,0.35c-0.02,0-0.04,0-1.98,0V22.9z"/>
		<path class="st36" d="M33.15,25.33v-8.76h-5.75v8.76c-5.03,1.28-8.75,5.84-8.75,11.26c0,6.42,5.2,11.62,11.62,11.62
			c6.42,0,11.62-5.2,11.62-11.62C41.9,31.17,38.18,26.61,33.15,25.33"/>
		<path class="st36" d="M44.75,36.57c0,0.02,0,0.05,0,0.07c0,8.01-6.49,14.5-14.5,14.5c-8.01,0-14.5-6.49-14.5-14.5
			c0-0.02,0-0.05,0-0.07h-5.51c0,0.02,0,0.05,0,0.07c0,11.05,8.96,20.01,20.01,20.01c11.05,0,20.01-8.96,20.01-20.01
			c0-0.02,0-0.05,0-0.07H44.75z"/>
	</g>
</g>
</svg>
