<?xml version="1.0" encoding="utf-8"?>
<!-- Generator: Adobe Illustrator 26.0.2, SVG Export Plug-In . SVG Version: 6.00 Build 0)  -->
<svg version="1.1" id="Calque_1" xmlns="http://www.w3.org/2000/svg" xmlns:xlink="http://www.w3.org/1999/xlink" x="0px" y="0px"
	 viewBox="0 0 61.18 64.33" style="enable-background:new 0 0 61.18 64.33;" xml:space="preserve">
<style type="text/css">
	.st0{fill:#FFFFFF;}
	.st1{opacity:0.35;fill:url(#SVGID_1_);}
	.st2{opacity:0.35;}
	.st3{opacity:0.25;fill:url(#SVGID_00000178197111794299156590000004007663985194200197_);}
	.st4{opacity:0.27;fill:url(#SVGID_00000179604150104320037700000003589759906316489863_);}
	.st5{opacity:0.17;fill:url(#SVGID_00000081639359520208662840000001832667585458186427_);}
	.st6{opacity:0.62;fill:url(#SVGID_00000023272073332603302480000009140448580171076534_);}
	.st7{opacity:0.37;fill:url(#SVGID_00000049916346172538162520000014389346148963814821_);}
	.st8{opacity:0.47;fill:url(#SVGID_00000088848577170143062530000011055352878874404773_);}
	.st9{opacity:0.47;fill:url(#SVGID_00000029742878156388236910000017089767924443928722_);}
	.st10{opacity:0.47;fill:url(#SVGID_00000088817530187950849360000007423921006476331186_);}
	.st11{opacity:0.48;fill:url(#SVGID_00000178168878201005754780000000663880202222389681_);}
	.st12{opacity:0.48;fill:url(#SVGID_00000041258305172898473620000004565897091510889115_);}
	.st13{opacity:0.4;fill:url(#SVGID_00000087376310581506178060000001327290121787868300_);}
	.st14{fill:#3A63A4;}
	.st15{fill:#CCD35F;}
	.st16{fill:#4B4392;}
	.st17{fill:#2CA696;}
	.st18{fill:#D71158;}
	.st19{fill:#F9BB5A;}
	.st20{fill:#EFB349;}
	.st21{fill:#EC6C44;}
	.st22{fill:#25B1A2;}
	.st23{fill:#CB3580;}
	.st24{fill:#F8DC91;}
	.st25{fill:#C2367E;}
	.st26{fill:#289BB9;}
	.st27{fill:#CC1640;}
	.st28{fill:#4069A8;}
	.st29{fill:#EF8054;}
	.st30{fill:#1B9361;}
	.st31{fill:#1E9CC0;}
	.st32{fill:#8E4794;}
	.st33{fill:#F9B958;}
	.st34{fill:#DF0C1A;}
	.st35{fill:#002D74;}
	.st36{fill:#0069A8;}
	.st37{fill:#15A3DD;}
	.st38{fill:#19A3DD;}
	.st39{fill-rule:evenodd;clip-rule:evenodd;fill:#4AA334;}
	.st40{fill-rule:evenodd;clip-rule:evenodd;fill:#FFFFFF;}
	.st41{fill:#263780;}
	.st42{fill:url(#SVGID_00000090259765144609274310000005358216752542727319_);}
	.st43{fill:url(#SVGID_00000150808146610922654730000013383850296894281126_);}
	.st44{fill:url(#SVGID_00000139990813500886137020000002779482047114847398_);}
	.st45{fill:url(#SVGID_00000003079437802363972190000009682682410616161469_);}
	.st46{fill:url(#SVGID_00000031176512206459932410000015763301827802693017_);}
	.st47{fill:url(#SVGID_00000171710438291511432890000006238067057077818295_);}
	.st48{fill:#AFB6BD;}
	.st49{fill:#31295C;}
	.st50{fill:url(#SVGID_00000066511300845762582190000015908938559452850593_);}
	.st51{fill:url(#SVGID_00000060030195840501798500000010146591802087903396_);}
	.st52{fill:url(#SVGID_00000050652821360859464190000000836000302204486576_);}
	.st53{fill:url(#SVGID_00000096021544728329676070000013832330889667624349_);}
	.st54{fill:url(#SVGID_00000109021053941876204090000001896853681747254667_);}
	.st55{fill:url(#SVGID_00000117674231420890226240000013368814019138089610_);}
	.st56{fill:url(#SVGID_00000151501970756619489860000000424518119125902507_);}
	.st57{fill:url(#SVGID_00000032648113279602284430000018137767897620273025_);}
	.st58{fill:url(#SVGID_00000145038792404711421180000012865565806208987582_);}
	.st59{fill:url(#SVGID_00000059267554767336527400000010687389522884104881_);}
	.st60{fill:url(#SVGID_00000002362003379368160620000004694957015289503917_);}
	.st61{fill:url(#SVGID_00000035504729986529596100000005012025552217429673_);}
	.st62{fill:url(#SVGID_00000150813445131261536250000009328580602737397901_);}
	.st63{fill:url(#SVGID_00000006704263005474279670000010410056115918222006_);}
	.st64{fill:#312782;}
	.st65{fill:#6461A8;}
	.st66{fill:#747473;}
	.st67{fill:#CAC9C9;}
	.st68{fill-rule:evenodd;clip-rule:evenodd;fill:#D81A16;stroke:#1D1D1B;stroke-width:0.25;stroke-miterlimit:10;}
	.st69{fill:none;stroke:#1D1D1B;stroke-width:0.25;stroke-miterlimit:10;}
	.st70{fill:#12110C;}
	.st71{fill:#1D1D1B;}
	.st72{fill:#EF8328;}
	.st73{fill:url(#SVGID_00000169558046816397474280000016525359766321926846_);}
	.st74{fill:url(#SVGID_00000048470889466857577910000003646740917162765241_);}
	.st75{fill:url(#SVGID_00000006704433084048262280000014430690785851522186_);}
	.st76{fill:url(#SVGID_00000088818259491092629290000004954461422502130068_);}
	.st77{opacity:0.6;}
	.st78{fill:url(#SVGID_00000012469604371801906370000011111457397783433351_);}
	.st79{fill:url(#SVGID_00000030474334945946531320000016648509701732717757_);}
	.st80{fill:url(#SVGID_00000000905646387136093520000016365984771766752446_);}
	.st81{fill:url(#SVGID_00000166648394503196937040000007229305823990355887_);}
	.st82{fill:url(#SVGID_00000001644575734500031800000014255520941047177881_);}
	.st83{fill:url(#SVGID_00000021089853633170692020000014115744826147741871_);}
	.st84{fill:url(#SVGID_00000065065419471417258490000003976947425098135196_);}
	.st85{fill:url(#SVGID_00000026137439002002803960000002041667874164397463_);}
	.st86{fill:url(#SVGID_00000129903386721194805810000003014356693005232830_);}
	.st87{fill:url(#SVGID_00000127739950970783964560000003639140467528121262_);}
	.st88{fill:url(#SVGID_00000002369692900186525900000008047959173392843442_);}
	.st89{fill:url(#SVGID_00000106834363594623907880000004750001220772118938_);}
	.st90{fill:url(#SVGID_00000115485083370133664350000000473261521956773052_);}
	.st91{fill:#001689;}
	.st92{fill:none;stroke:#001689;stroke-width:0.881;stroke-linecap:round;stroke-linejoin:round;stroke-miterlimit:10;}
	.st93{fill:#0047BA;}
	.st94{fill:#253D90;}
	.st95{fill:#FFDC00;}
	.st96{fill:#0556A3;}
	.st97{fill:#0369B2;}
	.st98{fill:#5DC3F0;}
	.st99{fill:#DF162E;}
	.st100{fill:#39A7DF;}
	.st101{fill:#1B71B6;}
	.st102{fill-rule:evenodd;clip-rule:evenodd;fill:url(#XMLID_00000052808088302476673520000003462598205709851311_);}
	.st103{fill-rule:evenodd;clip-rule:evenodd;fill:url(#XMLID_00000085232933440142439980000014506603346218925744_);}
	.st104{fill:#91BF25;}
	.st105{fill:#FFDA05;}
	.st106{fill:#E00F1A;}
	.st107{fill-rule:evenodd;clip-rule:evenodd;fill:#213A7B;}
	.st108{fill-rule:evenodd;clip-rule:evenodd;}
	.st109{fill-rule:evenodd;clip-rule:evenodd;fill:#E20C30;}
	.st110{fill:#2B7DB9;}
	.st111{fill:#43AC51;}
	.st112{fill-rule:evenodd;clip-rule:evenodd;fill:#034A91;}
	.st113{fill:#005891;}
	.st114{fill:#E3283B;}
	.st115{fill:#004A93;}
	.st116{fill-rule:evenodd;clip-rule:evenodd;fill:#004A93;}
	.st117{fill-rule:evenodd;clip-rule:evenodd;fill:#FFEA20;}
	.st118{fill-rule:evenodd;clip-rule:evenodd;fill:#DF101C;}
	.st119{fill:#2997D4;}
	.st120{fill:#F18A00;}
	.st121{fill:#09111D;}
	.st122{fill:#A72136;}
	.st123{fill:url(#SVGID_00000007389065272387444490000014552310871411072178_);}
	.st124{fill:url(#SVGID_00000080898759511384522370000016469569585542254496_);}
	.st125{fill:url(#SVGID_00000106123327117250303950000012274902465381176192_);}
	.st126{fill:url(#SVGID_00000031905663497578879390000018295746040832449959_);}
	.st127{fill:url(#SVGID_00000032606102492396842660000001419273573120093884_);}
	.st128{fill:url(#SVGID_00000089567777250496879740000005916529656700704144_);}
	.st129{fill:url(#SVGID_00000106864864428840542370000005209339681203622272_);}
	.st130{fill:url(#SVGID_00000002378264873805707980000016694338413015692676_);}
	.st131{fill:#2D2F34;}
	.st132{fill:url(#SVGID_00000050637385782847011480000012626920352144663204_);}
	.st133{fill:url(#SVGID_00000078020386359381609580000005535887312427212174_);}
	.st134{fill:url(#SVGID_00000052099231715788003290000014908441740171605144_);}
	.st135{fill:url(#SVGID_00000019655824453521370040000000062514452647035059_);}
	.st136{fill:#003DA6;}
	.st137{fill-rule:evenodd;clip-rule:evenodd;fill:#0E579F;stroke:#FFFFFF;stroke-width:1.0001;stroke-miterlimit:2.6131;}
	.st138{fill-rule:evenodd;clip-rule:evenodd;fill:#FFFFFF;stroke:#FFFFFF;stroke-width:0.216;stroke-miterlimit:2.6131;}
	.st139{fill:#1766AD;}
	.st140{fill:#7EB828;}
	.st141{fill:#0D9E39;}
	.st142{fill:#7CB62C;}
	.st143{fill-rule:evenodd;clip-rule:evenodd;fill:#00A0DF;}
	
		.st144{clip-path:url(#SVGID_00000171696880668808367290000002260318676227310513_);fill-rule:evenodd;clip-rule:evenodd;fill:#8CCFF1;}
	
		.st145{clip-path:url(#SVGID_00000171696880668808367290000002260318676227310513_);fill-rule:evenodd;clip-rule:evenodd;fill:#C3E4F5;}
	
		.st146{clip-path:url(#SVGID_00000171696880668808367290000002260318676227310513_);fill-rule:evenodd;clip-rule:evenodd;fill:#FFFFFF;}
	.st147{clip-path:url(#SVGID_00000171696880668808367290000002260318676227310513_);}
	.st148{fill:#83CEEA;}
	.st149{fill-rule:evenodd;clip-rule:evenodd;fill:#65B2E8;}
	.st150{fill-rule:evenodd;clip-rule:evenodd;fill:#0C68AE;}
	.st151{fill-rule:evenodd;clip-rule:evenodd;fill:#00205C;}
	.st152{fill:#00A0DF;}
	.st153{fill:#00205C;}
	.st154{clip-path:url(#SVGID_00000169520248454399476090000013287089193035806609_);}
	.st155{fill:#29A43B;}
	.st156{fill:#BFE1F4;}
	.st157{fill:#D2E9F7;}
	.st158{fill:#444592;}
	.st159{fill:#BBA26A;}
	.st160{fill:#ACB217;}
	.st161{fill:url(#SVGID_00000017506867448002065350000014130916508934495408_);}
	.st162{fill-rule:evenodd;clip-rule:evenodd;fill:#211F1F;}
	.st163{fill:url(#SVGID_00000139983997937368860500000010645719930025439649_);}
	.st164{fill:url(#SVGID_00000044872227757590069540000015882843947919743630_);}
	.st165{fill:url(#SVGID_00000176042969175978985840000008094274424657946815_);}
	.st166{fill:url(#SVGID_00000055691867900753930100000008486685929378508947_);}
	.st167{fill:url(#SVGID_00000110457907247246073500000004490283204711059346_);}
	.st168{fill:url(#SVGID_00000026129132640011037740000014401773462949074076_);}
	.st169{fill:url(#SVGID_00000122693002456500713570000000352494667325286052_);}
	.st170{fill:url(#SVGID_00000099632423047710340190000012223713204730182077_);}
	.st171{fill:url(#SVGID_00000132071915045821224420000010689281754572021683_);}
	.st172{fill:url(#SVGID_00000176038400421033056970000009572710356559899571_);}
	.st173{fill:url(#SVGID_00000027570073137208852050000018057992753880794505_);}
	.st174{fill:url(#SVGID_00000007386856710978293320000006331643306487079350_);}
	.st175{fill:url(#SVGID_00000006697408095425420260000008623235782241263009_);}
	.st176{fill:url(#SVGID_00000068646248565713323530000002557478272154277766_);}
	.st177{fill:url(#SVGID_00000110428990350272633720000008917146518811310510_);}
	.st178{fill:url(#SVGID_00000011725320576280274710000017089344357758273433_);}
	.st179{fill:url(#SVGID_00000009570185519940718080000011560816526679738032_);}
	.st180{fill:url(#SVGID_00000067940343674292878260000000182770883895387066_);}
	.st181{fill:url(#SVGID_00000096747968913625801700000011127761074956113543_);}
	.st182{fill:url(#SVGID_00000175299480293378409800000005416042091282347675_);}
	.st183{fill:url(#SVGID_00000016758784343444524480000010589474353600997528_);}
	.st184{fill:url(#SVGID_00000005979264570184066640000005723981171142930099_);}
	.st185{fill:url(#SVGID_00000074435540654003780490000016374599374839285406_);}
	.st186{fill:url(#SVGID_00000182501666322559198230000013474412319318578319_);}
	.st187{fill:url(#SVGID_00000106857017622011383120000016748977063235805855_);}
	.st188{fill:url(#SVGID_00000049206645028146101190000006632127574223752576_);}
	
		.st189{clip-path:url(#SVGID_00000125562045321852273000000014719807248817084850_);fill:url(#SVGID_00000102527950442729228140000005382090588374748546_);}
	.st190{fill:url(#SVGID_00000106860238500381624890000011821033000282856374_);}
	.st191{fill:url(#SVGID_00000085931981800283698360000010141970730976622482_);}
	.st192{fill:url(#SVGID_00000124848782232220944120000008088967747396304801_);}
	.st193{fill:url(#SVGID_00000032633963872231331450000002598007759332874378_);}
	.st194{fill-rule:evenodd;clip-rule:evenodd;fill:url(#SVGID_00000142176472156231304870000003440854302299778469_);}
	.st195{fill:#F6F0F3;}
	.st196{fill:#F8F4F6;}
	.st197{fill:#FFFCFD;}
	.st198{fill:#0F4D80;}
	.st199{fill:#2F93D1;}
	.st200{display:none;}
	.st201{display:inline;fill:#0F4D80;}
	.st202{display:inline;fill:#2F93D1;}
	.st203{display:inline;fill:#FFFFFF;}
	.st204{opacity:0.3;}
	.st205{fill:#65A1D7;}
	.st206{fill:#E63922;}
	.st207{fill:#33712F;}
	.st208{fill:#509BD5;}
	.st209{fill:#2C88C7;}
	.st210{fill:#A9DBF7;}
	.st211{fill:#EEB68A;}
	.st212{fill:#FBD3AD;}
	.st213{fill:#270C12;}
	.st214{fill:#230A10;}
	.st215{fill:#A2403B;}
	.st216{fill:#C1665D;}
	.st217{fill:#DFECF8;}
	.st218{fill:#411017;}
	.st219{fill:#262626;}
	.st220{opacity:0.47;}
	.st221{fill:#FAD8D5;}
	.st222{fill:#FBE1DE;}
	.st223{fill:#EA808C;}
	.st224{fill:#C9E7F7;}
	.st225{fill:#E5F3FD;}
	.st226{fill:#FDEEEE;}
	.st227{fill:#F7C7C9;}
	.st228{fill:#ECF6F7;}
	.st229{fill:#A0D0F1;}
	.st230{fill:#97C7EC;}
	.st231{fill:#9ECFF1;}
	.st232{fill:#E8F4F6;}
	.st233{fill:#BEE3F5;}
	.st234{fill:#D7EDF6;}
	.st235{fill:#ED705B;}
	.st236{fill:#F9C9BA;}
	.st237{fill:#8BC5EC;}
	.st238{fill:#F5AC9B;}
	.st239{fill:#F1907E;}
	.st240{fill:#D6EDF6;}
	.st241{fill:#4B8739;}
	.st242{fill:#F39B8B;}
	.st243{fill:#C5D4E1;}
	.st244{fill:#F29A9C;}
	.st245{fill:#3C3C3B;}
	.st246{fill:#EE808D;}
	.st247{fill:#187FB9;}
	.st248{fill:#2EA8E0;}
	.st249{fill:#80CEF4;}
	.st250{fill:#BDE3F6;}
	.st251{fill:#EA5B2B;}
	.st252{fill:#E73F2F;}
	.st253{opacity:0.26;fill:#D3B0D4;}
	.st254{fill:url(#SVGID_00000160903280451333628630000013152453749578190990_);}
	.st255{fill:#B7553B;}
	.st256{fill:#E63924;}
	.st257{fill:#441943;}
	.st258{fill:#281028;}
	.st259{fill:#8BCAB9;}
	.st260{fill:#D9271B;}
	.st261{fill:#FCE7E5;}
	.st262{fill:#A9D7CF;}
	.st263{fill:url(#SVGID_00000135688788581659236550000014558134949860353958_);}
	.st264{fill:url(#SVGID_00000011018699010315589850000010499344182823558021_);}
	.st265{fill:url(#SVGID_00000076575208916901680650000000708591257128001929_);}
	.st266{opacity:0.26;fill:#A2403B;}
	.st267{fill:#6E4594;}
	.st268{fill:#B65650;}
	.st269{fill:url(#SVGID_00000116915644559285454390000001574303380536955010_);}
	.st270{fill:#454545;}
	.st271{fill:#A7D9F5;}
	.st272{fill:#24212E;}
	.st273{fill:#6D1B0F;}
	.st274{fill:#3E4055;}
	.st275{fill:#3E4052;}
	.st276{fill:#77491E;}
	.st277{fill:#474A5E;}
	.st278{fill:#24222D;}
	.st279{fill:#D6D6D6;}
	.st280{fill:#F8C6BD;}
	.st281{fill:#3F292A;}
	.st282{fill:#E7E8EC;}
	.st283{fill:#F9D3CA;}
	.st284{fill:#E9B9A6;}
	.st285{fill:#0E0C09;}
	.st286{fill:#CCDADA;}
	.st287{fill:#EDBDAA;}
	.st288{fill:#535459;}
	.st289{fill:#929497;}
	.st290{fill:#3164AC;}
	.st291{fill:#D53939;}
	.st292{fill:#313134;}
	.st293{fill:url(#SVGID_00000163035743898389339430000003736565413015689127_);}
	.st294{fill:url(#SVGID_00000024708954543837161830000003006867170081095609_);}
	.st295{fill:url(#SVGID_00000022553406932243749400000018150355443072427177_);}
	.st296{fill:#E6E7E7;}
	.st297{clip-path:url(#SVGID_00000132082596833927433380000012067466710706060705_);}
	.st298{fill:#F7F6F6;}
	.st299{fill:#0E4D80;}
	.st300{opacity:0.31;}
	.st301{opacity:0;}
	.st302{fill:#010100;}
	.st303{opacity:4.653465e-03;}
	.st304{opacity:9.306931e-03;}
	.st305{opacity:0.014;}
	.st306{opacity:0.0186;}
	.st307{opacity:0.0233;}
	.st308{opacity:0.0279;}
	.st309{opacity:0.0326;}
	.st310{opacity:0.0372;}
	.st311{opacity:0.0419;}
	.st312{opacity:0.0465;}
	.st313{opacity:0.0512;}
	.st314{opacity:0.0558;}
	.st315{opacity:0.0605;}
	.st316{opacity:0.0651;}
	.st317{opacity:0.0698;}
	.st318{opacity:0.0745;}
	.st319{opacity:0.0791;}
	.st320{opacity:0.0838;}
	.st321{opacity:0.0884;}
	.st322{opacity:0.0931;}
	.st323{opacity:0.0977;}
	.st324{opacity:0.1024;}
	.st325{opacity:0.107;}
	.st326{opacity:0.1117;}
	.st327{opacity:0.1163;}
	.st328{opacity:0.121;}
	.st329{opacity:0.1256;}
	.st330{opacity:0.1303;}
	.st331{opacity:0.135;}
	.st332{opacity:0.1396;}
	.st333{opacity:0.1443;}
	.st334{opacity:0.1489;}
	.st335{opacity:0.1536;}
	.st336{opacity:0.1582;}
	.st337{opacity:0.1629;}
	.st338{opacity:0.1675;}
	.st339{opacity:0.1722;}
	.st340{opacity:0.1768;}
	.st341{opacity:0.1815;}
	.st342{opacity:0.1861;}
	.st343{opacity:0.1908;}
	.st344{opacity:0.1954;}
	.st345{opacity:0.2001;}
	.st346{opacity:0.2048;}
	.st347{opacity:0.2094;}
	.st348{opacity:0.2141;}
	.st349{opacity:0.2187;}
	.st350{opacity:0.2234;}
	.st351{opacity:0.228;}
	.st352{opacity:0.2327;}
	.st353{opacity:0.2373;}
	.st354{opacity:0.242;}
	.st355{opacity:0.2466;}
	.st356{opacity:0.2513;}
	.st357{opacity:0.2559;}
	.st358{opacity:0.2606;}
	.st359{opacity:0.2652;}
	.st360{opacity:0.2699;}
	.st361{opacity:0.2746;}
	.st362{opacity:0.2792;}
	.st363{opacity:0.2839;}
	.st364{opacity:0.2885;}
	.st365{opacity:0.2932;}
	.st366{opacity:0.2978;}
	.st367{opacity:0.3025;}
	.st368{opacity:0.3071;}
	.st369{opacity:0.3118;}
	.st370{opacity:0.3164;}
	.st371{opacity:0.3211;}
	.st372{opacity:0.3257;}
	.st373{opacity:0.3304;}
	.st374{opacity:0.335;}
	.st375{opacity:0.3397;}
	.st376{opacity:0.3444;}
	.st377{opacity:0.349;}
	.st378{opacity:0.3537;}
	.st379{opacity:0.3583;}
	.st380{opacity:0.363;}
	.st381{opacity:0.3676;}
	.st382{opacity:0.3723;}
	.st383{opacity:0.3769;}
	.st384{opacity:0.3816;}
	.st385{opacity:0.3862;}
	.st386{opacity:0.3909;}
	.st387{opacity:0.3955;}
	.st388{opacity:0.4002;}
	.st389{opacity:0.4049;}
	.st390{opacity:0.4095;}
	.st391{opacity:0.4142;}
	.st392{opacity:0.4188;}
	.st393{opacity:0.4235;}
	.st394{opacity:0.4281;}
	.st395{opacity:0.4328;}
	.st396{opacity:0.4374;}
	.st397{opacity:0.4421;}
	.st398{opacity:0.4467;}
	.st399{opacity:0.4514;}
	.st400{opacity:0.456;}
	.st401{opacity:0.4607;}
	.st402{opacity:0.4653;}
	.st403{fill:url(#SVGID_00000036226094881035352730000016166925864152563847_);}
	.st404{fill:url(#SVGID_00000078037852372613661700000001696215093209994647_);}
	.st405{fill:url(#SVGID_00000137827031511856053590000015460140574018487684_);}
	.st406{fill:#C6A295;}
	.st407{fill:#EFC5B3;}
	.st408{fill:#121214;}
	.st409{fill:#BBBDBE;}
	.st410{fill:#863C13;}
	.st411{fill:#B96117;}
	.st412{fill:#EF8118;}
	.st413{fill:#BA5817;}
	.st414{fill:#6D6F71;}
	.st415{fill:#E21D26;}
	.st416{fill:#2C5E84;}
	.st417{fill:#9C251F;}
	.st418{fill:url(#SVGID_00000142160882530747640930000001762715666034208654_);}
	.st419{fill:#1C374E;}
	.st420{fill:#2B4E68;}
	.st421{opacity:0.3;fill:#121214;}
	.st422{fill:url(#SVGID_00000069385416132723716560000004067622379774012568_);}
	.st423{fill:url(#SVGID_00000136377804674636751600000014964623446207179146_);}
	.st424{fill:url(#SVGID_00000152951099212990029800000015398085174242854333_);}
	.st425{fill:url(#SVGID_00000073720457478451965850000017115879715902165662_);}
	.st426{fill:url(#SVGID_00000092424329874019702510000013937494652043696261_);}
	.st427{fill:url(#SVGID_00000147200639677910238510000011872862528979992723_);}
	.st428{fill:#0C0C0C;}
	.st429{fill:#603914;}
	.st430{fill:#E86821;}
	.st431{fill:#171717;}
	.st432{fill:#663F30;}
	.st433{fill:url(#SVGID_00000027570976539711378460000006865207320843019957_);}
	.st434{fill:url(#SVGID_00000150820070629450865990000014143584409932151721_);}
	.st435{fill:url(#SVGID_00000085245816336477096320000006498301813423546514_);}
	.st436{fill:url(#SVGID_00000152254883129373386340000013535679676686256303_);}
	.st437{fill:url(#SVGID_00000047759130733041110380000008299908716601114517_);}
	.st438{fill:url(#SVGID_00000075878087609480892070000002492791642064784259_);}
	.st439{fill:url(#SVGID_00000015339252513947158030000009510289707072843960_);}
	.st440{fill:url(#SVGID_00000093174642383555898090000004429442489853845149_);}
	.st441{fill:url(#SVGID_00000013890929837834414870000002161243261763413932_);}
	.st442{fill:url(#SVGID_00000161599242890254814280000011195007985925569684_);}
	.st443{fill:url(#SVGID_00000072977916201334420670000012316531700210061189_);}
	.st444{fill:url(#SVGID_00000093884575963599239090000017010845026141609362_);}
	.st445{fill:url(#SVGID_00000142148939701069340430000000020954703077477538_);}
	.st446{fill:url(#SVGID_00000048502007538110651530000018324440991403315123_);}
	.st447{fill:url(#SVGID_00000139981217208486679100000005953048322729987739_);}
	.st448{fill:url(#SVGID_00000020370067781023567520000007877018938933140357_);}
	.st449{fill:url(#SVGID_00000042711857521095962080000015603471342755745203_);}
	.st450{fill:url(#SVGID_00000061449724479104111000000009183995742116512441_);}
	.st451{fill:#B7B7B7;}
	.st452{fill:#112134;}
	.st453{fill:#414042;}
	.st454{fill:#221E20;}
	.st455{fill:#131313;}
	.st456{fill:#202020;}
	.st457{fill:#915E33;}
	.st458{fill:#57391E;}
	.st459{fill:#F39519;}
	.st460{fill:#F4B305;}
	.st461{fill:#C4C3C3;}
	.st462{fill:#A5A4A5;}
	.st463{fill:#888989;}
	.st464{fill:#242424;}
	.st465{fill:#6E4827;}
	.st466{opacity:0.1844;fill:#24222D;}
	.st467{fill:#A0A4BB;}
	.st468{opacity:0.1844;fill:#999AB6;}
	.st469{fill:#D9E3E3;}
	.st470{fill:#FAD5CB;}
	.st471{opacity:0.1844;fill:#24212E;}
	.st472{fill:#844013;}
	.st473{fill:#F8B777;}
	.st474{fill:#3576AB;}
	.st475{fill:#A2A1A1;}
	.st476{fill:#754C29;}
	.st477{fill:#B3DFF1;}
	.st478{fill:#80A5A5;}
	.st479{fill:#EAAE93;}
	.st480{fill:#00657E;}
	.st481{fill:#382E22;}
	.st482{fill:#157288;}
	.st483{fill:#A42916;}
	.st484{fill:#D43216;}
	.st485{fill:#E5A082;}
	.st486{fill:#B23318;}
	.st487{fill:#843E1E;}
	.st488{fill:#EDBEA8;}
	.st489{fill:#E94E49;}
	.st490{fill:#E3E4E3;}
	.st491{fill:#B9B9B9;}
	.st492{fill:#868787;}
	.st493{fill:url(#XMLID_00000062152973614691956850000016140758612548679853_);}
	.st494{fill:#989898;}
	.st495{fill:url(#XMLID_00000044866033276275480470000009634196374271808662_);}
	.st496{fill:#EEECEB;}
	.st497{fill:#D5D5D5;}
	.st498{fill:url(#XMLID_00000021078430925086460930000004224166831279364231_);}
	.st499{fill:url(#XMLID_00000049216624953419371110000016268965757668820665_);}
	.st500{fill:url(#XMLID_00000175302411158951716210000003548091299265587608_);}
	.st501{fill:url(#XMLID_00000001662878646943338430000016608577211858579362_);}
	.st502{fill:url(#XMLID_00000164516242455266593770000001830849867580379304_);}
	.st503{fill:url(#XMLID_00000020392305311653640120000010105325514910252162_);}
	.st504{fill:url(#XMLID_00000046341472309528975860000005943040847529526919_);}
	.st505{fill:url(#XMLID_00000000191466206786257030000007988868641419095455_);}
	.st506{fill:url(#XMLID_00000070817225800396123650000000326633854649033117_);}
	.st507{fill:url(#XMLID_00000183966932570272871630000002713336251089494182_);}
	.st508{fill:url(#XMLID_00000139255214885812215360000004719360044266112928_);}
	.st509{fill:url(#XMLID_00000140713179343072528470000000696199190633706393_);}
	.st510{fill:url(#XMLID_00000167397086189068383710000005583843043582741637_);}
	.st511{fill:url(#XMLID_00000115490077970754048140000007692350662987469225_);}
	.st512{fill:url(#XMLID_00000159444745548156043340000004905585107300016282_);}
	.st513{fill:url(#XMLID_00000053530243323401318560000018175271643433991077_);}
	.st514{fill:url(#XMLID_00000020370945631460260580000009829101865742948229_);}
	.st515{fill:url(#XMLID_00000006666450261609226560000005192561469351000965_);}
	.st516{fill:url(#XMLID_00000068638020712140120330000008777834922517611436_);}
	.st517{fill:url(#XMLID_00000169524163237640184440000015582887557162845829_);}
	.st518{fill:url(#XMLID_00000029763177839646856680000015035382439942778035_);}
	.st519{fill:url(#XMLID_00000005256387959760564320000011470951731388573827_);}
	.st520{fill:url(#XMLID_00000088093725485017805740000017639923156593457832_);}
	.st521{fill:url(#XMLID_00000112620472757719836020000006432246093638594718_);}
	.st522{fill:url(#XMLID_00000093870210175532694140000009928290049442719891_);}
	.st523{fill:url(#XMLID_00000025444225852305978040000004835268002049103505_);}
	.st524{fill:url(#XMLID_00000170971321194403733840000008599080485485156270_);}
	.st525{fill:url(#XMLID_00000087413021779866012730000005838863893123019397_);}
	.st526{fill:url(#XMLID_00000183964124951612197020000014343890936932273843_);}
	.st527{fill:url(#XMLID_00000010992176268427808740000017056645302739028612_);}
	.st528{fill:url(#XMLID_00000010305039424093546300000007109382546830604958_);}
	.st529{fill:url(#XMLID_00000146464876445412417230000012805275446583138195_);}
	.st530{fill:url(#XMLID_00000158013704763840563200000006314465898928007564_);}
	.st531{fill:url(#XMLID_00000018960015524710544230000003386779144209880978_);}
	.st532{fill:url(#XMLID_00000102534522609009116030000009689781872216138669_);}
	.st533{fill:url(#XMLID_00000099640550509603594570000017650475220165267133_);}
	.st534{fill:url(#XMLID_00000176034709976458439940000016309404894189531290_);}
	.st535{fill:url(#XMLID_00000005225671353300202760000013685108694520957884_);}
	.st536{fill:url(#XMLID_00000119805009330880444310000006842570593871384217_);}
	.st537{fill:url(#XMLID_00000169545621137129512160000012611373463479468673_);}
	.st538{fill:url(#XMLID_00000058570522517167295000000005125316843044137654_);}
	.st539{fill:url(#XMLID_00000059287903060170959630000011024696226053548968_);}
	.st540{fill:url(#XMLID_00000124846498418953709720000001436401979970364562_);}
	.st541{fill:url(#XMLID_00000105403163720877224280000011981573915875934141_);}
	.st542{fill:url(#XMLID_00000039845581899976719900000003079109929043280538_);}
	.st543{fill:url(#XMLID_00000021088813529236899790000018241947779319578804_);}
	.st544{fill:url(#XMLID_00000147929378950090345210000002475503100506222775_);}
	.st545{fill:url(#XMLID_00000168824304850673850670000007780553013807532438_);}
	.st546{fill:url(#XMLID_00000047026363968729397960000006758744582826369449_);}
	.st547{fill:url(#XMLID_00000176762628289011113790000014306938243320788121_);}
	.st548{fill:url(#XMLID_00000058573670126976938970000008615983630229854143_);}
	.st549{fill:url(#XMLID_00000019669554514519983940000009835983438380863383_);}
	.st550{fill:url(#XMLID_00000124126865222512406140000018273029385593707431_);}
	.st551{fill:url(#XMLID_00000084491028874694572700000013227319565607629743_);}
	.st552{fill:url(#XMLID_00000054948092716601371550000017788185266557110451_);}
	.st553{fill:url(#XMLID_00000158007975148442249010000016497979401537765286_);}
	.st554{fill:url(#XMLID_00000112602264557381857940000017937824897663168156_);}
	.st555{fill:url(#XMLID_00000138535831455136193980000000860010270455850897_);}
	.st556{fill:url(#XMLID_00000107578273588061305410000004485084142217272485_);}
	.st557{fill:url(#XMLID_00000147200666844308656470000017462276222063328139_);}
	.st558{fill:url(#XMLID_00000146495945372000301740000012386301086734162063_);}
	.st559{fill:url(#XMLID_00000081642767212910990110000004096424591297451438_);}
	.st560{fill:url(#XMLID_00000081646130181144681860000013473613505229151625_);}
	.st561{fill:url(#XMLID_00000093160375565868307190000004175904511425643417_);}
	.st562{fill:url(#XMLID_00000142882867753395875120000008142749303962592931_);}
	.st563{fill:url(#XMLID_00000078724184571189471470000013417056788710349197_);}
	.st564{fill:url(#XMLID_00000161599349621850680580000007988933157821426857_);}
	.st565{fill:url(#XMLID_00000072960571959068844360000002031515727550743681_);}
	.st566{fill:url(#XMLID_00000065795026485609499540000007804694863984985526_);}
	.st567{fill:url(#XMLID_00000014599196617092269120000013182892994336830358_);}
	.st568{fill:url(#XMLID_00000109021120207187656460000008892137271089916302_);}
	.st569{fill:url(#XMLID_00000126283023844329078880000016776081039540531338_);}
	.st570{fill:url(#XMLID_00000015334799043418845650000006740782692776347269_);}
	.st571{fill:url(#XMLID_00000160908056278570761770000013789247334971705749_);}
	.st572{fill:url(#XMLID_00000102543065492120798450000013473503901670663064_);}
	.st573{fill:url(#XMLID_00000049195261094797723290000007800071524800423581_);}
	.st574{fill:url(#XMLID_00000151508790651502201890000010206078261149066156_);}
	.st575{fill:url(#XMLID_00000120533857382956352800000011238833524044887999_);}
	.st576{fill:url(#XMLID_00000170238109459416686430000008749689526886718891_);}
	.st577{fill:url(#XMLID_00000080196853686541798230000016255896997328181396_);}
	.st578{fill:url(#XMLID_00000105401231856785091630000015557324899568877737_);}
	.st579{fill:url(#XMLID_00000005980899686576680010000008164987624167465399_);}
	.st580{fill:url(#XMLID_00000044893848599640433220000001217313857694503607_);}
	.st581{fill:url(#XMLID_00000147213972553665617790000013060545872372622209_);}
	.st582{fill:url(#XMLID_00000063625127604821796040000014144732120530640810_);}
	.st583{fill:url(#XMLID_00000134251347830505915510000003333398111329503149_);}
	.st584{fill:url(#XMLID_00000070104910734112523180000000577357307547535799_);}
	.st585{fill:url(#XMLID_00000105417867224054409170000012410625139009060999_);}
	.st586{fill:url(#XMLID_00000176763304466313244410000006295912789859784116_);}
	.st587{fill:url(#XMLID_00000070836000908048947140000000608643168377610899_);}
	.st588{fill:url(#XMLID_00000130637433766865030200000016417943644425294749_);}
	.st589{fill:url(#XMLID_00000158721180106330791000000018274995777638733443_);}
	.st590{fill:url(#XMLID_00000041281404653078297350000014708822108013980860_);}
	.st591{fill:url(#XMLID_00000095308592522558687880000012331274640892419979_);}
	.st592{fill:url(#XMLID_00000057855658764423514600000007297324341152337025_);}
	.st593{fill:url(#XMLID_00000050661899740184085330000005185022204184457124_);}
	.st594{fill:url(#XMLID_00000084504290299209273160000001872359177238053816_);}
	.st595{fill:url(#XMLID_00000003786542674422432650000012232472466462325430_);}
	.st596{fill:url(#XMLID_00000129899787305414104150000016826223229671627192_);}
	.st597{fill:url(#XMLID_00000158723502205295790060000014993764724706243200_);}
	.st598{fill:#FCFDFF;}
	.st599{fill:#757576;}
	.st600{fill:#D4D3D3;}
	.st601{fill:#E2E4E0;}
	.st602{fill:#B5B4B4;}
	.st603{fill:#908F8A;}
	.st604{fill:#F6F6F5;}
	.st605{fill:#3E4046;}
	.st606{fill:#525557;}
	.st607{fill:#E1E2E2;}
	.st608{fill:#E8E9EA;}
	.st609{fill:#2B2E35;}
	.st610{fill:#64666B;}
	.st611{fill:url(#XMLID_00000112600876638656859420000015346694921170325691_);}
	.st612{fill:#F0F0F0;}
	.st613{fill:#757779;}
	.st614{fill:#191B22;}
	.st615{fill:#14181E;}
	.st616{fill:#11141A;}
	.st617{fill:#DAEBE7;}
	.st618{fill:#7F8082;}
	.st619{fill:#A7B3B4;}
	.st620{fill:#3C575C;}
	.st621{fill:#CED6D6;}
	.st622{fill:#1A3A66;}
	.st623{fill:#2887C4;}
	.st624{fill:#66C3D8;}
	.st625{fill:#07282F;}
	.st626{fill:#8B9B9D;}
	.st627{fill:#72888C;}
	.st628{fill:#7F1710;}
	.st629{fill:#C3253D;}
	.st630{fill:#D9648A;}
	.st631{fill:#A24817;}
	.st632{fill:#DAA802;}
	.st633{fill:#EEB219;}
	.st634{fill:#424242;}
	.st635{fill:#474646;}
	.st636{fill:#AAB545;}
	.st637{fill:#C17D11;}
	.st638{fill:#CACCD2;}
	.st639{fill:#B6BCC6;}
	.st640{fill:#353842;}
	.st641{fill:#585C64;}
	.st642{fill:#454852;}
	.st643{fill:#62656C;}
	.st644{fill:#72757B;}
	.st645{fill:#3A3D42;}
	.st646{fill:#494D53;}
	.st647{fill:#161A24;}
	.st648{fill:#4C4F58;}
	.st649{fill:#666970;}
	.st650{fill:#7F7F83;}
	.st651{fill:#383C40;}
	.st652{fill:#1E222B;}
	.st653{fill:url(#XMLID_00000153695741002860828390000011407276762606647936_);}
	.st654{fill:#3D4049;}
	.st655{fill:url(#XMLID_00000042010371514808391320000018316254866868220305_);}
	.st656{fill:#30333C;}
	.st657{fill:#474D57;}
	.st658{fill:#75787F;}
	.st659{fill:#2F7E9D;}
	.st660{fill:#6DC0B2;}
	.st661{fill:url(#XMLID_00000094608605246959196260000013073211169796206246_);}
	.st662{fill:#F1F8FA;}
	.st663{fill:url(#XMLID_00000000201729741440052890000006409204571807787681_);}
	.st664{fill:url(#XMLID_00000158727873126971487120000010736752575647687596_);}
	.st665{fill:#ECF6F9;}
	.st666{fill:url(#XMLID_00000054985277353564034260000003633324923774792614_);}
	.st667{fill:url(#XMLID_00000046336867180895884310000012835879950493210277_);}
	.st668{fill:#CFE4F1;}
	.st669{fill:#DADADA;}
	.st670{fill:#D32D16;}
	.st671{fill:#176581;}
	.st672{fill:#9ED1F2;}
	.st673{fill:#1B222D;}
	.st674{fill:#EBE9EA;}
	.st675{fill:#C9CED5;}
	.st676{fill:#E1E0E0;}
	.st677{fill:#E7E6E6;}
	.st678{fill:#E8E7E7;}
	.st679{fill:#BFCBDD;}
	.st680{fill:#9D958F;}
	.st681{fill:#FFDC04;}
	.st682{fill:#B21828;}
	.st683{fill:#D8408F;}
	.st684{fill:#574997;}
	.st685{fill:#356AB1;}
	.st686{fill:#45B3E7;}
	.st687{fill:#2D8A36;}
	.st688{fill:#D0CFD0;}
	.st689{fill:#98A88B;}
	.st690{fill:#F8E825;}
	.st691{fill:#CB1333;}
	.st692{fill:url(#XMLID_00000110430701652861832500000000025464479988265375_);}
	.st693{fill:#0B0E18;}
	.st694{fill:#40424A;}
	.st695{fill:url(#XMLID_00000138541700443245086260000012024622521689161346_);}
	.st696{fill:#71757D;}
	.st697{fill:#C2C2C4;}
	.st698{fill:url(#XMLID_00000095340847144766954100000006287862216911059368_);}
	.st699{fill:#9DA094;}
	.st700{fill:#D4D4D4;}
	.st701{fill:url(#XMLID_00000039825433352550152410000004690013126732813962_);}
	.st702{fill:url(#XMLID_00000016052398163536329280000005323937895956674493_);}
	.st703{fill:#E8E8E8;}
	.st704{fill:#15120B;}
	.st705{fill:#4C4842;}
	.st706{fill:#74AEDF;}
	.st707{fill:#413D3F;}
	.st708{fill:#48494A;}
	.st709{fill:#080504;}
	.st710{fill:#4E4D4D;}
	.st711{fill:#A1A0A0;}
	.st712{fill:#FBEEF5;}
	.st713{fill:#BFBEBE;}
	.st714{fill:#015A64;}
	.st715{fill:#B81818;}
	.st716{fill:#8C811D;}
	.st717{fill:#03709B;}
	.st718{fill:#E74B1E;}
	.st719{fill:#F2B000;}
	.st720{fill:#E33335;}
	.st721{fill:#F8F09C;}
	.st722{fill:#FAEF81;}
	.st723{fill:#E7A8CB;}
	.st724{fill:#CD90BE;}
	.st725{fill:#847A73;}
	.st726{fill:#CCCBCB;}
	.st727{fill:#EDECEC;}
	.st728{fill:#9D9D9D;}
	.st729{fill:#EFEFEF;}
	.st730{fill:#4F525A;}
	.st731{fill:#E15C48;}
	.st732{fill:url(#XMLID_00000103967623363158913380000013338994144968528265_);}
	.st733{fill:url(#XMLID_00000180364497772569590220000012155693438568490905_);}
	.st734{fill:url(#XMLID_00000016797970114711863450000003918166246982136201_);}
	.st735{fill:url(#XMLID_00000010999390104267462650000017650169592689761976_);}
	.st736{fill:url(#XMLID_00000182528253223325537090000005148074803350770609_);}
	.st737{fill:#9E9D9D;}
	.st738{fill:#9DCBEF;}
	.st739{fill:#010000;}
	.st740{fill:url(#SVGID_00000128469864823550104950000005363162795696902568_);}
	.st741{fill:url(#SVGID_00000035526880131932760820000002588334348660170140_);}
	.st742{fill:url(#SVGID_00000117656259638166976960000017173648181670505354_);}
	.st743{fill:#D2D2D2;}
	.st744{fill:#232C35;}
	.st745{fill:#E39470;}
	.st746{fill:url(#XMLID_00000160150612840963601800000007214020919545546687_);}
	.st747{fill:#9DA6AC;}
	.st748{fill:#72979F;}
	.st749{fill:#96A1AB;}
	.st750{fill:#5F7887;}
	.st751{fill:#CC1B31;}
	.st752{fill:url(#XMLID_00000068650100938147623440000002629277438137070515_);}
	.st753{fill:url(#XMLID_00000067207494421367342100000001587604598514576543_);}
	.st754{fill:url(#XMLID_00000135656711409519543000000004544289802535740593_);}
	.st755{fill:#C0C4B6;}
	.st756{fill:#CEE8EC;}
	.st757{fill:url(#XMLID_00000005958245947131355120000003683234783868375717_);}
	.st758{fill:url(#XMLID_00000093878516876257615170000009205898798874220944_);}
	.st759{fill:#384C5A;}
	.st760{fill:url(#XMLID_00000093172569757673202500000003282851719553693616_);}
	.st761{fill:#ED9E02;}
	.st762{fill:#FFE253;}
	.st763{fill:#F7C318;}
	.st764{fill:#DDB988;}
	.st765{fill:#D2A37C;}
	.st766{fill:#C98666;}
	.st767{fill:#2C7EAE;}
	.st768{fill:#A61916;}
	.st769{fill:#E6704B;}
	.st770{fill:#DF3118;}
	.st771{fill:#00648A;}
	.st772{fill:#4CB0E4;}
	.st773{fill:#2178BD;}
	.st774{fill:#058A38;}
	.st775{fill:#6EB761;}
	.st776{fill:#4DAD3C;}
	.st777{fill:#283373;}
	.st778{fill:#4A60A8;}
	.st779{fill:#274394;}
	.st780{fill:#49267F;}
	.st781{fill:#7C559E;}
	.st782{fill:#693D8F;}
	.st783{fill:#871D6C;}
	.st784{fill:#C5569A;}
	.st785{fill:#CA1781;}
	.st786{fill:#2D1B1B;}
	.st787{fill:#8A5655;}
	.st788{fill:#734748;}
	.st789{fill:url(#XMLID_00000026155581825753138240000009218461060291286180_);}
	.st790{fill:#A3B5D1;}
	.st791{fill:#04559C;}
</style>
<g>
	<g>
		<path class="st0" d="M54.5,63.01c-15.89,1.76-31.93,1.76-47.82,0C3,62.59,0,59.13,0,55.46C0,39.93,0,24.4,0,8.87
			c0-3.66,3-7.12,6.68-7.55c15.89-1.76,31.93-1.76,47.82,0c3.68,0.43,6.68,3.89,6.68,7.55c0,15.53,0,31.06,0,46.59
			C61.18,59.13,58.18,62.59,54.5,63.01z"/>
	</g>
	<g>
		<path class="st136" d="M47.85,25.43c-0.64,0-1.01,1.12-1.63,1.18c0.39-1.63,2.01-2.47,2.01-4c0-1.73-1.46-2.34-2.06-2.72
			c-1.01-1.44-1.73-2.57-3.36-2.57c-0.69,0-1.13,0.12-1.6,0.12c-0.92,0-1.21-0.35-1.28-0.35c-0.01,0-0.03,0.01-0.03,0.07
			c0,1.26,0.67,4.16,3.59,4.16c1.56,0,2.23-0.6,2.6-0.6c0.39,0,1.66,0.43,1.66,1.88c0,0.8-0.64,1.62-0.87,1.62
			c-0.22,0-0.46-0.37-0.46-0.75c0-0.42,0.23-1.21,0.23-1.7c0-0.18-0.03-0.27-0.14-0.27c-0.24,0-1.41,0.73-1.41,1.67
			c0,0.8,1.18,1.29,1.63,1.52c-0.45,0.73-0.72,1.21-0.94,1.89c0-0.52-0.49-1.56-0.64-1.98c-0.73-2.04-1.01-2.42-2.55-2.59
			c0.23,0.81,2.89,2.79,2.89,4.8c0,0.12-0.01,0.3-0.03,0.37c-0.8-2.35-2.19-2.89-2.69-3.46c-0.8-0.9-0.34-1.77-1.65-2.25
			c0.08,0.11,0.11,0.24,0.11,0.39c0,0.43-0.24,0.98-0.24,1.36c0,1.41,1.66,0.99,2.62,1.77c0.95,0.76,1.48,2.01,1.88,3.4
			c0.38-0.61,0.6-1.35,1.28-1.35c0.43,0,0.59,0.54,0.59,0.92c0,0.08,0,0.15-0.01,0.2c0.65-0.56,0.99-1.45,0.99-2.05
			C48.33,25.69,48.18,25.43,47.85,25.43z M45.28,20.11c-0.14,0-0.39-0.07-0.57-0.07c-0.46,0-0.79,0.64-1.03,0.64
			c-0.08,0-0.12-0.08-0.12-0.15c0-0.26,0.46-0.57,0.46-0.75c0-0.12-0.2-0.16-0.29-0.16c-0.46,0-1.11,0.64-1.48,0.64
			c-0.07,0-0.15-0.04-0.15-0.12c0-0.18,0.49-0.42,0.49-0.61c0-0.18-0.2-0.2-0.34-0.2c-0.23,0-0.68,0.12-0.96,0.12
			c-0.16,0-0.29-0.04-0.29-0.16c0-0.27,0.88-0.09,0.88-0.42c0-0.15-0.27-0.45-0.27-0.61c0-0.07,0.07-0.11,0.14-0.11
			c0.31,0,0.64,0.86,1.01,0.86c0.16,0,0.2-0.12,0.2-0.3c0-0.18-0.03-0.27-0.03-0.42c0-0.16,0.07-0.2,0.12-0.2
			c0.23,0,0.43,1.22,1.06,1.22c0.27,0,0.08-0.75,0.33-0.75c0.15,0,0.19,0.22,0.2,0.34c0.07,0.8,0.79,0.83,0.79,1.11
			C45.43,20.04,45.39,20.11,45.28,20.11z"/>
		<path class="st136" d="M44.07,8.53c-0.67,0.01-1.96,0.31-1.96,0.49c0,0.22,2.31,0.46,2.31,1.43c0,0.63-0.5,0.69-0.71,0.69
			c-0.76,0-1.17-0.79-1.37-0.79c-0.05,0-0.11,0.04-0.11,0.11c0,0.12,0.11,0.45,0.11,0.79c0,0.87-0.97,0.96-0.97,1.14
			c0,0.07,0.03,0.09,0.14,0.11c0.71,0.11,1.43,0.16,2.11,0.16c2.46,0,4.47-0.76,4.47-2.91c0-1.17-0.37-1.56-0.37-2.13
			c0-0.19,0.14-0.58,0.5-0.8c-0.68,0-0.79-0.2-1.25-0.2c-0.56,0-0.95,0.38-0.95,0.95c0,0.19,0.07,0.49,0.07,0.88
			c0,0.48-0.1,0.92-0.52,0.92c-0.39,0-0.54-0.26-0.54-0.56c0-0.54,0.29-0.91,0.29-1.26c0-0.64-0.79-0.83-1.63-0.83
			c-1.01,0-2.09,0.27-2.09,0.41C41.6,7.36,43.05,7.23,44.07,8.53z M46.98,7.1c0.19,0,0.34,0.15,0.34,0.34
			c0,0.19-0.15,0.34-0.34,0.34c-0.19,0-0.34-0.15-0.34-0.34C46.64,7.25,46.79,7.1,46.98,7.1z M46.72,9.07
			c0.35,0.11,0.57,0.46,0.57,0.86c0,0.71-0.68,1.55-2.54,1.55c-0.16,0-0.33,0-0.5-0.01C45.84,11.21,46.72,10.28,46.72,9.07z"/>
		<path class="st136" d="M44.88,15.08c-0.45,0-0.58,0.31-0.58,0.47c0,0.38,0.37,0.54,0.9,0.54c1.41,0,2.7-1.13,2.7-2.12
			c0-0.46-0.22-0.84-0.78-0.91c0.1,0.12,0.14,0.22,0.14,0.43C47.25,14.25,46.11,15.08,44.88,15.08z"/>
		<path class="st136" d="M47.88,15.2c-0.63,1.26-2.27,1.52-2.8,1.47c0.18,1.29,2.13,3.03,2.66,2.99c0.35,0,0.49-1.69,0.49-2.99
			C48.23,15.92,48.27,15.34,47.88,15.2z"/>
		<path class="st136" d="M46.28,13.1c-0.45,0-1.03,0.42-1.64,0.42c-0.19,0-0.43,0-0.67-0.07c0.23,0.18,0.19,0.57,0.31,0.82
			c0.15,0.3,0.42,0.3,0.61,0.3c0.57,0,1.78-0.49,1.78-1.09C46.67,13.29,46.58,13.1,46.28,13.1z"/>
		<path class="st136" d="M35.83,18.82c0,0.29,0.23,0.52,0.52,0.52c0.29,0,0.52-0.23,0.52-0.52c0-0.29-0.23-0.52-0.52-0.52
			C36.06,18.3,35.83,18.53,35.83,18.82z"/>
		<path class="st136" d="M38.08,24.13c0.52,0,0.94-0.42,0.94-0.94c0-0.52-0.42-0.94-0.94-0.94c-0.52,0-0.94,0.42-0.94,0.94
			C37.14,23.71,37.56,24.13,38.08,24.13z"/>
		<path class="st136" d="M37.65,21.28c0,0.3,0.24,0.54,0.54,0.54c0.3,0,0.54-0.24,0.54-0.54c0-0.3-0.24-0.54-0.54-0.54
			C37.89,20.73,37.65,20.98,37.65,21.28z"/>
		<path class="st136" d="M46.18,33.45c0.92-0.81,1.44-2.01,1.44-3.11c0-1.03-0.54-1.92-1.22-1.92c-0.6,0-0.92,0.48-0.92,0.99
			c0,0.31,0.12,0.64,0.37,0.87c-0.24-0.25-0.58-0.37-1.02-0.37c-0.49,0-0.9,0.38-0.9,0.95C43.92,32.2,46.17,31.62,46.18,33.45z"/>
		<path class="st136" d="M36.31,29.77c0.19,0.23,0.26,0.46,0.26,0.69c0,0.59-0.45,1.18-0.45,1.75c0,0.76,0.5,1.24,1.2,1.24
			c0.76,0,1.2-0.64,1.2-1.33C38.52,31.12,37.74,30.04,36.31,29.77z M37.35,31.92c-0.19,0-0.33-0.15-0.33-0.34
			c0-0.11,0.07-0.27,0.08-0.41c0.03-0.18-0.01-0.34,0.1-0.34c0.25,0,0.5,0.39,0.5,0.68C37.7,31.73,37.56,31.92,37.35,31.92z"/>
		<path class="st136" d="M35.05,18.99c-0.3,0-0.54,0.24-0.54,0.54c0,0.3,0.24,0.54,0.54,0.54c0.3,0,0.54-0.24,0.54-0.54
			C35.59,19.24,35.35,18.99,35.05,18.99z"/>
		<path class="st136" d="M35.87,22.36c0,0.3,0.24,0.54,0.54,0.54c0.3,0,0.54-0.24,0.54-0.54c0-0.3-0.24-0.54-0.54-0.54
			C36.11,21.82,35.87,22.07,35.87,22.36z"/>
		<path class="st136" d="M36.72,38.81c-0.14,0-0.29,0.14-0.43,0.31c-0.33,0.38-0.75,1.09-0.75,1.86c0,0.54,0.42,1.09,1.21,1.09
			c2.54,0,4.44-1.59,4.44-2.88c0-0.73-0.43-1.03-0.75-1.03c-0.35,0.27-1.18,0.88-2.55,0.88C37.16,39.04,36.83,38.81,36.72,38.81z
			 M39.63,39.48c0.07,0,0.15,0.04,0.15,0.29c0,0.3-0.14,0.69-0.62,1.01c-0.34,0.23-0.8,0.42-1.48,0.44
			c0.11-0.33,0.19-0.67,0.19-0.99c0-0.11-0.01-0.19-0.03-0.31h0.18C39.09,39.9,39.55,39.48,39.63,39.48z"/>
		<path class="st136" d="M37.42,20.58c0-0.46-0.37-0.83-0.83-0.83c-0.46,0-0.83,0.37-0.83,0.83c0,0.46,0.37,0.83,0.83,0.83
			C37.05,21.41,37.42,21.05,37.42,20.58z"/>
		<path class="st136" d="M42,28.22c1.05,0,1.51,1.6,1.68,1.6c0.19,0,0.07-0.72,0.16-0.83c0.04-0.05,0.14-0.07,0.24-0.07
			c0.18,0,0.41,0.04,0.56,0.04c0.1,0,0.15-0.01,0.16-0.05c0.01-0.14-0.83-0.41-0.83-0.64c0-0.2,0.46-0.65,0.46-0.79
			c0-0.04-0.03-0.07-0.07-0.07c-0.2,0-0.84,0.49-1.75,0.49c-0.38,0-0.65-0.05-0.65-0.33c0-0.27,0.23-0.48,0.61-0.64
			c0.39-0.18,1.22-0.18,1.22-0.38c0-0.14-0.79-0.16-0.79-0.31c0-0.18,0.31-0.63,0.31-0.83c0-0.01-0.01-0.07-0.05-0.07
			c-0.15,0-0.51,0.45-0.76,0.45c-0.22,0-0.41-0.56-0.61-0.57c-0.05,0-0.1,0.04-0.1,0.14c0,0.22,0.1,0.64,0.1,1.18
			c0,0.48-0.25,0.91-0.53,0.91c-0.34,0-0.45-0.39-0.45-0.73c0-0.49,0.26-1.06,0.26-1.56c0-0.12-0.03-0.16-0.09-0.16
			c-0.2,0-0.5,0.54-0.72,0.54c-0.14,0-0.42-0.67-0.63-0.67c-0.05,0-0.07,0.11-0.07,0.24c0,0.19,0.03,0.43,0.03,0.56
			c0,0.16-0.2,0.18-0.41,0.18c-0.14,0-0.46,0-0.46,0.11c0,0.11,0.29,0.24,0.54,0.41c0.5,0.33,1.26,0.67,1.26,1.45
			c0,0.71-1.02,1.21-1.71,1.33c-0.33,0.05-0.68,0.12-0.68,0.22c0,0.16,0.9,0.19,0.9,0.39c0,0.11-0.39,0.64-0.39,0.8
			c0,0.03,0.03,0.04,0.05,0.04c0.15,0,0.59-0.37,0.79-0.37c0.27,0,0.22,0.77,0.42,0.77c0.22,0,0.15-1.15,0.24-1.45
			c0.16-0.52,0.53-1.03,0.86-1.03c0.39,0,0.44,0.71,0.44,1.03c0,0.69-0.5,1.4-0.5,1.71c0,0.04,0.03,0.08,0.07,0.08
			c0.15,0,0.5-0.45,0.67-0.45c0.19,0,0.59,0.75,0.75,0.75c0.08,0,0.1-0.08,0.1-0.15c0-0.22-0.11-0.58-0.11-0.83
			c0-0.27,0.87-0.12,0.87-0.28c0-0.08-0.38-0.23-0.61-0.38c-0.5-0.3-1.03-0.92-1.03-1.47C41.74,28.34,41.85,28.22,42,28.22z"/>
		<path class="st136" d="M38.63,36.64c-1.04,0-1.59,0.47-1.59,0.67v0.65c0,0.27,0.62,0.54,1.39,0.54c0.61,0,1.16-0.16,1.53-0.47
			c0.11-0.1,0.14-0.25,0.14-0.41v-0.33C40.1,36.88,39.48,36.64,38.63,36.64z"/>
		<path class="st136" d="M39.74,33.59c0.56,0,0.94-0.45,0.94-0.98c0-0.72-0.65-1.33-1.67-1.4c0.1,0.15,0.14,0.3,0.14,0.44
			c0,0.38-0.26,0.73-0.26,1.13C38.88,33.22,39.22,33.59,39.74,33.59z"/>
		<path class="st136" d="M39.63,19.76c-0.31,0-0.57,0.26-0.57,0.57c0,0.31,0.26,0.57,0.57,0.57c0.31,0,0.57-0.26,0.57-0.57
			C40.2,20.01,39.94,19.76,39.63,19.76z"/>
		<path class="st136" d="M38.29,17.51c0,0.29,0.23,0.52,0.52,0.52c0.29,0,0.52-0.23,0.52-0.52c0-0.29-0.23-0.52-0.52-0.52
			C38.52,17,38.29,17.23,38.29,17.51z"/>
		<path class="st136" d="M34.82,20.68c-0.42,0-0.77,0.35-0.77,0.77c0,0.42,0.35,0.77,0.77,0.77c0.42,0,0.77-0.35,0.77-0.77
			C35.59,21.03,35.24,20.68,34.82,20.68z"/>
		<path class="st136" d="M39.79,23.22c-0.27,0-0.52,0.23-0.52,0.5c0,0.31,0.24,0.53,0.52,0.53c0.3,0,0.53-0.22,0.53-0.53
			C40.32,23.45,40.09,23.22,39.79,23.22z"/>
		<path class="st136" d="M41.36,16.63c1.24,0,2.28-0.42,2.28-1.11c0-0.6-0.59-1.88-0.99-1.88c-0.26,0-0.69,0.29-1.03,0.29
			c-0.44,0-0.31-0.54-0.79-0.54c-0.11,0-0.23,0.03-0.35,0.09c-0.99,0.49-1.75,0.31-1.93,0.42c-0.04,0.03-0.08,0.05-0.08,0.14
			C38.46,15.05,39.55,16.63,41.36,16.63z M39.93,14.66c0.16,0,0.6,0.22,1.17,0.31c0.67,0.11,1.02,0.12,1.2,0.12
			c0.18,0,0.26,0.04,0.26,0.09c0,0.16-0.45,0.44-1.05,0.44c-1.01,0-1.66-0.54-1.66-0.9C39.85,14.69,39.87,14.66,39.93,14.66z"/>
		<path class="st136" d="M37.27,19.18c0,0.48,0.39,0.87,0.87,0.87c0.48,0,0.87-0.39,0.87-0.87c0-0.48-0.39-0.87-0.87-0.87
			C37.66,18.32,37.27,18.71,37.27,19.18z"/>
		<path class="st136" d="M39.74,21.4c-0.35,0-0.64,0.29-0.64,0.64c0,0.35,0.29,0.64,0.64,0.64c0.35,0,0.64-0.29,0.64-0.64
			C40.38,21.69,40.09,21.4,39.74,21.4z"/>
		<path class="st136" d="M38.08,15.9c0-0.2-0.1-0.65-0.26-0.87c0,1.22-0.88,1.71-1.66,1.71c-0.19,0-0.37-0.03-0.53-0.1
			c0.16-0.14,0.3-0.38,0.3-0.53c0-0.1-0.08-0.15-0.2-0.15c-0.1,0-0.27,0.04-0.42,0.04c-0.38,0-0.69-0.15-1.05-0.49
			c-0.24,0.34-0.35,0.8-0.35,1.24c0,0.73,0.28,1.43,0.6,1.48c0.18,0.01,0.16-0.5,0.42-0.5c0.08,0,0.41,0.22,1.06,0.22
			C36.99,17.95,38.08,17.38,38.08,15.9z"/>
		<path class="st136" d="M36.02,14.94c0,0.08,0.04,0.16,0.14,0.2c0.35,0.16,0.57,0.42,0.68,0.65c0.61-0.34,0.86-1.28,0.86-1.82
			c0-0.16,0-0.39-0.15-0.39c-0.11,0-0.24,0.14-0.38,0.14c-0.12,0-0.46-0.46-1.33-0.46c-0.99,0-1.4,0.73-1.4,1.33
			c0,0.16,0.04,0.33,0.1,0.46c0.08-0.38,0.49-0.8,1.09-0.8c0.19,0,0.6,0.09,0.71,0.27C36.15,14.61,36.02,14.8,36.02,14.94z"/>
		<path class="st136" d="M17.91,15.28c-0.3,0-0.54,0.25-0.54,0.54c0,0.3,0.24,0.54,0.54,0.54c0.3,0,0.54-0.24,0.54-0.54
			C18.46,15.53,18.21,15.28,17.91,15.28z"/>
		<path class="st136" d="M25.82,8.26c0,0.24,0.86,0.77,1.25,0.77c0.23,0,0.3-0.31,0.3-0.64c0-0.41-0.18-0.42-0.53-0.42
			C26.39,7.97,25.82,8.1,25.82,8.26z"/>
		<path class="st136" d="M29.78,35.19c-0.03-0.24-0.16-0.48-0.42-0.48c-0.2,0-0.35,0.15-0.35,0.38c0,0.22,0.15,0.39,0.15,0.63
			c0,0.12-0.04,0.26-0.15,0.39c-0.15-0.27-0.57-0.41-0.76-0.41c-1.4,0-0.87,2.02-2.37,2.02c-0.63,0-0.68-0.08-0.91-0.08
			c-0.1,0-0.15,0.04-0.15,0.12c0,0.35,0.5,1.22,1.9,1.22c1.4,0,2.75-0.86,2.75-1.92c0-0.18-0.04-0.37-0.12-0.56
			c0.05-0.08,0.19-0.14,0.31-0.14c0.22,0,0.34,0.25,0.54,0.25c0.22,0,0.38-0.16,0.38-0.38c0-0.18-0.1-0.3-0.26-0.38
			c0.11-0.08,0.19-0.22,0.19-0.37c0-0.23-0.16-0.45-0.43-0.45C29.95,35.06,29.87,35.1,29.78,35.19z"/>
		<path class="st136" d="M26.39,26.09c0-0.58,0.98-1.02,0.98-1.96c0-0.54-0.53-1.21-1.25-1.6c0.12,0.23,0.19,0.54,0.19,0.72
			c0,1.07-2.07,1.54-2.07,2.4c0,1.07,2,1.54,2,2.04c0,0.16-0.1,0.27-0.31,0.27c-0.24,0-0.62-0.22-1-0.54
			c-0.43,0.42-0.72,1.01-0.72,1.67c0,1.35,1.41,2.47,2.79,2.47c0.23,0,0.45-0.04,0.69-0.1c-0.75-0.1-1.24-0.67-1.24-1.36
			c0-0.9,0.99-1.7,0.99-2.39C27.44,26.88,26.39,26.77,26.39,26.09z"/>
		<path class="st136" d="M28.53,31.54c0,0.37-0.64,0.72-1.51,0.72c-0.96,0-1.63-0.16-2.24-0.77c-0.16-0.16-0.23-0.33-0.44-0.33
			c-0.23,0-0.33,0.41-0.33,0.77c0,1.33,1.26,2.91,3.03,2.91c2.2,0,3.06-1.52,3.06-2.75c0-0.72-0.16-1.4-1.37-1.85
			c-0.61-0.23-0.9-0.6-1.02-1.31c-0.3,0.42-0.45,0.82-0.45,1.05C27.26,30.91,28.53,30.93,28.53,31.54z M29.14,32.15
			c0.12,0,0.23,0.08,0.23,0.27c0,0.71-0.77,1.54-1.26,1.54c-0.19,0-0.22-0.1-0.22-0.26c0-0.12,0.04-0.35,0.04-0.53
			c0-0.47,0.18-0.46,0.65-0.65C28.91,32.37,29.03,32.15,29.14,32.15z"/>
		<path class="st136" d="M20.85,39.64c1.98,0,2.47-1.37,2.47-2.3c0-2.05-1.26-3.49-2.91-3.49c-0.9,0-1.7,0.65-1.7,1.62
			c0,0.9,0.68,2.24,2.3,2.24c0.76,0,1.21-0.54,1.21-1.17c0-0.61-0.56-1.45-1.37-1.45c-0.24,0-0.42,0.16-0.42,0.42
			c0,0.33,0.45,0.65,1.01,0.65c0.14,0,0.24-0.03,0.3-0.05c0.03,0.04,0.04,0.11,0.04,0.16c0,0.31-0.3,0.5-0.76,0.5
			c-0.69,0-1.36-0.52-1.36-1.33c0-0.49,0.42-0.84,1.03-0.84c1.21,0,1.93,1.07,1.93,2.15c0,0.97-0.53,1.52-1.62,1.52
			c-2.17,0-3.23-1.96-2.76-3.94c-0.45,0.11-1.17,0.82-1.17,1.93C17.07,37.59,18.5,39.64,20.85,39.64z"/>
		<path class="st136" d="M21.72,31.95c-0.48,0-1.01,0.26-1.01,0.64c0,0.23,0.12,0.39,0.99,0.61c1.09,0.27,1.63,0.86,1.74,1.55
			c0.11,0.67,0.24,1.21,0.5,1.48c0.34,0.38,1.01,0.72,1.59,0.72c0.49,0,0.88-0.16,0.88-0.61c0-0.49-0.67-1.59-1.64-1.59
			c-0.09,0-0.22,0.01-0.35,0.01c-0.12,0-0.3-0.03-0.41-0.12c-0.22-0.19-0.29-1.21-0.69-1.82C22.87,32.14,22.39,31.95,21.72,31.95z
			 M24.82,35.25c0.34,0,0.95,0.42,0.95,0.78c0,0.09-0.07,0.22-0.27,0.22c-0.41,0-1.02-0.44-1.02-0.68
			C24.48,35.36,24.67,35.25,24.82,35.25z"/>
		<path class="st136" d="M17.94,28.38c-0.31,0-0.39-0.29-0.5-0.29c-0.08,0-0.12,0.25-0.12,0.31c0,0.5,0.37,0.79,0.73,0.79
			c0.57,0,1.05-0.42,1.05-1.36v-1.39c0-0.53,0.04-1.13,0.39-1.55c-0.04,0.18-0.04,0.37-0.04,0.54c0,1.17,0.65,1.97,0.65,3.1
			c0,0.42-0.12,0.65-0.45,0.65c-0.31,0-0.29-0.29-0.35-0.29c-0.05,0-0.14,0.18-0.14,0.37c0,0.29,0.2,0.73,0.77,0.73
			c0.49,0,0.88-0.45,0.88-0.95c0-1.22-0.95-2.58-0.95-3.89c0-0.57,0.15-0.95,0.27-1.25c0,2.7,2.3,4.68,2.3,5.8
			c0,0.26-0.19,0.46-0.48,0.46c-0.31,0-0.46-0.25-0.46-0.44c0-0.1-0.01-0.12-0.05-0.12c-0.08,0-0.33,0.27-0.33,0.63
			c0,0.45,0.37,0.99,1.05,0.99c0.77,0,1.2-0.65,1.2-1.24c0-1.43-2.79-3.59-2.79-5.9c0-0.39,0.07-1.03,0.35-1.52
			c-1.79,1.15-2.35,2.69-2.35,4.04C18.58,27.8,18.54,28.38,17.94,28.38z"/>
		<path class="st136" d="M19.37,23.09c0.48-1.06,1.74-1.53,2.55-1.53c0.16,0,0.29,0.01,0.38,0.03c-0.42,0.38-0.52,1.05-0.54,1.49
			c-0.01,0.22-0.1,0.23-0.24,0.23c0,0.45,0.35,1.11,0.35,1.45c0,0.12-0.07,0.23-0.14,0.26c0,0.6,0.6,1.03,0.6,1.41
			c0,0.1-0.03,0.18-0.07,0.22c0.04,0.24,0.69,0.67,0.77,0.84c0.14,0.29,0.23,0.31,0.3,0.31c0.23,0,0.6-0.27,0.6-0.52
			c0-0.08-0.07-0.18-0.12-0.22c-0.26-0.19-0.39-0.6-0.5-0.87c-0.1,0-0.22-0.05-0.26-0.19c-0.05-0.18-0.08-0.81-0.19-1.13
			c-0.18-0.04-0.26-0.11-0.26-0.48c0-0.18,0.11-0.87,0.11-1.11c-0.08,0-0.19-0.05-0.19-0.22c0-0.43,0.44-0.77,0.56-1.33
			c0.77,0.57,0.96,1.15,0.96,1.67c0,0.27-0.04,0.53-0.1,0.77c0.57-0.29,1.43-0.71,1.43-1.56c0-0.5-0.23-1.06-1.77-1.28
			c0.48-0.18,1.07-0.27,1.58-0.27c0.87,0,1.37,0.27,1.48,0.88c0.18-0.27,0.31-0.58,0.31-0.87c0-0.67-0.56-1.1-1.26-1.1
			c-0.83,0-1.56,0.43-2.35,0.96c0.35-0.73,0.6-1.17,1.03-1.17c0.07,0,0.14,0.01,0.2,0.03c-0.16-0.6-0.77-1.18-1.1-1.18
			c-0.58,0-0.61,0.71-0.61,2.13c-0.44-0.94-1.16-1.94-2-1.94c-0.57,0-0.79,0.38-0.79,1.05c0,0.14,0.01,0.34,0.04,0.46
			C20.21,20.1,20.43,20,20.7,20c0.58,0,1.29,0.45,1.75,1.06c-0.53-0.09-1.05-0.19-1.48-0.19c-0.27,0-0.52,0.03-0.72,0.12
			c-0.39,0.18-0.92,0.76-0.92,1.64C19.33,22.77,19.34,22.92,19.37,23.09z"/>
		<path class="st136" d="M17.26,8.48c0.3,0,0.77-0.14,1.11-0.14c0.19,0,0.37,0.04,0.37,0.22c0,0.34-0.73,0.95-0.73,1.22
			c0,0.08,0.07,0.11,0.14,0.11c0.27,0,0.73-0.69,1.17-0.69c0.72,0,0.25,1.54,0.64,1.54c0.41,0,0.23-1.51,0.82-1.51
			c0.48,0,0.83,1.05,1.16,1.05c0.08,0,0.15-0.07,0.15-0.16c0-0.28-0.41-0.87-0.41-1.25c0-0.23,0.16-0.34,0.38-0.34
			c0.31,0,0.73,0.19,0.97,0.19c0.08,0,0.16-0.03,0.16-0.12c0-0.33-1.21-0.68-1.21-1.1c0-0.42,0.67-0.42,0.67-0.61
			c0-0.08-0.41-0.16-0.97-0.16c-0.88,0-0.76,0.73-1.44,0.73c-0.71,0-0.53-0.76-1.43-0.76c-0.54,0-1.05,0.09-1.05,0.22
			c0,0.16,0.64,0.1,0.64,0.54c0,0.48-1.37,0.61-1.37,0.9C17.02,8.43,17.13,8.48,17.26,8.48z"/>
		<path class="st136" d="M13.95,22.47c0.43,0,1.02-0.31,1.71-0.91c-0.53,0.12-0.94,0.2-1.3,0.2c-0.49,0-0.87-0.19-1.28-0.82
			C13.08,21.98,13.39,22.47,13.95,22.47z"/>
		<path class="st136" d="M45.37,34.65c0-1.68-1.22-2.43-2.33-2.43c-2,0-1.48,1.75-3.82,2.28c-0.44,0.09-0.56,0.23-0.56,0.42
			c0,0.35,0.2,0.82,0.45,0.82c1.02,0,2.6-2.11,2.88-2.11c0.11,0,0.24,0.01,0.24,0.3c0,0.76-2.2,1.77-2.2,2.31
			c0,0.32,0.77,1.02,1.54,1.02c1.1,0,2.09-2.26,2.32-2.26c0.18,0,0.24,0.14,0.24,0.27c0,0.61-0.75,1.81-2.05,2.32
			c-0.27,0.11-0.31,0.23-0.31,0.33c0,0.3,0.34,0.75,0.65,0.75C42.81,38.67,45.37,36.44,45.37,34.65z M43.95,34.16
			c-0.15,0-0.3-0.05-0.39-0.11c-0.18-0.08-0.49-0.34-0.49-0.75c0-0.37,0.2-0.52,0.39-0.52c0.58,0,1.2,0.52,1.2,0.94
			C44.66,34.05,44.35,34.16,43.95,34.16z"/>
		<path class="st136" d="M15.21,30.26c0.33,0.68,0.68,0.76,1.55,0.81c-0.53-0.46-0.6-0.84-0.6-1.21c0-0.72,0.72-2.01,1.18-2.91
			c0.6-1.16,1.28-2.88,1.28-3.62c0-0.31-0.12-0.46-0.26-0.46c-0.15,0-0.31,0.2-0.43,0.58c-0.22,0.73-0.9,2.2-1.24,2.2
			c-0.07,0-0.09-0.07-0.09-0.15c0-0.53,0.83-2.41,0.83-3.06c0-0.18-0.08-0.35-0.26-0.35c-0.56,0-1.13,3.11-1.45,3.11
			c-0.12,0-0.19-0.08-0.19-0.34c0-0.52,0.31-1.45,0.31-2.09c0-0.22-0.05-0.39-0.23-0.39c-0.75,0-0.65,2.83-1.11,2.83
			c-0.12,0-0.27-0.05-0.27-0.69c0-0.6,0.05-0.95,0.05-1.13c0-0.11-0.04-0.19-0.16-0.19c-0.42,0-0.76,1.51-0.76,3
			c0,1.69,0.33,2.73,0.75,2.73s1.02-1.02,1.02-1.4c0-0.16-0.1-0.27-0.2-0.45c-0.33-0.53-0.01-1.13,0.24-1.13
			c0.35,0,0.37,0.31,0.82,0.69c0.18,0.15,0.25,0.31,0.25,0.5c0,0.96-2.04,2.32-2.04,4.65c0,2.69,2.04,3.17,2.3,3.63
			C17.89,32.87,13.75,33.15,15.21,30.26z"/>
		<path class="st136" d="M13.13,9.25c0,0.41,2.66,0.03,2.66,0.45c0,0.46-2.32,2.46-2.32,3.13c0,0.15,0.11,0.22,0.26,0.22
			c0.71,0,2.54-1.34,3.04-1.34c0.18,0,0.19,0.22,0.19,0.41c0,0.35-0.12,0.9-0.12,1.29c0,0.31,0.08,0.53,0.35,0.53
			c0.5,0,0.96-0.86,1.3-0.86c0.44,0,0.18,2.51,0.83,2.51c0.56,0,0.79-2.72,1.14-2.72c0.35,0,0.64,0.79,0.97,0.79
			c0.41,0,0.22-1.37,0.65-1.37c0.48,0,1.83,1.63,2.45,1.63c0.19,0,0.26-0.15,0.26-0.34c0-0.72-1.01-2.35-1.01-2.87
			c0-0.14,0.04-0.18,0.19-0.18c0.53,0,2.08,0.73,2.81,0.73c0.24,0,0.39-0.14,0.39-0.31c0-0.82-2.23-2.32-2.23-2.94
			c0-0.03,0-0.04,0.01-0.07c0.16-0.45,2.01-0.76,2.01-1.13c0-0.18-0.33-0.18-0.49-0.18c-1.26,0-3.11,0.46-3.11,0.91
			c0,0.46,1.66,1.59,1.66,2.15c0,0.15-0.09,0.2-0.24,0.2c-0.46,0-1.47-0.56-1.94-0.56c-0.22,0-0.3,0.15-0.3,0.37
			c0,0.65,0.77,1.89,0.77,2.26c0,0.04-0.01,0.1-0.07,0.1c-0.24,0-1.4-1.36-1.81-1.36c-0.15,0-0.16,0.2-0.16,0.5v0.46
			c0,0.31-0.01,0.5-0.16,0.5c-0.35,0-0.52-0.99-0.86-0.99c-0.35,0-0.42,1.77-0.76,1.77c-0.39,0-0.05-1.94-0.44-1.94
			c-0.42,0-0.9,1.29-1.2,1.29c-0.11,0-0.14-0.11-0.14-0.2c0-0.39,0.23-1.03,0.23-1.41c0-0.19-0.05-0.3-0.22-0.3
			c-0.46,0-1.51,0.81-1.78,0.66c-0.03-0.01-0.05-0.05-0.04-0.08c0.04-0.34,1.48-1.35,1.48-1.81c0-0.45-2.04-0.15-2.04-0.67
			c0-0.43,1.45-0.88,1.45-1.33c0-0.39-1.73-0.57-2.39-0.57c-0.8,0-1.24,0.09-1.24,0.33c0,0.35,1.82,0.46,1.82,0.78
			C15.02,7.99,13.13,8.79,13.13,9.25z"/>
		<path class="st136" d="M14.22,16.11c0.49,0,0.88-0.3,0.88-0.3c-0.79-0.23-1.22-0.82-1.22-1.59c0-0.08,0-0.15,0.01-0.23
			c-0.5,0.22-0.72,0.65-0.72,1.07C13.17,15.68,13.63,16.11,14.22,16.11z"/>
		<path class="st136" d="M14.42,10.01c-0.31,0-0.72,0.08-0.9,0.24c-0.15,0.12-0.27,0.5-0.27,0.78c0,0.15,0.04,0.31,0.18,0.31
			c0.37,0,1.4-0.91,1.4-1.18C14.83,10.05,14.61,10.01,14.42,10.01z"/>
		<path class="st136" d="M35.97,27.43c0.16,0,0.22,0.11,0.22,0.18c0,0.23-0.39,0.61-0.39,0.99c0,0.48,0.56,0.76,0.92,0.76
			c0.43,0,0.6-0.16,0.6-0.43c0-0.34-0.6-0.79-0.6-1.16c0-0.2,0.19-0.23,0.45-0.23c0.54,0,0.75,0.08,0.75,0.2
			c0,0.16-0.23,0.45-0.23,0.54c0,0.05,0.03,0.15,0.16,0.15c0.45,0,2-0.31,2-0.63c0-0.34-1.47-1.45-1.77-1.45
			c-0.07,0-0.11,0.05-0.11,0.11c0,0.1,0.03,0.24,0.03,0.38c0,0.24-0.09,0.29-0.38,0.29c-0.31,0-0.79-0.11-0.79-0.58
			c0-0.95,1.79-0.72,1.97-1.59c-0.78,0-1.17-0.53-1.69-0.53c-0.2,0-0.54,0.11-0.54,0.59c0,0.15,0.05,0.42,0.05,0.64
			c0,0.22-0.05,0.38-0.29,0.38c-0.23,0-0.26-0.26-0.26-0.56c0-0.26,0.05-0.56,0.05-0.76c0-1.4-1.55-0.81-1.7-1.97
			c-0.37,0.68-0.5,1.17-0.5,1.56c0,1.45,1.98,1.3,1.98,2.34c0,0.24-0.19,0.41-0.37,0.41c-0.33,0-0.57-0.71-1.07-0.71
			c-0.27,0-0.46,0.2-0.46,0.61c0,0.31,0.07,0.54,0.07,0.83c0,0.58-0.24,0.87-0.53,1.13C35.34,28.76,35.47,27.43,35.97,27.43z"/>
		<path class="st136" d="M34.56,37.35c2.45,0,3.61-1.97,3.63-3.47c-0.45,0.41-1.66,0.53-2.28,0.53c-1.88,0-2.37-0.95-2.62-0.95
			c-0.26,0-0.26,0.42-0.26,0.57c0,0.15-0.01,0.2-0.09,0.2c-0.1,0-0.2-0.06-0.29-0.06c-0.08,0-0.14,0.07-0.14,0.19
			c0,0.57,0.72,0.99,1.45,0.99c0.94,0,1.4-0.39,1.64-0.39c0.11,0,0.16,0.12,0.16,0.19c0,0.15-0.16,0.33-0.16,0.42
			c0,0.22,0.46,0.04,0.46,0.3c0,0.33-0.56,0.61-1.43,0.61c-1.68,0-2.8-1.17-2.8-2.24c0-2.02,2.19-1.37,2.19-2.16
			c0-0.27-0.26-0.39-0.43-0.42c0.24-0.29,0.54-0.35,0.84-0.35c0.23,0,0.45,0.04,0.64,0.04c0.26,0,0.53-0.09,0.53-0.39
			c0-0.18-0.15-0.39-0.77-0.48c0.07-0.42,0.95-0.2,0.95-0.56c0-0.26-0.5-0.46-1.1-0.46c-2.32,0-4.02,1.89-4.02,3.97
			C30.66,35.32,32.02,37.35,34.56,37.35z"/>
		<path class="st136" d="M15.92,20.69c0,0.49,0.38,0.8,0.86,0.8c0.24,0,0.42-0.05,0.53-0.14c-0.38-0.37-0.52-0.78-0.52-1.18
			c0-0.29,0.04-0.46,0.1-0.63C16.57,19.63,15.92,20.01,15.92,20.69z"/>
		<path class="st136" d="M16.36,32.37c0.05,0.46,0.49,0.81,0.98,0.76c0.18-0.01,0.34-0.07,0.45-0.14c0.11,0.44,0.45,0.71,0.95,0.65
			c0.5-0.04,0.86-0.46,0.8-0.96c0-0.14-0.04-0.22-0.08-0.31l0.1-0.01c0.48-0.05,0.84-0.49,0.8-0.97c-0.05-0.49-0.5-0.84-0.96-0.8
			c-0.18,0.04-0.33,0.09-0.43,0.19c-0.12-0.41-0.48-0.73-0.98-0.68c-0.48,0.03-0.84,0.49-0.79,0.99c0,0.07,0.03,0.18,0.07,0.27
			l-0.1,0.01C16.69,31.44,16.32,31.84,16.36,32.37z M18.33,31.39c0.29-0.04,0.54,0.18,0.57,0.46c0.03,0.29-0.18,0.53-0.46,0.57
			c-0.28,0.01-0.54-0.19-0.57-0.48C17.86,31.67,18.05,31.42,18.33,31.39z"/>
		<path class="st136" d="M27.32,13.48c0-0.11-0.03-0.22-0.08-0.3c-0.24-0.34-1.97-1.7-2.35-1.7c-0.04,0-0.07,0.04-0.07,0.08
			c0,0.48,1.7,2.8,2.02,2.8C27.11,14.36,27.32,13.88,27.32,13.48z"/>
		<path class="st136" d="M35.19,33.75c0.38,0,0.64-0.3,0.64-0.65c0-0.52-0.53-1.02-1.32-1.02c0.14,0.14,0.18,0.27,0.18,0.41
			c0,0.2-0.1,0.42-0.1,0.65C34.59,33.47,34.83,33.75,35.19,33.75z"/>
		<path class="st136" d="M33.77,10.81c0,0.23,0.93,0.07,0.93,0.35c0,0.29-0.68,1.24-0.68,1.51c0,0.07,0.01,0.07,0.07,0.07
			c0.26,0,1.03-0.88,1.22-0.88c0.22,0,0.26,0.53,0.3,0.84c0.03,0.16,0.05,0.18,0.12,0.18c0.16,0,0.42-0.63,0.6-0.63
			c0.26,0,0.95,0.72,2.11,0.72c1.64,0,3.19-1.16,3.19-3.19c0-1.97-1.39-3.13-3.3-3.13c-0.91,0-1.58,0.45-1.93,0.45
			c-0.22,0.01-0.54-0.53-0.71-0.53c-0.07,0-0.14,0.14-0.14,0.37c0,0.15,0,0.63-0.16,0.63c-0.33,0-1.59-0.94-1.59-0.6
			c0,0.31,0.84,1.26,0.84,1.51c0,0.24-0.83,0.48-0.83,0.64c0,0.3,0.88,0.35,0.88,0.73C34.7,10.23,33.77,10.53,33.77,10.81z
			 M38.31,7.29c1.34,0,2.15,0.92,2.15,2.47c0,1.96-1.37,2.45-2.11,2.45c-0.95,0-1.58-0.48-1.58-0.72c0-0.12,0.08-0.2,0.19-0.2
			c0.3,0,0.95,0.46,1.17,0.46c0.05,0,0.09-0.03,0.09-0.11c0-0.24-0.23-0.65-0.23-0.86c0-0.05,0.04-0.09,0.12-0.09
			c0.37,0,0.91,0.15,1.2,0.15c0.1,0,0.12-0.05,0.12-0.11c0-0.3-0.88-0.88-0.88-1.06c0-0.16,1.1-0.41,1.1-0.67
			c0-0.27-1.49-0.08-1.49-0.34c0-0.19,0.29-0.52,0.29-0.66c0-0.07-0.05-0.1-0.15-0.1c-0.12,0-0.78,0.26-1.05,0.26
			c-0.14,0-0.3-0.03-0.3-0.22C36.95,7.63,37.48,7.29,38.31,7.29z M35.17,9.03c0-0.03,0.03-0.04,0.07-0.04
			c0.15,0,0.41,0.05,0.61,0.05c0.18,0,0.2-0.76,0.34-0.76c0.09,0,0.26,0.72,0.41,0.72c0.18,0,0.5-0.2,0.64-0.2
			c0.03,0,0.05,0.01,0.05,0.04c0,0.1-0.34,0.46-0.34,0.57c0,0.12,0.76,0.27,0.76,0.38c0,0.14-0.78,0.12-0.78,0.24
			c0,0.1,0.29,0.48,0.29,0.6c0,0.03-0.01,0.04-0.04,0.04c-0.11,0-0.53-0.19-0.65-0.19c-0.15,0-0.39,0.56-0.52,0.56
			c-0.04,0-0.07-0.06-0.07-0.12l-0.03-0.54c0-0.05-0.03-0.11-0.09-0.11c-0.16,0-0.48-0.01-0.57-0.01c-0.07,0-0.09-0.01-0.09-0.04
			c0-0.11,0.54-0.49,0.54-0.58C35.7,9.48,35.17,9.2,35.17,9.03z"/>
		<path class="st136" d="M27.64,39.34c-0.09,0.8-0.72,1-1.21,1c-0.35,0-0.91-0.12-0.94-0.26c-0.2-1.15-1.07-1.81-1.45-1.96
			c0.01,0.12,0.03,0.26,0.03,0.38c0,0.98-0.67,1.59-1.92,1.59c-0.2,0-0.46-0.01-0.65-0.05c1.43,1.59,2.45,1.01,3.11,1.31
			c0.87,0.39,1.58,1.6,4.36,1.6c1.02,0,2.05-0.39,2.73-0.83c0.12,0.41,0.54,0.77,1.24,0.77c1.18,0,1.85-0.37,1.85-0.67
			c0-0.08-0.01-0.2-0.22-0.2c-0.2,0-0.16,0.05-0.82,0.05h-0.01c-0.76,0-1.97-0.3-2.53-1.6c-0.1-0.22-0.26-0.22-0.31-0.22
			c-0.38,0-0.96,1.35-3.36,1.35c-1.01,0-1.47-0.37-1.47-0.46c0-0.01,0-0.03,0.05-0.03c0.1,0,0.46,0.04,0.92,0.04
			c1.51,0,2.73-0.69,3.46-1.49c0.26-0.28,0.38-0.33,0.6-0.33c0.19,0,0.39,0.16,0.49,0.42c0.34,0.87,1.11,1.56,1.96,1.56
			c1.14,0,1.16-1.96,1.43-2.05c0.04,0.01,0.11,0.03,0.16,0.03c0.13,0,0.35-0.09,0.35-0.35c0-0.27-0.34-0.35-0.41-0.49
			c-0.14-0.26-0.03-0.71-0.44-0.71c-0.27,0-0.3,0.22-0.33,0.39c-0.59-0.18-1.07-0.26-1.51-0.26c-0.31,0-0.58,0.04-0.82,0.12
			c-0.16-0.27-0.83-0.8-1.41-0.99C30.37,38.24,29.28,39.21,27.64,39.34z M33.24,39.03c0.3,0,0.54,0.24,0.54,0.54
			c0,0.3-0.24,0.54-0.54,0.54c-0.3,0-0.54-0.24-0.54-0.54C32.7,39.27,32.94,39.03,33.24,39.03z"/>
		<path class="st136" d="M20.85,17.04c-0.67,0-0.37-1.11-0.71-1.11c-0.28,0-0.37,0.6-0.37,0.83c0,0.78,0.5,1.59,1.62,1.59
			c1.2,0,1.86-0.56,2.58-1.32c0.14,0.82,0.58,2.22,1.78,2.22c0.65,0,1.11-0.54,1.17-1.17c-0.08,0.08-0.2,0.15-0.34,0.15
			c-0.25,0-0.3-0.35-0.3-0.67c0-0.5,0.15-1.05,0.38-1.05c0.12,0,0.19,0.08,0.22,0.45c0.03,0.29,0,0.6,0.18,0.6
			c0.18,0,0.29-0.56,0.29-0.94c0-0.87-0.41-1.64-1.3-1.64c-0.69,0-1.33,0.58-1.79,1.35c0.03-0.15,0.04-0.31,0.04-0.46
			c0-1.06-0.57-2.01-1.64-2.01c-0.87,0-1.66,0.5-1.98,1.48c0.1-0.09,0.38-0.27,0.61-0.27c0.27,0,0.35,0.23,0.35,0.6
			c0,0.24-0.05,0.53-0.15,0.8C21.31,16.9,21.01,17.04,20.85,17.04z M25.96,15.86c0.08,0,0.11,0.19,0.11,0.37
			c0,0.82-0.38,2.12-0.72,2.12c-0.08,0-0.15-0.12-0.15-0.41C25.2,17.2,25.67,15.86,25.96,15.86z M24.89,16.29
			c0.05,0,0.11,0.05,0.11,0.29c0,0.48-0.22,0.95-0.37,0.95c-0.14,0-0.22-0.22-0.24-0.71C24.6,16.45,24.75,16.29,24.89,16.29z
			 M23.58,15.46c0.16,0,0.27,0.3,0.27,0.57c0,0.2,0,0.37-0.03,0.54c-0.35,0.39-0.54,0.56-0.69,0.56c-0.08,0-0.16-0.14-0.16-0.3
			C22.97,16.55,23.17,15.46,23.58,15.46z M22.87,14.48c0.09,0,0.14,0.08,0.14,0.19c0,0.42-0.53,2.92-0.99,2.92
			c-0.12,0-0.15-0.11-0.15-0.2C21.87,16.86,22.45,14.48,22.87,14.48z"/>
		<path class="st136" d="M18.08,17.05c0,0.3,0.24,0.54,0.54,0.54c0.3,0,0.54-0.24,0.54-0.54c0-0.3-0.24-0.54-0.54-0.54
			C18.32,16.51,18.08,16.75,18.08,17.05z"/>
		<path class="st136" d="M18.54,21.33c0.67,0,0.98-0.57,0.98-1.15c0-0.91-0.83-1.55-1.51-1.75c-0.3,0.35-0.61,0.95-0.61,1.56
			C17.4,20.72,17.85,21.33,18.54,21.33z"/>
		<path class="st136" d="M16.72,14.73c0-0.65-0.3-1.64-1.22-1.64c-0.53,0-0.91,0.42-0.91,0.92c0,1.07,1.07,1.51,2.01,1.51
			C16.66,15.3,16.72,15.03,16.72,14.73z"/>
		<path class="st136" d="M13.55,19.74c-0.01,0.07-0.01,0.14-0.01,0.2c0,0.64,0.34,0.99,0.79,0.99c0.34,0,0.73-0.2,1.09-0.65
			c-0.15,0.03-0.33,0.04-0.49,0.04C14.42,20.33,13.88,20.19,13.55,19.74z"/>
		<path class="st136" d="M17.29,16.89c-0.19-0.28-0.1-0.39-0.22-0.56c-0.08-0.07-0.26-0.07-0.5-0.09c-0.08-0.01-0.19-0.01-0.3-0.01
			c-0.45,0-1.05,0.08-1.58,0.43c-1.2,0.77-1.01,2-1.2,2.31c-0.03,0.04-0.04,0.1-0.04,0.15c0,0.12,0.14,0.26,0.26,0.26
			c0.11,0,0.18-0.03,0.23-0.03c0.33,0,0.69,0.23,1.22,0.23c0.31,0,0.68-0.1,1.14-0.33c0.98-0.49,1.36-1.7,1.36-1.9
			C17.67,17.09,17.47,17.13,17.29,16.89z M15.44,18.94c-0.45,0-0.94-0.56-0.94-1.06c0-0.27,0.2-0.61,0.35-0.61
			c0.05,0,0.08,0.04,0.1,0.14c0.08,0.67,0.52,1.05,0.92,1.24c0.04,0.03,0.07,0.04,0.07,0.07C15.94,18.8,15.68,18.94,15.44,18.94z
			 M16.72,18.1c-0.47,0-0.86-0.72-0.86-1.13c0-0.26,0.15-0.28,0.35-0.28c0.09,0,0.14,0.01,0.2,0.05c0.12,0.07,0.12,0.34,0.27,0.54
			c0.08,0.14,0.35,0.29,0.35,0.38C17.04,17.85,16.93,18.1,16.72,18.1z"/>
		<path class="st136" d="M52.41,50.22c-2.41,0-2.92,3.61-3.3,3.61c-0.64,0-0.44-2.89-0.9-2.89c-0.41,0-0.62,0.49-0.67,0.72
			c-0.33,1.33-1.28,3.25-2.71,3.25c-0.33,0-0.92-0.13-0.92-0.46c0-0.36,2.25-0.41,2.25-2.13c0-0.64-0.59-1.54-1.46-1.54
			c-1.15,0-2.28,1.26-2.28,3c0,1.56,0.97,2.08,1.94,2.08c1.69,0,2.72-1.39,3.25-2.54c0.26,0.77,0.41,2.54,1.05,2.54
			c0.26,0,0.44-0.13,0.74-0.82c0.77-1.72,1.51-3.69,2.54-3.69c0.38,0,0.15,0.69,1.07,0.69c0.44,0,0.74-0.36,0.74-0.77
			C53.76,50.68,53.23,50.22,52.41,50.22z M44.36,51.81c0.54,0,0.69,0.64,0.56,1.02c-0.13,0.38-0.59,0.82-1.31,0.95
			C43.47,53.39,43.39,51.81,44.36,51.81z"/>
		<path class="st136" d="M24.69,47.92c0,0.38,0.28,0.77,0.77,0.77c0.56,0,0.97-0.64,0.92-1.23c-0.02-0.41-0.36-0.69-0.79-0.69
			C25.1,46.76,24.64,47.27,24.69,47.92z"/>
		<path class="st136" d="M15.26,47.3c-0.39,0.13-0.85,0.59-0.74,1.56c0.08,0.38,0.28,0.9,0.36,1.13c0.13,0.41,0.28,1.05,0.08,2.38
			c-0.26,1.67-0.87,2.82-2.25,2.79c-0.92,0-1.77-0.72-1.87-2.56c-0.1-1.74,0.03-2.49,0.31-4.02c0.13-0.69,0.18-1.28-0.39-1.18
			c-0.72,0.15-0.92,0.44-1.15,1.23c-0.44,1.48-0.49,2.53-0.46,3.59c0.1,2.23,1.1,3.69,3.36,3.74c2.61,0.05,3.66-2.49,3.76-4.59
			c0.08-1.54,0.05-2.61-0.18-3.43C15.9,47.4,15.72,47.17,15.26,47.3z"/>
		<path class="st136" d="M41.52,50.35c-0.59,0-1.03,0.69-1.03,1.51c0,0.74,0.18,0.8,0.18,1.31c0,0.69-0.36,1.59-0.79,1.59
			c-1.02,0-1.28-4.05-1.9-4.05c-0.36,0-0.54,0.43-0.64,0.74c-0.56,1.62-1.33,3.38-2.79,3.38c-0.28,0-0.61-0.13-0.79-0.31
			c1.02-0.64,1.71-1.31,1.71-2.13c0-0.69-0.46-1.74-1.25-1.74c-1,0-2.15,1.51-2.15,3.3c0,0.33,0.05,0.56,0.1,0.74
			c-0.08,0.1-0.39,0.23-0.64,0.23c-0.69,0-1.42-0.73-1.51-1.17c0.51-1.11,1.55-2.4,1.36-5.5c-0.07-1.17-0.68-1.9-1.45-1.85
			c-1.05,0.06-2,2.4-1.85,4.88c0.03,0.49,0.24,1.82,0.54,2.48c-0.52,0.83-1.18,0.96-1.56,0.96c-0.54,0-1.36-0.31-1.36-1.56
			c0.39-1.05,0.13-2.25-0.41-2.25c-0.77,0-1.02,1.36-1.05,2.3c-0.25,0.56-0.54,1.02-0.92,1.02c-1.15,0-1.25-3.59-2.1-3.59
			c-0.69,0-1.88,2.28-2.24,2.28c-0.2,0-0.39-0.64-0.51-1.28c-0.04-0.18-0.07-0.39-0.19-0.4c-0.23-0.02-0.51,0.17-0.62,0.45
			c-0.11,0.27-0.3,1.13-0.5,1.9c-0.12,0.45-0.43,1.4-0.47,1.75c-0.03,0.26,0.08,0.45,0.34,0.48c0.64,0.07,2.98-2.82,3.73-2.82
			c0.95,0,1.18,2.84,2.25,2.84c0.64,0,1.23-1.64,1.61-1.64c0.43,0,0.64,1.64,1.87,1.64c1.54,0,2.05-1,2.51-1
			c0.38,0,0.79,0.97,1.74,0.97c0.59,0,1.1-0.18,1.72-0.59c0.36,0.41,0.79,0.62,1.2,0.62c2.53,0,3.25-2.28,3.77-2.28
			c0.46,0,0.36,2.26,1.66,2.26c1.74,0,2.92-3.05,2.92-4.69C42.01,50.71,41.88,50.35,41.52,50.35z M29.69,52.53
			c-0.15,0.01-0.32-0.16-0.38-1.26c-0.1-1.69,0.13-3.29,0.64-3.32c0.38-0.03,0.56,0.3,0.6,1.01C30.65,50.54,29.97,52.51,29.69,52.53
			z M33.4,54.04c-0.1-0.13-0.33-0.44-0.33-1.08c0-0.82,0.54-1.08,0.77-1.08c0.28,0,0.51,0.36,0.51,0.79
			C34.35,53.19,34.14,53.81,33.4,54.04z"/>
	</g>
</g>
</svg>
