<?xml version="1.0" encoding="utf-8"?>
<!-- Generator: Adobe Illustrator 26.0.2, SVG Export Plug-In . SVG Version: 6.00 Build 0)  -->
<svg version="1.1" id="Calque_1" xmlns="http://www.w3.org/2000/svg" xmlns:xlink="http://www.w3.org/1999/xlink" x="0px" y="0px"
	 viewBox="0 0 83.71 70.75" style="enable-background:new 0 0 83.71 70.75;" xml:space="preserve">
<style type="text/css">
	.st0{fill:#FFFFFF;}
	.st1{opacity:0.35;fill:url(#SVGID_1_);}
	.st2{opacity:0.35;}
	.st3{opacity:0.25;fill:url(#SVGID_00000182491913535565927260000012947493730301342875_);}
	.st4{opacity:0.27;fill:url(#SVGID_00000093891467191879118070000004123352000056889512_);}
	.st5{opacity:0.17;fill:url(#SVGID_00000097498107589738682590000011343978644669710982_);}
	.st6{opacity:0.62;fill:url(#SVGID_00000123409608120050022150000001243058021420586427_);}
	.st7{opacity:0.37;fill:url(#SVGID_00000031899933009515592480000014084160789582143145_);}
	.st8{opacity:0.47;fill:url(#SVGID_00000012451424880568217490000009015314057950568588_);}
	.st9{opacity:0.47;fill:url(#SVGID_00000160913457789186157720000016403939563278858158_);}
	.st10{opacity:0.47;fill:url(#SVGID_00000006690316977096511230000013220255658681282226_);}
	.st11{opacity:0.48;fill:url(#SVGID_00000062892718079452525000000017093819778014294156_);}
	.st12{opacity:0.48;fill:url(#SVGID_00000047042491622131649550000014900651634467682729_);}
	.st13{opacity:0.4;fill:url(#SVGID_00000150816035872806974930000018273356871127875765_);}
	.st14{fill:#3A63A4;}
	.st15{fill:#CCD35F;}
	.st16{fill:#4B4392;}
	.st17{fill:#2CA696;}
	.st18{fill:#D71158;}
	.st19{fill:#F9BB5A;}
	.st20{fill:#EFB349;}
	.st21{fill:#EC6C44;}
	.st22{fill:#25B1A2;}
	.st23{fill:#CB3580;}
	.st24{fill:#F8DC91;}
	.st25{fill:#C2367E;}
	.st26{fill:#289BB9;}
	.st27{fill:#CC1640;}
	.st28{fill:#4069A8;}
	.st29{fill:#EF8054;}
	.st30{fill:#1B9361;}
	.st31{fill:#1E9CC0;}
	.st32{fill:#8E4794;}
	.st33{fill:#F9B958;}
	.st34{fill:#DF0C1A;}
	.st35{fill:#002D74;}
	.st36{fill:#0069A8;}
	.st37{fill:#15A3DD;}
	.st38{fill:#19A3DD;}
	.st39{fill-rule:evenodd;clip-rule:evenodd;fill:#4AA334;}
	.st40{fill-rule:evenodd;clip-rule:evenodd;fill:#FFFFFF;}
	.st41{fill:#263780;}
	.st42{fill:url(#SVGID_00000019650863433064391240000005725198211352874389_);}
	.st43{fill:url(#SVGID_00000170259064512718941900000008872367903230253480_);}
	.st44{fill:url(#SVGID_00000054958576462912003100000005617620591881550011_);}
	.st45{fill:url(#SVGID_00000057125034288525315410000015646490932506690454_);}
	.st46{fill:url(#SVGID_00000135660040886540649560000008776869709490745221_);}
	.st47{fill:url(#SVGID_00000147196818697901051810000011265564607870890643_);}
	.st48{fill:#AFB6BD;}
	.st49{fill:#31295C;}
	.st50{fill:url(#SVGID_00000181787205000928731080000010545410720167578273_);}
	.st51{fill:url(#SVGID_00000087384319346672842800000012886600305939812540_);}
	.st52{fill:url(#SVGID_00000137820253582185820910000007159913628337504158_);}
	.st53{fill:url(#SVGID_00000173840418556834172140000004321383160497790609_);}
	.st54{fill:url(#SVGID_00000000922072958480177070000012445892121283436957_);}
	.st55{fill:url(#SVGID_00000047746866583046746630000007385418921852584603_);}
	.st56{fill:url(#SVGID_00000065063976150889367840000014060544303644366990_);}
	.st57{fill:url(#SVGID_00000019680413234253709420000005546650306978619057_);}
	.st58{fill:url(#SVGID_00000171692330756897634880000002050664676621651131_);}
	.st59{fill:url(#SVGID_00000083786599827682558160000010774005040022088320_);}
	.st60{fill:url(#SVGID_00000154422213306386314680000013311576810038897034_);}
	.st61{fill:url(#SVGID_00000101783944641432955850000006010697639115612065_);}
	.st62{fill:url(#SVGID_00000036947627768700685160000010193583698731707067_);}
	.st63{fill:url(#SVGID_00000060022363634890195420000006864566224401638837_);}
	.st64{fill:#312782;}
	.st65{fill:#6461A8;}
	.st66{fill:#747473;}
	.st67{fill:#CAC9C9;}
	.st68{fill-rule:evenodd;clip-rule:evenodd;fill:#D81A16;stroke:#1D1D1B;stroke-width:0.25;stroke-miterlimit:10;}
	.st69{fill:none;stroke:#1D1D1B;stroke-width:0.25;stroke-miterlimit:10;}
	.st70{fill:#12110C;}
	.st71{fill:#1D1D1B;}
	.st72{fill:#EF8328;}
	.st73{fill:url(#SVGID_00000065780908430028959400000007877648830993778844_);}
	.st74{fill:url(#SVGID_00000101070041771535382070000016779055809192849812_);}
	.st75{fill:url(#SVGID_00000098918526403699200750000004080681393883632289_);}
	.st76{fill:url(#SVGID_00000119084434528420337140000009645930625166897029_);}
	.st77{opacity:0.6;}
	.st78{fill:url(#SVGID_00000109009785339045407460000012012800243169326527_);}
	.st79{fill:url(#SVGID_00000119076625396711421550000007723515114552356013_);}
	.st80{fill:url(#SVGID_00000099656217491435165150000016884474786679760821_);}
	.st81{fill:url(#SVGID_00000091005265554994496840000007328372421265510574_);}
	.st82{fill:url(#SVGID_00000034806937243815769790000007515702618973557935_);}
	.st83{fill:url(#SVGID_00000033350093685838033290000000798165649125489831_);}
	.st84{fill:url(#SVGID_00000085227735601874483620000006969464590805516675_);}
	.st85{fill:url(#SVGID_00000021807068186417571720000009101535202994147462_);}
	.st86{fill:url(#SVGID_00000041982046185748702740000009049563572093076402_);}
	.st87{fill:url(#SVGID_00000182523844748902725630000011654943447198245004_);}
	.st88{fill:url(#SVGID_00000134969194212660217460000005572992747375513519_);}
	.st89{fill:url(#SVGID_00000029005735534082456250000000899375348266592139_);}
	.st90{fill:url(#SVGID_00000030445418694367334480000016229881712472044211_);}
	.st91{fill:#001689;}
	.st92{fill:none;stroke:#001689;stroke-width:0.881;stroke-linecap:round;stroke-linejoin:round;stroke-miterlimit:10;}
	.st93{fill:#0047BA;}
	.st94{fill:#253D90;}
	.st95{fill:#FFDC00;}
	.st96{fill:#0556A3;}
	.st97{fill:#0369B2;}
	.st98{fill:#5DC3F0;}
	.st99{fill:#DF162E;}
	.st100{fill:#39A7DF;}
	.st101{fill:#1B71B6;}
	.st102{fill-rule:evenodd;clip-rule:evenodd;fill:url(#XMLID_00000178919569971803190470000004808972582665363883_);}
	.st103{fill-rule:evenodd;clip-rule:evenodd;fill:url(#XMLID_00000096759172080928998210000011923237932067819703_);}
	.st104{fill:#91BF25;}
	.st105{fill:#FFDA05;}
	.st106{fill:#E00F1A;}
	.st107{fill-rule:evenodd;clip-rule:evenodd;fill:#213A7B;}
	.st108{fill-rule:evenodd;clip-rule:evenodd;}
	.st109{fill-rule:evenodd;clip-rule:evenodd;fill:#E20C30;}
	.st110{fill:#2B7DB9;}
	.st111{fill:#43AC51;}
	.st112{fill-rule:evenodd;clip-rule:evenodd;fill:#034A91;}
	.st113{fill:#005891;}
	.st114{fill:#E3283B;}
	.st115{fill:#004A93;}
	.st116{fill-rule:evenodd;clip-rule:evenodd;fill:#004A93;}
	.st117{fill-rule:evenodd;clip-rule:evenodd;fill:#FFEA20;}
	.st118{fill-rule:evenodd;clip-rule:evenodd;fill:#DF101C;}
	.st119{fill:#2997D4;}
	.st120{fill:#F18A00;}
	.st121{fill:#09111D;}
	.st122{fill:#A72136;}
	.st123{fill:url(#SVGID_00000115494591987128811050000007460694703352510627_);}
	.st124{fill:url(#SVGID_00000124871135979952666780000005496088737310143932_);}
	.st125{fill:url(#SVGID_00000055692275960469934250000008100195770756701856_);}
	.st126{fill:url(#SVGID_00000180336131036617961560000007295758203302069162_);}
	.st127{fill:url(#SVGID_00000109018686366279447100000016585957241240610184_);}
	.st128{fill:url(#SVGID_00000057869321057997588420000012268204523615080064_);}
	.st129{fill:url(#SVGID_00000181782224221536075990000000006075621543515324_);}
	.st130{fill:url(#SVGID_00000118356306756590936140000012466002522389462973_);}
	.st131{fill:#2D2F34;}
	.st132{fill:url(#SVGID_00000164491578855356698160000004357394533519595430_);}
	.st133{fill:url(#SVGID_00000060736927277303619040000013205888047088373942_);}
	.st134{fill:url(#SVGID_00000072991691625341022170000001657610526680816803_);}
	.st135{fill:url(#SVGID_00000150069077777331602980000003090938107679346071_);}
	.st136{fill:#003DA6;}
	.st137{fill-rule:evenodd;clip-rule:evenodd;fill:#0E579F;stroke:#FFFFFF;stroke-width:1.0001;stroke-miterlimit:2.6131;}
	.st138{fill-rule:evenodd;clip-rule:evenodd;fill:#FFFFFF;stroke:#FFFFFF;stroke-width:0.216;stroke-miterlimit:2.6131;}
	.st139{fill:#1766AD;}
	.st140{fill:#7EB828;}
	.st141{fill:#0D9E39;}
	.st142{fill:#7CB62C;}
	.st143{fill-rule:evenodd;clip-rule:evenodd;fill:#00A0DF;}
	
		.st144{clip-path:url(#SVGID_00000178187564794489787850000010517108510924871076_);fill-rule:evenodd;clip-rule:evenodd;fill:#8CCFF1;}
	
		.st145{clip-path:url(#SVGID_00000178187564794489787850000010517108510924871076_);fill-rule:evenodd;clip-rule:evenodd;fill:#C3E4F5;}
	
		.st146{clip-path:url(#SVGID_00000178187564794489787850000010517108510924871076_);fill-rule:evenodd;clip-rule:evenodd;fill:#FFFFFF;}
	.st147{clip-path:url(#SVGID_00000178187564794489787850000010517108510924871076_);}
	.st148{fill:#83CEEA;}
	.st149{fill-rule:evenodd;clip-rule:evenodd;fill:#65B2E8;}
	.st150{fill-rule:evenodd;clip-rule:evenodd;fill:#0C68AE;}
	.st151{fill-rule:evenodd;clip-rule:evenodd;fill:#00205C;}
	.st152{fill:#00A0DF;}
	.st153{fill:#00205C;}
	.st154{clip-path:url(#SVGID_00000135648572476177996570000002330921661461505670_);}
	.st155{fill:#29A43B;}
	.st156{fill:#BFE1F4;}
	.st157{fill:#D2E9F7;}
	.st158{fill:#444592;}
	.st159{fill:#BBA26A;}
	.st160{fill:#ACB217;}
	.st161{fill:url(#SVGID_00000005250701686947723210000009333727084355792559_);}
	.st162{fill-rule:evenodd;clip-rule:evenodd;fill:#211F1F;}
	.st163{fill:url(#SVGID_00000034071532254142226690000002234789720908648069_);}
	.st164{fill:url(#SVGID_00000058576626734964647490000003030813693039738289_);}
	.st165{fill:url(#SVGID_00000123412236863021282110000010084553772173908139_);}
	.st166{fill:url(#SVGID_00000057147879820040017800000001573023740141784503_);}
	.st167{fill:url(#SVGID_00000141420409700797891120000016588406884938997653_);}
	.st168{fill:url(#SVGID_00000055668509534988946700000013149270834864584352_);}
	.st169{fill:url(#SVGID_00000170244198218780389190000016237088763533735344_);}
	.st170{fill:url(#SVGID_00000060029512908182778260000011902214303753821061_);}
	.st171{fill:url(#SVGID_00000086692518436444434910000001276061102666308519_);}
	.st172{fill:url(#SVGID_00000098185098173764012500000011001772475217232525_);}
	.st173{fill:url(#SVGID_00000151542211759517575670000008770788710073238412_);}
	.st174{fill:url(#SVGID_00000179608124081681518640000011838551991234818998_);}
	.st175{fill:url(#SVGID_00000052808586128237270640000010910769907591526275_);}
	.st176{fill:url(#SVGID_00000045609682298624885300000003898938872567529888_);}
	.st177{fill:url(#SVGID_00000108995089742163371930000008051263379762856112_);}
	.st178{fill:url(#SVGID_00000127727147431891468160000000222818735766890924_);}
	.st179{fill:url(#SVGID_00000068636992413143921310000004415382337681252794_);}
	.st180{fill:url(#SVGID_00000155120656896100469790000014926720593485207699_);}
	.st181{fill:url(#SVGID_00000124139954351572562230000016127305785030014611_);}
	.st182{fill:url(#SVGID_00000075879535789897218290000005712695227589332639_);}
	.st183{fill:url(#SVGID_00000065791743906124645960000005033616783666003887_);}
	.st184{fill:url(#SVGID_00000097483939749669770340000004739368840914942607_);}
	.st185{fill:url(#SVGID_00000043439699527043946410000011230963878620852671_);}
	.st186{fill:url(#SVGID_00000161621898736372375280000011255688439555970492_);}
	.st187{fill:url(#SVGID_00000088819954761785538010000002103498542010134952_);}
	.st188{fill:url(#SVGID_00000127021259552866851030000007484758579138520221_);}
	
		.st189{clip-path:url(#SVGID_00000111878653142624289970000000499611408886839187_);fill:url(#SVGID_00000121992399681813797640000011462572275124889274_);}
	.st190{fill:url(#SVGID_00000019649355691816314210000011279062761706852011_);}
	.st191{fill:url(#SVGID_00000035489939602947155930000015093848244918706599_);}
	.st192{fill:url(#SVGID_00000052076365518189441650000014568444599717067147_);}
	.st193{fill:url(#SVGID_00000132775119546510916900000004797491773810140546_);}
	.st194{fill-rule:evenodd;clip-rule:evenodd;fill:url(#SVGID_00000045600255475634192120000008910095838073792666_);}
	.st195{fill:#F6F0F3;}
	.st196{fill:#F8F4F6;}
	.st197{fill:#FFFCFD;}
	.st198{fill:#0F4D80;}
	.st199{fill:#2F93D1;}
	.st200{display:none;}
	.st201{display:inline;fill:#0F4D80;}
	.st202{display:inline;fill:#2F93D1;}
	.st203{display:inline;fill:#FFFFFF;}
	.st204{opacity:0.3;}
	.st205{fill:#65A1D7;}
	.st206{fill:#E63922;}
	.st207{fill:#33712F;}
	.st208{fill:#509BD5;}
	.st209{fill:#2C88C7;}
	.st210{fill:#A9DBF7;}
	.st211{fill:#EEB68A;}
	.st212{fill:#FBD3AD;}
	.st213{fill:#270C12;}
	.st214{fill:#230A10;}
	.st215{fill:#A2403B;}
	.st216{fill:#C1665D;}
	.st217{fill:#DFECF8;}
	.st218{fill:#411017;}
	.st219{fill:#262626;}
	.st220{opacity:0.47;}
	.st221{fill:#FAD8D5;}
	.st222{fill:#FBE1DE;}
	.st223{fill:#EA808C;}
	.st224{fill:#C9E7F7;}
	.st225{fill:#E5F3FD;}
	.st226{fill:#FDEEEE;}
	.st227{fill:#F7C7C9;}
	.st228{fill:#ECF6F7;}
	.st229{fill:#A0D0F1;}
	.st230{fill:#97C7EC;}
	.st231{fill:#9ECFF1;}
	.st232{fill:#E8F4F6;}
	.st233{fill:#BEE3F5;}
	.st234{fill:#D7EDF6;}
	.st235{fill:#ED705B;}
	.st236{fill:#F9C9BA;}
	.st237{fill:#8BC5EC;}
	.st238{fill:#F5AC9B;}
	.st239{fill:#F1907E;}
	.st240{fill:#D6EDF6;}
	.st241{fill:#4B8739;}
	.st242{fill:#F39B8B;}
	.st243{fill:#C5D4E1;}
	.st244{fill:#F29A9C;}
	.st245{fill:#3C3C3B;}
	.st246{fill:#EE808D;}
	.st247{fill:#187FB9;}
	.st248{fill:#2EA8E0;}
	.st249{fill:#80CEF4;}
	.st250{fill:#BDE3F6;}
	.st251{fill:#EA5B2B;}
	.st252{fill:#E73F2F;}
	.st253{opacity:0.26;fill:#D3B0D4;}
	.st254{fill:url(#SVGID_00000037675654391118804660000012160384479718268601_);}
	.st255{fill:#B7553B;}
	.st256{fill:#E63924;}
	.st257{fill:#441943;}
	.st258{fill:#281028;}
	.st259{fill:#8BCAB9;}
	.st260{fill:#D9271B;}
	.st261{fill:#FCE7E5;}
	.st262{fill:#A9D7CF;}
	.st263{fill:url(#SVGID_00000075137206455505658050000009430040925778519456_);}
	.st264{fill:url(#SVGID_00000142172562503010739120000014287218828363971474_);}
	.st265{fill:url(#SVGID_00000043457558336734671810000003025067888062092945_);}
	.st266{opacity:0.26;fill:#A2403B;}
	.st267{fill:#6E4594;}
	.st268{fill:#B65650;}
	.st269{fill:url(#SVGID_00000006693952986140928160000012724991047888633506_);}
	.st270{fill:#454545;}
	.st271{fill:#A7D9F5;}
	.st272{fill:#24212E;}
	.st273{fill:#6D1B0F;}
	.st274{fill:#3E4055;}
	.st275{fill:#3E4052;}
	.st276{fill:#77491E;}
	.st277{fill:#474A5E;}
	.st278{fill:#24222D;}
	.st279{fill:#D6D6D6;}
	.st280{fill:#F8C6BD;}
	.st281{fill:#3F292A;}
	.st282{fill:#E7E8EC;}
	.st283{fill:#F9D3CA;}
	.st284{fill:#E9B9A6;}
	.st285{fill:#0E0C09;}
	.st286{fill:#CCDADA;}
	.st287{fill:#EDBDAA;}
	.st288{fill:#535459;}
	.st289{fill:#929497;}
	.st290{fill:#3164AC;}
	.st291{fill:#D53939;}
	.st292{fill:#313134;}
	.st293{fill:url(#SVGID_00000041290321571973507730000005887389000781733531_);}
	.st294{fill:url(#SVGID_00000103985116969254129560000018141581134707829932_);}
	.st295{fill:url(#SVGID_00000077299974441367844290000012175007562450199680_);}
	.st296{fill:#E6E7E7;}
	.st297{clip-path:url(#SVGID_00000091012431731122682100000002379923898709543595_);}
	.st298{fill:#F7F6F6;}
	.st299{fill:#0E4D80;}
	.st300{opacity:0.31;}
	.st301{opacity:0;}
	.st302{fill:#010100;}
	.st303{opacity:4.653465e-03;}
	.st304{opacity:9.306931e-03;}
	.st305{opacity:0.014;}
	.st306{opacity:0.0186;}
	.st307{opacity:0.0233;}
	.st308{opacity:0.0279;}
	.st309{opacity:0.0326;}
	.st310{opacity:0.0372;}
	.st311{opacity:0.0419;}
	.st312{opacity:0.0465;}
	.st313{opacity:0.0512;}
	.st314{opacity:0.0558;}
	.st315{opacity:0.0605;}
	.st316{opacity:0.0651;}
	.st317{opacity:0.0698;}
	.st318{opacity:0.0745;}
	.st319{opacity:0.0791;}
	.st320{opacity:0.0838;}
	.st321{opacity:0.0884;}
	.st322{opacity:0.0931;}
	.st323{opacity:0.0977;}
	.st324{opacity:0.1024;}
	.st325{opacity:0.107;}
	.st326{opacity:0.1117;}
	.st327{opacity:0.1163;}
	.st328{opacity:0.121;}
	.st329{opacity:0.1256;}
	.st330{opacity:0.1303;}
	.st331{opacity:0.135;}
	.st332{opacity:0.1396;}
	.st333{opacity:0.1443;}
	.st334{opacity:0.1489;}
	.st335{opacity:0.1536;}
	.st336{opacity:0.1582;}
	.st337{opacity:0.1629;}
	.st338{opacity:0.1675;}
	.st339{opacity:0.1722;}
	.st340{opacity:0.1768;}
	.st341{opacity:0.1815;}
	.st342{opacity:0.1861;}
	.st343{opacity:0.1908;}
	.st344{opacity:0.1954;}
	.st345{opacity:0.2001;}
	.st346{opacity:0.2048;}
	.st347{opacity:0.2094;}
	.st348{opacity:0.2141;}
	.st349{opacity:0.2187;}
	.st350{opacity:0.2234;}
	.st351{opacity:0.228;}
	.st352{opacity:0.2327;}
	.st353{opacity:0.2373;}
	.st354{opacity:0.242;}
	.st355{opacity:0.2466;}
	.st356{opacity:0.2513;}
	.st357{opacity:0.2559;}
	.st358{opacity:0.2606;}
	.st359{opacity:0.2652;}
	.st360{opacity:0.2699;}
	.st361{opacity:0.2746;}
	.st362{opacity:0.2792;}
	.st363{opacity:0.2839;}
	.st364{opacity:0.2885;}
	.st365{opacity:0.2932;}
	.st366{opacity:0.2978;}
	.st367{opacity:0.3025;}
	.st368{opacity:0.3071;}
	.st369{opacity:0.3118;}
	.st370{opacity:0.3164;}
	.st371{opacity:0.3211;}
	.st372{opacity:0.3257;}
	.st373{opacity:0.3304;}
	.st374{opacity:0.335;}
	.st375{opacity:0.3397;}
	.st376{opacity:0.3444;}
	.st377{opacity:0.349;}
	.st378{opacity:0.3537;}
	.st379{opacity:0.3583;}
	.st380{opacity:0.363;}
	.st381{opacity:0.3676;}
	.st382{opacity:0.3723;}
	.st383{opacity:0.3769;}
	.st384{opacity:0.3816;}
	.st385{opacity:0.3862;}
	.st386{opacity:0.3909;}
	.st387{opacity:0.3955;}
	.st388{opacity:0.4002;}
	.st389{opacity:0.4049;}
	.st390{opacity:0.4095;}
	.st391{opacity:0.4142;}
	.st392{opacity:0.4188;}
	.st393{opacity:0.4235;}
	.st394{opacity:0.4281;}
	.st395{opacity:0.4328;}
	.st396{opacity:0.4374;}
	.st397{opacity:0.4421;}
	.st398{opacity:0.4467;}
	.st399{opacity:0.4514;}
	.st400{opacity:0.456;}
	.st401{opacity:0.4607;}
	.st402{opacity:0.4653;}
	.st403{fill:url(#SVGID_00000051342380259964164740000017189032643273240485_);}
	.st404{fill:url(#SVGID_00000150819552724971240600000016011753413826221987_);}
	.st405{fill:url(#SVGID_00000031910424912604771420000009435622411842809780_);}
	.st406{fill:#C6A295;}
	.st407{fill:#EFC5B3;}
	.st408{fill:#121214;}
	.st409{fill:#BBBDBE;}
	.st410{fill:#863C13;}
	.st411{fill:#B96117;}
	.st412{fill:#EF8118;}
	.st413{fill:#BA5817;}
	.st414{fill:#6D6F71;}
	.st415{fill:#E21D26;}
	.st416{fill:#2C5E84;}
	.st417{fill:#9C251F;}
	.st418{fill:url(#SVGID_00000160161893870020623050000004921340917736208041_);}
	.st419{fill:#1C374E;}
	.st420{fill:#2B4E68;}
	.st421{opacity:0.3;fill:#121214;}
	.st422{fill:url(#SVGID_00000159439030706883691760000004824655773440752299_);}
	.st423{fill:url(#SVGID_00000134959461695144678630000001488409292429382327_);}
	.st424{fill:url(#SVGID_00000018199529319583626430000014861640956761755558_);}
	.st425{fill:url(#SVGID_00000017508035673198612080000000310064631648907141_);}
	.st426{fill:url(#SVGID_00000081649685131275895700000015622906343599881901_);}
	.st427{fill:url(#SVGID_00000052820448186696612890000005280094666837369784_);}
	.st428{fill:#0C0C0C;}
	.st429{fill:#603914;}
	.st430{fill:#E86821;}
	.st431{fill:#171717;}
	.st432{fill:#663F30;}
	.st433{fill:url(#SVGID_00000026131384990337061460000004630546004798383021_);}
	.st434{fill:url(#SVGID_00000182497636445360255880000016407218198027783091_);}
	.st435{fill:url(#SVGID_00000003816071327885321530000015663291484753633953_);}
	.st436{fill:url(#SVGID_00000138561883777165346040000002240287513771221645_);}
	.st437{fill:url(#SVGID_00000052086415002560052270000014366676462860155548_);}
	.st438{fill:url(#SVGID_00000064344045734895549360000011362372045271316869_);}
	.st439{fill:url(#SVGID_00000107582581045378299200000000958898112359517832_);}
	.st440{fill:url(#SVGID_00000176759550959730503610000009958240433049635734_);}
	.st441{fill:url(#SVGID_00000067196517408642907430000013958730257885490313_);}
	.st442{fill:url(#SVGID_00000000189093972486695590000000502484095031035529_);}
	.st443{fill:url(#SVGID_00000104687213509456300390000007599228716016338357_);}
	.st444{fill:url(#SVGID_00000163050775103539313780000014522891278055456423_);}
	.st445{fill:url(#SVGID_00000165939106854756422110000004990838326585886630_);}
	.st446{fill:url(#SVGID_00000065046440313373322600000004609337688239595431_);}
	.st447{fill:url(#SVGID_00000112611831822453503910000000263277876128855197_);}
	.st448{fill:url(#SVGID_00000155140913536659337300000008477215432344855945_);}
	.st449{fill:url(#SVGID_00000085238471401591443320000004575048434686000813_);}
	.st450{fill:url(#SVGID_00000121239680533100417940000000563443285730126247_);}
	.st451{fill:#B7B7B7;}
	.st452{fill:#112134;}
	.st453{fill:#414042;}
	.st454{fill:#221E20;}
	.st455{fill:#131313;}
	.st456{fill:#202020;}
	.st457{fill:#915E33;}
	.st458{fill:#57391E;}
	.st459{fill:#F39519;}
	.st460{fill:#F4B305;}
	.st461{fill:#C4C3C3;}
	.st462{fill:#A5A4A5;}
	.st463{fill:#888989;}
	.st464{fill:#242424;}
	.st465{fill:#6E4827;}
	.st466{opacity:0.1844;fill:#24222D;}
	.st467{fill:#A0A4BB;}
	.st468{opacity:0.1844;fill:#999AB6;}
	.st469{fill:#D9E3E3;}
	.st470{fill:#FAD5CB;}
	.st471{opacity:0.1844;fill:#24212E;}
	.st472{fill:#844013;}
	.st473{fill:#F8B777;}
	.st474{fill:#3576AB;}
	.st475{fill:#A2A1A1;}
	.st476{fill:#754C29;}
	.st477{fill:#B3DFF1;}
	.st478{fill:#80A5A5;}
	.st479{fill:#EAAE93;}
	.st480{fill:#00657E;}
	.st481{fill:#382E22;}
	.st482{fill:#157288;}
	.st483{fill:#A42916;}
	.st484{fill:#D43216;}
	.st485{fill:#E5A082;}
	.st486{fill:#B23318;}
	.st487{fill:#843E1E;}
	.st488{fill:#EDBEA8;}
	.st489{fill:#E94E49;}
	.st490{fill:#E3E4E3;}
	.st491{fill:#B9B9B9;}
	.st492{fill:#868787;}
	.st493{fill:url(#XMLID_00000178174598142962515170000001092902951805983675_);}
	.st494{fill:#989898;}
	.st495{fill:url(#XMLID_00000045596824159914652440000012050811599357186230_);}
	.st496{fill:#EEECEB;}
	.st497{fill:#D5D5D5;}
	.st498{fill:url(#XMLID_00000067194104477138764220000011065132286710757304_);}
	.st499{fill:url(#XMLID_00000027587919439180888420000008595596086879405465_);}
	.st500{fill:url(#XMLID_00000181783352931916587780000007671681035624255400_);}
	.st501{fill:url(#XMLID_00000042009229054503349360000010666739965736860035_);}
	.st502{fill:url(#XMLID_00000075851378447514749880000017784108878856012219_);}
	.st503{fill:url(#XMLID_00000101092846749550402090000014404123705494604184_);}
	.st504{fill:url(#XMLID_00000059304991901604837770000008885387946788763559_);}
	.st505{fill:url(#XMLID_00000021091399876906363020000014456352329792701848_);}
	.st506{fill:url(#XMLID_00000150074901057507085520000017076368779317950598_);}
	.st507{fill:url(#XMLID_00000106862784977927458370000008531928339359556530_);}
	.st508{fill:url(#XMLID_00000090281443807011431250000015381918477828055468_);}
	.st509{fill:url(#XMLID_00000129171558340604522750000002098319089435211651_);}
	.st510{fill:url(#XMLID_00000103239805566122175260000002489044270792926900_);}
	.st511{fill:url(#XMLID_00000098932419146939457790000009094507680067339922_);}
	.st512{fill:url(#XMLID_00000083806543265553424930000005072593252286351239_);}
	.st513{fill:url(#XMLID_00000151528659538070930350000000859229487210987674_);}
	.st514{fill:url(#XMLID_00000178195462190599532460000003114436689562723201_);}
	.st515{fill:url(#XMLID_00000179638791793690671770000000078545153412490683_);}
	.st516{fill:url(#XMLID_00000139282619239430689190000012167250364912831372_);}
	.st517{fill:url(#XMLID_00000127735248725529504820000015853835573857283968_);}
	.st518{fill:url(#XMLID_00000119084873212301501530000014977976217051642045_);}
	.st519{fill:url(#XMLID_00000145042581567820212350000013606337239418855611_);}
	.st520{fill:url(#XMLID_00000176729629177949089880000009714266939455139005_);}
	.st521{fill:url(#XMLID_00000090990379391367020680000015475754591890528941_);}
	.st522{fill:url(#XMLID_00000060010087376579765640000004052479077180600726_);}
	.st523{fill:url(#XMLID_00000013905676035050321860000006231234164432767105_);}
	.st524{fill:url(#XMLID_00000031905044647044683760000001462873694579990190_);}
	.st525{fill:url(#XMLID_00000036972383835363896680000005967794612926304398_);}
	.st526{fill:url(#XMLID_00000090993358644571224390000001993819433496586146_);}
	.st527{fill:url(#XMLID_00000011752642651997959010000015351882927325837474_);}
	.st528{fill:url(#XMLID_00000176037526219753259160000003064372057760095387_);}
	.st529{fill:url(#XMLID_00000086680128512673047120000006578847093051416963_);}
	.st530{fill:url(#XMLID_00000023280745214572385940000006170688696227189411_);}
	.st531{fill:url(#XMLID_00000181072774651528998230000013958575765123789733_);}
	.st532{fill:url(#XMLID_00000107563826172238536560000005648867566046690714_);}
	.st533{fill:url(#XMLID_00000180357083057186355450000016066412496606318466_);}
	.st534{fill:url(#XMLID_00000029727114189135907320000013495097359125608617_);}
	.st535{fill:url(#XMLID_00000108999734124422730180000015992375064002198717_);}
	.st536{fill:url(#XMLID_00000170999693176805812450000006971956330577077898_);}
	.st537{fill:url(#XMLID_00000049907834426322139190000000976894719137719230_);}
	.st538{fill:url(#XMLID_00000011711959283359895280000004970438073744714150_);}
	.st539{fill:url(#XMLID_00000039105430025669395820000001529322044879009724_);}
	.st540{fill:url(#XMLID_00000172405035280468413450000000556969988738219951_);}
	.st541{fill:url(#XMLID_00000070077679859760667560000001955188175858713009_);}
	.st542{fill:url(#XMLID_00000026881045079193268620000007987578951870134204_);}
	.st543{fill:url(#XMLID_00000133518304281678509650000000604958621420059282_);}
	.st544{fill:url(#XMLID_00000029761553884603986010000014852496791866377114_);}
	.st545{fill:url(#XMLID_00000083775637648890070100000005735063026064895145_);}
	.st546{fill:url(#XMLID_00000016763205795142521470000002962641076212439227_);}
	.st547{fill:url(#XMLID_00000039122870960868634940000009964925251178676615_);}
	.st548{fill:url(#XMLID_00000145045827302030544520000010775535400421917317_);}
	.st549{fill:url(#XMLID_00000131353539939950290860000002440631871660720011_);}
	.st550{fill:url(#XMLID_00000149354626248316202040000014571565829296499637_);}
	.st551{fill:url(#XMLID_00000084515197544663300200000009733497566127277198_);}
	.st552{fill:url(#XMLID_00000040536704194390886150000011251693754866919078_);}
	.st553{fill:url(#XMLID_00000132050220542619121640000014331691070169392785_);}
	.st554{fill:url(#XMLID_00000140013170988298880330000000299682217377893253_);}
	.st555{fill:url(#XMLID_00000066515607293539984730000006903799164103253650_);}
	.st556{fill:url(#XMLID_00000084516577887141779050000016668553915039095720_);}
	.st557{fill:url(#XMLID_00000137107335293222582940000011096007365918235066_);}
	.st558{fill:url(#XMLID_00000160870286553695698210000001159443840178095795_);}
	.st559{fill:url(#XMLID_00000074416944168293277170000000917057764764241795_);}
	.st560{fill:url(#XMLID_00000101822673045910184350000002947230297680255105_);}
	.st561{fill:url(#XMLID_00000073721231742676551850000010303833684142781580_);}
	.st562{fill:url(#XMLID_00000106847315813061295960000012080376702138836659_);}
	.st563{fill:url(#XMLID_00000147195505472157808550000015207033199196822968_);}
	.st564{fill:url(#XMLID_00000024720355828661472640000006390706480183655602_);}
	.st565{fill:url(#XMLID_00000134935068655257706240000000714874881212323204_);}
	.st566{fill:url(#XMLID_00000042697769082469996830000001635431363522923696_);}
	.st567{fill:url(#XMLID_00000120530952006726462680000003555202515116264371_);}
	.st568{fill:url(#XMLID_00000002353198297182108480000012084232143306274231_);}
	.st569{fill:url(#XMLID_00000031208958163483210290000007778917100112771744_);}
	.st570{fill:url(#XMLID_00000067236606887161142800000002260521474859106982_);}
	.st571{fill:url(#XMLID_00000000207384500719524120000015244314181852719546_);}
	.st572{fill:url(#XMLID_00000154397913798121497380000001201335469662459283_);}
	.st573{fill:url(#XMLID_00000117646038606048427410000006277223550300058011_);}
	.st574{fill:url(#XMLID_00000058548810592452521210000016772334565568416679_);}
	.st575{fill:url(#XMLID_00000121271163370960658280000010117222450155986335_);}
	.st576{fill:url(#XMLID_00000162316819648670141060000007558490707003204235_);}
	.st577{fill:url(#XMLID_00000034052765826684194760000007160951600823976576_);}
	.st578{fill:url(#XMLID_00000031930180276610236240000005614015154588371355_);}
	.st579{fill:url(#XMLID_00000103225179965996271550000014901824740031564695_);}
	.st580{fill:url(#XMLID_00000015336656224669004820000002265316483708407217_);}
	.st581{fill:url(#XMLID_00000150095834595385142370000000026959343574732722_);}
	.st582{fill:url(#XMLID_00000174594700772205499690000010603006762756383395_);}
	.st583{fill:url(#XMLID_00000116203525509300993010000006532280765431466933_);}
	.st584{fill:url(#XMLID_00000147929766570175788700000009823323438371866269_);}
	.st585{fill:url(#XMLID_00000163775226193279732830000014659592048619549847_);}
	.st586{fill:url(#XMLID_00000149365577406703862180000000659215254901585800_);}
	.st587{fill:url(#XMLID_00000023278657530071287660000014519244626787693702_);}
	.st588{fill:url(#XMLID_00000005248801960172476190000012069855100444183464_);}
	.st589{fill:url(#XMLID_00000103257645443549995630000006312320889985092746_);}
	.st590{fill:url(#XMLID_00000111155204341695570940000002631266996164642701_);}
	.st591{fill:url(#XMLID_00000116940535119553928530000006382162488952576937_);}
	.st592{fill:url(#XMLID_00000130605361920036129920000006955933548653125806_);}
	.st593{fill:url(#XMLID_00000144334017313879276070000007393933709967390123_);}
	.st594{fill:url(#XMLID_00000113354400657983784710000012633190859269271727_);}
	.st595{fill:url(#XMLID_00000141422775847817889390000014025894565043598770_);}
	.st596{fill:url(#XMLID_00000166655421966190236260000015946401496267361725_);}
	.st597{fill:url(#XMLID_00000005260109125475049110000003850564415352443788_);}
	.st598{fill:#FCFDFF;}
	.st599{fill:#757576;}
	.st600{fill:#D4D3D3;}
	.st601{fill:#E2E4E0;}
	.st602{fill:#B5B4B4;}
	.st603{fill:#908F8A;}
	.st604{fill:#F6F6F5;}
	.st605{fill:#3E4046;}
	.st606{fill:#525557;}
	.st607{fill:#E1E2E2;}
	.st608{fill:#E8E9EA;}
	.st609{fill:#2B2E35;}
	.st610{fill:#64666B;}
	.st611{fill:url(#XMLID_00000020400927819595031090000000399592122858195878_);}
	.st612{fill:#F0F0F0;}
	.st613{fill:#757779;}
	.st614{fill:#191B22;}
	.st615{fill:#14181E;}
	.st616{fill:#11141A;}
	.st617{fill:#DAEBE7;}
	.st618{fill:#7F8082;}
	.st619{fill:#A7B3B4;}
	.st620{fill:#3C575C;}
	.st621{fill:#CED6D6;}
	.st622{fill:#1A3A66;}
	.st623{fill:#2887C4;}
	.st624{fill:#66C3D8;}
	.st625{fill:#07282F;}
	.st626{fill:#8B9B9D;}
	.st627{fill:#72888C;}
	.st628{fill:#7F1710;}
	.st629{fill:#C3253D;}
	.st630{fill:#D9648A;}
	.st631{fill:#A24817;}
	.st632{fill:#DAA802;}
	.st633{fill:#EEB219;}
	.st634{fill:#424242;}
	.st635{fill:#474646;}
	.st636{fill:#AAB545;}
	.st637{fill:#C17D11;}
	.st638{fill:#CACCD2;}
	.st639{fill:#B6BCC6;}
	.st640{fill:#353842;}
	.st641{fill:#585C64;}
	.st642{fill:#454852;}
	.st643{fill:#62656C;}
	.st644{fill:#72757B;}
	.st645{fill:#3A3D42;}
	.st646{fill:#494D53;}
	.st647{fill:#161A24;}
	.st648{fill:#4C4F58;}
	.st649{fill:#666970;}
	.st650{fill:#7F7F83;}
	.st651{fill:#383C40;}
	.st652{fill:#1E222B;}
	.st653{fill:url(#XMLID_00000174587002070939767140000004257647713361756041_);}
	.st654{fill:#3D4049;}
	.st655{fill:url(#XMLID_00000119115084781593804700000014976676488771973006_);}
	.st656{fill:#30333C;}
	.st657{fill:#474D57;}
	.st658{fill:#75787F;}
	.st659{fill:#2F7E9D;}
	.st660{fill:#6DC0B2;}
	.st661{fill:url(#XMLID_00000092444177825519396470000006459225229462493580_);}
	.st662{fill:#F1F8FA;}
	.st663{fill:url(#XMLID_00000021096562245523414100000006925232492515398052_);}
	.st664{fill:url(#XMLID_00000009580252532658117120000016105063488745503130_);}
	.st665{fill:#ECF6F9;}
	.st666{fill:url(#XMLID_00000071537197768291340770000006025513163740809909_);}
	.st667{fill:url(#XMLID_00000170992161170706605290000011406957383436173192_);}
	.st668{fill:#CFE4F1;}
	.st669{fill:#DADADA;}
	.st670{fill:#D32D16;}
	.st671{fill:#176581;}
	.st672{fill:#9ED1F2;}
	.st673{fill:#1B222D;}
	.st674{fill:#EBE9EA;}
	.st675{fill:#C9CED5;}
	.st676{fill:#E1E0E0;}
	.st677{fill:#E7E6E6;}
	.st678{fill:#E8E7E7;}
	.st679{fill:#BFCBDD;}
	.st680{fill:#9D958F;}
	.st681{fill:#FFDC04;}
	.st682{fill:#B21828;}
	.st683{fill:#D8408F;}
	.st684{fill:#574997;}
	.st685{fill:#356AB1;}
	.st686{fill:#45B3E7;}
	.st687{fill:#2D8A36;}
	.st688{fill:#D0CFD0;}
	.st689{fill:#98A88B;}
	.st690{fill:#F8E825;}
	.st691{fill:#CB1333;}
	.st692{fill:url(#XMLID_00000170276351180976356110000007975996452193274250_);}
	.st693{fill:#0B0E18;}
	.st694{fill:#40424A;}
	.st695{fill:url(#XMLID_00000159467761605483224560000009040314236749514913_);}
	.st696{fill:#71757D;}
	.st697{fill:#C2C2C4;}
	.st698{fill:url(#XMLID_00000115473473783485179380000014638133167224616858_);}
	.st699{fill:#9DA094;}
	.st700{fill:#D4D4D4;}
	.st701{fill:url(#XMLID_00000140013951149839898360000005010402320255338380_);}
	.st702{fill:url(#XMLID_00000183945267172815911160000008706609399793269157_);}
	.st703{fill:#E8E8E8;}
	.st704{fill:#15120B;}
	.st705{fill:#4C4842;}
	.st706{fill:#74AEDF;}
	.st707{fill:#413D3F;}
	.st708{fill:#48494A;}
	.st709{fill:#080504;}
	.st710{fill:#4E4D4D;}
	.st711{fill:#A1A0A0;}
	.st712{fill:#FBEEF5;}
	.st713{fill:#BFBEBE;}
	.st714{fill:#015A64;}
	.st715{fill:#B81818;}
	.st716{fill:#8C811D;}
	.st717{fill:#03709B;}
	.st718{fill:#E74B1E;}
	.st719{fill:#F2B000;}
	.st720{fill:#E33335;}
	.st721{fill:#F8F09C;}
	.st722{fill:#FAEF81;}
	.st723{fill:#E7A8CB;}
	.st724{fill:#CD90BE;}
	.st725{fill:#847A73;}
	.st726{fill:#CCCBCB;}
	.st727{fill:#EDECEC;}
	.st728{fill:#9D9D9D;}
	.st729{fill:#EFEFEF;}
	.st730{fill:#4F525A;}
	.st731{fill:#E15C48;}
	.st732{fill:url(#XMLID_00000005983528014066158940000001203846749279873691_);}
	.st733{fill:url(#XMLID_00000148621009382058223890000015749260539215496885_);}
	.st734{fill:url(#XMLID_00000142874181633863220600000017231708584461997232_);}
	.st735{fill:url(#XMLID_00000025418304858025170610000003865709124595561657_);}
	.st736{fill:url(#XMLID_00000077297120300827043620000004293143990604956335_);}
	.st737{fill:#9E9D9D;}
	.st738{fill:#9DCBEF;}
	.st739{fill:#010000;}
	.st740{fill:url(#SVGID_00000072965910179034724660000000782638864089067932_);}
	.st741{fill:url(#SVGID_00000007430281827306454380000010847760674518984352_);}
	.st742{fill:url(#SVGID_00000129194069899697633490000009626197185138659751_);}
	.st743{fill:#D2D2D2;}
	.st744{fill:#232C35;}
	.st745{fill:#E39470;}
	.st746{fill:url(#XMLID_00000118374883550148565250000012019402320382389943_);}
	.st747{fill:#9DA6AC;}
	.st748{fill:#72979F;}
	.st749{fill:#96A1AB;}
	.st750{fill:#5F7887;}
	.st751{fill:#CC1B31;}
	.st752{fill:url(#XMLID_00000077290151204994937690000010644564957387010960_);}
	.st753{fill:url(#XMLID_00000011733549122920919600000014180721760488525958_);}
	.st754{fill:url(#XMLID_00000083790092198794552070000007446033223412041364_);}
	.st755{fill:#C0C4B6;}
	.st756{fill:#CEE8EC;}
	.st757{fill:url(#XMLID_00000155109150572851053330000013278810628114852249_);}
	.st758{fill:url(#XMLID_00000147921692147948445330000002524526690192386212_);}
	.st759{fill:#384C5A;}
	.st760{fill:url(#XMLID_00000167358924984942600520000012324465861221665429_);}
	.st761{fill:#ED9E02;}
	.st762{fill:#FFE253;}
	.st763{fill:#F7C318;}
	.st764{fill:#DDB988;}
	.st765{fill:#D2A37C;}
	.st766{fill:#C98666;}
	.st767{fill:#2C7EAE;}
	.st768{fill:#A61916;}
	.st769{fill:#E6704B;}
	.st770{fill:#DF3118;}
	.st771{fill:#00648A;}
	.st772{fill:#4CB0E4;}
	.st773{fill:#2178BD;}
	.st774{fill:#058A38;}
	.st775{fill:#6EB761;}
	.st776{fill:#4DAD3C;}
	.st777{fill:#283373;}
	.st778{fill:#4A60A8;}
	.st779{fill:#274394;}
	.st780{fill:#49267F;}
	.st781{fill:#7C559E;}
	.st782{fill:#693D8F;}
	.st783{fill:#871D6C;}
	.st784{fill:#C5569A;}
	.st785{fill:#CA1781;}
	.st786{fill:#2D1B1B;}
	.st787{fill:#8A5655;}
	.st788{fill:#734748;}
	.st789{fill:url(#XMLID_00000070099439647509315800000018428284580506082482_);}
	.st790{fill:#A3B5D1;}
	.st791{fill:#04559C;}
</style>
<g>
	<g>
		<path class="st0" d="M77.03,68.66c-23.37,2.79-46.99,2.79-70.36,0C3,68.2,0,64.74,0,61.08C0,43.94,0,26.8,0,9.67
			C0,6,3,2.55,6.68,2.09c23.37-2.79,46.99-2.79,70.36,0c3.68,0.46,6.68,3.91,6.68,7.58c0,17.14,0,34.28,0,51.41
			C83.71,64.75,80.71,68.2,77.03,68.66z"/>
	</g>
	<g>
		<polygon class="st96" points="64.77,15.85 74.8,26.93 54.04,26.93 30.37,52.93 18.71,52.93 8.92,41.62 29.79,41.62 53.81,15.85 		
			"/>
		<polygon class="st96" points="55.32,31.24 62.32,31.24 56.79,37.19 49.84,37.19 		"/>
		<polygon class="st96" points="18.35,31.24 25.35,31.24 20.1,37.19 12.87,37.19 		"/>
		<polygon class="st96" points="64.42,31.24 71.41,31.24 66.17,37.19 58.94,37.19 		"/>
		<polygon class="st96" points="53.46,41.62 61.62,41.62 51.82,52.93 36.08,52.93 40.4,47.8 48.85,47.8 		"/>
		<polygon class="st96" points="39.7,15.85 47.86,15.85 38.06,27.16 22.04,27.16 26.64,22.03 35.09,22.03 		"/>
		<g>
			<path class="st96" d="M31.11,13.11c-0.06-0.07-0.11-0.14-0.16-0.21c-0.05-0.07-0.08-0.14-0.08-0.22
				c-0.46,0.37-0.69,0.61-0.69,0.7c0,0.12,0.09,0.21,0.26,0.28c0.24,0.1,0.44,0.25,0.59,0.46c0.21-0.32,0.31-0.52,0.31-0.63
				c0-0.06-0.02-0.12-0.07-0.19C31.22,13.24,31.16,13.18,31.11,13.11z"/>
			<path class="st96" d="M36,13.23c-0.06-0.07-0.11-0.14-0.16-0.21c-0.05-0.07-0.08-0.15-0.08-0.22c-0.46,0.37-0.69,0.61-0.69,0.7
				c0,0.12,0.09,0.21,0.26,0.28c0.24,0.1,0.44,0.25,0.59,0.46c0.21-0.32,0.31-0.52,0.31-0.63c0-0.06-0.02-0.12-0.07-0.19
				C36.11,13.36,36.06,13.29,36,13.23z"/>
			<path class="st96" d="M37.37,13.23c-0.06-0.07-0.11-0.14-0.16-0.21c-0.05-0.07-0.08-0.15-0.08-0.22
				c-0.46,0.37-0.69,0.61-0.69,0.7c0,0.12,0.09,0.21,0.26,0.28c0.24,0.1,0.44,0.25,0.59,0.46c0.21-0.32,0.31-0.52,0.31-0.63
				c0-0.06-0.02-0.12-0.07-0.19C37.48,13.36,37.43,13.29,37.37,13.23z"/>
			<path class="st96" d="M45.4,11.45c-0.09,0-0.17-0.01-0.23-0.02s-0.12-0.04-0.17-0.09c-0.05-0.05-0.11-0.12-0.16-0.21
				c-0.06-0.09-0.12-0.22-0.2-0.38l-0.4-0.85c-0.14-0.3-0.26-0.44-0.36-0.44h-2.74c-0.27,0-0.45-0.11-0.54-0.34l-0.09-0.22
				c-0.04-0.06-0.06-0.15-0.06-0.3c0-0.1,0.13-0.27,0.38-0.51l0.99-0.95c0.39-0.37,0.59-0.75,0.59-1.15c0-0.29-0.1-0.63-0.3-1.03
				l-0.59-1.17l-1.75,1.74c0.11-0.05,0.22-0.1,0.34-0.15c0.11-0.05,0.23-0.09,0.33-0.13c0.11-0.04,0.21-0.07,0.31-0.09
				c0.1-0.02,0.19-0.04,0.27-0.04c0.57,0,0.85,0.3,0.85,0.9c0,0.25-0.16,0.53-0.49,0.84l-2.36,2.27c-0.36,0.35-0.54,0.55-0.54,0.62
				c0,0.09,0.01,0.17,0.04,0.25c0.03,0.07,0.07,0.14,0.12,0.19c0.05,0.05,0.11,0.09,0.18,0.12c0.07,0.03,0.14,0.04,0.22,0.04h4.28
				l0.24,0.48h-4.94h-0.41h-0.46c-0.02-0.04-0.04-0.1-0.07-0.16c-0.03-0.07-0.07-0.14-0.11-0.23l-0.39-0.78
				c-0.17-0.34-0.25-0.58-0.25-0.72c0-0.12,0.03-0.28,0.08-0.46l-0.73,0.7C36.09,9.37,36,9.6,36,9.84c0,0.14,0.1,0.41,0.3,0.82
				l0.26,0.53c0.13,0.27,0.2,0.44,0.2,0.51c0,0.09-0.03,0.18-0.1,0.27l-0.61-0.63c-0.34-0.34-0.58-0.52-0.72-0.53v0H35.3h-0.4h-0.34
				c-0.03-0.07-0.09-0.21-0.18-0.4L34,9.64c-0.17-0.34-0.25-0.58-0.25-0.72c0-0.12,0.03-0.28,0.08-0.46l-0.73,0.7
				c-0.19,0.22-0.29,0.45-0.29,0.69c0,0.14,0.1,0.41,0.3,0.82l0.26,0.53c0.13,0.27,0.2,0.44,0.2,0.51c0,0.09-0.03,0.18-0.1,0.27
				c-0.11-0.11-0.23-0.23-0.34-0.35c-0.11-0.12-0.22-0.23-0.34-0.35c-0.33-0.31-0.58-0.46-0.77-0.46h-3.33
				c-0.06,0-0.11-0.01-0.16-0.04c-0.05-0.02-0.1-0.05-0.14-0.09c-0.04-0.04-0.08-0.07-0.1-0.12c-0.03-0.04-0.04-0.09-0.04-0.13
				c0-0.05,0.06-0.14,0.18-0.27l0.41-0.44c0.06,0.13,0.12,0.23,0.17,0.31c0.05,0.08,0.11,0.14,0.17,0.18
				c0.07,0.04,0.14,0.07,0.23,0.09c0.09,0.02,0.21,0.02,0.36,0.02h0.85c0.11,0,0.19,0,0.26-0.01c0.07-0.01,0.13-0.03,0.19-0.06
				c0.06-0.03,0.11-0.07,0.17-0.12c0.06-0.05,0.13-0.12,0.21-0.21l0.39-0.4h-1.38c-0.36,0-0.61-0.16-0.75-0.47l-0.26-0.61
				l-3.31,3.25h5.91c0.1,0,0.22,0.04,0.35,0.12c0.13,0.08,0.26,0.19,0.38,0.31c0.12,0.12,0.23,0.26,0.32,0.4
				c0.09,0.14,0.15,0.27,0.18,0.39l0.92-0.86c0.08-0.07,0.15-0.14,0.2-0.2c0.06-0.06,0.1-0.11,0.13-0.16h0.4h0.41h0
				c0.09,0,0.2,0.04,0.31,0.13c0.12,0.09,0.23,0.19,0.35,0.32c0.11,0.13,0.21,0.26,0.3,0.4c0.08,0.14,0.14,0.27,0.16,0.37l0.92-0.86
				c0.08-0.07,0.15-0.14,0.2-0.2c0.06-0.06,0.1-0.11,0.13-0.16h0.53h0.41h6.1C45,11.7,45.22,11.62,45.4,11.45z"/>
			<path class="st96" d="M49.24,7.84c0.24,0.1,0.44,0.25,0.59,0.46c0.21-0.32,0.31-0.52,0.31-0.63c0-0.06-0.02-0.12-0.07-0.19
				c-0.05-0.07-0.1-0.13-0.15-0.2c-0.06-0.07-0.11-0.14-0.16-0.21c-0.05-0.07-0.08-0.14-0.08-0.22c-0.46,0.37-0.69,0.61-0.69,0.7
				C48.98,7.67,49.07,7.77,49.24,7.84z"/>
			<path class="st96" d="M50.61,7.84c0.24,0.1,0.44,0.25,0.59,0.46c0.21-0.32,0.31-0.52,0.31-0.63c0-0.06-0.02-0.12-0.07-0.19
				c-0.05-0.07-0.1-0.13-0.15-0.2c-0.06-0.07-0.11-0.14-0.16-0.21c-0.05-0.07-0.08-0.14-0.08-0.22c-0.46,0.37-0.69,0.61-0.69,0.7
				C50.35,7.67,50.43,7.77,50.61,7.84z"/>
			<path class="st96" d="M53.71,11.13c-0.05-0.06-0.08-0.14-0.09-0.24c-0.02-0.1-0.03-0.23-0.03-0.38V4.24
				c-0.6,0.69-1.03,1.04-1.3,1.04c0.45,0.8,0.68,1.33,0.68,1.58v3.59c0,0.04-0.01,0.09-0.03,0.13c-0.02,0.04-0.05,0.08-0.08,0.12
				c-0.03,0.04-0.07,0.06-0.11,0.09c-0.04,0.02-0.08,0.03-0.11,0.03h-0.37h-0.41H51.4c-0.02-0.04-0.04-0.1-0.07-0.16
				c-0.03-0.07-0.07-0.14-0.11-0.23l-0.39-0.78c-0.17-0.34-0.25-0.58-0.25-0.72c0-0.12,0.03-0.28,0.08-0.46l-0.73,0.7
				c-0.19,0.22-0.29,0.45-0.29,0.69c0,0.14,0.1,0.41,0.3,0.82l0.26,0.53c0.13,0.27,0.2,0.44,0.2,0.51c0,0.09-0.03,0.18-0.1,0.27
				l-0.61-0.63c-0.34-0.34-0.58-0.52-0.72-0.53v0h-0.02h-0.4h-0.36c0-0.02,0.01-0.06,0.01-0.12c0-0.2-0.1-0.51-0.31-0.94l-0.39-0.78
				c-0.17-0.34-0.25-0.58-0.25-0.72c0-0.12,0.03-0.28,0.08-0.46l-0.73,0.7c-0.19,0.22-0.29,0.45-0.29,0.69c0,0.14,0.1,0.41,0.3,0.82
				l0.26,0.53c0.19,0.39,0.29,0.6,0.29,0.64c0,0.19-0.15,0.44-0.46,0.74l-1.78,1.73c-0.26,0.25-0.5,0.44-0.72,0.56
				c-0.22,0.12-0.44,0.21-0.65,0.27c0.1,0.04,0.22,0.06,0.37,0.06c0.56,0,1.03-0.18,1.39-0.53l2.34-2.29h0.91h0.41h0
				c0.09,0,0.2,0.04,0.31,0.13c0.12,0.09,0.23,0.19,0.35,0.32c0.11,0.13,0.21,0.26,0.3,0.4c0.08,0.14,0.14,0.27,0.16,0.37l0.92-0.86
				c0.08-0.07,0.15-0.14,0.2-0.2c0.06-0.06,0.1-0.11,0.13-0.16h0.53h0.41h1.24c0.29,0,0.53-0.11,0.72-0.33
				c-0.13-0.04-0.24-0.07-0.32-0.11S53.76,11.19,53.71,11.13z"/>
			<path class="st96" d="M57.23,11.44c-0.1-0.03-0.19-0.05-0.27-0.08c-0.22-0.07-0.4-0.15-0.54-0.24c-0.14-0.09-0.26-0.19-0.35-0.3
				c-0.09-0.11-0.15-0.25-0.18-0.4c-0.04-0.15-0.05-0.32-0.05-0.52V4.24c-0.56,0.69-1,1.04-1.3,1.04c0.45,0.8,0.68,1.33,0.68,1.58
				v3.7c0,0.21,0.02,0.39,0.07,0.54c0.05,0.15,0.13,0.26,0.25,0.35c0.12,0.09,0.27,0.15,0.46,0.19c0.19,0.04,0.43,0.06,0.72,0.06
				c0.5,0,0.79-0.05,0.86-0.15C57.46,11.5,57.34,11.47,57.23,11.44z"/>
		</g>
		<g>
			<path class="st96" d="M26.91,59.2h-1.79v1.16h2v0.9h-3.1V56.4h2.99v0.9h-1.89v1.01h1.79V59.2z"/>
			<path class="st96" d="M29.53,57.32h-1.31V56.4h3.74v0.92h-1.33v3.94h-1.1V57.32z"/>
			<path class="st96" d="M34.31,57.32H33V56.4h3.74v0.92H35.4v3.94h-1.1V57.32z"/>
			<path class="st96" d="M40.92,59.2h-1.79v1.16h2v0.9h-3.1V56.4h2.99v0.9h-1.89v1.01h1.79V59.2z"/>
			<path class="st96" d="M42.61,56.46c0.35-0.06,0.88-0.1,1.46-0.1c0.72,0,1.23,0.11,1.57,0.38c0.29,0.23,0.45,0.57,0.45,1.02
				c0,0.62-0.44,1.04-0.86,1.19v0.02c0.34,0.14,0.53,0.46,0.65,0.9c0.15,0.55,0.3,1.18,0.39,1.37h-1.12
				c-0.07-0.14-0.2-0.53-0.33-1.13c-0.14-0.61-0.34-0.77-0.79-0.77H43.7v1.91h-1.09V56.46z M43.7,58.55h0.43
				c0.54,0,0.87-0.28,0.87-0.7c0-0.44-0.3-0.67-0.81-0.67c-0.26,0-0.42,0.02-0.49,0.04V58.55z"/>
			<path class="st96" d="M47.6,56.4h1.09v2.15h0.02c0.11-0.18,0.22-0.36,0.33-0.53l1.1-1.62h1.35l-1.61,2.07l1.69,2.79H50.3
				l-1.2-2.09l-0.41,0.51v1.59H47.6V56.4z"/>
			<path class="st96" d="M53.85,56.4v4.86h-1.1V56.4H53.85z"/>
			<path class="st96" d="M55.52,56.46c0.29-0.06,0.87-0.1,1.42-0.1c0.67,0,1.08,0.07,1.44,0.27c0.34,0.18,0.58,0.51,0.58,0.96
				c0,0.43-0.25,0.83-0.8,1.03v0.02c0.55,0.15,0.97,0.57,0.97,1.19c0,0.44-0.2,0.79-0.51,1.03c-0.36,0.29-0.94,0.44-1.91,0.44
				c-0.54,0-0.94-0.04-1.19-0.07V56.46z M56.61,58.32h0.36c0.58,0,0.89-0.24,0.89-0.6c0-0.37-0.28-0.56-0.78-0.56
				c-0.24,0-0.38,0.02-0.47,0.03V58.32z M56.61,60.47c0.11,0.02,0.24,0.02,0.42,0.02c0.5,0,0.94-0.19,0.94-0.7
				c0-0.49-0.44-0.68-0.98-0.68h-0.38V60.47z"/>
		</g>
	</g>
</g>
</svg>
