<?xml version="1.0" encoding="utf-8"?>
<!-- Generator: Adobe Illustrator 26.0.2, SVG Export Plug-In . SVG Version: 6.00 Build 0)  -->
<svg version="1.1" id="Calque_1" xmlns="http://www.w3.org/2000/svg" xmlns:xlink="http://www.w3.org/1999/xlink" x="0px" y="0px"
	 viewBox="0 0 184.4 73.06" style="enable-background:new 0 0 184.4 73.06;" xml:space="preserve">
<style type="text/css">
	.st0{fill:#FFFFFF;}
	.st1{opacity:0.35;fill:url(#SVGID_1_);}
	.st2{opacity:0.35;}
	.st3{opacity:0.25;fill:url(#SVGID_00000091723076887125886740000012919778346403230850_);}
	.st4{opacity:0.27;fill:url(#SVGID_00000016766571165639800600000002506538010513994908_);}
	.st5{opacity:0.17;fill:url(#SVGID_00000085938653331868953230000016111645686250282650_);}
	.st6{opacity:0.62;fill:url(#SVGID_00000023997072386885803050000007960622065262489250_);}
	.st7{opacity:0.37;fill:url(#SVGID_00000117653022812223769300000013744396836843183789_);}
	.st8{opacity:0.47;fill:url(#SVGID_00000139277712486158979930000000470494471646294420_);}
	.st9{opacity:0.47;fill:url(#SVGID_00000083785727316823496370000018351727318334460348_);}
	.st10{opacity:0.47;fill:url(#SVGID_00000059989568541481535910000009389604302304168592_);}
	.st11{opacity:0.48;fill:url(#SVGID_00000013902735290601856590000013972583568351900554_);}
	.st12{opacity:0.48;fill:url(#SVGID_00000078753938937626146540000010508503033150224061_);}
	.st13{opacity:0.4;fill:url(#SVGID_00000136384052463661223760000001680051160106129570_);}
	.st14{fill:#3A63A4;}
	.st15{fill:#CCD35F;}
	.st16{fill:#4B4392;}
	.st17{fill:#2CA696;}
	.st18{fill:#D71158;}
	.st19{fill:#F9BB5A;}
	.st20{fill:#EFB349;}
	.st21{fill:#EC6C44;}
	.st22{fill:#25B1A2;}
	.st23{fill:#CB3580;}
	.st24{fill:#F8DC91;}
	.st25{fill:#C2367E;}
	.st26{fill:#289BB9;}
	.st27{fill:#CC1640;}
	.st28{fill:#4069A8;}
	.st29{fill:#EF8054;}
	.st30{fill:#1B9361;}
	.st31{fill:#1E9CC0;}
	.st32{fill:#8E4794;}
	.st33{fill:#F9B958;}
	.st34{fill:#DF0C1A;}
	.st35{fill:#002D74;}
	.st36{fill:#0069A8;}
	.st37{fill:#15A3DD;}
	.st38{fill:#19A3DD;}
	.st39{fill-rule:evenodd;clip-rule:evenodd;fill:#4AA334;}
	.st40{fill-rule:evenodd;clip-rule:evenodd;fill:#FFFFFF;}
	.st41{fill:#263780;}
	.st42{fill:url(#SVGID_00000043423864448416080950000013085660046145878144_);}
	.st43{fill:url(#SVGID_00000075863759116403783040000015142452174357146251_);}
	.st44{fill:url(#SVGID_00000010997022386983643090000004879080977716736174_);}
	.st45{fill:url(#SVGID_00000099639011435156836870000017600952820880304272_);}
	.st46{fill:url(#SVGID_00000096738619127558949400000016970954638276567993_);}
	.st47{fill:url(#SVGID_00000011728457156640524960000014476404030479532946_);}
	.st48{fill:#AFB6BD;}
	.st49{fill:#31295C;}
	.st50{fill:url(#SVGID_00000021836883292784955350000016271772802681783984_);}
	.st51{fill:url(#SVGID_00000050640210969838787470000011926359518019032967_);}
	.st52{fill:url(#SVGID_00000183214327337720263600000018380618386035871894_);}
	.st53{fill:url(#SVGID_00000015328947028619000840000005272785851627145120_);}
	.st54{fill:url(#SVGID_00000176022738122703457550000011737595372180034700_);}
	.st55{fill:url(#SVGID_00000155831624902082138330000013637197998254535343_);}
	.st56{fill:url(#SVGID_00000058588290097836199590000007735507359582806144_);}
	.st57{fill:url(#SVGID_00000132075900563173310650000006245940930320177073_);}
	.st58{fill:url(#SVGID_00000060006113095994523550000009418798173521865899_);}
	.st59{fill:url(#SVGID_00000063601712336514297400000012236863345378726560_);}
	.st60{fill:url(#SVGID_00000133516696550003143520000014130480759951730054_);}
	.st61{fill:url(#SVGID_00000103986357306513631450000001129291928788120506_);}
	.st62{fill:url(#SVGID_00000021798770493522192220000008874634314167343750_);}
	.st63{fill:url(#SVGID_00000003084181445686870550000011158752391048924076_);}
	.st64{fill:#312782;}
	.st65{fill:#6461A8;}
	.st66{fill:#747473;}
	.st67{fill:#CAC9C9;}
	.st68{fill-rule:evenodd;clip-rule:evenodd;fill:#D81A16;stroke:#1D1D1B;stroke-width:0.25;stroke-miterlimit:10;}
	.st69{fill:none;stroke:#1D1D1B;stroke-width:0.25;stroke-miterlimit:10;}
	.st70{fill:#12110C;}
	.st71{fill:#1D1D1B;}
	.st72{fill:#EF8328;}
	.st73{fill:url(#SVGID_00000170993622103137683360000002197055257245877423_);}
	.st74{fill:url(#SVGID_00000054966416054443091860000001119368352442120889_);}
	.st75{fill:url(#SVGID_00000082330736924640505410000007277110699922812080_);}
	.st76{fill:url(#SVGID_00000159468525929324883250000004827900904187318177_);}
	.st77{opacity:0.6;}
	.st78{fill:url(#SVGID_00000076599263400076480800000014083212006360531086_);}
	.st79{fill:url(#SVGID_00000002383054864655188830000013810578637486627234_);}
	.st80{fill:url(#SVGID_00000098926588724041152990000016564027933476536194_);}
	.st81{fill:url(#SVGID_00000159454000368695762620000013774006460715876496_);}
	.st82{fill:url(#SVGID_00000106861978787720972340000011973895279965412263_);}
	.st83{fill:url(#SVGID_00000070801276135291027640000005106449171751782785_);}
	.st84{fill:url(#SVGID_00000064326925192660740060000013751786956574104767_);}
	.st85{fill:url(#SVGID_00000168109543452141281640000016684877842898293121_);}
	.st86{fill:url(#SVGID_00000012465717468400787710000008854074026234231995_);}
	.st87{fill:url(#SVGID_00000096049864129353698320000010155094440868861831_);}
	.st88{fill:url(#SVGID_00000049185396067398074580000010496556570749983390_);}
	.st89{fill:url(#SVGID_00000173840154752089395810000017144370685601665694_);}
	.st90{fill:url(#SVGID_00000008119318455671900820000017931133897233712808_);}
	.st91{fill:#001689;}
	.st92{fill:none;stroke:#001689;stroke-width:0.881;stroke-linecap:round;stroke-linejoin:round;stroke-miterlimit:10;}
	.st93{fill:#0047BA;}
	.st94{fill:#253D90;}
	.st95{fill:#FFDC00;}
	.st96{fill:#0556A3;}
	.st97{fill:#0369B2;}
	.st98{fill:#5DC3F0;}
	.st99{fill:#DF162E;}
	.st100{fill:#39A7DF;}
	.st101{fill:#1B71B6;}
	.st102{fill-rule:evenodd;clip-rule:evenodd;fill:url(#XMLID_00000125578308461017348210000001342033233437004723_);}
	.st103{fill-rule:evenodd;clip-rule:evenodd;fill:url(#XMLID_00000109006710276844041630000013722923492601427613_);}
	.st104{fill:#91BF25;}
	.st105{fill:#FFDA05;}
	.st106{fill:#E00F1A;}
	.st107{fill-rule:evenodd;clip-rule:evenodd;fill:#213A7B;}
	.st108{fill-rule:evenodd;clip-rule:evenodd;}
	.st109{fill-rule:evenodd;clip-rule:evenodd;fill:#E20C30;}
	.st110{fill:#2B7DB9;}
	.st111{fill:#43AC51;}
	.st112{fill-rule:evenodd;clip-rule:evenodd;fill:#034A91;}
	.st113{fill:#005891;}
	.st114{fill:#E3283B;}
	.st115{fill:#004A93;}
	.st116{fill-rule:evenodd;clip-rule:evenodd;fill:#004A93;}
	.st117{fill-rule:evenodd;clip-rule:evenodd;fill:#FFEA20;}
	.st118{fill-rule:evenodd;clip-rule:evenodd;fill:#DF101C;}
	.st119{fill:#2997D4;}
	.st120{fill:#F18A00;}
	.st121{fill:#09111D;}
	.st122{fill:#A72136;}
	.st123{fill:url(#SVGID_00000165197267250897639970000016753446167667971775_);}
	.st124{fill:url(#SVGID_00000158736629989536117630000018173325931003419551_);}
	.st125{fill:url(#SVGID_00000096741035291440141870000003928334079191120513_);}
	.st126{fill:url(#SVGID_00000136406395839232691820000004997312688172502678_);}
	.st127{fill:url(#SVGID_00000083785303798741115040000013226298160414395279_);}
	.st128{fill:url(#SVGID_00000033352914822710340010000015256829189627060384_);}
	.st129{fill:url(#SVGID_00000150819491809224269500000015140320220507921843_);}
	.st130{fill:url(#SVGID_00000175312012867067958900000002746096632848277438_);}
	.st131{fill:#2D2F34;}
	.st132{fill:url(#SVGID_00000067199570717214168810000000655436908002873788_);}
	.st133{fill:url(#SVGID_00000165210367814800004370000017972729032985016460_);}
	.st134{fill:url(#SVGID_00000089568424547439073810000000175952481659535264_);}
	.st135{fill:url(#SVGID_00000098937412331074031030000007746217664673178505_);}
	.st136{fill:#003DA6;}
	.st137{fill-rule:evenodd;clip-rule:evenodd;fill:#0E579F;stroke:#FFFFFF;stroke-width:1.0001;stroke-miterlimit:2.6131;}
	.st138{fill-rule:evenodd;clip-rule:evenodd;fill:#FFFFFF;stroke:#FFFFFF;stroke-width:0.216;stroke-miterlimit:2.6131;}
	.st139{fill:#1766AD;}
	.st140{fill:#7EB828;}
	.st141{fill:#0D9E39;}
	.st142{fill:#7CB62C;}
	.st143{fill-rule:evenodd;clip-rule:evenodd;fill:#00A0DF;}
	
		.st144{clip-path:url(#SVGID_00000063599419647776836950000008802600053378312620_);fill-rule:evenodd;clip-rule:evenodd;fill:#8CCFF1;}
	
		.st145{clip-path:url(#SVGID_00000063599419647776836950000008802600053378312620_);fill-rule:evenodd;clip-rule:evenodd;fill:#C3E4F5;}
	
		.st146{clip-path:url(#SVGID_00000063599419647776836950000008802600053378312620_);fill-rule:evenodd;clip-rule:evenodd;fill:#FFFFFF;}
	.st147{clip-path:url(#SVGID_00000063599419647776836950000008802600053378312620_);}
	.st148{fill:#83CEEA;}
	.st149{fill-rule:evenodd;clip-rule:evenodd;fill:#65B2E8;}
	.st150{fill-rule:evenodd;clip-rule:evenodd;fill:#0C68AE;}
	.st151{fill-rule:evenodd;clip-rule:evenodd;fill:#00205C;}
	.st152{fill:#00A0DF;}
	.st153{fill:#00205C;}
	.st154{clip-path:url(#SVGID_00000020372305611330576360000000494738621433969539_);}
	.st155{fill:#29A43B;}
	.st156{fill:#BFE1F4;}
	.st157{fill:#D2E9F7;}
	.st158{fill:#444592;}
	.st159{fill:#BBA26A;}
	.st160{fill:#ACB217;}
	.st161{fill:url(#SVGID_00000132068766092583429910000003913952535394374330_);}
	.st162{fill-rule:evenodd;clip-rule:evenodd;fill:#211F1F;}
	.st163{fill:url(#SVGID_00000062171347912418225000000007256646305289495191_);}
	.st164{fill:url(#SVGID_00000147199627415130659610000004094543864605274525_);}
	.st165{fill:url(#SVGID_00000096023903498138947610000004911396477777223856_);}
	.st166{fill:url(#SVGID_00000036226138508631292600000002262547378143992218_);}
	.st167{fill:url(#SVGID_00000104673522098264326240000009819599921983964075_);}
	.st168{fill:url(#SVGID_00000065076618204470151630000004768793544740678802_);}
	.st169{fill:url(#SVGID_00000085226573340421207490000007096659115471743366_);}
	.st170{fill:url(#SVGID_00000031920544477162657950000014150382470336305846_);}
	.st171{fill:url(#SVGID_00000181074546105695610170000012848643661037775793_);}
	.st172{fill:url(#SVGID_00000170988585472593493970000005162918302279095483_);}
	.st173{fill:url(#SVGID_00000054224150495752239040000005535979898224822709_);}
	.st174{fill:url(#SVGID_00000170998892255599335230000006276216202745209996_);}
	.st175{fill:url(#SVGID_00000049216372999422618650000004085551596052206228_);}
	.st176{fill:url(#SVGID_00000130630838128790681890000008494503246408403858_);}
	.st177{fill:url(#SVGID_00000056386402613264898030000014551983497788528768_);}
	.st178{fill:url(#SVGID_00000067927145602955059110000018401894507968519812_);}
	.st179{fill:url(#SVGID_00000143578169128612259960000014290539115505222298_);}
	.st180{fill:url(#SVGID_00000106144345855073166510000011395210249512091272_);}
	.st181{fill:url(#SVGID_00000002369738962859889530000006351073852477229963_);}
	.st182{fill:url(#SVGID_00000123437382190378066070000004607246834811612074_);}
	.st183{fill:url(#SVGID_00000114770901484764652630000015196699227078872704_);}
	.st184{fill:url(#SVGID_00000144320178202729278120000007498903452714641831_);}
	.st185{fill:url(#SVGID_00000141441301066985029780000007825886805086654626_);}
	.st186{fill:url(#SVGID_00000062913272362533959390000014631187287223075226_);}
	.st187{fill:url(#SVGID_00000036974171937331191830000018046277202372645790_);}
	.st188{fill:url(#SVGID_00000094591852929455412710000001731580603898015377_);}
	
		.st189{clip-path:url(#SVGID_00000107582867763036669410000010475208815263312528_);fill:url(#SVGID_00000150061655913585828580000010943388564184940976_);}
	.st190{fill:url(#SVGID_00000084499945228054440310000016357241482298887094_);}
	.st191{fill:url(#SVGID_00000006678674157573903780000017928204528511145650_);}
	.st192{fill:url(#SVGID_00000121975860024821796540000011939971328547207823_);}
	.st193{fill:url(#SVGID_00000060735194677845788200000008918162425719397551_);}
	.st194{fill-rule:evenodd;clip-rule:evenodd;fill:url(#SVGID_00000142892896701119542040000003391273199154433675_);}
	.st195{fill:#F6F0F3;}
	.st196{fill:#F8F4F6;}
	.st197{fill:#FFFCFD;}
	.st198{fill:#0F4D80;}
	.st199{fill:#2F93D1;}
	.st200{display:none;}
	.st201{display:inline;fill:#0F4D80;}
	.st202{display:inline;fill:#2F93D1;}
	.st203{display:inline;fill:#FFFFFF;}
	.st204{opacity:0.3;}
	.st205{fill:#65A1D7;}
	.st206{fill:#E63922;}
	.st207{fill:#33712F;}
	.st208{fill:#509BD5;}
	.st209{fill:#2C88C7;}
	.st210{fill:#A9DBF7;}
	.st211{fill:#EEB68A;}
	.st212{fill:#FBD3AD;}
	.st213{fill:#270C12;}
	.st214{fill:#230A10;}
	.st215{fill:#A2403B;}
	.st216{fill:#C1665D;}
	.st217{fill:#DFECF8;}
	.st218{fill:#411017;}
	.st219{fill:#262626;}
	.st220{opacity:0.47;}
	.st221{fill:#FAD8D5;}
	.st222{fill:#FBE1DE;}
	.st223{fill:#EA808C;}
	.st224{fill:#C9E7F7;}
	.st225{fill:#E5F3FD;}
	.st226{fill:#FDEEEE;}
	.st227{fill:#F7C7C9;}
	.st228{fill:#ECF6F7;}
	.st229{fill:#A0D0F1;}
	.st230{fill:#97C7EC;}
	.st231{fill:#9ECFF1;}
	.st232{fill:#E8F4F6;}
	.st233{fill:#BEE3F5;}
	.st234{fill:#D7EDF6;}
	.st235{fill:#ED705B;}
	.st236{fill:#F9C9BA;}
	.st237{fill:#8BC5EC;}
	.st238{fill:#F5AC9B;}
	.st239{fill:#F1907E;}
	.st240{fill:#D6EDF6;}
	.st241{fill:#4B8739;}
	.st242{fill:#F39B8B;}
	.st243{fill:#C5D4E1;}
	.st244{fill:#F29A9C;}
	.st245{fill:#3C3C3B;}
	.st246{fill:#EE808D;}
	.st247{fill:#187FB9;}
	.st248{fill:#2EA8E0;}
	.st249{fill:#80CEF4;}
	.st250{fill:#BDE3F6;}
	.st251{fill:#EA5B2B;}
	.st252{fill:#E73F2F;}
	.st253{opacity:0.26;fill:#D3B0D4;}
	.st254{fill:url(#SVGID_00000127024327675080417120000018008290072622182061_);}
	.st255{fill:#B7553B;}
	.st256{fill:#E63924;}
	.st257{fill:#441943;}
	.st258{fill:#281028;}
	.st259{fill:#8BCAB9;}
	.st260{fill:#D9271B;}
	.st261{fill:#FCE7E5;}
	.st262{fill:#A9D7CF;}
	.st263{fill:url(#SVGID_00000034085316825785747460000005279882857876640174_);}
	.st264{fill:url(#SVGID_00000137116585865947587290000013925934352995177113_);}
	.st265{fill:url(#SVGID_00000170256372918127871930000003789430245356300938_);}
	.st266{opacity:0.26;fill:#A2403B;}
	.st267{fill:#6E4594;}
	.st268{fill:#B65650;}
	.st269{fill:url(#SVGID_00000158714830135727336080000007878083721883594127_);}
	.st270{fill:#454545;}
	.st271{fill:#A7D9F5;}
	.st272{fill:#24212E;}
	.st273{fill:#6D1B0F;}
	.st274{fill:#3E4055;}
	.st275{fill:#3E4052;}
	.st276{fill:#77491E;}
	.st277{fill:#474A5E;}
	.st278{fill:#24222D;}
	.st279{fill:#D6D6D6;}
	.st280{fill:#F8C6BD;}
	.st281{fill:#3F292A;}
	.st282{fill:#E7E8EC;}
	.st283{fill:#F9D3CA;}
	.st284{fill:#E9B9A6;}
	.st285{fill:#0E0C09;}
	.st286{fill:#CCDADA;}
	.st287{fill:#EDBDAA;}
	.st288{fill:#535459;}
	.st289{fill:#929497;}
	.st290{fill:#3164AC;}
	.st291{fill:#D53939;}
	.st292{fill:#313134;}
	.st293{fill:url(#SVGID_00000100357642263199137300000010051021423226349245_);}
	.st294{fill:url(#SVGID_00000173145278108109690400000016059913128002375074_);}
	.st295{fill:url(#SVGID_00000013151169454737633330000002962520191653232303_);}
	.st296{fill:#E6E7E7;}
	.st297{clip-path:url(#SVGID_00000100382720534460895150000009988038740178984579_);}
	.st298{fill:#F7F6F6;}
	.st299{fill:#0E4D80;}
	.st300{opacity:0.31;}
	.st301{opacity:0;}
	.st302{fill:#010100;}
	.st303{opacity:4.653465e-03;}
	.st304{opacity:9.306931e-03;}
	.st305{opacity:0.014;}
	.st306{opacity:0.0186;}
	.st307{opacity:0.0233;}
	.st308{opacity:0.0279;}
	.st309{opacity:0.0326;}
	.st310{opacity:0.0372;}
	.st311{opacity:0.0419;}
	.st312{opacity:0.0465;}
	.st313{opacity:0.0512;}
	.st314{opacity:0.0558;}
	.st315{opacity:0.0605;}
	.st316{opacity:0.0651;}
	.st317{opacity:0.0698;}
	.st318{opacity:0.0745;}
	.st319{opacity:0.0791;}
	.st320{opacity:0.0838;}
	.st321{opacity:0.0884;}
	.st322{opacity:0.0931;}
	.st323{opacity:0.0977;}
	.st324{opacity:0.1024;}
	.st325{opacity:0.107;}
	.st326{opacity:0.1117;}
	.st327{opacity:0.1163;}
	.st328{opacity:0.121;}
	.st329{opacity:0.1256;}
	.st330{opacity:0.1303;}
	.st331{opacity:0.135;}
	.st332{opacity:0.1396;}
	.st333{opacity:0.1443;}
	.st334{opacity:0.1489;}
	.st335{opacity:0.1536;}
	.st336{opacity:0.1582;}
	.st337{opacity:0.1629;}
	.st338{opacity:0.1675;}
	.st339{opacity:0.1722;}
	.st340{opacity:0.1768;}
	.st341{opacity:0.1815;}
	.st342{opacity:0.1861;}
	.st343{opacity:0.1908;}
	.st344{opacity:0.1954;}
	.st345{opacity:0.2001;}
	.st346{opacity:0.2048;}
	.st347{opacity:0.2094;}
	.st348{opacity:0.2141;}
	.st349{opacity:0.2187;}
	.st350{opacity:0.2234;}
	.st351{opacity:0.228;}
	.st352{opacity:0.2327;}
	.st353{opacity:0.2373;}
	.st354{opacity:0.242;}
	.st355{opacity:0.2466;}
	.st356{opacity:0.2513;}
	.st357{opacity:0.2559;}
	.st358{opacity:0.2606;}
	.st359{opacity:0.2652;}
	.st360{opacity:0.2699;}
	.st361{opacity:0.2746;}
	.st362{opacity:0.2792;}
	.st363{opacity:0.2839;}
	.st364{opacity:0.2885;}
	.st365{opacity:0.2932;}
	.st366{opacity:0.2978;}
	.st367{opacity:0.3025;}
	.st368{opacity:0.3071;}
	.st369{opacity:0.3118;}
	.st370{opacity:0.3164;}
	.st371{opacity:0.3211;}
	.st372{opacity:0.3257;}
	.st373{opacity:0.3304;}
	.st374{opacity:0.335;}
	.st375{opacity:0.3397;}
	.st376{opacity:0.3444;}
	.st377{opacity:0.349;}
	.st378{opacity:0.3537;}
	.st379{opacity:0.3583;}
	.st380{opacity:0.363;}
	.st381{opacity:0.3676;}
	.st382{opacity:0.3723;}
	.st383{opacity:0.3769;}
	.st384{opacity:0.3816;}
	.st385{opacity:0.3862;}
	.st386{opacity:0.3909;}
	.st387{opacity:0.3955;}
	.st388{opacity:0.4002;}
	.st389{opacity:0.4049;}
	.st390{opacity:0.4095;}
	.st391{opacity:0.4142;}
	.st392{opacity:0.4188;}
	.st393{opacity:0.4235;}
	.st394{opacity:0.4281;}
	.st395{opacity:0.4328;}
	.st396{opacity:0.4374;}
	.st397{opacity:0.4421;}
	.st398{opacity:0.4467;}
	.st399{opacity:0.4514;}
	.st400{opacity:0.456;}
	.st401{opacity:0.4607;}
	.st402{opacity:0.4653;}
	.st403{fill:url(#SVGID_00000057143378060381359230000005313560000993949317_);}
	.st404{fill:url(#SVGID_00000132807105761781571260000004340622520608232634_);}
	.st405{fill:url(#SVGID_00000005963069681830581220000018359281799181692804_);}
	.st406{fill:#C6A295;}
	.st407{fill:#EFC5B3;}
	.st408{fill:#121214;}
	.st409{fill:#BBBDBE;}
	.st410{fill:#863C13;}
	.st411{fill:#B96117;}
	.st412{fill:#EF8118;}
	.st413{fill:#BA5817;}
	.st414{fill:#6D6F71;}
	.st415{fill:#E21D26;}
	.st416{fill:#2C5E84;}
	.st417{fill:#9C251F;}
	.st418{fill:url(#SVGID_00000072269833713402268460000011870374834213538218_);}
	.st419{fill:#1C374E;}
	.st420{fill:#2B4E68;}
	.st421{opacity:0.3;fill:#121214;}
	.st422{fill:url(#SVGID_00000026138813442404100750000005324025614371052438_);}
	.st423{fill:url(#SVGID_00000085212671403760271420000007015968610385022859_);}
	.st424{fill:url(#SVGID_00000170242181642757734680000009266147907559932055_);}
	.st425{fill:url(#SVGID_00000104696367724561244670000008660882967746254265_);}
	.st426{fill:url(#SVGID_00000056406997937762185240000013828483047420412574_);}
	.st427{fill:url(#SVGID_00000041282417444097715960000004245415292434240660_);}
	.st428{fill:#0C0C0C;}
	.st429{fill:#603914;}
	.st430{fill:#E86821;}
	.st431{fill:#171717;}
	.st432{fill:#663F30;}
	.st433{fill:url(#SVGID_00000086675284129246085040000003750717138645726344_);}
	.st434{fill:url(#SVGID_00000001621361160835421290000000259097103972800915_);}
	.st435{fill:url(#SVGID_00000174566685032840364480000012659683930210850719_);}
	.st436{fill:url(#SVGID_00000068652819405923185060000002981323693920974011_);}
	.st437{fill:url(#SVGID_00000001655968067877383300000000982104361035337869_);}
	.st438{fill:url(#SVGID_00000116944867204486257050000011295081551685651629_);}
	.st439{fill:url(#SVGID_00000037690231656914660540000015968319553728103297_);}
	.st440{fill:url(#SVGID_00000134942167490258858080000001186432465471872946_);}
	.st441{fill:url(#SVGID_00000000213216087769507050000011840309263422385793_);}
	.st442{fill:url(#SVGID_00000104679266973193796960000008338364691365511087_);}
	.st443{fill:url(#SVGID_00000057146675959305108160000007691616403431974846_);}
	.st444{fill:url(#SVGID_00000170275792416897483010000004969704465050956728_);}
	.st445{fill:url(#SVGID_00000138542519552586103450000012801330446874496144_);}
	.st446{fill:url(#SVGID_00000121960977243136779870000000078341645246664100_);}
	.st447{fill:url(#SVGID_00000127754215825618814920000002859005552063397051_);}
	.st448{fill:url(#SVGID_00000035516662027368682350000015884774973013327805_);}
	.st449{fill:url(#SVGID_00000000945580292551490950000016886563791141495435_);}
	.st450{fill:url(#SVGID_00000067233241002549283700000009629869281048586886_);}
	.st451{fill:#B7B7B7;}
	.st452{fill:#112134;}
	.st453{fill:#414042;}
	.st454{fill:#221E20;}
	.st455{fill:#131313;}
	.st456{fill:#202020;}
	.st457{fill:#915E33;}
	.st458{fill:#57391E;}
	.st459{fill:#F39519;}
	.st460{fill:#F4B305;}
	.st461{fill:#C4C3C3;}
	.st462{fill:#A5A4A5;}
	.st463{fill:#888989;}
	.st464{fill:#242424;}
	.st465{fill:#6E4827;}
	.st466{opacity:0.1844;fill:#24222D;}
	.st467{fill:#A0A4BB;}
	.st468{opacity:0.1844;fill:#999AB6;}
	.st469{fill:#D9E3E3;}
	.st470{fill:#FAD5CB;}
	.st471{opacity:0.1844;fill:#24212E;}
	.st472{fill:#844013;}
	.st473{fill:#F8B777;}
	.st474{fill:#3576AB;}
	.st475{fill:#A2A1A1;}
	.st476{fill:#754C29;}
	.st477{fill:#B3DFF1;}
	.st478{fill:#80A5A5;}
	.st479{fill:#EAAE93;}
	.st480{fill:#00657E;}
	.st481{fill:#382E22;}
	.st482{fill:#157288;}
	.st483{fill:#A42916;}
	.st484{fill:#D43216;}
	.st485{fill:#E5A082;}
	.st486{fill:#B23318;}
	.st487{fill:#843E1E;}
	.st488{fill:#EDBEA8;}
	.st489{fill:#E94E49;}
	.st490{fill:#E3E4E3;}
	.st491{fill:#B9B9B9;}
	.st492{fill:#868787;}
	.st493{fill:url(#XMLID_00000046297968880593821060000004181150461491393427_);}
	.st494{fill:#989898;}
	.st495{fill:url(#XMLID_00000036953367675629999990000006047310791648522652_);}
	.st496{fill:#EEECEB;}
	.st497{fill:#D5D5D5;}
	.st498{fill:url(#XMLID_00000155146314329608553220000009351265022070787478_);}
	.st499{fill:url(#XMLID_00000118381751110922957280000015912568041499542658_);}
	.st500{fill:url(#XMLID_00000122709993719025356230000000742118355962260880_);}
	.st501{fill:url(#XMLID_00000103950939995111958550000007983120319593767067_);}
	.st502{fill:url(#XMLID_00000156559886686664890700000000909975969449299628_);}
	.st503{fill:url(#XMLID_00000081607381084690142850000009244672104740963256_);}
	.st504{fill:url(#XMLID_00000074421051682364017410000015166665788006488482_);}
	.st505{fill:url(#XMLID_00000173862040795967121330000005002466244574965895_);}
	.st506{fill:url(#XMLID_00000029025090621811260380000014303546179308582020_);}
	.st507{fill:url(#XMLID_00000003104265749998503500000000594191345981694887_);}
	.st508{fill:url(#XMLID_00000109749851956223779550000017456379141077849480_);}
	.st509{fill:url(#XMLID_00000148628173723449544510000010583313436444611230_);}
	.st510{fill:url(#XMLID_00000147939595872603235500000001300200140224169097_);}
	.st511{fill:url(#XMLID_00000036965529131936363330000017702968804999839117_);}
	.st512{fill:url(#XMLID_00000091707829617113850080000003417290819457083838_);}
	.st513{fill:url(#XMLID_00000043416173408395917380000009176245443532808603_);}
	.st514{fill:url(#XMLID_00000103254948142135465610000001594101392620216965_);}
	.st515{fill:url(#XMLID_00000147919435407943173100000003133588651667732369_);}
	.st516{fill:url(#XMLID_00000002377481392661221390000003797360480650870918_);}
	.st517{fill:url(#XMLID_00000060736282816793638540000018098109311575662489_);}
	.st518{fill:url(#XMLID_00000070818204711895417300000009687611407009395644_);}
	.st519{fill:url(#XMLID_00000142857080919241784190000005501610665715411373_);}
	.st520{fill:url(#XMLID_00000070091398039464733520000000543599912666100621_);}
	.st521{fill:url(#XMLID_00000080925129100659193810000008710791260895867577_);}
	.st522{fill:url(#XMLID_00000054947561191578437720000010749224722885566614_);}
	.st523{fill:url(#XMLID_00000029030188651821099930000001613621386753570205_);}
	.st524{fill:url(#XMLID_00000040569534624923870790000009082617677357555898_);}
	.st525{fill:url(#XMLID_00000023961473498002983170000004624395209181233587_);}
	.st526{fill:url(#XMLID_00000085251899170159565970000006811897159076864646_);}
	.st527{fill:url(#XMLID_00000113313272125390333680000011768715655767495332_);}
	.st528{fill:url(#XMLID_00000176730462552434493910000017707094788182204315_);}
	.st529{fill:url(#XMLID_00000132053935225414837220000009293669057132317872_);}
	.st530{fill:url(#XMLID_00000075850780696606375380000011321599908626947475_);}
	.st531{fill:url(#XMLID_00000046337125333098263550000004821829419025894840_);}
	.st532{fill:url(#XMLID_00000124879066346637258280000012419966369348366991_);}
	.st533{fill:url(#XMLID_00000160162242138296176220000011610139699340879747_);}
	.st534{fill:url(#XMLID_00000134967128636462531430000016747879462318857363_);}
	.st535{fill:url(#XMLID_00000119807580874928620460000000837445421741177495_);}
	.st536{fill:url(#XMLID_00000045615300704354653640000007034049807870248123_);}
	.st537{fill:url(#XMLID_00000149379313909561298520000014767812939186881165_);}
	.st538{fill:url(#XMLID_00000086664650238665077560000017123233278146532017_);}
	.st539{fill:url(#XMLID_00000154408982473059125580000002118546438243831686_);}
	.st540{fill:url(#XMLID_00000075864221510741760900000017247869107107518617_);}
	.st541{fill:url(#XMLID_00000098930500954759008830000004368418127883622281_);}
	.st542{fill:url(#XMLID_00000002379362114668672310000006041777857124100535_);}
	.st543{fill:url(#XMLID_00000163784675023996552170000008082946698041415863_);}
	.st544{fill:url(#XMLID_00000065792842660129294160000006666993256569935497_);}
	.st545{fill:url(#XMLID_00000131352756182851916520000016788573235475026084_);}
	.st546{fill:url(#XMLID_00000158713379370770939000000002035959285798768529_);}
	.st547{fill:url(#XMLID_00000035489608098939211000000006778871454150625211_);}
	.st548{fill:url(#XMLID_00000052793582989808287410000009886212684867784329_);}
	.st549{fill:url(#XMLID_00000060032681202662086950000000872771923691424676_);}
	.st550{fill:url(#XMLID_00000070826021572437095770000000566333540760766645_);}
	.st551{fill:url(#XMLID_00000060747226265083143010000013851445833176677261_);}
	.st552{fill:url(#XMLID_00000005952210609047018640000003562657633650258850_);}
	.st553{fill:url(#XMLID_00000088108802599325465060000000672397367153109905_);}
	.st554{fill:url(#XMLID_00000034049274990737591770000011296242801500059525_);}
	.st555{fill:url(#XMLID_00000113341671328631511470000017962715741937129661_);}
	.st556{fill:url(#XMLID_00000056407802000892309860000006146713226930900395_);}
	.st557{fill:url(#XMLID_00000179645591580216790130000010719538674673375125_);}
	.st558{fill:url(#XMLID_00000181775262623237250280000011323491532360711089_);}
	.st559{fill:url(#XMLID_00000111871760924732159410000014194874527349947804_);}
	.st560{fill:url(#XMLID_00000112611847311799494300000002949753632149485734_);}
	.st561{fill:url(#XMLID_00000079479382264719409380000002345253063291581869_);}
	.st562{fill:url(#XMLID_00000067214771917495930280000005557761201601880245_);}
	.st563{fill:url(#XMLID_00000034795891083179076280000009075928613274388396_);}
	.st564{fill:url(#XMLID_00000111189549170294497100000001936048955284722111_);}
	.st565{fill:url(#XMLID_00000080891910019973352350000013451802611711686793_);}
	.st566{fill:url(#XMLID_00000051368681175342694130000006047546152864605315_);}
	.st567{fill:url(#XMLID_00000115481359328748039770000001366625334571641274_);}
	.st568{fill:url(#XMLID_00000130605763812841874650000015656091868191358625_);}
	.st569{fill:url(#XMLID_00000172415827606887401190000010820680488866656700_);}
	.st570{fill:url(#XMLID_00000098917204446786419520000006609459339768081541_);}
	.st571{fill:url(#XMLID_00000168836615412634760530000011784357798846451641_);}
	.st572{fill:url(#XMLID_00000007415678735381577010000004895501141828959641_);}
	.st573{fill:url(#XMLID_00000118377311334514503510000000150891202972068781_);}
	.st574{fill:url(#XMLID_00000160874397346959369050000017555542164874263989_);}
	.st575{fill:url(#XMLID_00000117637114317581336930000007022295898202844821_);}
	.st576{fill:url(#XMLID_00000160880952712900906210000002355490190796341386_);}
	.st577{fill:url(#XMLID_00000067228109886924276600000009030921183380053684_);}
	.st578{fill:url(#XMLID_00000181081535570105919250000010173429698053296270_);}
	.st579{fill:url(#XMLID_00000072990589130829782390000011588726529473343365_);}
	.st580{fill:url(#XMLID_00000103987728277082577940000005330670734195523210_);}
	.st581{fill:url(#XMLID_00000048460437232186456490000002953690163212129182_);}
	.st582{fill:url(#XMLID_00000119119796234074305640000013082634439624456070_);}
	.st583{fill:url(#XMLID_00000026870426501287296680000010648895168858495934_);}
	.st584{fill:url(#XMLID_00000028313918921658937170000006865156952442237101_);}
	.st585{fill:url(#XMLID_00000070092734903793998610000000716286782654082720_);}
	.st586{fill:url(#XMLID_00000114053624837858112440000018407024945397940879_);}
	.st587{fill:url(#XMLID_00000126298458777039759500000012985828732342844038_);}
	.st588{fill:url(#XMLID_00000012464265975097853030000010590947688069216134_);}
	.st589{fill:url(#XMLID_00000023970227819600903850000005182717669144747654_);}
	.st590{fill:url(#XMLID_00000031205937565181751380000011711996450223042733_);}
	.st591{fill:url(#XMLID_00000167390173399769034840000016847862346017940634_);}
	.st592{fill:url(#XMLID_00000057847921554955287210000009652390533996818822_);}
	.st593{fill:url(#XMLID_00000041297365271573402570000008655070601990137224_);}
	.st594{fill:url(#XMLID_00000072257451473918855610000002401975950533436048_);}
	.st595{fill:url(#XMLID_00000144313898792316890440000009509180486067559613_);}
	.st596{fill:url(#XMLID_00000158000881548793829650000001106971623477322931_);}
	.st597{fill:url(#XMLID_00000147935412181071466540000002773163742034486405_);}
	.st598{fill:#FCFDFF;}
	.st599{fill:#757576;}
	.st600{fill:#D4D3D3;}
	.st601{fill:#E2E4E0;}
	.st602{fill:#B5B4B4;}
	.st603{fill:#908F8A;}
	.st604{fill:#F6F6F5;}
	.st605{fill:#3E4046;}
	.st606{fill:#525557;}
	.st607{fill:#E1E2E2;}
	.st608{fill:#E8E9EA;}
	.st609{fill:#2B2E35;}
	.st610{fill:#64666B;}
	.st611{fill:url(#XMLID_00000101823923902294539930000007943054389351123598_);}
	.st612{fill:#F0F0F0;}
	.st613{fill:#757779;}
	.st614{fill:#191B22;}
	.st615{fill:#14181E;}
	.st616{fill:#11141A;}
	.st617{fill:#DAEBE7;}
	.st618{fill:#7F8082;}
	.st619{fill:#A7B3B4;}
	.st620{fill:#3C575C;}
	.st621{fill:#CED6D6;}
	.st622{fill:#1A3A66;}
	.st623{fill:#2887C4;}
	.st624{fill:#66C3D8;}
	.st625{fill:#07282F;}
	.st626{fill:#8B9B9D;}
	.st627{fill:#72888C;}
	.st628{fill:#7F1710;}
	.st629{fill:#C3253D;}
	.st630{fill:#D9648A;}
	.st631{fill:#A24817;}
	.st632{fill:#DAA802;}
	.st633{fill:#EEB219;}
	.st634{fill:#424242;}
	.st635{fill:#474646;}
	.st636{fill:#AAB545;}
	.st637{fill:#C17D11;}
	.st638{fill:#CACCD2;}
	.st639{fill:#B6BCC6;}
	.st640{fill:#353842;}
	.st641{fill:#585C64;}
	.st642{fill:#454852;}
	.st643{fill:#62656C;}
	.st644{fill:#72757B;}
	.st645{fill:#3A3D42;}
	.st646{fill:#494D53;}
	.st647{fill:#161A24;}
	.st648{fill:#4C4F58;}
	.st649{fill:#666970;}
	.st650{fill:#7F7F83;}
	.st651{fill:#383C40;}
	.st652{fill:#1E222B;}
	.st653{fill:url(#XMLID_00000018920835349446734280000003845053940184836486_);}
	.st654{fill:#3D4049;}
	.st655{fill:url(#XMLID_00000139272160766422264720000002086905600304371872_);}
	.st656{fill:#30333C;}
	.st657{fill:#474D57;}
	.st658{fill:#75787F;}
	.st659{fill:#2F7E9D;}
	.st660{fill:#6DC0B2;}
	.st661{fill:url(#XMLID_00000144314011389101114820000004921994621397734302_);}
	.st662{fill:#F1F8FA;}
	.st663{fill:url(#XMLID_00000078737086886578512970000015346220582920070811_);}
	.st664{fill:url(#XMLID_00000010280484858108412060000010982069861494987146_);}
	.st665{fill:#ECF6F9;}
	.st666{fill:url(#XMLID_00000004520387866695713310000015715441569365016748_);}
	.st667{fill:url(#XMLID_00000005978104213063347560000013729382365074472117_);}
	.st668{fill:#CFE4F1;}
	.st669{fill:#DADADA;}
	.st670{fill:#D32D16;}
	.st671{fill:#176581;}
	.st672{fill:#9ED1F2;}
	.st673{fill:#1B222D;}
	.st674{fill:#EBE9EA;}
	.st675{fill:#C9CED5;}
	.st676{fill:#E1E0E0;}
	.st677{fill:#E7E6E6;}
	.st678{fill:#E8E7E7;}
	.st679{fill:#BFCBDD;}
	.st680{fill:#9D958F;}
	.st681{fill:#FFDC04;}
	.st682{fill:#B21828;}
	.st683{fill:#D8408F;}
	.st684{fill:#574997;}
	.st685{fill:#356AB1;}
	.st686{fill:#45B3E7;}
	.st687{fill:#2D8A36;}
	.st688{fill:#D0CFD0;}
	.st689{fill:#98A88B;}
	.st690{fill:#F8E825;}
	.st691{fill:#CB1333;}
	.st692{fill:url(#XMLID_00000025445206809479348060000010499548068652642725_);}
	.st693{fill:#0B0E18;}
	.st694{fill:#40424A;}
	.st695{fill:url(#XMLID_00000160164289621781024050000003816886142961349789_);}
	.st696{fill:#71757D;}
	.st697{fill:#C2C2C4;}
	.st698{fill:url(#XMLID_00000162309817124284840510000018041274023585794193_);}
	.st699{fill:#9DA094;}
	.st700{fill:#D4D4D4;}
	.st701{fill:url(#XMLID_00000054266496867113255120000009321712998459456702_);}
	.st702{fill:url(#XMLID_00000181803640815587526540000014166638021810767505_);}
	.st703{fill:#E8E8E8;}
	.st704{fill:#15120B;}
	.st705{fill:#4C4842;}
	.st706{fill:#74AEDF;}
	.st707{fill:#413D3F;}
	.st708{fill:#48494A;}
	.st709{fill:#080504;}
	.st710{fill:#4E4D4D;}
	.st711{fill:#A1A0A0;}
	.st712{fill:#FBEEF5;}
	.st713{fill:#BFBEBE;}
	.st714{fill:#015A64;}
	.st715{fill:#B81818;}
	.st716{fill:#8C811D;}
	.st717{fill:#03709B;}
	.st718{fill:#E74B1E;}
	.st719{fill:#F2B000;}
	.st720{fill:#E33335;}
	.st721{fill:#F8F09C;}
	.st722{fill:#FAEF81;}
	.st723{fill:#E7A8CB;}
	.st724{fill:#CD90BE;}
	.st725{fill:#847A73;}
	.st726{fill:#CCCBCB;}
	.st727{fill:#EDECEC;}
	.st728{fill:#9D9D9D;}
	.st729{fill:#EFEFEF;}
	.st730{fill:#4F525A;}
	.st731{fill:#E15C48;}
	.st732{fill:url(#XMLID_00000145055135453481547780000004305536281743782277_);}
	.st733{fill:url(#XMLID_00000023278336690055229260000001476100210897562757_);}
	.st734{fill:url(#XMLID_00000022522456167575919450000016589484655534755513_);}
	.st735{fill:url(#XMLID_00000119096070629519846530000017863897739703289501_);}
	.st736{fill:url(#XMLID_00000119798769748106657410000001563359959373094788_);}
	.st737{fill:#9E9D9D;}
	.st738{fill:#9DCBEF;}
	.st739{fill:#010000;}
	.st740{fill:url(#SVGID_00000141433154307004548960000009736406675005300628_);}
	.st741{fill:url(#SVGID_00000076571814689820403060000012606362882907586477_);}
	.st742{fill:url(#SVGID_00000112600507892562337180000000524433882903242411_);}
	.st743{fill:#D2D2D2;}
	.st744{fill:#232C35;}
	.st745{fill:#E39470;}
	.st746{fill:url(#XMLID_00000117670476442624561930000010679761315022582969_);}
	.st747{fill:#9DA6AC;}
	.st748{fill:#72979F;}
	.st749{fill:#96A1AB;}
	.st750{fill:#5F7887;}
	.st751{fill:#CC1B31;}
	.st752{fill:url(#XMLID_00000116921817901419111620000004279900276955803793_);}
	.st753{fill:url(#XMLID_00000077319421984683960250000016385946277878934205_);}
	.st754{fill:url(#XMLID_00000078740849304585492930000004438178382603292342_);}
	.st755{fill:#C0C4B6;}
	.st756{fill:#CEE8EC;}
	.st757{fill:url(#XMLID_00000018197645462214774100000017599077062167268269_);}
	.st758{fill:url(#XMLID_00000100348455796143561710000002251284513187699647_);}
	.st759{fill:#384C5A;}
	.st760{fill:url(#XMLID_00000164509524186164770240000002395453834639532213_);}
	.st761{fill:#ED9E02;}
	.st762{fill:#FFE253;}
	.st763{fill:#F7C318;}
	.st764{fill:#DDB988;}
	.st765{fill:#D2A37C;}
	.st766{fill:#C98666;}
	.st767{fill:#2C7EAE;}
	.st768{fill:#A61916;}
	.st769{fill:#E6704B;}
	.st770{fill:#DF3118;}
	.st771{fill:#00648A;}
	.st772{fill:#4CB0E4;}
	.st773{fill:#2178BD;}
	.st774{fill:#058A38;}
	.st775{fill:#6EB761;}
	.st776{fill:#4DAD3C;}
	.st777{fill:#283373;}
	.st778{fill:#4A60A8;}
	.st779{fill:#274394;}
	.st780{fill:#49267F;}
	.st781{fill:#7C559E;}
	.st782{fill:#693D8F;}
	.st783{fill:#871D6C;}
	.st784{fill:#C5569A;}
	.st785{fill:#CA1781;}
	.st786{fill:#2D1B1B;}
	.st787{fill:#8A5655;}
	.st788{fill:#734748;}
	.st789{fill:url(#XMLID_00000137098749812772326500000010490997316679037335_);}
	.st790{fill:#A3B5D1;}
	.st791{fill:#04559C;}
</style>
<g>
	<g>
		<path class="st0" d="M177.72,67.44c-56.77,7.48-114.28,7.48-171.05,0C3,66.94,0,63.49,0,59.82c0-15.53,0-31.06,0-46.59
			c0-3.66,3-7.11,6.67-7.62c56.77-7.48,114.28-7.48,171.05,0c3.67,0.51,6.67,3.95,6.67,7.62c0,15.53,0,31.06,0,46.59
			C184.39,63.49,181.39,66.94,177.72,67.44z"/>
	</g>
	<g>
		<path class="st107" d="M49.79,35.83c0,0,0,13.83,0,20.73H36.78c4.28-6.05,8.55-12.07,12.88-18.18c-0.24-0.03-0.36-0.06-0.49-0.06
			c-2.9,0-5.8,0-8.69,0c-0.45,0-0.47,0.03-0.48,0.48c0,0.73-0.01,1.46,0.01,2.2c0.01,0.31-0.1,0.4-0.4,0.39
			c-0.57-0.02-1.14,0-1.72-0.01c-0.28-0.01-0.39,0.1-0.39,0.39c0.01,0.66-0.01,1.32,0.01,1.98c0.01,0.31-0.07,0.44-0.4,0.42
			c-0.35-0.02-0.7-0.02-1.05-0.01c-0.87,0.02-0.89-0.09-0.89,0.53c0,0.87-0.01,1.73,0.01,2.6c0.01,0.31-0.1,0.41-0.42,0.39
			c-0.39-0.02-0.79-0.02-1.18-0.01c-0.93,0.03-0.94-0.1-0.94,0.53c0,0.74-0.01,1.49,0,2.23c0.01,0.27-0.08,0.37-0.35,0.36
			c-0.54-0.02-1.07-0.01-1.61,0c-0.5,0-0.5,0.01-0.5,0.52c0,0.56-0.01,1.12,0,1.68c0.01,0.25-0.09,0.35-0.34,0.34
			c-0.61-0.01-1.22,0.01-1.83-0.01c-0.32-0.01-0.43,0.12-0.42,0.43c0.02,0.73,0,1.46,0,2.2c0,0.19,0,0.31,0,0.54
			c-5.22,0-10.4,0-15.6,0c0-5.88,0-11.76,0-17.74c0.44,0.65,0.83,1.23,1.22,1.82c3.46,5.18,6.92,10.35,10.38,15.53
			c0.22,0.34,0.28,0.34,0.52,0.02c3.17-4.35,6.34-8.7,9.5-13.06c1.06-1.45,2.11-2.9,3.17-4.35c0.08-0.11,0.15-0.24,0.28-0.45
			c-8.41,0-25.14,0-25.14,0v-1.05c0.05-0.54,0.06-1.07,0.04-1.61c-0.01-0.24,0.09-0.34,0.31-0.35c0.17-0.01,0.34-0.01,0.51-0.01
			c2.45,0,4.91-0.01,7.36,0.01c0.34,0,0.56-0.1,0.75-0.39c3.27-4.95,6.54-9.89,9.81-14.84c0.61-0.92,1.22-1.83,1.83-2.74
			c0.05-0.08,0.12-0.16,0.17-0.24c0.34-0.52,0.77-0.78,1.43-0.73c0.84,0.06,1.68,0.01,2.53,0.02c0.12,0,0.24,0.01,0.42,0.02
			c-0.47,0.72-0.9,1.39-1.34,2.05c-3.49,5.33-6.98,10.66-10.47,15.99c-0.22,0.34-0.45,0.67-0.66,1.01
			c-0.18,0.29-0.11,0.42,0.23,0.44c0.13,0.01,0.27,0,0.4,0.01l24.16,0H49.79z"/>
		<path class="st107" d="M130.13,45.93c-1.1,0-2.08,0-3.22,0c0-0.16,0-0.31,0-0.46c0-6.04,0-12.08-0.01-18.12
			c0-0.46-0.04-0.93-0.08-1.39c-0.02-0.25-0.1-0.51-0.41-0.53c-0.32-0.02-0.44,0.24-0.46,0.48c-0.06,0.52-0.11,1.04-0.12,1.57
			c-0.01,3-0.01,6-0.01,9c0,2.99,0,5.98,0,8.97c0,0.14,0,0.3,0,0.48c-1.08,0-2.14,0-3.22,0c0-8.12,0-16.24,0-24.39
			c1.08,0,2.12,0,3.22,0v2.05c0.04,0.01,0.03,0,0.06,0.01c0.07-0.19,0.12-0.38,0.21-0.56c0.27-0.5,0.5-1.04,0.87-1.46
			c0.54-0.62,1.42-0.58,1.98,0.02c0.67,0.71,0.92,1.61,1,2.54c0.11,1.2,0.18,2.41,0.19,3.61c0.02,5.92,0.01,11.85,0.01,17.77
			C130.13,45.65,130.13,45.77,130.13,45.93z"/>
		<path class="st107" d="M155.11,21.55c0,0,2.08,0,3.15,0c0,8.12,0,16.25,0,24.39c-1.07,0-2.13,0-3.22,0v-1.76
			c-0.03-0.01-0.02,0-0.06-0.01c-0.14,0.35-0.27,0.71-0.43,1.06c-0.23,0.49-0.53,0.93-1.07,1.14c-0.6,0.23-1.27-0.02-1.72-0.62
			c-0.45-0.62-0.67-1.34-0.73-2.08c-0.12-1.41-0.22-2.82-0.22-4.23c-0.02-5.85-0.01-11.69-0.01-17.54c0-0.11,0-0.41,0-0.41H154
			c0,0.21,0,0.37,0,0.52c0.01,6.04,0.01,12.08,0.02,18.12c0,0.39,0.01,0.78,0.04,1.17c0.01,0.17,0.01,0.36,0.1,0.5
			c0.09,0.14,0.27,0.33,0.4,0.32c0.14-0.01,0.34-0.2,0.39-0.35c0.08-0.29,0.1-0.6,0.1-0.9c0.01-2.75,0.02-5.49,0.02-8.24
			c0-3.54,0-7.08,0.04-10.62V21.55z"/>
		<path class="st108" d="M83.33,45.93c-1.09,0-2.14,0-3.22,0c0-0.62,0-1.22,0-1.91c-0.22,0.54-0.38,1.01-0.61,1.44
			c-0.29,0.55-0.7,0.98-1.4,0.94c-0.43-0.02-0.76-0.24-1.06-0.52c-0.64-0.61-0.89-1.4-0.98-2.23c-0.3-2.66-0.31-5.32-0.03-7.99
			c0.1-0.93,0.56-1.68,1.2-2.32c0.63-0.63,1.27-1.25,1.94-1.84c0.6-0.54,0.86-1.19,0.83-1.98c-0.03-1.07-0.04-2.14-0.08-3.21
			c-0.01-0.21-0.07-0.44-0.16-0.63c-0.05-0.11-0.21-0.24-0.32-0.24c-0.11,0-0.28,0.14-0.31,0.25c-0.08,0.3-0.13,0.62-0.13,0.93
			c-0.02,1.35-0.02,2.7-0.02,4.06c0,0.08,0,0.17,0,0.28c-1.04,0-2.06,0-3.1,0c-0.01-0.04-0.03-0.09-0.03-0.13
			c-0.01-1.9-0.03-3.8,0.27-5.69c0.18-1.11,0.59-2.13,1.3-3.02c1.22-1.51,3.57-1.41,4.66,0.2c0.75,1.1,1.06,2.36,1.1,3.66
			c0.08,2.52,0.13,5.04,0.15,7.56c0.02,4,0.01,7.99,0.01,11.99C83.33,45.67,83.33,45.78,83.33,45.93z M79.98,34.57
			c-0.05-0.02-0.1-0.03-0.15-0.05c-0.24,0.63-0.63,1.25-0.69,1.89c-0.13,1.51-0.11,3.04-0.14,4.55c0,0.23,0.01,0.48,0.1,0.68
			c0.07,0.18,0.25,0.41,0.4,0.43c0.27,0.04,0.37-0.24,0.4-0.48c0.04-0.36,0.08-0.73,0.08-1.09c0.01-1.92,0.01-3.85,0.01-5.77
			C79.99,34.68,79.98,34.63,79.98,34.57z"/>
		<path class="st108" d="M58.07,30.99c-1.04,0-2.05,0-3.05,0c-0.02-0.03-0.04-0.05-0.04-0.07c-0.01-2.07-0.08-4.15,0.34-6.2
			c0.18-0.88,0.56-1.68,1.07-2.42c1.22-1.79,3.94-1.53,4.91,0.22c0.65,1.16,0.97,2.4,0.98,3.71c0.06,6.48,0.1,12.95,0.14,19.43
			c0,0.08-0.01,0.17-0.02,0.28h-3.18l0-1.81c-0.04-0.01-0.03-0.01-0.07-0.02c-0.03,0.06-0.06,0.13-0.09,0.19
			c-0.2,0.47-0.35,0.97-0.61,1.4c-0.55,0.89-1.49,0.97-2.26,0.25c-0.72-0.67-0.96-1.55-1.06-2.46c-0.26-2.41-0.2-4.82-0.08-7.23
			c0.07-1.31,0.65-2.35,1.59-3.22c0.62-0.57,1.22-1.16,1.83-1.74c0.4-0.38,0.61-0.84,0.6-1.4c-0.02-1.23-0.04-2.46-0.07-3.69
			c-0.01-0.19-0.07-0.39-0.16-0.55c-0.15-0.29-0.45-0.29-0.58,0.01c-0.09,0.21-0.13,0.45-0.13,0.67c-0.03,1.4-0.04,2.8-0.06,4.21
			C58.07,30.68,58.07,30.83,58.07,30.99z M59.05,34.48c-0.45,0.76-0.85,1.46-0.88,2.28c-0.05,1.49-0.04,2.99-0.05,4.49
			c0,0.18,0.03,0.38,0.12,0.53c0.08,0.14,0.26,0.32,0.38,0.31c0.13-0.01,0.3-0.21,0.34-0.35c0.08-0.29,0.1-0.6,0.1-0.9
			c0.02-2.03,0.02-4.07,0.03-6.1C59.09,34.66,59.08,34.61,59.05,34.48z"/>
		<path class="st107" d="M88.31,30.99h-3.03c0-0.95-0.05-1.89,0.01-2.83c0.09-1.24,0.18-2.48,0.42-3.7
			c0.22-1.12,0.75-2.15,1.71-2.85c1.17-0.86,2.99-0.56,3.86,0.6c0.74,1,1.11,2.16,1.16,3.38c0.11,2.68,0.16,5.36,0.18,8.05
			c0.03,3.95,0.01,7.91,0.01,11.86c0,0.13,0,0.26,0,0.43h-3.15l0-1.88c-0.05-0.01-0.04-0.01-0.09-0.01
			c-0.04,0.13-0.07,0.27-0.12,0.39c-0.18,0.44-0.32,0.9-0.57,1.3c-0.55,0.88-1.44,0.96-2.19,0.26c-0.46-0.43-0.75-0.95-0.89-1.56
			c-0.3-1.26-0.34-2.54-0.34-3.82c0-1.35,0.05-2.71,0.07-4.06c0.02-1.6,0.8-2.79,1.96-3.8c0.58-0.5,1.13-1.04,1.64-1.61
			c0.21-0.24,0.39-0.6,0.4-0.91c0.03-1.34-0.01-2.68-0.03-4.02c0-0.14-0.03-0.31-0.11-0.42c-0.09-0.14-0.27-0.33-0.38-0.31
			c-0.15,0.03-0.34,0.21-0.38,0.36c-0.08,0.35-0.1,0.72-0.11,1.09c-0.01,1.22-0.01,2.44-0.01,3.66
			C88.31,30.71,88.31,30.84,88.31,30.99z M89.39,34.39c-0.44,0.69-0.84,1.32-0.88,2.03c-0.1,1.51-0.1,3.02-0.12,4.53
			c0,0.26,0.03,0.55,0.13,0.79c0.06,0.16,0.27,0.37,0.41,0.36c0.14,0,0.34-0.23,0.39-0.39c0.09-0.33,0.11-0.67,0.11-1.01
			c0.01-1.98,0.01-3.95,0.01-5.93C89.43,34.68,89.41,34.59,89.39,34.39z"/>
		<path class="st107" d="M120.49,34.22h-4.23c-0.01,0.15-0.03,0.25-0.03,0.35c0,2.01,0,4.03,0.01,6.04c0,0.33,0.04,0.66,0.08,0.98
			c0.04,0.24,0.11,0.5,0.41,0.53c0.3,0.03,0.44-0.21,0.49-0.45c0.08-0.44,0.16-0.89,0.17-1.34c0.03-1.32,0.02-2.63,0.02-3.95
			c0-0.14,0-0.29,0-0.48h3.05c0.01,0.13,0.03,0.23,0.03,0.34c-0.03,1.56-0.01,3.12-0.12,4.68c-0.11,1.58-0.48,3.12-1.43,4.43
			c-0.95,1.31-2.78,1.45-3.99,0.37c-0.87-0.78-1.25-1.81-1.53-2.9c-0.36-1.41-0.42-2.84-0.43-4.28c-0.01-3.49-0.01-6.98,0.03-10.47
			c0.02-1.46,0.16-2.92,0.66-4.32c0.23-0.66,0.55-1.27,1.05-1.78c1.2-1.2,2.97-1.11,4.04,0.22c0.82,1.03,1.2,2.25,1.4,3.53
			C120.62,28.52,120.46,31.34,120.49,34.22z M117.18,30.26c0.02-0.07,0.04-0.1,0.04-0.14c-0.01-1.24-0.01-2.48-0.03-3.73
			c0-0.24-0.05-0.49-0.14-0.71c-0.05-0.12-0.21-0.27-0.33-0.27c-0.12,0-0.25,0.15-0.35,0.26c-0.06,0.06-0.07,0.18-0.07,0.28
			c-0.02,1.41-0.04,2.82-0.06,4.23c0,0.02,0.03,0.04,0.05,0.07C116.58,30.26,116.87,30.26,117.18,30.26z"/>
		<path class="st107" d="M148.65,34.22h-1.03c-0.98,0.01-1.95,0.01-2.93,0c-0.23,0-0.32,0.06-0.32,0.31
			c0.01,2.07,0.01,4.15,0.02,6.22c0,0.29,0.02,0.6,0.11,0.87c0.06,0.19,0.23,0.44,0.4,0.49c0.28,0.08,0.44-0.18,0.49-0.43
			c0.08-0.42,0.15-0.84,0.15-1.27c0.02-1.35,0.02-2.71,0.02-4.06c0-0.13,0-0.26,0-0.45h3.09c0,0.56,0.01,1.09,0,1.63
			c-0.03,1.18-0.03,2.37-0.13,3.55c-0.1,1.3-0.46,2.54-1.04,3.71c-1.14,2.27-3.76,2.08-4.98,0.24c-0.62-0.93-0.96-1.99-1.08-3.08
			c-0.15-1.37-0.24-2.74-0.26-4.12c-0.04-3.1-0.03-6.2,0-9.3c0.02-1.61,0.12-3.23,0.69-4.75c0.23-0.61,0.55-1.21,0.97-1.7
			c1.13-1.32,2.96-1.27,4.08,0.07c0.69,0.82,1.06,1.8,1.29,2.83c0.4,1.77,0.44,3.58,0.46,5.38c0.01,1.15,0.01,2.29,0.01,3.44
			C148.65,33.93,148.65,34.06,148.65,34.22z M145.43,30.3c-0.04-1.47-0.08-2.87-0.13-4.26c-0.01-0.26-0.06-0.59-0.41-0.6
			c-0.37,0-0.4,0.33-0.45,0.61c0,0.02-0.01,0.05-0.01,0.07c-0.02,1.32-0.04,2.63-0.05,3.95c0,0.08,0.12,0.21,0.2,0.22
			C144.83,30.32,145.09,30.3,145.43,30.3z"/>
		<path class="st107" d="M132.09,37.51h2.97c0,0.16,0,0.3,0,0.45c0.03,1.13,0.04,2.26,0.08,3.39c0.02,0.48,0.21,0.74,0.48,0.76
			c0.31,0.01,0.57-0.27,0.58-0.76c0.03-1.01,0.03-2.02-0.01-3.02c-0.01-0.27-0.14-0.58-0.3-0.8c-0.72-1.01-1.48-1.99-2.22-2.98
			c-0.99-1.31-1.4-2.8-1.52-4.41c-0.12-1.67-0.09-3.33,0.09-4.99c0.09-0.8,0.25-1.58,0.63-2.3c1.11-2.11,3.83-2.25,5.12-0.25
			c0.56,0.87,0.87,1.84,0.92,2.88c0.05,1.14,0.06,2.28,0.08,3.43c0,0.13,0,0.26,0,0.41h-2.84c-0.01-0.13-0.02-0.26-0.02-0.39
			c-0.01-0.79-0.02-1.57-0.03-2.36c0-0.15-0.02-0.39-0.05-0.54c-0.04-0.27-0.12-0.54-0.44-0.55c-0.3-0.01-0.45,0.24-0.47,0.47
			c-0.06,0.7-0.08,1.4-0.11,2.1c-0.05,0.97,0.31,1.81,0.91,2.55c0.39,0.48,0.78,0.96,1.2,1.42c1.36,1.47,1.98,3.21,2.06,5.2
			c0.07,1.85,0.08,3.7-0.22,5.53c-0.11,0.67-0.31,1.36-0.61,1.97c-1.05,2.11-3.7,2.27-5.06,0.33c-0.54-0.77-0.84-1.62-0.91-2.54
			C132.28,40.85,132.2,39.21,132.09,37.51z"/>
		<path class="st107" d="M101.6,29.31c-1.02,0-1.95,0-2.93,0c0-0.59,0.01-1.16,0-1.73c-0.01-0.53-0.04-1.05-0.07-1.58
			c-0.02-0.27-0.1-0.53-0.42-0.56c-0.35-0.03-0.49,0.25-0.51,0.51c-0.06,0.7-0.08,1.41-0.1,2.12c-0.03,0.93,0.29,1.73,0.86,2.44
			c0.4,0.5,0.79,1,1.23,1.46c1.39,1.5,2.04,3.26,2.12,5.29c0.07,1.85,0.06,3.7-0.2,5.53c-0.12,0.84-0.35,1.65-0.83,2.37
			c-1.06,1.6-3.14,1.8-4.5,0.46c-0.75-0.74-1.11-1.67-1.28-2.67c-0.3-1.77-0.29-3.56-0.27-5.38c0.95,0,1.89,0,2.88,0
			c0,0.14,0,0.28,0,0.42c0.02,1.11,0.04,2.23,0.08,3.34c0.01,0.19,0.06,0.39,0.14,0.57c0.16,0.36,0.56,0.39,0.78,0.05
			c0.1-0.16,0.17-0.36,0.18-0.55c0.02-1,0.02-2.01,0-3.01c-0.01-0.62-0.44-1.05-0.78-1.51c-0.54-0.72-1.1-1.41-1.63-2.13
			c-0.89-1.19-1.46-2.5-1.6-4c-0.21-2.26-0.22-4.5,0.21-6.73c0.18-0.92,0.59-1.74,1.35-2.34c1.34-1.05,3.24-0.7,4.23,0.78
			c0.52,0.76,0.84,1.62,0.91,2.53C101.54,26.43,101.54,27.85,101.6,29.31z"/>
		<path class="st107" d="M167.45,37.51c0.95,0,1.87,0,2.84,0c0,0.15,0,0.3,0,0.44c0.02,1.11,0.04,2.21,0.08,3.32
			c0.01,0.18,0.04,0.37,0.13,0.52c0.07,0.13,0.23,0.29,0.36,0.3c0.15,0,0.35-0.12,0.44-0.25c0.11-0.15,0.16-0.36,0.16-0.55
			c0.01-0.97,0.03-1.94-0.01-2.91c-0.01-0.3-0.14-0.63-0.31-0.87c-0.7-0.98-1.43-1.93-2.16-2.89c-0.97-1.27-1.43-2.71-1.55-4.29
			c-0.15-1.96-0.15-3.92,0.2-5.85c0.12-0.65,0.35-1.33,0.7-1.89c1.17-1.88,3.65-1.89,4.89-0.07c0.59,0.86,0.9,1.83,0.96,2.87
			c0.06,1.16,0.06,2.33,0.09,3.5c0,0.13,0,0.26,0,0.42c-0.96,0-1.89,0-2.86,0c0-0.61,0.01-1.2,0-1.79
			c-0.01-0.51-0.04-1.02-0.08-1.53c-0.02-0.25-0.12-0.49-0.42-0.51c-0.31-0.02-0.41,0.22-0.49,0.45c-0.06,0.17-0.09,0.36-0.1,0.54
			c-0.01,0.7-0.02,1.41,0.01,2.11c0.03,0.69,0.33,1.29,0.75,1.83c0.43,0.56,0.88,1.1,1.35,1.62c1.23,1.36,1.91,2.94,2.02,4.77
			c0.12,1.99,0.13,3.99-0.2,5.96c-0.11,0.67-0.31,1.36-0.62,1.97c-1.05,2.1-3.72,2.25-5.06,0.31c-0.58-0.83-0.87-1.77-0.94-2.76
			c-0.11-1.54-0.13-3.08-0.19-4.62C167.42,37.61,167.44,37.58,167.45,37.51z"/>
		<path class="st107" d="M108.1,35.97c0.97,0,1.88,0,2.81,0c0.01,0.08,0.04,0.16,0.04,0.24c-0.03,1.48,0,2.96-0.11,4.43
			c-0.12,1.54-0.45,3.05-1.29,4.39c-0.65,1.05-1.63,1.46-2.83,1.24c-1.16-0.22-1.74-1.06-2.17-2.05c-0.41-0.96-0.6-1.97-0.68-3
			c-0.09-1.18-0.17-2.37-0.18-3.56c-0.02-3.14-0.04-6.28,0.02-9.42c0.02-1.25,0.18-2.52,0.44-3.74c0.16-0.74,0.57-1.48,1.01-2.11
			c1.21-1.7,3.24-1.59,4.42,0.18c0.55,0.82,0.86,1.73,1.04,2.69c0.23,1.23,0.42,4.41,0.3,5.43c-0.98,0-1.97,0-3.01,0
			c0-0.13,0-0.26,0-0.39c-0.01-1.2-0.01-2.4-0.03-3.6c0-0.29-0.04-0.59-0.13-0.86c-0.05-0.15-0.25-0.25-0.38-0.38
			c-0.12,0.13-0.32,0.25-0.36,0.4c-0.08,0.34-0.11,0.69-0.11,1.04c-0.01,3.06-0.02,6.11-0.02,9.17c0,1.43,0,2.86,0.03,4.29
			c0.01,0.41,0.08,0.82,0.18,1.22c0.05,0.18,0.25,0.31,0.39,0.47c0.14-0.16,0.38-0.3,0.41-0.48c0.1-0.68,0.16-1.37,0.18-2.06
			c0.03-1.03,0.01-2.06,0.02-3.09C108.1,36.3,108.1,36.15,108.1,35.97z"/>
		<path class="st107" d="M49.79,35.31c-4.17-6.35-8.3-12.64-12.45-18.96c4.18,0,8.3,0,12.45,0C49.79,22.64,49.79,28.93,49.79,35.31z
			"/>
		<path class="st108" d="M73.59,46.01c-1.13,0-2.27,0-3.37,0c0-6.65,0-13.28,0-19.93c-0.24-0.02-0.44-0.03-0.66-0.04
			c0-1.28,0-2.62,0-3.9c0.21-0.01,0.41-0.02,0.66-0.04c0-0.19-0.01-0.38,0-0.57c0.05-1.03,0.09-2.07,0.16-3.1
			c0.02-0.27,0.12-0.54,0.23-0.79c0.3-0.75,0.82-1.27,1.65-1.33c0.65-0.05,1.32-0.01,2-0.01c0,1.2,0,3.65,0,3.65
			s-0.48,0.07-0.76,0.1c-0.3,0.03-0.48,0.21-0.49,0.5c-0.02,0.52-0.01,1.04-0.01,1.6h1.33c0,0,0,2.58,0,3.88c-0.24,0-0.46,0-0.73,0
			C73.59,32.68,73.59,39.32,73.59,46.01z"/>
		<path class="st107" d="M11.99,16.32c0.16-0.01,0.28-0.02,0.4-0.02c3.71,0,7.42,0,11.13,0c0.49,0,0.52,0.02,0.53,0.51
			c0.02,0.67,0.01,1.34,0.02,2.01c0.01,0.25-0.12,0.31-0.34,0.3c-0.67-0.01-1.34,0.01-2.01-0.01c-0.33-0.01-0.46,0.1-0.45,0.44
			c0.02,0.78-0.01,1.56,0.01,2.34c0.01,0.29-0.09,0.39-0.38,0.38c-0.56-0.02-1.12,0.01-1.68-0.01c-0.3-0.01-0.42,0.1-0.41,0.4
			c0.01,0.77-0.01,1.54,0.01,2.31c0,0.27-0.09,0.36-0.36,0.36c-0.59-0.01-1.17,0-1.76-0.01c-0.28-0.01-0.39,0.11-0.39,0.39
			c0.01,0.78-0.01,1.56,0.01,2.34c0.01,0.29-0.09,0.39-0.38,0.38c-0.52-0.02-1.05,0.01-1.57-0.01c-0.31-0.01-0.44,0.1-0.43,0.42
			c0.02,0.8-0.01,1.61,0.01,2.42c0.01,0.29-0.1,0.39-0.38,0.37c-0.44-0.03-0.88-0.03-1.31-0.06c-0.19-0.01-0.28-0.12-0.26-0.32
			c0.01-0.21,0-0.41,0-0.62c0-4.62,0-9.25,0-13.87C11.99,16.64,11.99,16.5,11.99,16.32z"/>
		<path class="st108" d="M67.88,45.93c-1.13,0-2.23,0-3.37,0c0-9.91,0-19.81,0-29.74c1.12,0,2.23,0,3.37,0
			C67.88,26.1,67.88,36,67.88,45.93z"/>
		<path class="st107" d="M163.82,45.93c-1.09,0-2.15,0-3.22,0c0-8.14,0-16.25,0-24.39c1.07,0,2.11,0,3.15,0c0,0.98,0,1.95,0,2.98
			c0.45-1.27,0.56-2.67,1.98-3.41c0,2.92,0,5.71,0,8.53c-1.27,0.3-1.79,0.92-1.81,2.28c-0.05,2.45-0.07,4.9-0.09,7.36
			c-0.01,2.07,0,4.15,0,6.22C163.82,45.63,163.82,45.77,163.82,45.93z"/>
		<path class="st108" d="M139.89,48.06c0,0,1.31,0,1.96,0c0,2.76,0,5.5,0,8.28c-0.42,0-0.84,0-1.32,0v-4.97c-0.06,0-0.03,0-0.09,0
			c-0.15,1.65-0.3,3.31-0.44,4.95c-0.07,0.02-0.1,0.04-0.13,0.04c-1-0.02-0.8,0.21-0.91-0.82c-0.12-1.19-0.22-2.38-0.33-3.57
			c-0.01-0.13-0.05-0.25-0.14-0.37c0,1.57,0,3.14,0,4.74c-0.46,0-0.87,0-1.32,0c0-2.77,0-8.35,0-8.35h1.94
			c0.12,1.19,0.25,2.36,0.37,3.54c0.03,0,0.05,0,0.08,0C139.66,50.35,139.89,48.06,139.89,48.06z"/>
		<path class="st108" d="M166.09,56.4c0,0.34,0,0.62,0,0.93c-0.5,0-0.98,0.04-1.46-0.01c-0.43-0.04-0.51-0.22-0.6-0.89
			c-1.07-0.21-1.43-0.99-1.45-1.98c-0.02-1.61-0.03-3.22,0.01-4.83c0.02-0.72,0.31-1.36,1.02-1.7c0.8-0.38,1.84-0.02,2.19,0.81
			c0.16,0.37,0.26,0.8,0.27,1.2c0.03,1.48,0.01,2.95,0,4.43c0,0.63-0.15,1.19-0.81,1.47c-0.06,0.03-0.13,0.2-0.1,0.26
			c0.05,0.12,0.16,0.26,0.27,0.29C165.65,56.43,165.86,56.4,166.09,56.4z M164.09,52.09C164.09,52.09,164.08,52.09,164.09,52.09
			c-0.01,0.61-0.01,1.22,0,1.83c0,0.24,0,0.49,0.03,0.73c0.02,0.11,0.13,0.2,0.2,0.3c0.08-0.1,0.19-0.2,0.23-0.31
			c0.05-0.15,0.03-0.31,0.03-0.47c0-1.42,0-2.85,0-4.27c0-0.15,0-0.3-0.04-0.43c-0.03-0.1-0.13-0.17-0.2-0.25
			c-0.07,0.09-0.17,0.16-0.21,0.26c-0.04,0.12-0.04,0.26-0.04,0.4C164.09,50.6,164.09,51.34,164.09,52.09z"/>
		<path class="st108" d="M156.72,56.41c-0.44,0-0.83,0-1.25,0c0-2.79,0-8.42,0-8.42h1.25c0.26,1.16,0.52,2.3,0.79,3.45
			c0.03,0,0.05-0.01,0.09-0.01v-3.36c0,0,0.83,0,1.25,0c0,2.78,0,5.54,0,8.36c-0.39,0-0.78,0.01-1.18-0.01
			c-0.07-0.01-0.17-0.18-0.19-0.29c-0.21-0.93-0.4-1.87-0.59-2.81c-0.03-0.13-0.07-0.25-0.16-0.37
			C156.72,54.09,156.72,55.23,156.72,56.41z"/>
		<path class="st108" d="M73.66,56.45c-0.4,0-0.77,0.02-1.15-0.01c-0.09-0.01-0.21-0.18-0.23-0.29c-0.21-0.96-0.41-1.93-0.61-2.9
			c-0.01-0.07-0.05-0.13-0.14-0.18c0,1.11,0,2.2,0,3.34c-0.43,0-0.82,0-1.25,0c0-2.78,0-8.42,0-8.42h1.28
			c0.26,1.14,0.52,2.27,0.78,3.4c0.03,0,0.06-0.01,0.07-0.01v-3.31c0,0,0.82,0,1.25,0C73.66,50.84,73.66,53.61,73.66,56.45z"/>
		<path class="st108" d="M82.69,47.99h1.54c0,0.16,0,0.29,0,0.42c0,2.06,0,4.12,0.02,6.18c0,0.19,0.15,0.55,0.19,0.55
			c0.33-0.05,0.23-0.34,0.24-0.55c0.01-2.04,0.01-4.07,0.01-6.11c0-0.14,0-0.29,0-0.41h1.52c0.01,0.04,0.02,0.12,0.02,0.2
			c0,2.06,0,4.12-0.01,6.18c0,0.27-0.02,0.54-0.09,0.8c-0.24,0.92-0.84,1.38-1.74,1.34c-0.82-0.04-1.49-0.61-1.6-1.48
			c-0.09-0.71-0.08-1.43-0.08-2.15C82.68,51.31,82.69,49.67,82.69,47.99z"/>
		<path class="st108" d="M170.67,48.06c0,0.67,0,1.37,0,2.06c0,1.49-0.01,2.98-0.02,4.47c0,0.25-0.04,0.51-0.11,0.76
			c-0.27,0.89-0.9,1.31-1.78,1.23c-0.81-0.07-1.47-0.71-1.54-1.56c-0.06-0.73-0.07-1.46-0.07-2.19c-0.01-1.53,0-3.05,0-4.58
			c0-0.07,0.01-0.14,0.01-0.26h1.51v0.42c0.02,1.92,0.02,3.83,0.02,5.75c0,0.21-0.02,0.42,0.02,0.62c0.03,0.13,0.13,0.25,0.21,0.38
			c0.07-0.12,0.18-0.24,0.2-0.37c0.04-0.21,0.02-0.44,0.02-0.66c0-1.9,0-3.81-0.03-5.71v-0.36H170.67z"/>
		<path class="st108" d="M133.63,52.08c0.61,0.3,0.63,0.94,0.63,1.58c0,0.89,0,1.78,0,2.67h-1.43c0-0.21,0-0.45,0-0.69
			c-0.01-0.87-0.01-1.73-0.02-2.6c0-0.26-0.1-0.45-0.47-0.43v3.72h-1.54v-8.4c0.9,0.05,1.75,0.07,2.58,0.17
			c0.41,0.05,0.61,0.44,0.72,0.81c0.23,0.81,0.24,1.65,0.05,2.46C134.09,51.63,133.82,51.83,133.63,52.08z M132.4,49.38
			c0,0.67,0,1.28,0,1.96c0.65-0.3,0.39-0.83,0.43-1.24C132.86,49.8,132.88,49.45,132.4,49.38z"/>
		<path class="st108" d="M87.29,48.05c0.83,0,1.6-0.03,2.36,0.01c0.56,0.03,0.88,0.45,0.94,0.93c0.09,0.77,0.09,1.55,0.06,2.32
			c-0.01,0.38-0.17,0.49-0.67,0.71c0.76,0.34,0.75,1,0.75,1.65c0.01,0.89,0,1.78,0,2.74H89.3c0-0.54,0-1.04,0-1.53
			c0-0.6,0-1.2-0.01-1.79c0-0.24-0.07-0.46-0.46-0.46v3.79h-1.54V48.05z M88.9,49.33c0,0.7,0,1.31,0,1.94
			c0.47-0.02,0.45-0.35,0.43-0.63C89.28,50.22,89.56,49.66,88.9,49.33z"/>
		<path class="st108" d="M56.97,56.34h-1.55c-0.02-0.29-0.03-0.63-0.05-0.97c-0.03-0.51-0.03-0.51-0.6-0.46
			c-0.04,0.48-0.07,0.97-0.11,1.51h-1.57c0.27-2.83,0.53-5.61,0.79-8.43c0.7,0,1.37-0.01,2.04,0.01c0.07,0,0.18,0.17,0.19,0.27
			c0.13,1.13,0.25,2.25,0.37,3.38c0.16,1.5,0.32,3.01,0.47,4.51C56.96,56.22,56.96,56.28,56.97,56.34z M55.3,53.48
			c-0.08-1.1-0.16-2.17-0.24-3.23c-0.04,0-0.03,0-0.07,0c-0.09,1.07-0.19,2.13-0.28,3.23H55.3z"/>
		<path class="st108" d="M117.44,47.99c0.76,0,1.47,0,2.21,0c0.3,2.78,0.59,5.55,0.89,8.35c-0.51,0-1.01,0-1.55,0
			c-0.03-0.47-0.06-0.96-0.1-1.46c-0.2,0-0.38,0-0.57,0c-0.04,0.49-0.07,0.97-0.11,1.46c-0.51,0-1.02,0-1.57,0
			C116.91,53.54,117.17,50.78,117.44,47.99z M118.56,50.18c-0.09,1.08-0.19,2.15-0.28,3.23h0.58c-0.08-1.1-0.15-2.16-0.23-3.23
			C118.59,50.18,118.6,50.18,118.56,50.18z"/>
		<path class="st108" d="M65.72,51.57c-0.57,0-1.06,0-1.6,0c0-0.18,0-0.35,0-0.52c-0.01-0.51,0-1.03-0.03-1.54
			c-0.01-0.1-0.13-0.19-0.21-0.29c-0.09,0.08-0.21,0.14-0.27,0.24c-0.05,0.09-0.04,0.21-0.04,0.32c0,1.61,0,3.21,0,4.82
			c0,0.22-0.06,0.55,0.25,0.57c0.36,0.02,0.27-0.34,0.28-0.56c0.02-0.51,0.01-1.03,0.01-1.57c0.52,0,1.02,0,1.56,0
			c-0.04,0.84,0.09,1.71-0.25,2.52c-0.32,0.79-1.07,1.17-1.9,1.04c-0.8-0.13-1.36-0.7-1.4-1.56c-0.07-1.48-0.08-2.96-0.09-4.44
			c0-0.51,0.03-1.04,0.16-1.52c0.23-0.89,0.95-1.36,1.8-1.29c0.86,0.07,1.48,0.65,1.58,1.56C65.66,50.07,65.67,50.8,65.72,51.57z"/>
		<path class="st108" d="M153.1,54.87c-0.21,0-0.38,0-0.57,0c-0.04,0.49-0.07,0.97-0.11,1.46c-0.51,0-1.02,0-1.57,0
			c0.26-2.79,0.53-5.56,0.79-8.35c0.74,0,1.46,0,2.21,0c0.3,2.78,0.59,5.56,0.89,8.38c-0.49,0-0.94,0.01-1.39-0.01
			c-0.07,0-0.17-0.15-0.18-0.24C153.13,55.71,153.12,55.3,153.1,54.87z M153.06,53.48c-0.08-1.1-0.15-2.17-0.23-3.23
			c-0.05,0-0.03,0-0.07,0c-0.09,1.07-0.18,2.14-0.28,3.23H153.06z"/>
		<path class="st108" d="M114.48,53.04c0.53,0,1.02,0,1.54,0c0,0.85,0.08,1.7-0.23,2.51c-0.29,0.76-0.98,1.15-1.81,1.08
			c-0.75-0.07-1.29-0.54-1.47-1.33c-0.07-0.3-0.12-0.61-0.11-0.91c0-1.64-0.04-3.28,0.05-4.92c0.07-1.34,1.39-2.06,2.56-1.48
			c0.5,0.24,0.78,0.65,0.89,1.18c0.06,0.27,0.1,0.56,0.11,0.84c0.02,0.51,0,1.02,0,1.56c-0.5,0-0.99,0-1.53,0c0-0.46,0-0.91,0-1.35
			c0-0.23,0.01-0.47-0.03-0.69c-0.02-0.11-0.14-0.19-0.21-0.29c-0.09,0.09-0.22,0.17-0.27,0.29c-0.05,0.12-0.05,0.26-0.05,0.4
			c0,1.53,0,3.06,0,4.59c0,0.11-0.02,0.23,0.03,0.33c0.07,0.14,0.18,0.25,0.27,0.37c0.08-0.12,0.21-0.23,0.23-0.37
			c0.04-0.21,0.03-0.44,0.03-0.66C114.48,53.82,114.48,53.45,114.48,53.04z"/>
		<path class="st108" d="M150.19,51.57c-0.57,0-1.06,0-1.6,0c0-0.42,0-0.84,0-1.25c0-0.28-0.01-0.57-0.04-0.85
			c-0.01-0.09-0.13-0.18-0.2-0.26c-0.09,0.08-0.22,0.14-0.27,0.24c-0.06,0.13-0.05,0.29-0.05,0.43c0,1.55,0,3.1,0,4.65
			c0,0.12-0.01,0.26,0.03,0.36c0.05,0.12,0.17,0.21,0.25,0.31c0.08-0.11,0.22-0.21,0.23-0.32c0.04-0.46,0.04-0.93,0.05-1.4
			c0-0.14,0-0.29,0-0.45c0.53,0,1.02,0,1.56,0c-0.04,0.89,0.09,1.8-0.3,2.64c-0.34,0.74-1.09,1.09-1.9,0.94
			c-0.8-0.15-1.35-0.73-1.39-1.63c-0.07-1.46-0.08-2.92-0.08-4.38c0-0.51,0.03-1.04,0.16-1.53c0.23-0.89,0.95-1.37,1.81-1.3
			c0.84,0.06,1.47,0.63,1.59,1.52C150.13,50.03,150.14,50.78,150.19,51.57z"/>
		<path class="st108" d="M57.7,53.41c0.48,0,0.93,0,1.42,0c0,0.45-0.02,0.87,0.01,1.29c0.01,0.16,0.15,0.31,0.23,0.47
			c0.11-0.15,0.29-0.29,0.31-0.46c0.08-0.63,0.01-1.23-0.54-1.67c-0.27-0.22-0.5-0.49-0.76-0.72c-0.41-0.37-0.64-0.84-0.67-1.37
			c-0.03-0.62-0.03-1.26,0.05-1.88c0.11-0.8,0.79-1.26,1.67-1.22c0.84,0.04,1.45,0.56,1.53,1.35c0.05,0.44,0.05,0.88,0.08,1.35
			c-0.5,0-0.94,0-1.45,0c0-0.31,0.02-0.62-0.01-0.93c-0.01-0.12-0.14-0.23-0.22-0.35c-0.08,0.11-0.22,0.2-0.23,0.32
			c-0.09,0.56-0.05,1.09,0.47,1.46c0.1,0.07,0.18,0.16,0.28,0.23c1.27,0.94,1.41,2.26,1.25,3.68c-0.11,0.92-0.46,1.36-1.21,1.56
			c-0.99,0.26-1.89-0.29-2.1-1.29c-0.05-0.25-0.08-0.5-0.09-0.75C57.68,54.13,57.7,53.79,57.7,53.41z"/>
		<path class="st108" d="M94.99,50.55c-0.46,0-0.89,0-1.39,0c0-0.31,0.02-0.61-0.01-0.9c-0.02-0.14-0.15-0.26-0.23-0.39
			c-0.09,0.13-0.23,0.25-0.25,0.39c-0.08,0.57,0.01,1.09,0.54,1.44c1.5,1,1.64,2.47,1.46,4.09c-0.16,1.38-1.83,1.75-2.72,1.05
			c-0.44-0.34-0.61-0.81-0.64-1.33c-0.03-0.48-0.01-0.97-0.01-1.48c0.44,0,0.89,0,1.38,0c0,0.34,0,0.66,0,0.99
			c0,0.17,0,0.34,0.04,0.5c0.03,0.1,0.14,0.17,0.21,0.26c0.09-0.08,0.25-0.15,0.27-0.24c0.09-0.61,0.18-1.24-0.34-1.73
			c-0.24-0.23-0.47-0.49-0.73-0.7c-0.62-0.52-0.89-1.2-0.9-1.98c-0.01-0.45,0.01-0.9,0.07-1.34c0.12-0.86,0.79-1.37,1.7-1.33
			c0.88,0.04,1.49,0.61,1.54,1.46C95.01,49.7,94.99,50.11,94.99,50.55z"/>
		<path class="st108" d="M111.38,50.55c-0.51,0-0.95,0-1.44,0c0-0.31,0.02-0.61-0.01-0.9c-0.02-0.14-0.15-0.26-0.23-0.39
			c-0.09,0.13-0.23,0.25-0.25,0.39c-0.1,0.6,0.06,1.09,0.58,1.5c0.55,0.43,1.11,0.89,1.3,1.61c0.23,0.88,0.23,1.78,0.06,2.66
			c-0.14,0.7-0.83,1.15-1.65,1.14c-0.8-0.01-1.47-0.51-1.58-1.28c-0.09-0.6-0.1-1.22-0.15-1.88c0.51,0,0.96,0,1.45,0
			c0,0.4-0.02,0.8,0.01,1.2c0.01,0.21-0.06,0.54,0.27,0.54c0.3,0,0.27-0.32,0.29-0.54c0.08-0.7-0.11-1.29-0.7-1.72
			c-0.04-0.03-0.07-0.07-0.11-0.1c-1.32-0.97-1.39-2.32-1.13-3.76c0.14-0.77,0.79-1.21,1.63-1.19c0.81,0.02,1.43,0.49,1.55,1.24
			C111.35,49.55,111.34,50.03,111.38,50.55z"/>
		<path class="st108" d="M78.05,50.55c-0.52,0-0.95,0-1.45,0c0-0.32,0.02-0.63-0.01-0.94c-0.01-0.12-0.15-0.23-0.23-0.35
			c-0.08,0.12-0.21,0.23-0.24,0.36c-0.1,0.61,0.05,1.12,0.58,1.53c0.58,0.45,1.16,0.94,1.33,1.72c0.18,0.84,0.19,1.68,0.03,2.52
			c-0.14,0.71-0.81,1.17-1.63,1.17c-0.81,0-1.48-0.5-1.61-1.25c-0.1-0.62-0.11-1.25-0.16-1.91c0.52,0,0.97,0,1.46,0
			c0,0.29,0,0.58,0,0.86c0,0.19-0.02,0.39,0.03,0.58c0.03,0.12,0.16,0.21,0.24,0.31c0.09-0.09,0.23-0.16,0.25-0.26
			c0.1-0.62,0.16-1.23-0.36-1.72c-0.28-0.27-0.55-0.55-0.84-0.8c-0.48-0.43-0.73-0.97-0.76-1.6c-0.03-0.56-0.01-1.14,0.07-1.7
			c0.1-0.74,0.74-1.23,1.52-1.24c0.87-0.01,1.53,0.44,1.66,1.2C78.01,49.52,78.01,50.02,78.05,50.55z"/>
		<path class="st108" d="M100.38,56.01c-0.33,0.15-0.66,0.33-1,0.43c-0.44,0.14-0.84,0.01-1.15-0.35c-0.52-0.62-0.68-2.05-0.28-2.75
			c0.14-0.24,0.35-0.43,0.55-0.67c-0.49-0.59-0.61-1.3-0.49-2.07c0.12-0.82,0.69-1.38,1.44-1.4c0.82-0.02,1.39,0.53,1.49,1.48
			c0.06,0.58-0.03,1.14-0.32,1.66c-0.05,0.09-0.09,0.24-0.06,0.33c0.12,0.37,0.27,0.73,0.43,1.14c0.27-0.23,0.52-0.43,0.82-0.68
			c0,0.46,0.01,0.86-0.01,1.26c0,0.07-0.06,0.17-0.12,0.21c-0.3,0.22-0.27,0.46-0.13,0.76c0.14,0.31,0.23,0.64,0.36,1.02
			c-0.45,0-0.86,0.03-1.26-0.02C100.56,56.37,100.47,56.14,100.38,56.01z M99.38,53.76c-0.25,0.36-0.34,0.71-0.2,1.07
			c0.04,0.11,0.25,0.2,0.38,0.21c0.08,0,0.25-0.21,0.23-0.28C99.69,54.43,99.53,54.12,99.38,53.76z M99.37,51.58
			c0.04,0,0.09,0,0.13,0c0.26-0.27,0.32-0.61,0.25-0.96c-0.02-0.1-0.16-0.19-0.24-0.28c-0.08,0.09-0.22,0.19-0.22,0.28
			C99.29,50.94,99.34,51.26,99.37,51.58z"/>
		<path class="st108" d="M104.5,47.99c0.85,0,1.65,0,2.49,0c0,0.56,0,1.1,0,1.68c-0.3,0-0.61,0-0.95,0c0,0.55,0,1.05,0,1.61
			c0.31,0,0.62,0,0.95,0c0,0.55,0,1.06,0,1.61c-0.32,0-0.63,0-0.95,0c0,0.62,0,1.2,0,1.83c0.36,0,0.72,0,1.1,0c0,0.6,0,1.05,0,1.61
			c-0.88,0-1.74,0-2.64,0C104.5,53.56,104.5,50.79,104.5,47.99z"/>
		<path class="st108" d="M143.02,47.99c0.86,0,1.67,0,2.49,0c0,0.56,0,1.1,0,1.68c-0.31,0-0.62,0-0.95,0c0,0.56,0,1.06,0,1.61
			c0.31,0,0.62,0,0.95,0c0,0.55,0,1.06,0,1.61c-0.31,0-0.63,0-0.95,0c0,0.62,0,1.2,0,1.83c0.35,0,0.71,0,1.1,0c0,0.6,0,1.05,0,1.61
			c-0.88,0-1.75,0-2.64,0C143.02,53.55,143.02,50.78,143.02,47.99z"/>
		<path class="st108" d="M171.81,47.99c0.86,0,1.67,0,2.49,0c0,0.56,0,1.1,0,1.68c-0.31,0-0.62,0-0.95,0c0,0.56,0,1.06,0,1.61
			c0.29,0,0.57,0,0.88,0c0,0.55,0,1.06,0,1.61c-0.29,0-0.56,0-0.88,0c0,0.62,0,1.2,0,1.83c0.36,0,0.72,0,1.1,0c0,0.59,0,1.05,0,1.61
			c-0.88,0-1.75,0-2.64,0C171.81,53.56,171.81,50.79,171.81,47.99z"/>
		<path class="st108" d="M127.28,47.99c0.84,0,1.72,0,2.56,0c0,0.55,0,1.1,0,1.68c-0.31,0-0.62,0-0.95,0c0,0.56,0,1.06,0,1.61
			c0.29,0,0.57,0,0.88,0c0,0.54,0,1.05,0,1.61c-0.28,0-0.62,0-0.95,0c0,0.63,0,1.21,0,1.83c0.36,0,0.72,0,1.1,0
			c0,0.59,0,1.05,0,1.61c-0.88,0-1.75,0-2.64,0C127.28,53.55,127.28,50.78,127.28,47.99z"/>
		<path class="st108" d="M69.12,52.89c-0.3,0-0.57,0-0.88,0c0,0.6,0,1.13,0,1.76c0.35,0,0.7,0,1.1,0c0,0.54,0.01,1.02-0.01,1.51
			c0,0.07-0.11,0.2-0.18,0.2c-0.81,0.01-1.62,0.01-2.45,0.01c0-2.81,0-5.58,0-8.38c0.83,0,1.65,0,2.49,0c0,0.55,0,1.1,0,1.68
			c-0.32,0-0.62,0-0.95,0c0,0.55,0,1.06,0,1.61c0.28,0,0.57,0,0.88,0C69.12,51.83,69.12,52.33,69.12,52.89z"/>
		<path class="st108" d="M80.77,51.28c0.3,0,0.57,0,0.88,0c0,0.54,0,1.05,0,1.61c-0.28,0-0.57,0-0.88,0c0,0.62,0,1.2,0,1.83
			c0.34,0,0.69,0,1.08,0c0,0.55,0.01,1.03-0.01,1.52c0,0.07-0.12,0.2-0.18,0.2c-0.8,0.01-1.6,0.01-2.43,0.01c0-2.84,0-5.64,0-8.47
			c0.82,0,1.64,0,2.49,0c0,0.54,0,1.11,0,1.68c-0.3,0-0.62,0-0.95,0C80.77,50.22,80.77,50.72,80.77,51.28z"/>
		<path class="st108" d="M121.34,47.99c0.5,0,0.95,0,1.46,0c0,2.22,0,4.43,0,6.68c0.34,0.02,0.64,0.03,0.95,0.04
			c0,0.56,0,1.07,0,1.63c-0.8,0-1.6,0-2.42,0C121.34,53.56,121.34,50.79,121.34,47.99z"/>
		<path class="st108" d="M124.64,47.99c0.5,0,0.97,0,1.46,0c0,2.79,0,5.55,0,8.35c-0.48,0-0.96,0-1.46,0
			C124.64,53.56,124.64,50.79,124.64,47.99z"/>
		<path class="st108" d="M161.48,47.99c0,0.63,0,1.23,0,1.82c0,2.07,0,4.15,0.01,6.22c0,0.27-0.06,0.37-0.35,0.36
			c-0.39-0.02-0.78-0.01-1.19-0.01c0-2.82,0-5.59,0-8.39C160.44,47.99,160.94,47.99,161.48,47.99z"/>
	</g>
</g>
</svg>
