<?xml version="1.0" encoding="utf-8"?>
<!-- Generator: Adobe Illustrator 26.0.2, SVG Export Plug-In . SVG Version: 6.00 Build 0)  -->
<svg version="1.1" id="Calque_1" xmlns="http://www.w3.org/2000/svg" xmlns:xlink="http://www.w3.org/1999/xlink" x="0px" y="0px"
	 viewBox="0 0 88.99 66.3" style="enable-background:new 0 0 88.99 66.3;" xml:space="preserve">
<style type="text/css">
	.st0{fill:#FFFFFF;}
	.st1{opacity:0.35;fill:url(#SVGID_1_);}
	.st2{opacity:0.35;}
	.st3{opacity:0.25;fill:url(#SVGID_00000045603412775737092080000002233533001091620758_);}
	.st4{opacity:0.27;fill:url(#SVGID_00000024697599467279435870000011124733917209958569_);}
	.st5{opacity:0.17;fill:url(#SVGID_00000023267691494882952840000008796543776702491537_);}
	.st6{opacity:0.62;fill:url(#SVGID_00000056421619472561399470000014595725469492054673_);}
	.st7{opacity:0.37;fill:url(#SVGID_00000154385688322158406060000017864422703872735106_);}
	.st8{opacity:0.47;fill:url(#SVGID_00000033359021324192430660000007241920903312878768_);}
	.st9{opacity:0.47;fill:url(#SVGID_00000163752995251019529390000007082540468796453301_);}
	.st10{opacity:0.47;fill:url(#SVGID_00000170275250937942094260000016322048928481139128_);}
	.st11{opacity:0.48;fill:url(#SVGID_00000126311683307716921920000016973518842565295282_);}
	.st12{opacity:0.48;fill:url(#SVGID_00000131360257076697999080000005247347535465521823_);}
	.st13{opacity:0.4;fill:url(#SVGID_00000177467193843660429570000005674782516042316969_);}
	.st14{fill:#3A63A4;}
	.st15{fill:#CCD35F;}
	.st16{fill:#4B4392;}
	.st17{fill:#2CA696;}
	.st18{fill:#D71158;}
	.st19{fill:#F9BB5A;}
	.st20{fill:#EFB349;}
	.st21{fill:#EC6C44;}
	.st22{fill:#25B1A2;}
	.st23{fill:#CB3580;}
	.st24{fill:#F8DC91;}
	.st25{fill:#C2367E;}
	.st26{fill:#289BB9;}
	.st27{fill:#CC1640;}
	.st28{fill:#4069A8;}
	.st29{fill:#EF8054;}
	.st30{fill:#1B9361;}
	.st31{fill:#1E9CC0;}
	.st32{fill:#8E4794;}
	.st33{fill:#F9B958;}
	.st34{fill:#DF0C1A;}
	.st35{fill:#002D74;}
	.st36{fill:#0069A8;}
	.st37{fill:#15A3DD;}
	.st38{fill:#19A3DD;}
	.st39{fill-rule:evenodd;clip-rule:evenodd;fill:#4AA334;}
	.st40{fill-rule:evenodd;clip-rule:evenodd;fill:#FFFFFF;}
	.st41{fill:#263780;}
	.st42{fill:url(#SVGID_00000039827550377835321220000002537385950344986547_);}
	.st43{fill:url(#SVGID_00000019678633988593002090000002483328125422383002_);}
	.st44{fill:url(#SVGID_00000021093766902112971390000010360638653977699720_);}
	.st45{fill:url(#SVGID_00000054964433979438891730000011071880584589247421_);}
	.st46{fill:url(#SVGID_00000045618864363470629130000002064832825783778992_);}
	.st47{fill:url(#SVGID_00000106128454364053355570000003700364473641356930_);}
	.st48{fill:#AFB6BD;}
	.st49{fill:#31295C;}
	.st50{fill:url(#SVGID_00000102519924902645235560000005737310284130167958_);}
	.st51{fill:url(#SVGID_00000139260875554308207540000005386338774272023692_);}
	.st52{fill:url(#SVGID_00000021079295432475556940000013847536767694358951_);}
	.st53{fill:url(#SVGID_00000037670561858925176360000009052676338164916412_);}
	.st54{fill:url(#SVGID_00000074442968947255005120000003255557985118249906_);}
	.st55{fill:url(#SVGID_00000001644435316304064020000008565038877856507809_);}
	.st56{fill:url(#SVGID_00000070113874874721408240000017005971272872063412_);}
	.st57{fill:url(#SVGID_00000140002522356035577290000017090549151751681470_);}
	.st58{fill:url(#SVGID_00000136393110880935462880000016618795448045654437_);}
	.st59{fill:url(#SVGID_00000042708407462517516090000004465125243118980529_);}
	.st60{fill:url(#SVGID_00000062181811449707704430000014685028693220871328_);}
	.st61{fill:url(#SVGID_00000034067631747525616020000009756060933282640556_);}
	.st62{fill:url(#SVGID_00000017515710090847346600000017404450946868441516_);}
	.st63{fill:url(#SVGID_00000173858354680783419770000017219121067573320578_);}
	.st64{fill:#312782;}
	.st65{fill:#6461A8;}
	.st66{fill:#747473;}
	.st67{fill:#CAC9C9;}
	.st68{fill-rule:evenodd;clip-rule:evenodd;fill:#D81A16;stroke:#1D1D1B;stroke-width:0.25;stroke-miterlimit:10;}
	.st69{fill:none;stroke:#1D1D1B;stroke-width:0.25;stroke-miterlimit:10;}
	.st70{fill:#12110C;}
	.st71{fill:#1D1D1B;}
	.st72{fill:#EF8328;}
	.st73{fill:url(#SVGID_00000029020935918861118920000001268651299261290405_);}
	.st74{fill:url(#SVGID_00000070105913056015950930000004034906167968660158_);}
	.st75{fill:url(#SVGID_00000017509592655190465590000016139191348560555405_);}
	.st76{fill:url(#SVGID_00000005955412837413558820000012388614353763625393_);}
	.st77{opacity:0.6;}
	.st78{fill:url(#SVGID_00000159465871624875426830000016262408776117880744_);}
	.st79{fill:url(#SVGID_00000042735134486497694580000004390031132932294569_);}
	.st80{fill:url(#SVGID_00000037684600554550583870000004878659282580646327_);}
	.st81{fill:url(#SVGID_00000041273265656138665450000002672499173729684878_);}
	.st82{fill:url(#SVGID_00000165926381714112698020000003175006983601750661_);}
	.st83{fill:url(#SVGID_00000099636286768800954160000008233898657452415360_);}
	.st84{fill:url(#SVGID_00000059285666883646592330000003115212280910774711_);}
	.st85{fill:url(#SVGID_00000086682193100628086280000006938127591143473026_);}
	.st86{fill:url(#SVGID_00000124872962082589863960000013322810647534706580_);}
	.st87{fill:url(#SVGID_00000173842944352876854000000001927043939494319039_);}
	.st88{fill:url(#SVGID_00000090273910643698245300000012061819792501403526_);}
	.st89{fill:url(#SVGID_00000012447981367485672650000003799563159735280769_);}
	.st90{fill:url(#SVGID_00000003064733155436227240000014850914693518136452_);}
	.st91{fill:#001689;}
	.st92{fill:none;stroke:#001689;stroke-width:0.881;stroke-linecap:round;stroke-linejoin:round;stroke-miterlimit:10;}
	.st93{fill:#0047BA;}
	.st94{fill:#253D90;}
	.st95{fill:#FFDC00;}
	.st96{fill:#0556A3;}
	.st97{fill:#0369B2;}
	.st98{fill:#5DC3F0;}
	.st99{fill:#DF162E;}
	.st100{fill:#39A7DF;}
	.st101{fill:#1B71B6;}
	.st102{fill-rule:evenodd;clip-rule:evenodd;fill:url(#XMLID_00000114041946671364565390000018232358759332788379_);}
	.st103{fill-rule:evenodd;clip-rule:evenodd;fill:url(#XMLID_00000139254707393901816690000016774071295309981586_);}
	.st104{fill:#91BF25;}
	.st105{fill:#FFDA05;}
	.st106{fill:#E00F1A;}
	.st107{fill-rule:evenodd;clip-rule:evenodd;fill:#213A7B;}
	.st108{fill-rule:evenodd;clip-rule:evenodd;}
	.st109{fill-rule:evenodd;clip-rule:evenodd;fill:#E20C30;}
	.st110{fill:#2B7DB9;}
	.st111{fill:#43AC51;}
	.st112{fill-rule:evenodd;clip-rule:evenodd;fill:#034A91;}
	.st113{fill:#005891;}
	.st114{fill:#E3283B;}
	.st115{fill:#004A93;}
	.st116{fill-rule:evenodd;clip-rule:evenodd;fill:#004A93;}
	.st117{fill-rule:evenodd;clip-rule:evenodd;fill:#FFEA20;}
	.st118{fill-rule:evenodd;clip-rule:evenodd;fill:#DF101C;}
	.st119{fill:#2997D4;}
	.st120{fill:#F18A00;}
	.st121{fill:#09111D;}
	.st122{fill:#A72136;}
	.st123{fill:url(#SVGID_00000153685534345296662510000009472333491667501705_);}
	.st124{fill:url(#SVGID_00000074411476357619145160000018427204301944763030_);}
	.st125{fill:url(#SVGID_00000144314679845818796830000005462926697141044387_);}
	.st126{fill:url(#SVGID_00000001625634446190709940000018143123897556168629_);}
	.st127{fill:url(#SVGID_00000134969735278929435720000010022652746328859038_);}
	.st128{fill:url(#SVGID_00000075120507526644964810000011530833991003794613_);}
	.st129{fill:url(#SVGID_00000071528905509307551280000007488680544747335576_);}
	.st130{fill:url(#SVGID_00000030458723951380481360000015017824918975436980_);}
	.st131{fill:#2D2F34;}
	.st132{fill:url(#SVGID_00000053528351282017504530000005057700648931548327_);}
	.st133{fill:url(#SVGID_00000122702439463093963630000004943141926443258278_);}
	.st134{fill:url(#SVGID_00000165929626826167160070000017679849188731731360_);}
	.st135{fill:url(#SVGID_00000109027068622254918790000014948650871042089638_);}
	.st136{fill:#003DA6;}
	.st137{fill-rule:evenodd;clip-rule:evenodd;fill:#0E579F;stroke:#FFFFFF;stroke-width:1.0001;stroke-miterlimit:2.6131;}
	.st138{fill-rule:evenodd;clip-rule:evenodd;fill:#FFFFFF;stroke:#FFFFFF;stroke-width:0.216;stroke-miterlimit:2.6131;}
	.st139{fill:#1766AD;}
	.st140{fill:#7EB828;}
	.st141{fill:#0D9E39;}
	.st142{fill:#7CB62C;}
	.st143{fill-rule:evenodd;clip-rule:evenodd;fill:#00A0DF;}
	
		.st144{clip-path:url(#SVGID_00000109729446441110262720000000245560909561105313_);fill-rule:evenodd;clip-rule:evenodd;fill:#8CCFF1;}
	
		.st145{clip-path:url(#SVGID_00000109729446441110262720000000245560909561105313_);fill-rule:evenodd;clip-rule:evenodd;fill:#C3E4F5;}
	
		.st146{clip-path:url(#SVGID_00000109729446441110262720000000245560909561105313_);fill-rule:evenodd;clip-rule:evenodd;fill:#FFFFFF;}
	.st147{clip-path:url(#SVGID_00000109729446441110262720000000245560909561105313_);}
	.st148{fill:#83CEEA;}
	.st149{fill-rule:evenodd;clip-rule:evenodd;fill:#65B2E8;}
	.st150{fill-rule:evenodd;clip-rule:evenodd;fill:#0C68AE;}
	.st151{fill-rule:evenodd;clip-rule:evenodd;fill:#00205C;}
	.st152{fill:#00A0DF;}
	.st153{fill:#00205C;}
	.st154{clip-path:url(#SVGID_00000173858937585966674610000003502235953717288883_);}
	.st155{fill:#29A43B;}
	.st156{fill:#BFE1F4;}
	.st157{fill:#D2E9F7;}
	.st158{fill:#444592;}
	.st159{fill:#BBA26A;}
	.st160{fill:#ACB217;}
	.st161{fill:url(#SVGID_00000107584911254807669860000009527966925721022903_);}
	.st162{fill-rule:evenodd;clip-rule:evenodd;fill:#211F1F;}
	.st163{fill:url(#SVGID_00000075867702502949706210000012501684511873079734_);}
	.st164{fill:url(#SVGID_00000026163651891609819980000009710458242723941256_);}
	.st165{fill:url(#SVGID_00000081609054890864303770000000804435756135158442_);}
	.st166{fill:url(#SVGID_00000004528098555063108520000010130448116133938605_);}
	.st167{fill:url(#SVGID_00000116941268443000589790000007967310219460208558_);}
	.st168{fill:url(#SVGID_00000010275423297286282490000010770351099024844700_);}
	.st169{fill:url(#SVGID_00000106840045787497325950000000125343645212288898_);}
	.st170{fill:url(#SVGID_00000169557657490393032090000005593417730839670928_);}
	.st171{fill:url(#SVGID_00000001638903915144649810000014120650471866315401_);}
	.st172{fill:url(#SVGID_00000174596671119939043000000016695316691067770292_);}
	.st173{fill:url(#SVGID_00000036236437882551844050000008849481428477781170_);}
	.st174{fill:url(#SVGID_00000062905433991517208130000008380055588161746329_);}
	.st175{fill:url(#SVGID_00000063597250431009418220000012102765887224611204_);}
	.st176{fill:url(#SVGID_00000052811496431498798580000004233792167272980923_);}
	.st177{fill:url(#SVGID_00000016038008983989401360000006174975596746129051_);}
	.st178{fill:url(#SVGID_00000058569295412782229980000000254683507965419691_);}
	.st179{fill:url(#SVGID_00000063605796216404927230000015726563821811275706_);}
	.st180{fill:url(#SVGID_00000164497108956868999530000010822125884736261509_);}
	.st181{fill:url(#SVGID_00000152954029504030293560000012569764099694307247_);}
	.st182{fill:url(#SVGID_00000090264117982813755630000009022339464194106783_);}
	.st183{fill:url(#SVGID_00000097496263287527971930000013466222339916710837_);}
	.st184{fill:url(#SVGID_00000174583219724297653860000014650588137018757793_);}
	.st185{fill:url(#SVGID_00000036213778311971707870000006954256726432514716_);}
	.st186{fill:url(#SVGID_00000037656004764319336670000012399255124875295897_);}
	.st187{fill:url(#SVGID_00000074403070670002944690000006665957210418850207_);}
	.st188{fill:url(#SVGID_00000097476559688574563560000011957537055847940510_);}
	
		.st189{clip-path:url(#SVGID_00000162333026104661956380000013384170551580423081_);fill:url(#SVGID_00000170992560587650867830000009980285015922485143_);}
	.st190{fill:url(#SVGID_00000144327401303999026970000012140554217130630793_);}
	.st191{fill:url(#SVGID_00000139981562700286018490000012145329364408309930_);}
	.st192{fill:url(#SVGID_00000047038035145947650370000012830126661927010977_);}
	.st193{fill:url(#SVGID_00000139268443340089946910000009429795321342342791_);}
	.st194{fill-rule:evenodd;clip-rule:evenodd;fill:url(#SVGID_00000136369710016179811390000002354211795818895533_);}
	.st195{fill:#F6F0F3;}
	.st196{fill:#F8F4F6;}
	.st197{fill:#FFFCFD;}
	.st198{fill:#0F4D80;}
	.st199{fill:#2F93D1;}
	.st200{display:none;}
	.st201{display:inline;fill:#0F4D80;}
	.st202{display:inline;fill:#2F93D1;}
	.st203{display:inline;fill:#FFFFFF;}
	.st204{opacity:0.3;}
	.st205{fill:#65A1D7;}
	.st206{fill:#E63922;}
	.st207{fill:#33712F;}
	.st208{fill:#509BD5;}
	.st209{fill:#2C88C7;}
	.st210{fill:#A9DBF7;}
	.st211{fill:#EEB68A;}
	.st212{fill:#FBD3AD;}
	.st213{fill:#270C12;}
	.st214{fill:#230A10;}
	.st215{fill:#A2403B;}
	.st216{fill:#C1665D;}
	.st217{fill:#DFECF8;}
	.st218{fill:#411017;}
	.st219{fill:#262626;}
	.st220{opacity:0.47;}
	.st221{fill:#FAD8D5;}
	.st222{fill:#FBE1DE;}
	.st223{fill:#EA808C;}
	.st224{fill:#C9E7F7;}
	.st225{fill:#E5F3FD;}
	.st226{fill:#FDEEEE;}
	.st227{fill:#F7C7C9;}
	.st228{fill:#ECF6F7;}
	.st229{fill:#A0D0F1;}
	.st230{fill:#97C7EC;}
	.st231{fill:#9ECFF1;}
	.st232{fill:#E8F4F6;}
	.st233{fill:#BEE3F5;}
	.st234{fill:#D7EDF6;}
	.st235{fill:#ED705B;}
	.st236{fill:#F9C9BA;}
	.st237{fill:#8BC5EC;}
	.st238{fill:#F5AC9B;}
	.st239{fill:#F1907E;}
	.st240{fill:#D6EDF6;}
	.st241{fill:#4B8739;}
	.st242{fill:#F39B8B;}
	.st243{fill:#C5D4E1;}
	.st244{fill:#F29A9C;}
	.st245{fill:#3C3C3B;}
	.st246{fill:#EE808D;}
	.st247{fill:#187FB9;}
	.st248{fill:#2EA8E0;}
	.st249{fill:#80CEF4;}
	.st250{fill:#BDE3F6;}
	.st251{fill:#EA5B2B;}
	.st252{fill:#E73F2F;}
	.st253{opacity:0.26;fill:#D3B0D4;}
	.st254{fill:url(#SVGID_00000087397149574307092840000006464390912382590897_);}
	.st255{fill:#B7553B;}
	.st256{fill:#E63924;}
	.st257{fill:#441943;}
	.st258{fill:#281028;}
	.st259{fill:#8BCAB9;}
	.st260{fill:#D9271B;}
	.st261{fill:#FCE7E5;}
	.st262{fill:#A9D7CF;}
	.st263{fill:url(#SVGID_00000127004741237570061630000001667555146232372377_);}
	.st264{fill:url(#SVGID_00000167366876324952997560000000298285881061120178_);}
	.st265{fill:url(#SVGID_00000129172613976781742610000016249912563762758839_);}
	.st266{opacity:0.26;fill:#A2403B;}
	.st267{fill:#6E4594;}
	.st268{fill:#B65650;}
	.st269{fill:url(#SVGID_00000158018950012916527490000003558247107632349368_);}
	.st270{fill:#454545;}
	.st271{fill:#A7D9F5;}
	.st272{fill:#24212E;}
	.st273{fill:#6D1B0F;}
	.st274{fill:#3E4055;}
	.st275{fill:#3E4052;}
	.st276{fill:#77491E;}
	.st277{fill:#474A5E;}
	.st278{fill:#24222D;}
	.st279{fill:#D6D6D6;}
	.st280{fill:#F8C6BD;}
	.st281{fill:#3F292A;}
	.st282{fill:#E7E8EC;}
	.st283{fill:#F9D3CA;}
	.st284{fill:#E9B9A6;}
	.st285{fill:#0E0C09;}
	.st286{fill:#CCDADA;}
	.st287{fill:#EDBDAA;}
	.st288{fill:#535459;}
	.st289{fill:#929497;}
	.st290{fill:#3164AC;}
	.st291{fill:#D53939;}
	.st292{fill:#313134;}
	.st293{fill:url(#SVGID_00000124844919240435015990000009149176825126201240_);}
	.st294{fill:url(#SVGID_00000002364058806315273130000006977150556228335019_);}
	.st295{fill:url(#SVGID_00000173850896182168947480000008175521246504925331_);}
	.st296{fill:#E6E7E7;}
	.st297{clip-path:url(#SVGID_00000086652600498638902160000014036017894363929274_);}
	.st298{fill:#F7F6F6;}
	.st299{fill:#0E4D80;}
	.st300{opacity:0.31;}
	.st301{opacity:0;}
	.st302{fill:#010100;}
	.st303{opacity:4.653465e-03;}
	.st304{opacity:9.306931e-03;}
	.st305{opacity:0.014;}
	.st306{opacity:0.0186;}
	.st307{opacity:0.0233;}
	.st308{opacity:0.0279;}
	.st309{opacity:0.0326;}
	.st310{opacity:0.0372;}
	.st311{opacity:0.0419;}
	.st312{opacity:0.0465;}
	.st313{opacity:0.0512;}
	.st314{opacity:0.0558;}
	.st315{opacity:0.0605;}
	.st316{opacity:0.0651;}
	.st317{opacity:0.0698;}
	.st318{opacity:0.0745;}
	.st319{opacity:0.0791;}
	.st320{opacity:0.0838;}
	.st321{opacity:0.0884;}
	.st322{opacity:0.0931;}
	.st323{opacity:0.0977;}
	.st324{opacity:0.1024;}
	.st325{opacity:0.107;}
	.st326{opacity:0.1117;}
	.st327{opacity:0.1163;}
	.st328{opacity:0.121;}
	.st329{opacity:0.1256;}
	.st330{opacity:0.1303;}
	.st331{opacity:0.135;}
	.st332{opacity:0.1396;}
	.st333{opacity:0.1443;}
	.st334{opacity:0.1489;}
	.st335{opacity:0.1536;}
	.st336{opacity:0.1582;}
	.st337{opacity:0.1629;}
	.st338{opacity:0.1675;}
	.st339{opacity:0.1722;}
	.st340{opacity:0.1768;}
	.st341{opacity:0.1815;}
	.st342{opacity:0.1861;}
	.st343{opacity:0.1908;}
	.st344{opacity:0.1954;}
	.st345{opacity:0.2001;}
	.st346{opacity:0.2048;}
	.st347{opacity:0.2094;}
	.st348{opacity:0.2141;}
	.st349{opacity:0.2187;}
	.st350{opacity:0.2234;}
	.st351{opacity:0.228;}
	.st352{opacity:0.2327;}
	.st353{opacity:0.2373;}
	.st354{opacity:0.242;}
	.st355{opacity:0.2466;}
	.st356{opacity:0.2513;}
	.st357{opacity:0.2559;}
	.st358{opacity:0.2606;}
	.st359{opacity:0.2652;}
	.st360{opacity:0.2699;}
	.st361{opacity:0.2746;}
	.st362{opacity:0.2792;}
	.st363{opacity:0.2839;}
	.st364{opacity:0.2885;}
	.st365{opacity:0.2932;}
	.st366{opacity:0.2978;}
	.st367{opacity:0.3025;}
	.st368{opacity:0.3071;}
	.st369{opacity:0.3118;}
	.st370{opacity:0.3164;}
	.st371{opacity:0.3211;}
	.st372{opacity:0.3257;}
	.st373{opacity:0.3304;}
	.st374{opacity:0.335;}
	.st375{opacity:0.3397;}
	.st376{opacity:0.3444;}
	.st377{opacity:0.349;}
	.st378{opacity:0.3537;}
	.st379{opacity:0.3583;}
	.st380{opacity:0.363;}
	.st381{opacity:0.3676;}
	.st382{opacity:0.3723;}
	.st383{opacity:0.3769;}
	.st384{opacity:0.3816;}
	.st385{opacity:0.3862;}
	.st386{opacity:0.3909;}
	.st387{opacity:0.3955;}
	.st388{opacity:0.4002;}
	.st389{opacity:0.4049;}
	.st390{opacity:0.4095;}
	.st391{opacity:0.4142;}
	.st392{opacity:0.4188;}
	.st393{opacity:0.4235;}
	.st394{opacity:0.4281;}
	.st395{opacity:0.4328;}
	.st396{opacity:0.4374;}
	.st397{opacity:0.4421;}
	.st398{opacity:0.4467;}
	.st399{opacity:0.4514;}
	.st400{opacity:0.456;}
	.st401{opacity:0.4607;}
	.st402{opacity:0.4653;}
	.st403{fill:url(#SVGID_00000101817188128657371610000008495440794313422978_);}
	.st404{fill:url(#SVGID_00000063618384905934111110000006500481232661915052_);}
	.st405{fill:url(#SVGID_00000105422724112260102210000007040645165868625087_);}
	.st406{fill:#C6A295;}
	.st407{fill:#EFC5B3;}
	.st408{fill:#121214;}
	.st409{fill:#BBBDBE;}
	.st410{fill:#863C13;}
	.st411{fill:#B96117;}
	.st412{fill:#EF8118;}
	.st413{fill:#BA5817;}
	.st414{fill:#6D6F71;}
	.st415{fill:#E21D26;}
	.st416{fill:#2C5E84;}
	.st417{fill:#9C251F;}
	.st418{fill:url(#SVGID_00000175313706430939779660000010353158955481061034_);}
	.st419{fill:#1C374E;}
	.st420{fill:#2B4E68;}
	.st421{opacity:0.3;fill:#121214;}
	.st422{fill:url(#SVGID_00000153700874160764724490000010077770294817846692_);}
	.st423{fill:url(#SVGID_00000181068037717994098080000010731880763002377609_);}
	.st424{fill:url(#SVGID_00000088839076171285680630000017413173934092303255_);}
	.st425{fill:url(#SVGID_00000137841665761768096740000009378318674748600765_);}
	.st426{fill:url(#SVGID_00000134962826667292072820000017026585310182006156_);}
	.st427{fill:url(#SVGID_00000029017802531459191730000016033761561936106639_);}
	.st428{fill:#0C0C0C;}
	.st429{fill:#603914;}
	.st430{fill:#E86821;}
	.st431{fill:#171717;}
	.st432{fill:#663F30;}
	.st433{fill:url(#SVGID_00000050657616716065759150000006055565288132639148_);}
	.st434{fill:url(#SVGID_00000021078464058961201500000008422460899852861318_);}
	.st435{fill:url(#SVGID_00000009568273888677120600000005272825211887957683_);}
	.st436{fill:url(#SVGID_00000048480745184763080500000000500035467501675949_);}
	.st437{fill:url(#SVGID_00000026157376746569901750000008813634246106728595_);}
	.st438{fill:url(#SVGID_00000070814145297551483620000007969122457286600104_);}
	.st439{fill:url(#SVGID_00000085221232789796625380000009344089022107014538_);}
	.st440{fill:url(#SVGID_00000000208204856843778550000015810622336022888110_);}
	.st441{fill:url(#SVGID_00000130619631569019771340000006562388160076444343_);}
	.st442{fill:url(#SVGID_00000052072133204914582160000011625516127364944818_);}
	.st443{fill:url(#SVGID_00000029042669462494535220000001690584468239415936_);}
	.st444{fill:url(#SVGID_00000018201309518446403260000004182005744805719957_);}
	.st445{fill:url(#SVGID_00000018958870366354297570000009711503622816742804_);}
	.st446{fill:url(#SVGID_00000001641303277608208320000017999355405809519258_);}
	.st447{fill:url(#SVGID_00000113346121912153964260000013279634764603322499_);}
	.st448{fill:url(#SVGID_00000143604286870797126990000014853510836583390394_);}
	.st449{fill:url(#SVGID_00000181804130563822500070000000906427491368085925_);}
	.st450{fill:url(#SVGID_00000158000422508319187300000005821174412198397313_);}
	.st451{fill:#B7B7B7;}
	.st452{fill:#112134;}
	.st453{fill:#414042;}
	.st454{fill:#221E20;}
	.st455{fill:#131313;}
	.st456{fill:#202020;}
	.st457{fill:#915E33;}
	.st458{fill:#57391E;}
	.st459{fill:#F39519;}
	.st460{fill:#F4B305;}
	.st461{fill:#C4C3C3;}
	.st462{fill:#A5A4A5;}
	.st463{fill:#888989;}
	.st464{fill:#242424;}
	.st465{fill:#6E4827;}
	.st466{opacity:0.1844;fill:#24222D;}
	.st467{fill:#A0A4BB;}
	.st468{opacity:0.1844;fill:#999AB6;}
	.st469{fill:#D9E3E3;}
	.st470{fill:#FAD5CB;}
	.st471{opacity:0.1844;fill:#24212E;}
	.st472{fill:#844013;}
	.st473{fill:#F8B777;}
	.st474{fill:#3576AB;}
	.st475{fill:#A2A1A1;}
	.st476{fill:#754C29;}
	.st477{fill:#B3DFF1;}
	.st478{fill:#80A5A5;}
	.st479{fill:#EAAE93;}
	.st480{fill:#00657E;}
	.st481{fill:#382E22;}
	.st482{fill:#157288;}
	.st483{fill:#A42916;}
	.st484{fill:#D43216;}
	.st485{fill:#E5A082;}
	.st486{fill:#B23318;}
	.st487{fill:#843E1E;}
	.st488{fill:#EDBEA8;}
	.st489{fill:#E94E49;}
	.st490{fill:#E3E4E3;}
	.st491{fill:#B9B9B9;}
	.st492{fill:#868787;}
	.st493{fill:url(#XMLID_00000145777306416871459040000010257094407132177849_);}
	.st494{fill:#989898;}
	.st495{fill:url(#XMLID_00000143596372598000444810000016500757402827027369_);}
	.st496{fill:#EEECEB;}
	.st497{fill:#D5D5D5;}
	.st498{fill:url(#XMLID_00000052088099518251489450000007330064594164713889_);}
	.st499{fill:url(#XMLID_00000129167519474091200840000005135656640410882750_);}
	.st500{fill:url(#XMLID_00000119804957360860965520000000193639401574344878_);}
	.st501{fill:url(#XMLID_00000110445582440495323390000000628614657548826037_);}
	.st502{fill:url(#XMLID_00000163790293452296785580000005032976081535484295_);}
	.st503{fill:url(#XMLID_00000106114412045175230260000002264299901912509601_);}
	.st504{fill:url(#XMLID_00000060023576546918987510000013338145657254833588_);}
	.st505{fill:url(#XMLID_00000177481026271614441960000015408434731289283980_);}
	.st506{fill:url(#XMLID_00000021099707526794123260000000799525577907265423_);}
	.st507{fill:url(#XMLID_00000072258684980058602000000011126232877107020723_);}
	.st508{fill:url(#XMLID_00000085245365096532946760000004794927973581127049_);}
	.st509{fill:url(#XMLID_00000008139699391587611150000001979790306327948692_);}
	.st510{fill:url(#XMLID_00000090993050426711931400000015762047353527186562_);}
	.st511{fill:url(#XMLID_00000033366768114817575260000014775419662897353371_);}
	.st512{fill:url(#XMLID_00000086664120639402015220000003808066430557451943_);}
	.st513{fill:url(#XMLID_00000180363682240370991030000015080972651639519115_);}
	.st514{fill:url(#XMLID_00000031904173287051874790000013673939950611532451_);}
	.st515{fill:url(#XMLID_00000177449936255711329120000015419870727208561282_);}
	.st516{fill:url(#XMLID_00000047026375759593390290000003226638172147512457_);}
	.st517{fill:url(#XMLID_00000124124993751593092030000000204999094606497412_);}
	.st518{fill:url(#XMLID_00000043425412146939529300000015069440165299552159_);}
	.st519{fill:url(#XMLID_00000012472798576965591190000001012210513507363468_);}
	.st520{fill:url(#XMLID_00000049198980588374108090000015102235445305281416_);}
	.st521{fill:url(#XMLID_00000000902755531272080430000013046815649987063703_);}
	.st522{fill:url(#XMLID_00000022528565948904541900000005362715792716591240_);}
	.st523{fill:url(#XMLID_00000041264858384160416740000007802713866642822289_);}
	.st524{fill:url(#XMLID_00000070097506987757072150000002003279054098605696_);}
	.st525{fill:url(#XMLID_00000181082684303927968300000001844788335389536136_);}
	.st526{fill:url(#XMLID_00000095303843846556220900000014545560000346955136_);}
	.st527{fill:url(#XMLID_00000013160331228943834780000004489649572210026405_);}
	.st528{fill:url(#XMLID_00000182504380497690618700000014290902360399052934_);}
	.st529{fill:url(#XMLID_00000092415346750265734020000017836815108762628510_);}
	.st530{fill:url(#XMLID_00000091006831714201022880000000531174611526589097_);}
	.st531{fill:url(#XMLID_00000097494616935186516500000000233142326443939201_);}
	.st532{fill:url(#XMLID_00000111171284740973891200000006085341217283807387_);}
	.st533{fill:url(#XMLID_00000128452543451053101680000004940386595111000205_);}
	.st534{fill:url(#XMLID_00000155122191682729857670000005603340283064225972_);}
	.st535{fill:url(#XMLID_00000006703111747933387210000003751986423274620561_);}
	.st536{fill:url(#XMLID_00000072261510832085501760000010911734792030818229_);}
	.st537{fill:url(#XMLID_00000028292630687185484580000006413652905321771153_);}
	.st538{fill:url(#XMLID_00000144334944354573196130000014474662017878081678_);}
	.st539{fill:url(#XMLID_00000124840380789332201830000011731940169686543286_);}
	.st540{fill:url(#XMLID_00000071558258892777549540000014611345827723439496_);}
	.st541{fill:url(#XMLID_00000113319344198789021400000013600228700324222118_);}
	.st542{fill:url(#XMLID_00000005983386681276753430000007505762987888778414_);}
	.st543{fill:url(#XMLID_00000103976188887244753490000007773659945379044519_);}
	.st544{fill:url(#XMLID_00000106125832795701279480000011202320301303399567_);}
	.st545{fill:url(#XMLID_00000121977681243186403850000006307377874963468690_);}
	.st546{fill:url(#XMLID_00000110466339580537274490000014261703064195970978_);}
	.st547{fill:url(#XMLID_00000074440837555392576640000006792075605461131705_);}
	.st548{fill:url(#XMLID_00000013900896056015547970000013285381679370564483_);}
	.st549{fill:url(#XMLID_00000154407767117981506040000001605727979954544311_);}
	.st550{fill:url(#XMLID_00000088132340964762035400000000249252845211093376_);}
	.st551{fill:url(#XMLID_00000166670037572488638120000006478758131008391314_);}
	.st552{fill:url(#XMLID_00000060736018399094285310000013282602902160887454_);}
	.st553{fill:url(#XMLID_00000152942291984053849370000016566601610134242209_);}
	.st554{fill:url(#XMLID_00000060716441605565598730000012822077011776698023_);}
	.st555{fill:url(#XMLID_00000057127392904073435660000016616435911444879010_);}
	.st556{fill:url(#XMLID_00000003092174387068745190000001257431904001247661_);}
	.st557{fill:url(#XMLID_00000112608945453587755660000001362353546844465801_);}
	.st558{fill:url(#XMLID_00000045610109152675256920000017075248974962966191_);}
	.st559{fill:url(#XMLID_00000179617055988546230760000004494334591388810687_);}
	.st560{fill:url(#XMLID_00000102529747190293097430000000493116659062774698_);}
	.st561{fill:url(#XMLID_00000137109091538419353610000017020287367892351160_);}
	.st562{fill:url(#XMLID_00000009583154491079929870000006882072914670807230_);}
	.st563{fill:url(#XMLID_00000160186003928942328510000005128695750732703631_);}
	.st564{fill:url(#XMLID_00000047058212715141856120000001085681749647252393_);}
	.st565{fill:url(#XMLID_00000176043901362385024700000001714441641778478758_);}
	.st566{fill:url(#XMLID_00000011733909303123459170000004916367784524106911_);}
	.st567{fill:url(#XMLID_00000137121641231139852540000009891639083601500339_);}
	.st568{fill:url(#XMLID_00000160171785864884762900000012236271503450503829_);}
	.st569{fill:url(#XMLID_00000174582137310013038490000000541170153208075416_);}
	.st570{fill:url(#XMLID_00000003817163651466849550000001492981224157481856_);}
	.st571{fill:url(#XMLID_00000165230588918682695720000017769296665757390228_);}
	.st572{fill:url(#XMLID_00000070118101156932245020000000613257188602089391_);}
	.st573{fill:url(#XMLID_00000037675444197285531060000013588381370002593183_);}
	.st574{fill:url(#XMLID_00000117643575557428478750000017309199587612794259_);}
	.st575{fill:url(#XMLID_00000057863889838481243080000013758508632810711471_);}
	.st576{fill:url(#XMLID_00000062909126207451103730000001911684448151924156_);}
	.st577{fill:url(#XMLID_00000133527755268396045370000006772877039250516920_);}
	.st578{fill:url(#XMLID_00000173867117915922902740000008331689516122202752_);}
	.st579{fill:url(#XMLID_00000014619661096799530820000003784736789043578274_);}
	.st580{fill:url(#XMLID_00000090267480560618278640000016249310663765408656_);}
	.st581{fill:url(#XMLID_00000140735287957100550830000014625826901920135350_);}
	.st582{fill:url(#XMLID_00000049192465565935306100000013980274138785977260_);}
	.st583{fill:url(#XMLID_00000068663529040056840900000002713057269049634486_);}
	.st584{fill:url(#XMLID_00000062156158096886061480000002805567921300087972_);}
	.st585{fill:url(#XMLID_00000078758801509814958260000013531285448219968139_);}
	.st586{fill:url(#XMLID_00000030448807968802909390000003339206318703244682_);}
	.st587{fill:url(#XMLID_00000058548297962832288780000010951128261771470514_);}
	.st588{fill:url(#XMLID_00000010310593372575337920000015613402723025804436_);}
	.st589{fill:url(#XMLID_00000177450025794472060210000011827242783087542935_);}
	.st590{fill:url(#XMLID_00000134945427572242725890000016190843288379375039_);}
	.st591{fill:url(#XMLID_00000021083178832070789080000004239622203201972618_);}
	.st592{fill:url(#XMLID_00000058580415251801021210000013959737828328987783_);}
	.st593{fill:url(#XMLID_00000120533684008093248730000007248213525659184798_);}
	.st594{fill:url(#XMLID_00000070805578125244253190000012790569865969074873_);}
	.st595{fill:url(#XMLID_00000119826455310512418090000008695451793474976907_);}
	.st596{fill:url(#XMLID_00000163779117601527201160000008207887862182269363_);}
	.st597{fill:url(#XMLID_00000013193716100910451960000013909859474760731525_);}
	.st598{fill:#FCFDFF;}
	.st599{fill:#757576;}
	.st600{fill:#D4D3D3;}
	.st601{fill:#E2E4E0;}
	.st602{fill:#B5B4B4;}
	.st603{fill:#908F8A;}
	.st604{fill:#F6F6F5;}
	.st605{fill:#3E4046;}
	.st606{fill:#525557;}
	.st607{fill:#E1E2E2;}
	.st608{fill:#E8E9EA;}
	.st609{fill:#2B2E35;}
	.st610{fill:#64666B;}
	.st611{fill:url(#XMLID_00000111913274956182920950000018118644936996952716_);}
	.st612{fill:#F0F0F0;}
	.st613{fill:#757779;}
	.st614{fill:#191B22;}
	.st615{fill:#14181E;}
	.st616{fill:#11141A;}
	.st617{fill:#DAEBE7;}
	.st618{fill:#7F8082;}
	.st619{fill:#A7B3B4;}
	.st620{fill:#3C575C;}
	.st621{fill:#CED6D6;}
	.st622{fill:#1A3A66;}
	.st623{fill:#2887C4;}
	.st624{fill:#66C3D8;}
	.st625{fill:#07282F;}
	.st626{fill:#8B9B9D;}
	.st627{fill:#72888C;}
	.st628{fill:#7F1710;}
	.st629{fill:#C3253D;}
	.st630{fill:#D9648A;}
	.st631{fill:#A24817;}
	.st632{fill:#DAA802;}
	.st633{fill:#EEB219;}
	.st634{fill:#424242;}
	.st635{fill:#474646;}
	.st636{fill:#AAB545;}
	.st637{fill:#C17D11;}
	.st638{fill:#CACCD2;}
	.st639{fill:#B6BCC6;}
	.st640{fill:#353842;}
	.st641{fill:#585C64;}
	.st642{fill:#454852;}
	.st643{fill:#62656C;}
	.st644{fill:#72757B;}
	.st645{fill:#3A3D42;}
	.st646{fill:#494D53;}
	.st647{fill:#161A24;}
	.st648{fill:#4C4F58;}
	.st649{fill:#666970;}
	.st650{fill:#7F7F83;}
	.st651{fill:#383C40;}
	.st652{fill:#1E222B;}
	.st653{fill:url(#XMLID_00000179625932433423969840000011919246581128223913_);}
	.st654{fill:#3D4049;}
	.st655{fill:url(#XMLID_00000171677257879199827640000009271557974125357730_);}
	.st656{fill:#30333C;}
	.st657{fill:#474D57;}
	.st658{fill:#75787F;}
	.st659{fill:#2F7E9D;}
	.st660{fill:#6DC0B2;}
	.st661{fill:url(#XMLID_00000024694797463633443640000013252894465354021003_);}
	.st662{fill:#F1F8FA;}
	.st663{fill:url(#XMLID_00000145024125242390757630000000902513801837914807_);}
	.st664{fill:url(#XMLID_00000182520915367118605510000014298130400395418299_);}
	.st665{fill:#ECF6F9;}
	.st666{fill:url(#XMLID_00000100358259282897541800000017008079690475173797_);}
	.st667{fill:url(#XMLID_00000010287232353866638490000010441336534250709165_);}
	.st668{fill:#CFE4F1;}
	.st669{fill:#DADADA;}
	.st670{fill:#D32D16;}
	.st671{fill:#176581;}
	.st672{fill:#9ED1F2;}
	.st673{fill:#1B222D;}
	.st674{fill:#EBE9EA;}
	.st675{fill:#C9CED5;}
	.st676{fill:#E1E0E0;}
	.st677{fill:#E7E6E6;}
	.st678{fill:#E8E7E7;}
	.st679{fill:#BFCBDD;}
	.st680{fill:#9D958F;}
	.st681{fill:#FFDC04;}
	.st682{fill:#B21828;}
	.st683{fill:#D8408F;}
	.st684{fill:#574997;}
	.st685{fill:#356AB1;}
	.st686{fill:#45B3E7;}
	.st687{fill:#2D8A36;}
	.st688{fill:#D0CFD0;}
	.st689{fill:#98A88B;}
	.st690{fill:#F8E825;}
	.st691{fill:#CB1333;}
	.st692{fill:url(#XMLID_00000054972647818885327070000016518783871200148626_);}
	.st693{fill:#0B0E18;}
	.st694{fill:#40424A;}
	.st695{fill:url(#XMLID_00000139256414491818320140000010037455166155413894_);}
	.st696{fill:#71757D;}
	.st697{fill:#C2C2C4;}
	.st698{fill:url(#XMLID_00000132085905865938907390000010562514652252333731_);}
	.st699{fill:#9DA094;}
	.st700{fill:#D4D4D4;}
	.st701{fill:url(#XMLID_00000017513880441892948010000002871129191358680736_);}
	.st702{fill:url(#XMLID_00000078045180339499798590000014001072051526109373_);}
	.st703{fill:#E8E8E8;}
	.st704{fill:#15120B;}
	.st705{fill:#4C4842;}
	.st706{fill:#74AEDF;}
	.st707{fill:#413D3F;}
	.st708{fill:#48494A;}
	.st709{fill:#080504;}
	.st710{fill:#4E4D4D;}
	.st711{fill:#A1A0A0;}
	.st712{fill:#FBEEF5;}
	.st713{fill:#BFBEBE;}
	.st714{fill:#015A64;}
	.st715{fill:#B81818;}
	.st716{fill:#8C811D;}
	.st717{fill:#03709B;}
	.st718{fill:#E74B1E;}
	.st719{fill:#F2B000;}
	.st720{fill:#E33335;}
	.st721{fill:#F8F09C;}
	.st722{fill:#FAEF81;}
	.st723{fill:#E7A8CB;}
	.st724{fill:#CD90BE;}
	.st725{fill:#847A73;}
	.st726{fill:#CCCBCB;}
	.st727{fill:#EDECEC;}
	.st728{fill:#9D9D9D;}
	.st729{fill:#EFEFEF;}
	.st730{fill:#4F525A;}
	.st731{fill:#E15C48;}
	.st732{fill:url(#XMLID_00000103986002599491390530000017665193487843853700_);}
	.st733{fill:url(#XMLID_00000154384100934546122250000016936170687441332413_);}
	.st734{fill:url(#XMLID_00000013897854041972986240000015864733181321345710_);}
	.st735{fill:url(#XMLID_00000154417264536648429090000016283443343916287659_);}
	.st736{fill:url(#XMLID_00000163776315737927102930000016038495362830195094_);}
	.st737{fill:#9E9D9D;}
	.st738{fill:#9DCBEF;}
	.st739{fill:#010000;}
	.st740{fill:url(#SVGID_00000133488309283606089650000015541488988033239200_);}
	.st741{fill:url(#SVGID_00000044135751143483023600000014466046129251444148_);}
	.st742{fill:url(#SVGID_00000157281851592237401220000006086878771992240568_);}
	.st743{fill:#D2D2D2;}
	.st744{fill:#232C35;}
	.st745{fill:#E39470;}
	.st746{fill:url(#XMLID_00000061447635105246765760000017652123896837001857_);}
	.st747{fill:#9DA6AC;}
	.st748{fill:#72979F;}
	.st749{fill:#96A1AB;}
	.st750{fill:#5F7887;}
	.st751{fill:#CC1B31;}
	.st752{fill:url(#XMLID_00000131329291271924227270000016616961571154915764_);}
	.st753{fill:url(#XMLID_00000093873917174190015160000013546276766317353870_);}
	.st754{fill:url(#XMLID_00000043426444454283564190000017511021964681507210_);}
	.st755{fill:#C0C4B6;}
	.st756{fill:#CEE8EC;}
	.st757{fill:url(#XMLID_00000005976254401046931010000011312490880255865233_);}
	.st758{fill:url(#XMLID_00000156555755575533903490000001582845876347563404_);}
	.st759{fill:#384C5A;}
	.st760{fill:url(#XMLID_00000016791547493681419950000002499231925056659856_);}
	.st761{fill:#ED9E02;}
	.st762{fill:#FFE253;}
	.st763{fill:#F7C318;}
	.st764{fill:#DDB988;}
	.st765{fill:#D2A37C;}
	.st766{fill:#C98666;}
	.st767{fill:#2C7EAE;}
	.st768{fill:#A61916;}
	.st769{fill:#E6704B;}
	.st770{fill:#DF3118;}
	.st771{fill:#00648A;}
	.st772{fill:#4CB0E4;}
	.st773{fill:#2178BD;}
	.st774{fill:#058A38;}
	.st775{fill:#6EB761;}
	.st776{fill:#4DAD3C;}
	.st777{fill:#283373;}
	.st778{fill:#4A60A8;}
	.st779{fill:#274394;}
	.st780{fill:#49267F;}
	.st781{fill:#7C559E;}
	.st782{fill:#693D8F;}
	.st783{fill:#871D6C;}
	.st784{fill:#C5569A;}
	.st785{fill:#CA1781;}
	.st786{fill:#2D1B1B;}
	.st787{fill:#8A5655;}
	.st788{fill:#734748;}
	.st789{fill:url(#XMLID_00000120521071045021074450000015898854193863990947_);}
	.st790{fill:#A3B5D1;}
	.st791{fill:#04559C;}
</style>
<g>
	<g>
		<path class="st0" d="M82.31,64.03c-25.12,3.03-50.52,3.03-75.64,0C3,63.57,0,60.11,0,56.45C0,40.92,0,25.39,0,9.85
			c0-3.66,3-7.12,6.68-7.58c25.12-3.03,50.52-3.03,75.64,0c3.68,0.46,6.68,3.92,6.68,7.58c0,15.53,0,31.06,0,46.59
			C88.99,60.11,85.99,63.57,82.31,64.03z"/>
	</g>
	<g>
		<g>
			<path class="st100" d="M22.24,55.28c-0.16-0.26-0.58-0.51-1.08-0.51c-0.64,0-0.94,0.27-0.94,0.6c0,0.4,0.47,0.51,1.01,0.57
				c0.95,0.12,1.83,0.36,1.83,1.45c0,1.01-0.9,1.45-1.91,1.45c-0.93,0-1.64-0.29-1.98-1.12l0.71-0.37c0.2,0.5,0.73,0.72,1.28,0.72
				c0.54,0,1.05-0.19,1.05-0.68c0-0.43-0.45-0.6-1.05-0.67c-0.93-0.11-1.79-0.36-1.79-1.38c0-0.94,0.92-1.32,1.76-1.33
				c0.71,0,1.44,0.2,1.79,0.9L22.24,55.28z"/>
			<path class="st100" d="M24.56,54.22V56c0.28-0.37,0.63-0.48,0.98-0.48c0.89,0,1.29,0.62,1.29,1.56v1.69h-0.76v-1.68
				c0-0.58-0.3-0.83-0.73-0.83c-0.47,0-0.79,0.4-0.79,0.88v1.64H23.8v-4.55H24.56z"/>
			<path class="st100" d="M30.7,57.13c0,0.92-0.63,1.67-1.67,1.67s-1.66-0.75-1.66-1.67c0-0.92,0.64-1.67,1.66-1.67
				C30.04,55.46,30.7,56.21,30.7,57.13z M28.16,57.13c0,0.49,0.29,0.94,0.87,0.94c0.58,0,0.87-0.45,0.87-0.94
				c0-0.48-0.34-0.95-0.87-0.95C28.45,56.18,28.16,56.65,28.16,57.13z"/>
			<path class="st100" d="M31.28,60.07v-4.55h0.71l0.05,0.44c0.24-0.36,0.65-0.51,0.99-0.51c0.94,0,1.57,0.74,1.57,1.68
				c0,0.94-0.57,1.68-1.55,1.68c-0.32,0-0.8-0.1-1.02-0.46v1.72H31.28z M33.93,57.13c0-0.5-0.34-0.91-0.91-0.91
				c-0.57,0-0.91,0.41-0.91,0.91c0,0.5,0.37,0.91,0.91,0.91C33.56,58.04,33.93,57.63,33.93,57.13z"/>
			<path class="st100" d="M35.28,60.07v-4.55h0.71l0.05,0.44c0.24-0.36,0.65-0.51,0.99-0.51c0.94,0,1.57,0.74,1.57,1.68
				c0,0.94-0.57,1.68-1.55,1.68c-0.32,0-0.8-0.1-1.02-0.46v1.72H35.28z M37.99,57.13c0-0.5-0.34-0.91-0.91-0.91
				c-0.57,0-0.91,0.41-0.91,0.91c0,0.5,0.37,0.91,0.91,0.91C37.62,58.04,37.99,57.63,37.99,57.13z"/>
			<path class="st100" d="M40.23,54.62c0,0.62-0.94,0.62-0.94,0C39.29,54.01,40.23,54.01,40.23,54.62z M39.4,55.52v3.25h0.76v-3.25
				H39.4z"/>
			<path class="st100" d="M43.3,58.77v-1.68c0-0.48-0.27-0.85-0.78-0.86c-0.47-0.01-0.85,0.39-0.85,0.86l0,1.68h-0.76v-3.25h0.7
				l0.05,0.44c0.32-0.32,0.64-0.49,1.04-0.49c0.75,0,1.34,0.57,1.34,1.59v1.7H43.3z"/>
			<path class="st100" d="M47.22,55.21l0.58,0.44l-0.36,0.45c0.25,0.28,0.34,0.6,0.34,0.95c0,0.4-0.15,0.96-0.68,1.2
				c0.53,0.27,0.66,0.65,0.66,1.06c0,0.88-0.68,1.43-1.6,1.43s-1.62-0.57-1.62-1.43h0.79c0,0.42,0.38,0.69,0.84,0.69
				s0.81-0.25,0.81-0.69c0-0.44-0.42-0.64-0.82-0.64c-0.81,0-1.52-0.56-1.61-1.37c-0.13-1.14,0.64-1.87,1.61-1.87
				c0.25,0,0.51,0.03,0.73,0.18L47.22,55.21z M45.33,57.05c0,0.56,0.38,0.89,0.84,0.89c0.45,0,0.83-0.34,0.83-0.89
				s-0.38-0.9-0.83-0.9C45.71,56.14,45.33,56.49,45.33,57.05z"/>
			<path class="st100" d="M53.67,58.16c-0.47,0.46-1.07,0.68-1.73,0.68c-1.69,0-2.4-1.16-2.41-2.35c-0.01-1.19,0.77-2.4,2.41-2.4
				c0.62,0,1.2,0.23,1.67,0.7l-0.57,0.55c-0.3-0.29-0.7-0.43-1.1-0.43c-1.1,0-1.57,0.82-1.57,1.58c0.01,0.75,0.44,1.54,1.57,1.54
				c0.4,0,0.84-0.16,1.14-0.46L53.67,58.16z"/>
			<path class="st100" d="M54.71,57.36c0.05,0.4,0.4,0.68,0.96,0.68c0.29,0,0.68-0.11,0.86-0.3l0.51,0.5
				c-0.34,0.35-0.89,0.52-1.38,0.52c-1.1,0-1.76-0.68-1.76-1.71c0-0.97,0.66-1.68,1.7-1.68c1.07,0,1.74,0.66,1.62,1.98H54.71z
				 M56.45,56.71c-0.05-0.42-0.38-0.62-0.83-0.62c-0.43,0-0.78,0.21-0.9,0.62H56.45z"/>
			<path class="st100" d="M60.19,58.77v-1.68c0-0.48-0.27-0.85-0.78-0.86c-0.47-0.01-0.85,0.39-0.85,0.86v1.68h-0.76v-3.25h0.7
				l0.05,0.44c0.32-0.32,0.64-0.49,1.04-0.49c0.75,0,1.35,0.57,1.35,1.59v1.7H60.19z"/>
			<path class="st100" d="M62.57,54.61v0.91h0.97v0.65h-0.97v1.38c0,0.31,0.16,0.45,0.4,0.45c0.12,0,0.26-0.04,0.37-0.1l0.21,0.68
				c-0.22,0.09-0.4,0.13-0.63,0.14c-0.67,0.03-1.11-0.37-1.11-1.17v-1.38h-0.65v-0.65h0.65v-0.83L62.57,54.61z"/>
			<path class="st100" d="M64.78,57.36c0.05,0.4,0.4,0.68,0.96,0.68c0.29,0,0.68-0.11,0.86-0.3l0.51,0.5
				c-0.34,0.35-0.89,0.52-1.38,0.52c-1.1,0-1.76-0.68-1.76-1.71c0-0.97,0.66-1.68,1.7-1.68c1.07,0,1.74,0.66,1.62,1.98H64.78z
				 M66.53,56.71c-0.05-0.42-0.38-0.62-0.83-0.62c-0.43,0-0.78,0.21-0.9,0.62H66.53z"/>
			<path class="st100" d="M68.58,55.52l0.06,0.38c0.24-0.4,0.55-0.46,0.86-0.46c0.32,0,0.62,0.13,0.79,0.31l-0.34,0.7
				c-0.16-0.14-0.3-0.21-0.55-0.21c-0.4,0-0.76,0.22-0.76,0.82v1.71h-0.76v-3.25H68.58z"/>
		</g>
		<g>
			<path class="st101" d="M13.75,44.08c0,0.82-0.39,1.61-1.38,2.05c1.24,0.38,1.7,1.7,1.7,2.37c0,2.37-1.77,3.12-3.97,3.12
				c-1.68,0-3.35,0-5.03,0V41c1.67,0,3.35,0,5.03,0C12.19,41,13.75,41.94,13.75,44.08z M7.02,45.23h3.13c1.28,0,1.7-0.54,1.7-1.16
				c0-0.5-0.4-1.33-1.7-1.33H7.02V45.23z M7.02,49.78h3.04c0.81,0,1.97-0.27,1.97-1.26c0-0.95-1.16-1.44-1.97-1.44H7.02V49.78z"/>
			<path class="st101" d="M16.88,48.48c0.12,0.92,0.92,1.59,2.23,1.59c0.68,0,1.58-0.26,2-0.7l1.18,1.17
				c-0.79,0.82-2.08,1.21-3.21,1.21c-2.58,0-4.11-1.59-4.11-3.99c0-2.27,1.55-3.91,3.97-3.91c2.5,0,4.06,1.55,3.78,4.62H16.88z
				 M20.94,46.96c-0.12-0.97-0.88-1.46-1.94-1.46c-1,0-1.82,0.49-2.09,1.46H20.94z"/>
			<path class="st101" d="M29.65,51.62v-3.91c0-1.11-0.59-1.96-1.71-2c-1.08-0.04-1.97,0.87-1.97,1.95l0,3.96h-1.84v-7.47h1.64
				l0.12,1.01c0.75-0.74,1.51-1.12,2.44-1.12c1.75,0,3.15,1.32,3.15,3.66v3.92H29.65z"/>
			<path class="st101" d="M39.03,44.15h1.77v7.47h-1.74l-0.09-1.09c-0.42,0.88-1.59,1.3-2.43,1.32c-2.21,0.02-3.85-1.35-3.85-3.97
				c0-2.58,1.71-3.93,3.9-3.91c1,0,1.96,0.47,2.38,1.21L39.03,44.15z M34.53,47.86c0,1.43,0.99,2.27,2.21,2.27
				c2.91,0,2.91-4.53,0-4.53C35.52,45.6,34.53,46.43,34.53,47.86z"/>
			<path class="st101" d="M44.16,41v6.14l2.52-3h2.25v0.11l-3.11,3.41l3.54,3.82v0.14h-2.29l-2.91-3.39v3.39h-1.84V41H44.16z"/>
			<path class="st101" d="M55.64,51.62v-3.91c0-1.11-0.59-1.96-1.71-2c-1.08-0.04-1.97,0.87-1.97,1.95v3.96h-1.84v-7.47h1.64
				l0.12,1.01c0.75-0.74,1.51-1.12,2.44-1.12c1.75,0,3.15,1.32,3.15,3.66v3.92H55.64z"/>
			<path class="st101" d="M66.54,47.87c0,2.15-1.47,3.9-3.9,3.9c-2.43,0-3.88-1.74-3.88-3.9c0-2.14,1.49-3.9,3.87-3.9
				S66.54,45.73,66.54,47.87z M60.61,47.87c0,1.14,0.68,2.2,2.03,2.2c1.35,0,2.03-1.06,2.03-2.2c0-1.12-0.79-2.21-2.03-2.21
				C61.31,45.66,60.61,46.75,60.61,47.87z"/>
			<path class="st101" d="M69.72,44.15v3.91c0,1.11,0.59,1.96,1.71,2c1.08,0.04,1.97-0.87,1.97-1.95l0-3.96h1.84v7.47H73.6
				l-0.12-1.01c-0.77,0.76-1.48,1.12-2.52,1.12c-1.78,0-3.08-1.35-3.08-3.66v-3.92H69.72z"/>
			<path class="st101" d="M82.39,51.62v-3.91c0-1.11-0.59-1.96-1.71-2c-1.08-0.04-1.97,0.87-1.97,1.95v3.96h-1.84v-7.47h1.64
				l0.12,1.01c0.75-0.74,1.51-1.12,2.44-1.12c1.75,0,3.15,1.32,3.15,3.66v3.92H82.39z"/>
		</g>
		<g>
			
				<linearGradient id="XMLID_00000062159645900461084690000003258484576100109450_" gradientUnits="userSpaceOnUse" x1="41.6971" y1="20.974" x2="59.9677" y2="20.974">
				<stop  offset="0" style="stop-color:#39A7DF"/>
				<stop  offset="0.0643" style="stop-color:#3699D3"/>
				<stop  offset="0.2421" style="stop-color:#2F77B7"/>
				<stop  offset="0.4238" style="stop-color:#2A5CA1"/>
				<stop  offset="0.6085" style="stop-color:#264991"/>
				<stop  offset="0.7981" style="stop-color:#243E88"/>
				<stop  offset="1" style="stop-color:#233A85"/>
			</linearGradient>
			
				<path id="XMLID_00000043445812660256196000000004843796546716841092_" style="fill-rule:evenodd;clip-rule:evenodd;fill:url(#XMLID_00000062159645900461084690000003258484576100109450_);" d="
				M49.23,11.43C52.2,8.9,55.07,6.78,57.5,5.1c-0.42,0.55-2.41,3.07-3.5,4.45c3.63,2.8,5.97,7.15,5.97,12.03
				c0,8.44-6.98,15.28-15.59,15.28c-0.91,0-1.81-0.08-2.68-0.23c5.22-0.13,10.68-2.25,12.44-7.25c2.26-6.4-6.56-6.76-6.56-6.76
				s1.52-0.52,3.77-2.53c2.26-2.01,2.3-7.4-2.09-8.65L49.23,11.43z"/>
			
				<linearGradient id="XMLID_00000087400213004418131340000015965982217810167478_" gradientUnits="userSpaceOnUse" x1="28.7903" y1="20.3962" x2="49.7449" y2="20.3962">
				<stop  offset="0" style="stop-color:#39A7DF"/>
				<stop  offset="0.0643" style="stop-color:#3699D3"/>
				<stop  offset="0.2421" style="stop-color:#2F77B7"/>
				<stop  offset="0.4238" style="stop-color:#2A5CA1"/>
				<stop  offset="0.6085" style="stop-color:#264991"/>
				<stop  offset="0.7981" style="stop-color:#243E88"/>
				<stop  offset="1" style="stop-color:#233A85"/>
			</linearGradient>
			
				<path id="XMLID_00000152230791982322408960000012928908596787834251_" style="fill-rule:evenodd;clip-rule:evenodd;fill:url(#XMLID_00000087400213004418131340000015965982217810167478_);" d="
				M44.38,6.29c1.89,0,3.69,0.33,5.37,0.93c-0.62,0.42-1.25,0.88-1.91,1.36c-1.21,0.89-2.33,1.84-3.36,2.81
				c-3.77,0.6-7.52,2.22-7.52,2.22s3-0.64,6.06-0.76c-7.2,7.6-9.43,16.27-9.43,16.27c3.77-6.18,8.75-11.55,13.61-15.91
				c1.18,0.34,2.01,0.95,2.16,1.97c0.57,4.1-5.95,7.56-5.95,7.56s2.09,0.08,4.14,1.65c2.05,1.57,3.86,6.68-4.92,9.37
				c-6.75,2.07-10.51-0.66-11.9-2.03c0.02,0.01,1.14,0.49,2.73,0.74c-2.87-2.77-4.66-6.63-4.66-10.89
				C28.79,13.13,35.77,6.29,44.38,6.29z"/>
		</g>
		
			<rect id="XMLID_00000121273502230584993350000016571179499558672539_" x="8.21" y="55.19" class="st104" width="2.82" height="2.82"/>
		
			<rect id="XMLID_00000126304762903469126310000015344687623685206433_" x="5.5" y="55.19" class="st100" width="2.82" height="2.82"/>
		
			<rect id="XMLID_00000029765297875954888080000014928747964644557442_" x="11.02" y="55.19" class="st105" width="2.82" height="2.82"/>
		
			<rect id="XMLID_00000173853105714629094090000016567786493365278113_" x="13.84" y="55.19" class="st106" width="2.82" height="2.82"/>
		
			<rect id="XMLID_00000011011369563521816740000014526305369912286611_" x="77.63" y="55.19" transform="matrix(-1 -8.656555e-11 8.656555e-11 -1 158.0681 113.1992)" class="st104" width="2.82" height="2.82"/>
		
			<rect id="XMLID_00000106870218004337683240000003224344653619498386_" x="80.44" y="55.19" transform="matrix(-1 -8.656555e-11 8.656555e-11 -1 163.6996 113.1992)" class="st100" width="2.82" height="2.82"/>
		
			<rect id="XMLID_00000040549785494530049870000002315605524484820105_" x="74.81" y="55.19" transform="matrix(-1 -9.044156e-11 9.044156e-11 -1 152.4367 113.1992)" class="st105" width="2.82" height="2.82"/>
		
			<rect id="XMLID_00000111166232626222250200000008521734763232434080_" x="72.1" y="55.19" transform="matrix(-1 -9.044156e-11 9.044156e-11 -1 147.0219 113.1992)" class="st106" width="2.82" height="2.82"/>
	</g>
</g>
</svg>
