<?xml version="1.0" encoding="utf-8"?>
<!-- Generator: Adobe Illustrator 26.0.2, SVG Export Plug-In . SVG Version: 6.00 Build 0)  -->
<svg version="1.1" id="Calque_1" xmlns="http://www.w3.org/2000/svg" xmlns:xlink="http://www.w3.org/1999/xlink" x="0px" y="0px"
	 viewBox="0 0 118.13 68.36" style="enable-background:new 0 0 118.13 68.36;" xml:space="preserve">
<style type="text/css">
	.st0{fill:#FFFFFF;}
	.st1{opacity:0.35;fill:url(#SVGID_1_);}
	.st2{opacity:0.35;}
	.st3{opacity:0.25;fill:url(#SVGID_00000165193249952599280010000015460172595904619413_);}
	.st4{opacity:0.27;fill:url(#SVGID_00000065793953368955085000000018314225919655570830_);}
	.st5{opacity:0.17;fill:url(#SVGID_00000145781502898251103880000001392958899146851232_);}
	.st6{opacity:0.62;fill:url(#SVGID_00000034074295003050004500000000889094745910134678_);}
	.st7{opacity:0.37;fill:url(#SVGID_00000116222248156014173880000013805483537046488208_);}
	.st8{opacity:0.47;fill:url(#SVGID_00000139996569222821024690000010142685829893819315_);}
	.st9{opacity:0.47;fill:url(#SVGID_00000145058235993561008140000017845566442046492046_);}
	.st10{opacity:0.47;fill:url(#SVGID_00000026136894729052883620000011017330714306935467_);}
	.st11{opacity:0.48;fill:url(#SVGID_00000164472257166271696310000003139740790128132480_);}
	.st12{opacity:0.48;fill:url(#SVGID_00000142871326523067638910000006714719197178211496_);}
	.st13{opacity:0.4;fill:url(#SVGID_00000017499024121048734040000004036851317810664097_);}
	.st14{fill:#3A63A4;}
	.st15{fill:#CCD35F;}
	.st16{fill:#4B4392;}
	.st17{fill:#2CA696;}
	.st18{fill:#D71158;}
	.st19{fill:#F9BB5A;}
	.st20{fill:#EFB349;}
	.st21{fill:#EC6C44;}
	.st22{fill:#25B1A2;}
	.st23{fill:#CB3580;}
	.st24{fill:#F8DC91;}
	.st25{fill:#C2367E;}
	.st26{fill:#289BB9;}
	.st27{fill:#CC1640;}
	.st28{fill:#4069A8;}
	.st29{fill:#EF8054;}
	.st30{fill:#1B9361;}
	.st31{fill:#1E9CC0;}
	.st32{fill:#8E4794;}
	.st33{fill:#F9B958;}
	.st34{fill:#DF0C1A;}
	.st35{fill:#002D74;}
	.st36{fill:#0069A8;}
	.st37{fill:#15A3DD;}
	.st38{fill:#19A3DD;}
	.st39{fill-rule:evenodd;clip-rule:evenodd;fill:#4AA334;}
	.st40{fill-rule:evenodd;clip-rule:evenodd;fill:#FFFFFF;}
	.st41{fill:#263780;}
	.st42{fill:url(#SVGID_00000183232846182624670690000007024206075321640862_);}
	.st43{fill:url(#SVGID_00000034086569223901908130000014362264362597582982_);}
	.st44{fill:url(#SVGID_00000003817340549607780930000014378939252583830694_);}
	.st45{fill:url(#SVGID_00000167371321927388790200000000634907934198250676_);}
	.st46{fill:url(#SVGID_00000150060223608262602040000010995372009252377504_);}
	.st47{fill:url(#SVGID_00000140702848952730009310000000390716675077799862_);}
	.st48{fill:#AFB6BD;}
	.st49{fill:#31295C;}
	.st50{fill:url(#SVGID_00000067207592976194828400000010193237139089567149_);}
	.st51{fill:url(#SVGID_00000106848730951238422900000007512252709630884744_);}
	.st52{fill:url(#SVGID_00000123413433340062408100000004731644664921172903_);}
	.st53{fill:url(#SVGID_00000119101608794012492150000017713260260813825692_);}
	.st54{fill:url(#SVGID_00000123428595403626057240000005485342741507244968_);}
	.st55{fill:url(#SVGID_00000057826757636897304690000000527683154284510380_);}
	.st56{fill:url(#SVGID_00000138573961709994529180000016906343253832976789_);}
	.st57{fill:url(#SVGID_00000088105899611127515650000013008762456054017966_);}
	.st58{fill:url(#SVGID_00000181800177791158461210000005217511402323379333_);}
	.st59{fill:url(#SVGID_00000106129988727962891360000013175706350787055528_);}
	.st60{fill:url(#SVGID_00000088129428167358778030000011373253223032371330_);}
	.st61{fill:url(#SVGID_00000132073328830785635420000008230965418933974415_);}
	.st62{fill:url(#SVGID_00000113340908600013530490000005496736633927293353_);}
	.st63{fill:url(#SVGID_00000117674739655513154780000006780272484219817862_);}
	.st64{fill:#312782;}
	.st65{fill:#6461A8;}
	.st66{fill:#747473;}
	.st67{fill:#CAC9C9;}
	.st68{fill-rule:evenodd;clip-rule:evenodd;fill:#D81A16;stroke:#1D1D1B;stroke-width:0.25;stroke-miterlimit:10;}
	.st69{fill:none;stroke:#1D1D1B;stroke-width:0.25;stroke-miterlimit:10;}
	.st70{fill:#12110C;}
	.st71{fill:#1D1D1B;}
	.st72{fill:#EF8328;}
	.st73{fill:url(#SVGID_00000178892240119779919590000013856066290402080935_);}
	.st74{fill:url(#SVGID_00000115489312915306843840000011433100862967061688_);}
	.st75{fill:url(#SVGID_00000033329121825302039080000003158394158020940449_);}
	.st76{fill:url(#SVGID_00000125585265618269768880000007021644220855369637_);}
	.st77{opacity:0.6;}
	.st78{fill:url(#SVGID_00000036967110540986189670000012653255526616083624_);}
	.st79{fill:url(#SVGID_00000016787206121375120220000000565187748689682336_);}
	.st80{fill:url(#SVGID_00000036239981079215633860000011601554815244822684_);}
	.st81{fill:url(#SVGID_00000020392282868874095740000009217871581541231235_);}
	.st82{fill:url(#SVGID_00000049929996603693779750000017542882816729461672_);}
	.st83{fill:url(#SVGID_00000019638054293524326930000015367819958632773796_);}
	.st84{fill:url(#SVGID_00000041273731387321736770000006823147855573883795_);}
	.st85{fill:url(#SVGID_00000145773932135018032750000011437974460113927356_);}
	.st86{fill:url(#SVGID_00000003827229949397556810000017013813344697965196_);}
	.st87{fill:url(#SVGID_00000145771181018410185090000012242289869529331383_);}
	.st88{fill:url(#SVGID_00000132052543971076552420000002070865557609422737_);}
	.st89{fill:url(#SVGID_00000074428623992328401970000001950426590685363630_);}
	.st90{fill:url(#SVGID_00000094597425075432858060000000433395214302953403_);}
	.st91{fill:#001689;}
	.st92{fill:none;stroke:#001689;stroke-width:0.881;stroke-linecap:round;stroke-linejoin:round;stroke-miterlimit:10;}
	.st93{fill:#0047BA;}
	.st94{fill:#253D90;}
	.st95{fill:#FFDC00;}
	.st96{fill:#0556A3;}
	.st97{fill:#0369B2;}
	.st98{fill:#5DC3F0;}
	.st99{fill:#DF162E;}
	.st100{fill:#39A7DF;}
	.st101{fill:#1B71B6;}
	.st102{fill-rule:evenodd;clip-rule:evenodd;fill:url(#XMLID_00000111155050454384687560000005264728129303140224_);}
	.st103{fill-rule:evenodd;clip-rule:evenodd;fill:url(#XMLID_00000146489209951685024240000004515824065598869689_);}
	.st104{fill:#91BF25;}
	.st105{fill:#FFDA05;}
	.st106{fill:#E00F1A;}
	.st107{fill-rule:evenodd;clip-rule:evenodd;fill:#213A7B;}
	.st108{fill-rule:evenodd;clip-rule:evenodd;}
	.st109{fill-rule:evenodd;clip-rule:evenodd;fill:#E20C30;}
	.st110{fill:#2B7DB9;}
	.st111{fill:#43AC51;}
	.st112{fill-rule:evenodd;clip-rule:evenodd;fill:#034A91;}
	.st113{fill:#005891;}
	.st114{fill:#E3283B;}
	.st115{fill:#004A93;}
	.st116{fill-rule:evenodd;clip-rule:evenodd;fill:#004A93;}
	.st117{fill-rule:evenodd;clip-rule:evenodd;fill:#FFEA20;}
	.st118{fill-rule:evenodd;clip-rule:evenodd;fill:#DF101C;}
	.st119{fill:#2997D4;}
	.st120{fill:#F18A00;}
	.st121{fill:#09111D;}
	.st122{fill:#A72136;}
	.st123{fill:url(#SVGID_00000167361732002501084960000004162448797777279914_);}
	.st124{fill:url(#SVGID_00000143613444732473801180000000409144371773409670_);}
	.st125{fill:url(#SVGID_00000154411878440571370580000010507578042120588946_);}
	.st126{fill:url(#SVGID_00000088116467094790165170000016876178379064895634_);}
	.st127{fill:url(#SVGID_00000104708536623824766060000006083701454459626893_);}
	.st128{fill:url(#SVGID_00000042697986038117442410000004470015554246034616_);}
	.st129{fill:url(#SVGID_00000007414305490373118620000006664757707622581683_);}
	.st130{fill:url(#SVGID_00000021804129098647470660000017953256005803782029_);}
	.st131{fill:#2D2F34;}
	.st132{fill:url(#SVGID_00000101095404847685747930000002185774435493653153_);}
	.st133{fill:url(#SVGID_00000077291346099999497010000015358035456793257098_);}
	.st134{fill:url(#SVGID_00000011000654473738363520000015269508199751592095_);}
	.st135{fill:url(#SVGID_00000098943615329434281610000010099594459576084111_);}
	.st136{fill:#003DA6;}
	.st137{fill-rule:evenodd;clip-rule:evenodd;fill:#0E579F;stroke:#FFFFFF;stroke-width:1.0001;stroke-miterlimit:2.6131;}
	.st138{fill-rule:evenodd;clip-rule:evenodd;fill:#FFFFFF;stroke:#FFFFFF;stroke-width:0.216;stroke-miterlimit:2.6131;}
	.st139{fill:#1766AD;}
	.st140{fill:#7EB828;}
	.st141{fill:#0D9E39;}
	.st142{fill:#7CB62C;}
	.st143{fill-rule:evenodd;clip-rule:evenodd;fill:#00A0DF;}
	
		.st144{clip-path:url(#SVGID_00000021835093270063224170000009765563115392752523_);fill-rule:evenodd;clip-rule:evenodd;fill:#8CCFF1;}
	
		.st145{clip-path:url(#SVGID_00000021835093270063224170000009765563115392752523_);fill-rule:evenodd;clip-rule:evenodd;fill:#C3E4F5;}
	
		.st146{clip-path:url(#SVGID_00000021835093270063224170000009765563115392752523_);fill-rule:evenodd;clip-rule:evenodd;fill:#FFFFFF;}
	.st147{clip-path:url(#SVGID_00000021835093270063224170000009765563115392752523_);}
	.st148{fill:#83CEEA;}
	.st149{fill-rule:evenodd;clip-rule:evenodd;fill:#65B2E8;}
	.st150{fill-rule:evenodd;clip-rule:evenodd;fill:#0C68AE;}
	.st151{fill-rule:evenodd;clip-rule:evenodd;fill:#00205C;}
	.st152{fill:#00A0DF;}
	.st153{fill:#00205C;}
	.st154{clip-path:url(#SVGID_00000044882681612825332130000005127819715399980471_);}
	.st155{fill:#29A43B;}
	.st156{fill:#BFE1F4;}
	.st157{fill:#D2E9F7;}
	.st158{fill:#444592;}
	.st159{fill:#BBA26A;}
	.st160{fill:#ACB217;}
	.st161{fill:url(#SVGID_00000159432134560044397950000001782913502477553805_);}
	.st162{fill-rule:evenodd;clip-rule:evenodd;fill:#211F1F;}
	.st163{fill:url(#SVGID_00000039108808098428283470000000409618801885232810_);}
	.st164{fill:url(#SVGID_00000052079564994861728730000008869070088907198349_);}
	.st165{fill:url(#SVGID_00000108279140857377438180000016297710817398594455_);}
	.st166{fill:url(#SVGID_00000175301457514934780100000008462583146627387574_);}
	.st167{fill:url(#SVGID_00000067914493361196592310000013771909845865301439_);}
	.st168{fill:url(#SVGID_00000157270652121121396470000014124993416784845241_);}
	.st169{fill:url(#SVGID_00000145776886594488588420000013351657572260556429_);}
	.st170{fill:url(#SVGID_00000172411974019523456700000013814134464553446804_);}
	.st171{fill:url(#SVGID_00000024693731143736661480000004459429933668472480_);}
	.st172{fill:url(#SVGID_00000119824554265748845410000012099628957367223724_);}
	.st173{fill:url(#SVGID_00000139259842104747161600000016810346440531693469_);}
	.st174{fill:url(#SVGID_00000130619869965232430000000011618268794879816107_);}
	.st175{fill:url(#SVGID_00000180361534230373085940000006629798073089779117_);}
	.st176{fill:url(#SVGID_00000112618312462284151960000001586293239862756738_);}
	.st177{fill:url(#SVGID_00000077315464305582982810000000754752904048874378_);}
	.st178{fill:url(#SVGID_00000000220068149648355110000004662280218820931772_);}
	.st179{fill:url(#SVGID_00000055677911961547460880000006180802763956472204_);}
	.st180{fill:url(#SVGID_00000177470073567385795010000007199136846674455168_);}
	.st181{fill:url(#SVGID_00000002377320663212185180000004222537387802182316_);}
	.st182{fill:url(#SVGID_00000061441264976934509250000009166729453940140424_);}
	.st183{fill:url(#SVGID_00000142174303836318842270000011376903879760795024_);}
	.st184{fill:url(#SVGID_00000000198219529515467800000011690451749011598260_);}
	.st185{fill:url(#SVGID_00000130616211822237114540000017624904339041038518_);}
	.st186{fill:url(#SVGID_00000142865407992019291240000002667415697471984305_);}
	.st187{fill:url(#SVGID_00000175294600833176628590000007805315371248180657_);}
	.st188{fill:url(#SVGID_00000157304196665823838820000017832819296264271800_);}
	
		.st189{clip-path:url(#SVGID_00000129163799809290409330000016770872004357801869_);fill:url(#SVGID_00000134944071745716398280000000777262859879875984_);}
	.st190{fill:url(#SVGID_00000032619795261250196780000007697156516636147372_);}
	.st191{fill:url(#SVGID_00000090287979550743315490000000761887296753656198_);}
	.st192{fill:url(#SVGID_00000096756603594092776130000016851154624237990273_);}
	.st193{fill:url(#SVGID_00000026125007977608067930000004175039927639431085_);}
	.st194{fill-rule:evenodd;clip-rule:evenodd;fill:url(#SVGID_00000129883877743343480130000008289389832758715046_);}
	.st195{fill:#F6F0F3;}
	.st196{fill:#F8F4F6;}
	.st197{fill:#FFFCFD;}
	.st198{fill:#0F4D80;}
	.st199{fill:#2F93D1;}
	.st200{display:none;}
	.st201{display:inline;fill:#0F4D80;}
	.st202{display:inline;fill:#2F93D1;}
	.st203{display:inline;fill:#FFFFFF;}
	.st204{opacity:0.3;}
	.st205{fill:#65A1D7;}
	.st206{fill:#E63922;}
	.st207{fill:#33712F;}
	.st208{fill:#509BD5;}
	.st209{fill:#2C88C7;}
	.st210{fill:#A9DBF7;}
	.st211{fill:#EEB68A;}
	.st212{fill:#FBD3AD;}
	.st213{fill:#270C12;}
	.st214{fill:#230A10;}
	.st215{fill:#A2403B;}
	.st216{fill:#C1665D;}
	.st217{fill:#DFECF8;}
	.st218{fill:#411017;}
	.st219{fill:#262626;}
	.st220{opacity:0.47;}
	.st221{fill:#FAD8D5;}
	.st222{fill:#FBE1DE;}
	.st223{fill:#EA808C;}
	.st224{fill:#C9E7F7;}
	.st225{fill:#E5F3FD;}
	.st226{fill:#FDEEEE;}
	.st227{fill:#F7C7C9;}
	.st228{fill:#ECF6F7;}
	.st229{fill:#A0D0F1;}
	.st230{fill:#97C7EC;}
	.st231{fill:#9ECFF1;}
	.st232{fill:#E8F4F6;}
	.st233{fill:#BEE3F5;}
	.st234{fill:#D7EDF6;}
	.st235{fill:#ED705B;}
	.st236{fill:#F9C9BA;}
	.st237{fill:#8BC5EC;}
	.st238{fill:#F5AC9B;}
	.st239{fill:#F1907E;}
	.st240{fill:#D6EDF6;}
	.st241{fill:#4B8739;}
	.st242{fill:#F39B8B;}
	.st243{fill:#C5D4E1;}
	.st244{fill:#F29A9C;}
	.st245{fill:#3C3C3B;}
	.st246{fill:#EE808D;}
	.st247{fill:#187FB9;}
	.st248{fill:#2EA8E0;}
	.st249{fill:#80CEF4;}
	.st250{fill:#BDE3F6;}
	.st251{fill:#EA5B2B;}
	.st252{fill:#E73F2F;}
	.st253{opacity:0.26;fill:#D3B0D4;}
	.st254{fill:url(#SVGID_00000106115794092529357200000016659614462669186454_);}
	.st255{fill:#B7553B;}
	.st256{fill:#E63924;}
	.st257{fill:#441943;}
	.st258{fill:#281028;}
	.st259{fill:#8BCAB9;}
	.st260{fill:#D9271B;}
	.st261{fill:#FCE7E5;}
	.st262{fill:#A9D7CF;}
	.st263{fill:url(#SVGID_00000115513341450518789950000016851931130275062952_);}
	.st264{fill:url(#SVGID_00000115498576216931085010000015149668050003598522_);}
	.st265{fill:url(#SVGID_00000048474598508463151110000017818842272262456501_);}
	.st266{opacity:0.26;fill:#A2403B;}
	.st267{fill:#6E4594;}
	.st268{fill:#B65650;}
	.st269{fill:url(#SVGID_00000081648095318454543390000012604403225654585489_);}
	.st270{fill:#454545;}
	.st271{fill:#A7D9F5;}
	.st272{fill:#24212E;}
	.st273{fill:#6D1B0F;}
	.st274{fill:#3E4055;}
	.st275{fill:#3E4052;}
	.st276{fill:#77491E;}
	.st277{fill:#474A5E;}
	.st278{fill:#24222D;}
	.st279{fill:#D6D6D6;}
	.st280{fill:#F8C6BD;}
	.st281{fill:#3F292A;}
	.st282{fill:#E7E8EC;}
	.st283{fill:#F9D3CA;}
	.st284{fill:#E9B9A6;}
	.st285{fill:#0E0C09;}
	.st286{fill:#CCDADA;}
	.st287{fill:#EDBDAA;}
	.st288{fill:#535459;}
	.st289{fill:#929497;}
	.st290{fill:#3164AC;}
	.st291{fill:#D53939;}
	.st292{fill:#313134;}
	.st293{fill:url(#SVGID_00000173874662997397484040000005744475132870983567_);}
	.st294{fill:url(#SVGID_00000064330754058085809660000011793672938775364272_);}
	.st295{fill:url(#SVGID_00000009556352011661504610000016852532834459521707_);}
	.st296{fill:#E6E7E7;}
	.st297{clip-path:url(#SVGID_00000103249163213249521810000008776312042297612732_);}
	.st298{fill:#F7F6F6;}
	.st299{fill:#0E4D80;}
	.st300{opacity:0.31;}
	.st301{opacity:0;}
	.st302{fill:#010100;}
	.st303{opacity:4.653465e-03;}
	.st304{opacity:9.306931e-03;}
	.st305{opacity:0.014;}
	.st306{opacity:0.0186;}
	.st307{opacity:0.0233;}
	.st308{opacity:0.0279;}
	.st309{opacity:0.0326;}
	.st310{opacity:0.0372;}
	.st311{opacity:0.0419;}
	.st312{opacity:0.0465;}
	.st313{opacity:0.0512;}
	.st314{opacity:0.0558;}
	.st315{opacity:0.0605;}
	.st316{opacity:0.0651;}
	.st317{opacity:0.0698;}
	.st318{opacity:0.0745;}
	.st319{opacity:0.0791;}
	.st320{opacity:0.0838;}
	.st321{opacity:0.0884;}
	.st322{opacity:0.0931;}
	.st323{opacity:0.0977;}
	.st324{opacity:0.1024;}
	.st325{opacity:0.107;}
	.st326{opacity:0.1117;}
	.st327{opacity:0.1163;}
	.st328{opacity:0.121;}
	.st329{opacity:0.1256;}
	.st330{opacity:0.1303;}
	.st331{opacity:0.135;}
	.st332{opacity:0.1396;}
	.st333{opacity:0.1443;}
	.st334{opacity:0.1489;}
	.st335{opacity:0.1536;}
	.st336{opacity:0.1582;}
	.st337{opacity:0.1629;}
	.st338{opacity:0.1675;}
	.st339{opacity:0.1722;}
	.st340{opacity:0.1768;}
	.st341{opacity:0.1815;}
	.st342{opacity:0.1861;}
	.st343{opacity:0.1908;}
	.st344{opacity:0.1954;}
	.st345{opacity:0.2001;}
	.st346{opacity:0.2048;}
	.st347{opacity:0.2094;}
	.st348{opacity:0.2141;}
	.st349{opacity:0.2187;}
	.st350{opacity:0.2234;}
	.st351{opacity:0.228;}
	.st352{opacity:0.2327;}
	.st353{opacity:0.2373;}
	.st354{opacity:0.242;}
	.st355{opacity:0.2466;}
	.st356{opacity:0.2513;}
	.st357{opacity:0.2559;}
	.st358{opacity:0.2606;}
	.st359{opacity:0.2652;}
	.st360{opacity:0.2699;}
	.st361{opacity:0.2746;}
	.st362{opacity:0.2792;}
	.st363{opacity:0.2839;}
	.st364{opacity:0.2885;}
	.st365{opacity:0.2932;}
	.st366{opacity:0.2978;}
	.st367{opacity:0.3025;}
	.st368{opacity:0.3071;}
	.st369{opacity:0.3118;}
	.st370{opacity:0.3164;}
	.st371{opacity:0.3211;}
	.st372{opacity:0.3257;}
	.st373{opacity:0.3304;}
	.st374{opacity:0.335;}
	.st375{opacity:0.3397;}
	.st376{opacity:0.3444;}
	.st377{opacity:0.349;}
	.st378{opacity:0.3537;}
	.st379{opacity:0.3583;}
	.st380{opacity:0.363;}
	.st381{opacity:0.3676;}
	.st382{opacity:0.3723;}
	.st383{opacity:0.3769;}
	.st384{opacity:0.3816;}
	.st385{opacity:0.3862;}
	.st386{opacity:0.3909;}
	.st387{opacity:0.3955;}
	.st388{opacity:0.4002;}
	.st389{opacity:0.4049;}
	.st390{opacity:0.4095;}
	.st391{opacity:0.4142;}
	.st392{opacity:0.4188;}
	.st393{opacity:0.4235;}
	.st394{opacity:0.4281;}
	.st395{opacity:0.4328;}
	.st396{opacity:0.4374;}
	.st397{opacity:0.4421;}
	.st398{opacity:0.4467;}
	.st399{opacity:0.4514;}
	.st400{opacity:0.456;}
	.st401{opacity:0.4607;}
	.st402{opacity:0.4653;}
	.st403{fill:url(#SVGID_00000179608223104058406670000018280307197251085715_);}
	.st404{fill:url(#SVGID_00000080891578463137207180000013167117910895934361_);}
	.st405{fill:url(#SVGID_00000106121488504809809650000013815541928671007874_);}
	.st406{fill:#C6A295;}
	.st407{fill:#EFC5B3;}
	.st408{fill:#121214;}
	.st409{fill:#BBBDBE;}
	.st410{fill:#863C13;}
	.st411{fill:#B96117;}
	.st412{fill:#EF8118;}
	.st413{fill:#BA5817;}
	.st414{fill:#6D6F71;}
	.st415{fill:#E21D26;}
	.st416{fill:#2C5E84;}
	.st417{fill:#9C251F;}
	.st418{fill:url(#SVGID_00000142150135059221271810000017456241042073052344_);}
	.st419{fill:#1C374E;}
	.st420{fill:#2B4E68;}
	.st421{opacity:0.3;fill:#121214;}
	.st422{fill:url(#SVGID_00000037682688284906726120000004858913379984142765_);}
	.st423{fill:url(#SVGID_00000088135093667811865390000015068278336829004984_);}
	.st424{fill:url(#SVGID_00000068639475648608121780000007467812556910845071_);}
	.st425{fill:url(#SVGID_00000092417374934025982790000000756619149436575911_);}
	.st426{fill:url(#SVGID_00000044172625102838837040000017576252974910186401_);}
	.st427{fill:url(#SVGID_00000095316008930855056950000017208069412736042388_);}
	.st428{fill:#0C0C0C;}
	.st429{fill:#603914;}
	.st430{fill:#E86821;}
	.st431{fill:#171717;}
	.st432{fill:#663F30;}
	.st433{fill:url(#SVGID_00000061473772435698722720000008812989470524266377_);}
	.st434{fill:url(#SVGID_00000167394780469748304230000008364452307914646418_);}
	.st435{fill:url(#SVGID_00000093882104523914541570000000843213146351233922_);}
	.st436{fill:url(#SVGID_00000037693130230279996460000014620721897241915019_);}
	.st437{fill:url(#SVGID_00000054225759101399450340000002755393265174814093_);}
	.st438{fill:url(#SVGID_00000141424103097713136770000004600049769051754165_);}
	.st439{fill:url(#SVGID_00000093885187096439271770000004858855415673906304_);}
	.st440{fill:url(#SVGID_00000036219669940851926300000012300005007880758419_);}
	.st441{fill:url(#SVGID_00000080166064157717294300000016684366772944212919_);}
	.st442{fill:url(#SVGID_00000139978521386649677750000011188364344203485624_);}
	.st443{fill:url(#SVGID_00000084508082039516156040000002458814786306495154_);}
	.st444{fill:url(#SVGID_00000180335933294762917320000009607181245286912925_);}
	.st445{fill:url(#SVGID_00000154412916230104657190000005062332614316508829_);}
	.st446{fill:url(#SVGID_00000083059552101882313190000010543559364267959685_);}
	.st447{fill:url(#SVGID_00000062881119868925537460000018073833832071785100_);}
	.st448{fill:url(#SVGID_00000020393110443018442870000008971847889170608807_);}
	.st449{fill:url(#SVGID_00000005951999907512546270000011328112114400079497_);}
	.st450{fill:url(#SVGID_00000001648617724713123470000005923230120109435814_);}
	.st451{fill:#B7B7B7;}
	.st452{fill:#112134;}
	.st453{fill:#414042;}
	.st454{fill:#221E20;}
	.st455{fill:#131313;}
	.st456{fill:#202020;}
	.st457{fill:#915E33;}
	.st458{fill:#57391E;}
	.st459{fill:#F39519;}
	.st460{fill:#F4B305;}
	.st461{fill:#C4C3C3;}
	.st462{fill:#A5A4A5;}
	.st463{fill:#888989;}
	.st464{fill:#242424;}
	.st465{fill:#6E4827;}
	.st466{opacity:0.1844;fill:#24222D;}
	.st467{fill:#A0A4BB;}
	.st468{opacity:0.1844;fill:#999AB6;}
	.st469{fill:#D9E3E3;}
	.st470{fill:#FAD5CB;}
	.st471{opacity:0.1844;fill:#24212E;}
	.st472{fill:#844013;}
	.st473{fill:#F8B777;}
	.st474{fill:#3576AB;}
	.st475{fill:#A2A1A1;}
	.st476{fill:#754C29;}
	.st477{fill:#B3DFF1;}
	.st478{fill:#80A5A5;}
	.st479{fill:#EAAE93;}
	.st480{fill:#00657E;}
	.st481{fill:#382E22;}
	.st482{fill:#157288;}
	.st483{fill:#A42916;}
	.st484{fill:#D43216;}
	.st485{fill:#E5A082;}
	.st486{fill:#B23318;}
	.st487{fill:#843E1E;}
	.st488{fill:#EDBEA8;}
	.st489{fill:#E94E49;}
	.st490{fill:#E3E4E3;}
	.st491{fill:#B9B9B9;}
	.st492{fill:#868787;}
	.st493{fill:url(#XMLID_00000023974808303245848570000012004650710994083769_);}
	.st494{fill:#989898;}
	.st495{fill:url(#XMLID_00000042698470010548231520000003961560310485222079_);}
	.st496{fill:#EEECEB;}
	.st497{fill:#D5D5D5;}
	.st498{fill:url(#XMLID_00000044174531957789361470000009100013692864118957_);}
	.st499{fill:url(#XMLID_00000083048589537273585740000001639282844705200801_);}
	.st500{fill:url(#XMLID_00000059300333460754241160000018013850331082890921_);}
	.st501{fill:url(#XMLID_00000042730383543220385660000006583497564585410742_);}
	.st502{fill:url(#XMLID_00000029763145966575752530000015348871340967373226_);}
	.st503{fill:url(#XMLID_00000127026042778932619620000000453724548320305833_);}
	.st504{fill:url(#XMLID_00000043448466664562485700000011307275640194701731_);}
	.st505{fill:url(#XMLID_00000168112867981295075840000000766471035888865725_);}
	.st506{fill:url(#XMLID_00000003785174949698180110000017238503693738952894_);}
	.st507{fill:url(#XMLID_00000160902401339894856350000000290158798000399804_);}
	.st508{fill:url(#XMLID_00000132046160731262264370000012750773668344801960_);}
	.st509{fill:url(#XMLID_00000018213515730603978360000001615031895387361408_);}
	.st510{fill:url(#XMLID_00000060750191136227143650000012758308485327167418_);}
	.st511{fill:url(#XMLID_00000077292704171808526810000005703565118521648015_);}
	.st512{fill:url(#XMLID_00000172412016244048544220000008709061114513712017_);}
	.st513{fill:url(#XMLID_00000090977518223964478080000004945621188289103284_);}
	.st514{fill:url(#XMLID_00000092425140184612852910000018034692388192508095_);}
	.st515{fill:url(#XMLID_00000041256824444998412260000017695381366942190010_);}
	.st516{fill:url(#XMLID_00000164508199372265566990000001556237756177938340_);}
	.st517{fill:url(#XMLID_00000151512733706629323590000018106445446636199065_);}
	.st518{fill:url(#XMLID_00000145751622789693613950000001230654872187246983_);}
	.st519{fill:url(#XMLID_00000057134063722040287220000011810855782546647981_);}
	.st520{fill:url(#XMLID_00000083774880698607520710000017836050125410942368_);}
	.st521{fill:url(#XMLID_00000151502173080735332430000007564332221766483611_);}
	.st522{fill:url(#XMLID_00000069368164418546845980000007905630394766828986_);}
	.st523{fill:url(#XMLID_00000160187713362218278430000009248731969458491570_);}
	.st524{fill:url(#XMLID_00000115491256307751982430000007784833587168036504_);}
	.st525{fill:url(#XMLID_00000133499289980663487280000017469334359289716137_);}
	.st526{fill:url(#XMLID_00000149362701047518955220000013085611418800226441_);}
	.st527{fill:url(#XMLID_00000181773808903976304280000005028918386125382546_);}
	.st528{fill:url(#XMLID_00000159464952503065623740000003291080585072570509_);}
	.st529{fill:url(#XMLID_00000008144024681524312910000004775455361979101871_);}
	.st530{fill:url(#XMLID_00000154416753118661947350000008108921465143326652_);}
	.st531{fill:url(#XMLID_00000058552359086273470740000001675994909107253665_);}
	.st532{fill:url(#XMLID_00000047776634077151592680000002101234804725556648_);}
	.st533{fill:url(#XMLID_00000060738344503016400550000014940295619677514409_);}
	.st534{fill:url(#XMLID_00000001625856934368130390000003250153837693842579_);}
	.st535{fill:url(#XMLID_00000046321693388910739650000003424700575944102078_);}
	.st536{fill:url(#XMLID_00000086693772812859471020000003961626164830859935_);}
	.st537{fill:url(#XMLID_00000041979744209405867940000016387147346982737043_);}
	.st538{fill:url(#XMLID_00000033354846990121002630000000693164547730027669_);}
	.st539{fill:url(#XMLID_00000036227116884251608730000015921266911733232266_);}
	.st540{fill:url(#XMLID_00000177449789208345346650000008277198976871266207_);}
	.st541{fill:url(#XMLID_00000086650878688214213810000000056146393310080440_);}
	.st542{fill:url(#XMLID_00000020361589451318207830000015000266149196429963_);}
	.st543{fill:url(#XMLID_00000090283104551221365550000004282803640657230266_);}
	.st544{fill:url(#XMLID_00000092444251565652045180000016840558246209320865_);}
	.st545{fill:url(#XMLID_00000098914789375543243180000016495674505330103188_);}
	.st546{fill:url(#XMLID_00000130632301365899518180000010131992400104510600_);}
	.st547{fill:url(#XMLID_00000039102447378094117720000000882157522732125370_);}
	.st548{fill:url(#XMLID_00000140726585444059132490000002343206761731083695_);}
	.st549{fill:url(#XMLID_00000174596578100201853180000017586237956569669767_);}
	.st550{fill:url(#XMLID_00000181788973378794660330000007616317295210669729_);}
	.st551{fill:url(#XMLID_00000121963186478915623210000017081473276860176541_);}
	.st552{fill:url(#XMLID_00000038400962175999782600000007098419217059188403_);}
	.st553{fill:url(#XMLID_00000025416927694851936190000011856834422148221375_);}
	.st554{fill:url(#XMLID_00000179627317496000646100000001312511517909508509_);}
	.st555{fill:url(#XMLID_00000071531744430554921350000000326124014193892503_);}
	.st556{fill:url(#XMLID_00000109745604898608592540000007923441792068136111_);}
	.st557{fill:url(#XMLID_00000106105495704209986850000017471681981659601071_);}
	.st558{fill:url(#XMLID_00000151501448022810076700000009749791728138159544_);}
	.st559{fill:url(#XMLID_00000048480107211754232690000017809989125765754518_);}
	.st560{fill:url(#XMLID_00000114789659661456351220000014403317777187092368_);}
	.st561{fill:url(#XMLID_00000128486059387798738240000006602773541595952805_);}
	.st562{fill:url(#XMLID_00000124162841387854405030000010681633776794272907_);}
	.st563{fill:url(#XMLID_00000086688478357852507230000009127682900248628115_);}
	.st564{fill:url(#XMLID_00000176740305454556226800000006805545003185760167_);}
	.st565{fill:url(#XMLID_00000016786151956283465890000012055996499504570010_);}
	.st566{fill:url(#XMLID_00000031925973397858107820000000422732378150551477_);}
	.st567{fill:url(#XMLID_00000145048846807117545400000010956017812422126773_);}
	.st568{fill:url(#XMLID_00000103225335734655659820000013782449041304320138_);}
	.st569{fill:url(#XMLID_00000052087309949364858870000015191919746023732371_);}
	.st570{fill:url(#XMLID_00000079460359134805221770000007917765394839857313_);}
	.st571{fill:url(#XMLID_00000069375876713780783320000012854180420837199530_);}
	.st572{fill:url(#XMLID_00000112590824643646976500000001819549944703428511_);}
	.st573{fill:url(#XMLID_00000025439210219724149110000013066189985018284686_);}
	.st574{fill:url(#XMLID_00000169540290619034850440000004368062869931867048_);}
	.st575{fill:url(#XMLID_00000111904591504064371460000015973214564095868313_);}
	.st576{fill:url(#XMLID_00000160882228834545533850000013743855714273946018_);}
	.st577{fill:url(#XMLID_00000121964536678507518980000006620610573999395254_);}
	.st578{fill:url(#XMLID_00000137827223547944341390000015260932940101082286_);}
	.st579{fill:url(#XMLID_00000093888975327612644560000002489606500270810501_);}
	.st580{fill:url(#XMLID_00000168084539594883338460000010085412060779216054_);}
	.st581{fill:url(#XMLID_00000006669860184662052700000005708304787485555872_);}
	.st582{fill:url(#XMLID_00000064321449503981056110000008810218789544508862_);}
	.st583{fill:url(#XMLID_00000138532455149681990580000003055383457827230886_);}
	.st584{fill:url(#XMLID_00000083074638742474920040000006272363275008396734_);}
	.st585{fill:url(#XMLID_00000140703343245783643940000002016356709933035964_);}
	.st586{fill:url(#XMLID_00000066497535947751097330000014363456167043246989_);}
	.st587{fill:url(#XMLID_00000062171152744073749590000001874803378338568080_);}
	.st588{fill:url(#XMLID_00000138560187574063040540000011569948450630124976_);}
	.st589{fill:url(#XMLID_00000173119368790297111790000010763677496232874404_);}
	.st590{fill:url(#XMLID_00000170972240533258723010000007165886560786528672_);}
	.st591{fill:url(#XMLID_00000121247749424200852800000006782117987503606149_);}
	.st592{fill:url(#XMLID_00000116193971821114616910000005246987668134385339_);}
	.st593{fill:url(#XMLID_00000019671595470893572170000006362401135300677510_);}
	.st594{fill:url(#XMLID_00000023280742353993980340000008606131164680991878_);}
	.st595{fill:url(#XMLID_00000121976544425282890710000003448076283175230637_);}
	.st596{fill:url(#XMLID_00000025421327750535535540000010947819079352320937_);}
	.st597{fill:url(#XMLID_00000183230462278101002510000016754230329310348214_);}
	.st598{fill:#FCFDFF;}
	.st599{fill:#757576;}
	.st600{fill:#D4D3D3;}
	.st601{fill:#E2E4E0;}
	.st602{fill:#B5B4B4;}
	.st603{fill:#908F8A;}
	.st604{fill:#F6F6F5;}
	.st605{fill:#3E4046;}
	.st606{fill:#525557;}
	.st607{fill:#E1E2E2;}
	.st608{fill:#E8E9EA;}
	.st609{fill:#2B2E35;}
	.st610{fill:#64666B;}
	.st611{fill:url(#XMLID_00000135658472423697566590000015176243035881846417_);}
	.st612{fill:#F0F0F0;}
	.st613{fill:#757779;}
	.st614{fill:#191B22;}
	.st615{fill:#14181E;}
	.st616{fill:#11141A;}
	.st617{fill:#DAEBE7;}
	.st618{fill:#7F8082;}
	.st619{fill:#A7B3B4;}
	.st620{fill:#3C575C;}
	.st621{fill:#CED6D6;}
	.st622{fill:#1A3A66;}
	.st623{fill:#2887C4;}
	.st624{fill:#66C3D8;}
	.st625{fill:#07282F;}
	.st626{fill:#8B9B9D;}
	.st627{fill:#72888C;}
	.st628{fill:#7F1710;}
	.st629{fill:#C3253D;}
	.st630{fill:#D9648A;}
	.st631{fill:#A24817;}
	.st632{fill:#DAA802;}
	.st633{fill:#EEB219;}
	.st634{fill:#424242;}
	.st635{fill:#474646;}
	.st636{fill:#AAB545;}
	.st637{fill:#C17D11;}
	.st638{fill:#CACCD2;}
	.st639{fill:#B6BCC6;}
	.st640{fill:#353842;}
	.st641{fill:#585C64;}
	.st642{fill:#454852;}
	.st643{fill:#62656C;}
	.st644{fill:#72757B;}
	.st645{fill:#3A3D42;}
	.st646{fill:#494D53;}
	.st647{fill:#161A24;}
	.st648{fill:#4C4F58;}
	.st649{fill:#666970;}
	.st650{fill:#7F7F83;}
	.st651{fill:#383C40;}
	.st652{fill:#1E222B;}
	.st653{fill:url(#XMLID_00000011015630564415439410000009494429967111439036_);}
	.st654{fill:#3D4049;}
	.st655{fill:url(#XMLID_00000124141169396056772470000000736921636414789269_);}
	.st656{fill:#30333C;}
	.st657{fill:#474D57;}
	.st658{fill:#75787F;}
	.st659{fill:#2F7E9D;}
	.st660{fill:#6DC0B2;}
	.st661{fill:url(#XMLID_00000015320644734376774010000018372484333034496413_);}
	.st662{fill:#F1F8FA;}
	.st663{fill:url(#XMLID_00000109031863407599625660000016528905718425306803_);}
	.st664{fill:url(#XMLID_00000012448884458108235550000007405525843280470687_);}
	.st665{fill:#ECF6F9;}
	.st666{fill:url(#XMLID_00000106852836090721973810000003837977245240341642_);}
	.st667{fill:url(#XMLID_00000129919049545461881470000000530509614260380824_);}
	.st668{fill:#CFE4F1;}
	.st669{fill:#DADADA;}
	.st670{fill:#D32D16;}
	.st671{fill:#176581;}
	.st672{fill:#9ED1F2;}
	.st673{fill:#1B222D;}
	.st674{fill:#EBE9EA;}
	.st675{fill:#C9CED5;}
	.st676{fill:#E1E0E0;}
	.st677{fill:#E7E6E6;}
	.st678{fill:#E8E7E7;}
	.st679{fill:#BFCBDD;}
	.st680{fill:#9D958F;}
	.st681{fill:#FFDC04;}
	.st682{fill:#B21828;}
	.st683{fill:#D8408F;}
	.st684{fill:#574997;}
	.st685{fill:#356AB1;}
	.st686{fill:#45B3E7;}
	.st687{fill:#2D8A36;}
	.st688{fill:#D0CFD0;}
	.st689{fill:#98A88B;}
	.st690{fill:#F8E825;}
	.st691{fill:#CB1333;}
	.st692{fill:url(#XMLID_00000000193886561832303900000012617934181901796763_);}
	.st693{fill:#0B0E18;}
	.st694{fill:#40424A;}
	.st695{fill:url(#XMLID_00000054975236094526421720000003509483576558037182_);}
	.st696{fill:#71757D;}
	.st697{fill:#C2C2C4;}
	.st698{fill:url(#XMLID_00000139976892683481194670000009088986532814577294_);}
	.st699{fill:#9DA094;}
	.st700{fill:#D4D4D4;}
	.st701{fill:url(#XMLID_00000157306611228072828320000000870813549331990203_);}
	.st702{fill:url(#XMLID_00000006704644288926163770000015169262620544050596_);}
	.st703{fill:#E8E8E8;}
	.st704{fill:#15120B;}
	.st705{fill:#4C4842;}
	.st706{fill:#74AEDF;}
	.st707{fill:#413D3F;}
	.st708{fill:#48494A;}
	.st709{fill:#080504;}
	.st710{fill:#4E4D4D;}
	.st711{fill:#A1A0A0;}
	.st712{fill:#FBEEF5;}
	.st713{fill:#BFBEBE;}
	.st714{fill:#015A64;}
	.st715{fill:#B81818;}
	.st716{fill:#8C811D;}
	.st717{fill:#03709B;}
	.st718{fill:#E74B1E;}
	.st719{fill:#F2B000;}
	.st720{fill:#E33335;}
	.st721{fill:#F8F09C;}
	.st722{fill:#FAEF81;}
	.st723{fill:#E7A8CB;}
	.st724{fill:#CD90BE;}
	.st725{fill:#847A73;}
	.st726{fill:#CCCBCB;}
	.st727{fill:#EDECEC;}
	.st728{fill:#9D9D9D;}
	.st729{fill:#EFEFEF;}
	.st730{fill:#4F525A;}
	.st731{fill:#E15C48;}
	.st732{fill:url(#XMLID_00000114060648612867653840000000637806583768563135_);}
	.st733{fill:url(#XMLID_00000057125582165158097910000009282456614275149450_);}
	.st734{fill:url(#XMLID_00000098931115752228662270000016788737418811843478_);}
	.st735{fill:url(#XMLID_00000053534170432313191970000018046937889976215431_);}
	.st736{fill:url(#XMLID_00000134960808795488544910000009896655863630544779_);}
	.st737{fill:#9E9D9D;}
	.st738{fill:#9DCBEF;}
	.st739{fill:#010000;}
	.st740{fill:url(#SVGID_00000034768348824396355190000008519497968228374931_);}
	.st741{fill:url(#SVGID_00000080199224841828899870000017516197445812845199_);}
	.st742{fill:url(#SVGID_00000030456877074767897240000002807264313792598967_);}
	.st743{fill:#D2D2D2;}
	.st744{fill:#232C35;}
	.st745{fill:#E39470;}
	.st746{fill:url(#XMLID_00000162347806418403551820000010443548404420354693_);}
	.st747{fill:#9DA6AC;}
	.st748{fill:#72979F;}
	.st749{fill:#96A1AB;}
	.st750{fill:#5F7887;}
	.st751{fill:#CC1B31;}
	.st752{fill:url(#XMLID_00000050628707960017625660000011582604096231724985_);}
	.st753{fill:url(#XMLID_00000115512272532738508180000001274489176579764375_);}
	.st754{fill:url(#XMLID_00000107566709272132179950000016696449084752650371_);}
	.st755{fill:#C0C4B6;}
	.st756{fill:#CEE8EC;}
	.st757{fill:url(#XMLID_00000050631368999376135040000017967363225330217364_);}
	.st758{fill:url(#XMLID_00000132084274121581001760000009976177311380611490_);}
	.st759{fill:#384C5A;}
	.st760{fill:url(#XMLID_00000018228580427150321440000009850895798472649123_);}
	.st761{fill:#ED9E02;}
	.st762{fill:#FFE253;}
	.st763{fill:#F7C318;}
	.st764{fill:#DDB988;}
	.st765{fill:#D2A37C;}
	.st766{fill:#C98666;}
	.st767{fill:#2C7EAE;}
	.st768{fill:#A61916;}
	.st769{fill:#E6704B;}
	.st770{fill:#DF3118;}
	.st771{fill:#00648A;}
	.st772{fill:#4CB0E4;}
	.st773{fill:#2178BD;}
	.st774{fill:#058A38;}
	.st775{fill:#6EB761;}
	.st776{fill:#4DAD3C;}
	.st777{fill:#283373;}
	.st778{fill:#4A60A8;}
	.st779{fill:#274394;}
	.st780{fill:#49267F;}
	.st781{fill:#7C559E;}
	.st782{fill:#693D8F;}
	.st783{fill:#871D6C;}
	.st784{fill:#C5569A;}
	.st785{fill:#CA1781;}
	.st786{fill:#2D1B1B;}
	.st787{fill:#8A5655;}
	.st788{fill:#734748;}
	.st789{fill:url(#XMLID_00000122717885159207832050000009284109145459913861_);}
	.st790{fill:#A3B5D1;}
	.st791{fill:#04559C;}
</style>
<g>
	<g>
		<path class="st0" d="M111.45,65.08c-34.79,4.38-69.99,4.38-104.78,0C3,64.59,0,61.14,0,57.48c0-15.53,0-31.06,0-46.59
			c0-3.66,3-7.12,6.68-7.6c34.79-4.38,69.99-4.38,104.78,0c3.67,0.48,6.68,3.93,6.68,7.6c0,15.53,0,31.06,0,46.59
			C118.13,61.14,115.13,64.59,111.45,65.08z"/>
	</g>
	<g>
		<path class="st91" d="M108.62,12.55C98.48,9.5,80.13,8.18,61.01,8.18S18.89,19.48,8.75,22.52c-2.49,0.75-2.37,2.66-2.54,2.66
			L6.25,49.8c0.2,1.66-0.06,2.9,1.31,3.74c5.75,3.52,16.68,6.13,27.65,6.13c11.33,0,19.9-0.51,27.95-1.16
			c-8.01,1.33-16.55,2.58-27.81,2.58c-10.9,0-21.54-3.03-27.48-6.13c-1.79-0.93-1.69-2.14-1.69-3.74c0,2.12-0.02,3.24,1.16,4.12
			c5.72,4.26,17.79,7.64,28.36,7.64c18.76,0,33.9-4.84,49.21-6.29c1.92-0.13,3.9-0.26,5.97-0.37c0.69-0.02,1.38-0.05,2.07-0.05
			c1.35,0,2.61,0.03,3.78,0.08c1.84,0.09,3.75,0.23,5.47,0.39c1.82,0.18,3.27,0.35,4.37,0.44c0.01,0,0.02,0,0.03,0
			c0.04,0,0.08,0,0.12,0.01c0.02,0,0.04,0,0.06,0c0.32,0.03,0.62,0.04,0.91,0.04c0.01,0,0.03,0,0.04,0c0.02,0,0.03,0,0.05,0
			c0.17,0,0.34-0.01,0.5-0.03c0.15-0.01,0.28-0.03,0.42-0.06c0.04-0.01,0.08-0.02,0.12-0.02c0.18-0.04,0.35-0.08,0.51-0.14l0,0
			c0.17-0.06,0.33-0.12,0.48-0.2c1.75-0.89,2.21-2.95,2.21-5.12V16.96C112.03,14.61,111.11,13.3,108.62,12.55"/>
		<path class="st92" d="M108.62,12.55C98.48,9.5,80.13,8.18,61.01,8.18S18.89,19.48,8.75,22.52c-2.49,0.75-2.37,2.66-2.54,2.66
			L6.25,49.8c0.2,1.66-0.06,2.9,1.31,3.74c5.75,3.52,16.68,6.13,27.65,6.13c11.33,0,19.9-0.51,27.95-1.16
			c-8.01,1.33-16.55,2.58-27.81,2.58c-10.9,0-21.54-3.03-27.48-6.13c-1.79-0.93-1.69-2.14-1.69-3.74c0,2.12-0.02,3.24,1.16,4.12
			c5.72,4.26,17.79,7.64,28.36,7.64c18.76,0,33.9-4.84,49.21-6.29c1.92-0.13,3.9-0.26,5.97-0.37c0.69-0.02,1.38-0.05,2.07-0.05
			c1.35,0,2.61,0.03,3.78,0.08c1.84,0.09,3.75,0.23,5.47,0.39c1.82,0.18,3.27,0.35,4.37,0.44c0.01,0,0.02,0,0.03,0
			c0.04,0,0.08,0,0.12,0.01c0.02,0,0.04,0,0.06,0c0.32,0.03,0.62,0.04,0.91,0.04c0.01,0,0.03,0,0.04,0c0.02,0,0.03,0,0.05,0
			c0.17,0,0.34-0.01,0.5-0.03c0.15-0.01,0.28-0.03,0.42-0.06c0.04-0.01,0.08-0.02,0.12-0.02c0.18-0.04,0.35-0.08,0.51-0.14l0,0
			c0.17-0.06,0.33-0.12,0.48-0.2c1.75-0.89,2.21-2.95,2.21-5.12V16.96C112.03,14.61,111.11,13.3,108.62,12.55z"/>
		<path class="st91" d="M6.25,49.8c0.2,1.66-0.06,2.9,1.31,3.74c5.75,3.52,16.68,6.13,27.65,6.13c24.06,0,35.73-2.31,56.24-3.37
			c4.17-0.22,12.03,0.52,15.16,0.89c4.46,0.53,5.42-2.39,5.42-5.52V16.96c0-2.35-0.91-3.66-3.4-4.41
			C98.48,9.5,80.13,8.18,61.01,8.18S18.89,19.48,8.75,22.52c-2.49,0.75-2.37,2.66-2.54,2.66L6.25,49.8z"/>
		<path class="st0" d="M5.9,51.22c0,1.6,0.17,2.81,1.96,3.74c5.95,3.1,16.58,6.13,27.48,6.13c23.92,0,35.55-5.66,55.96-5.66
			c3.73,0,11.3,0.74,14.86,1.23c3.79,0.52,5.07-0.58,5.07-3.57V18.61c0-2.35-0.44-3.66-2.92-4.41c-10.08-3.05-30.75-5.83-49.75-5.83
			c-19,0-39.67,2.78-49.75,5.83c-2.48,0.75-2.92,2.06-2.92,4.41V51.22z"/>
		<path class="st91" d="M6.05,53.26c0.18,0.9,0.55,1.54,1.28,2.08c5.72,4.26,17.79,7.64,28.36,7.64c22.03,0,39.07-6.7,57.25-6.7
			c7.67,0,12.53,0.96,14.78,0.96c2.08,0,3.51-0.94,3.51-3.26v-0.9c0,2.99-1.27,4.09-5.07,3.57c-3.57-0.49-11.14-1.23-14.86-1.23
			c-20.41,0-32.04,5.66-55.96,5.66c-10.9,0-21.54-3.03-27.48-6.13c-0.94-0.49-1.44-1.06-1.69-1.73L6.05,53.26z"/>
		<path class="st91" d="M67.18,38.25c0-1.78-0.15-2.03-2.14-2.03c-0.73,0-2.02,0.06-2.76,0.13c0.14,1.59,0.14,4.29,0.14,5.66v9.33
			c0,1.78,0.15,2.03,2.14,2.03c0.73,0,2.02-0.06,2.76-0.13c-0.14-1.59-0.14-4.29-0.14-5.66V38.25z"/>
		<path class="st91" d="M14.88,32.34c0,1.78,0.15,2.03,2.14,2.03c0.73,0,2.02-0.06,2.76-0.13c-0.14-1.59-0.14-4.29-0.14-5.66v-0.69
			h3.53c2.03,0,2.45-1.28,2.64-3.26h-6.17v-4.01h4.54c2.03,0,2.45-1.28,2.64-3.26H14.74c0.14,1.59,0.14,4.29,0.14,5.66V32.34z"/>
		<path class="st91" d="M69.67,39.62h4.07v11.73c0,1.78,0.15,2.03,2.14,2.03c0.73,0,2.02-0.06,2.76-0.13
			c-0.14-1.59-0.14-4.29-0.14-5.66v-7.97h3.13c2.03,0,2.45-1.28,2.65-3.26H68.92v2.44C68.92,39.36,69.11,39.62,69.67,39.62"/>
		<path class="st91" d="M95.74,27.24h3.53c2.03,0,2.45-1.28,2.64-3.26h-6.17v-3.36h4.54c2.03,0,2.45-1.28,2.64-3.26H90.84
			c0.14,1.59,0.14,4.29,0.14,5.66v11.23h9.3c2.03,0,2.45-1.28,2.64-3.26h-7.19V27.24z"/>
		<path class="st91" d="M43.33,53.25h2.32c1.89,0,2.33,0.05,2.95-1.63l0.52-1.4h6.14l0.52,1.4c0.62,1.69,1.06,1.63,2.95,1.63h2.93
			c-0.72-1.42-1.74-3.93-2.25-5.21l-4.73-11.69h-3.01c-1.03,0-1.51,0.09-2.1,1.57l-4.1,10.12c-0.2,0.5-0.48,1.2-0.79,1.94h-5.62
			V38.25c0-1.78-0.15-2.03-2.14-2.03c-0.73,0-2.02,0.06-2.76,0.13c0.14,1.59,0.14,4.29,0.14,5.66v11.23h6.2
			c1.72,0,2.91-0.8,3.6-1.94h0.05L43.33,53.25z M50.32,46.95l0.51-1.37c0.34-0.92,1.01-2.89,1.3-4.08h0.11
			c0.29,1.18,0.97,3.16,1.3,4.08l0.51,1.37H50.32z"/>
		<path class="st91" d="M56.1,29.04l-4.73-11.69h-3.01c-1.03,0-1.51,0.09-2.1,1.57l-4.1,10.12c-0.31,0.79-0.82,2.04-1.33,3.22
			c-0.65-0.86-1.24-1.77-1.82-2.75l-1.64-2.79c1.81-0.74,3.48-2.3,3.48-4.73c0-3.49-3.1-4.77-8.35-4.77c-1.16,0-3.45,0.06-4.83,0.13
			c0.14,1.59,0.14,4.29,0.14,5.66v9.33c0,1.78,0.15,2.03,2.14,2.03c0.73,0,2.02-0.06,2.76-0.13c-0.14-1.59-0.14-4.29-0.14-5.66
			v-0.85h0.64l2.07,3.92c1.08,2.05,2.19,2.91,4.25,2.91c0.74,0,2.04-0.13,2.84-0.31c1.86,0,2.3,0.04,2.92-1.63l0.52-1.4h6.14
			l0.52,1.4c0.62,1.69,1.06,1.63,2.95,1.63h2.93C57.63,32.82,56.61,30.31,56.1,29.04 M33.36,24.84c-0.15,0-0.67,0-0.78-0.01v-4.64
			c0.14,0,0.68-0.01,0.85-0.01c1.41,0,2.66,0.5,2.66,2.21C36.09,24.06,34.9,24.84,33.36,24.84 M47.01,27.95l0.51-1.37
			c0.34-0.92,1.01-2.89,1.3-4.08h0.11c0.29,1.18,0.97,3.16,1.3,4.08l0.51,1.37H47.01z"/>
		<path class="st91" d="M62.13,26.03c0-0.3-0.05-1.27-0.09-1.73h0.09c0.3,0.58,0.79,1.47,0.95,1.73l3.84,6.44
			c0.97,1.63,1.51,1.77,3.51,1.77h2.75c-0.14-1.59-0.14-4.29-0.14-5.66v-9.27c0-1.44-0.08-2.03-1.67-2.03c-0.6,0-1.4,0.02-2.09,0.07
			c0.14,1.59,0.14,4.29,0.14,5.66v3.01c0,0.3,0.05,1.27,0.09,1.73h-0.09c-0.3-0.58-0.79-1.47-0.95-1.73l-4.11-6.9
			c-0.97-1.63-1.51-1.77-3.51-1.77h-2.48c0.14,1.59,0.14,4.29,0.14,5.66v9.27c0,1.44,0.08,2.03,1.67,2.03c0.6,0,1.4-0.02,2.09-0.07
			c-0.14-1.59-0.14-4.29-0.14-5.66V26.03z"/>
		<path class="st91" d="M87.5,21.09c1.29,0,1.98-1.55,2.19-2.91c-1.42-0.73-3.34-1.15-5.1-1.15c-5.77,0-9.71,3.93-9.71,8.76
			c0,5.15,3.14,8.76,9.34,8.76c3.13,0,5.3-0.79,5.3-4.13c-1.46,0.45-2.55,0.76-4.17,0.76c-3.22,0-5.53-2.27-5.53-5.4
			c0-2.69,1.34-5.27,4.58-5.27C85.77,20.53,86.81,21.09,87.5,21.09"/>
		<path class="st91" d="M86.96,37.61c0.17,0,0.32,0,0.32-0.17c0-0.14-0.15-0.14-0.32-0.14h-0.37v0.31H86.96 M87.62,38.6h-0.4
			l-0.37-0.68h-0.26v0.68h-0.34v-1.61h0.79c0.35,0,0.56,0.11,0.56,0.49c0,0.28-0.16,0.42-0.37,0.44L87.62,38.6z M88.05,37.79
			c0-0.68-0.49-1.13-1.16-1.13c-0.68,0-1.16,0.45-1.16,1.13c0,0.69,0.48,1.14,1.16,1.14C87.56,38.93,88.05,38.48,88.05,37.79
			 M85.32,37.79c0-0.85,0.7-1.53,1.57-1.53c0.87,0,1.57,0.68,1.57,1.53c0,0.85-0.7,1.54-1.57,1.54
			C86.02,39.33,85.32,38.65,85.32,37.79"/>
	</g>
</g>
</svg>
