<?xml version="1.0" encoding="utf-8"?>
<!-- Generator: Adobe Illustrator 26.0.2, SVG Export Plug-In . SVG Version: 6.00 Build 0)  -->
<svg version="1.1" id="Calque_1" xmlns="http://www.w3.org/2000/svg" xmlns:xlink="http://www.w3.org/1999/xlink" x="0px" y="0px"
	 viewBox="0 0 77.49 65.49" style="enable-background:new 0 0 77.49 65.49;" xml:space="preserve">
<style type="text/css">
	.st0{fill:#FFFFFF;}
	.st1{opacity:0.35;fill:url(#SVGID_1_);}
	.st2{opacity:0.35;}
	.st3{opacity:0.25;fill:url(#SVGID_00000098220849583540787740000003505719941365608324_);}
	.st4{opacity:0.27;fill:url(#SVGID_00000027569100589776269540000002079866753983200180_);}
	.st5{opacity:0.17;fill:url(#SVGID_00000135660560348251465340000000498935482793266850_);}
	.st6{opacity:0.62;fill:url(#SVGID_00000106126438491954295430000016470896705136570529_);}
	.st7{opacity:0.37;fill:url(#SVGID_00000127727343778725257460000013331437963781932188_);}
	.st8{opacity:0.47;fill:url(#SVGID_00000031167729640288402360000008412936298076710281_);}
	.st9{opacity:0.47;fill:url(#SVGID_00000128446964511138109630000010081268758177468340_);}
	.st10{opacity:0.47;fill:url(#SVGID_00000093871909020801881060000006210514782215704206_);}
	.st11{opacity:0.48;fill:url(#SVGID_00000130613289184550696790000005002419194304180126_);}
	.st12{opacity:0.48;fill:url(#SVGID_00000130649292937509494500000002027465471087663238_);}
	.st13{opacity:0.4;fill:url(#SVGID_00000097476623202673157040000008009096477116637324_);}
	.st14{fill:#3A63A4;}
	.st15{fill:#CCD35F;}
	.st16{fill:#4B4392;}
	.st17{fill:#2CA696;}
	.st18{fill:#D71158;}
	.st19{fill:#F9BB5A;}
	.st20{fill:#EFB349;}
	.st21{fill:#EC6C44;}
	.st22{fill:#25B1A2;}
	.st23{fill:#CB3580;}
	.st24{fill:#F8DC91;}
	.st25{fill:#C2367E;}
	.st26{fill:#289BB9;}
	.st27{fill:#CC1640;}
	.st28{fill:#4069A8;}
	.st29{fill:#EF8054;}
	.st30{fill:#1B9361;}
	.st31{fill:#1E9CC0;}
	.st32{fill:#8E4794;}
	.st33{fill:#F9B958;}
	.st34{fill:#DF0C1A;}
	.st35{fill:#002D74;}
	.st36{fill:#0069A8;}
	.st37{fill:#15A3DD;}
	.st38{fill:#19A3DD;}
	.st39{fill-rule:evenodd;clip-rule:evenodd;fill:#4AA334;}
	.st40{fill-rule:evenodd;clip-rule:evenodd;fill:#FFFFFF;}
	.st41{fill:#263780;}
	.st42{fill:url(#SVGID_00000035509679663037605330000017479908414308609453_);}
	.st43{fill:url(#SVGID_00000023267663064223025670000004698211608684960428_);}
	.st44{fill:url(#SVGID_00000158005028632850060130000007002228312177345204_);}
	.st45{fill:url(#SVGID_00000003096244999465388820000016600800740003298202_);}
	.st46{fill:url(#SVGID_00000036935987718321131940000008348539833621860026_);}
	.st47{fill:url(#SVGID_00000013888902501927020910000008371837948708807863_);}
	.st48{fill:#AFB6BD;}
	.st49{fill:#31295C;}
	.st50{fill:url(#SVGID_00000130607057648536524870000013144990135643768997_);}
	.st51{fill:url(#SVGID_00000137812518978968489420000007524574337243730587_);}
	.st52{fill:url(#SVGID_00000089533313797123028590000010568030171983831174_);}
	.st53{fill:url(#SVGID_00000001662643716989034500000012314308013772027563_);}
	.st54{fill:url(#SVGID_00000070806310951896180920000018228218655772157068_);}
	.st55{fill:url(#SVGID_00000109007538017094568660000017889157071500375191_);}
	.st56{fill:url(#SVGID_00000004535072301468896620000001062395612562027450_);}
	.st57{fill:url(#SVGID_00000045577820108296561860000008625372186843234215_);}
	.st58{fill:url(#SVGID_00000172403858761328158450000006273979143018578341_);}
	.st59{fill:url(#SVGID_00000080909270893926701110000006207490722294327992_);}
	.st60{fill:url(#SVGID_00000120537716856628730340000013133754857183714455_);}
	.st61{fill:url(#SVGID_00000090266899163283623320000016444145873337814418_);}
	.st62{fill:url(#SVGID_00000031888668801683988770000007296045726687883186_);}
	.st63{fill:url(#SVGID_00000070090486630655352530000017170360734800553352_);}
	.st64{fill:#312782;}
	.st65{fill:#6461A8;}
	.st66{fill:#747473;}
	.st67{fill:#CAC9C9;}
	.st68{fill-rule:evenodd;clip-rule:evenodd;fill:#D81A16;stroke:#1D1D1B;stroke-width:0.25;stroke-miterlimit:10;}
	.st69{fill:none;stroke:#1D1D1B;stroke-width:0.25;stroke-miterlimit:10;}
	.st70{fill:#12110C;}
	.st71{fill:#1D1D1B;}
	.st72{fill:#EF8328;}
	.st73{fill:url(#SVGID_00000029758145914510187790000005269291518494526361_);}
	.st74{fill:url(#SVGID_00000116925431043301186760000006051873096504211903_);}
	.st75{fill:url(#SVGID_00000162320620592093678290000011236649431673894839_);}
	.st76{fill:url(#SVGID_00000114777001074938952710000005130048978873919663_);}
	.st77{opacity:0.6;}
	.st78{fill:url(#SVGID_00000140011076200512350210000003831720844586601124_);}
	.st79{fill:url(#SVGID_00000157294926404545279050000002099031878801767822_);}
	.st80{fill:url(#SVGID_00000178906814854725441940000012949048567297932182_);}
	.st81{fill:url(#SVGID_00000018931109579510723190000004063192075902446242_);}
	.st82{fill:url(#SVGID_00000153663943522414002840000003217529832985961652_);}
	.st83{fill:url(#SVGID_00000123400004236781916720000000142839282340411520_);}
	.st84{fill:url(#SVGID_00000065039284344075269440000015807130302790310287_);}
	.st85{fill:url(#SVGID_00000129905861085606050520000008969109140318636932_);}
	.st86{fill:url(#SVGID_00000164472621130040187710000006396901012354081435_);}
	.st87{fill:url(#SVGID_00000049183193302505877870000009535805520914432697_);}
	.st88{fill:url(#SVGID_00000154418378789801395490000001542332061984707256_);}
	.st89{fill:url(#SVGID_00000122683800496255915880000018328323598581324937_);}
	.st90{fill:url(#SVGID_00000093857953748320448770000008625616487615677325_);}
	.st91{fill:#001689;}
	.st92{fill:none;stroke:#001689;stroke-width:0.881;stroke-linecap:round;stroke-linejoin:round;stroke-miterlimit:10;}
	.st93{fill:#0047BA;}
	.st94{fill:#253D90;}
	.st95{fill:#FFDC00;}
	.st96{fill:#0556A3;}
	.st97{fill:#0369B2;}
	.st98{fill:#5DC3F0;}
	.st99{fill:#DF162E;}
	.st100{fill:#39A7DF;}
	.st101{fill:#1B71B6;}
	.st102{fill-rule:evenodd;clip-rule:evenodd;fill:url(#XMLID_00000003791559115728495130000002338434889793105796_);}
	.st103{fill-rule:evenodd;clip-rule:evenodd;fill:url(#XMLID_00000106834931539276533690000006139410456848949159_);}
	.st104{fill:#91BF25;}
	.st105{fill:#FFDA05;}
	.st106{fill:#E00F1A;}
	.st107{fill-rule:evenodd;clip-rule:evenodd;fill:#213A7B;}
	.st108{fill-rule:evenodd;clip-rule:evenodd;}
	.st109{fill-rule:evenodd;clip-rule:evenodd;fill:#E20C30;}
	.st110{fill:#2B7DB9;}
	.st111{fill:#43AC51;}
	.st112{fill-rule:evenodd;clip-rule:evenodd;fill:#034A91;}
	.st113{fill:#005891;}
	.st114{fill:#E3283B;}
	.st115{fill:#004A93;}
	.st116{fill-rule:evenodd;clip-rule:evenodd;fill:#004A93;}
	.st117{fill-rule:evenodd;clip-rule:evenodd;fill:#FFEA20;}
	.st118{fill-rule:evenodd;clip-rule:evenodd;fill:#DF101C;}
	.st119{fill:#2997D4;}
	.st120{fill:#F18A00;}
	.st121{fill:#09111D;}
	.st122{fill:#A72136;}
	.st123{fill:url(#SVGID_00000035503788663517815650000008977075095706371727_);}
	.st124{fill:url(#SVGID_00000018938531656922736780000009058380371796706461_);}
	.st125{fill:url(#SVGID_00000006667818769592624320000000552168391778621630_);}
	.st126{fill:url(#SVGID_00000180341920770530351160000016137613059139533471_);}
	.st127{fill:url(#SVGID_00000075148631798690531370000004417215736000044695_);}
	.st128{fill:url(#SVGID_00000029027412511764401870000016236026937302059920_);}
	.st129{fill:url(#SVGID_00000134221357569276697030000007688049529336141492_);}
	.st130{fill:url(#SVGID_00000080887747657463666040000007182915427709368202_);}
	.st131{fill:#2D2F34;}
	.st132{fill:url(#SVGID_00000044894422581796781110000013267456624589025961_);}
	.st133{fill:url(#SVGID_00000016762808823201701730000009307387061321364117_);}
	.st134{fill:url(#SVGID_00000133486855533951319220000016959876184830430645_);}
	.st135{fill:url(#SVGID_00000031919240452703876800000012319990299674073775_);}
	.st136{fill:#003DA6;}
	.st137{fill-rule:evenodd;clip-rule:evenodd;fill:#0E579F;stroke:#FFFFFF;stroke-width:1.0001;stroke-miterlimit:2.6131;}
	.st138{fill-rule:evenodd;clip-rule:evenodd;fill:#FFFFFF;stroke:#FFFFFF;stroke-width:0.216;stroke-miterlimit:2.6131;}
	.st139{fill:#1766AD;}
	.st140{fill:#7EB828;}
	.st141{fill:#0D9E39;}
	.st142{fill:#7CB62C;}
	.st143{fill-rule:evenodd;clip-rule:evenodd;fill:#00A0DF;}
	
		.st144{clip-path:url(#SVGID_00000055693278385159551940000002057218444194019208_);fill-rule:evenodd;clip-rule:evenodd;fill:#8CCFF1;}
	
		.st145{clip-path:url(#SVGID_00000055693278385159551940000002057218444194019208_);fill-rule:evenodd;clip-rule:evenodd;fill:#C3E4F5;}
	
		.st146{clip-path:url(#SVGID_00000055693278385159551940000002057218444194019208_);fill-rule:evenodd;clip-rule:evenodd;fill:#FFFFFF;}
	.st147{clip-path:url(#SVGID_00000055693278385159551940000002057218444194019208_);}
	.st148{fill:#83CEEA;}
	.st149{fill-rule:evenodd;clip-rule:evenodd;fill:#65B2E8;}
	.st150{fill-rule:evenodd;clip-rule:evenodd;fill:#0C68AE;}
	.st151{fill-rule:evenodd;clip-rule:evenodd;fill:#00205C;}
	.st152{fill:#00A0DF;}
	.st153{fill:#00205C;}
	.st154{clip-path:url(#SVGID_00000127024906776410765750000003979209791708421763_);}
	.st155{fill:#29A43B;}
	.st156{fill:#BFE1F4;}
	.st157{fill:#D2E9F7;}
	.st158{fill:#444592;}
	.st159{fill:#BBA26A;}
	.st160{fill:#ACB217;}
	.st161{fill:url(#SVGID_00000028322762657853068770000001546643826818388901_);}
	.st162{fill-rule:evenodd;clip-rule:evenodd;fill:#211F1F;}
	.st163{fill:url(#SVGID_00000083066706238791831940000016031975802912507010_);}
	.st164{fill:url(#SVGID_00000042737293403322697110000009199580636355088551_);}
	.st165{fill:url(#SVGID_00000129181287561275749820000005179675971408484268_);}
	.st166{fill:url(#SVGID_00000141425507215607389690000010263406833121792696_);}
	.st167{fill:url(#SVGID_00000057117728406215267200000010690345332648418730_);}
	.st168{fill:url(#SVGID_00000141424379915780073110000010179524562441684925_);}
	.st169{fill:url(#SVGID_00000016069238198189627400000010212755302490757254_);}
	.st170{fill:url(#SVGID_00000109021663844637966750000004107147278908848040_);}
	.st171{fill:url(#SVGID_00000115478358049726230870000001482069242765029553_);}
	.st172{fill:url(#SVGID_00000012465691335104958710000007621504429982948486_);}
	.st173{fill:url(#SVGID_00000093887571308822035080000004186970340023735464_);}
	.st174{fill:url(#SVGID_00000168819401370321069760000013835793402900392092_);}
	.st175{fill:url(#SVGID_00000179647614523070212530000004304646481533707934_);}
	.st176{fill:url(#SVGID_00000020361332324358798990000003970966253396326277_);}
	.st177{fill:url(#SVGID_00000052091771886918977600000011274985302251130026_);}
	.st178{fill:url(#SVGID_00000066495601138497134590000013907614287436411290_);}
	.st179{fill:url(#SVGID_00000029724899123146883130000008076648898248751252_);}
	.st180{fill:url(#SVGID_00000142871940378576134790000005567481662035980215_);}
	.st181{fill:url(#SVGID_00000062889053862154217430000001360397000949819831_);}
	.st182{fill:url(#SVGID_00000091002756247778973440000016042274406797907104_);}
	.st183{fill:url(#SVGID_00000097492804286320054890000015625458719808836493_);}
	.st184{fill:url(#SVGID_00000171712520239689032800000004045137607646382743_);}
	.st185{fill:url(#SVGID_00000045603310691902420580000001529846132636011413_);}
	.st186{fill:url(#SVGID_00000134963847796506320650000011657033013570727043_);}
	.st187{fill:url(#SVGID_00000095329847492658022320000006650377666740210833_);}
	.st188{fill:url(#SVGID_00000116196868330109730610000006578255823939869343_);}
	
		.st189{clip-path:url(#SVGID_00000142866085828022093630000004653032312790345345_);fill:url(#SVGID_00000083046971828186358040000017007275253421644724_);}
	.st190{fill:url(#SVGID_00000152986831485373192060000000877544150458895776_);}
	.st191{fill:url(#SVGID_00000095322317139632715410000000435694753358835107_);}
	.st192{fill:url(#SVGID_00000021812014272113475170000018084364852249563812_);}
	.st193{fill:url(#SVGID_00000165918716482956865240000003311342536356202428_);}
	.st194{fill-rule:evenodd;clip-rule:evenodd;fill:url(#SVGID_00000018228947556839380790000014071519461425853876_);}
	.st195{fill:#F6F0F3;}
	.st196{fill:#F8F4F6;}
	.st197{fill:#FFFCFD;}
	.st198{fill:#0F4D80;}
	.st199{fill:#2F93D1;}
	.st200{display:none;}
	.st201{display:inline;fill:#0F4D80;}
	.st202{display:inline;fill:#2F93D1;}
	.st203{display:inline;fill:#FFFFFF;}
	.st204{opacity:0.3;}
	.st205{fill:#65A1D7;}
	.st206{fill:#E63922;}
	.st207{fill:#33712F;}
	.st208{fill:#509BD5;}
	.st209{fill:#2C88C7;}
	.st210{fill:#A9DBF7;}
	.st211{fill:#EEB68A;}
	.st212{fill:#FBD3AD;}
	.st213{fill:#270C12;}
	.st214{fill:#230A10;}
	.st215{fill:#A2403B;}
	.st216{fill:#C1665D;}
	.st217{fill:#DFECF8;}
	.st218{fill:#411017;}
	.st219{fill:#262626;}
	.st220{opacity:0.47;}
	.st221{fill:#FAD8D5;}
	.st222{fill:#FBE1DE;}
	.st223{fill:#EA808C;}
	.st224{fill:#C9E7F7;}
	.st225{fill:#E5F3FD;}
	.st226{fill:#FDEEEE;}
	.st227{fill:#F7C7C9;}
	.st228{fill:#ECF6F7;}
	.st229{fill:#A0D0F1;}
	.st230{fill:#97C7EC;}
	.st231{fill:#9ECFF1;}
	.st232{fill:#E8F4F6;}
	.st233{fill:#BEE3F5;}
	.st234{fill:#D7EDF6;}
	.st235{fill:#ED705B;}
	.st236{fill:#F9C9BA;}
	.st237{fill:#8BC5EC;}
	.st238{fill:#F5AC9B;}
	.st239{fill:#F1907E;}
	.st240{fill:#D6EDF6;}
	.st241{fill:#4B8739;}
	.st242{fill:#F39B8B;}
	.st243{fill:#C5D4E1;}
	.st244{fill:#F29A9C;}
	.st245{fill:#3C3C3B;}
	.st246{fill:#EE808D;}
	.st247{fill:#187FB9;}
	.st248{fill:#2EA8E0;}
	.st249{fill:#80CEF4;}
	.st250{fill:#BDE3F6;}
	.st251{fill:#EA5B2B;}
	.st252{fill:#E73F2F;}
	.st253{opacity:0.26;fill:#D3B0D4;}
	.st254{fill:url(#SVGID_00000002364436268082527040000000549151226871022505_);}
	.st255{fill:#B7553B;}
	.st256{fill:#E63924;}
	.st257{fill:#441943;}
	.st258{fill:#281028;}
	.st259{fill:#8BCAB9;}
	.st260{fill:#D9271B;}
	.st261{fill:#FCE7E5;}
	.st262{fill:#A9D7CF;}
	.st263{fill:url(#SVGID_00000014612500424958387370000010146219361231744183_);}
	.st264{fill:url(#SVGID_00000023983091719565436190000011479799375818885773_);}
	.st265{fill:url(#SVGID_00000002364842435859804450000006583231510261485462_);}
	.st266{opacity:0.26;fill:#A2403B;}
	.st267{fill:#6E4594;}
	.st268{fill:#B65650;}
	.st269{fill:url(#SVGID_00000030464700250200136050000003123828365712330395_);}
	.st270{fill:#454545;}
	.st271{fill:#A7D9F5;}
	.st272{fill:#24212E;}
	.st273{fill:#6D1B0F;}
	.st274{fill:#3E4055;}
	.st275{fill:#3E4052;}
	.st276{fill:#77491E;}
	.st277{fill:#474A5E;}
	.st278{fill:#24222D;}
	.st279{fill:#D6D6D6;}
	.st280{fill:#F8C6BD;}
	.st281{fill:#3F292A;}
	.st282{fill:#E7E8EC;}
	.st283{fill:#F9D3CA;}
	.st284{fill:#E9B9A6;}
	.st285{fill:#0E0C09;}
	.st286{fill:#CCDADA;}
	.st287{fill:#EDBDAA;}
	.st288{fill:#535459;}
	.st289{fill:#929497;}
	.st290{fill:#3164AC;}
	.st291{fill:#D53939;}
	.st292{fill:#313134;}
	.st293{fill:url(#SVGID_00000034089548415013588050000007168031790396694971_);}
	.st294{fill:url(#SVGID_00000029731222655317223860000010732224544662976692_);}
	.st295{fill:url(#SVGID_00000082345602118959949760000004951045852252300936_);}
	.st296{fill:#E6E7E7;}
	.st297{clip-path:url(#SVGID_00000124875887755490292540000016437524450155623084_);}
	.st298{fill:#F7F6F6;}
	.st299{fill:#0E4D80;}
	.st300{opacity:0.31;}
	.st301{opacity:0;}
	.st302{fill:#010100;}
	.st303{opacity:4.653465e-03;}
	.st304{opacity:9.306931e-03;}
	.st305{opacity:0.014;}
	.st306{opacity:0.0186;}
	.st307{opacity:0.0233;}
	.st308{opacity:0.0279;}
	.st309{opacity:0.0326;}
	.st310{opacity:0.0372;}
	.st311{opacity:0.0419;}
	.st312{opacity:0.0465;}
	.st313{opacity:0.0512;}
	.st314{opacity:0.0558;}
	.st315{opacity:0.0605;}
	.st316{opacity:0.0651;}
	.st317{opacity:0.0698;}
	.st318{opacity:0.0745;}
	.st319{opacity:0.0791;}
	.st320{opacity:0.0838;}
	.st321{opacity:0.0884;}
	.st322{opacity:0.0931;}
	.st323{opacity:0.0977;}
	.st324{opacity:0.1024;}
	.st325{opacity:0.107;}
	.st326{opacity:0.1117;}
	.st327{opacity:0.1163;}
	.st328{opacity:0.121;}
	.st329{opacity:0.1256;}
	.st330{opacity:0.1303;}
	.st331{opacity:0.135;}
	.st332{opacity:0.1396;}
	.st333{opacity:0.1443;}
	.st334{opacity:0.1489;}
	.st335{opacity:0.1536;}
	.st336{opacity:0.1582;}
	.st337{opacity:0.1629;}
	.st338{opacity:0.1675;}
	.st339{opacity:0.1722;}
	.st340{opacity:0.1768;}
	.st341{opacity:0.1815;}
	.st342{opacity:0.1861;}
	.st343{opacity:0.1908;}
	.st344{opacity:0.1954;}
	.st345{opacity:0.2001;}
	.st346{opacity:0.2048;}
	.st347{opacity:0.2094;}
	.st348{opacity:0.2141;}
	.st349{opacity:0.2187;}
	.st350{opacity:0.2234;}
	.st351{opacity:0.228;}
	.st352{opacity:0.2327;}
	.st353{opacity:0.2373;}
	.st354{opacity:0.242;}
	.st355{opacity:0.2466;}
	.st356{opacity:0.2513;}
	.st357{opacity:0.2559;}
	.st358{opacity:0.2606;}
	.st359{opacity:0.2652;}
	.st360{opacity:0.2699;}
	.st361{opacity:0.2746;}
	.st362{opacity:0.2792;}
	.st363{opacity:0.2839;}
	.st364{opacity:0.2885;}
	.st365{opacity:0.2932;}
	.st366{opacity:0.2978;}
	.st367{opacity:0.3025;}
	.st368{opacity:0.3071;}
	.st369{opacity:0.3118;}
	.st370{opacity:0.3164;}
	.st371{opacity:0.3211;}
	.st372{opacity:0.3257;}
	.st373{opacity:0.3304;}
	.st374{opacity:0.335;}
	.st375{opacity:0.3397;}
	.st376{opacity:0.3444;}
	.st377{opacity:0.349;}
	.st378{opacity:0.3537;}
	.st379{opacity:0.3583;}
	.st380{opacity:0.363;}
	.st381{opacity:0.3676;}
	.st382{opacity:0.3723;}
	.st383{opacity:0.3769;}
	.st384{opacity:0.3816;}
	.st385{opacity:0.3862;}
	.st386{opacity:0.3909;}
	.st387{opacity:0.3955;}
	.st388{opacity:0.4002;}
	.st389{opacity:0.4049;}
	.st390{opacity:0.4095;}
	.st391{opacity:0.4142;}
	.st392{opacity:0.4188;}
	.st393{opacity:0.4235;}
	.st394{opacity:0.4281;}
	.st395{opacity:0.4328;}
	.st396{opacity:0.4374;}
	.st397{opacity:0.4421;}
	.st398{opacity:0.4467;}
	.st399{opacity:0.4514;}
	.st400{opacity:0.456;}
	.st401{opacity:0.4607;}
	.st402{opacity:0.4653;}
	.st403{fill:url(#SVGID_00000176019228142724176470000014667742903484820149_);}
	.st404{fill:url(#SVGID_00000087373106800917029590000005867725664806629310_);}
	.st405{fill:url(#SVGID_00000011739414219961148390000002769056079086226334_);}
	.st406{fill:#C6A295;}
	.st407{fill:#EFC5B3;}
	.st408{fill:#121214;}
	.st409{fill:#BBBDBE;}
	.st410{fill:#863C13;}
	.st411{fill:#B96117;}
	.st412{fill:#EF8118;}
	.st413{fill:#BA5817;}
	.st414{fill:#6D6F71;}
	.st415{fill:#E21D26;}
	.st416{fill:#2C5E84;}
	.st417{fill:#9C251F;}
	.st418{fill:url(#SVGID_00000050661878098976526420000007420435413296184974_);}
	.st419{fill:#1C374E;}
	.st420{fill:#2B4E68;}
	.st421{opacity:0.3;fill:#121214;}
	.st422{fill:url(#SVGID_00000080191019882574771700000000511265585486999441_);}
	.st423{fill:url(#SVGID_00000146491748485013828580000004942865281814639497_);}
	.st424{fill:url(#SVGID_00000040572424107343796910000015801920193577129103_);}
	.st425{fill:url(#SVGID_00000132799390297607142570000010447863682895661227_);}
	.st426{fill:url(#SVGID_00000096753839178124183190000011675075925855489974_);}
	.st427{fill:url(#SVGID_00000041258731814877995450000014665730046907046820_);}
	.st428{fill:#0C0C0C;}
	.st429{fill:#603914;}
	.st430{fill:#E86821;}
	.st431{fill:#171717;}
	.st432{fill:#663F30;}
	.st433{fill:url(#SVGID_00000034811847536533583550000013513904712668677301_);}
	.st434{fill:url(#SVGID_00000030477900227418314890000004926194592667028612_);}
	.st435{fill:url(#SVGID_00000125565240552051499820000011832460139606839468_);}
	.st436{fill:url(#SVGID_00000042724379018635598470000005464374793309018766_);}
	.st437{fill:url(#SVGID_00000034064353801730249870000017045437408556331711_);}
	.st438{fill:url(#SVGID_00000087412543687635230960000004033215888691864501_);}
	.st439{fill:url(#SVGID_00000156582545216815888790000016679748181282843781_);}
	.st440{fill:url(#SVGID_00000168814186988946398700000015923496099336288675_);}
	.st441{fill:url(#SVGID_00000129920638120002425040000016916886511117293193_);}
	.st442{fill:url(#SVGID_00000160881845689938501360000013805613511602123687_);}
	.st443{fill:url(#SVGID_00000037652984522297469630000015460295492092107953_);}
	.st444{fill:url(#SVGID_00000033365636813032027270000014591586459803987100_);}
	.st445{fill:url(#SVGID_00000140006116039275299280000006415160030856616841_);}
	.st446{fill:url(#SVGID_00000008862837333044257940000006141940405035540925_);}
	.st447{fill:url(#SVGID_00000124133860760274255870000006669322235321316779_);}
	.st448{fill:url(#SVGID_00000101090488897210053590000009408197957200056450_);}
	.st449{fill:url(#SVGID_00000081616694087240081410000018267717304800403382_);}
	.st450{fill:url(#SVGID_00000008858926030699123780000007189820514175907217_);}
	.st451{fill:#B7B7B7;}
	.st452{fill:#112134;}
	.st453{fill:#414042;}
	.st454{fill:#221E20;}
	.st455{fill:#131313;}
	.st456{fill:#202020;}
	.st457{fill:#915E33;}
	.st458{fill:#57391E;}
	.st459{fill:#F39519;}
	.st460{fill:#F4B305;}
	.st461{fill:#C4C3C3;}
	.st462{fill:#A5A4A5;}
	.st463{fill:#888989;}
	.st464{fill:#242424;}
	.st465{fill:#6E4827;}
	.st466{opacity:0.1844;fill:#24222D;}
	.st467{fill:#A0A4BB;}
	.st468{opacity:0.1844;fill:#999AB6;}
	.st469{fill:#D9E3E3;}
	.st470{fill:#FAD5CB;}
	.st471{opacity:0.1844;fill:#24212E;}
	.st472{fill:#844013;}
	.st473{fill:#F8B777;}
	.st474{fill:#3576AB;}
	.st475{fill:#A2A1A1;}
	.st476{fill:#754C29;}
	.st477{fill:#B3DFF1;}
	.st478{fill:#80A5A5;}
	.st479{fill:#EAAE93;}
	.st480{fill:#00657E;}
	.st481{fill:#382E22;}
	.st482{fill:#157288;}
	.st483{fill:#A42916;}
	.st484{fill:#D43216;}
	.st485{fill:#E5A082;}
	.st486{fill:#B23318;}
	.st487{fill:#843E1E;}
	.st488{fill:#EDBEA8;}
	.st489{fill:#E94E49;}
	.st490{fill:#E3E4E3;}
	.st491{fill:#B9B9B9;}
	.st492{fill:#868787;}
	.st493{fill:url(#XMLID_00000087373936118053203370000015897965403417680046_);}
	.st494{fill:#989898;}
	.st495{fill:url(#XMLID_00000094596131755034089150000008426705108131111821_);}
	.st496{fill:#EEECEB;}
	.st497{fill:#D5D5D5;}
	.st498{fill:url(#XMLID_00000061453041265437359770000004358537211202988949_);}
	.st499{fill:url(#XMLID_00000035491105948959936840000008265793223038051743_);}
	.st500{fill:url(#XMLID_00000114046463888794707100000015246796359035193221_);}
	.st501{fill:url(#XMLID_00000131366795529054364970000013605402904890044850_);}
	.st502{fill:url(#XMLID_00000172399069448378398950000017521936597173153461_);}
	.st503{fill:url(#XMLID_00000167361445235880426550000017264733852863276672_);}
	.st504{fill:url(#XMLID_00000111187144673985893550000010733350778131668378_);}
	.st505{fill:url(#XMLID_00000067231061303537857500000005920296079114462612_);}
	.st506{fill:url(#XMLID_00000020378541581555161730000000749320302138325138_);}
	.st507{fill:url(#XMLID_00000142168023800495977770000015649432019388451211_);}
	.st508{fill:url(#XMLID_00000109724535504566734440000004774825672096364680_);}
	.st509{fill:url(#XMLID_00000152223641931732635390000005140678694790333576_);}
	.st510{fill:url(#XMLID_00000165216871929819667400000009122963328725640125_);}
	.st511{fill:url(#XMLID_00000052092104025516249850000002797959165778529673_);}
	.st512{fill:url(#XMLID_00000093175468150258648980000015517352751704534951_);}
	.st513{fill:url(#XMLID_00000013909752668695481140000015044417029424225208_);}
	.st514{fill:url(#XMLID_00000086652677437550058430000008519710781350146701_);}
	.st515{fill:url(#XMLID_00000177454191627550063660000002678222518660027542_);}
	.st516{fill:url(#XMLID_00000078762283085894730380000005121184248872341659_);}
	.st517{fill:url(#XMLID_00000018212281148657775700000009233939203972509372_);}
	.st518{fill:url(#XMLID_00000175286147839109778310000004134903587754711990_);}
	.st519{fill:url(#XMLID_00000034796049457432836080000009222218269431774639_);}
	.st520{fill:url(#XMLID_00000181087566481838292470000015097078474368319133_);}
	.st521{fill:url(#XMLID_00000107570323587011756100000001957449165164725178_);}
	.st522{fill:url(#XMLID_00000109026304513402879000000004770024793840957068_);}
	.st523{fill:url(#XMLID_00000142144098565266073610000005790962527621458841_);}
	.st524{fill:url(#XMLID_00000164488013252326176650000004055575765701136774_);}
	.st525{fill:url(#XMLID_00000054235188011901214680000003746531417445950359_);}
	.st526{fill:url(#XMLID_00000093148821471066546740000010440855444195118497_);}
	.st527{fill:url(#XMLID_00000116201782685407611560000013845163498570601895_);}
	.st528{fill:url(#XMLID_00000167363466625361532240000016473414053905526201_);}
	.st529{fill:url(#XMLID_00000062151571356105854430000006939486453638779837_);}
	.st530{fill:url(#XMLID_00000048475980847444328480000014484035608166861220_);}
	.st531{fill:url(#XMLID_00000003064704749795975830000015681538380999237796_);}
	.st532{fill:url(#XMLID_00000165194130939129706280000006176631439536067989_);}
	.st533{fill:url(#XMLID_00000082355440432471123690000007033125164337249200_);}
	.st534{fill:url(#XMLID_00000142874126162097790690000001841004118290192025_);}
	.st535{fill:url(#XMLID_00000084526548130310756560000009701660640771838337_);}
	.st536{fill:url(#XMLID_00000058577422102805862970000002874370678128306311_);}
	.st537{fill:url(#XMLID_00000107566286341175281030000010344162946884252305_);}
	.st538{fill:url(#XMLID_00000061461470235922466270000015898283104692660412_);}
	.st539{fill:url(#XMLID_00000127013388335714246650000000941604624333859992_);}
	.st540{fill:url(#XMLID_00000050664545097856102290000018267881787215222967_);}
	.st541{fill:url(#XMLID_00000008133059383685988710000013861560923669703310_);}
	.st542{fill:url(#XMLID_00000052793017289243501220000013683941737255639685_);}
	.st543{fill:url(#XMLID_00000124865782661080195770000009291298970479139770_);}
	.st544{fill:url(#XMLID_00000095325374327107139960000008456337730340101559_);}
	.st545{fill:url(#XMLID_00000106134264352121110990000017012453428539915440_);}
	.st546{fill:url(#XMLID_00000008831052869035081280000009504637951735644291_);}
	.st547{fill:url(#XMLID_00000147910026314443182270000008678102945389768859_);}
	.st548{fill:url(#XMLID_00000085968233349196931800000012863368963903964055_);}
	.st549{fill:url(#XMLID_00000119838575851570382950000016104476059327954061_);}
	.st550{fill:url(#XMLID_00000024707611273278000790000009442056820157521574_);}
	.st551{fill:url(#XMLID_00000029006540239978972930000015594009224026402986_);}
	.st552{fill:url(#XMLID_00000028285500878465918000000015608657027869870254_);}
	.st553{fill:url(#XMLID_00000099625927323150069160000008352112394164383135_);}
	.st554{fill:url(#XMLID_00000023974189486833945560000017620490311932491196_);}
	.st555{fill:url(#XMLID_00000162336856999717049990000016708732777171300744_);}
	.st556{fill:url(#XMLID_00000179607668478611236640000009563636591585565099_);}
	.st557{fill:url(#XMLID_00000076583608298018874410000006056777762666745514_);}
	.st558{fill:url(#XMLID_00000109024549105201018370000007848542826824374411_);}
	.st559{fill:url(#XMLID_00000143591515322971063430000016789254226181731988_);}
	.st560{fill:url(#XMLID_00000183932446559833305980000004889090856871783583_);}
	.st561{fill:url(#XMLID_00000016064752745473762900000014458806984904879275_);}
	.st562{fill:url(#XMLID_00000065795473336500311050000010481333687070779791_);}
	.st563{fill:url(#XMLID_00000129890949318950504210000002622835897110866863_);}
	.st564{fill:url(#XMLID_00000049202059947738674580000001696820271584495292_);}
	.st565{fill:url(#XMLID_00000070097182641114159440000012004284479120399286_);}
	.st566{fill:url(#XMLID_00000023980330413699260060000014264351615254493056_);}
	.st567{fill:url(#XMLID_00000026139337961787628970000005944444713688030137_);}
	.st568{fill:url(#XMLID_00000087391830134157066060000008096560222071607965_);}
	.st569{fill:url(#XMLID_00000160156462195569494720000001781642822983126930_);}
	.st570{fill:url(#XMLID_00000142876808927864778420000014231294486671215787_);}
	.st571{fill:url(#XMLID_00000011031146155652780190000001642478489623857061_);}
	.st572{fill:url(#XMLID_00000081633989052779188590000011485545900745885568_);}
	.st573{fill:url(#XMLID_00000154405358342868455900000006420981416538259870_);}
	.st574{fill:url(#XMLID_00000152229909034211195720000004234186539681763987_);}
	.st575{fill:url(#XMLID_00000041254246069464817580000003668954903624449215_);}
	.st576{fill:url(#XMLID_00000016043234542578246830000002447880816427994552_);}
	.st577{fill:url(#XMLID_00000083061986187577454300000010979968107382681476_);}
	.st578{fill:url(#XMLID_00000035517958333009046650000018281650458863515297_);}
	.st579{fill:url(#XMLID_00000046312221605749683370000009119298105711798151_);}
	.st580{fill:url(#XMLID_00000147196010153621193810000011456188811486950020_);}
	.st581{fill:url(#XMLID_00000129923650103569979930000009451400524604179884_);}
	.st582{fill:url(#XMLID_00000114767369262270205250000013762568162975432121_);}
	.st583{fill:url(#XMLID_00000072265870932030577800000011035432924644868001_);}
	.st584{fill:url(#XMLID_00000066517498565443156620000011607339574706995335_);}
	.st585{fill:url(#XMLID_00000100354637913791774450000003252452346290881437_);}
	.st586{fill:url(#XMLID_00000075161538991782926160000012994670896738777489_);}
	.st587{fill:url(#XMLID_00000045598295804039178510000011471019086659773840_);}
	.st588{fill:url(#XMLID_00000166675343487690577520000013239791745503052465_);}
	.st589{fill:url(#XMLID_00000030455218780801769390000009100722092171954310_);}
	.st590{fill:url(#XMLID_00000030460515174199865790000007606514393982592417_);}
	.st591{fill:url(#XMLID_00000070086402513327663420000013059157361266013340_);}
	.st592{fill:url(#XMLID_00000178204098952515005660000013206021198075432638_);}
	.st593{fill:url(#XMLID_00000016794448706711529060000008928529085671504278_);}
	.st594{fill:url(#XMLID_00000119117956307275232780000007865908744617089948_);}
	.st595{fill:url(#XMLID_00000140711523101980836540000005032358981592031377_);}
	.st596{fill:url(#XMLID_00000021083333577987928610000003615425626263389090_);}
	.st597{fill:url(#XMLID_00000051368238482191999850000006114973995685899195_);}
	.st598{fill:#FCFDFF;}
	.st599{fill:#757576;}
	.st600{fill:#D4D3D3;}
	.st601{fill:#E2E4E0;}
	.st602{fill:#B5B4B4;}
	.st603{fill:#908F8A;}
	.st604{fill:#F6F6F5;}
	.st605{fill:#3E4046;}
	.st606{fill:#525557;}
	.st607{fill:#E1E2E2;}
	.st608{fill:#E8E9EA;}
	.st609{fill:#2B2E35;}
	.st610{fill:#64666B;}
	.st611{fill:url(#XMLID_00000111898471696284317940000003757543835305322115_);}
	.st612{fill:#F0F0F0;}
	.st613{fill:#757779;}
	.st614{fill:#191B22;}
	.st615{fill:#14181E;}
	.st616{fill:#11141A;}
	.st617{fill:#DAEBE7;}
	.st618{fill:#7F8082;}
	.st619{fill:#A7B3B4;}
	.st620{fill:#3C575C;}
	.st621{fill:#CED6D6;}
	.st622{fill:#1A3A66;}
	.st623{fill:#2887C4;}
	.st624{fill:#66C3D8;}
	.st625{fill:#07282F;}
	.st626{fill:#8B9B9D;}
	.st627{fill:#72888C;}
	.st628{fill:#7F1710;}
	.st629{fill:#C3253D;}
	.st630{fill:#D9648A;}
	.st631{fill:#A24817;}
	.st632{fill:#DAA802;}
	.st633{fill:#EEB219;}
	.st634{fill:#424242;}
	.st635{fill:#474646;}
	.st636{fill:#AAB545;}
	.st637{fill:#C17D11;}
	.st638{fill:#CACCD2;}
	.st639{fill:#B6BCC6;}
	.st640{fill:#353842;}
	.st641{fill:#585C64;}
	.st642{fill:#454852;}
	.st643{fill:#62656C;}
	.st644{fill:#72757B;}
	.st645{fill:#3A3D42;}
	.st646{fill:#494D53;}
	.st647{fill:#161A24;}
	.st648{fill:#4C4F58;}
	.st649{fill:#666970;}
	.st650{fill:#7F7F83;}
	.st651{fill:#383C40;}
	.st652{fill:#1E222B;}
	.st653{fill:url(#XMLID_00000066499641397954682110000011445002997009006208_);}
	.st654{fill:#3D4049;}
	.st655{fill:url(#XMLID_00000037658309764741707490000008577259141919279274_);}
	.st656{fill:#30333C;}
	.st657{fill:#474D57;}
	.st658{fill:#75787F;}
	.st659{fill:#2F7E9D;}
	.st660{fill:#6DC0B2;}
	.st661{fill:url(#XMLID_00000132070876828030691010000010072801250643838621_);}
	.st662{fill:#F1F8FA;}
	.st663{fill:url(#XMLID_00000110446348826215020480000017568105277627245712_);}
	.st664{fill:url(#XMLID_00000041253655116716036010000005773803141467117713_);}
	.st665{fill:#ECF6F9;}
	.st666{fill:url(#XMLID_00000003094752820039418870000011377918746254070931_);}
	.st667{fill:url(#XMLID_00000146466554256839837320000014021088239874488485_);}
	.st668{fill:#CFE4F1;}
	.st669{fill:#DADADA;}
	.st670{fill:#D32D16;}
	.st671{fill:#176581;}
	.st672{fill:#9ED1F2;}
	.st673{fill:#1B222D;}
	.st674{fill:#EBE9EA;}
	.st675{fill:#C9CED5;}
	.st676{fill:#E1E0E0;}
	.st677{fill:#E7E6E6;}
	.st678{fill:#E8E7E7;}
	.st679{fill:#BFCBDD;}
	.st680{fill:#9D958F;}
	.st681{fill:#FFDC04;}
	.st682{fill:#B21828;}
	.st683{fill:#D8408F;}
	.st684{fill:#574997;}
	.st685{fill:#356AB1;}
	.st686{fill:#45B3E7;}
	.st687{fill:#2D8A36;}
	.st688{fill:#D0CFD0;}
	.st689{fill:#98A88B;}
	.st690{fill:#F8E825;}
	.st691{fill:#CB1333;}
	.st692{fill:url(#XMLID_00000098218773330275835900000012434654737610755261_);}
	.st693{fill:#0B0E18;}
	.st694{fill:#40424A;}
	.st695{fill:url(#XMLID_00000044857380944522277850000013783159919735308179_);}
	.st696{fill:#71757D;}
	.st697{fill:#C2C2C4;}
	.st698{fill:url(#XMLID_00000131366258937613452340000005064129574041488319_);}
	.st699{fill:#9DA094;}
	.st700{fill:#D4D4D4;}
	.st701{fill:url(#XMLID_00000051350803795743710950000017667439102486601098_);}
	.st702{fill:url(#XMLID_00000044875275167634936450000015637956797823041667_);}
	.st703{fill:#E8E8E8;}
	.st704{fill:#15120B;}
	.st705{fill:#4C4842;}
	.st706{fill:#74AEDF;}
	.st707{fill:#413D3F;}
	.st708{fill:#48494A;}
	.st709{fill:#080504;}
	.st710{fill:#4E4D4D;}
	.st711{fill:#A1A0A0;}
	.st712{fill:#FBEEF5;}
	.st713{fill:#BFBEBE;}
	.st714{fill:#015A64;}
	.st715{fill:#B81818;}
	.st716{fill:#8C811D;}
	.st717{fill:#03709B;}
	.st718{fill:#E74B1E;}
	.st719{fill:#F2B000;}
	.st720{fill:#E33335;}
	.st721{fill:#F8F09C;}
	.st722{fill:#FAEF81;}
	.st723{fill:#E7A8CB;}
	.st724{fill:#CD90BE;}
	.st725{fill:#847A73;}
	.st726{fill:#CCCBCB;}
	.st727{fill:#EDECEC;}
	.st728{fill:#9D9D9D;}
	.st729{fill:#EFEFEF;}
	.st730{fill:#4F525A;}
	.st731{fill:#E15C48;}
	.st732{fill:url(#XMLID_00000137106509002924424200000002676557755112512677_);}
	.st733{fill:url(#XMLID_00000162333608159531251660000002046191459987680643_);}
	.st734{fill:url(#XMLID_00000088823274564613025760000010868505554280030892_);}
	.st735{fill:url(#XMLID_00000029767937099717355350000011743425466274232723_);}
	.st736{fill:url(#XMLID_00000078029952526990700350000014240762808639539108_);}
	.st737{fill:#9E9D9D;}
	.st738{fill:#9DCBEF;}
	.st739{fill:#010000;}
	.st740{fill:url(#SVGID_00000012437635838806569230000017225017134268965819_);}
	.st741{fill:url(#SVGID_00000016061879539021482810000001234027210578219437_);}
	.st742{fill:url(#SVGID_00000118383485704670318620000017773351480594026161_);}
	.st743{fill:#D2D2D2;}
	.st744{fill:#232C35;}
	.st745{fill:#E39470;}
	.st746{fill:url(#XMLID_00000103244369233885913430000000530931157623529353_);}
	.st747{fill:#9DA6AC;}
	.st748{fill:#72979F;}
	.st749{fill:#96A1AB;}
	.st750{fill:#5F7887;}
	.st751{fill:#CC1B31;}
	.st752{fill:url(#XMLID_00000042704395082888677480000004636632704146089092_);}
	.st753{fill:url(#XMLID_00000168100375487695869850000018196013293177015996_);}
	.st754{fill:url(#XMLID_00000058561685914990112400000000359933668923377846_);}
	.st755{fill:#C0C4B6;}
	.st756{fill:#CEE8EC;}
	.st757{fill:url(#XMLID_00000054983195690118259790000017288173716003604900_);}
	.st758{fill:url(#XMLID_00000069371224420316882530000005609590259342882948_);}
	.st759{fill:#384C5A;}
	.st760{fill:url(#XMLID_00000052800902172209742390000006038123265883094145_);}
	.st761{fill:#ED9E02;}
	.st762{fill:#FFE253;}
	.st763{fill:#F7C318;}
	.st764{fill:#DDB988;}
	.st765{fill:#D2A37C;}
	.st766{fill:#C98666;}
	.st767{fill:#2C7EAE;}
	.st768{fill:#A61916;}
	.st769{fill:#E6704B;}
	.st770{fill:#DF3118;}
	.st771{fill:#00648A;}
	.st772{fill:#4CB0E4;}
	.st773{fill:#2178BD;}
	.st774{fill:#058A38;}
	.st775{fill:#6EB761;}
	.st776{fill:#4DAD3C;}
	.st777{fill:#283373;}
	.st778{fill:#4A60A8;}
	.st779{fill:#274394;}
	.st780{fill:#49267F;}
	.st781{fill:#7C559E;}
	.st782{fill:#693D8F;}
	.st783{fill:#871D6C;}
	.st784{fill:#C5569A;}
	.st785{fill:#CA1781;}
	.st786{fill:#2D1B1B;}
	.st787{fill:#8A5655;}
	.st788{fill:#734748;}
	.st789{fill:url(#XMLID_00000064330768153352430010000003709116348712619910_);}
	.st790{fill:#A3B5D1;}
	.st791{fill:#04559C;}
</style>
<g>
	<g>
		<path class="st0" d="M70.81,63.61c-21.3,2.5-42.83,2.5-64.13,0C3,63.16,0,59.7,0,56.04C0,40.51,0,24.98,0,9.45
			c0-3.66,3-7.12,6.68-7.57c21.3-2.5,42.83-2.5,64.13,0c3.68,0.45,6.68,3.91,6.68,7.57c0,15.53,0,31.06,0,46.59
			C77.49,59.7,74.49,63.16,70.81,63.61z"/>
	</g>
	<g>
		<path id="XMLID_00000116938882710836903750000001706984469132396967_" class="st93" d="M38.74,56.11c11.7,0,22.34-1.27,30.24-3.33
			c-7.21,2.7-18.08,4.42-30.24,4.42c-12.15,0-23.02-1.72-30.23-4.42C16.41,54.84,27.04,56.11,38.74,56.11 M65.31,48.61
			c0.4-0.5,0.64-1.24,0.64-2.17c0-0.81-0.12-1.46-0.35-1.95c-0.23-0.48-0.56-0.8-1.03-1c-0.31-0.13-0.69-0.19-1.13-0.19
			c-0.74,0-1.32,0.24-1.72,0.7c-0.4,0.47-0.65,1.2-0.65,2.23c0,0.78,0.13,1.43,0.36,1.92c0.24,0.49,0.58,0.83,1.04,1.03
			c0.31,0.13,0.67,0.21,1.1,0.21C64.33,49.38,64.9,49.1,65.31,48.61 M66.41,43.1c0.68,0.78,1.06,1.87,1.06,3.13
			c0,1.31-0.35,2.45-1.04,3.27c-0.69,0.82-1.71,1.31-2.98,1.31c-1.05,0-2.03-0.41-2.74-1.17c-0.71-0.76-1.15-1.85-1.15-3.21
			c0-1.31,0.35-2.45,1.04-3.27c0.69-0.82,1.71-1.3,2.98-1.3C64.74,41.87,65.73,42.32,66.41,43.1 M57.08,42.42
			c0.4,0.33,0.63,0.76,0.63,1.19v0.63h-0.4l-0.06-0.09c-0.21-0.31-0.49-0.52-0.82-0.65c-0.33-0.13-0.7-0.19-1.05-0.19
			c-0.85,0-1.54,0.29-2.02,0.79c-0.48,0.5-0.77,1.2-0.77,2.03c0,1.1,0.32,1.91,0.82,2.44c0.5,0.53,1.2,0.8,2.01,0.8
			c0.83,0,1.42-0.28,1.84-0.75l0.06-0.07h0.36v0.55c0,0.47-0.25,0.91-0.67,1.22c-0.43,0.31-1.04,0.5-1.8,0.5
			c-1.14,0-2.18-0.46-2.93-1.25c-0.75-0.79-1.21-1.92-1.21-3.24c0-1.14,0.39-2.25,1.12-3.08c0.74-0.83,1.82-1.37,3.18-1.37
			C56.1,41.87,56.68,42.09,57.08,42.42 M46.53,45.66c0.26-0.11,0.47-0.27,0.59-0.51c0.08-0.16,0.13-0.34,0.13-0.58
			c0-0.26-0.04-0.46-0.11-0.62c-0.07-0.16-0.17-0.28-0.3-0.37c-0.25-0.19-0.63-0.27-1.05-0.27h-0.62c-0.23,0-0.51,0.04-0.81,0.1
			v2.32c0.46,0.06,0.88,0.09,1.3,0.09C45.96,45.82,46.27,45.77,46.53,45.66 M49.05,50.01c0.07,0.12,0.14,0.22,0.18,0.26l0.05,0.06
			v0.32l-0.18,0.02c0,0-0.11,0.01-0.24,0.03c-0.13,0.01-0.28,0.03-0.38,0.03c-0.26,0-0.49-0.06-0.68-0.19
			c-0.19-0.13-0.32-0.32-0.42-0.56v0l-0.62-1.49c-0.19-0.45-0.35-0.74-0.5-0.92c-0.15-0.18-0.27-0.26-0.41-0.3
			c-0.09-0.03-0.19-0.04-0.31-0.05c-0.41-0.03-0.86-0.08-1.18-0.13v3.61h-0.62c-0.27,0-0.51-0.07-0.68-0.24
			c-0.17-0.17-0.23-0.41-0.23-0.67v-7.41l0.13-0.05c0.26-0.1,0.63-0.2,1.03-0.27c0.39-0.07,0.8-0.12,1.15-0.12h0.74
			c0.87,0,1.6,0.22,2.11,0.65c0.52,0.43,0.8,1.06,0.8,1.83c0,0.7-0.24,1.26-0.63,1.66c-0.26,0.26-0.58,0.44-0.93,0.56
			c0.19,0.13,0.35,0.29,0.47,0.45c0.21,0.29,0.33,0.59,0.43,0.82h0l0.76,1.78C48.92,49.77,48.99,49.89,49.05,50.01 M35.27,42.33
			c0.2-0.23,0.49-0.35,0.81-0.34h4.53v0.65c0,0.19-0.06,0.4-0.24,0.55c-0.18,0.15-0.43,0.23-0.77,0.23h-3.28
			c-0.13,0.59-0.23,1.39-0.25,2.12h3.6v0.56c0,0.21-0.07,0.42-0.24,0.57c-0.16,0.15-0.4,0.23-0.68,0.23h-2.68v0.4
			c0,0.61,0.09,1.05,0.26,1.34c0.17,0.29,0.41,0.47,0.81,0.58c0.26,0.07,0.6,0.11,1,0.11h0.63c0.6,0,1.13-0.12,1.51-0.22l0.26-0.07
			v0.59c0,0.17-0.01,0.34-0.08,0.51c-0.07,0.16-0.2,0.31-0.38,0.41c-0.12,0.07-0.27,0.11-0.44,0.15c-0.23,0.05-0.51,0.07-0.85,0.07
			h-1.03c-0.54,0-1.01-0.08-1.42-0.24c-0.41-0.16-0.75-0.4-1.02-0.71c-0.54-0.64-0.78-1.55-0.78-2.7v-1.5
			c0-0.73,0.14-1.68,0.29-2.29C34.94,42.89,35.07,42.57,35.27,42.33 M30.04,48.55c0.43-0.5,0.67-1.23,0.67-2.12
			c0-1.08-0.26-1.85-0.71-2.35c-0.45-0.49-1.09-0.74-1.93-0.74h-0.47c-0.2,0-0.55,0.03-0.82,0.08v5.06c0,0.17,0.02,0.31,0.06,0.42
			c0.04,0.11,0.09,0.19,0.17,0.25c0.14,0.13,0.38,0.2,0.74,0.2h0.45C29,49.34,29.61,49.05,30.04,48.55 M28.33,41.93
			c1.06,0,2.04,0.43,2.75,1.19c0.71,0.76,1.15,1.84,1.15,3.14c0,1.33-0.4,2.45-1.1,3.25c-0.7,0.8-1.69,1.25-2.83,1.25h-0.74
			c-0.73,0-1.32-0.18-1.72-0.54c-0.41-0.35-0.61-0.86-0.61-1.44v-6.56l0.15-0.04c0.49-0.13,1.34-0.25,1.91-0.25H28.33 M20.97,47.2
			c-0.38-1.31-0.82-2.46-1.4-3.57c-0.62,1.17-1.03,2.28-1.4,3.57H20.97z M22.17,46.21c0.47,1.35,0.91,2.89,1.11,4.25l0.04,0.24
			h-0.64c-0.27,0-0.49-0.06-0.66-0.2c-0.17-0.14-0.27-0.34-0.31-0.55c-0.09-0.5-0.25-1.04-0.35-1.45h-3.56
			c-0.15,0.6-0.35,1.41-0.46,2.03l-0.03,0.17h-0.6c-0.16,0-0.3-0.02-0.42-0.1c-0.13-0.07-0.21-0.2-0.25-0.34
			c-0.03-0.09-0.04-0.19-0.04-0.3c0-0.25,0.06-0.61,0.17-1.05c0.1-0.45,0.25-0.98,0.43-1.56c0.36-1.15,0.84-2.45,1.35-3.53
			c0.34-0.72,0.69-1.34,1.03-1.75l0.06-0.07h0.46c0.28,0,0.53,0.1,0.74,0.28c0.21,0.18,0.38,0.43,0.56,0.75
			C21.19,43.68,21.7,44.86,22.17,46.21 M10.81,42.05c0.18-0.04,0.38-0.06,0.62-0.06h3.93v0.68c0,0.17-0.06,0.35-0.21,0.51
			c-0.14,0.15-0.38,0.26-0.67,0.26h-2.92v1.98h3.23v0.57c0,0.24-0.09,0.47-0.26,0.62c-0.17,0.15-0.4,0.22-0.65,0.22h-2.32v3.87
			h-0.63c-0.2,0-0.38-0.03-0.53-0.11c-0.15-0.08-0.27-0.22-0.33-0.39c-0.04-0.11-0.05-0.23-0.05-0.37v-6.6
			c0-0.3,0.04-0.55,0.17-0.76C10.33,42.25,10.55,42.11,10.81,42.05 M38.71,12.05c-0.49-1.71-1.19-2.83-2.01-2.85
			c-1.64-0.04-3.03,4.9-2.19,9.85c0,0,0.09,0.3,0.04,0.31c0.18,0.02,0.25-0.38,0.41-1.17C35.68,14.68,37.4,12.16,38.71,12.05z
			 M41.48,27.1l-0.2,0.35l0,0c0.13,0.11,0.5-0.16,1.17-0.62c3.41-2.31,6.42-2.63,7.82-1.73c0.32-1.45,0.22-2.6-0.35-3.17
			C47.73,19.77,42.87,24.79,41.48,27.1z M49.04,20.99c0.54,0.05,0.97,0.26,1.24,0.58c1.37,1.57,0.62,5.17-2.49,9.77
			c-3.32,4.91-8.02,7.06-8.11,7.11c-0.02,0.01-0.04,0.01-0.05,0.01c0.2,0.38,6.58-0.33,11.06-5.79
			C56.87,25.14,51.78,21.01,49.04,20.99z M33.56,26.83c0.67,0.46,1.04,0.73,1.18,0.62v0v0l-0.2-0.35c-1.39-2.3-6.25-7.33-8.44-5.16
			c-0.57,0.56-0.67,1.71-0.35,3.17C27.15,24.2,30.15,24.52,33.56,26.83z M36.32,38.45c-0.08-0.05-4.78-2.2-8.11-7.11
			c-3.11-4.6-3.85-8.2-2.49-9.77c0.28-0.32,0.7-0.53,1.24-0.58c-2.73,0.02-7.83,4.15-1.66,11.68c4.48,5.46,10.85,6.17,11.06,5.79
			C36.36,38.46,36.34,38.46,36.32,38.45z M38.22,8.28c-1.08,0-2.01,0.38-2.43,0.92c0.3-0.29,0.63-0.45,0.97-0.44
			c1.82,0.02,3.16,4.02,3.07,9.54c-0.1,5.91-3.02,9.63-3.06,9.72c-0.01,0.02-0.04,0.04-0.05,0.03l0,0c0.3,0.29,5.61-2.94,6.58-10.51
			C44.22,10.44,40.81,8.28,38.22,8.28z"/>
	</g>
</g>
</svg>
