<?xml version="1.0" encoding="utf-8"?>
<!-- Generator: Adobe Illustrator 26.0.2, SVG Export Plug-In . SVG Version: 6.00 Build 0)  -->
<svg version="1.1" id="Calque_1" xmlns="http://www.w3.org/2000/svg" xmlns:xlink="http://www.w3.org/1999/xlink" x="0px" y="0px"
	 viewBox="0 0 185.99 73.17" style="enable-background:new 0 0 185.99 73.17;" xml:space="preserve">
<style type="text/css">
	.st0{fill:#FFFFFF;}
	.st1{opacity:0.35;fill:url(#SVGID_1_);}
	.st2{opacity:0.35;}
	.st3{opacity:0.25;fill:url(#SVGID_00000116932032491144556530000009499944007158480285_);}
	.st4{opacity:0.27;fill:url(#SVGID_00000133528077825678510490000008182185683081400456_);}
	.st5{opacity:0.17;fill:url(#SVGID_00000050660877934034368830000002417579847764586114_);}
	.st6{opacity:0.62;fill:url(#SVGID_00000008124424701075826130000015091348402727931048_);}
	.st7{opacity:0.37;fill:url(#SVGID_00000134945834224920197310000003192365979481873795_);}
	.st8{opacity:0.47;fill:url(#SVGID_00000000196658994652956630000017910754257822769585_);}
	.st9{opacity:0.47;fill:url(#SVGID_00000155130193418764634180000004708591387649854341_);}
	.st10{opacity:0.47;fill:url(#SVGID_00000015315817322645611220000015593404979535802041_);}
	.st11{opacity:0.48;fill:url(#SVGID_00000023992942142071368140000010696810825269248435_);}
	.st12{opacity:0.48;fill:url(#SVGID_00000181045111100041825940000004437195880186873221_);}
	.st13{opacity:0.4;fill:url(#SVGID_00000084514003477283586730000004001781477374166940_);}
	.st14{fill:#3A63A4;}
	.st15{fill:#CCD35F;}
	.st16{fill:#4B4392;}
	.st17{fill:#2CA696;}
	.st18{fill:#D71158;}
	.st19{fill:#F9BB5A;}
	.st20{fill:#EFB349;}
	.st21{fill:#EC6C44;}
	.st22{fill:#25B1A2;}
	.st23{fill:#CB3580;}
	.st24{fill:#F8DC91;}
	.st25{fill:#C2367E;}
	.st26{fill:#289BB9;}
	.st27{fill:#CC1640;}
	.st28{fill:#4069A8;}
	.st29{fill:#EF8054;}
	.st30{fill:#1B9361;}
	.st31{fill:#1E9CC0;}
	.st32{fill:#8E4794;}
	.st33{fill:#F9B958;}
	.st34{fill:#DF0C1A;}
	.st35{fill:#002D74;}
	.st36{fill:#0069A8;}
	.st37{fill:#15A3DD;}
	.st38{fill:#19A3DD;}
	.st39{fill-rule:evenodd;clip-rule:evenodd;fill:#4AA334;}
	.st40{fill-rule:evenodd;clip-rule:evenodd;fill:#FFFFFF;}
	.st41{fill:#263780;}
	.st42{fill:url(#SVGID_00000100356825916590307150000008909620170212651410_);}
	.st43{fill:url(#SVGID_00000176029090419762163940000010357648034766668700_);}
	.st44{fill:url(#SVGID_00000059312403462676200920000005794904753121812904_);}
	.st45{fill:url(#SVGID_00000052081627695724994370000009806774032865779852_);}
	.st46{fill:url(#SVGID_00000080181898843888823950000009830500100896354714_);}
	.st47{fill:url(#SVGID_00000091712894535484161760000011702398603068465579_);}
	.st48{fill:#AFB6BD;}
	.st49{fill:#31295C;}
	.st50{fill:url(#SVGID_00000060742008003388894750000013911981962778683035_);}
	.st51{fill:url(#SVGID_00000077293683638180662930000014113573893957188265_);}
	.st52{fill:url(#SVGID_00000106111580005029209070000007376080804831809155_);}
	.st53{fill:url(#SVGID_00000075865690037158510930000016442290123063413939_);}
	.st54{fill:url(#SVGID_00000024693830603620108350000015413727341584535454_);}
	.st55{fill:url(#SVGID_00000107550552880809558800000009535712043094812052_);}
	.st56{fill:url(#SVGID_00000114787661599239631090000006059592585309908633_);}
	.st57{fill:url(#SVGID_00000083811386811327471340000008881864113550697861_);}
	.st58{fill:url(#SVGID_00000058580737544990174880000002544021314287647126_);}
	.st59{fill:url(#SVGID_00000159467858660900367190000010667149717190090408_);}
	.st60{fill:url(#SVGID_00000176017992660865725700000005685359840048428437_);}
	.st61{fill:url(#SVGID_00000160898858359965633770000017186910558417922954_);}
	.st62{fill:url(#SVGID_00000114791242735202181980000005483613211952691117_);}
	.st63{fill:url(#SVGID_00000143581170373766609870000001332363817409407405_);}
	.st64{fill:#312782;}
	.st65{fill:#6461A8;}
	.st66{fill:#747473;}
	.st67{fill:#CAC9C9;}
	.st68{fill-rule:evenodd;clip-rule:evenodd;fill:#D81A16;stroke:#1D1D1B;stroke-width:0.25;stroke-miterlimit:10;}
	.st69{fill:none;stroke:#1D1D1B;stroke-width:0.25;stroke-miterlimit:10;}
	.st70{fill:#12110C;}
	.st71{fill:#1D1D1B;}
	.st72{fill:#EF8328;}
	.st73{fill:url(#SVGID_00000126305805390944879570000006892873439050110373_);}
	.st74{fill:url(#SVGID_00000003097896440790060610000017517556125152872586_);}
	.st75{fill:url(#SVGID_00000176015850052862475120000002141134809718082972_);}
	.st76{fill:url(#SVGID_00000010274903642950411730000014731466506190690224_);}
	.st77{opacity:0.6;}
	.st78{fill:url(#SVGID_00000137825343514153846550000002841410998301038477_);}
	.st79{fill:url(#SVGID_00000035492323034882264780000000584038651322532008_);}
	.st80{fill:url(#SVGID_00000052083991294211861620000013952956879533132467_);}
	.st81{fill:url(#SVGID_00000007411159841458517040000016146809106734051992_);}
	.st82{fill:url(#SVGID_00000147179825219721451760000003948951443876444559_);}
	.st83{fill:url(#SVGID_00000101102647262954069310000011035497930232606892_);}
	.st84{fill:url(#SVGID_00000083079531993028346940000002696062487972094866_);}
	.st85{fill:url(#SVGID_00000000221133080796074620000013370014261055589284_);}
	.st86{fill:url(#SVGID_00000161604437768328119190000008192561570783436424_);}
	.st87{fill:url(#SVGID_00000111168159631155713320000011729074433172394112_);}
	.st88{fill:url(#SVGID_00000131331012603873181720000006454608385145561009_);}
	.st89{fill:url(#SVGID_00000127766332797227209520000002391779338680649856_);}
	.st90{fill:url(#SVGID_00000130623142163444693680000006205519551945213109_);}
	.st91{fill:#001689;}
	.st92{fill:none;stroke:#001689;stroke-width:0.881;stroke-linecap:round;stroke-linejoin:round;stroke-miterlimit:10;}
	.st93{fill:#0047BA;}
	.st94{fill:#253D90;}
	.st95{fill:#FFDC00;}
	.st96{fill:#0556A3;}
	.st97{fill:#0369B2;}
	.st98{fill:#5DC3F0;}
	.st99{fill:#DF162E;}
	.st100{fill:#39A7DF;}
	.st101{fill:#1B71B6;}
	.st102{fill-rule:evenodd;clip-rule:evenodd;fill:url(#XMLID_00000031184625676687537270000010273813819124986018_);}
	.st103{fill-rule:evenodd;clip-rule:evenodd;fill:url(#XMLID_00000156547522495986316150000000975194541830770831_);}
	.st104{fill:#91BF25;}
	.st105{fill:#FFDA05;}
	.st106{fill:#E00F1A;}
	.st107{fill-rule:evenodd;clip-rule:evenodd;fill:#213A7B;}
	.st108{fill-rule:evenodd;clip-rule:evenodd;}
	.st109{fill-rule:evenodd;clip-rule:evenodd;fill:#E20C30;}
	.st110{fill:#2B7DB9;}
	.st111{fill:#43AC51;}
	.st112{fill-rule:evenodd;clip-rule:evenodd;fill:#034A91;}
	.st113{fill:#005891;}
	.st114{fill:#E3283B;}
	.st115{fill:#004A93;}
	.st116{fill-rule:evenodd;clip-rule:evenodd;fill:#004A93;}
	.st117{fill-rule:evenodd;clip-rule:evenodd;fill:#FFEA20;}
	.st118{fill-rule:evenodd;clip-rule:evenodd;fill:#DF101C;}
	.st119{fill:#2997D4;}
	.st120{fill:#F18A00;}
	.st121{fill:#09111D;}
	.st122{fill:#A72136;}
	.st123{fill:url(#SVGID_00000002377523156198877830000013292366225764486814_);}
	.st124{fill:url(#SVGID_00000147201888929633644390000003328526672675958420_);}
	.st125{fill:url(#SVGID_00000097475048716922625910000010622386520241056926_);}
	.st126{fill:url(#SVGID_00000098943657762880407620000004274204933288119715_);}
	.st127{fill:url(#SVGID_00000163785693754676014460000000291533971637937842_);}
	.st128{fill:url(#SVGID_00000049927797739999101060000017658977474049433492_);}
	.st129{fill:url(#SVGID_00000122696863688345263040000014327491162858142643_);}
	.st130{fill:url(#SVGID_00000073710111228015807400000007997896179989767844_);}
	.st131{fill:#2D2F34;}
	.st132{fill:url(#SVGID_00000181082215224883675210000000745422290096892058_);}
	.st133{fill:url(#SVGID_00000015328694607324401480000007695437597423617941_);}
	.st134{fill:url(#SVGID_00000049218374735634702030000017551918439566899093_);}
	.st135{fill:url(#SVGID_00000085237739658163415300000018161463741810421422_);}
	.st136{fill:#003DA6;}
	.st137{fill-rule:evenodd;clip-rule:evenodd;fill:#0E579F;stroke:#FFFFFF;stroke-width:1.0001;stroke-miterlimit:2.6131;}
	.st138{fill-rule:evenodd;clip-rule:evenodd;fill:#FFFFFF;stroke:#FFFFFF;stroke-width:0.216;stroke-miterlimit:2.6131;}
	.st139{fill:#1766AD;}
	.st140{fill:#7EB828;}
	.st141{fill:#0D9E39;}
	.st142{fill:#7CB62C;}
	.st143{fill-rule:evenodd;clip-rule:evenodd;fill:#00A0DF;}
	
		.st144{clip-path:url(#SVGID_00000080200522480833072400000014781614496926837178_);fill-rule:evenodd;clip-rule:evenodd;fill:#8CCFF1;}
	
		.st145{clip-path:url(#SVGID_00000080200522480833072400000014781614496926837178_);fill-rule:evenodd;clip-rule:evenodd;fill:#C3E4F5;}
	
		.st146{clip-path:url(#SVGID_00000080200522480833072400000014781614496926837178_);fill-rule:evenodd;clip-rule:evenodd;fill:#FFFFFF;}
	.st147{clip-path:url(#SVGID_00000080200522480833072400000014781614496926837178_);}
	.st148{fill:#83CEEA;}
	.st149{fill-rule:evenodd;clip-rule:evenodd;fill:#65B2E8;}
	.st150{fill-rule:evenodd;clip-rule:evenodd;fill:#0C68AE;}
	.st151{fill-rule:evenodd;clip-rule:evenodd;fill:#00205C;}
	.st152{fill:#00A0DF;}
	.st153{fill:#00205C;}
	.st154{clip-path:url(#SVGID_00000139283177061222922020000006132236969780283560_);}
	.st155{fill:#29A43B;}
	.st156{fill:#BFE1F4;}
	.st157{fill:#D2E9F7;}
	.st158{fill:#444592;}
	.st159{fill:#BBA26A;}
	.st160{fill:#ACB217;}
	.st161{fill:url(#SVGID_00000105421434762248348110000003467385242473676958_);}
	.st162{fill-rule:evenodd;clip-rule:evenodd;fill:#211F1F;}
	.st163{fill:url(#SVGID_00000110432378397717033130000006757346375567297975_);}
	.st164{fill:url(#SVGID_00000108304239023725032270000007814410160065305763_);}
	.st165{fill:url(#SVGID_00000141450035710298203050000010016949115376298668_);}
	.st166{fill:url(#SVGID_00000129189898906806307470000013347599381127911087_);}
	.st167{fill:url(#SVGID_00000095340125423018882540000000931005233990895254_);}
	.st168{fill:url(#SVGID_00000059311152141712312000000009632937514366523580_);}
	.st169{fill:url(#SVGID_00000045601646337305437750000006710734296928115902_);}
	.st170{fill:url(#SVGID_00000175306943129466043490000017646191938668685477_);}
	.st171{fill:url(#SVGID_00000128445670376456803680000014977786151877697978_);}
	.st172{fill:url(#SVGID_00000140728175932199753610000014689599095631991688_);}
	.st173{fill:url(#SVGID_00000113344795841730020230000002960694658366144658_);}
	.st174{fill:url(#SVGID_00000086687176988426133450000014058537795893093013_);}
	.st175{fill:url(#SVGID_00000025412241600375300490000018352172746450353322_);}
	.st176{fill:url(#SVGID_00000089550667421867642990000006589628706450554497_);}
	.st177{fill:url(#SVGID_00000023278791941497076940000014905450635490934678_);}
	.st178{fill:url(#SVGID_00000037651512156152631010000003690144516641362831_);}
	.st179{fill:url(#SVGID_00000144337461693763998310000015316498091860512945_);}
	.st180{fill:url(#SVGID_00000174584928849494931960000009660749551689185446_);}
	.st181{fill:url(#SVGID_00000037672337905059323200000017347596125075794589_);}
	.st182{fill:url(#SVGID_00000183247481420605991990000008349170604047801524_);}
	.st183{fill:url(#SVGID_00000092445038007653519390000000776158998952756645_);}
	.st184{fill:url(#SVGID_00000124855963381070606340000015117897663097236884_);}
	.st185{fill:url(#SVGID_00000127023754095919070680000005886430725298255758_);}
	.st186{fill:url(#SVGID_00000143612708762270991830000002748251144703629996_);}
	.st187{fill:url(#SVGID_00000138571557616128237260000010231659403419750298_);}
	.st188{fill:url(#SVGID_00000045608339896595695770000000324568549123179666_);}
	
		.st189{clip-path:url(#SVGID_00000123402711038809298180000011895639386084475556_);fill:url(#SVGID_00000180341928251347606890000001177742284076823456_);}
	.st190{fill:url(#SVGID_00000047052194788437455370000009342698714505783176_);}
	.st191{fill:url(#SVGID_00000088830690576884479880000015136232775861478299_);}
	.st192{fill:url(#SVGID_00000139976395139829296040000013405508202653184179_);}
	.st193{fill:url(#SVGID_00000093145975239129118890000009925361676825274243_);}
	.st194{fill-rule:evenodd;clip-rule:evenodd;fill:url(#SVGID_00000057130799953552484420000014782275952398672543_);}
	.st195{fill:#F6F0F3;}
	.st196{fill:#F8F4F6;}
	.st197{fill:#FFFCFD;}
	.st198{fill:#0F4D80;}
	.st199{fill:#2F93D1;}
	.st200{display:none;}
	.st201{display:inline;fill:#0F4D80;}
	.st202{display:inline;fill:#2F93D1;}
	.st203{display:inline;fill:#FFFFFF;}
	.st204{opacity:0.3;}
	.st205{fill:#65A1D7;}
	.st206{fill:#E63922;}
	.st207{fill:#33712F;}
	.st208{fill:#509BD5;}
	.st209{fill:#2C88C7;}
	.st210{fill:#A9DBF7;}
	.st211{fill:#EEB68A;}
	.st212{fill:#FBD3AD;}
	.st213{fill:#270C12;}
	.st214{fill:#230A10;}
	.st215{fill:#A2403B;}
	.st216{fill:#C1665D;}
	.st217{fill:#DFECF8;}
	.st218{fill:#411017;}
	.st219{fill:#262626;}
	.st220{opacity:0.47;}
	.st221{fill:#FAD8D5;}
	.st222{fill:#FBE1DE;}
	.st223{fill:#EA808C;}
	.st224{fill:#C9E7F7;}
	.st225{fill:#E5F3FD;}
	.st226{fill:#FDEEEE;}
	.st227{fill:#F7C7C9;}
	.st228{fill:#ECF6F7;}
	.st229{fill:#A0D0F1;}
	.st230{fill:#97C7EC;}
	.st231{fill:#9ECFF1;}
	.st232{fill:#E8F4F6;}
	.st233{fill:#BEE3F5;}
	.st234{fill:#D7EDF6;}
	.st235{fill:#ED705B;}
	.st236{fill:#F9C9BA;}
	.st237{fill:#8BC5EC;}
	.st238{fill:#F5AC9B;}
	.st239{fill:#F1907E;}
	.st240{fill:#D6EDF6;}
	.st241{fill:#4B8739;}
	.st242{fill:#F39B8B;}
	.st243{fill:#C5D4E1;}
	.st244{fill:#F29A9C;}
	.st245{fill:#3C3C3B;}
	.st246{fill:#EE808D;}
	.st247{fill:#187FB9;}
	.st248{fill:#2EA8E0;}
	.st249{fill:#80CEF4;}
	.st250{fill:#BDE3F6;}
	.st251{fill:#EA5B2B;}
	.st252{fill:#E73F2F;}
	.st253{opacity:0.26;fill:#D3B0D4;}
	.st254{fill:url(#SVGID_00000006687022078980773200000003702635249520980620_);}
	.st255{fill:#B7553B;}
	.st256{fill:#E63924;}
	.st257{fill:#441943;}
	.st258{fill:#281028;}
	.st259{fill:#8BCAB9;}
	.st260{fill:#D9271B;}
	.st261{fill:#FCE7E5;}
	.st262{fill:#A9D7CF;}
	.st263{fill:url(#SVGID_00000070804668063094585050000016290057030576223653_);}
	.st264{fill:url(#SVGID_00000017475391477651589400000014583378414106839199_);}
	.st265{fill:url(#SVGID_00000126315185629875138990000013420602094296879266_);}
	.st266{opacity:0.26;fill:#A2403B;}
	.st267{fill:#6E4594;}
	.st268{fill:#B65650;}
	.st269{fill:url(#SVGID_00000011742397119138568410000002916852672375366312_);}
	.st270{fill:#454545;}
	.st271{fill:#A7D9F5;}
	.st272{fill:#24212E;}
	.st273{fill:#6D1B0F;}
	.st274{fill:#3E4055;}
	.st275{fill:#3E4052;}
	.st276{fill:#77491E;}
	.st277{fill:#474A5E;}
	.st278{fill:#24222D;}
	.st279{fill:#D6D6D6;}
	.st280{fill:#F8C6BD;}
	.st281{fill:#3F292A;}
	.st282{fill:#E7E8EC;}
	.st283{fill:#F9D3CA;}
	.st284{fill:#E9B9A6;}
	.st285{fill:#0E0C09;}
	.st286{fill:#CCDADA;}
	.st287{fill:#EDBDAA;}
	.st288{fill:#535459;}
	.st289{fill:#929497;}
	.st290{fill:#3164AC;}
	.st291{fill:#D53939;}
	.st292{fill:#313134;}
	.st293{fill:url(#SVGID_00000097477100838406149740000014883151219821879177_);}
	.st294{fill:url(#SVGID_00000069390834014953109040000008160232150667835290_);}
	.st295{fill:url(#SVGID_00000054948999357609226050000007142522339318883759_);}
	.st296{fill:#E6E7E7;}
	.st297{clip-path:url(#SVGID_00000108287550783871216330000010125418626361420973_);}
	.st298{fill:#F7F6F6;}
	.st299{fill:#0E4D80;}
	.st300{opacity:0.31;}
	.st301{opacity:0;}
	.st302{fill:#010100;}
	.st303{opacity:4.653465e-03;}
	.st304{opacity:9.306931e-03;}
	.st305{opacity:0.014;}
	.st306{opacity:0.0186;}
	.st307{opacity:0.0233;}
	.st308{opacity:0.0279;}
	.st309{opacity:0.0326;}
	.st310{opacity:0.0372;}
	.st311{opacity:0.0419;}
	.st312{opacity:0.0465;}
	.st313{opacity:0.0512;}
	.st314{opacity:0.0558;}
	.st315{opacity:0.0605;}
	.st316{opacity:0.0651;}
	.st317{opacity:0.0698;}
	.st318{opacity:0.0745;}
	.st319{opacity:0.0791;}
	.st320{opacity:0.0838;}
	.st321{opacity:0.0884;}
	.st322{opacity:0.0931;}
	.st323{opacity:0.0977;}
	.st324{opacity:0.1024;}
	.st325{opacity:0.107;}
	.st326{opacity:0.1117;}
	.st327{opacity:0.1163;}
	.st328{opacity:0.121;}
	.st329{opacity:0.1256;}
	.st330{opacity:0.1303;}
	.st331{opacity:0.135;}
	.st332{opacity:0.1396;}
	.st333{opacity:0.1443;}
	.st334{opacity:0.1489;}
	.st335{opacity:0.1536;}
	.st336{opacity:0.1582;}
	.st337{opacity:0.1629;}
	.st338{opacity:0.1675;}
	.st339{opacity:0.1722;}
	.st340{opacity:0.1768;}
	.st341{opacity:0.1815;}
	.st342{opacity:0.1861;}
	.st343{opacity:0.1908;}
	.st344{opacity:0.1954;}
	.st345{opacity:0.2001;}
	.st346{opacity:0.2048;}
	.st347{opacity:0.2094;}
	.st348{opacity:0.2141;}
	.st349{opacity:0.2187;}
	.st350{opacity:0.2234;}
	.st351{opacity:0.228;}
	.st352{opacity:0.2327;}
	.st353{opacity:0.2373;}
	.st354{opacity:0.242;}
	.st355{opacity:0.2466;}
	.st356{opacity:0.2513;}
	.st357{opacity:0.2559;}
	.st358{opacity:0.2606;}
	.st359{opacity:0.2652;}
	.st360{opacity:0.2699;}
	.st361{opacity:0.2746;}
	.st362{opacity:0.2792;}
	.st363{opacity:0.2839;}
	.st364{opacity:0.2885;}
	.st365{opacity:0.2932;}
	.st366{opacity:0.2978;}
	.st367{opacity:0.3025;}
	.st368{opacity:0.3071;}
	.st369{opacity:0.3118;}
	.st370{opacity:0.3164;}
	.st371{opacity:0.3211;}
	.st372{opacity:0.3257;}
	.st373{opacity:0.3304;}
	.st374{opacity:0.335;}
	.st375{opacity:0.3397;}
	.st376{opacity:0.3444;}
	.st377{opacity:0.349;}
	.st378{opacity:0.3537;}
	.st379{opacity:0.3583;}
	.st380{opacity:0.363;}
	.st381{opacity:0.3676;}
	.st382{opacity:0.3723;}
	.st383{opacity:0.3769;}
	.st384{opacity:0.3816;}
	.st385{opacity:0.3862;}
	.st386{opacity:0.3909;}
	.st387{opacity:0.3955;}
	.st388{opacity:0.4002;}
	.st389{opacity:0.4049;}
	.st390{opacity:0.4095;}
	.st391{opacity:0.4142;}
	.st392{opacity:0.4188;}
	.st393{opacity:0.4235;}
	.st394{opacity:0.4281;}
	.st395{opacity:0.4328;}
	.st396{opacity:0.4374;}
	.st397{opacity:0.4421;}
	.st398{opacity:0.4467;}
	.st399{opacity:0.4514;}
	.st400{opacity:0.456;}
	.st401{opacity:0.4607;}
	.st402{opacity:0.4653;}
	.st403{fill:url(#SVGID_00000104670723563409247440000010136635228893618050_);}
	.st404{fill:url(#SVGID_00000070811215927958139950000015867425598635933571_);}
	.st405{fill:url(#SVGID_00000180326246683637588380000004615555921133921964_);}
	.st406{fill:#C6A295;}
	.st407{fill:#EFC5B3;}
	.st408{fill:#121214;}
	.st409{fill:#BBBDBE;}
	.st410{fill:#863C13;}
	.st411{fill:#B96117;}
	.st412{fill:#EF8118;}
	.st413{fill:#BA5817;}
	.st414{fill:#6D6F71;}
	.st415{fill:#E21D26;}
	.st416{fill:#2C5E84;}
	.st417{fill:#9C251F;}
	.st418{fill:url(#SVGID_00000033349614433636168710000004325194642054541989_);}
	.st419{fill:#1C374E;}
	.st420{fill:#2B4E68;}
	.st421{opacity:0.3;fill:#121214;}
	.st422{fill:url(#SVGID_00000077312340867371820000000016084980263750914482_);}
	.st423{fill:url(#SVGID_00000152241596393435639450000003275680126117543087_);}
	.st424{fill:url(#SVGID_00000158009283156666082190000013226869714275548573_);}
	.st425{fill:url(#SVGID_00000183219449125578851200000005474894285424847240_);}
	.st426{fill:url(#SVGID_00000102546721462953838360000016106512816008593067_);}
	.st427{fill:url(#SVGID_00000177445773757820528970000001815203994843257514_);}
	.st428{fill:#0C0C0C;}
	.st429{fill:#603914;}
	.st430{fill:#E86821;}
	.st431{fill:#171717;}
	.st432{fill:#663F30;}
	.st433{fill:url(#SVGID_00000103981647701357486420000011746831233494210957_);}
	.st434{fill:url(#SVGID_00000032648488101407331480000010350307035683872643_);}
	.st435{fill:url(#SVGID_00000141436454804730373090000000688280818537503396_);}
	.st436{fill:url(#SVGID_00000067930143350529273330000009127461498983478707_);}
	.st437{fill:url(#SVGID_00000039101312856903479480000006804802284687690624_);}
	.st438{fill:url(#SVGID_00000073702533410145606900000006784973624135825811_);}
	.st439{fill:url(#SVGID_00000020371059627972793630000001381618927986386098_);}
	.st440{fill:url(#SVGID_00000005251886771221175730000012959412710495775668_);}
	.st441{fill:url(#SVGID_00000019657171075364445170000017783063042871419776_);}
	.st442{fill:url(#SVGID_00000137091014795964468530000015620668042796472725_);}
	.st443{fill:url(#SVGID_00000070083052691654958630000013079363951063732112_);}
	.st444{fill:url(#SVGID_00000115505312485660800970000007177027530232667526_);}
	.st445{fill:url(#SVGID_00000068635589338773988920000001716331242174344094_);}
	.st446{fill:url(#SVGID_00000096740636999794920630000003183035426491044754_);}
	.st447{fill:url(#SVGID_00000147221108261165121460000012273100478911964304_);}
	.st448{fill:url(#SVGID_00000047755213367257044340000003191272781094547849_);}
	.st449{fill:url(#SVGID_00000024703581202161292190000003824892770580334732_);}
	.st450{fill:url(#SVGID_00000137811473218970688350000017065281921912387717_);}
	.st451{fill:#B7B7B7;}
	.st452{fill:#112134;}
	.st453{fill:#414042;}
	.st454{fill:#221E20;}
	.st455{fill:#131313;}
	.st456{fill:#202020;}
	.st457{fill:#915E33;}
	.st458{fill:#57391E;}
	.st459{fill:#F39519;}
	.st460{fill:#F4B305;}
	.st461{fill:#C4C3C3;}
	.st462{fill:#A5A4A5;}
	.st463{fill:#888989;}
	.st464{fill:#242424;}
	.st465{fill:#6E4827;}
	.st466{opacity:0.1844;fill:#24222D;}
	.st467{fill:#A0A4BB;}
	.st468{opacity:0.1844;fill:#999AB6;}
	.st469{fill:#D9E3E3;}
	.st470{fill:#FAD5CB;}
	.st471{opacity:0.1844;fill:#24212E;}
	.st472{fill:#844013;}
	.st473{fill:#F8B777;}
	.st474{fill:#3576AB;}
	.st475{fill:#A2A1A1;}
	.st476{fill:#754C29;}
	.st477{fill:#B3DFF1;}
	.st478{fill:#80A5A5;}
	.st479{fill:#EAAE93;}
	.st480{fill:#00657E;}
	.st481{fill:#382E22;}
	.st482{fill:#157288;}
	.st483{fill:#A42916;}
	.st484{fill:#D43216;}
	.st485{fill:#E5A082;}
	.st486{fill:#B23318;}
	.st487{fill:#843E1E;}
	.st488{fill:#EDBEA8;}
	.st489{fill:#E94E49;}
	.st490{fill:#E3E4E3;}
	.st491{fill:#B9B9B9;}
	.st492{fill:#868787;}
	.st493{fill:url(#XMLID_00000142892679799845778480000003289991087988249744_);}
	.st494{fill:#989898;}
	.st495{fill:url(#XMLID_00000085214706841148687210000009305548107734975620_);}
	.st496{fill:#EEECEB;}
	.st497{fill:#D5D5D5;}
	.st498{fill:url(#XMLID_00000137824323596266332320000015416449215764441775_);}
	.st499{fill:url(#XMLID_00000179630922729558706740000014231509962866091144_);}
	.st500{fill:url(#XMLID_00000093896397349014199030000000625110878293392282_);}
	.st501{fill:url(#XMLID_00000102507168693153228740000001181471628686815415_);}
	.st502{fill:url(#XMLID_00000063604967679488440120000006758817083731116201_);}
	.st503{fill:url(#XMLID_00000096766717934164446130000003474784509569351333_);}
	.st504{fill:url(#XMLID_00000130616478805065170630000013577383256660369045_);}
	.st505{fill:url(#XMLID_00000164503866869850654220000005383610829069794471_);}
	.st506{fill:url(#XMLID_00000032635462731832795080000006391565952959200944_);}
	.st507{fill:url(#XMLID_00000157286022593130054840000004432964450714483079_);}
	.st508{fill:url(#XMLID_00000168112656105315330640000003003647376261626554_);}
	.st509{fill:url(#XMLID_00000109716604203723963660000002730681323390820768_);}
	.st510{fill:url(#XMLID_00000089534777536415694670000014843204730571568003_);}
	.st511{fill:url(#XMLID_00000027569240176840028240000002515265192553387948_);}
	.st512{fill:url(#XMLID_00000141448152453238810420000010005679149557679513_);}
	.st513{fill:url(#XMLID_00000021832471785017824290000006246363657148067217_);}
	.st514{fill:url(#XMLID_00000047760259184215473240000003165965714537913755_);}
	.st515{fill:url(#XMLID_00000142157511991903833760000015436633557738309019_);}
	.st516{fill:url(#XMLID_00000003791872467974959490000015997612984201856153_);}
	.st517{fill:url(#XMLID_00000075862768469782506610000008251933951419753125_);}
	.st518{fill:url(#XMLID_00000124124234983550588800000002515319642408263589_);}
	.st519{fill:url(#XMLID_00000015332041822818595720000001427867122946122429_);}
	.st520{fill:url(#XMLID_00000063616071951407312590000010904217082154290567_);}
	.st521{fill:url(#XMLID_00000044862593358909014130000018351889581546098821_);}
	.st522{fill:url(#XMLID_00000026124052768843572610000015282777836443647141_);}
	.st523{fill:url(#XMLID_00000166644260586625115170000017294095159115793024_);}
	.st524{fill:url(#XMLID_00000008842411470776085500000000383657409475030407_);}
	.st525{fill:url(#XMLID_00000018921930303430372050000015745101753161354674_);}
	.st526{fill:url(#XMLID_00000037691552651659852060000003683912820223256253_);}
	.st527{fill:url(#XMLID_00000003096007790683128190000005156541506141506221_);}
	.st528{fill:url(#XMLID_00000004518820219312898610000009910711083202837140_);}
	.st529{fill:url(#XMLID_00000143579640724888178060000010097927362740190362_);}
	.st530{fill:url(#XMLID_00000173859685684371450380000016340895162001232805_);}
	.st531{fill:url(#XMLID_00000101099478638679838050000005228842350099233963_);}
	.st532{fill:url(#XMLID_00000098207850149939131630000005285198923373646231_);}
	.st533{fill:url(#XMLID_00000052791085126183944390000003972724555430732451_);}
	.st534{fill:url(#XMLID_00000124873925651913330510000007298101006576162705_);}
	.st535{fill:url(#XMLID_00000143601305324855069170000007941247379549214629_);}
	.st536{fill:url(#XMLID_00000055667345984421034140000015748043196847161748_);}
	.st537{fill:url(#XMLID_00000173124081385276794580000003591408188904264882_);}
	.st538{fill:url(#XMLID_00000032627760367461553660000010056050513353111479_);}
	.st539{fill:url(#XMLID_00000024707974900074137770000001164415658198309560_);}
	.st540{fill:url(#XMLID_00000134235991075797774150000016209352001027254205_);}
	.st541{fill:url(#XMLID_00000017493470107947107760000016529444476429785527_);}
	.st542{fill:url(#XMLID_00000100385125282900830880000010769357703357246608_);}
	.st543{fill:url(#XMLID_00000173135830454137916770000018106971809656649600_);}
	.st544{fill:url(#XMLID_00000016072036034191460490000001565122114761131963_);}
	.st545{fill:url(#XMLID_00000058556221891795190790000017566763062310893962_);}
	.st546{fill:url(#XMLID_00000075154408583561050640000008598853366191744174_);}
	.st547{fill:url(#XMLID_00000080207409955903681420000013823265244931811501_);}
	.st548{fill:url(#XMLID_00000071542080096064018090000013593123191177111681_);}
	.st549{fill:url(#XMLID_00000059281509162868289510000015306018297943871928_);}
	.st550{fill:url(#XMLID_00000056418092120492562000000015124390769055841159_);}
	.st551{fill:url(#XMLID_00000052098458451457435730000008055979869510079146_);}
	.st552{fill:url(#XMLID_00000141433416449304787380000012772016919452000185_);}
	.st553{fill:url(#XMLID_00000150063821143075236580000004450531905161956022_);}
	.st554{fill:url(#XMLID_00000046326690757578257530000018126468356198710951_);}
	.st555{fill:url(#XMLID_00000150820562030828277770000017688017169796348317_);}
	.st556{fill:url(#XMLID_00000095333680953335215190000017493885289104559262_);}
	.st557{fill:url(#XMLID_00000097472850990076808520000007832637493637053826_);}
	.st558{fill:url(#XMLID_00000078011736166826067850000014701747279773897088_);}
	.st559{fill:url(#XMLID_00000096738233947831455320000012898724483132047270_);}
	.st560{fill:url(#XMLID_00000085956683373983380570000002745352436162204596_);}
	.st561{fill:url(#XMLID_00000122713728129931061750000017295641893020477887_);}
	.st562{fill:url(#XMLID_00000122688705366010196000000017249847380818418086_);}
	.st563{fill:url(#XMLID_00000017483099483519864940000008761372751439987108_);}
	.st564{fill:url(#XMLID_00000124843075997662780100000017117532480644136343_);}
	.st565{fill:url(#XMLID_00000169551036489572917030000014242063635771173272_);}
	.st566{fill:url(#XMLID_00000041268279346503415070000018043855427485221537_);}
	.st567{fill:url(#XMLID_00000141413842656310284600000005738552030787428750_);}
	.st568{fill:url(#XMLID_00000183967191836587146490000005352598237108736958_);}
	.st569{fill:url(#XMLID_00000116200417971455053240000001879297023347291009_);}
	.st570{fill:url(#XMLID_00000118369793347544814580000015088496879148430728_);}
	.st571{fill:url(#XMLID_00000123416494773472585220000007583543783669190555_);}
	.st572{fill:url(#XMLID_00000136407829495454104790000017930046635475743148_);}
	.st573{fill:url(#XMLID_00000123414862870222597750000014984748550104332735_);}
	.st574{fill:url(#XMLID_00000099659557430968141720000008092417781556804281_);}
	.st575{fill:url(#XMLID_00000062190627013988828170000003929949697785675913_);}
	.st576{fill:url(#XMLID_00000172409222598746049360000011316059213158949541_);}
	.st577{fill:url(#XMLID_00000036247618975130927400000003546639808679889593_);}
	.st578{fill:url(#XMLID_00000026847024729567549070000016296415348667664771_);}
	.st579{fill:url(#XMLID_00000167365693106168221080000012372104236529242247_);}
	.st580{fill:url(#XMLID_00000157292882333971777220000013344320984722162568_);}
	.st581{fill:url(#XMLID_00000101794332074746693800000003375619996315889341_);}
	.st582{fill:url(#XMLID_00000014617920513499404390000017685785811724637349_);}
	.st583{fill:url(#XMLID_00000009564630026566642640000015799411317115760055_);}
	.st584{fill:url(#XMLID_00000057867622795959051340000017097786013614502060_);}
	.st585{fill:url(#XMLID_00000035518624800711173470000002694358732174586298_);}
	.st586{fill:url(#XMLID_00000114791728650567693350000010971500965155821984_);}
	.st587{fill:url(#XMLID_00000012454446521904737610000018269117203391907722_);}
	.st588{fill:url(#XMLID_00000015345975484332179210000013639101202133767042_);}
	.st589{fill:url(#XMLID_00000065792851448365832160000007508804586162295977_);}
	.st590{fill:url(#XMLID_00000048493946096382939950000013495883458713620138_);}
	.st591{fill:url(#XMLID_00000069359954808746494610000008966770562879619244_);}
	.st592{fill:url(#XMLID_00000084520975731316341400000009733892577528194191_);}
	.st593{fill:url(#XMLID_00000078042226253749500990000018085659536532211095_);}
	.st594{fill:url(#XMLID_00000008833572483450856050000003010125593868367772_);}
	.st595{fill:url(#XMLID_00000096775892093439321350000010798723771117669783_);}
	.st596{fill:url(#XMLID_00000168795043085203058800000009651905586733046440_);}
	.st597{fill:url(#XMLID_00000016785258638689711280000002892837422534946206_);}
	.st598{fill:#FCFDFF;}
	.st599{fill:#757576;}
	.st600{fill:#D4D3D3;}
	.st601{fill:#E2E4E0;}
	.st602{fill:#B5B4B4;}
	.st603{fill:#908F8A;}
	.st604{fill:#F6F6F5;}
	.st605{fill:#3E4046;}
	.st606{fill:#525557;}
	.st607{fill:#E1E2E2;}
	.st608{fill:#E8E9EA;}
	.st609{fill:#2B2E35;}
	.st610{fill:#64666B;}
	.st611{fill:url(#XMLID_00000172404823959354229850000010623933476215748018_);}
	.st612{fill:#F0F0F0;}
	.st613{fill:#757779;}
	.st614{fill:#191B22;}
	.st615{fill:#14181E;}
	.st616{fill:#11141A;}
	.st617{fill:#DAEBE7;}
	.st618{fill:#7F8082;}
	.st619{fill:#A7B3B4;}
	.st620{fill:#3C575C;}
	.st621{fill:#CED6D6;}
	.st622{fill:#1A3A66;}
	.st623{fill:#2887C4;}
	.st624{fill:#66C3D8;}
	.st625{fill:#07282F;}
	.st626{fill:#8B9B9D;}
	.st627{fill:#72888C;}
	.st628{fill:#7F1710;}
	.st629{fill:#C3253D;}
	.st630{fill:#D9648A;}
	.st631{fill:#A24817;}
	.st632{fill:#DAA802;}
	.st633{fill:#EEB219;}
	.st634{fill:#424242;}
	.st635{fill:#474646;}
	.st636{fill:#AAB545;}
	.st637{fill:#C17D11;}
	.st638{fill:#CACCD2;}
	.st639{fill:#B6BCC6;}
	.st640{fill:#353842;}
	.st641{fill:#585C64;}
	.st642{fill:#454852;}
	.st643{fill:#62656C;}
	.st644{fill:#72757B;}
	.st645{fill:#3A3D42;}
	.st646{fill:#494D53;}
	.st647{fill:#161A24;}
	.st648{fill:#4C4F58;}
	.st649{fill:#666970;}
	.st650{fill:#7F7F83;}
	.st651{fill:#383C40;}
	.st652{fill:#1E222B;}
	.st653{fill:url(#XMLID_00000043442378900874067780000000994775851734785183_);}
	.st654{fill:#3D4049;}
	.st655{fill:url(#XMLID_00000107550856177603590120000005378085802924668840_);}
	.st656{fill:#30333C;}
	.st657{fill:#474D57;}
	.st658{fill:#75787F;}
	.st659{fill:#2F7E9D;}
	.st660{fill:#6DC0B2;}
	.st661{fill:url(#XMLID_00000106855865404624721920000002068025197095968162_);}
	.st662{fill:#F1F8FA;}
	.st663{fill:url(#XMLID_00000132804715332793391300000017626464176996790691_);}
	.st664{fill:url(#XMLID_00000031178702880100103800000000196622781013182111_);}
	.st665{fill:#ECF6F9;}
	.st666{fill:url(#XMLID_00000103252770698875668670000017421744980025535368_);}
	.st667{fill:url(#XMLID_00000172406319048393840320000008039031019564989084_);}
	.st668{fill:#CFE4F1;}
	.st669{fill:#DADADA;}
	.st670{fill:#D32D16;}
	.st671{fill:#176581;}
	.st672{fill:#9ED1F2;}
	.st673{fill:#1B222D;}
	.st674{fill:#EBE9EA;}
	.st675{fill:#C9CED5;}
	.st676{fill:#E1E0E0;}
	.st677{fill:#E7E6E6;}
	.st678{fill:#E8E7E7;}
	.st679{fill:#BFCBDD;}
	.st680{fill:#9D958F;}
	.st681{fill:#FFDC04;}
	.st682{fill:#B21828;}
	.st683{fill:#D8408F;}
	.st684{fill:#574997;}
	.st685{fill:#356AB1;}
	.st686{fill:#45B3E7;}
	.st687{fill:#2D8A36;}
	.st688{fill:#D0CFD0;}
	.st689{fill:#98A88B;}
	.st690{fill:#F8E825;}
	.st691{fill:#CB1333;}
	.st692{fill:url(#XMLID_00000038408589611414327330000000665753703744798899_);}
	.st693{fill:#0B0E18;}
	.st694{fill:#40424A;}
	.st695{fill:url(#XMLID_00000062161407321923646590000008236169973792370577_);}
	.st696{fill:#71757D;}
	.st697{fill:#C2C2C4;}
	.st698{fill:url(#XMLID_00000044857746222273608400000014342937021612105119_);}
	.st699{fill:#9DA094;}
	.st700{fill:#D4D4D4;}
	.st701{fill:url(#XMLID_00000170239135355484314120000014090636111470455195_);}
	.st702{fill:url(#XMLID_00000016067271709158224210000001883890709871053185_);}
	.st703{fill:#E8E8E8;}
	.st704{fill:#15120B;}
	.st705{fill:#4C4842;}
	.st706{fill:#74AEDF;}
	.st707{fill:#413D3F;}
	.st708{fill:#48494A;}
	.st709{fill:#080504;}
	.st710{fill:#4E4D4D;}
	.st711{fill:#A1A0A0;}
	.st712{fill:#FBEEF5;}
	.st713{fill:#BFBEBE;}
	.st714{fill:#015A64;}
	.st715{fill:#B81818;}
	.st716{fill:#8C811D;}
	.st717{fill:#03709B;}
	.st718{fill:#E74B1E;}
	.st719{fill:#F2B000;}
	.st720{fill:#E33335;}
	.st721{fill:#F8F09C;}
	.st722{fill:#FAEF81;}
	.st723{fill:#E7A8CB;}
	.st724{fill:#CD90BE;}
	.st725{fill:#847A73;}
	.st726{fill:#CCCBCB;}
	.st727{fill:#EDECEC;}
	.st728{fill:#9D9D9D;}
	.st729{fill:#EFEFEF;}
	.st730{fill:#4F525A;}
	.st731{fill:#E15C48;}
	.st732{fill:url(#XMLID_00000043449463925729901410000002189653062334835879_);}
	.st733{fill:url(#XMLID_00000080178712713075694780000002628161691460490919_);}
	.st734{fill:url(#XMLID_00000135664249058656930460000001434906337311355529_);}
	.st735{fill:url(#XMLID_00000032608277357890456890000012454500647189291703_);}
	.st736{fill:url(#XMLID_00000172406806722162797710000016192101961331671722_);}
	.st737{fill:#9E9D9D;}
	.st738{fill:#9DCBEF;}
	.st739{fill:#010000;}
	.st740{fill:url(#SVGID_00000031188723933743467660000013158777472835301786_);}
	.st741{fill:url(#SVGID_00000003093772711899075960000015909169295366664353_);}
	.st742{fill:url(#SVGID_00000081614169984881342230000012930968025512050582_);}
	.st743{fill:#D2D2D2;}
	.st744{fill:#232C35;}
	.st745{fill:#E39470;}
	.st746{fill:url(#XMLID_00000023250850871385485750000005362588952593002371_);}
	.st747{fill:#9DA6AC;}
	.st748{fill:#72979F;}
	.st749{fill:#96A1AB;}
	.st750{fill:#5F7887;}
	.st751{fill:#CC1B31;}
	.st752{fill:url(#XMLID_00000142144137442174222560000003808816919825793696_);}
	.st753{fill:url(#XMLID_00000048461879226472496660000002160510526306710700_);}
	.st754{fill:url(#XMLID_00000048473409321643368930000007113788347056586942_);}
	.st755{fill:#C0C4B6;}
	.st756{fill:#CEE8EC;}
	.st757{fill:url(#XMLID_00000098901097550991461990000005788942485357070720_);}
	.st758{fill:url(#XMLID_00000045614969819803942900000008015874697721821574_);}
	.st759{fill:#384C5A;}
	.st760{fill:url(#XMLID_00000013157281909953407340000003974497326893659776_);}
	.st761{fill:#ED9E02;}
	.st762{fill:#FFE253;}
	.st763{fill:#F7C318;}
	.st764{fill:#DDB988;}
	.st765{fill:#D2A37C;}
	.st766{fill:#C98666;}
	.st767{fill:#2C7EAE;}
	.st768{fill:#A61916;}
	.st769{fill:#E6704B;}
	.st770{fill:#DF3118;}
	.st771{fill:#00648A;}
	.st772{fill:#4CB0E4;}
	.st773{fill:#2178BD;}
	.st774{fill:#058A38;}
	.st775{fill:#6EB761;}
	.st776{fill:#4DAD3C;}
	.st777{fill:#283373;}
	.st778{fill:#4A60A8;}
	.st779{fill:#274394;}
	.st780{fill:#49267F;}
	.st781{fill:#7C559E;}
	.st782{fill:#693D8F;}
	.st783{fill:#871D6C;}
	.st784{fill:#C5569A;}
	.st785{fill:#CA1781;}
	.st786{fill:#2D1B1B;}
	.st787{fill:#8A5655;}
	.st788{fill:#734748;}
	.st789{fill:url(#XMLID_00000179626242177666684570000010041188137874666653_);}
	.st790{fill:#A3B5D1;}
	.st791{fill:#04559C;}
</style>
<g>
	<g>
		<path class="st0" d="M179.32,67.5c-57.3,7.56-115.35,7.56-172.65,0C3,66.99,0,63.55,0,59.88c0-15.53,0-31.06,0-46.59
			c0-3.66,3-7.11,6.67-7.62c57.3-7.56,115.35-7.56,172.65,0c3.67,0.51,6.67,3.95,6.67,7.62c0,15.53,0,31.06,0,46.59
			C185.99,63.54,182.99,66.99,179.32,67.5z"/>
	</g>
	<g>
		<g>
			<path class="st94" d="M157.67,35.28l0.26,12.06c0.02,0.95,0.1,1.65,0.26,2.09c0.16,0.44,0.47,0.84,0.93,1.21
				c0.37,0.3,0.63,0.55,0.75,0.76c0.13,0.21,0.2,0.48,0.2,0.82c0.04,1.79-1.89,2.73-5.8,2.81c-2.1,0.05-3.77-0.11-5-0.48
				c-0.42-0.14-0.77-0.36-1.03-0.71c-0.27-0.34-0.4-0.73-0.41-1.17c-0.01-0.38,0.05-0.67,0.18-0.88c0.13-0.21,0.46-0.55,0.99-1.01
				c0.36-0.33,0.61-0.85,0.75-1.58c0.14-0.72,0.2-1.8,0.17-3.22c-0.01-0.45-0.06-1.3-0.14-2.56c-0.07-1.25-0.13-1.98-0.15-2.19
				c-0.08-0.57-0.43-0.99-1.03-1.28c-0.75-0.36-1.13-0.91-1.15-1.64c-0.02-0.87,0.45-1.53,1.41-1.98c1.33-0.62,2.75-1.16,4.27-1.6
				c1.53-0.45,2.7-0.68,3.54-0.7C157.31,33.99,157.65,34.41,157.67,35.28"/>
			<path class="st94" d="M41.54,36.33c2.08-0.05,3.85,0.52,5.32,1.71c0.77,0.63,1.32,1.37,1.65,2.2c0.33,0.83,0.5,1.97,0.53,3.45
				l0.03,3.09c0.05,2.14,0.2,3.53,0.48,4.17c0.15,0.3,0.27,0.49,0.4,0.57c0.12,0.08,0.37,0.16,0.75,0.21
				c0.38,0.06,0.57,0.35,0.58,0.86c0.01,0.67-0.2,1.36-0.64,2.09c-0.44,0.73-1.03,1.34-1.74,1.85c-0.88,0.62-1.81,0.95-2.79,0.97
				c-1.25,0.03-2.26-0.46-3.01-1.43c-0.25-0.35-0.49-0.53-0.7-0.52c-0.24,0.01-0.56,0.19-0.94,0.54c-1.18,1.03-2.52,1.57-4.03,1.6
				c-1.57,0.03-2.84-0.33-3.82-1.08c-0.65-0.5-1.16-1.16-1.55-1.97c-0.39-0.82-0.59-1.68-0.61-2.58c-0.03-1.43,0.45-2.72,1.43-3.85
				c1.53-1.77,3.85-2.7,6.97-2.79c0.69-0.01,1.12-0.1,1.31-0.26c0.17-0.17,0.25-0.54,0.24-1.12c-0.03-1.47-0.18-2.52-0.46-3.17
				c-0.27-0.65-0.71-0.98-1.3-0.96c-0.36,0.01-0.68,0.15-0.95,0.4c-0.28,0.26-0.62,0.72-1.02,1.39c-1.02,1.78-2.11,2.69-3.28,2.71
				c-0.58,0.01-1.06-0.18-1.45-0.57c-0.38-0.39-0.57-0.91-0.59-1.57c-0.01-0.67,0.2-1.33,0.64-2c0.45-0.68,1.06-1.27,1.84-1.78
				C36.94,37.09,39.19,36.38,41.54,36.33 M40.59,48.37c-0.53,0.01-0.97,0.27-1.35,0.78c-0.38,0.51-0.56,1.1-0.55,1.8
				c0.01,0.66,0.17,1.19,0.44,1.6c0.29,0.41,0.66,0.6,1.11,0.59c0.96-0.02,1.41-0.97,1.37-2.83c-0.02-0.76-0.1-1.28-0.24-1.53
				C41.24,48.51,40.97,48.38,40.59,48.37"/>
			<path class="st94" d="M72.93,29.67l0.4,18.95c0.02,1.08,0.07,1.77,0.15,2.08c0.09,0.3,0.32,0.59,0.68,0.88
				c0.43,0.33,0.73,0.63,0.88,0.89c0.16,0.26,0.24,0.57,0.24,0.94c0.02,1.12-0.91,1.98-2.82,2.6c-1.73,0.54-3.46,0.84-5.18,0.88
				c-0.38,0.01-0.63-0.06-0.75-0.19c-0.12-0.13-0.2-0.45-0.24-0.94c-0.08-0.7-0.29-1.05-0.67-1.04c-0.2,0.01-0.51,0.22-0.93,0.64
				c-1.19,1.18-2.54,1.78-4.03,1.81c-1.85,0.04-3.53-0.72-5.04-2.29c-0.89-0.94-1.62-2.01-2.19-3.25c-0.75-1.6-1.15-3.24-1.18-4.9
				c-0.04-1.95,0.39-3.84,1.28-5.67c0.83-1.69,1.97-3,3.43-3.94c1.23-0.78,2.45-1.18,3.65-1.21c1.38-0.03,2.63,0.31,3.74,1
				c0.18,0.11,0.33,0.16,0.44,0.16c0.38-0.01,0.55-0.6,0.53-1.79c-0.01-0.51-0.12-0.91-0.34-1.17c-0.21-0.27-0.59-0.49-1.13-0.68
				c-0.75-0.26-1.14-0.73-1.15-1.43c-0.02-1.01,0.83-1.81,2.54-2.41c3.04-1.05,5.07-1.59,6.11-1.61
				C72.38,27.98,72.91,28.54,72.93,29.67 M63.42,40.32c-0.78,0.02-1.38,0.51-1.81,1.46c-0.58,1.29-0.85,2.97-0.81,5.05
				c0.04,1.88,0.36,3.29,0.96,4.24c0.43,0.68,1.01,1.02,1.73,1c0.77-0.02,1.33-0.55,1.65-1.61c0.33-1.05,0.47-2.74,0.42-5.07
				c-0.05-2.13-0.28-3.54-0.72-4.24C64.52,40.61,64.04,40.34,63.42,40.32"/>
			<path class="st94" d="M85.97,36.82l0.26,12.06c0.02,0.95,0.11,1.65,0.27,2.09c0.15,0.44,0.47,0.84,0.92,1.2
				c0.38,0.3,0.64,0.55,0.76,0.76c0.13,0.21,0.2,0.48,0.21,0.82c0.04,1.79-1.9,2.73-5.8,2.81c-2.1,0.05-3.77-0.11-5.01-0.48
				c-0.42-0.14-0.76-0.36-1.02-0.71c-0.27-0.34-0.41-0.73-0.41-1.17c-0.01-0.38,0.05-0.67,0.18-0.88c0.13-0.21,0.46-0.55,0.98-1.01
				c0.37-0.33,0.62-0.85,0.76-1.58c0.14-0.72,0.2-1.8,0.17-3.22c-0.01-0.45-0.06-1.3-0.14-2.56c-0.08-1.25-0.14-1.98-0.17-2.19
				c-0.08-0.57-0.42-0.99-1.03-1.28c-0.75-0.36-1.13-0.91-1.15-1.64c-0.02-0.87,0.46-1.53,1.42-1.98c1.32-0.62,2.74-1.16,4.26-1.6
				c1.52-0.45,2.7-0.68,3.53-0.7C85.61,35.54,85.95,35.96,85.97,36.82 M82.23,27.8c1.04-0.02,1.87,0.19,2.48,0.62
				c0.62,0.43,0.93,1.04,0.95,1.8c0.02,1.06-0.41,1.92-1.33,2.56c-1.44,1.01-3.18,1.55-5.25,1.59c-0.88,0.02-1.57-0.16-2.09-0.54
				c-0.7-0.49-1.06-1.16-1.08-2.05c-0.02-1.19,0.69-2.14,2.14-2.84C79.53,28.21,80.93,27.83,82.23,27.8"/>
			<path class="st94" d="M97.84,35.23c0.73-0.02,1.19,0.05,1.37,0.19c0.18,0.14,0.28,0.51,0.29,1.08c0.01,0.51,0.16,0.76,0.45,0.75
				c0.12,0,0.51-0.27,1.18-0.81c0.51-0.41,1.15-0.76,1.94-1.05c0.79-0.28,1.51-0.43,2.15-0.45c1.52-0.03,2.88,0.54,4.11,1.74
				c0.92,0.91,1.65,2.07,2.18,3.46c0.56,1.48,0.85,3.02,0.89,4.66c0.07,3.49-0.89,6.39-2.86,8.68c-1.53,1.79-3.28,2.71-5.29,2.75
				c-1.01,0.02-2.06-0.23-3.15-0.77c-0.22-0.11-0.4-0.15-0.52-0.15c-0.36,0.01-0.53,0.42-0.51,1.25c0.02,1.09,0.36,1.87,1,2.34
				c0.59,0.45,0.95,0.74,1.07,0.9c0.11,0.16,0.18,0.42,0.19,0.79c0.02,0.83-0.38,1.48-1.17,1.95c-0.79,0.47-1.91,0.72-3.37,0.75
				c-2.6,0.05-4.88-0.5-6.84-1.66c-1.01-0.58-1.52-1.33-1.54-2.23c-0.01-0.41,0.06-0.73,0.2-0.95c0.16-0.22,0.44-0.45,0.86-0.69
				c0.62-0.35,0.98-0.96,1.1-1.83c0.11-0.87,0.17-3.38,0.16-7.52c-0.16-3.4-0.31-5.3-0.45-5.72c-0.06-0.13-0.13-0.22-0.21-0.26
				c-0.1-0.04-0.39-0.11-0.9-0.21c-0.38-0.08-0.7-0.27-0.94-0.59c-0.25-0.32-0.37-0.71-0.38-1.17c-0.01-0.55,0.14-1.04,0.46-1.47
				c0.33-0.43,0.86-0.86,1.61-1.27C93.82,36.14,96.12,35.3,97.84,35.23 M99.77,43.04l-0.15,5.71c-0.01,0.25-0.01,0.47,0,0.69
				c0.01,0.43,0.18,0.77,0.51,1.03c0.32,0.25,0.76,0.38,1.29,0.36c1.65-0.04,2.44-1.62,2.38-4.76c-0.04-2.04-0.42-3.46-1.13-4.28
				c-0.45-0.5-0.97-0.75-1.56-0.73C100.27,41.08,99.82,41.74,99.77,43.04"/>
			<path class="st94" d="M123.79,38.79l0.14,6.66c0.06,2.95,0.14,4.66,0.23,5.15c0.08,0.48,0.38,0.85,0.9,1.11
				c0.44,0.21,0.75,0.41,0.9,0.61c0.15,0.18,0.23,0.46,0.24,0.82c0.01,0.46-0.12,0.87-0.4,1.25c-0.26,0.38-0.63,0.65-1.1,0.82
				c-0.86,0.32-2.3,0.51-4.34,0.55c-2.3,0.05-3.93-0.12-4.87-0.5c-0.43-0.17-0.79-0.44-1.07-0.82c-0.28-0.37-0.43-0.76-0.44-1.18
				c-0.01-0.34,0.06-0.6,0.21-0.77c0.14-0.19,0.46-0.41,0.96-0.66c0.46-0.25,0.74-0.9,0.82-1.96c0.16-1.79,0.2-4.36,0.13-7.68
				c-0.07-3.38-0.2-5.54-0.39-6.5c-0.19-0.97-0.62-1.68-1.3-2.14c-0.5-0.32-0.86-0.63-1.05-0.93c-0.19-0.29-0.3-0.65-0.3-1.08
				c-0.02-0.68,0.26-1.28,0.81-1.79c0.55-0.52,1.43-1.01,2.66-1.46c0.81-0.31,1.88-0.61,3.19-0.9c1.31-0.29,2.26-0.44,2.86-0.46
				c0.94-0.02,1.43,0.64,1.46,2.01c0.01,0.44-0.03,1.46-0.12,3.05C123.82,34.45,123.77,36.73,123.79,38.79"/>
			<path class="st94" d="M137.11,34.27c2.08-0.05,3.85,0.52,5.32,1.71c0.77,0.63,1.33,1.36,1.65,2.2c0.32,0.83,0.5,1.97,0.53,3.45
				l0.03,3.09c0.04,2.14,0.21,3.53,0.48,4.17c0.14,0.3,0.27,0.49,0.4,0.56c0.11,0.08,0.36,0.16,0.75,0.21
				c0.39,0.06,0.58,0.35,0.59,0.86c0.02,0.67-0.2,1.36-0.65,2.09c-0.44,0.73-1.02,1.34-1.74,1.85c-0.88,0.62-1.81,0.95-2.79,0.97
				c-1.25,0.03-2.25-0.46-3-1.43c-0.26-0.35-0.5-0.53-0.71-0.52c-0.24,0.01-0.55,0.19-0.94,0.54c-1.17,1.03-2.52,1.57-4.04,1.6
				c-1.57,0.03-2.83-0.33-3.82-1.08c-0.65-0.5-1.15-1.16-1.54-1.97c-0.39-0.82-0.59-1.68-0.61-2.58c-0.03-1.43,0.44-2.72,1.42-3.85
				c1.53-1.77,3.85-2.7,6.97-2.79c0.69-0.02,1.12-0.1,1.3-0.26c0.17-0.16,0.26-0.54,0.24-1.12c-0.03-1.47-0.19-2.52-0.46-3.17
				c-0.28-0.65-0.71-0.98-1.31-0.96c-0.36,0.01-0.69,0.15-0.95,0.4c-0.27,0.26-0.62,0.72-1.02,1.39c-1.03,1.78-2.12,2.69-3.28,2.71
				c-0.59,0.01-1.06-0.18-1.45-0.57c-0.38-0.39-0.57-0.91-0.58-1.57c-0.01-0.67,0.2-1.33,0.65-2.01c0.44-0.68,1.06-1.27,1.83-1.78
				C132.51,35.02,134.76,34.32,137.11,34.27 M136.16,46.31c-0.52,0.01-0.98,0.27-1.36,0.77c-0.38,0.51-0.55,1.1-0.54,1.8
				c0.02,0.66,0.16,1.2,0.44,1.6c0.28,0.41,0.66,0.6,1.11,0.59c0.96-0.02,1.41-0.97,1.37-2.83c-0.02-0.76-0.1-1.27-0.24-1.53
				C136.8,46.45,136.54,46.31,136.16,46.31"/>
			<path class="st94" d="M21.99,33.39c-0.83,0.02-1.33,0.27-1.51,0.76c-0.13,0.37-0.26,1.07-0.36,2.13c-0.1,1.05-0.14,2-0.12,2.86
				c0.01,0.51,0.16,0.86,0.45,1.05c0.29,0.19,0.83,0.27,1.62,0.25c0.53-0.01,0.91-0.13,1.16-0.36c0.25-0.23,0.41-0.6,0.5-1.13
				c0.24-1.51,0.78-2.28,1.63-2.3c1.46-0.03,2.23,1.97,2.31,6.01c0.05,2.56-0.22,4.45-0.82,5.66c-0.38,0.75-0.89,1.12-1.55,1.13
				c-0.71,0.02-1.12-0.52-1.26-1.61c-0.07-0.7-0.15-1.2-0.25-1.49c-0.11-0.29-0.28-0.56-0.53-0.82c-0.41-0.41-0.99-0.62-1.74-0.61
				c-0.53,0.01-0.9,0.13-1.08,0.36c-0.19,0.23-0.26,0.65-0.23,1.28c0,0.11,0.01,0.75,0.02,1.93c0.05,2.39,0.29,3.84,0.74,4.37
				c0.15,0.2,0.29,0.34,0.44,0.4c0.15,0.06,0.55,0.13,1.19,0.24c0.31,0.04,0.57,0.23,0.8,0.54c0.22,0.31,0.33,0.68,0.34,1.09
				c0.02,1.07-0.5,1.76-1.57,2.09c-1.54,0.47-3.72,0.73-6.53,0.79c-2.46,0.05-4.16-0.08-5.1-0.39c-0.42-0.14-0.77-0.42-1.03-0.81
				c-0.27-0.4-0.41-0.84-0.42-1.32C9.08,54.88,9.26,54.38,9.63,54c0.1-0.08,0.42-0.27,0.97-0.54c0.66-0.31,1.05-1.03,1.16-2.14
				c0.19-1.7,0.21-5.59,0.08-11.65c-0.06-2.61-0.17-4.31-0.34-5.08c-0.17-0.77-0.55-1.3-1.16-1.59c-0.6-0.29-1-0.55-1.19-0.77
				c-0.19-0.23-0.29-0.55-0.3-0.98c-0.01-0.61,0.24-1.12,0.74-1.54c0.51-0.41,1.13-0.64,1.88-0.65c0.48-0.01,1.18,0.01,2.1,0.08
				c1.95,0.14,4.28,0.17,7,0.12c4.33-0.09,7.24-0.3,8.74-0.6c0.21-0.04,0.36-0.04,0.47-0.05c0.42-0.01,0.82,0.26,1.22,0.8
				c1.08,1.52,1.65,3.23,1.69,5.11c0.02,0.86-0.15,1.55-0.48,2.07c-0.34,0.51-0.79,0.79-1.34,0.8c-0.42,0.01-0.74-0.08-0.96-0.27
				c-0.22-0.19-0.78-0.86-1.69-2c-0.56-0.71-1.22-1.16-1.98-1.37C25.48,33.53,24.06,33.41,21.99,33.39"/>
			<path class="st94" d="M171.51,38.98l0.15,7.02c0.02,0.83,0.21,1.5,0.57,2.02c0.37,0.52,0.82,0.77,1.37,0.76
				c0.46-0.01,1.07-0.27,1.83-0.79c0.18-0.13,0.35-0.2,0.53-0.2c0.29,0,0.55,0.19,0.8,0.59c0.25,0.4,0.37,0.83,0.38,1.3
				c0.02,0.86-0.37,1.69-1.16,2.5c-1.66,1.71-3.7,2.59-6.11,2.65c-1.91,0.04-3.46-0.55-4.64-1.78c-1.18-1.23-1.8-2.87-1.84-4.92
				l-0.2-9.59c-0.01-0.32-0.04-0.51-0.11-0.58c-0.07-0.08-0.23-0.11-0.51-0.11l-1.85,0.04c-0.35,0.01-0.57-0.06-0.67-0.18
				c-0.1-0.14-0.15-0.44-0.16-0.93l-0.02-0.91c0-0.41,0.13-0.72,0.39-0.92l8.08-6.15c0.2-0.14,0.45-0.2,0.75-0.21l1.45-0.03
				c0.3-0.01,0.5,0.07,0.6,0.23c0.1,0.15,0.16,0.46,0.17,0.93l0.06,2.81c0.01,0.41,0.08,0.68,0.19,0.8
				c0.11,0.12,0.36,0.19,0.73,0.18l3.31-0.07c0.44-0.01,0.73,0.07,0.87,0.26c0.14,0.18,0.21,0.57,0.23,1.18l0.03,1.22
				c0.01,0.67-0.06,1.13-0.22,1.39c-0.17,0.26-0.47,0.39-0.91,0.4l-3.24,0.07c-0.33,0.01-0.56,0.08-0.68,0.21
				C171.56,38.33,171.5,38.6,171.51,38.98"/>
		</g>
		<g>
			<path class="st95" d="M151.02,18.94c0,0,7.8-0.75,8.72,7.07c0,0-0.02,9.23-8.78,8c0,0-6.27-1.04-6.23-7.87
				C144.73,26.14,145.03,20.15,151.02,18.94"/>
			<path class="st95" d="M152.15,18.79c0,0,3.9-9.17,0.4-12c0,0-2.63-1.36-2.44,2.92C150.3,13.99,152.15,18.79,152.15,18.79"/>
			<path class="st95" d="M157.73,20.9c0,0,8.62-4.3,7.69-8.69c0,0-1.17-2.73-3.65,0.58C159.27,16.11,157.73,20.9,157.73,20.9"/>
			<path class="st95" d="M159.98,25.93c0,0,9.38,3.3,11.35-1.43c0,0,0.77-3.43-3.21-2.52C164.14,22.91,159.98,25.93,159.98,25.93"/>
			<path class="st95" d="M146.91,20.58c0,0-4.95-9.51-8.61-7.79c0,0-2.19,1.76,1.03,4.21C142.55,19.44,146.91,20.58,146.91,20.58"/>
			<path class="st95" d="M144.44,26.37c0,0-9.07-5.57-11.34-2.19c0,0-0.99,2.65,3.02,3.07C140.13,27.67,144.44,26.37,144.44,26.37"
				/>
			<path class="st95" d="M157.99,31.91c0,0,6.25,1.8,6.2,4.74c0,0-0.42,1.9-2.49,0.04C159.63,34.82,157.99,31.91,157.99,31.91"/>
			<path class="st95" d="M146.28,31.83c0,0-6.99,2.69-6.12,5.43c0,0,1.03,1.71,2.99-0.37C145.12,34.82,146.28,31.83,146.28,31.83"/>
		</g>
	</g>
</g>
</svg>
