<?xml version="1.0" encoding="utf-8"?>
<!-- Generator: Adobe Illustrator 26.0.2, SVG Export Plug-In . SVG Version: 6.00 Build 0)  -->
<svg version="1.1" id="Calque_1" xmlns="http://www.w3.org/2000/svg" xmlns:xlink="http://www.w3.org/1999/xlink" x="0px" y="0px"
	 viewBox="0 0 77.49 65.49" style="enable-background:new 0 0 77.49 65.49;" xml:space="preserve">
<style type="text/css">
	.st0{fill:#FFFFFF;}
	.st1{opacity:0.35;fill:url(#SVGID_1_);}
	.st2{opacity:0.35;}
	.st3{opacity:0.25;fill:url(#SVGID_00000021103270661571163890000010025985389894800033_);}
	.st4{opacity:0.27;fill:url(#SVGID_00000116919717392709716270000016559483041133284010_);}
	.st5{opacity:0.17;fill:url(#SVGID_00000085217633997039857360000012088967242035405218_);}
	.st6{opacity:0.62;fill:url(#SVGID_00000159454062268682409780000017564656415862361782_);}
	.st7{opacity:0.37;fill:url(#SVGID_00000119819823555838869050000010179308880657008552_);}
	.st8{opacity:0.47;fill:url(#SVGID_00000065772557432406465420000004552663368889065913_);}
	.st9{opacity:0.47;fill:url(#SVGID_00000005263258224535257570000003391282919836339903_);}
	.st10{opacity:0.47;fill:url(#SVGID_00000078031366856968547400000004043487125477697169_);}
	.st11{opacity:0.48;fill:url(#SVGID_00000011746250894477861370000013753175446358116775_);}
	.st12{opacity:0.48;fill:url(#SVGID_00000181783521842917331210000017510662581556431795_);}
	.st13{opacity:0.4;fill:url(#SVGID_00000033352288149294533010000009605878822709059262_);}
	.st14{fill:#3A63A4;}
	.st15{fill:#CCD35F;}
	.st16{fill:#4B4392;}
	.st17{fill:#2CA696;}
	.st18{fill:#D71158;}
	.st19{fill:#F9BB5A;}
	.st20{fill:#EFB349;}
	.st21{fill:#EC6C44;}
	.st22{fill:#25B1A2;}
	.st23{fill:#CB3580;}
	.st24{fill:#F8DC91;}
	.st25{fill:#C2367E;}
	.st26{fill:#289BB9;}
	.st27{fill:#CC1640;}
	.st28{fill:#4069A8;}
	.st29{fill:#EF8054;}
	.st30{fill:#1B9361;}
	.st31{fill:#1E9CC0;}
	.st32{fill:#8E4794;}
	.st33{fill:#F9B958;}
	.st34{fill:#DF0C1A;}
	.st35{fill:#002D74;}
	.st36{fill:#0069A8;}
	.st37{fill:#15A3DD;}
	.st38{fill:#19A3DD;}
	.st39{fill-rule:evenodd;clip-rule:evenodd;fill:#4AA334;}
	.st40{fill-rule:evenodd;clip-rule:evenodd;fill:#FFFFFF;}
	.st41{fill:#263780;}
	.st42{fill:url(#SVGID_00000087374477878052048960000001512183555582098862_);}
	.st43{fill:url(#SVGID_00000106128782405218254880000016632123832981499269_);}
	.st44{fill:url(#SVGID_00000152981364872062546240000010949005621678487992_);}
	.st45{fill:url(#SVGID_00000092416959611936221500000007038314678773134781_);}
	.st46{fill:url(#SVGID_00000013186540446753693450000012772208049482700182_);}
	.st47{fill:url(#SVGID_00000104687007929059612140000012179637582583327891_);}
	.st48{fill:#AFB6BD;}
	.st49{fill:#31295C;}
	.st50{fill:url(#SVGID_00000046332200278576251850000009328329315175620744_);}
	.st51{fill:url(#SVGID_00000016779454164514527890000012114655861926267779_);}
	.st52{fill:url(#SVGID_00000119095963096413481770000001204145744426219651_);}
	.st53{fill:url(#SVGID_00000065070782015454333510000015106452463643858078_);}
	.st54{fill:url(#SVGID_00000176743055151959788810000014436835458779533200_);}
	.st55{fill:url(#SVGID_00000153697900853325087830000007575126978458660267_);}
	.st56{fill:url(#SVGID_00000121245574643789884190000000426518830974555549_);}
	.st57{fill:url(#SVGID_00000106118554147755266320000017099438057954552736_);}
	.st58{fill:url(#SVGID_00000170974378813712729050000002697144344806343580_);}
	.st59{fill:url(#SVGID_00000091001820436055171410000013401568230446495125_);}
	.st60{fill:url(#SVGID_00000093156517072721300750000016398152429083174577_);}
	.st61{fill:url(#SVGID_00000057854691485330403860000013476027930551227274_);}
	.st62{fill:url(#SVGID_00000048492226584755288790000012108001713042064264_);}
	.st63{fill:url(#SVGID_00000042697915762192975430000001935200563181574314_);}
	.st64{fill:#312782;}
	.st65{fill:#6461A8;}
	.st66{fill:#747473;}
	.st67{fill:#CAC9C9;}
	.st68{fill-rule:evenodd;clip-rule:evenodd;fill:#D81A16;stroke:#1D1D1B;stroke-width:0.25;stroke-miterlimit:10;}
	.st69{fill:none;stroke:#1D1D1B;stroke-width:0.25;stroke-miterlimit:10;}
	.st70{fill:#12110C;}
	.st71{fill:#1D1D1B;}
	.st72{fill:#EF8328;}
	.st73{fill:url(#SVGID_00000142143379536484485140000001593863150735291541_);}
	.st74{fill:url(#SVGID_00000174573085326252613170000015459671358992590214_);}
	.st75{fill:url(#SVGID_00000137134418153848349710000003635443822082516381_);}
	.st76{fill:url(#SVGID_00000062157215558894901170000009904390260047611324_);}
	.st77{opacity:0.6;}
	.st78{fill:url(#SVGID_00000085220844740871057660000014935984751395290759_);}
	.st79{fill:url(#SVGID_00000041977968581574389670000014200542378437855397_);}
	.st80{fill:url(#SVGID_00000176726766299325634680000017524277521367031999_);}
	.st81{fill:url(#SVGID_00000005954307850116284930000006674665448805250472_);}
	.st82{fill:url(#SVGID_00000071553255932734922400000017279288153325486998_);}
	.st83{fill:url(#SVGID_00000011011276129000927990000007219965971703670180_);}
	.st84{fill:url(#SVGID_00000026154893278860087480000014067978931221699717_);}
	.st85{fill:url(#SVGID_00000114038184005938432290000012655505599305225100_);}
	.st86{fill:url(#SVGID_00000127027575962685118760000009727376378959571633_);}
	.st87{fill:url(#SVGID_00000008862902988970235030000011693751971474782626_);}
	.st88{fill:url(#SVGID_00000004505022750882370160000004618896478638494111_);}
	.st89{fill:url(#SVGID_00000073709988900301186170000005755197907695080121_);}
	.st90{fill:url(#SVGID_00000096757284239015843770000001499894482820791691_);}
	.st91{fill:#001689;}
	.st92{fill:none;stroke:#001689;stroke-width:0.881;stroke-linecap:round;stroke-linejoin:round;stroke-miterlimit:10;}
	.st93{fill:#0047BA;}
	.st94{fill:#253D90;}
	.st95{fill:#FFDC00;}
	.st96{fill:#0556A3;}
	.st97{fill:#0369B2;}
	.st98{fill:#5DC3F0;}
	.st99{fill:#DF162E;}
	.st100{fill:#39A7DF;}
	.st101{fill:#1B71B6;}
	.st102{fill-rule:evenodd;clip-rule:evenodd;fill:url(#XMLID_00000060715706917978672010000006927872047238082947_);}
	.st103{fill-rule:evenodd;clip-rule:evenodd;fill:url(#XMLID_00000015342374032798996120000004001376420848185753_);}
	.st104{fill:#91BF25;}
	.st105{fill:#FFDA05;}
	.st106{fill:#E00F1A;}
	.st107{fill-rule:evenodd;clip-rule:evenodd;fill:#213A7B;}
	.st108{fill-rule:evenodd;clip-rule:evenodd;}
	.st109{fill-rule:evenodd;clip-rule:evenodd;fill:#E20C30;}
	.st110{fill:#2B7DB9;}
	.st111{fill:#43AC51;}
	.st112{fill-rule:evenodd;clip-rule:evenodd;fill:#034A91;}
	.st113{fill:#005891;}
	.st114{fill:#E3283B;}
	.st115{fill:#004A93;}
	.st116{fill-rule:evenodd;clip-rule:evenodd;fill:#004A93;}
	.st117{fill-rule:evenodd;clip-rule:evenodd;fill:#FFEA20;}
	.st118{fill-rule:evenodd;clip-rule:evenodd;fill:#DF101C;}
	.st119{fill:#2997D4;}
	.st120{fill:#F18A00;}
	.st121{fill:#09111D;}
	.st122{fill:#A72136;}
	.st123{fill:url(#SVGID_00000101799834430607258340000010386564535552977830_);}
	.st124{fill:url(#SVGID_00000116201474647854494100000012488178246402647953_);}
	.st125{fill:url(#SVGID_00000162325309840340343240000005238342217930275260_);}
	.st126{fill:url(#SVGID_00000052097648915415388350000007277216794052145575_);}
	.st127{fill:url(#SVGID_00000144323060751424071900000011906752228127757735_);}
	.st128{fill:url(#SVGID_00000042015848274623324950000009538638662863375266_);}
	.st129{fill:url(#SVGID_00000183210007478660820110000016461787639989403015_);}
	.st130{fill:url(#SVGID_00000001664518750581968640000010329205065056638872_);}
	.st131{fill:#2D2F34;}
	.st132{fill:url(#SVGID_00000158005116114037587760000009019679458872482709_);}
	.st133{fill:url(#SVGID_00000086654076595447586340000001514380177697869221_);}
	.st134{fill:url(#SVGID_00000145781501037711167390000011055277744583789218_);}
	.st135{fill:url(#SVGID_00000043426824895333344390000012349653433392797580_);}
	.st136{fill:#003DA6;}
	.st137{fill-rule:evenodd;clip-rule:evenodd;fill:#0E579F;stroke:#FFFFFF;stroke-width:1.0001;stroke-miterlimit:2.6131;}
	.st138{fill-rule:evenodd;clip-rule:evenodd;fill:#FFFFFF;stroke:#FFFFFF;stroke-width:0.216;stroke-miterlimit:2.6131;}
	.st139{fill:#1766AD;}
	.st140{fill:#7EB828;}
	.st141{fill:#0D9E39;}
	.st142{fill:#7CB62C;}
	.st143{fill-rule:evenodd;clip-rule:evenodd;fill:#00A0DF;}
	
		.st144{clip-path:url(#SVGID_00000096045741697419173930000015292540955989856933_);fill-rule:evenodd;clip-rule:evenodd;fill:#8CCFF1;}
	
		.st145{clip-path:url(#SVGID_00000096045741697419173930000015292540955989856933_);fill-rule:evenodd;clip-rule:evenodd;fill:#C3E4F5;}
	
		.st146{clip-path:url(#SVGID_00000096045741697419173930000015292540955989856933_);fill-rule:evenodd;clip-rule:evenodd;fill:#FFFFFF;}
	.st147{clip-path:url(#SVGID_00000096045741697419173930000015292540955989856933_);}
	.st148{fill:#83CEEA;}
	.st149{fill-rule:evenodd;clip-rule:evenodd;fill:#65B2E8;}
	.st150{fill-rule:evenodd;clip-rule:evenodd;fill:#0C68AE;}
	.st151{fill-rule:evenodd;clip-rule:evenodd;fill:#00205C;}
	.st152{fill:#00A0DF;}
	.st153{fill:#00205C;}
	.st154{clip-path:url(#SVGID_00000047757860239792956880000017948888118953679523_);}
	.st155{fill:#29A43B;}
	.st156{fill:#BFE1F4;}
	.st157{fill:#D2E9F7;}
	.st158{fill:#444592;}
	.st159{fill:#BBA26A;}
	.st160{fill:#ACB217;}
	.st161{fill:url(#SVGID_00000111872835173258299370000018048233931029871531_);}
	.st162{fill-rule:evenodd;clip-rule:evenodd;fill:#211F1F;}
	.st163{fill:url(#SVGID_00000039840367587966328390000003916885067988764310_);}
	.st164{fill:url(#SVGID_00000168118895595474444050000006604603308275445139_);}
	.st165{fill:url(#SVGID_00000165216072652062779060000013639144655349345174_);}
	.st166{fill:url(#SVGID_00000136389915193141187400000005716832588346212249_);}
	.st167{fill:url(#SVGID_00000003791906601760510120000008142263604539951548_);}
	.st168{fill:url(#SVGID_00000124852357939527881500000005138398933623275442_);}
	.st169{fill:url(#SVGID_00000067918642964359643310000010278418731892666545_);}
	.st170{fill:url(#SVGID_00000076595007502664160000000011944240885501780113_);}
	.st171{fill:url(#SVGID_00000165915024466886078360000001468423798882048689_);}
	.st172{fill:url(#SVGID_00000031897434696720087970000009605578366790101143_);}
	.st173{fill:url(#SVGID_00000082364575873716795220000003457856933001922442_);}
	.st174{fill:url(#SVGID_00000152222499145987912860000009452498064394838953_);}
	.st175{fill:url(#SVGID_00000104706937659194149720000015351983874119735732_);}
	.st176{fill:url(#SVGID_00000069397030048516763070000006999132216587426970_);}
	.st177{fill:url(#SVGID_00000044171329572257027450000017199172549682854808_);}
	.st178{fill:url(#SVGID_00000045597238325644786150000009111735304089951119_);}
	.st179{fill:url(#SVGID_00000046308607827356465740000004397752261965351048_);}
	.st180{fill:url(#SVGID_00000022534540036516870080000017939724067522946961_);}
	.st181{fill:url(#SVGID_00000037678391034426319150000015331681178695760531_);}
	.st182{fill:url(#SVGID_00000145033741720920812530000013044945941284705204_);}
	.st183{fill:url(#SVGID_00000024683262957030768260000012534367285911650202_);}
	.st184{fill:url(#SVGID_00000092436663418926183040000016928949322687857049_);}
	.st185{fill:url(#SVGID_00000011019501586020089040000014791232364642357396_);}
	.st186{fill:url(#SVGID_00000018947846762933284600000011180931491589402530_);}
	.st187{fill:url(#SVGID_00000049924812528771819110000016944103987262272920_);}
	.st188{fill:url(#SVGID_00000108300933497366439290000015475128859731468989_);}
	
		.st189{clip-path:url(#SVGID_00000171696724925921064670000005171603739734876841_);fill:url(#SVGID_00000019666675397706861550000002224783708230549669_);}
	.st190{fill:url(#SVGID_00000124122018594115552700000004187744878134675117_);}
	.st191{fill:url(#SVGID_00000119107323420063288620000003998103373329811885_);}
	.st192{fill:url(#SVGID_00000181777467061362208680000006969407602788304033_);}
	.st193{fill:url(#SVGID_00000147898555514059057990000000477234436098457789_);}
	.st194{fill-rule:evenodd;clip-rule:evenodd;fill:url(#SVGID_00000066485267649521098080000016041070561745568923_);}
	.st195{fill:#F6F0F3;}
	.st196{fill:#F8F4F6;}
	.st197{fill:#FFFCFD;}
	.st198{fill:#0F4D80;}
	.st199{fill:#2F93D1;}
	.st200{display:none;}
	.st201{display:inline;fill:#0F4D80;}
	.st202{display:inline;fill:#2F93D1;}
	.st203{display:inline;fill:#FFFFFF;}
	.st204{opacity:0.3;}
	.st205{fill:#65A1D7;}
	.st206{fill:#E63922;}
	.st207{fill:#33712F;}
	.st208{fill:#509BD5;}
	.st209{fill:#2C88C7;}
	.st210{fill:#A9DBF7;}
	.st211{fill:#EEB68A;}
	.st212{fill:#FBD3AD;}
	.st213{fill:#270C12;}
	.st214{fill:#230A10;}
	.st215{fill:#A2403B;}
	.st216{fill:#C1665D;}
	.st217{fill:#DFECF8;}
	.st218{fill:#411017;}
	.st219{fill:#262626;}
	.st220{opacity:0.47;}
	.st221{fill:#FAD8D5;}
	.st222{fill:#FBE1DE;}
	.st223{fill:#EA808C;}
	.st224{fill:#C9E7F7;}
	.st225{fill:#E5F3FD;}
	.st226{fill:#FDEEEE;}
	.st227{fill:#F7C7C9;}
	.st228{fill:#ECF6F7;}
	.st229{fill:#A0D0F1;}
	.st230{fill:#97C7EC;}
	.st231{fill:#9ECFF1;}
	.st232{fill:#E8F4F6;}
	.st233{fill:#BEE3F5;}
	.st234{fill:#D7EDF6;}
	.st235{fill:#ED705B;}
	.st236{fill:#F9C9BA;}
	.st237{fill:#8BC5EC;}
	.st238{fill:#F5AC9B;}
	.st239{fill:#F1907E;}
	.st240{fill:#D6EDF6;}
	.st241{fill:#4B8739;}
	.st242{fill:#F39B8B;}
	.st243{fill:#C5D4E1;}
	.st244{fill:#F29A9C;}
	.st245{fill:#3C3C3B;}
	.st246{fill:#EE808D;}
	.st247{fill:#187FB9;}
	.st248{fill:#2EA8E0;}
	.st249{fill:#80CEF4;}
	.st250{fill:#BDE3F6;}
	.st251{fill:#EA5B2B;}
	.st252{fill:#E73F2F;}
	.st253{opacity:0.26;fill:#D3B0D4;}
	.st254{fill:url(#SVGID_00000160889491999262447910000014040741836300421530_);}
	.st255{fill:#B7553B;}
	.st256{fill:#E63924;}
	.st257{fill:#441943;}
	.st258{fill:#281028;}
	.st259{fill:#8BCAB9;}
	.st260{fill:#D9271B;}
	.st261{fill:#FCE7E5;}
	.st262{fill:#A9D7CF;}
	.st263{fill:url(#SVGID_00000174596066915268702570000002917649231052479925_);}
	.st264{fill:url(#SVGID_00000139278185014045376570000015034816897405321347_);}
	.st265{fill:url(#SVGID_00000100342301628392298500000014027744842828649147_);}
	.st266{opacity:0.26;fill:#A2403B;}
	.st267{fill:#6E4594;}
	.st268{fill:#B65650;}
	.st269{fill:url(#SVGID_00000065068737104840619580000007132441619931574189_);}
	.st270{fill:#454545;}
	.st271{fill:#A7D9F5;}
	.st272{fill:#24212E;}
	.st273{fill:#6D1B0F;}
	.st274{fill:#3E4055;}
	.st275{fill:#3E4052;}
	.st276{fill:#77491E;}
	.st277{fill:#474A5E;}
	.st278{fill:#24222D;}
	.st279{fill:#D6D6D6;}
	.st280{fill:#F8C6BD;}
	.st281{fill:#3F292A;}
	.st282{fill:#E7E8EC;}
	.st283{fill:#F9D3CA;}
	.st284{fill:#E9B9A6;}
	.st285{fill:#0E0C09;}
	.st286{fill:#CCDADA;}
	.st287{fill:#EDBDAA;}
	.st288{fill:#535459;}
	.st289{fill:#929497;}
	.st290{fill:#3164AC;}
	.st291{fill:#D53939;}
	.st292{fill:#313134;}
	.st293{fill:url(#SVGID_00000161602337214053403240000001143106183814565290_);}
	.st294{fill:url(#SVGID_00000076566521072216990820000014862015967991062452_);}
	.st295{fill:url(#SVGID_00000000934458346001688050000009097848881207586688_);}
	.st296{fill:#E6E7E7;}
	.st297{clip-path:url(#SVGID_00000145029488208398399200000001087052931658354350_);}
	.st298{fill:#F7F6F6;}
	.st299{fill:#0E4D80;}
	.st300{opacity:0.31;}
	.st301{opacity:0;}
	.st302{fill:#010100;}
	.st303{opacity:4.653465e-03;}
	.st304{opacity:9.306931e-03;}
	.st305{opacity:0.014;}
	.st306{opacity:0.0186;}
	.st307{opacity:0.0233;}
	.st308{opacity:0.0279;}
	.st309{opacity:0.0326;}
	.st310{opacity:0.0372;}
	.st311{opacity:0.0419;}
	.st312{opacity:0.0465;}
	.st313{opacity:0.0512;}
	.st314{opacity:0.0558;}
	.st315{opacity:0.0605;}
	.st316{opacity:0.0651;}
	.st317{opacity:0.0698;}
	.st318{opacity:0.0745;}
	.st319{opacity:0.0791;}
	.st320{opacity:0.0838;}
	.st321{opacity:0.0884;}
	.st322{opacity:0.0931;}
	.st323{opacity:0.0977;}
	.st324{opacity:0.1024;}
	.st325{opacity:0.107;}
	.st326{opacity:0.1117;}
	.st327{opacity:0.1163;}
	.st328{opacity:0.121;}
	.st329{opacity:0.1256;}
	.st330{opacity:0.1303;}
	.st331{opacity:0.135;}
	.st332{opacity:0.1396;}
	.st333{opacity:0.1443;}
	.st334{opacity:0.1489;}
	.st335{opacity:0.1536;}
	.st336{opacity:0.1582;}
	.st337{opacity:0.1629;}
	.st338{opacity:0.1675;}
	.st339{opacity:0.1722;}
	.st340{opacity:0.1768;}
	.st341{opacity:0.1815;}
	.st342{opacity:0.1861;}
	.st343{opacity:0.1908;}
	.st344{opacity:0.1954;}
	.st345{opacity:0.2001;}
	.st346{opacity:0.2048;}
	.st347{opacity:0.2094;}
	.st348{opacity:0.2141;}
	.st349{opacity:0.2187;}
	.st350{opacity:0.2234;}
	.st351{opacity:0.228;}
	.st352{opacity:0.2327;}
	.st353{opacity:0.2373;}
	.st354{opacity:0.242;}
	.st355{opacity:0.2466;}
	.st356{opacity:0.2513;}
	.st357{opacity:0.2559;}
	.st358{opacity:0.2606;}
	.st359{opacity:0.2652;}
	.st360{opacity:0.2699;}
	.st361{opacity:0.2746;}
	.st362{opacity:0.2792;}
	.st363{opacity:0.2839;}
	.st364{opacity:0.2885;}
	.st365{opacity:0.2932;}
	.st366{opacity:0.2978;}
	.st367{opacity:0.3025;}
	.st368{opacity:0.3071;}
	.st369{opacity:0.3118;}
	.st370{opacity:0.3164;}
	.st371{opacity:0.3211;}
	.st372{opacity:0.3257;}
	.st373{opacity:0.3304;}
	.st374{opacity:0.335;}
	.st375{opacity:0.3397;}
	.st376{opacity:0.3444;}
	.st377{opacity:0.349;}
	.st378{opacity:0.3537;}
	.st379{opacity:0.3583;}
	.st380{opacity:0.363;}
	.st381{opacity:0.3676;}
	.st382{opacity:0.3723;}
	.st383{opacity:0.3769;}
	.st384{opacity:0.3816;}
	.st385{opacity:0.3862;}
	.st386{opacity:0.3909;}
	.st387{opacity:0.3955;}
	.st388{opacity:0.4002;}
	.st389{opacity:0.4049;}
	.st390{opacity:0.4095;}
	.st391{opacity:0.4142;}
	.st392{opacity:0.4188;}
	.st393{opacity:0.4235;}
	.st394{opacity:0.4281;}
	.st395{opacity:0.4328;}
	.st396{opacity:0.4374;}
	.st397{opacity:0.4421;}
	.st398{opacity:0.4467;}
	.st399{opacity:0.4514;}
	.st400{opacity:0.456;}
	.st401{opacity:0.4607;}
	.st402{opacity:0.4653;}
	.st403{fill:url(#SVGID_00000113341272558677811080000000184311608366435517_);}
	.st404{fill:url(#SVGID_00000008838110467845590940000003889469284011320718_);}
	.st405{fill:url(#SVGID_00000061448059136134961640000010517314791399420313_);}
	.st406{fill:#C6A295;}
	.st407{fill:#EFC5B3;}
	.st408{fill:#121214;}
	.st409{fill:#BBBDBE;}
	.st410{fill:#863C13;}
	.st411{fill:#B96117;}
	.st412{fill:#EF8118;}
	.st413{fill:#BA5817;}
	.st414{fill:#6D6F71;}
	.st415{fill:#E21D26;}
	.st416{fill:#2C5E84;}
	.st417{fill:#9C251F;}
	.st418{fill:url(#SVGID_00000092446619668574712910000014862489655603547821_);}
	.st419{fill:#1C374E;}
	.st420{fill:#2B4E68;}
	.st421{opacity:0.3;fill:#121214;}
	.st422{fill:url(#SVGID_00000173141008342704963490000015589930351567015307_);}
	.st423{fill:url(#SVGID_00000037676690082222624890000005888677077033908610_);}
	.st424{fill:url(#SVGID_00000062173746092335833740000008389212289068520347_);}
	.st425{fill:url(#SVGID_00000064313398323752060280000005083679626372636556_);}
	.st426{fill:url(#SVGID_00000022529044480550112000000005280682060811433880_);}
	.st427{fill:url(#SVGID_00000071522937817547289210000000707771407298476463_);}
	.st428{fill:#0C0C0C;}
	.st429{fill:#603914;}
	.st430{fill:#E86821;}
	.st431{fill:#171717;}
	.st432{fill:#663F30;}
	.st433{fill:url(#SVGID_00000023252317756691723490000006894302756413406856_);}
	.st434{fill:url(#SVGID_00000138546299937509233230000016116726594470858683_);}
	.st435{fill:url(#SVGID_00000093891676166489205040000002987006727873031588_);}
	.st436{fill:url(#SVGID_00000018218722722134513360000008953884009464063368_);}
	.st437{fill:url(#SVGID_00000066512822946387974640000011015681205941641603_);}
	.st438{fill:url(#SVGID_00000180349937072650646810000009513241312733564064_);}
	.st439{fill:url(#SVGID_00000018227433534221405640000008435290034294524826_);}
	.st440{fill:url(#SVGID_00000154426795721876844840000016035855406542634159_);}
	.st441{fill:url(#SVGID_00000016754678932508150600000017195464885821418647_);}
	.st442{fill:url(#SVGID_00000032644557539612409530000017063283629304754879_);}
	.st443{fill:url(#SVGID_00000119085225454344987570000015595323379910424480_);}
	.st444{fill:url(#SVGID_00000003790561500022869500000015170772898625517999_);}
	.st445{fill:url(#SVGID_00000124867031062550848140000002497562710484564671_);}
	.st446{fill:url(#SVGID_00000026154876492231680140000003564970428919543209_);}
	.st447{fill:url(#SVGID_00000015327978557436084700000018001969948190653103_);}
	.st448{fill:url(#SVGID_00000128470577468209264950000003350203815809665719_);}
	.st449{fill:url(#SVGID_00000132046377986350234420000009895280233975282622_);}
	.st450{fill:url(#SVGID_00000029046930962103083080000015923833526111030913_);}
	.st451{fill:#B7B7B7;}
	.st452{fill:#112134;}
	.st453{fill:#414042;}
	.st454{fill:#221E20;}
	.st455{fill:#131313;}
	.st456{fill:#202020;}
	.st457{fill:#915E33;}
	.st458{fill:#57391E;}
	.st459{fill:#F39519;}
	.st460{fill:#F4B305;}
	.st461{fill:#C4C3C3;}
	.st462{fill:#A5A4A5;}
	.st463{fill:#888989;}
	.st464{fill:#242424;}
	.st465{fill:#6E4827;}
	.st466{opacity:0.1844;fill:#24222D;}
	.st467{fill:#A0A4BB;}
	.st468{opacity:0.1844;fill:#999AB6;}
	.st469{fill:#D9E3E3;}
	.st470{fill:#FAD5CB;}
	.st471{opacity:0.1844;fill:#24212E;}
	.st472{fill:#844013;}
	.st473{fill:#F8B777;}
	.st474{fill:#3576AB;}
	.st475{fill:#A2A1A1;}
	.st476{fill:#754C29;}
	.st477{fill:#B3DFF1;}
	.st478{fill:#80A5A5;}
	.st479{fill:#EAAE93;}
	.st480{fill:#00657E;}
	.st481{fill:#382E22;}
	.st482{fill:#157288;}
	.st483{fill:#A42916;}
	.st484{fill:#D43216;}
	.st485{fill:#E5A082;}
	.st486{fill:#B23318;}
	.st487{fill:#843E1E;}
	.st488{fill:#EDBEA8;}
	.st489{fill:#E94E49;}
	.st490{fill:#E3E4E3;}
	.st491{fill:#B9B9B9;}
	.st492{fill:#868787;}
	.st493{fill:url(#XMLID_00000116932582697468001810000000325510816490069122_);}
	.st494{fill:#989898;}
	.st495{fill:url(#XMLID_00000137812885017259172040000011898056949137327761_);}
	.st496{fill:#EEECEB;}
	.st497{fill:#D5D5D5;}
	.st498{fill:url(#XMLID_00000065070644763681261550000013925108409433706409_);}
	.st499{fill:url(#XMLID_00000133494409289104293240000014693474971372910233_);}
	.st500{fill:url(#XMLID_00000046339044275545061570000015881084386606596764_);}
	.st501{fill:url(#XMLID_00000129914027491439449410000002989479359023569819_);}
	.st502{fill:url(#XMLID_00000021836502644544127040000016804538928859445379_);}
	.st503{fill:url(#XMLID_00000173143925187317348700000007914228530282829710_);}
	.st504{fill:url(#XMLID_00000107549501681835731380000001558595096799108769_);}
	.st505{fill:url(#XMLID_00000134943077635918431470000005172574729098323125_);}
	.st506{fill:url(#XMLID_00000115504538085359850680000008457987788102346118_);}
	.st507{fill:url(#XMLID_00000129168271295748721990000002401383687783276186_);}
	.st508{fill:url(#XMLID_00000181774909830616316830000012767134827733022370_);}
	.st509{fill:url(#XMLID_00000119804477022099244020000015256419572604826259_);}
	.st510{fill:url(#XMLID_00000007418134733000735880000010956467390796074943_);}
	.st511{fill:url(#XMLID_00000109003863967892709600000016222389039728588472_);}
	.st512{fill:url(#XMLID_00000091001827800048782500000010828048853628028857_);}
	.st513{fill:url(#XMLID_00000131352235512369594120000011124783124391870643_);}
	.st514{fill:url(#XMLID_00000031176073867512010800000002755439115889510580_);}
	.st515{fill:url(#XMLID_00000097471754250565634170000006667851958295713675_);}
	.st516{fill:url(#XMLID_00000023245519550011863840000013525924597819552446_);}
	.st517{fill:url(#XMLID_00000120557946859185186660000011680530424774903711_);}
	.st518{fill:url(#XMLID_00000183226692775489045530000009401253309490878140_);}
	.st519{fill:url(#XMLID_00000048489524303980934530000011825346246152566205_);}
	.st520{fill:url(#XMLID_00000054231443962716940090000017479355590254857092_);}
	.st521{fill:url(#XMLID_00000097469535160708322870000007278920204384872115_);}
	.st522{fill:url(#XMLID_00000016790179010823762230000004084167256766594990_);}
	.st523{fill:url(#XMLID_00000152235491432169783000000005730224894420138122_);}
	.st524{fill:url(#XMLID_00000155122583790384828180000002745063392225076651_);}
	.st525{fill:url(#XMLID_00000008137239897204475170000005311249302551735463_);}
	.st526{fill:url(#XMLID_00000106846694822433820840000005655860864059064497_);}
	.st527{fill:url(#XMLID_00000183968342970871717620000006996682105523686075_);}
	.st528{fill:url(#XMLID_00000026849871141008951610000010256746746525849228_);}
	.st529{fill:url(#XMLID_00000133516913282775355700000013800067381659706795_);}
	.st530{fill:url(#XMLID_00000012466634516641297640000009659353941077528981_);}
	.st531{fill:url(#XMLID_00000049918914968543573630000001067373147757309363_);}
	.st532{fill:url(#XMLID_00000142883138625841418240000011147245110849733521_);}
	.st533{fill:url(#XMLID_00000173865519689420962750000001523980749848847240_);}
	.st534{fill:url(#XMLID_00000029744122044971690050000009191583951759151238_);}
	.st535{fill:url(#XMLID_00000029036423578215992740000003972666050159916194_);}
	.st536{fill:url(#XMLID_00000005248366405042464070000007690292258401316787_);}
	.st537{fill:url(#XMLID_00000013158356351860536940000012888722578665467571_);}
	.st538{fill:url(#XMLID_00000157283594098939842400000003504735828210025918_);}
	.st539{fill:url(#XMLID_00000045581078229866288380000016519458254288455852_);}
	.st540{fill:url(#XMLID_00000166637538535354249350000016774682459571469473_);}
	.st541{fill:url(#XMLID_00000075120276435308984450000005807022724679021231_);}
	.st542{fill:url(#XMLID_00000023241019565686253780000005877775436765960622_);}
	.st543{fill:url(#XMLID_00000115486481094399228460000004269079591555885218_);}
	.st544{fill:url(#XMLID_00000047764841506230928220000017838423308065822910_);}
	.st545{fill:url(#XMLID_00000144324240866510018350000013531479960229540495_);}
	.st546{fill:url(#XMLID_00000062169594041930536450000005483484196661778094_);}
	.st547{fill:url(#XMLID_00000142145059973577454260000012298699323496013464_);}
	.st548{fill:url(#XMLID_00000171718128640224668290000002898083208630887836_);}
	.st549{fill:url(#XMLID_00000124840586815884517120000018205550320676767139_);}
	.st550{fill:url(#XMLID_00000124863748978986089910000005577080675627497346_);}
	.st551{fill:url(#XMLID_00000076586309106471689840000017330125517285345461_);}
	.st552{fill:url(#XMLID_00000108994990064316406700000012942479430973613477_);}
	.st553{fill:url(#XMLID_00000081608541522195615910000003611870336107407493_);}
	.st554{fill:url(#XMLID_00000125582766164222966410000015198519471001078449_);}
	.st555{fill:url(#XMLID_00000060725721057911861150000012633827465743164311_);}
	.st556{fill:url(#XMLID_00000076579113970313910030000016671064833041602220_);}
	.st557{fill:url(#XMLID_00000083787464730584340690000013358453804309279422_);}
	.st558{fill:url(#XMLID_00000145026741806816136330000015102624869058139044_);}
	.st559{fill:url(#XMLID_00000067936422414881281070000002024455649128044443_);}
	.st560{fill:url(#XMLID_00000172425596791125285550000000382598476758770875_);}
	.st561{fill:url(#XMLID_00000152960484274635010250000013414661801326181771_);}
	.st562{fill:url(#XMLID_00000145747639827155582460000000209589892363151508_);}
	.st563{fill:url(#XMLID_00000001663224179851333860000003001713877988521643_);}
	.st564{fill:url(#XMLID_00000041274976931550777190000003258145374986309276_);}
	.st565{fill:url(#XMLID_00000117676226723115155190000001047591902606386835_);}
	.st566{fill:url(#XMLID_00000155124312073683238870000010127013228491459226_);}
	.st567{fill:url(#XMLID_00000013178859457482189940000011652566010054955704_);}
	.st568{fill:url(#XMLID_00000067942528291484050850000011424910757892474542_);}
	.st569{fill:url(#XMLID_00000132771989553168123530000013484300827598621095_);}
	.st570{fill:url(#XMLID_00000037656879996657163220000012791974656154945435_);}
	.st571{fill:url(#XMLID_00000023239189133368888270000015786128373329185172_);}
	.st572{fill:url(#XMLID_00000009582982270688513260000008395790133621965223_);}
	.st573{fill:url(#XMLID_00000011715652927763829220000010544410998971217554_);}
	.st574{fill:url(#XMLID_00000069364713487327419170000010199541332374388138_);}
	.st575{fill:url(#XMLID_00000029035789649494845920000003321230493226325673_);}
	.st576{fill:url(#XMLID_00000064319781363528232380000007754470967734820512_);}
	.st577{fill:url(#XMLID_00000019643971879578989950000007965043607940438158_);}
	.st578{fill:url(#XMLID_00000084522969820776524060000002448420272326464433_);}
	.st579{fill:url(#XMLID_00000005965401589262616320000012772293513638187167_);}
	.st580{fill:url(#XMLID_00000018224443951940225110000007163232595722393017_);}
	.st581{fill:url(#XMLID_00000110435705694344632080000007453865033709876413_);}
	.st582{fill:url(#XMLID_00000142164878308935373200000011068960262324774819_);}
	.st583{fill:url(#XMLID_00000116225807867091026560000017089445249478669473_);}
	.st584{fill:url(#XMLID_00000044861560255968433000000009727957141031175822_);}
	.st585{fill:url(#XMLID_00000153692073692295239460000007287275380715516054_);}
	.st586{fill:url(#XMLID_00000149367654897352046470000007864611896351873453_);}
	.st587{fill:url(#XMLID_00000040570692773677428970000016859186670812989833_);}
	.st588{fill:url(#XMLID_00000029031667127964094680000011147316162507043753_);}
	.st589{fill:url(#XMLID_00000123429810554809902470000016823313511794184891_);}
	.st590{fill:url(#XMLID_00000065755627595102953220000006276929079285987459_);}
	.st591{fill:url(#XMLID_00000052076054456620075670000008732150249155600289_);}
	.st592{fill:url(#XMLID_00000145753698008787257320000017838852606501395619_);}
	.st593{fill:url(#XMLID_00000174562767706785390370000000494501125814800010_);}
	.st594{fill:url(#XMLID_00000127024924896680437010000013364852983957946761_);}
	.st595{fill:url(#XMLID_00000132048471075061939240000007041511203949984140_);}
	.st596{fill:url(#XMLID_00000181054895062902791800000018344094744411631034_);}
	.st597{fill:url(#XMLID_00000005240574507867278910000009612228513093774990_);}
	.st598{fill:#FCFDFF;}
	.st599{fill:#757576;}
	.st600{fill:#D4D3D3;}
	.st601{fill:#E2E4E0;}
	.st602{fill:#B5B4B4;}
	.st603{fill:#908F8A;}
	.st604{fill:#F6F6F5;}
	.st605{fill:#3E4046;}
	.st606{fill:#525557;}
	.st607{fill:#E1E2E2;}
	.st608{fill:#E8E9EA;}
	.st609{fill:#2B2E35;}
	.st610{fill:#64666B;}
	.st611{fill:url(#XMLID_00000122705905707741543330000012869743022987896244_);}
	.st612{fill:#F0F0F0;}
	.st613{fill:#757779;}
	.st614{fill:#191B22;}
	.st615{fill:#14181E;}
	.st616{fill:#11141A;}
	.st617{fill:#DAEBE7;}
	.st618{fill:#7F8082;}
	.st619{fill:#A7B3B4;}
	.st620{fill:#3C575C;}
	.st621{fill:#CED6D6;}
	.st622{fill:#1A3A66;}
	.st623{fill:#2887C4;}
	.st624{fill:#66C3D8;}
	.st625{fill:#07282F;}
	.st626{fill:#8B9B9D;}
	.st627{fill:#72888C;}
	.st628{fill:#7F1710;}
	.st629{fill:#C3253D;}
	.st630{fill:#D9648A;}
	.st631{fill:#A24817;}
	.st632{fill:#DAA802;}
	.st633{fill:#EEB219;}
	.st634{fill:#424242;}
	.st635{fill:#474646;}
	.st636{fill:#AAB545;}
	.st637{fill:#C17D11;}
	.st638{fill:#CACCD2;}
	.st639{fill:#B6BCC6;}
	.st640{fill:#353842;}
	.st641{fill:#585C64;}
	.st642{fill:#454852;}
	.st643{fill:#62656C;}
	.st644{fill:#72757B;}
	.st645{fill:#3A3D42;}
	.st646{fill:#494D53;}
	.st647{fill:#161A24;}
	.st648{fill:#4C4F58;}
	.st649{fill:#666970;}
	.st650{fill:#7F7F83;}
	.st651{fill:#383C40;}
	.st652{fill:#1E222B;}
	.st653{fill:url(#XMLID_00000016044856314188701210000000446184185586799532_);}
	.st654{fill:#3D4049;}
	.st655{fill:url(#XMLID_00000054972721586361851500000007814538742881293998_);}
	.st656{fill:#30333C;}
	.st657{fill:#474D57;}
	.st658{fill:#75787F;}
	.st659{fill:#2F7E9D;}
	.st660{fill:#6DC0B2;}
	.st661{fill:url(#XMLID_00000134218955889062862390000000412407926739473571_);}
	.st662{fill:#F1F8FA;}
	.st663{fill:url(#XMLID_00000095333771313119110640000013618657554484631454_);}
	.st664{fill:url(#XMLID_00000114055056473406656970000005832450445597077133_);}
	.st665{fill:#ECF6F9;}
	.st666{fill:url(#XMLID_00000059311632768202109620000008501958048089025702_);}
	.st667{fill:url(#XMLID_00000163793246024981980490000012598632790873331368_);}
	.st668{fill:#CFE4F1;}
	.st669{fill:#DADADA;}
	.st670{fill:#D32D16;}
	.st671{fill:#176581;}
	.st672{fill:#9ED1F2;}
	.st673{fill:#1B222D;}
	.st674{fill:#EBE9EA;}
	.st675{fill:#C9CED5;}
	.st676{fill:#E1E0E0;}
	.st677{fill:#E7E6E6;}
	.st678{fill:#E8E7E7;}
	.st679{fill:#BFCBDD;}
	.st680{fill:#9D958F;}
	.st681{fill:#FFDC04;}
	.st682{fill:#B21828;}
	.st683{fill:#D8408F;}
	.st684{fill:#574997;}
	.st685{fill:#356AB1;}
	.st686{fill:#45B3E7;}
	.st687{fill:#2D8A36;}
	.st688{fill:#D0CFD0;}
	.st689{fill:#98A88B;}
	.st690{fill:#F8E825;}
	.st691{fill:#CB1333;}
	.st692{fill:url(#XMLID_00000120550139819254686390000001481467625521026983_);}
	.st693{fill:#0B0E18;}
	.st694{fill:#40424A;}
	.st695{fill:url(#XMLID_00000121979851859319900060000015441535724098292871_);}
	.st696{fill:#71757D;}
	.st697{fill:#C2C2C4;}
	.st698{fill:url(#XMLID_00000127020367880079120660000004243817180065174421_);}
	.st699{fill:#9DA094;}
	.st700{fill:#D4D4D4;}
	.st701{fill:url(#XMLID_00000053523500310641833970000008809241796246852532_);}
	.st702{fill:url(#XMLID_00000079481404397914159510000001921239378457075391_);}
	.st703{fill:#E8E8E8;}
	.st704{fill:#15120B;}
	.st705{fill:#4C4842;}
	.st706{fill:#74AEDF;}
	.st707{fill:#413D3F;}
	.st708{fill:#48494A;}
	.st709{fill:#080504;}
	.st710{fill:#4E4D4D;}
	.st711{fill:#A1A0A0;}
	.st712{fill:#FBEEF5;}
	.st713{fill:#BFBEBE;}
	.st714{fill:#015A64;}
	.st715{fill:#B81818;}
	.st716{fill:#8C811D;}
	.st717{fill:#03709B;}
	.st718{fill:#E74B1E;}
	.st719{fill:#F2B000;}
	.st720{fill:#E33335;}
	.st721{fill:#F8F09C;}
	.st722{fill:#FAEF81;}
	.st723{fill:#E7A8CB;}
	.st724{fill:#CD90BE;}
	.st725{fill:#847A73;}
	.st726{fill:#CCCBCB;}
	.st727{fill:#EDECEC;}
	.st728{fill:#9D9D9D;}
	.st729{fill:#EFEFEF;}
	.st730{fill:#4F525A;}
	.st731{fill:#E15C48;}
	.st732{fill:url(#XMLID_00000115504264411608002120000002244435414926213010_);}
	.st733{fill:url(#XMLID_00000002376601692080358610000014516205399916838044_);}
	.st734{fill:url(#XMLID_00000165200790440207860970000009061475097066362773_);}
	.st735{fill:url(#XMLID_00000180355008576110661210000013303088462598838206_);}
	.st736{fill:url(#XMLID_00000101821138018738218430000010139524665328966300_);}
	.st737{fill:#9E9D9D;}
	.st738{fill:#9DCBEF;}
	.st739{fill:#010000;}
	.st740{fill:url(#SVGID_00000126309476482040190190000001458933106327568040_);}
	.st741{fill:url(#SVGID_00000160174353844835978550000006049089874521276593_);}
	.st742{fill:url(#SVGID_00000022543448616810377550000012902305723267745173_);}
	.st743{fill:#D2D2D2;}
	.st744{fill:#232C35;}
	.st745{fill:#E39470;}
	.st746{fill:url(#XMLID_00000098936656168292904580000014929963410707795896_);}
	.st747{fill:#9DA6AC;}
	.st748{fill:#72979F;}
	.st749{fill:#96A1AB;}
	.st750{fill:#5F7887;}
	.st751{fill:#CC1B31;}
	.st752{fill:url(#XMLID_00000045585083957001514240000010247447060333593731_);}
	.st753{fill:url(#XMLID_00000093168007167875721060000006908814790461991085_);}
	.st754{fill:url(#XMLID_00000067945054989050737370000016172198135356551341_);}
	.st755{fill:#C0C4B6;}
	.st756{fill:#CEE8EC;}
	.st757{fill:url(#XMLID_00000006698424690194980000000006894374531131762610_);}
	.st758{fill:url(#XMLID_00000089544464784027787100000011930319180592707720_);}
	.st759{fill:#384C5A;}
	.st760{fill:url(#XMLID_00000044890764486821087930000007147853900410838688_);}
	.st761{fill:#ED9E02;}
	.st762{fill:#FFE253;}
	.st763{fill:#F7C318;}
	.st764{fill:#DDB988;}
	.st765{fill:#D2A37C;}
	.st766{fill:#C98666;}
	.st767{fill:#2C7EAE;}
	.st768{fill:#A61916;}
	.st769{fill:#E6704B;}
	.st770{fill:#DF3118;}
	.st771{fill:#00648A;}
	.st772{fill:#4CB0E4;}
	.st773{fill:#2178BD;}
	.st774{fill:#058A38;}
	.st775{fill:#6EB761;}
	.st776{fill:#4DAD3C;}
	.st777{fill:#283373;}
	.st778{fill:#4A60A8;}
	.st779{fill:#274394;}
	.st780{fill:#49267F;}
	.st781{fill:#7C559E;}
	.st782{fill:#693D8F;}
	.st783{fill:#871D6C;}
	.st784{fill:#C5569A;}
	.st785{fill:#CA1781;}
	.st786{fill:#2D1B1B;}
	.st787{fill:#8A5655;}
	.st788{fill:#734748;}
	.st789{fill:url(#XMLID_00000039828593290645511390000005533370948804350103_);}
	.st790{fill:#A3B5D1;}
	.st791{fill:#04559C;}
</style>
<g>
	<g>
		<path class="st0" d="M70.81,63.61c-21.3,2.5-42.83,2.5-64.13,0C3,63.16,0,59.7,0,56.04C0,40.51,0,24.98,0,9.45
			c0-3.66,3-7.12,6.68-7.57c21.3-2.5,42.83-2.5,64.13,0c3.68,0.45,6.68,3.91,6.68,7.57c0,15.53,0,31.06,0,46.59
			C77.49,59.7,74.49,63.16,70.81,63.61z"/>
	</g>
	<g id="XMLID_00000132064099896261253280000017521467129524530610_">
		
			<rect id="XMLID_00000168114310107847663820000018430353875721514370_" x="14.28" y="8.28" class="st120" width="48.92" height="48.92"/>
		<path id="XMLID_00000142175197536718957920000010945608762307217816_" class="st121" d="M30.99,26.9c-1.03,0-1-0.94,0.1-0.94
			h21.85v-6.48H26.07c0,0-1.62,0-1.58,1.8c0.04,1.81,0,9.71,0,9.71c-0.04,1.81,1.58,1.81,1.58,1.81h-0.15h20.64
			c1.11,0,1.08,0.94,0.05,0.94H24.42v6.6h11.43v1.41H24.42v6.25h28.53v-6.25H41.51v-1.53c0,0,7.06,0,9.77,0c0,0,1.6,0,1.56-1.8
			c0,0-0.04-7.92,0-9.72c0.04-1.8-1.56-1.8-1.56-1.8H31.02"/>
		<path id="XMLID_00000111182688914336937780000017887643386017826473_" class="st121" d="M25.87,52.02
			c-0.01-0.06-0.02-0.21-0.26-0.21c-0.18,0-0.24,0.11-0.24,0.19c0,0.15,0.21,0.24,0.43,0.3c0.47,0.13,0.98,0.27,0.98,0.88
			c0,0.59-0.52,0.95-1.14,0.95c-0.42,0-1.06-0.19-1.14-0.93h0.83c0.04,0.26,0.28,0.26,0.32,0.26c0.14,0,0.29-0.08,0.29-0.22
			c0-0.22-0.21-0.24-0.74-0.45c-0.36-0.12-0.66-0.35-0.66-0.73c0-0.55,0.5-0.92,1.08-0.92c0.37,0,1,0.14,1.07,0.88h-0.85"/>
		<path id="XMLID_00000000922169042713444110000016104075010863302299_" class="st121" d="M28.9,51.1c1.02,0,1.51,0.8,1.51,1.49
			c0,0.69-0.49,1.49-1.51,1.49c-1.02,0-1.51-0.8-1.51-1.49C27.39,51.9,27.88,51.1,28.9,51.1 M28.9,53.3c0.36,0,0.67-0.3,0.67-0.71
			c0-0.41-0.31-0.71-0.67-0.71c-0.36,0-0.67,0.3-0.67,0.71C28.23,53,28.54,53.3,28.9,53.3"/>
		<path id="XMLID_00000118399295877141198780000001052247632602009475_" class="st121" d="M31.26,51.19h0.71v0.35h0.01
			c0.08-0.14,0.26-0.39,0.74-0.39c0.26,0,0.55,0.11,0.7,0.24c0.15,0.13,0.31,0.35,0.31,0.89v1.73h-0.71v-1.53
			c0-0.2,0-0.58-0.45-0.58c-0.49,0-0.49,0.42-0.49,0.59v1.53h-0.83V51.19"/>
		<path id="XMLID_00000139264363568777369030000014864881491679709626_" class="st121" d="M37.62,54.02H36.8v-0.35h-0.01
			c-0.14,0.28-0.5,0.41-0.83,0.41c-0.9,0-1.43-0.71-1.43-1.53c0-0.94,0.67-1.52,1.43-1.52c0.47,0,0.73,0.23,0.83,0.4h0.01v-0.24
			h0.83V54.02 M36.13,53.31c0.52,0,0.7-0.45,0.7-0.72c0-0.34-0.23-0.71-0.71-0.71c-0.48,0-0.69,0.4-0.69,0.72
			C35.43,52.86,35.62,53.31,36.13,53.31"/>
		<polyline id="XMLID_00000168828140582359197100000000684397288021254550_" class="st121" points="39.63,51.19 39.98,51.19 
			39.98,51.9 39.63,51.9 39.63,54.02 38.8,54.02 38.8,51.78 38.33,51.78 38.33,51.19 38.8,51.19 38.8,50.25 39.63,50.25 
			39.63,51.19 		"/>
		<path id="XMLID_00000153663099940693852760000008834632808992887436_" class="st121" d="M40.69,51.19h0.83v0.35h-0.04
			c0.08-0.14,0.23-0.39,0.75-0.39v0.84c-0.42,0.01-0.71,0.09-0.71,0.52v1.51h-0.83V51.19"/>
		<path id="XMLID_00000174567617305063989310000008034537450387519166_" class="st121" d="M45.87,54.02h-0.94v-0.35h-0.01
			c-0.14,0.28-0.5,0.41-0.83,0.41c-0.9,0-1.43-0.71-1.43-1.53c0-0.94,0.67-1.52,1.43-1.52c0.47,0,0.73,0.23,0.83,0.4h0.01v-0.24
			h0.83v2.83 M44.28,53.31c0.53,0,0.7-0.45,0.7-0.72c0-0.34-0.23-0.71-0.71-0.71c-0.48,0-0.69,0.4-0.69,0.72
			C43.58,52.86,43.77,53.31,44.28,53.31"/>
		<path id="XMLID_00000047757178441788006950000010479061473007644304_" class="st121" d="M49.7,52.96
			c-0.16,0.69-0.77,1.25-1.58,1.25c-0.91,0-1.61-0.72-1.61-1.62c0-0.89,0.69-1.6,1.59-1.6c0.8,0,1.45,0.53,1.6,1.27h-0.91
			c-0.1-0.21-0.28-0.42-0.65-0.42c-0.43-0.02-0.72,0.33-0.72,0.77c0,0.44,0.29,0.77,0.72,0.77c0.38,0,0.55-0.22,0.65-0.4h0.86"/>
		<path id="XMLID_00000023256520925032431010000002650001043558078653_" class="st121" d="M50.35,50.25h0.83v1.18h0.01
			c0.14-0.26,0.43-0.36,0.73-0.36c0.27,0,0.59,0.1,0.77,0.31c0.24,0.28,0.26,0.54,0.26,1.04v1.6h-0.83v-1.53
			c0-0.14,0-0.59-0.46-0.59c-0.48,0-0.48,0.42-0.48,0.56v1.56h-0.83V50.25"/>
		<path id="XMLID_00000145044632172548720470000003953687984433210775_" class="st121" d="M43.53,11.91c0,0.25-0.21,0.46-0.47,0.46
			c-0.26,0-0.47-0.21-0.47-0.46c0-0.25,0.21-0.46,0.47-0.46C43.31,11.45,43.53,11.66,43.53,11.91"/>
		<path id="XMLID_00000061455837369425952120000016971057244658979473_" class="st121" d="M28.17,12.88
			c0.64-0.25,1.44-0.21,1.44-0.21c0.26,0.01,0.48-0.16,0.5-0.39c0.01-0.23-0.18-0.42-0.44-0.43c-0.04,0-1.03-0.05-1.88,0.28
			c-0.8,0.31-1.55,1.02-1.55,1.47c0,0.55,0.58,0.69,1.05,0.81c0.31,0.08,0.66,0.16,1.02,0.34c0.78,0.39,0.82,0.59,0.82,0.59
			c0,0.04-0.07,0.26-0.18,0.26h-2.97c-0.25,0-0.61-0.13-0.61-0.26v-0.38c0-0.23-0.21-0.41-0.47-0.41c-0.26,0-0.47,0.18-0.47,0.41
			v0.38c0,0.74,0.92,1.08,1.55,1.08h2.97c0.74,0,1.13-0.63,1.13-1.08c0-0.45-0.41-0.87-1.3-1.3c-0.46-0.23-0.9-0.34-1.23-0.42
			c-0.09-0.02-0.2-0.05-0.29-0.08C27.4,13.35,27.75,13.05,28.17,12.88 M43.05,12.81c-0.26,0-0.47,0.2-0.47,0.46v1.98
			c0,0.07-0.33,0.27-0.81,0.27c-0.38,0-0.76-0.2-0.84-0.31c0-0.07,0-3.32,0-3.32c0-0.22-0.18-0.4-0.41-0.4
			c-0.23,0-0.41,0.18-0.41,0.4v3.36c0,0.7,1.01,1.14,1.73,1.14c0.82,0,1.69-0.4,1.69-1.14v-1.99
			C43.52,13.01,43.31,12.81,43.05,12.81z M52.59,12.81c-0.26,0-0.47,0.2-0.47,0.46c0,0,0,1.82,0,2.17
			c-0.07,0.05-0.18,0.09-0.31,0.09c-0.18,0-0.43-0.08-0.63-0.17v-2.09c0-0.25-0.21-0.46-0.47-0.46c-0.26,0-0.47,0.2-0.47,0.46v2.12
			c0,0-0.24,0.13-0.46,0.13c-0.19,0-0.36-0.1-0.36-0.1v-2.15c0-0.25-0.21-0.46-0.47-0.46c-0.26,0-0.47,0.2-0.47,0.46v2.09
			c-0.18,0.08-0.43,0.16-0.63,0.16c-0.18,0-0.38-0.07-0.55-0.14c0-0.31,0-0.82,0-0.82v0c0-0.02,0-0.04,0-0.07
			c0-0.85-0.71-1.54-1.59-1.54c-0.88,0-1.59,0.69-1.59,1.54c0,0.85,0.71,1.54,1.59,1.54c0.24,0,0.46-0.05,0.66-0.14
			c-0.03,0.15-0.1,0.34-0.28,0.52c-0.37,0.36-0.72,0.42-0.74,0.43c-0.24,0.04-0.41,0.27-0.37,0.5c0.04,0.24,0.27,0.4,0.51,0.36
			c0.07-0.01,0.65-0.11,1.23-0.67c0.25-0.24,0.39-0.51,0.47-0.75c0.2,0.07,0.43,0.12,0.66,0.12c0.38,0,0.78-0.14,1.04-0.25
			c0.2,0.12,0.51,0.25,0.93,0.25c0.44,0,0.79-0.14,1.01-0.26c0.25,0.11,0.65,0.26,1.03,0.26c0.67,0,1.06-0.44,1.1-0.49
			c0.07-0.08,0.1-0.18,0.1-0.28v-2.36C53.07,13.01,52.85,12.81,52.59,12.81z M45.69,15.15c-0.37,0-0.68-0.29-0.68-0.65
			c0-0.36,0.3-0.66,0.68-0.66c0.37,0,0.68,0.29,0.68,0.66C46.36,14.86,46.06,15.15,45.69,15.15z M38.09,13.18
			c-0.44,0-1.6,0.65-2.83,1.42v-2.42c0-0.23-0.21-0.41-0.47-0.41c-0.26,0-0.47,0.18-0.47,0.41v3.02c-0.2,0.13-0.39,0.26-0.58,0.39
			h-0.6c0-0.4,0-1.93,0-1.93c0-0.23-0.21-0.41-0.47-0.41c-0.26,0-0.47,0.18-0.47,0.41v2.04c0,0.01,0,0.02,0,0.03c0,0,0,0.05,0,0.11
			c-0.03,0.05-0.04,0.11-0.04,0.16c0,0.01,0,0.01,0,0.01c-0.04,0.13-0.12,0.28-0.27,0.41c-0.38,0.34-0.75,0.4-0.77,0.4
			c-0.25,0.04-0.43,0.25-0.38,0.48c0.04,0.22,0.28,0.37,0.53,0.34c0.07-0.01,0.68-0.11,1.28-0.63c0.22-0.19,0.35-0.4,0.44-0.59h4.62
			c0.77,0,1.91-0.46,1.91-1.73C39.53,13.44,38.75,13.18,38.09,13.18z M37.53,15.47c0,0-1.41,0-2.21,0c1.21-0.86,2.38-1.61,2.68-1.68
			c0.23,0,0.45,0.02,0.45,0.73C38.46,15.46,37.57,15.47,37.53,15.47z M31.14,16.04v-4.22c0-0.25-0.21-0.46-0.47-0.46
			c-0.26,0-0.47,0.2-0.47,0.46v4.22c0,0.25,0.21,0.46,0.47,0.46C30.93,16.5,31.14,16.29,31.14,16.04z"/>
	</g>
</g>
</svg>
