<?xml version="1.0" encoding="utf-8"?>
<!-- Generator: Adobe Illustrator 26.0.2, SVG Export Plug-In . SVG Version: 6.00 Build 0)  -->
<svg version="1.1" id="Calque_1" xmlns="http://www.w3.org/2000/svg" xmlns:xlink="http://www.w3.org/1999/xlink" x="0px" y="0px"
	 viewBox="0 0 72.67 65.15" style="enable-background:new 0 0 72.67 65.15;" xml:space="preserve">
<style type="text/css">
	.st0{fill:#FFFFFF;}
	.st1{opacity:0.35;fill:url(#SVGID_1_);}
	.st2{opacity:0.35;}
	.st3{opacity:0.25;fill:url(#SVGID_00000024717347838208597300000002024229669585477017_);}
	.st4{opacity:0.27;fill:url(#SVGID_00000170986669280024175370000016267356117347933575_);}
	.st5{opacity:0.17;fill:url(#SVGID_00000098186164479389341130000004834219694852284351_);}
	.st6{opacity:0.62;fill:url(#SVGID_00000116945479175987999050000013222110556819221379_);}
	.st7{opacity:0.37;fill:url(#SVGID_00000172415245688315130400000009257909280316367804_);}
	.st8{opacity:0.47;fill:url(#SVGID_00000036252578103879997590000012514147471427651224_);}
	.st9{opacity:0.47;fill:url(#SVGID_00000173156803190283285830000005816972049562798993_);}
	.st10{opacity:0.47;fill:url(#SVGID_00000148663110435980259670000008389615423491879100_);}
	.st11{opacity:0.48;fill:url(#SVGID_00000163767000884787256540000012044913384456501181_);}
	.st12{opacity:0.48;fill:url(#SVGID_00000124845018075951096070000001815389719519392659_);}
	.st13{opacity:0.4;fill:url(#SVGID_00000017503946701213933270000007876868091319436991_);}
	.st14{fill:#3A63A4;}
	.st15{fill:#CCD35F;}
	.st16{fill:#4B4392;}
	.st17{fill:#2CA696;}
	.st18{fill:#D71158;}
	.st19{fill:#F9BB5A;}
	.st20{fill:#EFB349;}
	.st21{fill:#EC6C44;}
	.st22{fill:#25B1A2;}
	.st23{fill:#CB3580;}
	.st24{fill:#F8DC91;}
	.st25{fill:#C2367E;}
	.st26{fill:#289BB9;}
	.st27{fill:#CC1640;}
	.st28{fill:#4069A8;}
	.st29{fill:#EF8054;}
	.st30{fill:#1B9361;}
	.st31{fill:#1E9CC0;}
	.st32{fill:#8E4794;}
	.st33{fill:#F9B958;}
	.st34{fill:#DF0C1A;}
	.st35{fill:#002D74;}
	.st36{fill:#0069A8;}
	.st37{fill:#15A3DD;}
	.st38{fill:#19A3DD;}
	.st39{fill-rule:evenodd;clip-rule:evenodd;fill:#4AA334;}
	.st40{fill-rule:evenodd;clip-rule:evenodd;fill:#FFFFFF;}
	.st41{fill:#263780;}
	.st42{fill:url(#SVGID_00000145753985753851414950000009775493397465569980_);}
	.st43{fill:url(#SVGID_00000081648852609459631440000012556142939751431076_);}
	.st44{fill:url(#SVGID_00000125603772382649392520000016689444444240295830_);}
	.st45{fill:url(#SVGID_00000142178493778097150080000006236180151188227762_);}
	.st46{fill:url(#SVGID_00000032607669574401182190000010506665617674904207_);}
	.st47{fill:url(#SVGID_00000062915047418906840180000009417443658324648584_);}
	.st48{fill:#AFB6BD;}
	.st49{fill:#31295C;}
	.st50{fill:url(#SVGID_00000039820917904193042730000011958886371013437589_);}
	.st51{fill:url(#SVGID_00000152955268597486883070000009433288928609432745_);}
	.st52{fill:url(#SVGID_00000022530453652948419850000009525870223589609114_);}
	.st53{fill:url(#SVGID_00000062877062301859729020000016369704156890763165_);}
	.st54{fill:url(#SVGID_00000171721263453653353400000014796521052279181197_);}
	.st55{fill:url(#SVGID_00000168828230421738577260000011141268525404954761_);}
	.st56{fill:url(#SVGID_00000100356044863549064390000012059141798558085520_);}
	.st57{fill:url(#SVGID_00000152253142649133843440000018159676372005758348_);}
	.st58{fill:url(#SVGID_00000000908585308585724470000009634337252896187837_);}
	.st59{fill:url(#SVGID_00000080164332640420762840000009870413075274906024_);}
	.st60{fill:url(#SVGID_00000031177265290202332130000013287167771347772851_);}
	.st61{fill:url(#SVGID_00000041979123484185947310000016370615864589769348_);}
	.st62{fill:url(#SVGID_00000150813220597178367780000011638071604359314568_);}
	.st63{fill:url(#SVGID_00000021813107292784021240000005162540561366725511_);}
	.st64{fill:#312782;}
	.st65{fill:#6461A8;}
	.st66{fill:#747473;}
	.st67{fill:#CAC9C9;}
	.st68{fill-rule:evenodd;clip-rule:evenodd;fill:#D81A16;stroke:#1D1D1B;stroke-width:0.25;stroke-miterlimit:10;}
	.st69{fill:none;stroke:#1D1D1B;stroke-width:0.25;stroke-miterlimit:10;}
	.st70{fill:#12110C;}
	.st71{fill:#1D1D1B;}
	.st72{fill:#EF8328;}
	.st73{fill:url(#SVGID_00000018937242972139104240000018045401214102597819_);}
	.st74{fill:url(#SVGID_00000067919764686507782840000010107683062422758315_);}
	.st75{fill:url(#SVGID_00000113341326170170683810000012870611721459327118_);}
	.st76{fill:url(#SVGID_00000031166235705400126070000007018050713314672573_);}
	.st77{opacity:0.6;}
	.st78{fill:url(#SVGID_00000016769262250091625790000006525919187693815738_);}
	.st79{fill:url(#SVGID_00000032634152617596286600000003617906201700271805_);}
	.st80{fill:url(#SVGID_00000104672387585238647250000003092688480007956867_);}
	.st81{fill:url(#SVGID_00000075856472262033802310000015224105887513708165_);}
	.st82{fill:url(#SVGID_00000104697647781581352960000002493744471575404186_);}
	.st83{fill:url(#SVGID_00000116205342114985162090000014816381194870690185_);}
	.st84{fill:url(#SVGID_00000151517081753108740560000012797544426774198943_);}
	.st85{fill:url(#SVGID_00000075842582340617533150000017001253363760503959_);}
	.st86{fill:url(#SVGID_00000106117818580079937400000015838465371838446526_);}
	.st87{fill:url(#SVGID_00000144297481194110085850000004724745622769596575_);}
	.st88{fill:url(#SVGID_00000060026604968431588300000011543782958165240469_);}
	.st89{fill:url(#SVGID_00000157308143983983302090000005070349082886812861_);}
	.st90{fill:url(#SVGID_00000075156667639933462040000002712498119473365893_);}
	.st91{fill:#001689;}
	.st92{fill:none;stroke:#001689;stroke-width:0.881;stroke-linecap:round;stroke-linejoin:round;stroke-miterlimit:10;}
	.st93{fill:#0047BA;}
	.st94{fill:#253D90;}
	.st95{fill:#FFDC00;}
	.st96{fill:#0556A3;}
	.st97{fill:#0369B2;}
	.st98{fill:#5DC3F0;}
	.st99{fill:#DF162E;}
	.st100{fill:#39A7DF;}
	.st101{fill:#1B71B6;}
	.st102{fill-rule:evenodd;clip-rule:evenodd;fill:url(#XMLID_00000074419632068896328840000001919450156855700627_);}
	.st103{fill-rule:evenodd;clip-rule:evenodd;fill:url(#XMLID_00000078002868483671374310000015592603299202747837_);}
	.st104{fill:#91BF25;}
	.st105{fill:#FFDA05;}
	.st106{fill:#E00F1A;}
	.st107{fill-rule:evenodd;clip-rule:evenodd;fill:#213A7B;}
	.st108{fill-rule:evenodd;clip-rule:evenodd;}
	.st109{fill-rule:evenodd;clip-rule:evenodd;fill:#E20C30;}
	.st110{fill:#2B7DB9;}
	.st111{fill:#43AC51;}
	.st112{fill-rule:evenodd;clip-rule:evenodd;fill:#034A91;}
	.st113{fill:#005891;}
	.st114{fill:#E3283B;}
	.st115{fill:#004A93;}
	.st116{fill-rule:evenodd;clip-rule:evenodd;fill:#004A93;}
	.st117{fill-rule:evenodd;clip-rule:evenodd;fill:#FFEA20;}
	.st118{fill-rule:evenodd;clip-rule:evenodd;fill:#DF101C;}
	.st119{fill:#2997D4;}
	.st120{fill:#F18A00;}
	.st121{fill:#09111D;}
	.st122{fill:#A72136;}
	.st123{fill:url(#SVGID_00000146466788441073670890000000668720969158936241_);}
	.st124{fill:url(#SVGID_00000164483492482997332510000012971432364161279898_);}
	.st125{fill:url(#SVGID_00000150099770581245008460000001248125469686661509_);}
	.st126{fill:url(#SVGID_00000021808529915182998430000001868545897156308395_);}
	.st127{fill:url(#SVGID_00000106111579293139885600000011787274782605748633_);}
	.st128{fill:url(#SVGID_00000031208618681983813660000010441812475792128954_);}
	.st129{fill:url(#SVGID_00000105400085209513909000000010326314047414121905_);}
	.st130{fill:url(#SVGID_00000026159386298259620070000017716913072451813505_);}
	.st131{fill:#2D2F34;}
	.st132{fill:url(#SVGID_00000154404646007481065820000007334436958484768386_);}
	.st133{fill:url(#SVGID_00000168106351466299980240000005744979780132385708_);}
	.st134{fill:url(#SVGID_00000106867492583615446360000013208060411997617342_);}
	.st135{fill:url(#SVGID_00000137110433723339294870000013655879951373409982_);}
	.st136{fill:#003DA6;}
	.st137{fill-rule:evenodd;clip-rule:evenodd;fill:#0E579F;stroke:#FFFFFF;stroke-width:1.0001;stroke-miterlimit:2.6131;}
	.st138{fill-rule:evenodd;clip-rule:evenodd;fill:#FFFFFF;stroke:#FFFFFF;stroke-width:0.216;stroke-miterlimit:2.6131;}
	.st139{fill:#1766AD;}
	.st140{fill:#7EB828;}
	.st141{fill:#0D9E39;}
	.st142{fill:#7CB62C;}
	.st143{fill-rule:evenodd;clip-rule:evenodd;fill:#00A0DF;}
	
		.st144{clip-path:url(#SVGID_00000113319104461300525190000005074195167607377808_);fill-rule:evenodd;clip-rule:evenodd;fill:#8CCFF1;}
	
		.st145{clip-path:url(#SVGID_00000113319104461300525190000005074195167607377808_);fill-rule:evenodd;clip-rule:evenodd;fill:#C3E4F5;}
	
		.st146{clip-path:url(#SVGID_00000113319104461300525190000005074195167607377808_);fill-rule:evenodd;clip-rule:evenodd;fill:#FFFFFF;}
	.st147{clip-path:url(#SVGID_00000113319104461300525190000005074195167607377808_);}
	.st148{fill:#83CEEA;}
	.st149{fill-rule:evenodd;clip-rule:evenodd;fill:#65B2E8;}
	.st150{fill-rule:evenodd;clip-rule:evenodd;fill:#0C68AE;}
	.st151{fill-rule:evenodd;clip-rule:evenodd;fill:#00205C;}
	.st152{fill:#00A0DF;}
	.st153{fill:#00205C;}
	.st154{clip-path:url(#SVGID_00000106831589793564477020000004576688549594827408_);}
	.st155{fill:#29A43B;}
	.st156{fill:#BFE1F4;}
	.st157{fill:#D2E9F7;}
	.st158{fill:#444592;}
	.st159{fill:#BBA26A;}
	.st160{fill:#ACB217;}
	.st161{fill:url(#SVGID_00000013163641029383358440000015984872368521488795_);}
	.st162{fill-rule:evenodd;clip-rule:evenodd;fill:#211F1F;}
	.st163{fill:url(#SVGID_00000043447142550009951720000013647759315923772034_);}
	.st164{fill:url(#SVGID_00000124840819685618502080000013053331243951983496_);}
	.st165{fill:url(#SVGID_00000180349246265080688820000012080911354819506598_);}
	.st166{fill:url(#SVGID_00000130634664343040477170000004773220578783568062_);}
	.st167{fill:url(#SVGID_00000023259225020318909160000000205846494446030216_);}
	.st168{fill:url(#SVGID_00000031184083899050038300000007968840219526153632_);}
	.st169{fill:url(#SVGID_00000083781263507389086060000017615130815146624666_);}
	.st170{fill:url(#SVGID_00000126312840130391139190000007720710408767005879_);}
	.st171{fill:url(#SVGID_00000175296191378723267610000007338722961196047777_);}
	.st172{fill:url(#SVGID_00000063616754642779566600000012131805277243628673_);}
	.st173{fill:url(#SVGID_00000131347813674366727900000003974965802280860033_);}
	.st174{fill:url(#SVGID_00000168816979624965048550000010683370635824708020_);}
	.st175{fill:url(#SVGID_00000068638719397565859050000000808918432566302899_);}
	.st176{fill:url(#SVGID_00000156551081656627523970000000015956394280476565_);}
	.st177{fill:url(#SVGID_00000068651131420009415670000006499171623897919919_);}
	.st178{fill:url(#SVGID_00000165233042730538903170000016494272143819731589_);}
	.st179{fill:url(#SVGID_00000011718810551293613260000009849647019715911072_);}
	.st180{fill:url(#SVGID_00000080918449875874532510000009824491176563648946_);}
	.st181{fill:url(#SVGID_00000058587294492182512350000012029851140436886954_);}
	.st182{fill:url(#SVGID_00000155105264919234989940000013664029786499050924_);}
	.st183{fill:url(#SVGID_00000163762014663284056150000011932453324350210970_);}
	.st184{fill:url(#SVGID_00000163756876286145173360000010055947070438635154_);}
	.st185{fill:url(#SVGID_00000157283088514234270590000000332691949478173835_);}
	.st186{fill:url(#SVGID_00000057149981372792877690000014844724485997247419_);}
	.st187{fill:url(#SVGID_00000140693035006405762240000000989890006234310332_);}
	.st188{fill:url(#SVGID_00000172410921265477550260000017231834489415935405_);}
	
		.st189{clip-path:url(#SVGID_00000041258594921446009320000002882063715768587934_);fill:url(#SVGID_00000012441115065516503350000011103092715399645825_);}
	.st190{fill:url(#SVGID_00000010299605175285624540000015808279965150957190_);}
	.st191{fill:url(#SVGID_00000103947333005293703700000005871268270298355111_);}
	.st192{fill:url(#SVGID_00000077321288265975928760000003098951660768206261_);}
	.st193{fill:url(#SVGID_00000111879381348141505640000012359762779166616207_);}
	.st194{fill-rule:evenodd;clip-rule:evenodd;fill:url(#SVGID_00000082358853135665165500000001075692709839360401_);}
	.st195{fill:#F6F0F3;}
	.st196{fill:#F8F4F6;}
	.st197{fill:#FFFCFD;}
	.st198{fill:#0F4D80;}
	.st199{fill:#2F93D1;}
	.st200{display:none;}
	.st201{display:inline;fill:#0F4D80;}
	.st202{display:inline;fill:#2F93D1;}
	.st203{display:inline;fill:#FFFFFF;}
	.st204{opacity:0.3;}
	.st205{fill:#65A1D7;}
	.st206{fill:#E63922;}
	.st207{fill:#33712F;}
	.st208{fill:#509BD5;}
	.st209{fill:#2C88C7;}
	.st210{fill:#A9DBF7;}
	.st211{fill:#EEB68A;}
	.st212{fill:#FBD3AD;}
	.st213{fill:#270C12;}
	.st214{fill:#230A10;}
	.st215{fill:#A2403B;}
	.st216{fill:#C1665D;}
	.st217{fill:#DFECF8;}
	.st218{fill:#411017;}
	.st219{fill:#262626;}
	.st220{opacity:0.47;}
	.st221{fill:#FAD8D5;}
	.st222{fill:#FBE1DE;}
	.st223{fill:#EA808C;}
	.st224{fill:#C9E7F7;}
	.st225{fill:#E5F3FD;}
	.st226{fill:#FDEEEE;}
	.st227{fill:#F7C7C9;}
	.st228{fill:#ECF6F7;}
	.st229{fill:#A0D0F1;}
	.st230{fill:#97C7EC;}
	.st231{fill:#9ECFF1;}
	.st232{fill:#E8F4F6;}
	.st233{fill:#BEE3F5;}
	.st234{fill:#D7EDF6;}
	.st235{fill:#ED705B;}
	.st236{fill:#F9C9BA;}
	.st237{fill:#8BC5EC;}
	.st238{fill:#F5AC9B;}
	.st239{fill:#F1907E;}
	.st240{fill:#D6EDF6;}
	.st241{fill:#4B8739;}
	.st242{fill:#F39B8B;}
	.st243{fill:#C5D4E1;}
	.st244{fill:#F29A9C;}
	.st245{fill:#3C3C3B;}
	.st246{fill:#EE808D;}
	.st247{fill:#187FB9;}
	.st248{fill:#2EA8E0;}
	.st249{fill:#80CEF4;}
	.st250{fill:#BDE3F6;}
	.st251{fill:#EA5B2B;}
	.st252{fill:#E73F2F;}
	.st253{opacity:0.26;fill:#D3B0D4;}
	.st254{fill:url(#SVGID_00000075144256196180119450000015007563877974644409_);}
	.st255{fill:#B7553B;}
	.st256{fill:#E63924;}
	.st257{fill:#441943;}
	.st258{fill:#281028;}
	.st259{fill:#8BCAB9;}
	.st260{fill:#D9271B;}
	.st261{fill:#FCE7E5;}
	.st262{fill:#A9D7CF;}
	.st263{fill:url(#SVGID_00000088827047135352425410000014608585307402051720_);}
	.st264{fill:url(#SVGID_00000081605367953541356810000009334375830698053022_);}
	.st265{fill:url(#SVGID_00000039120959949624413490000007544766896878519696_);}
	.st266{opacity:0.26;fill:#A2403B;}
	.st267{fill:#6E4594;}
	.st268{fill:#B65650;}
	.st269{fill:url(#SVGID_00000078731020486081878480000005863970337247591080_);}
	.st270{fill:#454545;}
	.st271{fill:#A7D9F5;}
	.st272{fill:#24212E;}
	.st273{fill:#6D1B0F;}
	.st274{fill:#3E4055;}
	.st275{fill:#3E4052;}
	.st276{fill:#77491E;}
	.st277{fill:#474A5E;}
	.st278{fill:#24222D;}
	.st279{fill:#D6D6D6;}
	.st280{fill:#F8C6BD;}
	.st281{fill:#3F292A;}
	.st282{fill:#E7E8EC;}
	.st283{fill:#F9D3CA;}
	.st284{fill:#E9B9A6;}
	.st285{fill:#0E0C09;}
	.st286{fill:#CCDADA;}
	.st287{fill:#EDBDAA;}
	.st288{fill:#535459;}
	.st289{fill:#929497;}
	.st290{fill:#3164AC;}
	.st291{fill:#D53939;}
	.st292{fill:#313134;}
	.st293{fill:url(#SVGID_00000147186618802820975170000015500140084525808297_);}
	.st294{fill:url(#SVGID_00000160163414228055014710000008568405329859715477_);}
	.st295{fill:url(#SVGID_00000140000155533693978790000013378072891175214982_);}
	.st296{fill:#E6E7E7;}
	.st297{clip-path:url(#SVGID_00000096752956537852506940000010609263950714381758_);}
	.st298{fill:#F7F6F6;}
	.st299{fill:#0E4D80;}
	.st300{opacity:0.31;}
	.st301{opacity:0;}
	.st302{fill:#010100;}
	.st303{opacity:4.653465e-03;}
	.st304{opacity:9.306931e-03;}
	.st305{opacity:0.014;}
	.st306{opacity:0.0186;}
	.st307{opacity:0.0233;}
	.st308{opacity:0.0279;}
	.st309{opacity:0.0326;}
	.st310{opacity:0.0372;}
	.st311{opacity:0.0419;}
	.st312{opacity:0.0465;}
	.st313{opacity:0.0512;}
	.st314{opacity:0.0558;}
	.st315{opacity:0.0605;}
	.st316{opacity:0.0651;}
	.st317{opacity:0.0698;}
	.st318{opacity:0.0745;}
	.st319{opacity:0.0791;}
	.st320{opacity:0.0838;}
	.st321{opacity:0.0884;}
	.st322{opacity:0.0931;}
	.st323{opacity:0.0977;}
	.st324{opacity:0.1024;}
	.st325{opacity:0.107;}
	.st326{opacity:0.1117;}
	.st327{opacity:0.1163;}
	.st328{opacity:0.121;}
	.st329{opacity:0.1256;}
	.st330{opacity:0.1303;}
	.st331{opacity:0.135;}
	.st332{opacity:0.1396;}
	.st333{opacity:0.1443;}
	.st334{opacity:0.1489;}
	.st335{opacity:0.1536;}
	.st336{opacity:0.1582;}
	.st337{opacity:0.1629;}
	.st338{opacity:0.1675;}
	.st339{opacity:0.1722;}
	.st340{opacity:0.1768;}
	.st341{opacity:0.1815;}
	.st342{opacity:0.1861;}
	.st343{opacity:0.1908;}
	.st344{opacity:0.1954;}
	.st345{opacity:0.2001;}
	.st346{opacity:0.2048;}
	.st347{opacity:0.2094;}
	.st348{opacity:0.2141;}
	.st349{opacity:0.2187;}
	.st350{opacity:0.2234;}
	.st351{opacity:0.228;}
	.st352{opacity:0.2327;}
	.st353{opacity:0.2373;}
	.st354{opacity:0.242;}
	.st355{opacity:0.2466;}
	.st356{opacity:0.2513;}
	.st357{opacity:0.2559;}
	.st358{opacity:0.2606;}
	.st359{opacity:0.2652;}
	.st360{opacity:0.2699;}
	.st361{opacity:0.2746;}
	.st362{opacity:0.2792;}
	.st363{opacity:0.2839;}
	.st364{opacity:0.2885;}
	.st365{opacity:0.2932;}
	.st366{opacity:0.2978;}
	.st367{opacity:0.3025;}
	.st368{opacity:0.3071;}
	.st369{opacity:0.3118;}
	.st370{opacity:0.3164;}
	.st371{opacity:0.3211;}
	.st372{opacity:0.3257;}
	.st373{opacity:0.3304;}
	.st374{opacity:0.335;}
	.st375{opacity:0.3397;}
	.st376{opacity:0.3444;}
	.st377{opacity:0.349;}
	.st378{opacity:0.3537;}
	.st379{opacity:0.3583;}
	.st380{opacity:0.363;}
	.st381{opacity:0.3676;}
	.st382{opacity:0.3723;}
	.st383{opacity:0.3769;}
	.st384{opacity:0.3816;}
	.st385{opacity:0.3862;}
	.st386{opacity:0.3909;}
	.st387{opacity:0.3955;}
	.st388{opacity:0.4002;}
	.st389{opacity:0.4049;}
	.st390{opacity:0.4095;}
	.st391{opacity:0.4142;}
	.st392{opacity:0.4188;}
	.st393{opacity:0.4235;}
	.st394{opacity:0.4281;}
	.st395{opacity:0.4328;}
	.st396{opacity:0.4374;}
	.st397{opacity:0.4421;}
	.st398{opacity:0.4467;}
	.st399{opacity:0.4514;}
	.st400{opacity:0.456;}
	.st401{opacity:0.4607;}
	.st402{opacity:0.4653;}
	.st403{fill:url(#SVGID_00000137835626135851682740000010853205030578919312_);}
	.st404{fill:url(#SVGID_00000092440935525408781220000006511122562066560155_);}
	.st405{fill:url(#SVGID_00000068675412360021324320000009542157549928121738_);}
	.st406{fill:#C6A295;}
	.st407{fill:#EFC5B3;}
	.st408{fill:#121214;}
	.st409{fill:#BBBDBE;}
	.st410{fill:#863C13;}
	.st411{fill:#B96117;}
	.st412{fill:#EF8118;}
	.st413{fill:#BA5817;}
	.st414{fill:#6D6F71;}
	.st415{fill:#E21D26;}
	.st416{fill:#2C5E84;}
	.st417{fill:#9C251F;}
	.st418{fill:url(#SVGID_00000129902930229530803250000017481728382599061678_);}
	.st419{fill:#1C374E;}
	.st420{fill:#2B4E68;}
	.st421{opacity:0.3;fill:#121214;}
	.st422{fill:url(#SVGID_00000104695622617695164970000017008439081100559252_);}
	.st423{fill:url(#SVGID_00000163073442551331907380000003816106800427141001_);}
	.st424{fill:url(#SVGID_00000139268071014919714920000018379772584629083022_);}
	.st425{fill:url(#SVGID_00000102536224740639029060000008111956017130738828_);}
	.st426{fill:url(#SVGID_00000083080911300760389270000011346100162155552666_);}
	.st427{fill:url(#SVGID_00000126321055241669011300000011904120735888281218_);}
	.st428{fill:#0C0C0C;}
	.st429{fill:#603914;}
	.st430{fill:#E86821;}
	.st431{fill:#171717;}
	.st432{fill:#663F30;}
	.st433{fill:url(#SVGID_00000177456005561682344400000000984096684029685932_);}
	.st434{fill:url(#SVGID_00000000193976797347373470000005194884737983546248_);}
	.st435{fill:url(#SVGID_00000037678166370165371360000003280212779577291137_);}
	.st436{fill:url(#SVGID_00000105428345078226919560000018036608551671663014_);}
	.st437{fill:url(#SVGID_00000103985216644008080410000005726810097951212202_);}
	.st438{fill:url(#SVGID_00000075876700121201332150000012576524309694932888_);}
	.st439{fill:url(#SVGID_00000164510856316934927990000006719536901637675955_);}
	.st440{fill:url(#SVGID_00000145048386913173896620000001368462437237800351_);}
	.st441{fill:url(#SVGID_00000086666282563383033710000008174108868344902806_);}
	.st442{fill:url(#SVGID_00000141413600387312263890000012302263387809719741_);}
	.st443{fill:url(#SVGID_00000015355752259071364330000006326953699536350601_);}
	.st444{fill:url(#SVGID_00000025401176838058420360000002285364720644166025_);}
	.st445{fill:url(#SVGID_00000021085641872973573260000007579162223553155761_);}
	.st446{fill:url(#SVGID_00000108303369072834967870000013382539567632183223_);}
	.st447{fill:url(#SVGID_00000123440125253050746140000007982790017164809114_);}
	.st448{fill:url(#SVGID_00000139268541023744355540000014830217874666083457_);}
	.st449{fill:url(#SVGID_00000165938853460444821690000010487662322743116704_);}
	.st450{fill:url(#SVGID_00000156558640051033889760000009096557981188426907_);}
	.st451{fill:#B7B7B7;}
	.st452{fill:#112134;}
	.st453{fill:#414042;}
	.st454{fill:#221E20;}
	.st455{fill:#131313;}
	.st456{fill:#202020;}
	.st457{fill:#915E33;}
	.st458{fill:#57391E;}
	.st459{fill:#F39519;}
	.st460{fill:#F4B305;}
	.st461{fill:#C4C3C3;}
	.st462{fill:#A5A4A5;}
	.st463{fill:#888989;}
	.st464{fill:#242424;}
	.st465{fill:#6E4827;}
	.st466{opacity:0.1844;fill:#24222D;}
	.st467{fill:#A0A4BB;}
	.st468{opacity:0.1844;fill:#999AB6;}
	.st469{fill:#D9E3E3;}
	.st470{fill:#FAD5CB;}
	.st471{opacity:0.1844;fill:#24212E;}
	.st472{fill:#844013;}
	.st473{fill:#F8B777;}
	.st474{fill:#3576AB;}
	.st475{fill:#A2A1A1;}
	.st476{fill:#754C29;}
	.st477{fill:#B3DFF1;}
	.st478{fill:#80A5A5;}
	.st479{fill:#EAAE93;}
	.st480{fill:#00657E;}
	.st481{fill:#382E22;}
	.st482{fill:#157288;}
	.st483{fill:#A42916;}
	.st484{fill:#D43216;}
	.st485{fill:#E5A082;}
	.st486{fill:#B23318;}
	.st487{fill:#843E1E;}
	.st488{fill:#EDBEA8;}
	.st489{fill:#E94E49;}
	.st490{fill:#E3E4E3;}
	.st491{fill:#B9B9B9;}
	.st492{fill:#868787;}
	.st493{fill:url(#XMLID_00000064337195564663511250000009433884233327381678_);}
	.st494{fill:#989898;}
	.st495{fill:url(#XMLID_00000012430561404937478610000009084316576794896009_);}
	.st496{fill:#EEECEB;}
	.st497{fill:#D5D5D5;}
	.st498{fill:url(#XMLID_00000181768994411576439690000000311122487430802097_);}
	.st499{fill:url(#XMLID_00000116950514433195149950000009417610938744664452_);}
	.st500{fill:url(#XMLID_00000114777460450785289860000016842758193386523790_);}
	.st501{fill:url(#XMLID_00000087403075957585358780000009883090447717212056_);}
	.st502{fill:url(#XMLID_00000021093849457147449030000000586706622189838492_);}
	.st503{fill:url(#XMLID_00000114045245109852140510000006647627832695497110_);}
	.st504{fill:url(#XMLID_00000064328695170310700130000013965231509674243466_);}
	.st505{fill:url(#XMLID_00000142166478954445963780000006775392050622985602_);}
	.st506{fill:url(#XMLID_00000146468785627123003940000002288209270170834110_);}
	.st507{fill:url(#XMLID_00000013891515502656600310000005900487489430099129_);}
	.st508{fill:url(#XMLID_00000060742658909449096470000004476955490906623892_);}
	.st509{fill:url(#XMLID_00000108990436091915525520000009037899513253448358_);}
	.st510{fill:url(#XMLID_00000023266783591200729170000004679100096512550584_);}
	.st511{fill:url(#XMLID_00000049909766688966140510000002377838620937438375_);}
	.st512{fill:url(#XMLID_00000035522646980575380380000014628361721878375335_);}
	.st513{fill:url(#XMLID_00000021106047473142734890000013839664008761128380_);}
	.st514{fill:url(#XMLID_00000065754734702228031710000009380944351381418940_);}
	.st515{fill:url(#XMLID_00000147183215685213703250000007113732229912258746_);}
	.st516{fill:url(#XMLID_00000011711923319429708450000014523227369374130590_);}
	.st517{fill:url(#XMLID_00000038410361702275829220000009469436524950397318_);}
	.st518{fill:url(#XMLID_00000063619485040687601440000000652354093752032938_);}
	.st519{fill:url(#XMLID_00000157988020880187307700000003910166480528031666_);}
	.st520{fill:url(#XMLID_00000093878913629259349000000002725035779654464408_);}
	.st521{fill:url(#XMLID_00000114772302675167270140000007023088499980266168_);}
	.st522{fill:url(#XMLID_00000016763497911302955850000004411610600818494083_);}
	.st523{fill:url(#XMLID_00000009557468700419142320000010354700488055004307_);}
	.st524{fill:url(#XMLID_00000148637571115396645480000001349694548363723964_);}
	.st525{fill:url(#XMLID_00000026849070252605618960000004385300779115870099_);}
	.st526{fill:url(#XMLID_00000049186637089294777110000010616004937300842628_);}
	.st527{fill:url(#XMLID_00000028305100450999803480000007147021985648153219_);}
	.st528{fill:url(#XMLID_00000093168602863703620560000010981170909596217742_);}
	.st529{fill:url(#XMLID_00000153687694801480636140000011178374065785028027_);}
	.st530{fill:url(#XMLID_00000056405301379555174410000003795724145377080710_);}
	.st531{fill:url(#XMLID_00000085956297686796974100000013177033874022261647_);}
	.st532{fill:url(#XMLID_00000114760290473427026840000015137105470438587835_);}
	.st533{fill:url(#XMLID_00000170970631247743604230000014399642198155273126_);}
	.st534{fill:url(#XMLID_00000041989769190816690320000005434120214234384307_);}
	.st535{fill:url(#XMLID_00000048492355318147679970000005042375896890228636_);}
	.st536{fill:url(#XMLID_00000167360059351699623020000003120417897885176457_);}
	.st537{fill:url(#XMLID_00000129201706103166339190000012979784071204977295_);}
	.st538{fill:url(#XMLID_00000079444908772153191070000005949399650655493532_);}
	.st539{fill:url(#XMLID_00000008867744544010642470000006863056849280102788_);}
	.st540{fill:url(#XMLID_00000103951855377806625690000011656814037965710255_);}
	.st541{fill:url(#XMLID_00000183234228129020345250000016907430907620398006_);}
	.st542{fill:url(#XMLID_00000021102674889978167760000002143625756729117824_);}
	.st543{fill:url(#XMLID_00000115482284260146024290000010390474260178761861_);}
	.st544{fill:url(#XMLID_00000138541332771016764870000013166996738504264588_);}
	.st545{fill:url(#XMLID_00000049184364679544917800000002238123551786121139_);}
	.st546{fill:url(#XMLID_00000121964032271948502020000007125201059089574824_);}
	.st547{fill:url(#XMLID_00000020388052208740575800000016626220387592766903_);}
	.st548{fill:url(#XMLID_00000046339374186143450450000011284488014720874131_);}
	.st549{fill:url(#XMLID_00000098912590447333698850000014665204308670610579_);}
	.st550{fill:url(#XMLID_00000066498402697679439500000012698991908188270230_);}
	.st551{fill:url(#XMLID_00000080180918029702384410000012896143068214117249_);}
	.st552{fill:url(#XMLID_00000124156378391706272070000002034252306922546617_);}
	.st553{fill:url(#XMLID_00000067932886543352549370000011911529154639274149_);}
	.st554{fill:url(#XMLID_00000159451934972685262160000013459101267211623589_);}
	.st555{fill:url(#XMLID_00000094595561275165869020000018357075181108710042_);}
	.st556{fill:url(#XMLID_00000154407102088261107730000001355470031554369183_);}
	.st557{fill:url(#XMLID_00000051353478692900487500000002049691347191276435_);}
	.st558{fill:url(#XMLID_00000055665363233513946870000017603911265324167321_);}
	.st559{fill:url(#XMLID_00000056426747806333775790000011037437197162667689_);}
	.st560{fill:url(#XMLID_00000124881158691285156570000005402606579297285774_);}
	.st561{fill:url(#XMLID_00000143583130081422354870000012496085630418772100_);}
	.st562{fill:url(#XMLID_00000097484450607322865310000005208610320237217668_);}
	.st563{fill:url(#XMLID_00000159448328843355349960000001057787801434485380_);}
	.st564{fill:url(#XMLID_00000134240399359019125750000014477108009221085586_);}
	.st565{fill:url(#XMLID_00000080169418934775155130000000412574656722639745_);}
	.st566{fill:url(#XMLID_00000088127973786863610600000014552865420762436748_);}
	.st567{fill:url(#XMLID_00000124862951880945600050000011700764750105252746_);}
	.st568{fill:url(#XMLID_00000109018770755023437080000013464008944745162652_);}
	.st569{fill:url(#XMLID_00000158021102768809845390000008624892572745253803_);}
	.st570{fill:url(#XMLID_00000008853564373208946180000008366774593426774671_);}
	.st571{fill:url(#XMLID_00000013191185904260506630000004052358410208242354_);}
	.st572{fill:url(#XMLID_00000065054089275573669000000004396065667592224148_);}
	.st573{fill:url(#XMLID_00000010273238602998701610000007221199901163790737_);}
	.st574{fill:url(#XMLID_00000151527220178616696400000011619081739251499923_);}
	.st575{fill:url(#XMLID_00000168076538114630998900000016973294350255702429_);}
	.st576{fill:url(#XMLID_00000105395047712968452830000014128923227824916382_);}
	.st577{fill:url(#XMLID_00000007407675356592207100000009810235562753423253_);}
	.st578{fill:url(#XMLID_00000103262132520094105880000010347469780822174880_);}
	.st579{fill:url(#XMLID_00000078037553795080237410000008127394921288578445_);}
	.st580{fill:url(#XMLID_00000023246668781554195480000004118488621162459824_);}
	.st581{fill:url(#XMLID_00000173158111171653255090000014139263288441968776_);}
	.st582{fill:url(#XMLID_00000108302417140942916860000010994163188733198728_);}
	.st583{fill:url(#XMLID_00000091726927398491849840000014708164678811498669_);}
	.st584{fill:url(#XMLID_00000178903660861273633680000015424881986344966049_);}
	.st585{fill:url(#XMLID_00000119808792991368459280000009436074224025213349_);}
	.st586{fill:url(#XMLID_00000049942523129232967630000007113579649876442538_);}
	.st587{fill:url(#XMLID_00000036222914971529848460000013668545793471962249_);}
	.st588{fill:url(#XMLID_00000041284290549675224570000000295069724378425777_);}
	.st589{fill:url(#XMLID_00000137846743033266062350000001778019326433778108_);}
	.st590{fill:url(#XMLID_00000150102102522997656810000002472951349063164592_);}
	.st591{fill:url(#XMLID_00000160882549362952446590000004139503263469245318_);}
	.st592{fill:url(#XMLID_00000172416546728998598980000002826707191663693244_);}
	.st593{fill:url(#XMLID_00000014628252281077579990000003762911684900556440_);}
	.st594{fill:url(#XMLID_00000075131113502112185250000001853633298228537506_);}
	.st595{fill:url(#XMLID_00000121269316943225988270000014262298427888481672_);}
	.st596{fill:url(#XMLID_00000137117289179934662530000000656359051735680660_);}
	.st597{fill:url(#XMLID_00000176021662586568644280000010251128270498983058_);}
	.st598{fill:#FCFDFF;}
	.st599{fill:#757576;}
	.st600{fill:#D4D3D3;}
	.st601{fill:#E2E4E0;}
	.st602{fill:#B5B4B4;}
	.st603{fill:#908F8A;}
	.st604{fill:#F6F6F5;}
	.st605{fill:#3E4046;}
	.st606{fill:#525557;}
	.st607{fill:#E1E2E2;}
	.st608{fill:#E8E9EA;}
	.st609{fill:#2B2E35;}
	.st610{fill:#64666B;}
	.st611{fill:url(#XMLID_00000102536047243700186050000013756423955226302603_);}
	.st612{fill:#F0F0F0;}
	.st613{fill:#757779;}
	.st614{fill:#191B22;}
	.st615{fill:#14181E;}
	.st616{fill:#11141A;}
	.st617{fill:#DAEBE7;}
	.st618{fill:#7F8082;}
	.st619{fill:#A7B3B4;}
	.st620{fill:#3C575C;}
	.st621{fill:#CED6D6;}
	.st622{fill:#1A3A66;}
	.st623{fill:#2887C4;}
	.st624{fill:#66C3D8;}
	.st625{fill:#07282F;}
	.st626{fill:#8B9B9D;}
	.st627{fill:#72888C;}
	.st628{fill:#7F1710;}
	.st629{fill:#C3253D;}
	.st630{fill:#D9648A;}
	.st631{fill:#A24817;}
	.st632{fill:#DAA802;}
	.st633{fill:#EEB219;}
	.st634{fill:#424242;}
	.st635{fill:#474646;}
	.st636{fill:#AAB545;}
	.st637{fill:#C17D11;}
	.st638{fill:#CACCD2;}
	.st639{fill:#B6BCC6;}
	.st640{fill:#353842;}
	.st641{fill:#585C64;}
	.st642{fill:#454852;}
	.st643{fill:#62656C;}
	.st644{fill:#72757B;}
	.st645{fill:#3A3D42;}
	.st646{fill:#494D53;}
	.st647{fill:#161A24;}
	.st648{fill:#4C4F58;}
	.st649{fill:#666970;}
	.st650{fill:#7F7F83;}
	.st651{fill:#383C40;}
	.st652{fill:#1E222B;}
	.st653{fill:url(#XMLID_00000005260754554507947310000010030389532799339163_);}
	.st654{fill:#3D4049;}
	.st655{fill:url(#XMLID_00000151531018383346707040000013131908405107097241_);}
	.st656{fill:#30333C;}
	.st657{fill:#474D57;}
	.st658{fill:#75787F;}
	.st659{fill:#2F7E9D;}
	.st660{fill:#6DC0B2;}
	.st661{fill:url(#XMLID_00000044875244280337120440000004698959539527935370_);}
	.st662{fill:#F1F8FA;}
	.st663{fill:url(#XMLID_00000145779975777277022440000004817859813684684936_);}
	.st664{fill:url(#XMLID_00000085938502393166934680000007425160089073305988_);}
	.st665{fill:#ECF6F9;}
	.st666{fill:url(#XMLID_00000103242618870979450320000002875974082007479697_);}
	.st667{fill:url(#XMLID_00000182520517957328461970000018003496200883819169_);}
	.st668{fill:#CFE4F1;}
	.st669{fill:#DADADA;}
	.st670{fill:#D32D16;}
	.st671{fill:#176581;}
	.st672{fill:#9ED1F2;}
	.st673{fill:#1B222D;}
	.st674{fill:#EBE9EA;}
	.st675{fill:#C9CED5;}
	.st676{fill:#E1E0E0;}
	.st677{fill:#E7E6E6;}
	.st678{fill:#E8E7E7;}
	.st679{fill:#BFCBDD;}
	.st680{fill:#9D958F;}
	.st681{fill:#FFDC04;}
	.st682{fill:#B21828;}
	.st683{fill:#D8408F;}
	.st684{fill:#574997;}
	.st685{fill:#356AB1;}
	.st686{fill:#45B3E7;}
	.st687{fill:#2D8A36;}
	.st688{fill:#D0CFD0;}
	.st689{fill:#98A88B;}
	.st690{fill:#F8E825;}
	.st691{fill:#CB1333;}
	.st692{fill:url(#XMLID_00000000212657635388225530000010791187876572129428_);}
	.st693{fill:#0B0E18;}
	.st694{fill:#40424A;}
	.st695{fill:url(#XMLID_00000129895625838264035240000010630160914474469523_);}
	.st696{fill:#71757D;}
	.st697{fill:#C2C2C4;}
	.st698{fill:url(#XMLID_00000048490173272746183610000010499937792447957160_);}
	.st699{fill:#9DA094;}
	.st700{fill:#D4D4D4;}
	.st701{fill:url(#XMLID_00000011018080355206355130000014443322893044954543_);}
	.st702{fill:url(#XMLID_00000075162948856823224070000016751685786835413421_);}
	.st703{fill:#E8E8E8;}
	.st704{fill:#15120B;}
	.st705{fill:#4C4842;}
	.st706{fill:#74AEDF;}
	.st707{fill:#413D3F;}
	.st708{fill:#48494A;}
	.st709{fill:#080504;}
	.st710{fill:#4E4D4D;}
	.st711{fill:#A1A0A0;}
	.st712{fill:#FBEEF5;}
	.st713{fill:#BFBEBE;}
	.st714{fill:#015A64;}
	.st715{fill:#B81818;}
	.st716{fill:#8C811D;}
	.st717{fill:#03709B;}
	.st718{fill:#E74B1E;}
	.st719{fill:#F2B000;}
	.st720{fill:#E33335;}
	.st721{fill:#F8F09C;}
	.st722{fill:#FAEF81;}
	.st723{fill:#E7A8CB;}
	.st724{fill:#CD90BE;}
	.st725{fill:#847A73;}
	.st726{fill:#CCCBCB;}
	.st727{fill:#EDECEC;}
	.st728{fill:#9D9D9D;}
	.st729{fill:#EFEFEF;}
	.st730{fill:#4F525A;}
	.st731{fill:#E15C48;}
	.st732{fill:url(#XMLID_00000098187171586724239510000007634635196331089069_);}
	.st733{fill:url(#XMLID_00000174603717157084765250000004949991486120878010_);}
	.st734{fill:url(#XMLID_00000165925462431026990720000011528475801077728674_);}
	.st735{fill:url(#XMLID_00000030452342721140470050000006950796538743775674_);}
	.st736{fill:url(#XMLID_00000000214028774284608340000003022826284474470067_);}
	.st737{fill:#9E9D9D;}
	.st738{fill:#9DCBEF;}
	.st739{fill:#010000;}
	.st740{fill:url(#SVGID_00000152972566841793476250000000847926624781557407_);}
	.st741{fill:url(#SVGID_00000057107004432085587900000013670089139371276733_);}
	.st742{fill:url(#SVGID_00000104698427290321977640000004791960583747771557_);}
	.st743{fill:#D2D2D2;}
	.st744{fill:#232C35;}
	.st745{fill:#E39470;}
	.st746{fill:url(#XMLID_00000112605007135319067270000011888907014496593565_);}
	.st747{fill:#9DA6AC;}
	.st748{fill:#72979F;}
	.st749{fill:#96A1AB;}
	.st750{fill:#5F7887;}
	.st751{fill:#CC1B31;}
	.st752{fill:url(#XMLID_00000081611798715693021350000008686881500945752994_);}
	.st753{fill:url(#XMLID_00000074434519323743799810000015021472263556962688_);}
	.st754{fill:url(#XMLID_00000083770932035947346810000011147720412897740684_);}
	.st755{fill:#C0C4B6;}
	.st756{fill:#CEE8EC;}
	.st757{fill:url(#XMLID_00000063606017261986896900000001212749537449702551_);}
	.st758{fill:url(#XMLID_00000158731887427487917420000011345470210767451782_);}
	.st759{fill:#384C5A;}
	.st760{fill:url(#XMLID_00000041277681139118165220000013335072455106345149_);}
	.st761{fill:#ED9E02;}
	.st762{fill:#FFE253;}
	.st763{fill:#F7C318;}
	.st764{fill:#DDB988;}
	.st765{fill:#D2A37C;}
	.st766{fill:#C98666;}
	.st767{fill:#2C7EAE;}
	.st768{fill:#A61916;}
	.st769{fill:#E6704B;}
	.st770{fill:#DF3118;}
	.st771{fill:#00648A;}
	.st772{fill:#4CB0E4;}
	.st773{fill:#2178BD;}
	.st774{fill:#058A38;}
	.st775{fill:#6EB761;}
	.st776{fill:#4DAD3C;}
	.st777{fill:#283373;}
	.st778{fill:#4A60A8;}
	.st779{fill:#274394;}
	.st780{fill:#49267F;}
	.st781{fill:#7C559E;}
	.st782{fill:#693D8F;}
	.st783{fill:#871D6C;}
	.st784{fill:#C5569A;}
	.st785{fill:#CA1781;}
	.st786{fill:#2D1B1B;}
	.st787{fill:#8A5655;}
	.st788{fill:#734748;}
	.st789{fill:url(#XMLID_00000164486770144989416790000008980866008559814328_);}
	.st790{fill:#A3B5D1;}
	.st791{fill:#04559C;}
</style>
<g>
	<g>
		<path class="st0" d="M65.99,63.43c-19.7,2.28-39.61,2.28-59.31,0C3,62.99,0,59.53,0,55.87C0,40.34,0,24.81,0,9.28
			c0-3.66,3-7.12,6.68-7.57c19.7-2.28,39.61-2.28,59.31,0c3.68,0.44,6.68,3.9,6.68,7.57c0,15.53,0,31.06,0,46.59
			C72.67,59.53,69.67,62.99,65.99,63.43z"/>
	</g>
	<g>
		<g>
			<g>
				<path class="st35" d="M14.33,29.97c-3.66,0-6.64,3.01-6.64,6.71c0,3.7,2.98,6.71,6.64,6.71c1.42,0,2.73-0.45,3.8-1.22v1.28h2.84
					l-0.03-7.4C20.63,32.65,17.78,29.97,14.33,29.97z M14.25,40.5c-2.12,0-3.84-1.72-3.84-3.84c0-2.12,1.72-3.84,3.84-3.84
					c2.12,0,3.84,1.72,3.84,3.84C18.09,38.78,16.37,40.5,14.25,40.5z"/>
				<path class="st35" d="M29.07,29.98c-3.52,0.19-6.32,3.12-6.32,6.7v6.77h2.84l0-6.7c0-1.9,1.54-3.69,3.43-3.89
					c2.3-0.24,4.26,1.57,4.26,3.82v6.77h2.84v-6.67C36.12,32.93,32.92,29.78,29.07,29.98z"/>
			</g>
			<g>
				<g>
					<path class="st139" d="M14.65,28.91c3.52-0.19,6.32-3.12,6.32-6.7v-6.09h-2.84v6.03c0,1.9-1.54,3.69-3.44,3.89
						c-2.3,0.24-4.25-1.57-4.25-3.82v-6.09H7.6v5.99C7.6,25.96,10.8,29.11,14.65,28.91z"/>
					<path class="st139" d="M14.25,14.05c1.13,0,2.05-0.92,2.05-2.05c0-1.13-0.92-2.05-2.05-2.05c-1.13,0-2.05,0.92-2.05,2.05
						C12.19,13.13,13.11,14.05,14.25,14.05z"/>
				</g>
			</g>
			<g>
				<g>
					<g>
						<g>
							<path class="st140" d="M51.28,31.37c-0.11-0.11-0.11-0.28,0-0.39l6.67-6.59c0.11-0.11,0.2-0.07,0.18,0.08v3.85
								c0.02,0.15,0.15,0.28,0.3,0.33H67c0.15-0.05,0.17,0.01,0.03,0.08l-8.63,5.16c-0.14,0.07-0.24,0.26-0.16,0.41v3.72
								c-0.07,0.15-0.16,0.19-0.26,0.08L51.28,31.37z"/>
						</g>
					</g>
					<g>
						<polygon class="st141" points="67.11,28.63 67.11,28.63 67.11,28.63 						"/>
						<path class="st141" d="M67.05,28.66c0.06,0,0.1,0.01,0.11,0.02l-4.34-4.96c-0.11-0.11-0.2-0.07-0.2,0.08l-0.02,4.86H67.05z"/>
					</g>
				</g>
				<g>
					<g>
						<g>
							<path class="st140" d="M56.86,22.75c0.08,0.08,0.08,0.21,0,0.29l-4.98,4.91c-0.08,0.08-0.15,0.05-0.26-0.06v-2.87
								c0.11-0.11,0.02-0.21-0.09-0.15h-6.86c-0.12-0.06-0.13-0.1-0.03-0.16l6.9-3.85c0.1-0.06,0.18-0.19,0.2-0.31v-2.77
								c-0.02-0.12,0.04-0.14,0.12-0.06L56.86,22.75z"/>
						</g>
					</g>
					<path class="st141" d="M44.66,24.87c-0.05,0-0.07-0.01-0.08-0.02c0,0,0,0,0,0l3.7,3.7c0.08,0.08,0.15,0.05,0.15-0.06l0.02-3.62
						H44.66z"/>
				</g>
				<g>
					<g>
						<g>
							<g>
								<path class="st140" d="M58.36,21.56c-0.06,0.06-0.16,0.06-0.22,0l-3.64-3.69c-0.06-0.06-0.04-0.11,0.05-0.22h2.13
									c0.08,0.1,0.15,0.03,0.15-0.05v-5.08c0.01-0.09,0.04-0.09,0.08-0.02l2.85,5.11c0.04,0.07,0.14,0.13,0.23,0.16h2.06
									c0.09-0.03,0.11,0.02,0.05,0.08L58.36,21.56z"/>
							</g>
						</g>
					</g>
					<g>
						<path class="st141" d="M56.83,12.5c0-0.03,0.01-0.05,0.02-0.06c0,0,0,0,0,0l-2.74,2.74c-0.06,0.06-0.04,0.11,0.04,0.11
							l2.69,0.01V12.5z"/>
					</g>
				</g>
			</g>
			<g>
				<path class="st35" d="M48.93,31.49l-5.52-5.52L41.39,28l2.06,2.06c-3.15,0.57-5.54,3.32-5.54,6.63c0,3.72,3.02,6.74,6.74,6.74
					c0.01,0,0.01,0,0.02,0c1.72,0,3.45-0.65,4.76-1.96c1.31-1.31,1.97-3.04,1.96-4.76c0-0.01,0-0.01,0-0.02
					C51.38,34.6,50.43,32.73,48.93,31.49z M44.59,40.53c-0.92,0-1.77-0.33-2.44-0.87c-0.06-0.05-0.12-0.11-0.18-0.17
					c-0.75-0.7-1.22-1.7-1.22-2.8c0-2.12,1.72-3.84,3.84-3.84c1.05,0,1.99,0.42,2.69,1.1L47.33,34c0.03,0.03,0.06,0.07,0.09,0.1
					c0.04,0.05,0.09,0.09,0.13,0.14c0.55,0.66,0.87,1.51,0.87,2.44C48.44,38.81,46.71,40.53,44.59,40.53z"/>
			</g>
			<path class="st139" d="M47.36,16.82c0-1.73-0.65-3.46-1.97-4.78c-1.32-1.32-3.05-1.97-4.78-1.97c-0.01,0-0.01,0-0.02,0
				c-2.32,0-4.36,1.17-5.58,2.94c-0.23-0.34-0.5-0.67-0.8-0.97c-1.32-1.32-3.05-1.97-4.78-1.97c-0.01,0-0.01,0-0.02,0
				c-3.74,0-6.77,3.03-6.77,6.77c0,3.33,2.4,6.09,5.56,6.66L26.2,25.5l-1.6-1.6l-2.04,2.04l3.63,3.63l0.04-0.04l0.01,0.01l7.48-7.48
				c0.49-0.41,0.92-0.88,1.28-1.41c1,1.47,2.57,2.52,4.39,2.85l-1.83,1.83l-1.43-1.43l-2.17,2.17l3.46,3.46l0,0v0l7.48-7.48
				c1.5-1.24,2.46-3.12,2.46-5.22C47.36,16.83,47.36,16.82,47.36,16.82z M32.39,19.28c-0.04,0.05-0.09,0.1-0.13,0.15
				c-0.03,0.03-0.06,0.07-0.09,0.1l-0.06,0.06c-0.69,0.68-1.64,1.1-2.69,1.1c-2.12,0-3.84-1.72-3.84-3.84c0-1.11,0.47-2.1,1.22-2.8
				c0.06-0.06,0.12-0.11,0.18-0.17C27.65,13.33,28.5,13,29.42,13c2.12,0,3.84,1.72,3.84,3.84C33.27,17.77,32.94,18.62,32.39,19.28z
				 M43.52,19.28c-0.04,0.05-0.09,0.1-0.13,0.15c-0.03,0.03-0.06,0.07-0.09,0.1l-0.06,0.06c-0.69,0.68-1.64,1.1-2.69,1.1
				c-2.12,0-3.84-1.72-3.84-3.84c0-1.11,0.47-2.1,1.22-2.8c0.06-0.06,0.12-0.11,0.18-0.17c0.66-0.55,1.51-0.87,2.44-0.87
				c2.12,0,3.84,1.72,3.84,3.84C44.4,17.77,44.07,18.62,43.52,19.28z"/>
		</g>
		<g>
			<g>
				<rect x="11.39" y="47.83" class="st139" width="0.59" height="0.47"/>
				<path class="st139" d="M12.57,49.27c0,0.21-0.07,0.35-0.21,0.41c-0.06,0.03-0.18,0.04-0.35,0.04h-1.17
					c-0.29,0-0.49-0.04-0.62-0.11c-0.17-0.09-0.25-0.27-0.25-0.54V48.3H9.38v0.77c0,0.83,0.48,1.24,1.45,1.24h1.59
					c0.47,0,0.74-0.27,0.74-0.73V48.3h-0.59V49.27z"/>
				<rect x="10.56" y="47.83" class="st139" width="0.59" height="0.47"/>
				<rect x="14.82" y="50.55" class="st139" width="0.59" height="0.47"/>
				<path class="st139" d="M15.65,49.28c0,0.29-0.1,0.44-0.3,0.44h-0.41h-0.09h-0.09c-0.45,0-0.53-0.16-0.53-0.46v-1.79h-0.59v2.11
					c0,0.45,0.28,0.73,0.76,0.73h0.5h0.1h0.44c0.26,0,0.47-0.09,0.61-0.27c0.13-0.15,0.2-0.35,0.2-0.58V48.3h-0.59V49.28z"/>
				<rect x="15.65" y="50.55" class="st139" width="0.59" height="0.47"/>
				<rect x="19.08" y="47" class="st139" width="0.59" height="0.47"/>
				<rect x="21.45" y="47.47" class="st139" width="0.59" height="0.47"/>
				<path class="st139" d="M25.23,49.29c0,0.29-0.1,0.43-0.3,0.43h-0.38h-0.18h-0.51c0.05-0.14,0.07-0.28,0.07-0.44v-1.8h-0.59v1.82
					c0,0.28-0.1,0.42-0.3,0.42h-0.39h-0.1h-0.59c0.05-0.14,0.07-0.28,0.07-0.45V48.3h-0.59v1c0,0.28-0.11,0.42-0.32,0.42h-0.27
					h-0.14H20.5c-0.19,0-0.31-0.01-0.37-0.04c0.19-0.21,0.29-0.46,0.29-0.72c0-0.11-0.02-0.22-0.05-0.34
					c-0.14-0.43-0.51-0.7-0.99-0.7c-0.47,0-0.84,0.27-0.99,0.7c-0.04,0.11-0.05,0.22-0.05,0.34c0,0.26,0.1,0.51,0.29,0.72
					c-0.05,0.02-0.17,0.04-0.37,0.04h-0.24h-0.16h-0.02c-0.46,0-0.54-0.16-0.54-0.46v-1.79h-0.59v2.11c0,0.45,0.28,0.73,0.75,0.73
					h0.42h0.16h0.24c0.43,0,0.8-0.05,1.11-0.16c0.31,0.11,0.68,0.16,1.11,0.16h0.22h0.14h1.75h0.11h1.72h0.19h0.4
					c0.26,0,0.46-0.09,0.61-0.27c0.13-0.15,0.19-0.35,0.19-0.58v-1.99h-0.59V49.29z M19.6,49.43c-0.08,0.05-0.15,0.1-0.22,0.13
					c-0.07-0.04-0.14-0.08-0.21-0.13c-0.17-0.12-0.26-0.29-0.26-0.51c0-0.14,0.04-0.26,0.12-0.36c0.09-0.1,0.21-0.16,0.36-0.16
					c0.3,0,0.48,0.23,0.48,0.51C19.86,49.14,19.78,49.31,19.6,49.43z"/>
				<rect x="28.31" y="47" class="st139" width="0.59" height="0.47"/>
				<rect x="27.48" y="47" class="st139" width="0.59" height="0.47"/>
				<rect x="30.56" y="50.55" class="st139" width="0.59" height="0.47"/>
				<rect x="29.73" y="50.55" class="st139" width="0.59" height="0.47"/>
				<rect x="32.45" y="47.47" class="st139" width="0.59" height="0.47"/>
				<path class="st139" d="M36.14,48.31c-0.44,0-0.84,0.2-1.24,0.61l0.06-1.44h-0.62v2.25H33.7h-0.27h-0.46
					c0.05-0.14,0.07-0.28,0.07-0.45V48.3h-0.59v0.99c0,0.29-0.11,0.43-0.32,0.43h-0.32h-0.09h-0.64c0.05-0.14,0.07-0.28,0.07-0.45
					V48.3h-0.59v0.99c0,0.29-0.1,0.43-0.32,0.43h-0.31h-0.11H29.6c-0.31,0-0.47-0.16-0.47-0.45v-1.38c-0.79,0-1.18,0-1.18,0.01
					c-0.59,0-0.92,0.42-0.92,1.08c0,0.61,0.34,1.07,0.87,1.07c0.31,0,0.52-0.09,0.63-0.27c0.14,0.36,0.39,0.54,0.75,0.54h0.51h0.11
					h1.79h0.09h1.64h0.27h3.63c0.01-0.14,0.02-0.27,0.02-0.41C37.36,48.92,36.94,48.31,36.14,48.31z M28.55,48.89
					c0,0.37-0.16,0.61-0.42,0.61c-0.25,0-0.43-0.26-0.43-0.57c0-0.35,0.19-0.63,0.44-0.63h0.41V48.89z M36.75,49.72h-1.83
					c0.34-0.59,0.75-0.88,1.21-0.88c0.39,0,0.62,0.33,0.62,0.8C36.75,49.66,36.75,49.69,36.75,49.72z"/>
				<path class="st139" d="M40.97,49.29c0,0.29-0.1,0.43-0.3,0.43h-0.32h-0.22h-0.35v-0.4c0-0.59-0.41-1.01-0.96-1.01
					c-0.58,0-0.99,0.4-0.99,1c0,0.59,0.42,1.01,0.99,1.01c0.2,0,0.33-0.01,0.37-0.03c-0.05,0.17-0.19,0.26-0.42,0.26h-0.05v0.47
					h0.07c0.6,0,0.94-0.24,1.01-0.71h0.36h0.22h0.36c0.26,0,0.47-0.09,0.61-0.26c0.13-0.15,0.2-0.34,0.2-0.57v-2.01h-0.59V49.29z
					 M39.2,49.72h-0.36c-0.23,0-0.38-0.19-0.38-0.44c0-0.24,0.13-0.42,0.36-0.42c0.23,0,0.38,0.17,0.38,0.43V49.72z"/>
				<rect x="42.03" y="47.47" class="st139" width="0.59" height="2.84"/>
				<rect x="45.23" y="47" class="st139" width="0.59" height="0.47"/>
				<rect x="44.4" y="47" class="st139" width="0.59" height="0.47"/>
				<path class="st139" d="M47.36,49.29c0,0.29-0.1,0.43-0.3,0.43h-0.25h-0.22H46.5c-0.29,0-0.44-0.16-0.44-0.45v-1.39
					c-0.77,0-1.16,0-1.16,0.01c-0.57,0-0.89,0.42-0.89,1.08c0,0.61,0.33,1.07,0.85,1.07c0.3,0,0.51-0.09,0.61-0.27
					c0.14,0.36,0.38,0.54,0.73,0.54h0.39h0.22h0.35c0.26,0,0.45-0.09,0.6-0.27c0.13-0.15,0.19-0.35,0.19-0.58v-1.99h-0.59V49.29z
					 M45.35,48.89c0,0.37-0.16,0.61-0.42,0.61c-0.25,0-0.43-0.26-0.43-0.57c0-0.35,0.19-0.63,0.44-0.63h0.41V48.89z"/>
				<path class="st139" d="M51.5,48.3h-0.36l0.55-0.83h-0.73l-0.89,1.42h1.13c0.46,0,0.82,0.36,0.88,0.83H49.7h-0.17
					c-0.43,0-0.51-0.16-0.51-0.46v-1.79h-0.59v2.11c0,0.46,0.28,0.73,0.76,0.73h0.35h0.25h3.03v-0.23
					C52.8,49.04,52.36,48.39,51.5,48.3z"/>
				<path class="st139" d="M56.35,49.29c0,0.29-0.1,0.43-0.3,0.43h-0.32h-0.22h-0.35v-0.4c0-0.59-0.41-1.01-0.97-1.01
					c-0.58,0-0.99,0.4-0.99,1c0,0.59,0.42,1.01,0.99,1.01c0.2,0,0.33-0.01,0.37-0.03c-0.05,0.17-0.19,0.26-0.42,0.26H54.1v0.47h0.07
					c0.6,0,0.94-0.24,1.01-0.71h0.36h0.22h0.36c0.26,0,0.47-0.09,0.61-0.26c0.13-0.15,0.2-0.34,0.2-0.57v-2.01h-0.59V49.29z
					 M54.58,49.72h-0.36c-0.25,0-0.41-0.23-0.38-0.51c0.02-0.19,0.18-0.35,0.37-0.35c0.22,0.01,0.37,0.17,0.37,0.43V49.72z"/>
				<rect x="57.42" y="47.47" class="st139" width="0.59" height="2.84"/>
			</g>
			<g>
				<polygon class="st140" points="11.63,53.12 11.66,53.86 10.59,52.32 9.97,52.32 9.97,54.69 10.44,54.69 10.44,54 10.46,53.23 
					11.63,54.69 12.1,54.69 12.1,52.32 11.63,52.32 				"/>
				<path class="st140" d="M13.37,52.32l-1.06,2.37h0.58l0.17-0.35h1.2l0.17,0.35h0.58l-1.06-2.37H13.37z M13.25,53.86l0.4-0.95
					l0.4,0.95H13.25z"/>
				<path class="st140" d="M14.82,52.91h0.71v1.77H16v-1.77h0.71v-0.47c-0.67,0-1.23,0-1.89,0V52.91z"/>
				<rect x="17.07" y="52.32" class="st140" width="0.47" height="2.37"/>
				<path class="st140" d="M19.26,52.33c-0.75,0-1.27,0.47-1.27,1.23c0,0.76,0.52,1.23,1.27,1.23c0.75,0,1.27-0.46,1.27-1.23
					C20.53,52.8,20.01,52.33,19.26,52.33z M19.26,54.32c-0.44,0-0.75-0.32-0.75-0.76c0-0.43,0.31-0.76,0.75-0.76
					c0.46,0,0.75,0.33,0.75,0.76C20.02,54,19.72,54.32,19.26,54.32z"/>
				<polygon class="st140" points="22.51,53.12 22.54,53.86 21.48,52.32 20.97,52.32 20.97,54.69 21.45,54.69 21.45,54 21.43,53.23 
					22.59,54.69 22.99,54.69 22.99,52.32 22.51,52.32 				"/>
				<path class="st140" d="M24.34,52.32l-1.06,2.37h0.58l0.17-0.35h1.2l0.17,0.35h0.58l-1.06-2.37H24.34z M24.22,53.86l0.4-0.95
					l0.4,0.95H24.22z"/>
				<polygon class="st140" points="26.77,52.32 26.18,52.32 26.18,54.69 27.84,54.69 27.84,54.22 26.77,54.22 				"/>
				<polygon class="st140" points="32.34,52.32 32.06,53.14 31.86,53.9 31.31,52.32 30.96,52.32 30.43,53.9 30.22,53.13 
					29.92,52.32 29.33,52.32 30.21,54.69 30.65,54.69 31.14,53.37 31.64,54.69 32.08,54.69 32.94,52.32 				"/>
				<path class="st140" d="M33.81,52.32l-1.06,2.37h0.58l0.17-0.35h1.2l0.17,0.35h0.58l-1.06-2.37H33.81z M33.7,53.86l0.4-0.95
					l0.4,0.95H33.7z"/>
				<path class="st140" d="M36.59,53.3c-0.3-0.03-0.51-0.07-0.51-0.28c0-0.16,0.19-0.26,0.42-0.26c0.18,0,0.41,0.06,0.54,0.2
					l0.33-0.29c-0.24-0.28-0.51-0.36-0.87-0.36c-0.48,0-0.92,0.25-0.93,0.71c-0.01,0.55,0.44,0.68,0.93,0.72
					c0.32,0.03,0.48,0.12,0.47,0.31c0,0.17-0.19,0.28-0.47,0.28c-0.24,0-0.54-0.1-0.72-0.33l-0.31,0.32
					c0.2,0.33,0.62,0.49,1.02,0.48c0.51,0,0.99-0.23,0.99-0.75C37.49,53.51,37.05,53.34,36.59,53.3z"/>
				<path class="st140" d="M37.66,52.91h0.71v1.77h0.47v-1.77h0.71v-0.47c-0.67,0-1.23,0-1.89,0V52.91z"/>
				<path class="st140" d="M40.38,53.74h1.18v-0.47H40.5v-0.35h1.18v-0.59h-1.77c0,0.79,0,1.58,0,2.37h1.77v-0.47h-1.3V53.74z"/>
				<path class="st140" d="M44.36,52.32l-1.06,2.37h0.58l0.17-0.35h1.2l0.17,0.35h0.58l-1.06-2.37H44.36z M44.24,53.86l0.41-0.95
					l0.4,0.95H44.24z"/>
				<path class="st140" d="M47.12,53.74h0.59v0.37c-0.19,0.14-0.35,0.16-0.52,0.16c-0.58,0-0.77-0.42-0.77-0.75
					c0-0.51,0.3-0.77,0.77-0.77c0.2,0,0.42,0.07,0.58,0.21l0.34-0.32c-0.28-0.27-0.58-0.36-0.91-0.36c-0.9,0-1.31,0.59-1.31,1.25
					c0,0.61,0.36,1.23,1.3,1.23c0.45,0,0.79-0.15,1-0.43v-1.06h-1.06V53.74z"/>
				<path class="st140" d="M49.13,53.74h1.18v-0.47h-1.18v-0.35h1.18v-0.59h-1.66c0,0.79,0,1.58,0,2.37h1.77v-0.47h-1.3V53.74z"/>
				<polygon class="st140" points="52.45,53.12 52.48,53.86 51.41,52.32 50.79,52.32 50.79,54.69 51.26,54.69 51.26,54 51.33,53.23 
					52.49,54.69 52.92,54.69 52.92,52.32 52.45,52.32 				"/>
				<path class="st140" d="M54.58,54.31c-0.55,0-0.73-0.39-0.74-0.73c0-0.34,0.2-0.75,0.74-0.75c0.19,0,0.39,0.06,0.53,0.19
					l0.33-0.32c-0.24-0.24-0.54-0.36-0.86-0.36c-0.86,0-1.26,0.64-1.25,1.24c0,0.64,0.36,1.21,1.25,1.21c0.35,0,0.66-0.11,0.9-0.34
					l-0.33-0.36C55.02,54.23,54.77,54.31,54.58,54.31z"/>
				<polygon class="st140" points="57.28,52.32 56.69,53.26 56.12,52.32 55.52,52.32 55.52,52.35 56.47,53.75 56.47,54.69 
					56.94,54.69 56.94,53.75 57.89,52.35 57.89,52.32 				"/>
			</g>
		</g>
	</g>
</g>
</svg>
