<?xml version="1.0" encoding="utf-8"?>
<!-- Generator: Adobe Illustrator 26.0.2, SVG Export Plug-In . SVG Version: 6.00 Build 0)  -->
<svg version="1.1" id="Calque_1" xmlns="http://www.w3.org/2000/svg" xmlns:xlink="http://www.w3.org/1999/xlink" x="0px" y="0px"
	 viewBox="0 0 120 120" style="enable-background:new 0 0 120 120;" xml:space="preserve">
<style type="text/css">
	.st0{fill:#FFFFFF;}
	.st1{opacity:0.35;fill:url(#SVGID_1_);}
	.st2{opacity:0.35;}
	.st3{opacity:0.25;fill:url(#SVGID_00000107580710513620314770000001386270627487283105_);}
	.st4{opacity:0.27;fill:url(#SVGID_00000050636016776280625650000016779041935661404605_);}
	.st5{opacity:0.17;fill:url(#SVGID_00000025407464974965971630000007061924666386625692_);}
	.st6{opacity:0.62;fill:url(#SVGID_00000097465840246330044520000002768547121788522165_);}
	.st7{opacity:0.37;fill:url(#SVGID_00000114076024983516226360000007827257681773588150_);}
	.st8{opacity:0.47;fill:url(#SVGID_00000147178379452810626800000008740236060379442613_);}
	.st9{opacity:0.47;fill:url(#SVGID_00000158743212347121242820000013674347328666893964_);}
	.st10{opacity:0.47;fill:url(#SVGID_00000112605151468608987750000000347647692543240614_);}
	.st11{opacity:0.48;fill:url(#SVGID_00000144326158407275953730000007374758399994830743_);}
	.st12{opacity:0.48;fill:url(#SVGID_00000183968981078004095560000014173954397679583409_);}
	.st13{opacity:0.4;fill:url(#SVGID_00000101792155056702804000000014491323744955486398_);}
	.st14{fill:#3A63A4;}
	.st15{fill:#CCD35F;}
	.st16{fill:#4B4392;}
	.st17{fill:#2CA696;}
	.st18{fill:#D71158;}
	.st19{fill:#F9BB5A;}
	.st20{fill:#EFB349;}
	.st21{fill:#EC6C44;}
	.st22{fill:#25B1A2;}
	.st23{fill:#CB3580;}
	.st24{fill:#F8DC91;}
	.st25{fill:#C2367E;}
	.st26{fill:#289BB9;}
	.st27{fill:#CC1640;}
	.st28{fill:#4069A8;}
	.st29{fill:#EF8054;}
	.st30{fill:#1B9361;}
	.st31{fill:#1E9CC0;}
	.st32{fill:#8E4794;}
	.st33{fill:#F9B958;}
	.st34{fill:#DF0C1A;}
	.st35{fill:#002D74;}
	.st36{fill:#0069A8;}
	.st37{fill:#15A3DD;}
	.st38{fill:#19A3DD;}
	.st39{fill-rule:evenodd;clip-rule:evenodd;fill:#4AA334;}
	.st40{fill-rule:evenodd;clip-rule:evenodd;fill:#FFFFFF;}
	.st41{fill:#263780;}
	.st42{fill:url(#SVGID_00000052783057556475681380000016467749977250887337_);}
	.st43{fill:url(#SVGID_00000094583407371817704280000002550203368645585075_);}
	.st44{fill:url(#SVGID_00000112601873798126935480000011477846930620769676_);}
	.st45{fill:url(#SVGID_00000018958843800829038440000018306625531702257844_);}
	.st46{fill:url(#SVGID_00000180368070949599116310000006370998669571181990_);}
	.st47{fill:url(#SVGID_00000019636448095996511320000005271775951004634803_);}
	.st48{fill:#AFB6BD;}
	.st49{fill:#31295C;}
	.st50{fill:url(#SVGID_00000017493449835899406930000006615173118471304328_);}
	.st51{fill:url(#SVGID_00000089567737474118870900000010258629190160155270_);}
	.st52{fill:url(#SVGID_00000111903832842209392610000007506091202697481121_);}
	.st53{fill:url(#SVGID_00000042720593467789788170000015887563923652108686_);}
	.st54{fill:url(#SVGID_00000084532512030503998180000003691906274342633640_);}
	.st55{fill:url(#SVGID_00000083068125002238017450000006562279531551065271_);}
	.st56{fill:url(#SVGID_00000113347853634924532660000000502992339747480736_);}
	.st57{fill:url(#SVGID_00000176038642262788344160000004875917066620893607_);}
	.st58{fill:url(#SVGID_00000013172462599427584350000001660692702922433960_);}
	.st59{fill:url(#SVGID_00000054980372566751726750000011865859475166637960_);}
	.st60{fill:url(#SVGID_00000085211429767416298000000007375183223504699047_);}
	.st61{fill:url(#SVGID_00000072240590806795151580000015917584909527565186_);}
	.st62{fill:url(#SVGID_00000052791845110919036350000006911504010748757904_);}
	.st63{fill:url(#SVGID_00000052789011017874521480000009007925938248670860_);}
	.st64{fill:#312782;}
	.st65{fill:#6461A8;}
	.st66{fill:#747473;}
	.st67{fill:#CAC9C9;}
	.st68{fill-rule:evenodd;clip-rule:evenodd;fill:#D81A16;stroke:#1D1D1B;stroke-width:0.25;stroke-miterlimit:10;}
	.st69{fill:none;stroke:#1D1D1B;stroke-width:0.25;stroke-miterlimit:10;}
	.st70{fill:#12110C;}
	.st71{fill:#1D1D1B;}
	.st72{fill:#EF8328;}
	.st73{fill:url(#SVGID_00000176761188497758271760000013474099859202776239_);}
	.st74{fill:url(#SVGID_00000173128994955930759390000013347608424747116184_);}
	.st75{fill:url(#SVGID_00000080896132088344474070000000708654821936634773_);}
	.st76{fill:url(#SVGID_00000066516378590415777550000010367127995763750543_);}
	.st77{opacity:0.6;}
	.st78{fill:url(#SVGID_00000096756113574832849360000010488286735064449185_);}
	.st79{fill:url(#SVGID_00000103247301952193102250000004383353915226939058_);}
	.st80{fill:url(#SVGID_00000066505661166790367760000004405029453147663263_);}
	.st81{fill:url(#SVGID_00000080903446578814182820000017064144864014265789_);}
	.st82{fill:url(#SVGID_00000035491058976808915610000015163817688383585673_);}
	.st83{fill:url(#SVGID_00000144332193190495055280000017069299237942593437_);}
	.st84{fill:url(#SVGID_00000106869448185662899880000001350914013574128782_);}
	.st85{fill:url(#SVGID_00000008849582728857604130000011419592747863774392_);}
	.st86{fill:url(#SVGID_00000157274206508867119120000004110405682138524808_);}
	.st87{fill:url(#SVGID_00000031168599044252035960000004390160389842745217_);}
	.st88{fill:url(#SVGID_00000155832556313929200170000014696393569709467830_);}
	.st89{fill:url(#SVGID_00000111164343212719221210000011187282361597453712_);}
	.st90{fill:url(#SVGID_00000117649343574562039470000013160319904803035794_);}
	.st91{fill:#001689;}
	.st92{fill:none;stroke:#001689;stroke-width:0.881;stroke-linecap:round;stroke-linejoin:round;stroke-miterlimit:10;}
	.st93{fill:#0047BA;}
	.st94{fill:#253D90;}
	.st95{fill:#FFDC00;}
	.st96{fill:#0556A3;}
	.st97{fill:#0369B2;}
	.st98{fill:#5DC3F0;}
	.st99{fill:#DF162E;}
	.st100{fill:#39A7DF;}
	.st101{fill:#1B71B6;}
	.st102{fill-rule:evenodd;clip-rule:evenodd;fill:url(#XMLID_00000088116290667279229660000011208954074488782724_);}
	.st103{fill-rule:evenodd;clip-rule:evenodd;fill:url(#XMLID_00000028305442789470876270000011752042908789085828_);}
	.st104{fill:#91BF25;}
	.st105{fill:#FFDA05;}
	.st106{fill:#E00F1A;}
	.st107{fill-rule:evenodd;clip-rule:evenodd;fill:#213A7B;}
	.st108{fill-rule:evenodd;clip-rule:evenodd;}
	.st109{fill-rule:evenodd;clip-rule:evenodd;fill:#E20C30;}
	.st110{fill:#2B7DB9;}
	.st111{fill:#43AC51;}
	.st112{fill-rule:evenodd;clip-rule:evenodd;fill:#034A91;}
	.st113{fill:#005891;}
	.st114{fill:#E3283B;}
	.st115{fill:#004A93;}
	.st116{fill-rule:evenodd;clip-rule:evenodd;fill:#004A93;}
	.st117{fill-rule:evenodd;clip-rule:evenodd;fill:#FFEA20;}
	.st118{fill-rule:evenodd;clip-rule:evenodd;fill:#DF101C;}
	.st119{fill:#2997D4;}
	.st120{fill:#F18A00;}
	.st121{fill:#09111D;}
	.st122{fill:#A72136;}
	.st123{fill:url(#SVGID_00000060012703209387302910000011870821139511895474_);}
	.st124{fill:url(#SVGID_00000041285689288538430720000007226648657316640169_);}
	.st125{fill:url(#SVGID_00000115472735329391626010000002366952440289110169_);}
	.st126{fill:url(#SVGID_00000128457012450764016920000011956594535084634036_);}
	.st127{fill:url(#SVGID_00000097491603051518368180000002074746221811121290_);}
	.st128{fill:url(#SVGID_00000029012475506000942250000009599158288501279659_);}
	.st129{fill:url(#SVGID_00000098205230679703929220000011791908397367955363_);}
	.st130{fill:url(#SVGID_00000183222062413651704880000017965482595026581939_);}
	.st131{fill:#2D2F34;}
	.st132{fill:url(#SVGID_00000031176874975342405990000016815158575065827000_);}
	.st133{fill:url(#SVGID_00000022554162552170277580000018369148930994504324_);}
	.st134{fill:url(#SVGID_00000087413286614459616340000015247335541376456383_);}
	.st135{fill:url(#SVGID_00000147927904791221323220000008939823862120166324_);}
	.st136{fill:#003DA6;}
	.st137{fill-rule:evenodd;clip-rule:evenodd;fill:#0E579F;stroke:#FFFFFF;stroke-width:1.0001;stroke-miterlimit:2.6131;}
	.st138{fill-rule:evenodd;clip-rule:evenodd;fill:#FFFFFF;stroke:#FFFFFF;stroke-width:0.216;stroke-miterlimit:2.6131;}
	.st139{fill:#1766AD;}
	.st140{fill:#7EB828;}
	.st141{fill:#0D9E39;}
	.st142{fill:#7CB62C;}
	.st143{fill-rule:evenodd;clip-rule:evenodd;fill:#00A0DF;}
	
		.st144{clip-path:url(#SVGID_00000046301043547031808850000009628395861673502080_);fill-rule:evenodd;clip-rule:evenodd;fill:#8CCFF1;}
	
		.st145{clip-path:url(#SVGID_00000046301043547031808850000009628395861673502080_);fill-rule:evenodd;clip-rule:evenodd;fill:#C3E4F5;}
	
		.st146{clip-path:url(#SVGID_00000046301043547031808850000009628395861673502080_);fill-rule:evenodd;clip-rule:evenodd;fill:#FFFFFF;}
	.st147{clip-path:url(#SVGID_00000046301043547031808850000009628395861673502080_);}
	.st148{fill:#83CEEA;}
	.st149{fill-rule:evenodd;clip-rule:evenodd;fill:#65B2E8;}
	.st150{fill-rule:evenodd;clip-rule:evenodd;fill:#0C68AE;}
	.st151{fill-rule:evenodd;clip-rule:evenodd;fill:#00205C;}
	.st152{fill:#00A0DF;}
	.st153{fill:#00205C;}
	.st154{clip-path:url(#SVGID_00000166656480759710866430000013711955558968190627_);}
	.st155{fill:#29A43B;}
	.st156{fill:#BFE1F4;}
	.st157{fill:#D2E9F7;}
	.st158{fill:#444592;}
	.st159{fill:#BBA26A;}
	.st160{fill:#ACB217;}
	.st161{fill:url(#SVGID_00000054976897682032567750000009973428060973523640_);}
	.st162{fill-rule:evenodd;clip-rule:evenodd;fill:#211F1F;}
	.st163{fill:url(#SVGID_00000080904336277443362000000008668417446119727515_);}
	.st164{fill:url(#SVGID_00000003098007191670319560000005186995953246656690_);}
	.st165{fill:url(#SVGID_00000121264873169888947090000018386780501454975667_);}
	.st166{fill:url(#SVGID_00000017497733080214196670000016062435479601516450_);}
	.st167{fill:url(#SVGID_00000098930317993307768500000000751787246103432879_);}
	.st168{fill:url(#SVGID_00000060022430860903816570000007067344189338730129_);}
	.st169{fill:url(#SVGID_00000125590413405325375160000005237018416184286643_);}
	.st170{fill:url(#SVGID_00000103976819025532459070000017872821714272738947_);}
	.st171{fill:url(#SVGID_00000133493002905805710290000009904939063864823711_);}
	.st172{fill:url(#SVGID_00000140015898906287073960000001270649218915128974_);}
	.st173{fill:url(#SVGID_00000137096178316700336200000000794584953439929745_);}
	.st174{fill:url(#SVGID_00000084528977088040585140000004577484697422531497_);}
	.st175{fill:url(#SVGID_00000144311278903582430200000004550756256107370394_);}
	.st176{fill:url(#SVGID_00000073711267300891996250000013923771037906274193_);}
	.st177{fill:url(#SVGID_00000154405562302367786880000013542123116764412038_);}
	.st178{fill:url(#SVGID_00000066481432884841356400000017074865085221815193_);}
	.st179{fill:url(#SVGID_00000173138681714598493520000012396413268143736204_);}
	.st180{fill:url(#SVGID_00000176742671931646869250000007916743775526240644_);}
	.st181{fill:url(#SVGID_00000154419713526087421170000008987722752223282850_);}
	.st182{fill:url(#SVGID_00000097460788414510609380000002624229375513949373_);}
	.st183{fill:url(#SVGID_00000045620690275966722030000013809036825153756595_);}
	.st184{fill:url(#SVGID_00000021802225454495010310000009139454254981448115_);}
	.st185{fill:url(#SVGID_00000105401952397160711180000008359206349202733710_);}
	.st186{fill:url(#SVGID_00000169528620180076822610000007879949603422912667_);}
	.st187{fill:url(#SVGID_00000098196157876134475270000011761771741276878760_);}
	.st188{fill:url(#SVGID_00000023969946484183528160000018264207277047098528_);}
	
		.st189{clip-path:url(#SVGID_00000024002976082373859640000004728590356796046489_);fill:url(#SVGID_00000154407664820214863090000005186575814895424697_);}
	.st190{fill:url(#SVGID_00000166670871403292195360000008812964180143665798_);}
	.st191{fill:url(#SVGID_00000163048547750075135520000010222674720652768173_);}
	.st192{fill:url(#SVGID_00000081644143915142737870000002201443201193642165_);}
	.st193{fill:url(#SVGID_00000040545318305418216720000012201140690995463069_);}
	.st194{fill-rule:evenodd;clip-rule:evenodd;fill:url(#SVGID_00000079472470538434369180000003765147364850904751_);}
	.st195{fill:#F6F0F3;}
	.st196{fill:#F8F4F6;}
	.st197{fill:#FFFCFD;}
	.st198{fill:#0F4D80;}
	.st199{fill:#2F93D1;}
	.st200{display:none;}
	.st201{display:inline;fill:#0F4D80;}
	.st202{display:inline;fill:#2F93D1;}
	.st203{display:inline;fill:#FFFFFF;}
	.st204{opacity:0.3;}
	.st205{fill:#65A1D7;}
	.st206{fill:#E63922;}
	.st207{fill:#33712F;}
	.st208{fill:#509BD5;}
	.st209{fill:#2C88C7;}
	.st210{fill:#A9DBF7;}
	.st211{fill:#EEB68A;}
	.st212{fill:#FBD3AD;}
	.st213{fill:#270C12;}
	.st214{fill:#230A10;}
	.st215{fill:#A2403B;}
	.st216{fill:#C1665D;}
	.st217{fill:#DFECF8;}
	.st218{fill:#411017;}
	.st219{fill:#262626;}
	.st220{opacity:0.47;}
	.st221{fill:#FAD8D5;}
	.st222{fill:#FBE1DE;}
	.st223{fill:#EA808C;}
	.st224{fill:#C9E7F7;}
	.st225{fill:#E5F3FD;}
	.st226{fill:#FDEEEE;}
	.st227{fill:#F7C7C9;}
	.st228{fill:#ECF6F7;}
	.st229{fill:#A0D0F1;}
	.st230{fill:#97C7EC;}
	.st231{fill:#9ECFF1;}
	.st232{fill:#E8F4F6;}
	.st233{fill:#BEE3F5;}
	.st234{fill:#D7EDF6;}
	.st235{fill:#ED705B;}
	.st236{fill:#F9C9BA;}
	.st237{fill:#8BC5EC;}
	.st238{fill:#F5AC9B;}
	.st239{fill:#F1907E;}
	.st240{fill:#D6EDF6;}
	.st241{fill:#4B8739;}
	.st242{fill:#F39B8B;}
	.st243{fill:#C5D4E1;}
	.st244{fill:#F29A9C;}
	.st245{fill:#3C3C3B;}
	.st246{fill:#EE808D;}
	.st247{fill:#187FB9;}
	.st248{fill:#2EA8E0;}
	.st249{fill:#80CEF4;}
	.st250{fill:#BDE3F6;}
	.st251{fill:#EA5B2B;}
	.st252{fill:#E73F2F;}
	.st253{opacity:0.26;fill:#D3B0D4;}
	.st254{fill:url(#SVGID_00000066477553890149251270000005365475807252721550_);}
	.st255{fill:#B7553B;}
	.st256{fill:#E63924;}
	.st257{fill:#441943;}
	.st258{fill:#281028;}
	.st259{fill:#8BCAB9;}
	.st260{fill:#D9271B;}
	.st261{fill:#FCE7E5;}
	.st262{fill:#A9D7CF;}
	.st263{fill:url(#SVGID_00000063613949759948690980000007276150323927635646_);}
	.st264{fill:url(#SVGID_00000158734721253085441220000003769657159788976042_);}
	.st265{fill:url(#SVGID_00000145025593912221080900000013572961230828886443_);}
	.st266{opacity:0.26;fill:#A2403B;}
	.st267{fill:#6E4594;}
	.st268{fill:#B65650;}
	.st269{fill:url(#SVGID_00000153680155478666741320000005243995028077168265_);}
	.st270{fill:#454545;}
	.st271{fill:#A7D9F5;}
	.st272{fill:#24212E;}
	.st273{fill:#6D1B0F;}
	.st274{fill:#3E4055;}
	.st275{fill:#3E4052;}
	.st276{fill:#77491E;}
	.st277{fill:#474A5E;}
	.st278{fill:#24222D;}
	.st279{fill:#D6D6D6;}
	.st280{fill:#F8C6BD;}
	.st281{fill:#3F292A;}
	.st282{fill:#E7E8EC;}
	.st283{fill:#F9D3CA;}
	.st284{fill:#E9B9A6;}
	.st285{fill:#0E0C09;}
	.st286{fill:#CCDADA;}
	.st287{fill:#EDBDAA;}
	.st288{fill:#535459;}
	.st289{fill:#929497;}
	.st290{fill:#3164AC;}
	.st291{fill:#D53939;}
	.st292{fill:#313134;}
	.st293{fill:url(#SVGID_00000093143670690076375280000011784702279550470332_);}
	.st294{fill:url(#SVGID_00000171715897270035278870000010631344986794303629_);}
	.st295{fill:url(#SVGID_00000159432651028780298870000010109657652362622099_);}
	.st296{fill:#E6E7E7;}
	.st297{clip-path:url(#SVGID_00000144325176174290723210000013243124281995066809_);}
	.st298{fill:#F7F6F6;}
	.st299{fill:#0E4D80;}
	.st300{opacity:0.31;}
	.st301{opacity:0;}
	.st302{fill:#010100;}
	.st303{opacity:4.653465e-03;}
	.st304{opacity:9.306931e-03;}
	.st305{opacity:0.014;}
	.st306{opacity:0.0186;}
	.st307{opacity:0.0233;}
	.st308{opacity:0.0279;}
	.st309{opacity:0.0326;}
	.st310{opacity:0.0372;}
	.st311{opacity:0.0419;}
	.st312{opacity:0.0465;}
	.st313{opacity:0.0512;}
	.st314{opacity:0.0558;}
	.st315{opacity:0.0605;}
	.st316{opacity:0.0651;}
	.st317{opacity:0.0698;}
	.st318{opacity:0.0745;}
	.st319{opacity:0.0791;}
	.st320{opacity:0.0838;}
	.st321{opacity:0.0884;}
	.st322{opacity:0.0931;}
	.st323{opacity:0.0977;}
	.st324{opacity:0.1024;}
	.st325{opacity:0.107;}
	.st326{opacity:0.1117;}
	.st327{opacity:0.1163;}
	.st328{opacity:0.121;}
	.st329{opacity:0.1256;}
	.st330{opacity:0.1303;}
	.st331{opacity:0.135;}
	.st332{opacity:0.1396;}
	.st333{opacity:0.1443;}
	.st334{opacity:0.1489;}
	.st335{opacity:0.1536;}
	.st336{opacity:0.1582;}
	.st337{opacity:0.1629;}
	.st338{opacity:0.1675;}
	.st339{opacity:0.1722;}
	.st340{opacity:0.1768;}
	.st341{opacity:0.1815;}
	.st342{opacity:0.1861;}
	.st343{opacity:0.1908;}
	.st344{opacity:0.1954;}
	.st345{opacity:0.2001;}
	.st346{opacity:0.2048;}
	.st347{opacity:0.2094;}
	.st348{opacity:0.2141;}
	.st349{opacity:0.2187;}
	.st350{opacity:0.2234;}
	.st351{opacity:0.228;}
	.st352{opacity:0.2327;}
	.st353{opacity:0.2373;}
	.st354{opacity:0.242;}
	.st355{opacity:0.2466;}
	.st356{opacity:0.2513;}
	.st357{opacity:0.2559;}
	.st358{opacity:0.2606;}
	.st359{opacity:0.2652;}
	.st360{opacity:0.2699;}
	.st361{opacity:0.2746;}
	.st362{opacity:0.2792;}
	.st363{opacity:0.2839;}
	.st364{opacity:0.2885;}
	.st365{opacity:0.2932;}
	.st366{opacity:0.2978;}
	.st367{opacity:0.3025;}
	.st368{opacity:0.3071;}
	.st369{opacity:0.3118;}
	.st370{opacity:0.3164;}
	.st371{opacity:0.3211;}
	.st372{opacity:0.3257;}
	.st373{opacity:0.3304;}
	.st374{opacity:0.335;}
	.st375{opacity:0.3397;}
	.st376{opacity:0.3444;}
	.st377{opacity:0.349;}
	.st378{opacity:0.3537;}
	.st379{opacity:0.3583;}
	.st380{opacity:0.363;}
	.st381{opacity:0.3676;}
	.st382{opacity:0.3723;}
	.st383{opacity:0.3769;}
	.st384{opacity:0.3816;}
	.st385{opacity:0.3862;}
	.st386{opacity:0.3909;}
	.st387{opacity:0.3955;}
	.st388{opacity:0.4002;}
	.st389{opacity:0.4049;}
	.st390{opacity:0.4095;}
	.st391{opacity:0.4142;}
	.st392{opacity:0.4188;}
	.st393{opacity:0.4235;}
	.st394{opacity:0.4281;}
	.st395{opacity:0.4328;}
	.st396{opacity:0.4374;}
	.st397{opacity:0.4421;}
	.st398{opacity:0.4467;}
	.st399{opacity:0.4514;}
	.st400{opacity:0.456;}
	.st401{opacity:0.4607;}
	.st402{opacity:0.4653;}
	.st403{fill:url(#SVGID_00000142164504222465306740000014714376411826762371_);}
	.st404{fill:url(#SVGID_00000062162544276829803620000000182805172585890181_);}
	.st405{fill:url(#SVGID_00000047026968167305447770000003220297862855119519_);}
	.st406{fill:#C6A295;}
	.st407{fill:#EFC5B3;}
	.st408{fill:#121214;}
	.st409{fill:#BBBDBE;}
	.st410{fill:#863C13;}
	.st411{fill:#B96117;}
	.st412{fill:#EF8118;}
	.st413{fill:#BA5817;}
	.st414{fill:#6D6F71;}
	.st415{fill:#E21D26;}
	.st416{fill:#2C5E84;}
	.st417{fill:#9C251F;}
	.st418{fill:url(#SVGID_00000067937560669408864050000006362353019202107270_);}
	.st419{fill:#1C374E;}
	.st420{fill:#2B4E68;}
	.st421{opacity:0.3;fill:#121214;}
	.st422{fill:url(#SVGID_00000028294029463279690820000005288882127004723865_);}
	.st423{fill:url(#SVGID_00000042014015150456333140000000039869480174094490_);}
	.st424{fill:url(#SVGID_00000066505777881915602560000000237230727132020113_);}
	.st425{fill:url(#SVGID_00000180336542778912109140000003434173724863301806_);}
	.st426{fill:url(#SVGID_00000047032445295080390410000007837380607732732821_);}
	.st427{fill:url(#SVGID_00000179632516834965276320000015360701811926813056_);}
	.st428{fill:#0C0C0C;}
	.st429{fill:#603914;}
	.st430{fill:#E86821;}
	.st431{fill:#171717;}
	.st432{fill:#663F30;}
	.st433{fill:url(#SVGID_00000089552769083081263310000012945923332267826595_);}
	.st434{fill:url(#SVGID_00000088112664792342394150000003781906591955976086_);}
	.st435{fill:url(#SVGID_00000026124996595063204250000002352565600097056683_);}
	.st436{fill:url(#SVGID_00000013873592372736895730000010814974648478986938_);}
	.st437{fill:url(#SVGID_00000037666181551847226820000001557128673827282076_);}
	.st438{fill:url(#SVGID_00000056396970547244781060000011679050462282234267_);}
	.st439{fill:url(#SVGID_00000062160084747993379760000012153036623017062069_);}
	.st440{fill:url(#SVGID_00000134957658110156427170000005673967190244273827_);}
	.st441{fill:url(#SVGID_00000097499827392281979900000016729713656760855688_);}
	.st442{fill:url(#SVGID_00000074439848157465656120000007087377848276245416_);}
	.st443{fill:url(#SVGID_00000148644956593073229310000017369292812744097932_);}
	.st444{fill:url(#SVGID_00000121993552663180016350000002108607035397888649_);}
	.st445{fill:url(#SVGID_00000051385471984321004950000004388726368223065010_);}
	.st446{fill:url(#SVGID_00000093139958472338618210000016897799647492698757_);}
	.st447{fill:url(#SVGID_00000109028239134233848870000012812985122156371098_);}
	.st448{fill:url(#SVGID_00000109746475330200640970000004367981538362001324_);}
	.st449{fill:url(#SVGID_00000016785288151262852540000013837414115527944837_);}
	.st450{fill:url(#SVGID_00000170992894432848944250000016202294182027451554_);}
	.st451{fill:#B7B7B7;}
	.st452{fill:#112134;}
	.st453{fill:#414042;}
	.st454{fill:#221E20;}
	.st455{fill:#131313;}
	.st456{fill:#202020;}
	.st457{fill:#915E33;}
	.st458{fill:#57391E;}
	.st459{fill:#F39519;}
	.st460{fill:#F4B305;}
	.st461{fill:#C4C3C3;}
	.st462{fill:#A5A4A5;}
	.st463{fill:#888989;}
	.st464{fill:#242424;}
	.st465{fill:#6E4827;}
	.st466{opacity:0.1844;fill:#24222D;}
	.st467{fill:#A0A4BB;}
	.st468{opacity:0.1844;fill:#999AB6;}
	.st469{fill:#D9E3E3;}
	.st470{fill:#FAD5CB;}
	.st471{opacity:0.1844;fill:#24212E;}
	.st472{fill:#844013;}
	.st473{fill:#F8B777;}
	.st474{fill:#3576AB;}
	.st475{fill:#A2A1A1;}
	.st476{fill:#754C29;}
	.st477{fill:#B3DFF1;}
	.st478{fill:#80A5A5;}
	.st479{fill:#EAAE93;}
	.st480{fill:#00657E;}
	.st481{fill:#382E22;}
	.st482{fill:#157288;}
	.st483{fill:#A42916;}
	.st484{fill:#D43216;}
	.st485{fill:#E5A082;}
	.st486{fill:#B23318;}
	.st487{fill:#843E1E;}
	.st488{fill:#EDBEA8;}
	.st489{fill:#E94E49;}
	.st490{fill:#E3E4E3;}
	.st491{fill:#B9B9B9;}
	.st492{fill:#868787;}
	.st493{fill:url(#XMLID_00000064329364684771123970000008596129471650873522_);}
	.st494{fill:#989898;}
	.st495{fill:url(#XMLID_00000076578092446326826810000003704970967239071152_);}
	.st496{fill:#EEECEB;}
	.st497{fill:#D5D5D5;}
	.st498{fill:url(#XMLID_00000176764334400968611350000010589002885526027918_);}
	.st499{fill:url(#XMLID_00000034086752837979440610000002946512504098014635_);}
	.st500{fill:url(#XMLID_00000096745359992590387220000017294796635842798220_);}
	.st501{fill:url(#XMLID_00000118371034875922567650000014079874427268652963_);}
	.st502{fill:url(#XMLID_00000173876971564218770710000013907685641614158259_);}
	.st503{fill:url(#XMLID_00000138562333259559720030000000476474232589515161_);}
	.st504{fill:url(#XMLID_00000118367411800391361790000006164542362393367734_);}
	.st505{fill:url(#XMLID_00000045602665623635942360000006539010763493858214_);}
	.st506{fill:url(#XMLID_00000173143557712554077740000009207440772571482005_);}
	.st507{fill:url(#XMLID_00000109716204360739802440000008569468201472147609_);}
	.st508{fill:url(#XMLID_00000074426701630380208190000005509535762496183197_);}
	.st509{fill:url(#XMLID_00000136383139602170931550000005596768082516490420_);}
	.st510{fill:url(#XMLID_00000121969033362477128950000013731643692757672098_);}
	.st511{fill:url(#XMLID_00000080183450701313130740000015984474812382002305_);}
	.st512{fill:url(#XMLID_00000034052053634657760260000006576397506973481886_);}
	.st513{fill:url(#XMLID_00000039851211566352384530000000884489143236515493_);}
	.st514{fill:url(#XMLID_00000155116520575150194270000008671232822710032808_);}
	.st515{fill:url(#XMLID_00000140709819660074470250000009119372074443217334_);}
	.st516{fill:url(#XMLID_00000139262893626013280810000015027186223372759685_);}
	.st517{fill:url(#XMLID_00000105399681672753792580000006024246534180481934_);}
	.st518{fill:url(#XMLID_00000029759870020678090760000009515971638011441328_);}
	.st519{fill:url(#XMLID_00000096752447220872309960000004568336430624948915_);}
	.st520{fill:url(#XMLID_00000170238415294381655460000013699372989937240756_);}
	.st521{fill:url(#XMLID_00000160873177502645719040000012198356746546610857_);}
	.st522{fill:url(#XMLID_00000146464714449015390280000002554994106274794143_);}
	.st523{fill:url(#XMLID_00000152962415819241693490000001233848945899155113_);}
	.st524{fill:url(#XMLID_00000028284710191255008120000003065227468526926009_);}
	.st525{fill:url(#XMLID_00000176754319896241664440000012026865795642088634_);}
	.st526{fill:url(#XMLID_00000144316619706623263980000003254934237294714280_);}
	.st527{fill:url(#XMLID_00000101103845345015937940000005608202393018567837_);}
	.st528{fill:url(#XMLID_00000049913902969898636980000002106527581645924798_);}
	.st529{fill:url(#XMLID_00000066485814267675293690000007318162558066741645_);}
	.st530{fill:url(#XMLID_00000101075364424733047590000006839831507515250572_);}
	.st531{fill:url(#XMLID_00000090253523191250023780000000524854946944783003_);}
	.st532{fill:url(#XMLID_00000036245858576048235420000016655901570101661628_);}
	.st533{fill:url(#XMLID_00000135657542849215834010000002864663773355266723_);}
	.st534{fill:url(#XMLID_00000056417383900612736360000017467994124448574130_);}
	.st535{fill:url(#XMLID_00000179610674437904258330000011200725677444352395_);}
	.st536{fill:url(#XMLID_00000066489629482071793070000016343668417080928662_);}
	.st537{fill:url(#XMLID_00000150063564718033406800000016958039548454125749_);}
	.st538{fill:url(#XMLID_00000181072959364873963750000014075235634335952522_);}
	.st539{fill:url(#XMLID_00000144328883372052821180000006015799689832394906_);}
	.st540{fill:url(#XMLID_00000110458545570040472020000009241957475488337815_);}
	.st541{fill:url(#XMLID_00000126305046488450927330000018091172904811616173_);}
	.st542{fill:url(#XMLID_00000015322715492444543950000011217756323734606527_);}
	.st543{fill:url(#XMLID_00000118369900362640672370000011240219906386041783_);}
	.st544{fill:url(#XMLID_00000008120724015783198670000007971728670345363598_);}
	.st545{fill:url(#XMLID_00000044178825166178894480000013911670693820210336_);}
	.st546{fill:url(#XMLID_00000178173317624675552650000000492764029161932181_);}
	.st547{fill:url(#XMLID_00000147194907848399658050000001145157624897320336_);}
	.st548{fill:url(#XMLID_00000062152807693603998250000002487949333482588566_);}
	.st549{fill:url(#XMLID_00000039835501389770074690000016140865770431310759_);}
	.st550{fill:url(#XMLID_00000042002182362418676770000010755719088785530293_);}
	.st551{fill:url(#XMLID_00000113340284881792154400000012763290292605356427_);}
	.st552{fill:url(#XMLID_00000134957349172106308670000006100582435323864969_);}
	.st553{fill:url(#XMLID_00000149378984291753822010000011206907376399686845_);}
	.st554{fill:url(#XMLID_00000016045590276913110590000015128959802955379607_);}
	.st555{fill:url(#XMLID_00000084506601725797304460000016631267443656678824_);}
	.st556{fill:url(#XMLID_00000168077471415737427500000002577823139277549726_);}
	.st557{fill:url(#XMLID_00000137834705544583440690000010906483923018039182_);}
	.st558{fill:url(#XMLID_00000032618021849196243760000016497823625722594727_);}
	.st559{fill:url(#XMLID_00000049928707545349797820000018214074006692294558_);}
	.st560{fill:url(#XMLID_00000062160836530923121900000008643553506840865690_);}
	.st561{fill:url(#XMLID_00000058588768731340546840000015628861192742819005_);}
	.st562{fill:url(#XMLID_00000145039798024979087600000006626008229181738921_);}
	.st563{fill:url(#XMLID_00000152252978898915775480000005991786629047855504_);}
	.st564{fill:url(#XMLID_00000150088068647910504360000001438857115157653429_);}
	.st565{fill:url(#XMLID_00000039129400511145438560000003086016418451109566_);}
	.st566{fill:url(#XMLID_00000038404783442062395420000007229618514371780777_);}
	.st567{fill:url(#XMLID_00000071534367118370813570000009934013991935102645_);}
	.st568{fill:url(#XMLID_00000029008192339781284020000016500701001613360557_);}
	.st569{fill:url(#XMLID_00000003065652830704150110000016471604166000929214_);}
	.st570{fill:url(#XMLID_00000063613121518853778230000007174798070843671950_);}
	.st571{fill:url(#XMLID_00000152952822102926758040000016276244196485733272_);}
	.st572{fill:url(#XMLID_00000090255344611544466150000017237748656659158463_);}
	.st573{fill:url(#XMLID_00000053514617628897052500000018313146622491827342_);}
	.st574{fill:url(#XMLID_00000121239033908995033620000014681465209581550978_);}
	.st575{fill:url(#XMLID_00000122680441586340767390000008961505857212418239_);}
	.st576{fill:url(#XMLID_00000116939027338151816590000002106341952967272623_);}
	.st577{fill:url(#XMLID_00000095322627377126176040000005066587217255450275_);}
	.st578{fill:url(#XMLID_00000068673656913774935730000015876886208160262332_);}
	.st579{fill:url(#XMLID_00000089552100603085165620000009608836822479263883_);}
	.st580{fill:url(#XMLID_00000103236477601038530010000000033407648987176355_);}
	.st581{fill:url(#XMLID_00000011728019576150810170000015241163103104065210_);}
	.st582{fill:url(#XMLID_00000039818393191927098920000012172444089657063823_);}
	.st583{fill:url(#XMLID_00000083078402597394461330000017025660821343723710_);}
	.st584{fill:url(#XMLID_00000082368975233936453550000002897120267308346275_);}
	.st585{fill:url(#XMLID_00000115497661789593556640000012913109242981081223_);}
	.st586{fill:url(#XMLID_00000075845533881082961710000002560438204719378307_);}
	.st587{fill:url(#XMLID_00000006680451621282316300000005392299316245689994_);}
	.st588{fill:url(#XMLID_00000057846224490484994920000009286493359232504201_);}
	.st589{fill:url(#XMLID_00000016070324118988515240000008886391882497660045_);}
	.st590{fill:url(#XMLID_00000041981118458478654930000008994660786153482890_);}
	.st591{fill:url(#XMLID_00000078759806100157706140000002046314132115966357_);}
	.st592{fill:url(#XMLID_00000080200424441551492630000016052630970544067725_);}
	.st593{fill:url(#XMLID_00000170975976878632079590000008686427145947874446_);}
	.st594{fill:url(#XMLID_00000175290720329773401960000001366394723115092873_);}
	.st595{fill:url(#XMLID_00000027596644408574764820000008121052581630030482_);}
	.st596{fill:url(#XMLID_00000150786745275804809340000006511072945869992836_);}
	.st597{fill:url(#XMLID_00000085957619065826603690000009965655376231839913_);}
	.st598{fill:#FCFDFF;}
	.st599{fill:#757576;}
	.st600{fill:#D4D3D3;}
	.st601{fill:#E2E4E0;}
	.st602{fill:#B5B4B4;}
	.st603{fill:#908F8A;}
	.st604{fill:#F6F6F5;}
	.st605{fill:#3E4046;}
	.st606{fill:#525557;}
	.st607{fill:#E1E2E2;}
	.st608{fill:#E8E9EA;}
	.st609{fill:#2B2E35;}
	.st610{fill:#64666B;}
	.st611{fill:url(#XMLID_00000016796975683348609770000017669705561822497696_);}
	.st612{fill:#F0F0F0;}
	.st613{fill:#757779;}
	.st614{fill:#191B22;}
	.st615{fill:#14181E;}
	.st616{fill:#11141A;}
	.st617{fill:#DAEBE7;}
	.st618{fill:#7F8082;}
	.st619{fill:#A7B3B4;}
	.st620{fill:#3C575C;}
	.st621{fill:#CED6D6;}
	.st622{fill:#1A3A66;}
	.st623{fill:#2887C4;}
	.st624{fill:#66C3D8;}
	.st625{fill:#07282F;}
	.st626{fill:#8B9B9D;}
	.st627{fill:#72888C;}
	.st628{fill:#7F1710;}
	.st629{fill:#C3253D;}
	.st630{fill:#D9648A;}
	.st631{fill:#A24817;}
	.st632{fill:#DAA802;}
	.st633{fill:#EEB219;}
	.st634{fill:#424242;}
	.st635{fill:#474646;}
	.st636{fill:#AAB545;}
	.st637{fill:#C17D11;}
	.st638{fill:#CACCD2;}
	.st639{fill:#B6BCC6;}
	.st640{fill:#353842;}
	.st641{fill:#585C64;}
	.st642{fill:#454852;}
	.st643{fill:#62656C;}
	.st644{fill:#72757B;}
	.st645{fill:#3A3D42;}
	.st646{fill:#494D53;}
	.st647{fill:#161A24;}
	.st648{fill:#4C4F58;}
	.st649{fill:#666970;}
	.st650{fill:#7F7F83;}
	.st651{fill:#383C40;}
	.st652{fill:#1E222B;}
	.st653{fill:url(#XMLID_00000091696375847096514140000005326845628724406951_);}
	.st654{fill:#3D4049;}
	.st655{fill:url(#XMLID_00000071556443485449806730000012004359353146928544_);}
	.st656{fill:#30333C;}
	.st657{fill:#474D57;}
	.st658{fill:#75787F;}
	.st659{fill:#2F7E9D;}
	.st660{fill:#6DC0B2;}
	.st661{fill:url(#XMLID_00000137102831967558333340000017881021865965986746_);}
	.st662{fill:#F1F8FA;}
	.st663{fill:url(#XMLID_00000088101345683954782940000014007326372113146254_);}
	.st664{fill:url(#XMLID_00000026154844311882011680000016064268727652408484_);}
	.st665{fill:#ECF6F9;}
	.st666{fill:url(#XMLID_00000067230459802587363110000010864441231581851268_);}
	.st667{fill:url(#XMLID_00000007418683263191103610000002624094752041139127_);}
	.st668{fill:#CFE4F1;}
	.st669{fill:#DADADA;}
	.st670{fill:#D32D16;}
	.st671{fill:#176581;}
	.st672{fill:#9ED1F2;}
	.st673{fill:#1B222D;}
	.st674{fill:#EBE9EA;}
	.st675{fill:#C9CED5;}
	.st676{fill:#E1E0E0;}
	.st677{fill:#E7E6E6;}
	.st678{fill:#E8E7E7;}
	.st679{fill:#BFCBDD;}
	.st680{fill:#9D958F;}
	.st681{fill:#FFDC04;}
	.st682{fill:#B21828;}
	.st683{fill:#D8408F;}
	.st684{fill:#574997;}
	.st685{fill:#356AB1;}
	.st686{fill:#45B3E7;}
	.st687{fill:#2D8A36;}
	.st688{fill:#D0CFD0;}
	.st689{fill:#98A88B;}
	.st690{fill:#F8E825;}
	.st691{fill:#CB1333;}
	.st692{fill:url(#XMLID_00000108304825474002003170000017791505954526566311_);}
	.st693{fill:#0B0E18;}
	.st694{fill:#40424A;}
	.st695{fill:url(#XMLID_00000103949256008052722440000015736030828576753838_);}
	.st696{fill:#71757D;}
	.st697{fill:#C2C2C4;}
	.st698{fill:url(#XMLID_00000137850346359714668620000008524654215305768611_);}
	.st699{fill:#9DA094;}
	.st700{fill:#D4D4D4;}
	.st701{fill:url(#XMLID_00000003821943740622247340000009069571733315653248_);}
	.st702{fill:url(#XMLID_00000091731808634274194400000017959213459764034457_);}
	.st703{fill:#E8E8E8;}
	.st704{fill:#15120B;}
	.st705{fill:#4C4842;}
	.st706{fill:#74AEDF;}
	.st707{fill:#413D3F;}
	.st708{fill:#48494A;}
	.st709{fill:#080504;}
	.st710{fill:#4E4D4D;}
	.st711{fill:#A1A0A0;}
	.st712{fill:#FBEEF5;}
	.st713{fill:#BFBEBE;}
	.st714{fill:#015A64;}
	.st715{fill:#B81818;}
	.st716{fill:#8C811D;}
	.st717{fill:#03709B;}
	.st718{fill:#E74B1E;}
	.st719{fill:#F2B000;}
	.st720{fill:#E33335;}
	.st721{fill:#F8F09C;}
	.st722{fill:#FAEF81;}
	.st723{fill:#E7A8CB;}
	.st724{fill:#CD90BE;}
	.st725{fill:#847A73;}
	.st726{fill:#CCCBCB;}
	.st727{fill:#EDECEC;}
	.st728{fill:#9D9D9D;}
	.st729{fill:#EFEFEF;}
	.st730{fill:#4F525A;}
	.st731{fill:#E15C48;}
	.st732{fill:url(#XMLID_00000051357086365973643590000010082558290601812361_);}
	.st733{fill:url(#XMLID_00000033362725375166185200000000235019796936137868_);}
	.st734{fill:url(#XMLID_00000026867875201355791480000015773809434816112030_);}
	.st735{fill:url(#XMLID_00000054948037977673731150000016970209165624090044_);}
	.st736{fill:url(#XMLID_00000085959043024134403390000015670588161058404519_);}
	.st737{fill:#9E9D9D;}
	.st738{fill:#9DCBEF;}
	.st739{fill:#010000;}
	.st740{fill:url(#SVGID_00000021808892137128485120000013925037506166368701_);}
	.st741{fill:url(#SVGID_00000023962010395205789100000002079532204147002792_);}
	.st742{fill:url(#SVGID_00000049922110033658765720000006772774955993054143_);}
	.st743{fill:#D2D2D2;}
	.st744{fill:#232C35;}
	.st745{fill:#E39470;}
	.st746{fill:url(#XMLID_00000010269376295082951130000001715546507581265044_);}
	.st747{fill:#9DA6AC;}
	.st748{fill:#72979F;}
	.st749{fill:#96A1AB;}
	.st750{fill:#5F7887;}
	.st751{fill:#CC1B31;}
	.st752{fill:url(#XMLID_00000061459620407820229620000013736735138922755006_);}
	.st753{fill:url(#XMLID_00000116200408396968450270000010137467459866699162_);}
	.st754{fill:url(#XMLID_00000047780749668084254780000001325540388546020763_);}
	.st755{fill:#C0C4B6;}
	.st756{fill:#CEE8EC;}
	.st757{fill:url(#XMLID_00000157272288846188339580000008005453885410728336_);}
	.st758{fill:url(#XMLID_00000142898254339421760960000016972010559495100319_);}
	.st759{fill:#384C5A;}
	.st760{fill:url(#XMLID_00000032623472404251400350000005844169167902038188_);}
	.st761{fill:#ED9E02;}
	.st762{fill:#FFE253;}
	.st763{fill:#F7C318;}
	.st764{fill:#DDB988;}
	.st765{fill:#D2A37C;}
	.st766{fill:#C98666;}
	.st767{fill:#2C7EAE;}
	.st768{fill:#A61916;}
	.st769{fill:#E6704B;}
	.st770{fill:#DF3118;}
	.st771{fill:#00648A;}
	.st772{fill:#4CB0E4;}
	.st773{fill:#2178BD;}
	.st774{fill:#058A38;}
	.st775{fill:#6EB761;}
	.st776{fill:#4DAD3C;}
	.st777{fill:#283373;}
	.st778{fill:#4A60A8;}
	.st779{fill:#274394;}
	.st780{fill:#49267F;}
	.st781{fill:#7C559E;}
	.st782{fill:#693D8F;}
	.st783{fill:#871D6C;}
	.st784{fill:#C5569A;}
	.st785{fill:#CA1781;}
	.st786{fill:#2D1B1B;}
	.st787{fill:#8A5655;}
	.st788{fill:#734748;}
	.st789{fill:url(#XMLID_00000179607954433037936650000001999927793290874499_);}
	.st790{fill:#A3B5D1;}
	.st791{fill:#04559C;}
</style>
<g>
	<circle class="st198" cx="60" cy="60" r="60"/>
	<circle class="st0" cx="60" cy="60" r="57.68"/>
	<circle class="st199" cx="60" cy="60" r="50.68"/>
	<g>
		<polygon class="st0" points="70.19,54.76 51.14,60.53 61.13,93.53 62.46,92.37 69.36,86.38 80.17,87.77 		"/>
		<polygon class="st198" points="61.71,91.5 68.99,85.18 78.56,86.4 69.42,56.19 52.57,61.29 		"/>
		<polygon class="st0" points="46.37,63.11 36.39,96.11 47.2,94.73 55.43,101.87 55.95,100.18 65.42,68.87 		"/>
		<polygon class="st198" points="54.85,99.85 47.57,93.52 38,94.75 47.14,64.54 63.99,69.64 		"/>
		<path class="st0" d="M85.26,42.28l-0.91-1.29c-0.5-0.72-0.77-1.57-0.77-2.44c0-0.14,0.01-0.28,0.02-0.41l0,0l0.15-1.57
			c0.02-0.22,0.03-0.44,0.03-0.66c0-2.6-1.49-5-3.87-6.14l-1.95-0.93c-0.87-0.41-1.57-1.11-1.99-1.98l-0.94-1.94
			c-1.15-2.36-3.53-3.83-6.11-3.83c-0.24,0-0.47,0.01-0.71,0.04l0,0l-1.45,0.15c-0.15,0.02-0.3,0.02-0.44,0.02
			c-0.87,0-1.72-0.27-2.44-0.77l-1.2-0.84c-1.17-0.82-2.54-1.23-3.9-1.23c-1.36,0-2.73,0.41-3.9,1.23l-1.29,0.91
			c-0.72,0.5-1.57,0.77-2.44,0.77c-0.14,0-0.28-0.01-0.41-0.02l-1.57-0.15c-0.22-0.02-0.44-0.03-0.66-0.03c-2.6,0-5,1.49-6.14,3.87
			l-0.93,1.95c-0.41,0.87-1.11,1.57-1.98,1.99l-1.94,0.94c-2.36,1.15-3.83,3.53-3.83,6.11c0,0.24,0.01,0.47,0.04,0.71l0,0l0.15,1.45
			c0.02,0.15,0.02,0.3,0.02,0.44c0,0.87-0.27,1.72-0.77,2.44l-0.84,1.2c-0.82,1.17-1.23,2.55-1.23,3.91c0,1.36,0.41,2.73,1.23,3.9
			l0.91,1.29c0.5,0.72,0.77,1.57,0.77,2.44c0,0.14-0.01,0.27-0.02,0.41l-0.15,1.57c-0.02,0.22-0.03,0.44-0.03,0.66
			c0,2.6,1.49,5,3.87,6.14l1.95,0.93c0.87,0.41,1.57,1.11,1.99,1.98l0.94,1.94c1.15,2.36,3.53,3.83,6.11,3.83
			c0.24,0,0.47-0.01,0.71-0.04l0,0l1.45-0.15c0.15-0.02,0.3-0.02,0.44-0.02c0.87,0,1.72,0.27,2.44,0.77l1.2,0.84
			c1.17,0.82,2.54,1.23,3.9,1.23c1.36,0,2.73-0.41,3.9-1.23l1.29-0.91c0.72-0.5,1.57-0.77,2.44-0.77c0.14,0,0.27,0.01,0.41,0.02l0,0
			l1.57,0.15c0.22,0.02,0.44,0.03,0.66,0.03c2.6,0,5-1.49,6.14-3.87l0.93-1.95c0.41-0.87,1.11-1.57,1.98-1.99l1.94-0.94
			c2.36-1.15,3.83-3.53,3.83-6.11c0-0.24-0.01-0.47-0.04-0.71l0,0l-0.15-1.45c-0.02-0.15-0.02-0.3-0.02-0.44
			c0-0.87,0.27-1.72,0.77-2.44l-1.04-0.73l1.04,0.73l0.84-1.2c0.82-1.17,1.23-2.54,1.23-3.9C86.49,44.81,86.08,43.45,85.26,42.28z
			 M74.59,54.97c-1.62,2.92-4.02,5.33-6.93,6.98c-2.72,1.53-5.78,2.34-8.9,2.34h0c-3.07,0-6.1-0.78-8.78-2.27v0l0,0
			c-2.92-1.62-5.34-4.02-6.98-6.93l0,0c-1.53-2.72-2.34-5.78-2.34-8.9l0,0c0-3.07,0.78-6.09,2.27-8.78l0,0
			c1.62-2.92,4.02-5.33,6.92-6.98l0,0c2.72-1.53,5.78-2.34,8.9-2.34h0c3.07,0,6.09,0.78,8.78,2.27l0,0
			c2.92,1.62,5.34,4.02,6.98,6.93c1.53,2.72,2.34,5.78,2.34,8.9v0C76.87,49.25,76.08,52.27,74.59,54.97L74.59,54.97z"/>
		<g>
			<path class="st198" d="M83.37,50.55l0.84-1.2c1.33-1.9,1.33-4.44,0-6.34l-0.91-1.29c-0.76-1.08-1.1-2.4-0.97-3.71l0.15-1.57
				c0.23-2.31-1.02-4.52-3.12-5.52l-1.95-0.93c-1.13-0.54-2.04-1.44-2.59-2.57l-0.94-1.94c-1.02-2.09-3.24-3.32-5.55-3.08
				l-1.45,0.15c-1.33,0.14-2.66-0.21-3.75-0.97l-1.2-0.84c-1.9-1.33-4.44-1.33-6.34,0l-1.29,0.91c-1.08,0.76-2.4,1.1-3.71,0.97
				l-1.57-0.15c-2.31-0.23-4.52,1.02-5.52,3.12l-0.93,1.95c-0.54,1.13-1.44,2.04-2.57,2.59l-1.94,0.94
				c-2.09,1.02-3.32,3.24-3.08,5.55l0.15,1.45c0.14,1.33-0.21,2.66-0.97,3.75l-0.84,1.2c-1.33,1.9-1.33,4.44,0,6.34l0.91,1.29
				c0.76,1.08,1.1,2.4,0.97,3.71l-0.15,1.57c-0.23,2.31,1.02,4.52,3.12,5.52l1.95,0.93c1.13,0.54,2.04,1.44,2.59,2.57l0.94,1.94
				c1.02,2.09,3.24,3.32,5.55,3.08l1.45-0.15c1.33-0.14,2.66,0.21,3.75,0.97l1.2,0.84c1.9,1.33,4.44,1.33,6.34,0l1.29-0.91
				c1.08-0.76,2.4-1.1,3.71-0.97l1.57,0.15c2.31,0.23,4.52-1.02,5.52-3.12l0.93-1.95c0.54-1.13,1.44-2.04,2.57-2.59l1.94-0.94
				c2.09-1.02,3.32-3.24,3.08-5.55L82.4,54.3C82.26,52.97,82.61,51.64,83.37,50.55z M58.77,65.56L58.77,65.56
				c-3.29,0-6.52-0.84-9.4-2.43l0,0c-3.13-1.73-5.71-4.3-7.47-7.42l0,0c-1.64-2.91-2.5-6.19-2.5-9.53v0c0-3.29,0.84-6.52,2.43-9.4h0
				c1.73-3.13,4.3-5.71,7.42-7.47h0c2.91-1.64,6.19-2.5,9.53-2.5h0c3.29,0,6.52,0.84,9.4,2.43v0c3.13,1.73,5.71,4.3,7.47,7.42
				c1.64,2.91,2.5,6.19,2.5,9.53v0c0,3.29-0.84,6.52-2.43,9.4l0,0c-1.73,3.13-4.3,5.71-7.42,7.47
				C65.39,64.69,62.1,65.56,58.77,65.56z"/>
		</g>
		<circle class="st0" cx="58.77" cy="46.18" r="19.38"/>
		<g>
			<g>
				<g>
					<polygon class="st198" points="57.36,30.94 57.36,30.94 57.36,30.94 					"/>
					<path class="st198" d="M72.4,43.39c0-0.55-0.14-1.13-0.5-1.63c-0.18-0.25-0.4-0.48-0.67-0.66c-0.27-0.18-0.57-0.32-0.9-0.42
						c-0.9-0.25-1.83-0.33-2.75-0.33c-0.95,0-1.9,0.09-2.81,0.18c-0.91,0.09-1.77,0.19-2.54,0.21c-0.12,0-0.23,0.01-0.33,0.01
						c-0.15,0-0.27-0.01-0.36-0.02c0.03-0.17,0.08-0.41,0.13-0.69c0.1-0.5,0.23-1.11,0.34-1.72c0.05-0.3,0.1-0.6,0.14-0.89
						c0.03-0.29,0.06-0.56,0.06-0.83c0-0.2-0.01-0.39-0.06-0.62l0,0c-0.1-0.43-0.25-0.86-0.42-1.28c-0.16-0.42-0.34-0.82-0.5-1.18
						c-0.13-0.28-0.29-0.56-0.49-0.84c-0.3-0.42-0.68-0.84-1.15-1.18c-0.23-0.17-0.49-0.32-0.78-0.44
						c-0.29-0.11-0.61-0.19-0.96-0.19c-0.16,0-0.33,0.02-0.49,0.05c-0.39,0.08-0.75,0.25-1.04,0.48c-0.22,0.17-0.4,0.38-0.53,0.6
						c-0.2,0.33-0.32,0.67-0.39,1c-0.07,0.33-0.09,0.65-0.09,0.96c0,0.47,0.05,0.9,0.1,1.26c0.04,0.3,0.08,0.55,0.1,0.76
						c0.02,0.21,0.04,0.39,0.04,0.54c0,0.17-0.01,0.33-0.05,0.51c-0.04,0.18-0.11,0.4-0.22,0.68c-0.18,0.45-0.36,0.79-0.55,1.12
						c-0.19,0.33-0.4,0.64-0.64,1.02c-0.33,0.51-0.6,1.01-0.85,1.46c-0.19,0.34-0.36,0.64-0.53,0.91c-0.25,0.4-0.5,0.68-0.72,0.85
						c-0.11,0.08-0.22,0.14-0.33,0.18c-0.07,0.03-0.15,0.04-0.23,0.06c-0.05-0.23-0.15-0.45-0.28-0.65c-0.11-0.16-0.24-0.3-0.4-0.43
						c-0.16-0.12-0.36-0.23-0.58-0.29c-0.25-0.07-0.56-0.17-0.9-0.25c-0.34-0.09-0.72-0.16-1.13-0.16c-0.18,0-0.36,0.01-0.55,0.06
						c-0.29,0.06-0.59,0.19-0.86,0.41c-0.27,0.22-0.47,0.51-0.6,0.83c-0.26,0.63-0.46,1.35-0.61,2.07
						c-0.15,0.72-0.25,1.45-0.29,2.11c-0.05,0.67-0.07,1.33-0.07,1.96c0,1.06,0.06,2.09,0.15,3.13c0.06,0.66,0.17,1.4,0.34,2.13
						c0.17,0.73,0.4,1.46,0.71,2.12c0.14,0.3,0.31,0.57,0.51,0.8c0.3,0.36,0.69,0.63,1.1,0.79c0.41,0.16,0.83,0.2,1.24,0.2
						c0.16,0,0.32-0.01,0.48-0.02l0,0c0.13-0.01,0.27-0.02,0.44-0.04c0.12-0.02,0.26-0.05,0.41-0.1c0.22-0.07,0.48-0.22,0.68-0.43
						c0.2-0.21,0.33-0.45,0.43-0.69c0.07-0.19,0.1-0.34,0.12-0.49c0.01-0.12,0.02-0.23,0.02-0.34c0.05,0,0.09,0,0.14,0
						c0.08,0,0.16,0,0.21,0.01c0.06,0,0.1,0.01,0.1,0.01l0,0c0.04,0.01,0.07,0.02,0.14,0.07c0.1,0.06,0.25,0.21,0.47,0.41
						c0.22,0.19,0.51,0.44,0.91,0.63c0.66,0.3,1.35,0.44,2.02,0.52c0.67,0.08,1.31,0.1,1.87,0.11c0.23,0,0.46,0.01,0.69,0.01
						c1.8,0,3.56-0.13,5.03-0.29c0.74-0.08,1.4-0.17,1.96-0.26c0.56-0.09,1.02-0.17,1.36-0.25c0.86-0.2,1.59-0.52,2.17-0.99
						c0.29-0.23,0.54-0.51,0.72-0.84c0.18-0.33,0.3-0.71,0.29-1.1c0-0.24-0.05-0.48-0.12-0.71c0.33-0.27,0.57-0.6,0.75-0.95
						c0.23-0.46,0.34-0.96,0.34-1.46c0-0.36-0.06-0.72-0.19-1.08c0.37-0.29,0.66-0.66,0.87-1.05c0.25-0.5,0.39-1.04,0.39-1.61
						c0-0.48-0.1-0.98-0.35-1.44c-0.01-0.02-0.02-0.04-0.03-0.06c0.24-0.26,0.44-0.55,0.58-0.86C72.28,44.41,72.4,43.91,72.4,43.39z
						"/>
				</g>
				<path class="st0" d="M69.89,45.57l0.1,0.37c0.55-0.15,0.99-0.53,1.3-0.98c0.3-0.46,0.48-1.01,0.48-1.56
					c0-0.44-0.11-0.88-0.38-1.26c-0.26-0.38-0.68-0.68-1.22-0.83c-0.83-0.23-1.7-0.31-2.58-0.31c-1.83,0-3.72,0.33-5.33,0.39
					c-0.12,0-0.24,0.01-0.35,0.01c-0.2,0-0.38-0.01-0.52-0.03c-0.22-0.03-0.35-0.09-0.41-0.15c-0.03-0.03-0.05-0.05-0.06-0.1
					c-0.02-0.04-0.03-0.11-0.03-0.2c0-0.05,0-0.12,0.02-0.19c0.06-0.39,0.23-1.14,0.38-1.92c0.08-0.39,0.15-0.79,0.2-1.17
					c0.05-0.38,0.09-0.73,0.09-1.03c0-0.17-0.01-0.32-0.05-0.47c-0.19-0.77-0.56-1.65-0.88-2.35c-0.21-0.46-0.58-1-1.06-1.45
					c-0.24-0.22-0.5-0.42-0.79-0.57c-0.29-0.15-0.61-0.25-0.95-0.25c-0.12,0-0.24,0.01-0.36,0.04l0,0c-0.3,0.06-0.56,0.19-0.78,0.36
					c-0.32,0.25-0.51,0.6-0.62,0.96c-0.11,0.36-0.15,0.74-0.15,1.1c0,0.42,0.05,0.83,0.09,1.17c0.08,0.59,0.15,1.01,0.15,1.39
					c0,0.43-0.07,0.82-0.32,1.44c-0.39,0.95-0.76,1.49-1.25,2.24c-0.62,0.97-1.07,1.94-1.57,2.64c-0.25,0.35-0.51,0.62-0.79,0.81
					c-0.29,0.19-0.6,0.3-1.01,0.31l0,0l-0.02,0c-0.12,0-0.29-0.05-0.42-0.12c-0.06-0.03-0.12-0.06-0.15-0.09l-0.04-0.03l-0.01-0.01
					l-0.08,0.11l0.08-0.11l0,0l-0.08,0.11l0.08-0.11L50.41,44l0.21-0.26l-0.01,0L50.41,44l0.21-0.26l-0.24,0.29l0.25-0.28
					l-0.01-0.01l-0.24,0.29l0.25-0.28l-0.25,0.28l0.27-0.27l-0.02-0.02l-0.25,0.28l0.27-0.27l-0.27,0.27l0.3-0.24l-0.03-0.03
					l-0.27,0.27l0.3-0.24l-0.3,0.24l0.33-0.19c-0.02-0.03-0.03-0.04-0.03-0.05l-0.3,0.24l0.33-0.19l-0.33,0.19l0.36-0.13
					c-0.01-0.03-0.02-0.04-0.03-0.06l-0.33,0.19l0.36-0.13l-0.36,0.13h0.38c0-0.06-0.01-0.1-0.02-0.13l-0.36,0.13h0.38h-0.38
					l0.34,0.17c0.07-0.15,0.1-0.31,0.1-0.46c0-0.26-0.08-0.5-0.22-0.71c-0.14-0.21-0.35-0.38-0.62-0.46
					c-0.27-0.07-0.57-0.17-0.89-0.25c-0.32-0.08-0.65-0.14-0.98-0.15c-0.28,0-0.56,0.05-0.82,0.19c-0.26,0.14-0.47,0.39-0.6,0.71
					c-0.48,1.17-0.77,2.72-0.86,3.98c-0.04,0.66-0.06,1.3-0.06,1.92c0,1.04,0.06,2.05,0.15,3.08c0.12,1.27,0.42,2.83,1,4.03
					c0.25,0.52,0.56,0.89,0.95,1.13c0.39,0.23,0.84,0.31,1.31,0.31c0.14,0,0.28-0.01,0.43-0.02c0.13-0.01,0.26-0.02,0.39-0.04
					c0.19-0.03,0.4-0.08,0.59-0.22c0.19-0.14,0.33-0.34,0.42-0.59c0.04-0.11,0.06-0.22,0.08-0.34c0.01-0.12,0.02-0.24,0.02-0.36
					c0-0.16-0.01-0.32-0.03-0.46c-0.02-0.15-0.04-0.27-0.08-0.39l0,0l0,0l-0.34,0.13l0.37,0c0-0.05-0.01-0.1-0.02-0.13l-0.34,0.13
					l0.37,0h-0.36l0.33,0.15c0.02-0.04,0.03-0.09,0.03-0.15h-0.36l0.33,0.15l-0.3-0.14l0.21,0.27c0.02-0.02,0.06-0.05,0.1-0.12
					l-0.3-0.14l0.21,0.27l-0.14-0.18l0.1,0.21l0.04-0.02l-0.14-0.18l0.1,0.21l-0.03-0.07l0.03,0.07l0,0l-0.03-0.07l0.03,0.07
					c0,0,0.05-0.02,0.12-0.03c0.21-0.05,0.59-0.09,0.92-0.09c0.19,0,0.37,0.02,0.47,0.04c0.12,0.03,0.23,0.08,0.34,0.16
					c0.17,0.11,0.34,0.28,0.54,0.46c0.2,0.18,0.44,0.38,0.75,0.52c0.57,0.26,1.2,0.39,1.83,0.47c0.63,0.08,1.25,0.09,1.81,0.1
					c0.22,0,0.45,0.01,0.67,0.01c1.77,0,3.51-0.13,4.96-0.28c1.46-0.16,2.62-0.35,3.25-0.5c0.79-0.18,1.43-0.47,1.91-0.86
					c0.24-0.19,0.43-0.41,0.57-0.65c0.14-0.24,0.21-0.51,0.21-0.79c0-0.26-0.07-0.52-0.19-0.76c-0.13-0.24-0.31-0.47-0.55-0.69
					l-0.25,0.29l0.03,0.38c0.31-0.02,0.6-0.11,0.84-0.26c0.37-0.22,0.64-0.54,0.82-0.9c0.18-0.37,0.27-0.77,0.27-1.18
					c0-0.34-0.07-0.69-0.21-1.01c-0.14-0.32-0.36-0.61-0.66-0.82l-0.22,0.31l0.03,0.38c0.33-0.02,0.64-0.12,0.9-0.28
					c0.4-0.24,0.7-0.59,0.91-1c0.21-0.4,0.32-0.86,0.32-1.31c0-0.39-0.08-0.79-0.28-1.14c-0.19-0.35-0.49-0.66-0.9-0.86L69.89,45.57
					l0.1,0.37L69.89,45.57l-0.17,0.34c0.27,0.13,0.44,0.32,0.57,0.54c0.12,0.22,0.18,0.49,0.18,0.78c0,0.44-0.15,0.9-0.41,1.24
					c-0.13,0.17-0.28,0.31-0.45,0.41c-0.17,0.1-0.35,0.16-0.56,0.18l-1.06,0.07l0.86,0.62c0.18,0.13,0.31,0.3,0.41,0.51
					c0.09,0.21,0.14,0.45,0.14,0.7c0,0.39-0.12,0.79-0.33,1.08c-0.11,0.14-0.23,0.26-0.38,0.35c-0.15,0.09-0.31,0.14-0.51,0.15
					l-0.9,0.06l0.67,0.6c0.18,0.16,0.31,0.32,0.38,0.47c0.08,0.15,0.11,0.28,0.11,0.41c0,0.14-0.04,0.27-0.12,0.42
					c-0.12,0.22-0.35,0.44-0.68,0.65c-0.33,0.2-0.77,0.38-1.3,0.5c-0.58,0.13-1.73,0.33-3.16,0.48c-1.43,0.16-3.15,0.28-4.88,0.28
					c-0.22,0-0.44,0-0.66-0.01c-0.55-0.01-1.15-0.03-1.73-0.1c-0.58-0.07-1.14-0.19-1.6-0.41c-0.26-0.12-0.48-0.33-0.75-0.57
					c-0.13-0.12-0.27-0.24-0.44-0.36c-0.17-0.11-0.36-0.21-0.59-0.26c-0.2-0.05-0.42-0.06-0.65-0.06c-0.31,0-0.64,0.03-0.9,0.07
					c-0.13,0.02-0.25,0.05-0.35,0.08c-0.05,0.02-0.1,0.03-0.16,0.07c-0.03,0.02-0.07,0.04-0.11,0.09c-0.02,0.02-0.05,0.06-0.07,0.1
					c-0.02,0.05-0.04,0.1-0.04,0.17c0,0.06,0.01,0.11,0.03,0.14l0.36-0.13l-0.36,0.13c0.01,0.03,0.03,0.12,0.05,0.23
					c0.01,0.11,0.02,0.24,0.02,0.37c0,0.09,0,0.19-0.01,0.26c-0.01,0.07-0.02,0.13-0.03,0.16c-0.04,0.11-0.08,0.17-0.12,0.21
					c-0.05,0.05-0.08,0.08-0.18,0.1c-0.1,0.03-0.25,0.04-0.45,0.05c-0.13,0.01-0.26,0.02-0.37,0.02c-0.4,0-0.69-0.06-0.92-0.2
					c-0.23-0.14-0.45-0.37-0.65-0.8c-0.51-1.05-0.82-2.56-0.92-3.76c-0.09-1.01-0.15-1.99-0.15-3.01c0-0.61,0.02-1.23,0.06-1.87
					c0.08-1.18,0.37-2.7,0.8-3.75c0.08-0.19,0.16-0.27,0.27-0.33c0.11-0.06,0.25-0.09,0.44-0.09c0.23,0,0.5,0.05,0.79,0.12
					c0.29,0.07,0.59,0.17,0.88,0.25c0.06,0.02,0.13,0.07,0.19,0.15c0.06,0.08,0.09,0.19,0.09,0.28c0,0.05-0.01,0.1-0.03,0.13
					L50,43.95v0.09c0,0.06,0.01,0.1,0.02,0.13c0.02,0.05,0.04,0.07,0.05,0.09c0.02,0.03,0.03,0.04,0.04,0.04l0.02,0.02l0.02,0.01
					l0.02,0.01c0.05,0.03,0.17,0.12,0.36,0.21c0.18,0.09,0.43,0.17,0.71,0.18l0.03,0l0,0c0.54-0.01,1.02-0.17,1.41-0.44
					c0.59-0.39,1.01-0.98,1.39-1.63c0.39-0.65,0.75-1.36,1.19-2.05c0.47-0.74,0.9-1.35,1.31-2.37c0.28-0.67,0.38-1.2,0.38-1.73
					c0-0.47-0.07-0.91-0.15-1.49c-0.05-0.33-0.09-0.71-0.09-1.07c0-0.42,0.06-0.83,0.2-1.11c0.07-0.14,0.16-0.26,0.28-0.35
					c0.12-0.09,0.26-0.16,0.46-0.21l0,0c0.06-0.01,0.13-0.02,0.19-0.02c0.19,0,0.39,0.06,0.6,0.16c0.31,0.16,0.63,0.44,0.9,0.74
					c0.27,0.31,0.48,0.65,0.6,0.92c0.31,0.68,0.67,1.53,0.83,2.21c0.01,0.05,0.02,0.16,0.02,0.29c0,0.24-0.03,0.56-0.08,0.92
					c-0.08,0.54-0.2,1.15-0.31,1.7c-0.11,0.56-0.22,1.05-0.27,1.38c-0.02,0.1-0.02,0.2-0.02,0.3c0,0.22,0.05,0.44,0.15,0.62
					c0.08,0.14,0.19,0.25,0.31,0.33c0.19,0.13,0.4,0.19,0.62,0.23c0.22,0.04,0.46,0.05,0.71,0.05c0.12,0,0.25,0,0.38-0.01
					c1.68-0.06,3.56-0.39,5.3-0.39c0.84,0,1.64,0.08,2.37,0.28c0.4,0.11,0.64,0.3,0.81,0.53C70.92,42.8,71,43.08,71,43.39
					c0,0.39-0.13,0.81-0.35,1.14c-0.22,0.34-0.53,0.58-0.86,0.67l-0.97,0.26l0.89,0.45L69.89,45.57z"/>
			</g>
			<g>
				<path class="st0" d="M50.06,43.72c-0.34,1.58-0.51,3.21-0.52,4.83l0,0.15c0,1.63,0.14,2.68,0.43,4.85
					c0.08,0.62,0.22,1.56,0.38,2.23l0.75-0.18c-0.15-0.61-0.29-1.54-0.37-2.15c-0.29-2.18-0.42-3.17-0.42-4.75l0-0.15
					c0.01-1.58,0.18-3.15,0.5-4.68L50.06,43.72L50.06,43.72z"/>
			</g>
		</g>
	</g>
</g>
</svg>
