<?xml version="1.0" encoding="utf-8"?>
<!-- Generator: Adobe Illustrator 26.0.2, SVG Export Plug-In . SVG Version: 6.00 Build 0)  -->
<svg version="1.1" id="Calque_1" xmlns="http://www.w3.org/2000/svg" xmlns:xlink="http://www.w3.org/1999/xlink" x="0px" y="0px"
	 viewBox="0 0 77.49 65.49" style="enable-background:new 0 0 77.49 65.49;" xml:space="preserve">
<style type="text/css">
	.st0{fill:#FFFFFF;}
	.st1{opacity:0.35;fill:url(#SVGID_1_);}
	.st2{opacity:0.35;}
	.st3{opacity:0.25;fill:url(#SVGID_00000142870237929727837910000009426476967495134115_);}
	.st4{opacity:0.27;fill:url(#SVGID_00000070798254323907236050000006224810282503012496_);}
	.st5{opacity:0.17;fill:url(#SVGID_00000167374579863070892160000002503577637886743978_);}
	.st6{opacity:0.62;fill:url(#SVGID_00000009587933726466935850000005928618792195880602_);}
	.st7{opacity:0.37;fill:url(#SVGID_00000106827610426828903400000012869577652572597947_);}
	.st8{opacity:0.47;fill:url(#SVGID_00000173878782264589784190000003871172516547363747_);}
	.st9{opacity:0.47;fill:url(#SVGID_00000177473532462636774170000014704202068395729541_);}
	.st10{opacity:0.47;fill:url(#SVGID_00000140714018757082038520000017364947276928223397_);}
	.st11{opacity:0.48;fill:url(#SVGID_00000121989971865194987440000012406088475801613457_);}
	.st12{opacity:0.48;fill:url(#SVGID_00000025429247288898963420000006703097310564211878_);}
	.st13{opacity:0.4;fill:url(#SVGID_00000031902242067501416420000003128931867604610980_);}
	.st14{fill:#3A63A4;}
	.st15{fill:#CCD35F;}
	.st16{fill:#4B4392;}
	.st17{fill:#2CA696;}
	.st18{fill:#D71158;}
	.st19{fill:#F9BB5A;}
	.st20{fill:#EFB349;}
	.st21{fill:#EC6C44;}
	.st22{fill:#25B1A2;}
	.st23{fill:#CB3580;}
	.st24{fill:#F8DC91;}
	.st25{fill:#C2367E;}
	.st26{fill:#289BB9;}
	.st27{fill:#CC1640;}
	.st28{fill:#4069A8;}
	.st29{fill:#EF8054;}
	.st30{fill:#1B9361;}
	.st31{fill:#1E9CC0;}
	.st32{fill:#8E4794;}
	.st33{fill:#F9B958;}
	.st34{fill:#DF0C1A;}
	.st35{fill:#002D74;}
	.st36{fill:#0069A8;}
	.st37{fill:#15A3DD;}
	.st38{fill:#19A3DD;}
	.st39{fill-rule:evenodd;clip-rule:evenodd;fill:#4AA334;}
	.st40{fill-rule:evenodd;clip-rule:evenodd;fill:#FFFFFF;}
	.st41{fill:#263780;}
	.st42{fill:url(#SVGID_00000082349085017590437460000004379720684532924303_);}
	.st43{fill:url(#SVGID_00000113353803193452928980000006237881902444674981_);}
	.st44{fill:url(#SVGID_00000131330773255869559440000013835023613263055027_);}
	.st45{fill:url(#SVGID_00000072981692739645237320000000345141478702220731_);}
	.st46{fill:url(#SVGID_00000002341944894943713680000007883668885169052342_);}
	.st47{fill:url(#SVGID_00000041290231206762760850000015904422813022849198_);}
	.st48{fill:#AFB6BD;}
	.st49{fill:#31295C;}
	.st50{fill:url(#SVGID_00000181773395607539716900000002152485813379692176_);}
	.st51{fill:url(#SVGID_00000177479854812508733730000015368662575091546303_);}
	.st52{fill:url(#SVGID_00000060753281121266362240000011853501902652192403_);}
	.st53{fill:url(#SVGID_00000050629842143410925040000003058890984006717091_);}
	.st54{fill:url(#SVGID_00000088112488072719083980000000094259966310110876_);}
	.st55{fill:url(#SVGID_00000067920063405173667130000013514173478970716044_);}
	.st56{fill:url(#SVGID_00000181084183137507536770000002426163084715467684_);}
	.st57{fill:url(#SVGID_00000011016869329161952610000004059223951522462899_);}
	.st58{fill:url(#SVGID_00000169547705071545896770000016091645400988674981_);}
	.st59{fill:url(#SVGID_00000127027629695930016160000018237299440189616778_);}
	.st60{fill:url(#SVGID_00000109750860052062590890000001303920989237945223_);}
	.st61{fill:url(#SVGID_00000021832891357773027720000004599285829713392020_);}
	.st62{fill:url(#SVGID_00000097487749493036547240000018305313652485856657_);}
	.st63{fill:url(#SVGID_00000180354831415834156670000003613630942061732787_);}
	.st64{fill:#312782;}
	.st65{fill:#6461A8;}
	.st66{fill:#747473;}
	.st67{fill:#CAC9C9;}
	.st68{fill-rule:evenodd;clip-rule:evenodd;fill:#D81A16;stroke:#1D1D1B;stroke-width:0.25;stroke-miterlimit:10;}
	.st69{fill:none;stroke:#1D1D1B;stroke-width:0.25;stroke-miterlimit:10;}
	.st70{fill:#12110C;}
	.st71{fill:#1D1D1B;}
	.st72{fill:#EF8328;}
	.st73{fill:url(#SVGID_00000178919261129941842200000000995807239148049549_);}
	.st74{fill:url(#SVGID_00000182525571028865328040000017351462549756262065_);}
	.st75{fill:url(#SVGID_00000170961022858284989860000005518894605117850253_);}
	.st76{fill:url(#SVGID_00000115503321722450355310000018299295691240790429_);}
	.st77{opacity:0.6;}
	.st78{fill:url(#SVGID_00000064316054663635554800000002269865248548108216_);}
	.st79{fill:url(#SVGID_00000057113186555591484550000001678144675570256789_);}
	.st80{fill:url(#SVGID_00000078015855684410885970000017074828685945359780_);}
	.st81{fill:url(#SVGID_00000150062967722581631810000013182243775285976966_);}
	.st82{fill:url(#SVGID_00000127742460593181332320000016433877985375174027_);}
	.st83{fill:url(#SVGID_00000119112129235521675540000002662694687151282316_);}
	.st84{fill:url(#SVGID_00000098206200411717771900000008860888638736742846_);}
	.st85{fill:url(#SVGID_00000132058976571313107410000012659484828022671795_);}
	.st86{fill:url(#SVGID_00000163756805769074994040000008879232597994160046_);}
	.st87{fill:url(#SVGID_00000041984703168374279290000016533766755914741437_);}
	.st88{fill:url(#SVGID_00000036968172393965325820000007948507593098329731_);}
	.st89{fill:url(#SVGID_00000126314548594523752980000010142800288774717119_);}
	.st90{fill:url(#SVGID_00000057137878812128679610000008882753481985026176_);}
	.st91{fill:#001689;}
	.st92{fill:none;stroke:#001689;stroke-width:0.881;stroke-linecap:round;stroke-linejoin:round;stroke-miterlimit:10;}
	.st93{fill:#0047BA;}
	.st94{fill:#253D90;}
	.st95{fill:#FFDC00;}
	.st96{fill:#0556A3;}
	.st97{fill:#0369B2;}
	.st98{fill:#5DC3F0;}
	.st99{fill:#DF162E;}
	.st100{fill:#39A7DF;}
	.st101{fill:#1B71B6;}
	.st102{fill-rule:evenodd;clip-rule:evenodd;fill:url(#XMLID_00000060003124702344202890000006286721256745243040_);}
	.st103{fill-rule:evenodd;clip-rule:evenodd;fill:url(#XMLID_00000067931808271975902980000001525710718874990465_);}
	.st104{fill:#91BF25;}
	.st105{fill:#FFDA05;}
	.st106{fill:#E00F1A;}
	.st107{fill-rule:evenodd;clip-rule:evenodd;fill:#213A7B;}
	.st108{fill-rule:evenodd;clip-rule:evenodd;}
	.st109{fill-rule:evenodd;clip-rule:evenodd;fill:#E20C30;}
	.st110{fill:#2B7DB9;}
	.st111{fill:#43AC51;}
	.st112{fill-rule:evenodd;clip-rule:evenodd;fill:#034A91;}
	.st113{fill:#005891;}
	.st114{fill:#E3283B;}
	.st115{fill:#004A93;}
	.st116{fill-rule:evenodd;clip-rule:evenodd;fill:#004A93;}
	.st117{fill-rule:evenodd;clip-rule:evenodd;fill:#FFEA20;}
	.st118{fill-rule:evenodd;clip-rule:evenodd;fill:#DF101C;}
	.st119{fill:#2997D4;}
	.st120{fill:#F18A00;}
	.st121{fill:#09111D;}
	.st122{fill:#A72136;}
	.st123{fill:url(#SVGID_00000023961544344457517990000009365788263113169808_);}
	.st124{fill:url(#SVGID_00000144325537392827337380000013985723515978783655_);}
	.st125{fill:url(#SVGID_00000126299176411058859850000001138132348429062842_);}
	.st126{fill:url(#SVGID_00000064321229877573116650000012158850917365606552_);}
	.st127{fill:url(#SVGID_00000106141518990767409410000008473086696156267392_);}
	.st128{fill:url(#SVGID_00000031903156276148116450000002442229483413277336_);}
	.st129{fill:url(#SVGID_00000137820930192392900280000007984494063335725706_);}
	.st130{fill:url(#SVGID_00000168839862799013146240000018176530677606007943_);}
	.st131{fill:#2D2F34;}
	.st132{fill:url(#SVGID_00000137822899364681743130000012990119900442597282_);}
	.st133{fill:url(#SVGID_00000116919947095416818310000017620950106774722698_);}
	.st134{fill:url(#SVGID_00000072262218721675169800000007233767656493676710_);}
	.st135{fill:url(#SVGID_00000166661632991097714290000001512821529183595924_);}
	.st136{fill:#003DA6;}
	.st137{fill-rule:evenodd;clip-rule:evenodd;fill:#0E579F;stroke:#FFFFFF;stroke-width:1.0001;stroke-miterlimit:2.6131;}
	.st138{fill-rule:evenodd;clip-rule:evenodd;fill:#FFFFFF;stroke:#FFFFFF;stroke-width:0.216;stroke-miterlimit:2.6131;}
	.st139{fill:#1766AD;}
	.st140{fill:#7EB828;}
	.st141{fill:#0D9E39;}
	.st142{fill:#7CB62C;}
	.st143{fill-rule:evenodd;clip-rule:evenodd;fill:#00A0DF;}
	
		.st144{clip-path:url(#SVGID_00000066514143915924701200000011896498148948550282_);fill-rule:evenodd;clip-rule:evenodd;fill:#8CCFF1;}
	
		.st145{clip-path:url(#SVGID_00000066514143915924701200000011896498148948550282_);fill-rule:evenodd;clip-rule:evenodd;fill:#C3E4F5;}
	
		.st146{clip-path:url(#SVGID_00000066514143915924701200000011896498148948550282_);fill-rule:evenodd;clip-rule:evenodd;fill:#FFFFFF;}
	.st147{clip-path:url(#SVGID_00000066514143915924701200000011896498148948550282_);}
	.st148{fill:#83CEEA;}
	.st149{fill-rule:evenodd;clip-rule:evenodd;fill:#65B2E8;}
	.st150{fill-rule:evenodd;clip-rule:evenodd;fill:#0C68AE;}
	.st151{fill-rule:evenodd;clip-rule:evenodd;fill:#00205C;}
	.st152{fill:#00A0DF;}
	.st153{fill:#00205C;}
	.st154{clip-path:url(#SVGID_00000069392126877799562730000009956425005586185880_);}
	.st155{fill:#29A43B;}
	.st156{fill:#BFE1F4;}
	.st157{fill:#D2E9F7;}
	.st158{fill:#444592;}
	.st159{fill:#BBA26A;}
	.st160{fill:#ACB217;}
	.st161{fill:url(#SVGID_00000003090435546929134350000001261726370696203435_);}
	.st162{fill-rule:evenodd;clip-rule:evenodd;fill:#211F1F;}
	.st163{fill:url(#SVGID_00000071525908598300092760000008896493406890900403_);}
	.st164{fill:url(#SVGID_00000173139510665926432120000003325233909704747651_);}
	.st165{fill:url(#SVGID_00000048477067341438836650000003112769294431075208_);}
	.st166{fill:url(#SVGID_00000171695833852627422710000010710041016152635324_);}
	.st167{fill:url(#SVGID_00000049923659940344511170000008159614740589203112_);}
	.st168{fill:url(#SVGID_00000105405049942481592460000002751579603826313613_);}
	.st169{fill:url(#SVGID_00000134950026568154102760000006168472320672237502_);}
	.st170{fill:url(#SVGID_00000019636674844624787070000015615678464118086812_);}
	.st171{fill:url(#SVGID_00000130614917790514413130000012910216347722905257_);}
	.st172{fill:url(#SVGID_00000136382787651553087840000009530497217800399754_);}
	.st173{fill:url(#SVGID_00000057135987139891824600000000064742065319307138_);}
	.st174{fill:url(#SVGID_00000099650027225458013160000010856459019812730802_);}
	.st175{fill:url(#SVGID_00000168081763015203969840000003928211471134779789_);}
	.st176{fill:url(#SVGID_00000077294140343366134750000015193138147951052976_);}
	.st177{fill:url(#SVGID_00000120539260282847773170000016618724809136886661_);}
	.st178{fill:url(#SVGID_00000106141776153930595630000018086762189485274535_);}
	.st179{fill:url(#SVGID_00000039131195820930356350000001755082335711415218_);}
	.st180{fill:url(#SVGID_00000078765814092104201700000006641458838323175100_);}
	.st181{fill:url(#SVGID_00000181077419441659441590000014795170361366584240_);}
	.st182{fill:url(#SVGID_00000055681974583950605320000006135771690715162042_);}
	.st183{fill:url(#SVGID_00000054958258790294669780000005627574615853511600_);}
	.st184{fill:url(#SVGID_00000065043466592491768590000005563271227403542430_);}
	.st185{fill:url(#SVGID_00000085229709325615209350000018088265300042963590_);}
	.st186{fill:url(#SVGID_00000069359146348324954860000006086899822834722485_);}
	.st187{fill:url(#SVGID_00000024693771312196036280000011650728569340920208_);}
	.st188{fill:url(#SVGID_00000026164861116062989660000016155336674874780292_);}
	
		.st189{clip-path:url(#SVGID_00000129205346117278154150000004867502291208396197_);fill:url(#SVGID_00000047059134966604188670000016826799771496147598_);}
	.st190{fill:url(#SVGID_00000095310035451629004760000012295438662481033394_);}
	.st191{fill:url(#SVGID_00000017477088500132092460000006808906583849835199_);}
	.st192{fill:url(#SVGID_00000079465046923899972360000004915849434432366469_);}
	.st193{fill:url(#SVGID_00000146501913663030543830000003465161561141287870_);}
	.st194{fill-rule:evenodd;clip-rule:evenodd;fill:url(#SVGID_00000029024810135517020860000008903398120892222139_);}
	.st195{fill:#F6F0F3;}
	.st196{fill:#F8F4F6;}
	.st197{fill:#FFFCFD;}
	.st198{fill:#0F4D80;}
	.st199{fill:#2F93D1;}
	.st200{display:none;}
	.st201{display:inline;fill:#0F4D80;}
	.st202{display:inline;fill:#2F93D1;}
	.st203{display:inline;fill:#FFFFFF;}
	.st204{opacity:0.3;}
	.st205{fill:#65A1D7;}
	.st206{fill:#E63922;}
	.st207{fill:#33712F;}
	.st208{fill:#509BD5;}
	.st209{fill:#2C88C7;}
	.st210{fill:#A9DBF7;}
	.st211{fill:#EEB68A;}
	.st212{fill:#FBD3AD;}
	.st213{fill:#270C12;}
	.st214{fill:#230A10;}
	.st215{fill:#A2403B;}
	.st216{fill:#C1665D;}
	.st217{fill:#DFECF8;}
	.st218{fill:#411017;}
	.st219{fill:#262626;}
	.st220{opacity:0.47;}
	.st221{fill:#FAD8D5;}
	.st222{fill:#FBE1DE;}
	.st223{fill:#EA808C;}
	.st224{fill:#C9E7F7;}
	.st225{fill:#E5F3FD;}
	.st226{fill:#FDEEEE;}
	.st227{fill:#F7C7C9;}
	.st228{fill:#ECF6F7;}
	.st229{fill:#A0D0F1;}
	.st230{fill:#97C7EC;}
	.st231{fill:#9ECFF1;}
	.st232{fill:#E8F4F6;}
	.st233{fill:#BEE3F5;}
	.st234{fill:#D7EDF6;}
	.st235{fill:#ED705B;}
	.st236{fill:#F9C9BA;}
	.st237{fill:#8BC5EC;}
	.st238{fill:#F5AC9B;}
	.st239{fill:#F1907E;}
	.st240{fill:#D6EDF6;}
	.st241{fill:#4B8739;}
	.st242{fill:#F39B8B;}
	.st243{fill:#C5D4E1;}
	.st244{fill:#F29A9C;}
	.st245{fill:#3C3C3B;}
	.st246{fill:#EE808D;}
	.st247{fill:#187FB9;}
	.st248{fill:#2EA8E0;}
	.st249{fill:#80CEF4;}
	.st250{fill:#BDE3F6;}
	.st251{fill:#EA5B2B;}
	.st252{fill:#E73F2F;}
	.st253{opacity:0.26;fill:#D3B0D4;}
	.st254{fill:url(#SVGID_00000096777196403090800360000013247199178008615560_);}
	.st255{fill:#B7553B;}
	.st256{fill:#E63924;}
	.st257{fill:#441943;}
	.st258{fill:#281028;}
	.st259{fill:#8BCAB9;}
	.st260{fill:#D9271B;}
	.st261{fill:#FCE7E5;}
	.st262{fill:#A9D7CF;}
	.st263{fill:url(#SVGID_00000147935458970702100050000016036252664005930886_);}
	.st264{fill:url(#SVGID_00000127046045871426297690000012994555814362744197_);}
	.st265{fill:url(#SVGID_00000004543034717556244530000003452542979934199484_);}
	.st266{opacity:0.26;fill:#A2403B;}
	.st267{fill:#6E4594;}
	.st268{fill:#B65650;}
	.st269{fill:url(#SVGID_00000062171311457493460150000004458852289195814800_);}
	.st270{fill:#454545;}
	.st271{fill:#A7D9F5;}
	.st272{fill:#24212E;}
	.st273{fill:#6D1B0F;}
	.st274{fill:#3E4055;}
	.st275{fill:#3E4052;}
	.st276{fill:#77491E;}
	.st277{fill:#474A5E;}
	.st278{fill:#24222D;}
	.st279{fill:#D6D6D6;}
	.st280{fill:#F8C6BD;}
	.st281{fill:#3F292A;}
	.st282{fill:#E7E8EC;}
	.st283{fill:#F9D3CA;}
	.st284{fill:#E9B9A6;}
	.st285{fill:#0E0C09;}
	.st286{fill:#CCDADA;}
	.st287{fill:#EDBDAA;}
	.st288{fill:#535459;}
	.st289{fill:#929497;}
	.st290{fill:#3164AC;}
	.st291{fill:#D53939;}
	.st292{fill:#313134;}
	.st293{fill:url(#SVGID_00000021095894106707265470000004552334985431806348_);}
	.st294{fill:url(#SVGID_00000057832963265436993000000016113235847571802777_);}
	.st295{fill:url(#SVGID_00000063635617737866763000000016973815823302706582_);}
	.st296{fill:#E6E7E7;}
	.st297{clip-path:url(#SVGID_00000117672535697515961540000008087494353415920269_);}
	.st298{fill:#F7F6F6;}
	.st299{fill:#0E4D80;}
	.st300{opacity:0.31;}
	.st301{opacity:0;}
	.st302{fill:#010100;}
	.st303{opacity:4.653465e-03;}
	.st304{opacity:9.306931e-03;}
	.st305{opacity:0.014;}
	.st306{opacity:0.0186;}
	.st307{opacity:0.0233;}
	.st308{opacity:0.0279;}
	.st309{opacity:0.0326;}
	.st310{opacity:0.0372;}
	.st311{opacity:0.0419;}
	.st312{opacity:0.0465;}
	.st313{opacity:0.0512;}
	.st314{opacity:0.0558;}
	.st315{opacity:0.0605;}
	.st316{opacity:0.0651;}
	.st317{opacity:0.0698;}
	.st318{opacity:0.0745;}
	.st319{opacity:0.0791;}
	.st320{opacity:0.0838;}
	.st321{opacity:0.0884;}
	.st322{opacity:0.0931;}
	.st323{opacity:0.0977;}
	.st324{opacity:0.1024;}
	.st325{opacity:0.107;}
	.st326{opacity:0.1117;}
	.st327{opacity:0.1163;}
	.st328{opacity:0.121;}
	.st329{opacity:0.1256;}
	.st330{opacity:0.1303;}
	.st331{opacity:0.135;}
	.st332{opacity:0.1396;}
	.st333{opacity:0.1443;}
	.st334{opacity:0.1489;}
	.st335{opacity:0.1536;}
	.st336{opacity:0.1582;}
	.st337{opacity:0.1629;}
	.st338{opacity:0.1675;}
	.st339{opacity:0.1722;}
	.st340{opacity:0.1768;}
	.st341{opacity:0.1815;}
	.st342{opacity:0.1861;}
	.st343{opacity:0.1908;}
	.st344{opacity:0.1954;}
	.st345{opacity:0.2001;}
	.st346{opacity:0.2048;}
	.st347{opacity:0.2094;}
	.st348{opacity:0.2141;}
	.st349{opacity:0.2187;}
	.st350{opacity:0.2234;}
	.st351{opacity:0.228;}
	.st352{opacity:0.2327;}
	.st353{opacity:0.2373;}
	.st354{opacity:0.242;}
	.st355{opacity:0.2466;}
	.st356{opacity:0.2513;}
	.st357{opacity:0.2559;}
	.st358{opacity:0.2606;}
	.st359{opacity:0.2652;}
	.st360{opacity:0.2699;}
	.st361{opacity:0.2746;}
	.st362{opacity:0.2792;}
	.st363{opacity:0.2839;}
	.st364{opacity:0.2885;}
	.st365{opacity:0.2932;}
	.st366{opacity:0.2978;}
	.st367{opacity:0.3025;}
	.st368{opacity:0.3071;}
	.st369{opacity:0.3118;}
	.st370{opacity:0.3164;}
	.st371{opacity:0.3211;}
	.st372{opacity:0.3257;}
	.st373{opacity:0.3304;}
	.st374{opacity:0.335;}
	.st375{opacity:0.3397;}
	.st376{opacity:0.3444;}
	.st377{opacity:0.349;}
	.st378{opacity:0.3537;}
	.st379{opacity:0.3583;}
	.st380{opacity:0.363;}
	.st381{opacity:0.3676;}
	.st382{opacity:0.3723;}
	.st383{opacity:0.3769;}
	.st384{opacity:0.3816;}
	.st385{opacity:0.3862;}
	.st386{opacity:0.3909;}
	.st387{opacity:0.3955;}
	.st388{opacity:0.4002;}
	.st389{opacity:0.4049;}
	.st390{opacity:0.4095;}
	.st391{opacity:0.4142;}
	.st392{opacity:0.4188;}
	.st393{opacity:0.4235;}
	.st394{opacity:0.4281;}
	.st395{opacity:0.4328;}
	.st396{opacity:0.4374;}
	.st397{opacity:0.4421;}
	.st398{opacity:0.4467;}
	.st399{opacity:0.4514;}
	.st400{opacity:0.456;}
	.st401{opacity:0.4607;}
	.st402{opacity:0.4653;}
	.st403{fill:url(#SVGID_00000137131677080786302950000015409076730984396433_);}
	.st404{fill:url(#SVGID_00000007412817569256252470000016299416129310630790_);}
	.st405{fill:url(#SVGID_00000037687390235716816890000006605111934104001968_);}
	.st406{fill:#C6A295;}
	.st407{fill:#EFC5B3;}
	.st408{fill:#121214;}
	.st409{fill:#BBBDBE;}
	.st410{fill:#863C13;}
	.st411{fill:#B96117;}
	.st412{fill:#EF8118;}
	.st413{fill:#BA5817;}
	.st414{fill:#6D6F71;}
	.st415{fill:#E21D26;}
	.st416{fill:#2C5E84;}
	.st417{fill:#9C251F;}
	.st418{fill:url(#SVGID_00000127016635570209207350000004938152987197725868_);}
	.st419{fill:#1C374E;}
	.st420{fill:#2B4E68;}
	.st421{opacity:0.3;fill:#121214;}
	.st422{fill:url(#SVGID_00000106834003210607663020000004563303809183230630_);}
	.st423{fill:url(#SVGID_00000180366980923423964790000001950330010983247500_);}
	.st424{fill:url(#SVGID_00000020390796276866310060000016719591576868302247_);}
	.st425{fill:url(#SVGID_00000171712266122356117730000004126034860211230371_);}
	.st426{fill:url(#SVGID_00000168105953081242686050000008495839025003027371_);}
	.st427{fill:url(#SVGID_00000002347096613047595280000009132123750222913975_);}
	.st428{fill:#0C0C0C;}
	.st429{fill:#603914;}
	.st430{fill:#E86821;}
	.st431{fill:#171717;}
	.st432{fill:#663F30;}
	.st433{fill:url(#SVGID_00000012443198518608060360000011215070085141736073_);}
	.st434{fill:url(#SVGID_00000125596098635795224580000011161757346163278246_);}
	.st435{fill:url(#SVGID_00000125577414801454508970000002606192750926580385_);}
	.st436{fill:url(#SVGID_00000070109221989056725250000012086330219143627937_);}
	.st437{fill:url(#SVGID_00000030473704091976599430000006783585172454952118_);}
	.st438{fill:url(#SVGID_00000154410182832856503190000004953063541559643581_);}
	.st439{fill:url(#SVGID_00000125581555688540305690000003942675924797026186_);}
	.st440{fill:url(#SVGID_00000040536363485349000210000006221120483008233372_);}
	.st441{fill:url(#SVGID_00000163072802210334612580000002251716501229222579_);}
	.st442{fill:url(#SVGID_00000000195520660457728340000014507531970728776865_);}
	.st443{fill:url(#SVGID_00000011712083807269784920000014258716301838631327_);}
	.st444{fill:url(#SVGID_00000075148934061614053010000018369142509943376282_);}
	.st445{fill:url(#SVGID_00000028320571851631324830000006348369862518129294_);}
	.st446{fill:url(#SVGID_00000055681833372709455730000009661614772216688572_);}
	.st447{fill:url(#SVGID_00000152254949466870695210000005648474731419090862_);}
	.st448{fill:url(#SVGID_00000103976363355716443950000017768080290095594369_);}
	.st449{fill:url(#SVGID_00000003796151844929006880000013318434813542659727_);}
	.st450{fill:url(#SVGID_00000161622471242188286140000003754775557610763418_);}
	.st451{fill:#B7B7B7;}
	.st452{fill:#112134;}
	.st453{fill:#414042;}
	.st454{fill:#221E20;}
	.st455{fill:#131313;}
	.st456{fill:#202020;}
	.st457{fill:#915E33;}
	.st458{fill:#57391E;}
	.st459{fill:#F39519;}
	.st460{fill:#F4B305;}
	.st461{fill:#C4C3C3;}
	.st462{fill:#A5A4A5;}
	.st463{fill:#888989;}
	.st464{fill:#242424;}
	.st465{fill:#6E4827;}
	.st466{opacity:0.1844;fill:#24222D;}
	.st467{fill:#A0A4BB;}
	.st468{opacity:0.1844;fill:#999AB6;}
	.st469{fill:#D9E3E3;}
	.st470{fill:#FAD5CB;}
	.st471{opacity:0.1844;fill:#24212E;}
	.st472{fill:#844013;}
	.st473{fill:#F8B777;}
	.st474{fill:#3576AB;}
	.st475{fill:#A2A1A1;}
	.st476{fill:#754C29;}
	.st477{fill:#B3DFF1;}
	.st478{fill:#80A5A5;}
	.st479{fill:#EAAE93;}
	.st480{fill:#00657E;}
	.st481{fill:#382E22;}
	.st482{fill:#157288;}
	.st483{fill:#A42916;}
	.st484{fill:#D43216;}
	.st485{fill:#E5A082;}
	.st486{fill:#B23318;}
	.st487{fill:#843E1E;}
	.st488{fill:#EDBEA8;}
	.st489{fill:#E94E49;}
	.st490{fill:#E3E4E3;}
	.st491{fill:#B9B9B9;}
	.st492{fill:#868787;}
	.st493{fill:url(#XMLID_00000174566422611616236300000014488650148812070290_);}
	.st494{fill:#989898;}
	.st495{fill:url(#XMLID_00000070110106646820127700000014781565187977398656_);}
	.st496{fill:#EEECEB;}
	.st497{fill:#D5D5D5;}
	.st498{fill:url(#XMLID_00000107575981261186685000000007493355585044319383_);}
	.st499{fill:url(#XMLID_00000088102263927547313890000011657545846211726216_);}
	.st500{fill:url(#XMLID_00000078035174032495614900000005871841841827614868_);}
	.st501{fill:url(#XMLID_00000092455415536930624490000009499935217274331021_);}
	.st502{fill:url(#XMLID_00000105394070596289337200000004738430291593565083_);}
	.st503{fill:url(#XMLID_00000107552577715388018910000003422037499010889127_);}
	.st504{fill:url(#XMLID_00000109714724901633683280000010296598448771794855_);}
	.st505{fill:url(#XMLID_00000158739300328922249850000001567720687467252611_);}
	.st506{fill:url(#XMLID_00000090269428846880907950000001655990009136153493_);}
	.st507{fill:url(#XMLID_00000064329545038217512410000014223876702696804736_);}
	.st508{fill:url(#XMLID_00000170962879054780118490000005467685509419539603_);}
	.st509{fill:url(#XMLID_00000108272392262042852480000017210935187540434084_);}
	.st510{fill:url(#XMLID_00000090997503065135520040000010997054291799577254_);}
	.st511{fill:url(#XMLID_00000009581043519998952040000001871034827986936255_);}
	.st512{fill:url(#XMLID_00000152232058808374397810000012673314570429318055_);}
	.st513{fill:url(#XMLID_00000069366185439179822550000017052886030238981789_);}
	.st514{fill:url(#XMLID_00000130645949042800395690000006901436648908296638_);}
	.st515{fill:url(#XMLID_00000014632911887596366220000002161015905289078169_);}
	.st516{fill:url(#XMLID_00000108995249798674913980000017960080349064448663_);}
	.st517{fill:url(#XMLID_00000168103355810484157560000001148806353031328445_);}
	.st518{fill:url(#XMLID_00000016788253491050309850000017644584752251302840_);}
	.st519{fill:url(#XMLID_00000168092806827754875840000001256099718567471236_);}
	.st520{fill:url(#XMLID_00000024680533661604232640000006552630046439669667_);}
	.st521{fill:url(#XMLID_00000084487662938224332900000012789552866340503220_);}
	.st522{fill:url(#XMLID_00000160912113637625244520000013159455776770123922_);}
	.st523{fill:url(#XMLID_00000093176434427971208590000013487798826754450309_);}
	.st524{fill:url(#XMLID_00000161608901933608540260000010647863728643918000_);}
	.st525{fill:url(#XMLID_00000147217079560297450780000016449646701393326000_);}
	.st526{fill:url(#XMLID_00000005950194064692679980000009284767053670344632_);}
	.st527{fill:url(#XMLID_00000142893808728905004980000017191250573121018247_);}
	.st528{fill:url(#XMLID_00000014601097603547620370000015690555043919447701_);}
	.st529{fill:url(#XMLID_00000057146551208358498570000001526505321769264820_);}
	.st530{fill:url(#XMLID_00000070087904500275780040000003794013346417800106_);}
	.st531{fill:url(#XMLID_00000070096774210475401970000015767548239875181220_);}
	.st532{fill:url(#XMLID_00000032628087068331523020000015977216816435776912_);}
	.st533{fill:url(#XMLID_00000018953862157630954410000007365079414222419367_);}
	.st534{fill:url(#XMLID_00000178887674617809948470000014349423853350151046_);}
	.st535{fill:url(#XMLID_00000072998057800857615550000010126935156906766993_);}
	.st536{fill:url(#XMLID_00000155133590630889287890000015737835073925224096_);}
	.st537{fill:url(#XMLID_00000153699495965758427100000008765217585091956918_);}
	.st538{fill:url(#XMLID_00000052091130420757986440000008190405116973086367_);}
	.st539{fill:url(#XMLID_00000085967529557996230840000012145711913071243921_);}
	.st540{fill:url(#XMLID_00000100383258140307501970000011900417887024937348_);}
	.st541{fill:url(#XMLID_00000110458826743161345240000001379074642962068629_);}
	.st542{fill:url(#XMLID_00000107555405006620115430000005788516234330867603_);}
	.st543{fill:url(#XMLID_00000033367454700699419220000016655718881914710417_);}
	.st544{fill:url(#XMLID_00000074411746156520851210000005678893776459395978_);}
	.st545{fill:url(#XMLID_00000040553935043181731470000009492104949588288415_);}
	.st546{fill:url(#XMLID_00000031925043077515643270000008736864886106022545_);}
	.st547{fill:url(#XMLID_00000018928811846382627460000007789042771765922219_);}
	.st548{fill:url(#XMLID_00000125577785611079386050000018191806128985307059_);}
	.st549{fill:url(#XMLID_00000054971346673882518090000018325539004032036502_);}
	.st550{fill:url(#XMLID_00000007397955888930270060000004564542150471411116_);}
	.st551{fill:url(#XMLID_00000044899274378194296030000005902798260002432169_);}
	.st552{fill:url(#XMLID_00000061437035632749326440000017250936286981084820_);}
	.st553{fill:url(#XMLID_00000026869368534406663230000014423700184510778508_);}
	.st554{fill:url(#XMLID_00000183229459175064621140000015080528099099730099_);}
	.st555{fill:url(#XMLID_00000082352908002405047760000016535242627270705800_);}
	.st556{fill:url(#XMLID_00000036930850608527697070000015280805455258806448_);}
	.st557{fill:url(#XMLID_00000155144823578963375710000009555123957463409037_);}
	.st558{fill:url(#XMLID_00000023991322261823285700000017172338545730719873_);}
	.st559{fill:url(#XMLID_00000130632796091692728920000005083822818010360454_);}
	.st560{fill:url(#XMLID_00000083804532551536899430000012448047540881242280_);}
	.st561{fill:url(#XMLID_00000012452800782904675100000017311318645208133776_);}
	.st562{fill:url(#XMLID_00000115478516605123856840000016165176834467694220_);}
	.st563{fill:url(#XMLID_00000054972864515185702000000010874379007620340352_);}
	.st564{fill:url(#XMLID_00000066495246089702414660000013298642402290226859_);}
	.st565{fill:url(#XMLID_00000117634754227746208330000013291027501711547792_);}
	.st566{fill:url(#XMLID_00000065793097231599896560000001145598750232935072_);}
	.st567{fill:url(#XMLID_00000096039239855447980300000016825339804666074506_);}
	.st568{fill:url(#XMLID_00000150806370500314830800000015651792945352115845_);}
	.st569{fill:url(#XMLID_00000037650704092489109940000008502528282056565679_);}
	.st570{fill:url(#XMLID_00000105404517833839080150000012799835351487643037_);}
	.st571{fill:url(#XMLID_00000100368963077094107500000009469496256787651990_);}
	.st572{fill:url(#XMLID_00000060730590799718708990000009029728106256077741_);}
	.st573{fill:url(#XMLID_00000044179617388183647610000017078646717045568666_);}
	.st574{fill:url(#XMLID_00000078749416786176151210000002890670835255275674_);}
	.st575{fill:url(#XMLID_00000043420329732568094300000003039529728387911855_);}
	.st576{fill:url(#XMLID_00000178921454798666481630000012410649272222689426_);}
	.st577{fill:url(#XMLID_00000132051926529229092320000017304423852448698042_);}
	.st578{fill:url(#XMLID_00000137834668128182151730000013390770150599436175_);}
	.st579{fill:url(#XMLID_00000023268995774127270030000017419840390939466934_);}
	.st580{fill:url(#XMLID_00000131326823945406731380000012971071853503138451_);}
	.st581{fill:url(#XMLID_00000147939801534230552170000007844649784366789555_);}
	.st582{fill:url(#XMLID_00000182530080246444396220000002176550732432804794_);}
	.st583{fill:url(#XMLID_00000036243484675313239080000004634087770512658330_);}
	.st584{fill:url(#XMLID_00000033339647961999372370000003347340795073999255_);}
	.st585{fill:url(#XMLID_00000170238085751400836760000017928178265367356575_);}
	.st586{fill:url(#XMLID_00000109751028568071062720000007719303802931133108_);}
	.st587{fill:url(#XMLID_00000135671302887830132670000003640362187222017933_);}
	.st588{fill:url(#XMLID_00000108298367215099910470000014374590185970710206_);}
	.st589{fill:url(#XMLID_00000181775478718040056400000002754089556880507269_);}
	.st590{fill:url(#XMLID_00000046329367306533029740000002082359868922194622_);}
	.st591{fill:url(#XMLID_00000105396559607524034880000005220037996350700988_);}
	.st592{fill:url(#XMLID_00000169515724787208977650000013907387676717290417_);}
	.st593{fill:url(#XMLID_00000139260067065393796920000007847301797497706940_);}
	.st594{fill:url(#XMLID_00000091737676576688254760000005304756794533736366_);}
	.st595{fill:url(#XMLID_00000040560070346298452510000016332710580236304288_);}
	.st596{fill:url(#XMLID_00000075849774805028382220000006773124642726032290_);}
	.st597{fill:url(#XMLID_00000070824503874765325440000014744272969567051156_);}
	.st598{fill:#FCFDFF;}
	.st599{fill:#757576;}
	.st600{fill:#D4D3D3;}
	.st601{fill:#E2E4E0;}
	.st602{fill:#B5B4B4;}
	.st603{fill:#908F8A;}
	.st604{fill:#F6F6F5;}
	.st605{fill:#3E4046;}
	.st606{fill:#525557;}
	.st607{fill:#E1E2E2;}
	.st608{fill:#E8E9EA;}
	.st609{fill:#2B2E35;}
	.st610{fill:#64666B;}
	.st611{fill:url(#XMLID_00000116943086372622980240000008389157365249770125_);}
	.st612{fill:#F0F0F0;}
	.st613{fill:#757779;}
	.st614{fill:#191B22;}
	.st615{fill:#14181E;}
	.st616{fill:#11141A;}
	.st617{fill:#DAEBE7;}
	.st618{fill:#7F8082;}
	.st619{fill:#A7B3B4;}
	.st620{fill:#3C575C;}
	.st621{fill:#CED6D6;}
	.st622{fill:#1A3A66;}
	.st623{fill:#2887C4;}
	.st624{fill:#66C3D8;}
	.st625{fill:#07282F;}
	.st626{fill:#8B9B9D;}
	.st627{fill:#72888C;}
	.st628{fill:#7F1710;}
	.st629{fill:#C3253D;}
	.st630{fill:#D9648A;}
	.st631{fill:#A24817;}
	.st632{fill:#DAA802;}
	.st633{fill:#EEB219;}
	.st634{fill:#424242;}
	.st635{fill:#474646;}
	.st636{fill:#AAB545;}
	.st637{fill:#C17D11;}
	.st638{fill:#CACCD2;}
	.st639{fill:#B6BCC6;}
	.st640{fill:#353842;}
	.st641{fill:#585C64;}
	.st642{fill:#454852;}
	.st643{fill:#62656C;}
	.st644{fill:#72757B;}
	.st645{fill:#3A3D42;}
	.st646{fill:#494D53;}
	.st647{fill:#161A24;}
	.st648{fill:#4C4F58;}
	.st649{fill:#666970;}
	.st650{fill:#7F7F83;}
	.st651{fill:#383C40;}
	.st652{fill:#1E222B;}
	.st653{fill:url(#XMLID_00000046341918964350201890000006741940614398670751_);}
	.st654{fill:#3D4049;}
	.st655{fill:url(#XMLID_00000049216471862864300120000010766464681475863682_);}
	.st656{fill:#30333C;}
	.st657{fill:#474D57;}
	.st658{fill:#75787F;}
	.st659{fill:#2F7E9D;}
	.st660{fill:#6DC0B2;}
	.st661{fill:url(#XMLID_00000008864794593623725030000013962434906418647194_);}
	.st662{fill:#F1F8FA;}
	.st663{fill:url(#XMLID_00000018940865282089569310000007981904698925301654_);}
	.st664{fill:url(#XMLID_00000023250077227378470770000016530979301399226024_);}
	.st665{fill:#ECF6F9;}
	.st666{fill:url(#XMLID_00000011711326967390936170000015785952722091532938_);}
	.st667{fill:url(#XMLID_00000059996371271386571840000002948809731658334383_);}
	.st668{fill:#CFE4F1;}
	.st669{fill:#DADADA;}
	.st670{fill:#D32D16;}
	.st671{fill:#176581;}
	.st672{fill:#9ED1F2;}
	.st673{fill:#1B222D;}
	.st674{fill:#EBE9EA;}
	.st675{fill:#C9CED5;}
	.st676{fill:#E1E0E0;}
	.st677{fill:#E7E6E6;}
	.st678{fill:#E8E7E7;}
	.st679{fill:#BFCBDD;}
	.st680{fill:#9D958F;}
	.st681{fill:#FFDC04;}
	.st682{fill:#B21828;}
	.st683{fill:#D8408F;}
	.st684{fill:#574997;}
	.st685{fill:#356AB1;}
	.st686{fill:#45B3E7;}
	.st687{fill:#2D8A36;}
	.st688{fill:#D0CFD0;}
	.st689{fill:#98A88B;}
	.st690{fill:#F8E825;}
	.st691{fill:#CB1333;}
	.st692{fill:url(#XMLID_00000147919419681220915990000010867314939242857136_);}
	.st693{fill:#0B0E18;}
	.st694{fill:#40424A;}
	.st695{fill:url(#XMLID_00000116200037928030989140000008186062589762615450_);}
	.st696{fill:#71757D;}
	.st697{fill:#C2C2C4;}
	.st698{fill:url(#XMLID_00000117649073827401038890000015008588479631954586_);}
	.st699{fill:#9DA094;}
	.st700{fill:#D4D4D4;}
	.st701{fill:url(#XMLID_00000053528760328477755920000014581152733671828631_);}
	.st702{fill:url(#XMLID_00000046308577846010181370000011955390293554643843_);}
	.st703{fill:#E8E8E8;}
	.st704{fill:#15120B;}
	.st705{fill:#4C4842;}
	.st706{fill:#74AEDF;}
	.st707{fill:#413D3F;}
	.st708{fill:#48494A;}
	.st709{fill:#080504;}
	.st710{fill:#4E4D4D;}
	.st711{fill:#A1A0A0;}
	.st712{fill:#FBEEF5;}
	.st713{fill:#BFBEBE;}
	.st714{fill:#015A64;}
	.st715{fill:#B81818;}
	.st716{fill:#8C811D;}
	.st717{fill:#03709B;}
	.st718{fill:#E74B1E;}
	.st719{fill:#F2B000;}
	.st720{fill:#E33335;}
	.st721{fill:#F8F09C;}
	.st722{fill:#FAEF81;}
	.st723{fill:#E7A8CB;}
	.st724{fill:#CD90BE;}
	.st725{fill:#847A73;}
	.st726{fill:#CCCBCB;}
	.st727{fill:#EDECEC;}
	.st728{fill:#9D9D9D;}
	.st729{fill:#EFEFEF;}
	.st730{fill:#4F525A;}
	.st731{fill:#E15C48;}
	.st732{fill:url(#XMLID_00000154404710137447673650000007489092636259026095_);}
	.st733{fill:url(#XMLID_00000040566683856172895930000008964111868351298951_);}
	.st734{fill:url(#XMLID_00000153664756216545003010000011505740830349022080_);}
	.st735{fill:url(#XMLID_00000042722134840746497240000003637109190161241266_);}
	.st736{fill:url(#XMLID_00000180362068317964265860000011585590238410620838_);}
	.st737{fill:#9E9D9D;}
	.st738{fill:#9DCBEF;}
	.st739{fill:#010000;}
	.st740{fill:url(#SVGID_00000025406332396622341690000010403172263620515979_);}
	.st741{fill:url(#SVGID_00000177481129205111142580000010774449488758995074_);}
	.st742{fill:url(#SVGID_00000119100450289162528220000009976072572586425008_);}
	.st743{fill:#D2D2D2;}
	.st744{fill:#232C35;}
	.st745{fill:#E39470;}
	.st746{fill:url(#XMLID_00000138543803830735528080000016356779060493457319_);}
	.st747{fill:#9DA6AC;}
	.st748{fill:#72979F;}
	.st749{fill:#96A1AB;}
	.st750{fill:#5F7887;}
	.st751{fill:#CC1B31;}
	.st752{fill:url(#XMLID_00000152970634778531733340000004739830256000513696_);}
	.st753{fill:url(#XMLID_00000011715408652130103850000010391325172786838443_);}
	.st754{fill:url(#XMLID_00000014631118069584564580000015901070242085944197_);}
	.st755{fill:#C0C4B6;}
	.st756{fill:#CEE8EC;}
	.st757{fill:url(#XMLID_00000056387026576444862570000004968165744900890025_);}
	.st758{fill:url(#XMLID_00000059296619390443296700000006288212382794367104_);}
	.st759{fill:#384C5A;}
	.st760{fill:url(#XMLID_00000109020720636076415290000018270310962259552437_);}
	.st761{fill:#ED9E02;}
	.st762{fill:#FFE253;}
	.st763{fill:#F7C318;}
	.st764{fill:#DDB988;}
	.st765{fill:#D2A37C;}
	.st766{fill:#C98666;}
	.st767{fill:#2C7EAE;}
	.st768{fill:#A61916;}
	.st769{fill:#E6704B;}
	.st770{fill:#DF3118;}
	.st771{fill:#00648A;}
	.st772{fill:#4CB0E4;}
	.st773{fill:#2178BD;}
	.st774{fill:#058A38;}
	.st775{fill:#6EB761;}
	.st776{fill:#4DAD3C;}
	.st777{fill:#283373;}
	.st778{fill:#4A60A8;}
	.st779{fill:#274394;}
	.st780{fill:#49267F;}
	.st781{fill:#7C559E;}
	.st782{fill:#693D8F;}
	.st783{fill:#871D6C;}
	.st784{fill:#C5569A;}
	.st785{fill:#CA1781;}
	.st786{fill:#2D1B1B;}
	.st787{fill:#8A5655;}
	.st788{fill:#734748;}
	.st789{fill:url(#XMLID_00000123433828874148171520000007959692919240092602_);}
	.st790{fill:#A3B5D1;}
	.st791{fill:#04559C;}
</style>
<g>
	<g>
		<path class="st0" d="M70.81,63.61c-21.3,2.5-42.83,2.5-64.13,0C3,63.16,0,59.7,0,56.04C0,40.51,0,24.98,0,9.45
			c0-3.66,3-7.12,6.68-7.57c21.3-2.5,42.83-2.5,64.13,0c3.68,0.45,6.68,3.91,6.68,7.57c0,15.53,0,31.06,0,46.59
			C77.49,59.7,74.49,63.16,70.81,63.61z"/>
	</g>
	<g>
		<path class="st64" d="M49.87,33.34l-0.39,1.4c-2.14,4.91-9.67,6.12-15.62,6.27l-0.02-1.04C43.26,39.52,48.65,37.29,49.87,33.34"/>
		<path class="st64" d="M50.2,31.26l-0.18,1.34c-1.51,5.44-10.81,6.58-16.22,6.77l-0.1-1.21C47.34,37.35,49.89,33.49,50.2,31.26"/>
		<path class="st64" d="M33.01,38.19l0.12,1.2c-2.26,0.02-2.26,0.02-3.54-0.01l-0.2-1.13C31.41,38.23,31.72,38.23,33.01,38.19"/>
		<path class="st64" d="M50.26,29.24l0.01,0.72l-0.02,0.58c-0.16,1.12-0.66,4.55-10.53,6.3l-0.01-1.41
			C46.89,34.06,50.14,32.15,50.26,29.24"/>
		<path class="st64" d="M39,35.55l0.03,1.4c-2.35,0.31-2.54,0.33-4.37,0.46l-0.14-1.37C36.9,35.83,37.27,35.8,39,35.55"/>
		<path class="st64" d="M33.78,36.09l0.15,1.36c-2.47,0.11-2.47,0.11-4.18,0.14l-0.22-1.28C31.62,36.22,32.11,36.2,33.78,36.09"/>
		<polygon class="st64" points="28.91,36.34 29.13,37.61 27.87,37.62 27.62,36.38 		"/>
		<polygon class="st64" points="26.54,36.2 26.77,37.47 25.51,37.49 25.26,36.25 		"/>
		<polygon class="st64" points="38.58,30.79 38.76,32.4 37.17,32.62 36.98,31.01 		"/>
		<polygon class="st64" points="36.22,31.11 36.42,32.71 34.8,32.89 34.6,31.31 		"/>
		<polygon class="st64" points="33.84,31.4 34.04,32.97 32.46,33.12 32.25,31.58 		"/>
		<polygon class="st64" points="31.53,31.66 31.74,33.19 30.22,33.33 30.01,31.83 		"/>
		<polygon class="st64" points="29.33,31.9 29.55,33.39 28.16,33.51 27.93,32.06 		"/>
		<polygon class="st64" points="33.17,39.99 33.21,41.01 31.86,41 31.76,39.99 		"/>
		<path class="st64" d="M50.07,27.31l0.15,1.25c-0.03,1.08-0.11,4.35-10.72,6.11l-0.1-1.53C45.18,32.09,50.49,30.65,50.07,27.31"/>
		<path class="st64" d="M38.66,33.27l0.12,1.53c-2.54,0.33-2.54,0.33-4.53,0.49l-0.18-1.49C36.34,33.57,37.03,33.5,38.66,33.27"/>
		<path class="st64" d="M33.32,33.86l0.19,1.48c-2.46,0.17-2.46,0.17-4.25,0.26l-0.23-1.39C31.1,34.05,31.73,34,33.32,33.86"/>
		<path class="st64" d="M49.68,25.52l0.28,1.15c0.18,1.95-0.96,3.98-10.46,5.61l-0.18-1.6C46.14,29.56,50.26,28.31,49.68,25.52"/>
		<path class="st65" d="M49.59,25.49c-0.9-1.5-2.46-3.35-5.05-5.59l-0.73,1.2c2.54,2.25,4.28,4.16,5.3,5.82
			C49.45,26.51,49.61,26.03,49.59,25.49"/>
		<path class="st65" d="M41.34,21.85c2.1,1.83,4.59,4.23,6.16,6.27c0.43-0.21,0.79-0.44,1.1-0.68c-1.15-1.76-3.18-4.09-6.39-6.85
			L41.34,21.85z"/>
		<path class="st65" d="M41.04,25c1.72,1.44,3.18,2.75,4.31,3.93c0.54-0.16,1.03-0.33,1.48-0.51c-1.04-1.26-2.59-2.8-4.82-4.69
			L41.04,25z"/>
		<path class="st66" d="M29.91,14.13l0.39-1.4c2.14-4.91,9.67-6.12,15.62-6.27l0.02,1.04C36.52,7.95,31.12,10.18,29.91,14.13"/>
		<path class="st66" d="M29.57,16.21l0.18-1.34c1.51-5.44,10.81-6.58,16.22-6.77l0.1,1.21C32.43,10.12,29.88,13.98,29.57,16.21"/>
		<path class="st66" d="M46.77,9.28l-0.12-1.2c2.26-0.02,2.26-0.02,3.54,0.01l0.2,1.13C48.36,9.24,48.05,9.24,46.77,9.28"/>
		<path class="st66" d="M29.52,18.22l-0.01-0.72l0.02-0.58c0.16-1.12,0.66-4.55,10.53-6.3l0.02,1.41
			C32.89,13.41,29.63,15.32,29.52,18.22"/>
		<path class="st66" d="M40.78,11.92l-0.03-1.4c2.35-0.31,2.54-0.33,4.37-0.46l0.14,1.37C42.87,11.63,42.51,11.66,40.78,11.92"/>
		<path class="st66" d="M45.99,11.38l-0.15-1.36c2.47-0.11,2.47-0.11,4.18-0.14l0.22,1.28C48.15,11.25,47.66,11.27,45.99,11.38"/>
		<polygon class="st66" points="50.87,11.13 50.64,9.86 51.9,9.85 52.16,11.08 		"/>
		<polygon class="st66" points="41.2,16.67 41.01,15.07 42.6,14.85 42.8,16.46 		"/>
		<polygon class="st66" points="43.55,16.36 43.35,14.76 44.98,14.58 45.18,16.16 		"/>
		<polygon class="st66" points="45.93,16.07 45.73,14.5 47.32,14.35 47.52,15.89 		"/>
		<polygon class="st66" points="48.25,15.81 48.04,14.28 49.55,14.14 49.76,15.64 		"/>
		<polygon class="st66" points="50.44,15.57 50.23,14.08 51.62,13.96 51.84,15.41 		"/>
		<polygon class="st66" points="46.6,7.48 46.56,6.45 47.92,6.46 48.01,7.48 		"/>
		<path class="st66" d="M29.71,20.15l-0.15-1.25c0.03-1.08,0.11-4.35,10.72-6.11l0.1,1.53C34.59,15.38,29.29,16.82,29.71,20.15"/>
		<path class="st66" d="M41.11,14.2L41,12.67c2.54-0.33,2.54-0.33,4.53-0.49l0.18,1.49C43.43,13.9,42.75,13.97,41.11,14.2"/>
		<path class="st66" d="M46.45,13.6l-0.19-1.48c2.46-0.17,2.46-0.17,4.25-0.26l0.23,1.39C48.67,13.42,48.05,13.47,46.45,13.6"/>
		<path class="st66" d="M30.1,21.94l-0.28-1.15c-0.18-1.95,0.96-3.98,10.46-5.61l0.18,1.6C33.63,17.91,29.51,19.16,30.1,21.94"/>
		<path class="st67" d="M30.18,21.97c0.9,1.5,2.46,3.35,5.06,5.59l0.73-1.2c-2.54-2.25-4.29-4.16-5.3-5.82
			C30.33,20.96,30.16,21.44,30.18,21.97"/>
		<path class="st67" d="M38.43,25.62c-2.1-1.83-4.59-4.23-6.16-6.27c-0.43,0.21-0.8,0.44-1.1,0.68c1.15,1.76,3.18,4.09,6.38,6.85
			L38.43,25.62z"/>
		<path class="st67" d="M38.73,22.47c-1.72-1.44-3.18-2.75-4.31-3.93c-0.54,0.16-1.03,0.33-1.48,0.51c1.04,1.26,2.59,2.8,4.82,4.69
			L38.73,22.47z"/>
		<path class="st64" d="M12.57,54.46l0.54-1.2c0.58,0.42,1.45,0.72,2.28,0.72c0.95,0,1.33-0.32,1.33-0.74c0-1.29-4.01-0.4-4.01-2.97
			c0-1.17,0.95-2.15,2.91-2.15c0.87,0,1.75,0.21,2.39,0.61l-0.49,1.21c-0.64-0.36-1.3-0.54-1.91-0.54c-0.95,0-1.31,0.35-1.31,0.79
			c0,1.27,4.01,0.39,4.01,2.93c0,1.15-0.96,2.14-2.93,2.14C14.29,55.26,13.19,54.93,12.57,54.46"/>
		<path class="st64" d="M18.97,51.69c0-2.05,1.6-3.57,3.77-3.57c2.17,0,3.77,1.51,3.77,3.57c0,2.06-1.61,3.57-3.77,3.57
			C20.56,55.26,18.97,53.74,18.97,51.69 M24.9,51.69c0-1.31-0.93-2.21-2.16-2.21c-1.23,0-2.16,0.9-2.16,2.21
			c0,1.31,0.93,2.21,2.16,2.21C23.97,53.9,24.9,53,24.9,51.69"/>
		<path class="st64" d="M27.28,51.69c0-2.08,1.6-3.57,3.74-3.57c1.19,0,2.19,0.43,2.84,1.22l-1.02,0.95
			c-0.46-0.53-1.04-0.81-1.73-0.81c-1.29,0-2.21,0.91-2.21,2.21c0,1.3,0.92,2.21,2.21,2.21c0.69,0,1.27-0.28,1.73-0.82l1.02,0.95
			c-0.65,0.8-1.65,1.23-2.85,1.23C28.88,55.26,27.28,53.77,27.28,51.69"/>
		<path class="st64" d="M39.34,53.66h-3.2l-0.61,1.48H33.9l3.07-6.9h1.58l3.08,6.9h-1.67L39.34,53.66z M38.84,52.45l-1.09-2.64
			l-1.09,2.64H38.84z"/>
		<path class="st64" d="M46.74,55.14l-1.33-1.92h-0.08h-1.39v1.92h-1.6v-6.9h2.99c1.84,0,3,0.96,3,2.5c0,1.03-0.52,1.79-1.42,2.18
			l1.55,2.22H46.74z M45.25,49.54h-1.3v2.4h1.3c0.98,0,1.47-0.45,1.47-1.2C46.71,49.99,46.22,49.54,45.25,49.54"/>
		<path class="st64" d="M54.13,53.66h-3.2l-0.61,1.48h-1.64l3.07-6.9h1.58l3.08,6.9h-1.67L54.13,53.66z M53.63,52.45l-1.09-2.64
			l-1.09,2.64H53.63z"/>
		<polygon class="st64" points="63.41,55.14 63.4,51 61.37,54.41 60.66,54.41 58.64,51.09 58.64,55.14 57.14,55.14 57.14,48.24 
			58.46,48.24 61.04,52.53 63.58,48.24 64.89,48.24 64.91,55.14 		"/>
		<path class="st66" d="M16.69,57.89h0.45v0.87c-0.24,0.18-0.56,0.27-0.87,0.27c-0.68,0-1.17-0.46-1.17-1.11
			c0-0.65,0.5-1.11,1.18-1.11c0.38,0,0.69,0.13,0.9,0.37l-0.32,0.3c-0.16-0.17-0.34-0.24-0.56-0.24c-0.42,0-0.7,0.28-0.7,0.69
			c0,0.4,0.29,0.69,0.7,0.69c0.14,0,0.26-0.02,0.39-0.09V57.89z"/>
		<polygon class="st66" points="18.53,56.84 19.03,56.84 19.03,58.59 20.1,58.59 20.1,59 18.53,59 		"/>
		<path class="st66" d="M21.13,57.92c0-0.64,0.5-1.11,1.18-1.11c0.68,0,1.18,0.47,1.18,1.11s-0.5,1.11-1.18,1.11
			C21.63,59.03,21.13,58.56,21.13,57.92 M22.98,57.92c0-0.41-0.29-0.69-0.67-0.69c-0.38,0-0.67,0.28-0.67,0.69
			c0,0.41,0.29,0.69,0.67,0.69C22.7,58.61,22.98,58.33,22.98,57.92"/>
		<path class="st66" d="M26.76,58.41c0,0.37-0.3,0.59-0.86,0.59h-1.11v-2.15h1.05c0.54,0,0.81,0.22,0.81,0.56
			c0,0.21-0.11,0.38-0.29,0.47C26.61,57.95,26.76,58.14,26.76,58.41 M25.28,57.22v0.51h0.49c0.24,0,0.37-0.09,0.37-0.26
			s-0.13-0.25-0.37-0.25H25.28z M26.26,58.36c0-0.18-0.14-0.27-0.4-0.27h-0.58v0.53h0.58C26.12,58.62,26.26,58.54,26.26,58.36"/>
		<path class="st66" d="M29.48,58.53h-1L28.29,59h-0.51l0.96-2.15h0.49L30.19,59h-0.52L29.48,58.53z M29.32,58.16l-0.34-0.82
			l-0.34,0.82H29.32z"/>
		<polygon class="st66" points="31.34,56.84 31.83,56.84 31.83,58.59 32.91,58.59 32.91,59 31.34,59 		"/>
		<path class="st66" d="M35.74,58.78l0.17-0.37c0.18,0.13,0.45,0.22,0.71,0.22c0.3,0,0.41-0.1,0.41-0.23c0-0.4-1.25-0.13-1.25-0.93
			c0-0.37,0.3-0.67,0.91-0.67c0.27,0,0.55,0.06,0.75,0.19l-0.15,0.38c-0.2-0.11-0.41-0.17-0.6-0.17c-0.3,0-0.41,0.11-0.41,0.25
			c0,0.4,1.25,0.12,1.25,0.91c0,0.36-0.3,0.67-0.91,0.67C36.27,59.03,35.93,58.93,35.74,58.78"/>
		<path class="st66" d="M38.65,57.92c0-0.64,0.5-1.11,1.18-1.11c0.68,0,1.18,0.47,1.18,1.11s-0.5,1.11-1.18,1.11
			C39.15,59.03,38.65,58.56,38.65,57.92 M40.5,57.92c0-0.41-0.29-0.69-0.67-0.69c-0.38,0-0.67,0.28-0.67,0.69
			c0,0.41,0.29,0.69,0.67,0.69C40.21,58.61,40.5,58.33,40.5,57.92"/>
		<polygon class="st66" points="42.3,56.84 42.8,56.84 42.8,58.59 43.88,58.59 43.88,59 42.3,59 		"/>
		<path class="st66" d="M45.04,58.05v-1.2h0.5v1.19c0,0.41,0.18,0.58,0.48,0.58c0.3,0,0.48-0.17,0.48-0.58v-1.19h0.49v1.2
			c0,0.63-0.36,0.98-0.97,0.98C45.4,59.03,45.04,58.68,45.04,58.05"/>
		<polygon class="st66" points="48.81,57.25 48.12,57.25 48.12,56.84 49.99,56.84 49.99,57.25 49.31,57.25 49.31,59 48.81,59 		"/>
		<rect x="51.18" y="56.84" class="st66" width="0.5" height="2.15"/>
		<path class="st66" d="M52.98,57.92c0-0.64,0.5-1.11,1.18-1.11c0.68,0,1.18,0.47,1.18,1.11s-0.5,1.11-1.18,1.11
			C53.48,59.03,52.98,58.56,52.98,57.92 M54.83,57.92c0-0.41-0.29-0.69-0.67-0.69s-0.67,0.28-0.67,0.69c0,0.41,0.29,0.69,0.67,0.69
			S54.83,58.33,54.83,57.92"/>
		<polygon class="st66" points="58.6,56.84 58.6,59 58.19,59 57.12,57.69 57.12,59 56.63,59 56.63,56.84 57.04,56.84 58.11,58.15 
			58.11,56.84 		"/>
		<path class="st66" d="M59.87,58.78l0.17-0.37c0.18,0.13,0.45,0.22,0.71,0.22c0.3,0,0.41-0.1,0.41-0.23c0-0.4-1.25-0.13-1.25-0.93
			c0-0.37,0.3-0.67,0.91-0.67c0.27,0,0.55,0.06,0.75,0.19l-0.15,0.38c-0.2-0.11-0.41-0.17-0.6-0.17c-0.3,0-0.41,0.11-0.41,0.25
			c0,0.4,1.25,0.12,1.25,0.91c0,0.36-0.3,0.67-0.91,0.67C60.4,59.03,60.06,58.93,59.87,58.78"/>
	</g>
</g>
</svg>
